<?xml version="1.0" encoding="UTF-8"?>
<svg xmlns="http://www.w3.org/2000/svg" xmlns:xlink="http://www.w3.org/1999/xlink" width="400" height="302.860766" viewBox="0 0 400 302.860766">
<path fill-rule="nonzero" fill="rgb(6.666667%, 52.941176%, 87.058824%)" fill-opacity="1" d="M 33.683594 288.679688 C 31.621094 288.511719 31.453125 288.175781 30.953125 285.613281 L 27.609375 265.5 L 26.71875 265.5 L 16.410156 283.273438 C 13.570312 288.007812 13.234375 288.398438 11.785156 288.679688 L 11.785156 289.234375 L 18.472656 289.234375 L 18.472656 288.679688 C 16.632812 288.511719 16.355469 288.289062 16.355469 287.398438 C 16.355469 286.726562 16.46875 286.449219 17.078125 285.222656 L 19.085938 281.210938 L 26.941406 281.210938 L 27.609375 285.835938 C 27.667969 286.171875 27.722656 286.503906 27.722656 286.785156 C 27.722656 288.121094 27.21875 288.457031 24.9375 288.679688 L 24.9375 289.234375 L 33.683594 289.234375 Z M 19.867188 279.929688 L 25.160156 270.679688 L 26.71875 279.929688 Z M 19.867188 279.929688 "/>
<path fill-rule="nonzero" fill="rgb(6.666667%, 52.941176%, 87.058824%)" fill-opacity="1" d="M 385.078125 20.949219 L 386.414062 13.871094 L 385.632812 13.871094 C 385.355469 14.484375 385.019531 14.652344 384.296875 14.652344 C 384.019531 14.652344 383.570312 14.597656 382.847656 14.429688 C 381.230469 14.039062 379.839844 13.816406 378.667969 13.816406 C 371.089844 13.816406 364.238281 20.949219 364.238281 28.859375 C 364.238281 34.320312 368.082031 38.109375 373.542969 38.109375 C 377.164062 38.109375 380.007812 36.546875 383.238281 32.816406 L 382.625 32.3125 C 379.449219 35.488281 377.386719 36.546875 374.433594 36.546875 C 370.480469 36.546875 368.25 33.816406 368.25 29.25 C 368.25 25.015625 369.921875 20.726562 372.707031 17.828125 C 374.433594 16.101562 376.664062 15.097656 379.003906 15.097656 C 382.289062 15.097656 384.074219 17.046875 384.40625 20.835938 Z M 385.078125 20.949219 "/>
<path fill-rule="nonzero" fill="rgb(6.666667%, 52.941176%, 87.058824%)" fill-opacity="1" d="M 363.398438 288.417969 L 373.429688 288.417969 C 379 288.417969 382.84375 285.523438 382.84375 281.285156 C 382.84375 280.003906 382.398438 278.722656 381.617188 277.945312 C 380.894531 277.164062 380.226562 276.71875 378.332031 275.9375 C 380.894531 275.324219 381.898438 274.933594 383.066406 273.933594 C 384.070312 273.039062 384.570312 271.871094 384.570312 270.421875 C 384.570312 267.078125 382.0625 265.183594 377.496094 265.183594 L 368.300781 265.183594 L 368.300781 265.796875 C 370.476562 265.964844 371.03125 266.242188 371.03125 267.246094 C 371.03125 267.746094 370.921875 268.640625 370.640625 269.53125 L 366.296875 285.242188 C 365.628906 287.304688 365.40625 287.472656 363.398438 287.863281 Z M 372.148438 276.664062 C 374.429688 276.664062 375.933594 276.773438 376.660156 277.050781 C 378.109375 277.664062 379 279.226562 379 281.175781 C 379 285.019531 376.382812 287.359375 372.035156 287.359375 C 370.53125 287.359375 369.75 286.804688 369.75 285.855469 C 369.75 285.410156 370.195312 283.738281 370.976562 280.898438 C 371.476562 279.28125 371.699219 278.445312 372.148438 276.664062 Z M 374.820312 267.246094 C 375.042969 266.464844 375.433594 266.300781 376.828125 266.300781 C 379.667969 266.300781 381.003906 267.46875 381.003906 270.085938 C 381.003906 272.148438 380.113281 273.710938 378.609375 274.546875 C 377.382812 275.269531 375.710938 275.492188 372.480469 275.492188 Z M 374.820312 267.246094 "/>
<path fill="none" stroke-width="0.79701" stroke-linecap="butt" stroke-linejoin="miter" stroke="rgb(6.666667%, 52.941176%, 87.058824%)" stroke-opacity="1" stroke-miterlimit="10" d="M -0.00129452 -0.000931473 L 85.042049 56.693536 L 85.042049 -0.000931473 L -0.00129452 -0.000931473 " transform="matrix(3.565921, 0, 0, -3.565921, 47.879616, 252.813085)"/>
<path fill="none" stroke-width="0.3985" stroke-linecap="butt" stroke-linejoin="miter" stroke="rgb(100%, 12.941176%, 32.156863%)" stroke-opacity="1" stroke-miterlimit="10" d="M 28.346487 -0.000931473 C 28.346487 5.596764 26.690182 11.068484 23.584612 15.725197 " transform="matrix(3.565921, 0, 0, -3.565921, 47.879616, 252.813085)"/>
<path fill-rule="nonzero" fill="rgb(100%, 12.941176%, 32.156863%)" fill-opacity="1" d="M 113.855469 225.929688 L 110.679688 232.058594 C 110.457031 227.765625 108.675781 225.484375 105.445312 225.484375 C 103.773438 225.484375 101.933594 226.152344 100.429688 227.265625 C 98.144531 228.9375 96.75 231.5 96.140625 235.011719 C 95.191406 240.695312 97.421875 244.148438 102.046875 244.148438 C 105.164062 244.148438 107.726562 242.585938 109.734375 239.410156 C 109.789062 240.082031 109.957031 240.695312 110.179688 241.585938 C 110.792969 243.589844 111.292969 244.148438 112.464844 244.148438 C 113.632812 244.148438 114.527344 243.421875 115.25 241.917969 C 115.640625 241.082031 115.863281 240.304688 116.253906 238.351562 L 115.304688 238.351562 C 114.972656 240.136719 114.078125 241.472656 113.1875 241.472656 C 112.019531 241.472656 111.128906 239.578125 111.128906 237.128906 L 117.03125 225.929688 Z M 109.121094 235.121094 L 107.894531 237.460938 C 106.058594 241.082031 104.328125 242.8125 102.546875 242.8125 C 101.433594 242.8125 100.484375 242.085938 100.039062 241.082031 C 99.539062 239.636719 99.480469 237.351562 99.929688 234.789062 C 100.375 232.28125 101.210938 230.105469 102.378906 228.546875 C 103.214844 227.488281 104.105469 226.988281 105.164062 226.988281 C 107.726562 226.988281 109.007812 229.046875 109.066406 233.058594 Z M 109.121094 235.121094 "/>
<path fill="none" stroke-width="0.3985" stroke-linecap="butt" stroke-linejoin="miter" stroke="rgb(6.666667%, 52.941176%, 87.058824%)" stroke-opacity="1" stroke-miterlimit="10" d="M 70.865968 -0.000931473 L 70.865968 14.174055 L 85.042049 14.174055 " transform="matrix(3.565921, 0, 0, -3.565921, 47.879616, 252.813085)"/>
<path fill-rule="nonzero" fill="rgb(6.666667%, 52.941176%, 87.058824%)" fill-opacity="1" d="M 74.582031 56.554688 C 72.855469 59.0625 71.574219 59.898438 69.570312 59.898438 C 66.335938 59.898438 64.054688 57.054688 64.054688 52.988281 C 64.054688 49.308594 66.003906 46.804688 68.902344 46.804688 C 70.183594 46.804688 70.628906 47.191406 70.960938 48.53125 L 71.183594 49.308594 C 71.464844 50.3125 72.132812 50.925781 72.855469 50.925781 C 73.804688 50.925781 74.582031 50.257812 74.582031 49.421875 C 74.582031 47.472656 72.078125 45.800781 69.125 45.800781 C 67.339844 45.800781 65.558594 46.46875 64.109375 47.75 C 62.324219 49.308594 61.324219 51.761719 61.324219 54.546875 C 61.324219 59.171875 64.109375 62.460938 68.066406 62.460938 C 69.679688 62.460938 71.074219 61.902344 72.355469 60.789062 C 73.359375 59.953125 74.027344 59.003906 75.085938 56.886719 Z M 74.582031 56.554688 "/>
<path fill-rule="nonzero" fill="rgb(6.666667%, 52.941176%, 87.058824%)" fill-opacity="1" d="M 85.121094 45.800781 C 80.496094 45.800781 77.265625 49.199219 77.265625 54.101562 C 77.265625 58.894531 80.550781 62.460938 85.007812 62.460938 C 89.523438 62.460938 92.921875 58.726562 92.921875 53.824219 C 92.921875 49.144531 89.632812 45.800781 85.121094 45.800781 Z M 84.617188 46.746094 C 87.628906 46.746094 89.6875 50.203125 89.6875 55.050781 C 89.6875 59.0625 88.128906 61.511719 85.453125 61.511719 C 84.0625 61.511719 82.722656 60.621094 82 59.226562 C 80.996094 57.390625 80.441406 54.882812 80.441406 52.375 C 80.441406 48.976562 82.109375 46.746094 84.617188 46.746094 Z M 84.617188 46.746094 "/>
<path fill-rule="nonzero" fill="rgb(6.666667%, 52.941176%, 87.058824%)" fill-opacity="1" d="M 105.167969 50.980469 L 105 46.132812 L 104.609375 46.132812 L 104.554688 46.191406 C 104.21875 46.46875 104.21875 46.46875 104.054688 46.46875 C 103.828125 46.46875 103.496094 46.414062 103.105469 46.246094 C 102.324219 45.96875 101.546875 45.800781 100.597656 45.800781 C 97.8125 45.800781 95.808594 47.640625 95.808594 50.203125 C 95.808594 52.152344 96.921875 53.601562 99.929688 55.328125 L 101.992188 56.496094 C 103.273438 57.167969 103.828125 58.058594 103.828125 59.117188 C 103.828125 60.675781 102.714844 61.679688 100.878906 61.679688 C 99.707031 61.679688 98.59375 61.234375 97.925781 60.453125 C 97.144531 59.5625 96.867188 58.726562 96.363281 56.722656 L 95.808594 56.722656 L 95.808594 62.292969 L 96.253906 62.292969 C 96.53125 61.902344 96.640625 61.847656 97.089844 61.847656 C 97.421875 61.847656 97.925781 61.902344 98.703125 62.125 C 99.707031 62.347656 100.710938 62.460938 101.324219 62.460938 C 104.054688 62.460938 106.335938 60.398438 106.335938 57.945312 C 106.335938 56.164062 105.5 54.992188 103.328125 53.710938 L 99.539062 51.425781 C 98.535156 50.871094 97.980469 49.980469 97.980469 49.03125 C 97.980469 47.582031 99.09375 46.582031 100.710938 46.582031 C 102.769531 46.582031 103.828125 47.804688 104.609375 50.980469 Z M 105.167969 50.980469 "/>
<path fill-rule="nonzero" fill="rgb(6.666667%, 52.941176%, 87.058824%)" fill-opacity="1" d="M 119.542969 70.648438 C 119.542969 70.539062 119.542969 70.484375 118.929688 69.871094 C 114.527344 65.414062 113.359375 58.671875 113.359375 53.210938 C 113.359375 47.027344 114.695312 40.839844 119.097656 36.441406 C 119.542969 35.992188 119.542969 35.9375 119.542969 35.828125 C 119.542969 35.546875 119.433594 35.4375 119.210938 35.4375 C 118.820312 35.4375 115.644531 37.886719 113.527344 42.402344 C 111.742188 46.300781 111.296875 50.257812 111.296875 53.210938 C 111.296875 55.996094 111.6875 60.285156 113.636719 64.355469 C 115.808594 68.699219 118.820312 71.039062 119.210938 71.039062 C 119.433594 71.039062 119.542969 70.929688 119.542969 70.648438 Z M 119.542969 70.648438 "/>
<path fill-rule="nonzero" fill="rgb(6.666667%, 52.941176%, 87.058824%)" fill-opacity="1" d="M 142.1875 44.351562 L 139.011719 50.480469 C 138.789062 46.191406 137.007812 43.90625 133.773438 43.90625 C 132.105469 43.90625 130.265625 44.574219 128.761719 45.6875 C 126.476562 47.359375 125.082031 49.921875 124.46875 53.433594 C 123.523438 59.117188 125.75 62.570312 130.375 62.570312 C 133.496094 62.570312 136.058594 61.011719 138.066406 57.835938 C 138.121094 58.503906 138.289062 59.117188 138.511719 60.007812 C 139.125 62.015625 139.625 62.570312 140.796875 62.570312 C 141.964844 62.570312 142.855469 61.847656 143.582031 60.34375 C 143.972656 59.507812 144.195312 58.726562 144.585938 56.777344 L 143.636719 56.777344 C 143.304688 58.558594 142.410156 59.898438 141.519531 59.898438 C 140.351562 59.898438 139.457031 58.003906 139.457031 55.550781 L 145.363281 44.351562 Z M 137.453125 53.546875 L 136.226562 55.886719 C 134.386719 59.507812 132.660156 61.234375 130.878906 61.234375 C 129.761719 61.234375 128.816406 60.507812 128.371094 59.507812 C 127.867188 58.058594 127.8125 55.773438 128.257812 53.210938 C 128.703125 50.703125 129.539062 48.53125 130.710938 46.96875 C 131.546875 45.910156 132.4375 45.410156 133.496094 45.410156 C 136.058594 45.410156 137.339844 47.472656 137.398438 51.484375 Z M 137.453125 53.546875 "/>
<path fill-rule="nonzero" fill="rgb(6.666667%, 52.941176%, 87.058824%)" fill-opacity="1" d="M 157.1875 53.210938 C 157.1875 50.480469 156.800781 46.191406 154.847656 42.121094 C 152.730469 37.777344 149.667969 35.4375 149.332031 35.4375 C 149.109375 35.4375 148.941406 35.605469 148.941406 35.828125 C 148.941406 35.9375 148.941406 35.992188 149.613281 36.664062 C 153.121094 40.171875 155.128906 45.800781 155.128906 53.210938 C 155.128906 59.339844 153.847656 65.578125 149.445312 70.039062 C 148.941406 70.484375 148.941406 70.539062 148.941406 70.648438 C 148.941406 70.875 149.109375 71.039062 149.332031 71.039062 C 149.667969 71.039062 152.898438 68.589844 154.960938 64.074219 C 156.800781 60.175781 157.1875 56.21875 157.1875 53.210938 Z M 157.1875 53.210938 "/>
<path fill-rule="nonzero" fill="rgb(6.666667%, 52.941176%, 87.058824%)" fill-opacity="1" d="M 193.007812 50.480469 C 193.566406 50.480469 194.234375 50.480469 194.234375 49.8125 C 194.234375 49.085938 193.566406 49.085938 193.066406 49.085938 L 171.78125 49.085938 C 171.277344 49.085938 170.609375 49.085938 170.609375 49.8125 C 170.609375 50.480469 171.277344 50.480469 171.78125 50.480469 Z M 193.066406 57.390625 C 193.566406 57.390625 194.234375 57.390625 194.234375 56.664062 C 194.234375 55.996094 193.566406 55.996094 193.007812 55.996094 L 171.78125 55.996094 C 171.277344 55.996094 170.609375 55.996094 170.609375 56.664062 C 170.609375 57.390625 171.277344 57.390625 171.78125 57.390625 Z M 193.066406 57.390625 "/>
<path fill-rule="nonzero" fill="rgb(6.666667%, 52.941176%, 87.058824%)" fill-opacity="1" d="M 228.433594 37.515625 C 226.371094 37.347656 226.203125 37.015625 225.703125 34.453125 L 222.359375 14.335938 L 221.46875 14.335938 L 211.160156 32.113281 C 208.320312 36.847656 207.984375 37.238281 206.535156 37.515625 L 206.535156 38.074219 L 213.222656 38.074219 L 213.222656 37.515625 C 211.382812 37.347656 211.105469 37.125 211.105469 36.234375 C 211.105469 35.566406 211.214844 35.289062 211.828125 34.0625 L 213.835938 30.050781 L 221.691406 30.050781 L 222.359375 34.675781 C 222.414062 35.007812 222.472656 35.34375 222.472656 35.621094 C 222.472656 36.957031 221.96875 37.292969 219.683594 37.515625 L 219.683594 38.074219 L 228.433594 38.074219 Z M 214.613281 28.769531 L 219.90625 19.519531 L 221.46875 28.769531 Z M 214.613281 28.769531 "/>
<path fill-rule="nonzero" fill="rgb(6.666667%, 52.941176%, 87.058824%)" fill-opacity="1" d="M 229.800781 38.074219 L 239.832031 38.074219 C 245.402344 38.074219 249.246094 35.175781 249.246094 30.941406 C 249.246094 29.660156 248.800781 28.378906 248.023438 27.597656 C 247.296875 26.820312 246.628906 26.371094 244.734375 25.59375 C 247.296875 24.980469 248.300781 24.589844 249.46875 23.585938 C 250.472656 22.695312 250.976562 21.523438 250.976562 20.078125 C 250.976562 16.734375 248.46875 14.839844 243.898438 14.839844 L 234.707031 14.839844 L 234.707031 15.453125 C 236.878906 15.621094 237.4375 15.898438 237.4375 16.902344 C 237.4375 17.402344 237.324219 18.292969 237.046875 19.183594 L 232.699219 34.898438 C 232.03125 36.957031 231.808594 37.125 229.800781 37.515625 Z M 238.550781 26.316406 C 240.835938 26.316406 242.339844 26.429688 243.0625 26.707031 C 244.511719 27.320312 245.402344 28.878906 245.402344 30.828125 C 245.402344 34.675781 242.785156 37.015625 238.4375 37.015625 C 236.933594 37.015625 236.152344 36.457031 236.152344 35.511719 C 236.152344 35.066406 236.601562 33.394531 237.378906 30.550781 C 237.882812 28.9375 238.105469 28.101562 238.550781 26.316406 Z M 241.222656 16.902344 C 241.445312 16.121094 241.835938 15.953125 243.230469 15.953125 C 246.070312 15.953125 247.410156 17.125 247.410156 19.742188 C 247.410156 21.804688 246.515625 23.363281 245.011719 24.199219 C 243.789062 24.925781 242.117188 25.148438 238.882812 25.148438 Z M 241.222656 16.902344 "/>
<path fill="none" stroke-width="0.398" stroke-linecap="butt" stroke-linejoin="miter" stroke="rgb(6.666667%, 52.941176%, 87.058824%)" stroke-opacity="1" stroke-miterlimit="10" d="M -0.000976438 0.00125591 L 12.174833 0.00125591 " transform="matrix(3.565921, 0, 0, -3.565921, 208.374576, 53.24276)"/>
<path fill-rule="nonzero" fill="rgb(6.666667%, 52.941176%, 87.058824%)" fill-opacity="1" d="M 228.46875 85.9375 C 226.40625 85.769531 226.238281 85.4375 225.738281 82.875 L 222.394531 62.757812 L 221.503906 62.757812 L 211.195312 80.53125 C 208.355469 85.269531 208.019531 85.660156 206.570312 85.9375 L 206.570312 86.496094 L 213.257812 86.496094 L 213.257812 85.9375 C 211.417969 85.769531 211.140625 85.546875 211.140625 84.65625 C 211.140625 83.988281 211.25 83.710938 211.863281 82.484375 L 213.871094 78.472656 L 221.726562 78.472656 L 222.394531 83.097656 C 222.449219 83.429688 222.507812 83.765625 222.507812 84.042969 C 222.507812 85.378906 222.003906 85.714844 219.722656 85.9375 L 219.722656 86.496094 L 228.46875 86.496094 Z M 214.652344 77.191406 L 219.945312 67.941406 L 221.503906 77.191406 Z M 214.652344 77.191406 "/>
<path fill-rule="nonzero" fill="rgb(6.666667%, 52.941176%, 87.058824%)" fill-opacity="1" d="M 250.453125 69.945312 L 251.789062 62.871094 L 251.011719 62.871094 C 250.730469 63.484375 250.398438 63.652344 249.671875 63.652344 C 249.394531 63.652344 248.949219 63.59375 248.222656 63.429688 C 246.609375 63.039062 245.214844 62.816406 244.046875 62.816406 C 236.46875 62.816406 229.613281 69.945312 229.613281 77.859375 C 229.613281 83.320312 233.460938 87.109375 238.917969 87.109375 C 242.542969 87.109375 245.382812 85.546875 248.613281 81.816406 L 248 81.3125 C 244.824219 84.488281 242.765625 85.546875 239.8125 85.546875 C 235.855469 85.546875 233.625 82.816406 233.625 78.25 C 233.625 74.015625 235.296875 69.722656 238.082031 66.828125 C 239.8125 65.097656 242.039062 64.097656 244.378906 64.097656 C 247.667969 64.097656 249.449219 66.046875 249.785156 69.835938 Z M 250.453125 69.945312 "/>
</svg>
