<?xml version="1.0" encoding="UTF-8"?>
<svg xmlns="http://www.w3.org/2000/svg" xmlns:xlink="http://www.w3.org/1999/xlink" width="400" height="307.489784" viewBox="0 0 400 307.489784">
<defs>
<clipPath id="clip-0">
<path clip-rule="nonzero" d="M 20.007812 47.5625 L 387.609375 47.5625 L 387.609375 237.738281 L 20.007812 237.738281 Z M 20.007812 47.5625 "/>
</clipPath>
<clipPath id="clip-1">
<path clip-rule="nonzero" d="M 20.007812 222.019531 L 29 222.019531 L 29 241 L 20.007812 241 Z M 20.007812 222.019531 "/>
</clipPath>
<clipPath id="clip-2">
<path clip-rule="nonzero" d="M 379.203125 222.019531 L 387.609375 222.019531 L 387.609375 241 L 379.203125 241 Z M 379.203125 222.019531 "/>
</clipPath>
</defs>
<path fill="none" stroke-width="0.09962" stroke-linecap="butt" stroke-linejoin="miter" stroke="rgb(69.803922%, 69.803922%, 69.803922%)" stroke-opacity="1" stroke-dasharray="2.98883 2.98883" stroke-miterlimit="10" d="M 0.00117607 -0.000413995 L 0.00117607 124.726596 M 31.18094 -0.000413995 L 31.18094 124.726596 M 62.364681 -0.000413995 L 62.364681 124.726596 M 124.728186 -0.000413995 L 124.728186 124.726596 M 155.911926 -0.000413995 L 155.911926 124.726596 M 187.095667 -0.000413995 L 187.095667 124.726596 " transform="matrix(1.964791, 0, 0, -1.964791, 20.005502, 292.624187)"/>
<path fill="none" stroke-width="0.09962" stroke-linecap="butt" stroke-linejoin="miter" stroke="rgb(69.803922%, 69.803922%, 69.803922%)" stroke-opacity="1" stroke-dasharray="2.98883 2.98883" stroke-miterlimit="10" d="M 0.00117607 -0.000413995 L 187.095667 -0.000413995 M 0.00117607 62.363091 L 187.095667 62.363091 M 0.00117607 93.542855 L 187.095667 93.542855 M 0.00117607 124.726596 L 187.095667 124.726596 " transform="matrix(1.964791, 0, 0, -1.964791, 20.005502, 292.624187)"/>
<path fill="none" stroke-width="0.19925" stroke-linecap="butt" stroke-linejoin="miter" stroke="rgb(50.196078%, 50.196078%, 50.196078%)" stroke-opacity="1" stroke-miterlimit="10" d="M 0.00117607 29.058021 L 0.00117607 33.304656 M 31.18094 29.058021 L 31.18094 33.304656 M 62.364681 29.058021 L 62.364681 33.304656 M 124.728186 29.058021 L 124.728186 33.304656 M 155.911926 29.058021 L 155.911926 33.304656 M 187.095667 29.058021 L 187.095667 33.304656 " transform="matrix(1.964791, 0, 0, -1.964791, 20.005502, 292.624187)"/>
<path fill="none" stroke-width="0.19925" stroke-linecap="butt" stroke-linejoin="miter" stroke="rgb(50.196078%, 50.196078%, 50.196078%)" stroke-opacity="1" stroke-miterlimit="10" d="M 91.41914 -0.000413995 L 95.673727 -0.000413995 M 91.41914 62.363091 L 95.673727 62.363091 M 91.41914 93.542855 L 95.673727 93.542855 M 91.41914 124.726596 L 95.673727 124.726596 " transform="matrix(1.964791, 0, 0, -1.964791, 20.005502, 292.624187)"/>
<path fill="none" stroke-width="0.3985" stroke-linecap="butt" stroke-linejoin="miter" stroke="rgb(50.196078%, 50.196078%, 50.196078%)" stroke-opacity="1" stroke-miterlimit="10" d="M 0.00117607 31.17935 L 185.103566 31.17935 " transform="matrix(1.964791, 0, 0, -1.964791, 20.005502, 292.624187)"/>
<path fill-rule="nonzero" fill="rgb(50.196078%, 50.196078%, 50.196078%)" fill-opacity="1" d="M 387.609375 231.363281 L 381.339844 228.230469 L 383.695312 231.363281 L 381.339844 234.492188 "/>
<path fill="none" stroke-width="0.3985" stroke-linecap="butt" stroke-linejoin="miter" stroke="rgb(50.196078%, 50.196078%, 50.196078%)" stroke-opacity="1" stroke-miterlimit="10" d="M 93.548422 -0.000413995 L 93.548422 122.734495 " transform="matrix(1.964791, 0, 0, -1.964791, 20.005502, 292.624187)"/>
<path fill-rule="nonzero" fill="rgb(50.196078%, 50.196078%, 50.196078%)" fill-opacity="1" d="M 203.808594 47.5625 L 200.675781 53.824219 L 203.808594 51.476562 L 206.941406 53.824219 "/>
<path fill-rule="nonzero" fill="rgb(50.196078%, 50.196078%, 50.196078%)" fill-opacity="1" d="M 20.402344 251.027344 C 20.738281 251.027344 21.109375 251.027344 21.109375 250.628906 C 21.109375 250.261719 20.738281 250.261719 20.402344 250.261719 L 9.808594 250.261719 C 9.472656 250.261719 9.132812 250.261719 9.132812 250.628906 C 9.132812 251.027344 9.472656 251.027344 9.808594 251.027344 Z M 20.402344 251.027344 "/>
<path fill-rule="nonzero" fill="rgb(50.196078%, 50.196078%, 50.196078%)" fill-opacity="1" d="M 25.722656 249.0625 C 26.859375 249.0625 27.320312 249.125 27.78125 249.277344 C 29.007812 249.738281 29.777344 250.84375 29.777344 252.195312 C 29.777344 253.820312 28.640625 255.109375 27.195312 255.109375 C 26.675781 255.109375 26.277344 254.957031 25.570312 254.496094 C 24.957031 254.160156 24.648438 254.003906 24.3125 254.003906 C 23.851562 254.003906 23.542969 254.28125 23.542969 254.710938 C 23.542969 255.386719 24.402344 255.816406 25.785156 255.816406 C 27.289062 255.816406 28.824219 255.296875 29.746094 254.496094 C 30.667969 253.699219 31.1875 252.5625 31.1875 251.242188 C 31.1875 250.261719 30.851562 249.339844 30.296875 248.726562 C 29.898438 248.296875 29.53125 248.050781 28.671875 247.679688 C 30.023438 246.761719 30.511719 246.054688 30.511719 244.980469 C 30.511719 243.382812 29.253906 242.308594 27.441406 242.308594 C 26.460938 242.308594 25.601562 242.648438 24.894531 243.261719 C 24.3125 243.78125 24.035156 244.304688 23.605469 245.472656 L 23.882812 245.5625 C 24.679688 244.121094 25.570312 243.476562 26.796875 243.476562 C 28.085938 243.476562 28.976562 244.335938 28.976562 245.5625 C 28.976562 246.269531 28.671875 246.976562 28.179688 247.464844 C 27.597656 248.050781 27.042969 248.355469 25.722656 248.816406 Z M 25.722656 249.0625 "/>
<path fill-rule="nonzero" fill="rgb(50.196078%, 50.196078%, 50.196078%)" fill-opacity="1" d="M 81.664062 251.027344 C 82.003906 251.027344 82.371094 251.027344 82.371094 250.628906 C 82.371094 250.261719 82.003906 250.261719 81.664062 250.261719 L 71.074219 250.261719 C 70.738281 250.261719 70.398438 250.261719 70.398438 250.628906 C 70.398438 251.027344 70.738281 251.027344 71.074219 251.027344 Z M 81.664062 251.027344 "/>
<path fill-rule="nonzero" fill="rgb(50.196078%, 50.196078%, 50.196078%)" fill-opacity="1" d="M 93.28125 252.871094 L 93.039062 252.746094 C 92.300781 253.882812 92.054688 254.066406 91.164062 254.066406 L 86.5 254.066406 L 89.785156 250.597656 C 91.535156 248.785156 92.300781 247.28125 92.300781 245.777344 C 92.300781 243.8125 90.703125 242.308594 88.648438 242.308594 C 87.574219 242.308594 86.558594 242.738281 85.855469 243.507812 C 85.210938 244.183594 84.933594 244.796875 84.59375 246.207031 L 84.996094 246.300781 C 85.792969 244.367188 86.5 243.753906 87.847656 243.753906 C 89.476562 243.753906 90.613281 244.855469 90.613281 246.515625 C 90.613281 248.050781 89.691406 249.859375 88.0625 251.609375 L 84.5625 255.296875 L 84.5625 255.539062 L 92.207031 255.539062 Z M 93.28125 252.871094 "/>
<path fill-rule="nonzero" fill="rgb(50.196078%, 50.196078%, 50.196078%)" fill-opacity="1" d="M 142.933594 251.027344 C 143.269531 251.027344 143.636719 251.027344 143.636719 250.628906 C 143.636719 250.261719 143.269531 250.261719 142.933594 250.261719 L 132.339844 250.261719 C 132.003906 250.261719 131.664062 250.261719 131.664062 250.628906 C 131.664062 251.027344 132.003906 251.027344 132.339844 251.027344 Z M 142.933594 251.027344 "/>
<path fill-rule="nonzero" fill="rgb(50.196078%, 50.196078%, 50.196078%)" fill-opacity="1" d="M 150.957031 242.308594 L 147.425781 244.089844 L 147.425781 244.367188 C 147.640625 244.273438 147.855469 244.183594 147.949219 244.152344 C 148.316406 243.996094 148.625 243.9375 148.839844 243.9375 C 149.238281 243.9375 149.421875 244.210938 149.421875 244.855469 L 149.421875 253.730469 C 149.421875 254.375 149.269531 254.804688 148.960938 254.988281 C 148.65625 255.171875 148.378906 255.234375 147.550781 255.234375 L 147.550781 255.539062 L 152.953125 255.539062 L 152.953125 255.234375 C 151.417969 255.234375 151.109375 255.019531 151.109375 254.097656 L 151.109375 242.339844 Z M 150.957031 242.308594 "/>
<path fill-rule="nonzero" fill="rgb(50.196078%, 50.196078%, 50.196078%)" fill-opacity="1" d="M 265.886719 242.308594 L 262.355469 244.089844 L 262.355469 244.367188 C 262.570312 244.273438 262.785156 244.183594 262.878906 244.152344 C 263.246094 243.996094 263.550781 243.9375 263.765625 243.9375 C 264.167969 243.9375 264.351562 244.210938 264.351562 244.855469 L 264.351562 253.730469 C 264.351562 254.375 264.199219 254.804688 263.890625 254.988281 C 263.582031 255.171875 263.308594 255.234375 262.476562 255.234375 L 262.476562 255.539062 L 267.882812 255.539062 L 267.882812 255.234375 C 266.347656 255.234375 266.039062 255.019531 266.039062 254.097656 L 266.039062 242.339844 Z M 265.886719 242.308594 "/>
<path fill-rule="nonzero" fill="rgb(50.196078%, 50.196078%, 50.196078%)" fill-opacity="1" d="M 330.742188 252.871094 L 330.496094 252.746094 C 329.757812 253.882812 329.515625 254.066406 328.625 254.066406 L 323.957031 254.066406 L 327.242188 250.597656 C 328.992188 248.785156 329.757812 247.28125 329.757812 245.777344 C 329.757812 243.8125 328.164062 242.308594 326.105469 242.308594 C 325.03125 242.308594 324.019531 242.738281 323.3125 243.507812 C 322.667969 244.183594 322.390625 244.796875 322.054688 246.207031 L 322.453125 246.300781 C 323.25 244.367188 323.957031 243.753906 325.308594 243.753906 C 326.933594 243.753906 328.070312 244.855469 328.070312 246.515625 C 328.070312 248.050781 327.148438 249.859375 325.523438 251.609375 L 322.023438 255.296875 L 322.023438 255.539062 L 329.667969 255.539062 Z M 330.742188 252.871094 "/>
<path fill-rule="nonzero" fill="rgb(50.196078%, 50.196078%, 50.196078%)" fill-opacity="1" d="M 385.714844 249.0625 C 386.851562 249.0625 387.3125 249.125 387.769531 249.277344 C 389 249.738281 389.765625 250.84375 389.765625 252.195312 C 389.765625 253.820312 388.632812 255.109375 387.1875 255.109375 C 386.667969 255.109375 386.265625 254.957031 385.5625 254.496094 C 384.945312 254.160156 384.640625 254.003906 384.300781 254.003906 C 383.84375 254.003906 383.535156 254.28125 383.535156 254.710938 C 383.535156 255.386719 384.394531 255.816406 385.777344 255.816406 C 387.28125 255.816406 388.816406 255.296875 389.734375 254.496094 C 390.65625 253.699219 391.179688 252.5625 391.179688 251.242188 C 391.179688 250.261719 390.839844 249.339844 390.289062 248.726562 C 389.890625 248.296875 389.519531 248.050781 388.660156 247.679688 C 390.011719 246.761719 390.503906 246.054688 390.503906 244.980469 C 390.503906 243.382812 389.246094 242.308594 387.433594 242.308594 C 386.453125 242.308594 385.589844 242.648438 384.886719 243.261719 C 384.300781 243.78125 384.027344 244.304688 383.597656 245.472656 L 383.871094 245.5625 C 384.671875 244.121094 385.5625 243.476562 386.789062 243.476562 C 388.078125 243.476562 388.96875 244.335938 388.96875 245.5625 C 388.96875 246.269531 388.660156 246.976562 388.171875 247.464844 C 387.585938 248.050781 387.035156 248.355469 385.714844 248.816406 Z M 385.714844 249.0625 "/>
<path fill-rule="nonzero" fill="rgb(50.196078%, 50.196078%, 50.196078%)" fill-opacity="1" d="M 180.605469 293.847656 C 180.945312 293.847656 181.3125 293.847656 181.3125 293.449219 C 181.3125 293.078125 180.945312 293.078125 180.605469 293.078125 L 170.015625 293.078125 C 169.675781 293.078125 169.339844 293.078125 169.339844 293.449219 C 169.339844 293.847656 169.675781 293.847656 170.015625 293.847656 Z M 180.605469 293.847656 "/>
<path fill-rule="nonzero" fill="rgb(50.196078%, 50.196078%, 50.196078%)" fill-opacity="1" d="M 188.632812 285.128906 L 185.101562 286.910156 L 185.101562 287.183594 C 185.316406 287.09375 185.53125 287 185.625 286.96875 C 185.992188 286.816406 186.300781 286.753906 186.515625 286.753906 C 186.914062 286.753906 187.097656 287.03125 187.097656 287.675781 L 187.097656 296.546875 C 187.097656 297.191406 186.945312 297.621094 186.636719 297.808594 C 186.328125 297.992188 186.054688 298.050781 185.222656 298.050781 L 185.222656 298.359375 L 190.628906 298.359375 L 190.628906 298.050781 C 189.09375 298.050781 188.785156 297.835938 188.785156 296.917969 L 188.785156 285.160156 Z M 188.632812 285.128906 "/>
<path fill-rule="nonzero" fill="rgb(50.196078%, 50.196078%, 50.196078%)" fill-opacity="1" d="M 188.632812 163.410156 L 185.101562 165.191406 L 185.101562 165.46875 C 185.316406 165.375 185.53125 165.285156 185.625 165.253906 C 185.992188 165.097656 186.300781 165.039062 186.515625 165.039062 C 186.914062 165.039062 187.097656 165.3125 187.097656 165.960938 L 187.097656 174.832031 C 187.097656 175.476562 186.945312 175.90625 186.636719 176.089844 C 186.328125 176.273438 186.054688 176.335938 185.222656 176.335938 L 185.222656 176.640625 L 190.628906 176.640625 L 190.628906 176.335938 C 189.09375 176.335938 188.785156 176.121094 188.785156 175.199219 L 188.785156 163.441406 Z M 188.632812 163.410156 "/>
<path fill-rule="nonzero" fill="rgb(50.196078%, 50.196078%, 50.196078%)" fill-opacity="1" d="M 192.222656 112.707031 L 191.976562 112.582031 C 191.242188 113.71875 190.996094 113.902344 190.105469 113.902344 L 185.4375 113.902344 L 188.722656 110.433594 C 190.472656 108.621094 191.242188 107.117188 191.242188 105.613281 C 191.242188 103.648438 189.644531 102.144531 187.589844 102.144531 C 186.515625 102.144531 185.5 102.574219 184.792969 103.34375 C 184.148438 104.015625 183.875 104.632812 183.535156 106.042969 L 183.933594 106.136719 C 184.734375 104.203125 185.4375 103.585938 186.789062 103.585938 C 188.417969 103.585938 189.554688 104.691406 189.554688 106.351562 C 189.554688 107.886719 188.632812 109.695312 187.003906 111.445312 L 183.503906 115.128906 L 183.503906 115.375 L 191.148438 115.375 Z M 192.222656 112.707031 "/>
<path fill-rule="nonzero" fill="rgb(50.196078%, 50.196078%, 50.196078%)" fill-opacity="1" d="M 185.929688 47.484375 C 187.066406 47.484375 187.527344 47.542969 187.988281 47.699219 C 189.214844 48.160156 189.984375 49.265625 189.984375 50.613281 C 189.984375 52.242188 188.847656 53.53125 187.402344 53.53125 C 186.882812 53.53125 186.484375 53.378906 185.777344 52.917969 C 185.164062 52.578125 184.855469 52.425781 184.519531 52.425781 C 184.058594 52.425781 183.75 52.703125 183.75 53.132812 C 183.75 53.808594 184.609375 54.238281 185.992188 54.238281 C 187.496094 54.238281 189.03125 53.714844 189.953125 52.917969 C 190.875 52.117188 191.394531 50.984375 191.394531 49.664062 C 191.394531 48.679688 191.058594 47.757812 190.503906 47.144531 C 190.105469 46.714844 189.738281 46.46875 188.878906 46.101562 C 190.230469 45.179688 190.71875 44.476562 190.71875 43.398438 C 190.71875 41.804688 189.460938 40.730469 187.648438 40.730469 C 186.667969 40.730469 185.808594 41.066406 185.101562 41.679688 C 184.519531 42.203125 184.242188 42.726562 183.8125 43.890625 L 184.089844 43.984375 C 184.886719 42.539062 185.777344 41.894531 187.003906 41.894531 C 188.292969 41.894531 189.183594 42.753906 189.183594 43.984375 C 189.183594 44.691406 188.878906 45.394531 188.386719 45.886719 C 187.804688 46.46875 187.25 46.777344 185.929688 47.238281 Z M 185.929688 47.484375 "/>
<g clip-path="url(#clip-0)">
<path fill="none" stroke-width="0.99628" stroke-linecap="butt" stroke-linejoin="miter" stroke="rgb(6.666667%, 52.941176%, 87.058824%)" stroke-opacity="1" stroke-miterlimit="10" d="M 0.00117607 42.20748 L 1.887907 42.46196 L 3.778614 42.730357 L 5.66932 43.016647 L 7.560027 43.316853 L 9.450734 43.628989 L 11.337465 43.964982 L 13.228172 44.31688 L 15.118879 44.692636 L 17.009585 45.094237 L 18.896316 45.51572 L 20.787023 45.972988 L 22.67773 46.462067 L 24.568437 46.984944 L 26.459144 47.55156 L 28.345874 48.163902 L 30.236581 48.827936 L 32.127288 49.55559 L 34.017995 50.356804 L 35.908702 51.239532 L 37.795432 52.219677 L 39.686139 53.321098 L 41.574858 54.567653 L 43.465565 55.993138 L 45.356272 57.64527 L 47.243002 59.589657 L 49.133709 61.925703 L 51.024416 64.812461 L 52.915123 68.504409 L 54.801853 73.468757 L 56.69256 80.683663 L 58.583267 92.66808 L 60.473974 119.386492 L 62.364681 3532.571652 L 126.614916 119.477946 L 128.505623 92.695914 L 130.39633 80.699568 L 132.287037 73.480686 L 134.177744 68.512362 L 136.064475 64.820413 L 137.955181 61.933656 L 139.845888 59.593633 L 141.736595 57.649247 L 143.627302 55.997115 L 145.514033 54.571629 L 147.40474 53.325075 L 149.295446 52.223653 L 151.186153 51.243508 L 153.072884 50.356804 L 154.961603 49.559566 L 156.85231 48.827936 L 158.743016 48.163902 L 160.633723 47.55156 L 162.520454 46.984944 L 164.411161 46.462067 L 166.301868 45.972988 L 168.192575 45.519696 L 170.083281 45.094237 L 171.970012 44.692636 L 173.860719 44.320857 L 175.751426 43.964982 L 177.642133 43.632965 L 179.532839 43.316853 L 181.41957 43.016647 L 183.310277 42.734333 L 185.200984 42.465936 L 187.091691 42.20748 " transform="matrix(1.964791, 0, 0, -1.964791, 20.005502, 292.624187)"/>
</g>
<path fill="none" stroke-width="1.19553" stroke-linecap="butt" stroke-linejoin="miter" stroke="rgb(100%, 12.941176%, 32.156863%)" stroke-opacity="1" stroke-miterlimit="10" d="M 61.766255 31.17935 L 1.196039 31.17935 " transform="matrix(1.964791, 0, 0, -1.964791, 20.005502, 292.624187)"/>
<path fill="none" stroke-width="1.19553" stroke-linecap="butt" stroke-linejoin="miter" stroke="rgb(100%, 12.941176%, 32.156863%)" stroke-opacity="1" stroke-miterlimit="10" d="M -0.00121317 3.288018 C 1.815933 3.288018 3.287146 1.814818 3.287146 -0.00232845 C 3.287146 -1.81351 1.815933 -3.286711 -0.00121317 -3.286711 " transform="matrix(1.964791, 0, 0, -1.964791, 134.904727, 231.358706)"/>
<g clip-path="url(#clip-1)">
<path fill="none" stroke-width="1.19553" stroke-linecap="round" stroke-linejoin="round" stroke="rgb(100%, 12.941176%, 32.156863%)" stroke-opacity="1" stroke-miterlimit="10" d="M -3.029766 3.829469 C -2.475079 1.533185 -1.24443 0.447668 -0.00185199 0.00232845 C -1.24443 -0.446988 -2.475079 -1.534492 -3.029766 -3.830777 " transform="matrix(-1.964791, 0, 0, 1.964791, 21.179955, 231.358706)"/>
</g>
<path fill="none" stroke-width="1.19553" stroke-linecap="butt" stroke-linejoin="miter" stroke="rgb(100%, 12.941176%, 32.156863%)" stroke-opacity="1" stroke-miterlimit="10" d="M 125.326611 31.17935 L 185.900804 31.17935 " transform="matrix(1.964791, 0, 0, -1.964791, 20.005502, 292.624187)"/>
<path fill="none" stroke-width="1.19553" stroke-linecap="butt" stroke-linejoin="miter" stroke="rgb(100%, 12.941176%, 32.156863%)" stroke-opacity="1" stroke-miterlimit="10" d="M -0.000324257 3.286711 C 1.816822 3.286711 3.288034 1.81351 3.288034 0.00232845 C 3.288034 -1.814818 1.816822 -3.288018 -0.000324257 -3.288018 " transform="matrix(-1.964791, 0, 0, 1.964791, 272.706394, 231.358706)"/>
<g clip-path="url(#clip-2)">
<path fill="none" stroke-width="1.19553" stroke-linecap="round" stroke-linejoin="round" stroke="rgb(100%, 12.941176%, 32.156863%)" stroke-opacity="1" stroke-miterlimit="10" d="M -3.028685 3.830777 C -2.473998 1.534492 -1.241361 0.446988 0.00121723 -0.00232845 C -1.241361 -0.447668 -2.473998 -1.533185 -3.028685 -3.829469 " transform="matrix(1.964791, 0, 0, -1.964791, 386.431202, 231.358706)"/>
</g>
<path fill="none" stroke-width="0.3985" stroke-linecap="butt" stroke-linejoin="miter" stroke="rgb(50.196078%, 50.196078%, 50.196078%)" stroke-opacity="1" stroke-miterlimit="10" d="M 51.08406 129.913614 L 136.008807 129.913614 L 136.008807 148.234186 L 51.08406 148.234186 Z M 51.08406 129.913614 " transform="matrix(1.964791, 0, 0, -1.964791, 20.005502, 292.624187)"/>
<path fill="none" stroke-width="0.99628" stroke-linecap="butt" stroke-linejoin="miter" stroke="rgb(6.666667%, 52.941176%, 87.058824%)" stroke-opacity="1" stroke-miterlimit="10" d="M 0.00123223 0.000887799 L 17.009642 0.000887799 " transform="matrix(1.964791, 0, 0, -1.964791, 127.224141, 19.372838)"/>
<path fill-rule="nonzero" fill="rgb(50.196078%, 50.196078%, 50.196078%)" fill-opacity="1" d="M 169.144531 18.839844 L 170.925781 18.839844 L 169.207031 27.066406 C 168.777344 29.1875 168.132812 30.261719 167.304688 30.261719 C 167.058594 30.261719 166.90625 30.105469 166.90625 29.921875 C 166.90625 29.890625 166.9375 29.832031 166.996094 29.707031 C 167.058594 29.617188 167.089844 29.523438 167.089844 29.402344 C 167.089844 29 166.722656 28.664062 166.320312 28.664062 C 165.890625 28.664062 165.585938 29 165.585938 29.460938 C 165.585938 30.136719 166.292969 30.660156 167.152344 30.660156 C 168.871094 30.660156 170.25 28.726562 171.050781 25.132812 L 172.460938 18.839844 L 174.609375 18.839844 L 174.734375 18.226562 L 172.617188 18.226562 C 173.167969 15.15625 173.90625 13.742188 174.980469 13.742188 C 175.253906 13.742188 175.410156 13.867188 175.410156 13.988281 C 175.410156 14.050781 175.410156 14.082031 175.347656 14.203125 C 175.253906 14.359375 175.226562 14.449219 175.226562 14.605469 C 175.226562 15.0625 175.53125 15.371094 175.960938 15.371094 C 176.390625 15.371094 176.789062 15.035156 176.789062 14.605469 C 176.789062 13.867188 176.054688 13.3125 175.101562 13.3125 C 174.121094 13.3125 173.382812 13.742188 172.675781 14.664062 C 172.0625 15.433594 171.695312 16.351562 171.082031 18.226562 L 169.300781 18.226562 Z M 169.144531 18.839844 "/>
<path fill-rule="nonzero" fill="rgb(50.196078%, 50.196078%, 50.196078%)" fill-opacity="1" d="M 183.246094 31.304688 C 183.246094 31.242188 183.246094 31.210938 182.910156 30.875 C 180.484375 28.417969 179.839844 24.703125 179.839844 21.695312 C 179.839844 18.289062 180.578125 14.878906 183.003906 12.453125 C 183.246094 12.207031 183.246094 12.179688 183.246094 12.117188 C 183.246094 11.964844 183.1875 11.902344 183.0625 11.902344 C 182.847656 11.902344 181.097656 13.253906 179.933594 15.738281 C 178.949219 17.886719 178.703125 20.066406 178.703125 21.695312 C 178.703125 23.230469 178.917969 25.59375 179.992188 27.835938 C 181.191406 30.230469 182.847656 31.519531 183.0625 31.519531 C 183.1875 31.519531 183.246094 31.457031 183.246094 31.304688 Z M 183.246094 31.304688 "/>
<path fill-rule="nonzero" fill="rgb(50.196078%, 50.196078%, 50.196078%)" fill-opacity="1" d="M 192.226562 24.425781 C 192.070312 24.613281 191.980469 24.734375 191.796875 24.949219 C 191.367188 25.5625 191.121094 25.746094 190.90625 25.746094 C 190.628906 25.746094 190.445312 25.503906 190.292969 24.949219 C 190.261719 24.796875 190.230469 24.671875 190.230469 24.613281 C 189.738281 22.617188 189.523438 21.726562 189.523438 21.449219 C 190.382812 19.914062 191.089844 19.054688 191.425781 19.054688 C 191.550781 19.054688 191.703125 19.117188 191.917969 19.207031 C 192.132812 19.363281 192.285156 19.394531 192.441406 19.394531 C 192.839844 19.394531 193.117188 19.117188 193.117188 18.6875 C 193.117188 18.289062 192.777344 17.980469 192.316406 17.980469 C 191.457031 17.980469 190.722656 18.6875 189.371094 20.773438 L 189.15625 19.699219 C 188.878906 18.347656 188.664062 17.980469 188.113281 17.980469 C 187.683594 17.980469 187.035156 18.132812 185.839844 18.53125 L 185.625 18.625 L 185.6875 18.902344 C 186.453125 18.746094 186.605469 18.6875 186.792969 18.6875 C 187.28125 18.6875 187.40625 18.871094 187.683594 20.039062 L 188.234375 22.460938 L 186.636719 24.734375 C 186.238281 25.347656 185.839844 25.6875 185.625 25.6875 C 185.53125 25.6875 185.316406 25.625 185.132812 25.503906 C 184.886719 25.378906 184.671875 25.316406 184.488281 25.316406 C 184.121094 25.316406 183.84375 25.59375 183.84375 25.992188 C 183.84375 26.515625 184.242188 26.820312 184.828125 26.820312 C 185.410156 26.820312 185.65625 26.636719 186.636719 25.441406 C 187.160156 24.828125 187.589844 24.304688 188.386719 23.167969 L 189 25.503906 C 189.246094 26.515625 189.492188 26.820312 190.136719 26.820312 C 190.875 26.820312 191.367188 26.363281 192.5 24.582031 Z M 192.226562 24.425781 "/>
<path fill-rule="nonzero" fill="rgb(50.196078%, 50.196078%, 50.196078%)" fill-opacity="1" d="M 198.765625 21.695312 C 198.765625 20.191406 198.550781 17.828125 197.476562 15.585938 C 196.308594 13.191406 194.621094 11.902344 194.433594 11.902344 C 194.3125 11.902344 194.21875 11.992188 194.21875 12.117188 C 194.21875 12.179688 194.21875 12.207031 194.589844 12.578125 C 196.523438 14.511719 197.628906 17.613281 197.628906 21.695312 C 197.628906 25.070312 196.921875 28.511719 194.496094 30.964844 C 194.21875 31.210938 194.21875 31.242188 194.21875 31.304688 C 194.21875 31.425781 194.3125 31.519531 194.433594 31.519531 C 194.621094 31.519531 196.398438 30.167969 197.535156 27.683594 C 198.550781 25.53125 198.765625 23.351562 198.765625 21.695312 Z M 198.765625 21.695312 "/>
<path fill-rule="nonzero" fill="rgb(50.196078%, 50.196078%, 50.196078%)" fill-opacity="1" d="M 218.5 20.191406 C 218.808594 20.191406 219.175781 20.191406 219.175781 19.824219 C 219.175781 19.421875 218.808594 19.421875 218.53125 19.421875 L 206.804688 19.421875 C 206.527344 19.421875 206.160156 19.421875 206.160156 19.824219 C 206.160156 20.191406 206.527344 20.191406 206.804688 20.191406 Z M 218.53125 23.996094 C 218.808594 23.996094 219.175781 23.996094 219.175781 23.597656 C 219.175781 23.230469 218.808594 23.230469 218.5 23.230469 L 206.804688 23.230469 C 206.527344 23.230469 206.160156 23.230469 206.160156 23.597656 C 206.160156 23.996094 206.527344 23.996094 206.804688 23.996094 Z M 218.53125 23.996094 "/>
<path fill-rule="nonzero" fill="rgb(50.196078%, 50.196078%, 50.196078%)" fill-opacity="1" d="M 251.617188 9.101562 L 249.007812 10.421875 L 249.007812 10.605469 C 249.191406 10.546875 249.34375 10.484375 249.40625 10.453125 C 249.683594 10.359375 249.929688 10.300781 250.050781 10.300781 C 250.359375 10.300781 250.511719 10.515625 250.511719 10.976562 L 250.511719 17.542969 C 250.511719 18.035156 250.386719 18.375 250.144531 18.496094 C 249.929688 18.617188 249.742188 18.648438 249.128906 18.679688 L 249.128906 18.894531 L 253.121094 18.894531 L 253.121094 18.679688 C 251.984375 18.648438 251.738281 18.527344 251.738281 17.820312 L 251.738281 9.132812 Z M 251.617188 9.101562 "/>
<path fill="none" stroke-width="0.398" stroke-linecap="butt" stroke-linejoin="miter" stroke="rgb(50.196078%, 50.196078%, 50.196078%)" stroke-opacity="1" stroke-miterlimit="10" d="M -0.000971624 0.00100091 L 24.494716 0.00100091 " transform="matrix(1.964791, 0, 0, -1.964791, 226.966753, 21.712904)"/>
<path fill-rule="nonzero" fill="rgb(50.196078%, 50.196078%, 50.196078%)" fill-opacity="1" d="M 234.582031 41.144531 L 231.140625 33.53125 C 230.988281 33.226562 230.894531 33.226562 230.835938 33.226562 C 230.835938 33.226562 230.710938 33.226562 230.496094 33.378906 L 228.65625 34.792969 C 228.410156 35.007812 228.410156 35.035156 228.410156 35.097656 C 228.410156 35.222656 228.441406 35.3125 228.59375 35.3125 C 228.714844 35.3125 229.054688 35.035156 229.269531 34.882812 C 229.363281 34.792969 229.667969 34.574219 229.882812 34.421875 L 233.75 42.894531 C 233.875 43.203125 233.964844 43.203125 234.152344 43.203125 C 234.457031 43.203125 234.519531 43.109375 234.640625 42.835938 L 243.542969 24.414062 C 243.667969 24.136719 243.667969 24.078125 243.667969 24.015625 C 243.667969 23.832031 243.515625 23.617188 243.269531 23.617188 C 243.113281 23.617188 242.992188 23.738281 242.839844 24.046875 Z M 234.582031 41.144531 "/>
<path fill="none" stroke-width="0.388" stroke-linecap="butt" stroke-linejoin="miter" stroke="rgb(50.196078%, 50.196078%, 50.196078%)" stroke-opacity="1" stroke-miterlimit="10" d="M 0.000446635 0.0000549686 L 16.195713 0.0000549686 " transform="matrix(1.964791, 0, 0, -1.964791, 243.27256, 24.031358)"/>
<path fill-rule="nonzero" fill="rgb(50.196078%, 50.196078%, 50.196078%)" fill-opacity="1" d="M 249.105469 37.996094 C 248.984375 38.117188 248.921875 38.210938 248.769531 38.363281 C 248.460938 38.824219 248.277344 38.949219 248.125 38.949219 C 247.910156 38.949219 247.753906 38.761719 247.664062 38.363281 C 247.632812 38.242188 247.632812 38.148438 247.601562 38.117188 C 247.234375 36.644531 247.078125 35.96875 247.078125 35.753906 C 247.722656 34.648438 248.246094 34.003906 248.492188 34.003906 C 248.582031 34.003906 248.707031 34.066406 248.859375 34.128906 C 249.011719 34.21875 249.136719 34.25 249.226562 34.25 C 249.535156 34.25 249.75 34.035156 249.75 33.730469 C 249.75 33.421875 249.503906 33.207031 249.167969 33.207031 C 248.523438 33.207031 247.96875 33.730469 246.957031 35.265625 L 246.804688 34.464844 C 246.617188 33.484375 246.433594 33.207031 246.066406 33.207031 C 245.730469 33.207031 245.238281 33.328125 244.347656 33.636719 L 244.195312 33.667969 L 244.253906 33.914062 C 244.808594 33.757812 244.929688 33.730469 245.082031 33.730469 C 245.421875 33.730469 245.511719 33.882812 245.730469 34.742188 L 246.128906 36.523438 L 244.960938 38.210938 C 244.652344 38.640625 244.378906 38.917969 244.222656 38.917969 C 244.132812 38.917969 243.980469 38.855469 243.824219 38.792969 C 243.640625 38.671875 243.488281 38.640625 243.363281 38.640625 C 243.089844 38.640625 242.875 38.855469 242.875 39.132812 C 242.875 39.53125 243.179688 39.746094 243.609375 39.746094 C 244.039062 39.746094 244.222656 39.625 244.960938 38.734375 C 245.328125 38.273438 245.636719 37.875 246.25 37.042969 L 246.679688 38.792969 C 246.894531 39.53125 247.078125 39.746094 247.539062 39.746094 C 248.09375 39.746094 248.460938 39.410156 249.289062 38.089844 Z M 249.105469 37.996094 "/>
<path fill-rule="nonzero" fill="rgb(50.196078%, 50.196078%, 50.196078%)" fill-opacity="1" d="M 255.332031 33.808594 L 255.179688 33.746094 C 254.75 34.390625 254.597656 34.515625 254.074219 34.515625 L 251.25 34.515625 L 253.214844 32.425781 C 254.257812 31.351562 254.71875 30.460938 254.71875 29.542969 C 254.71875 28.375 253.769531 27.453125 252.570312 27.453125 C 251.894531 27.453125 251.3125 27.730469 250.851562 28.191406 C 250.484375 28.589844 250.300781 28.957031 250.113281 29.789062 L 250.359375 29.847656 C 250.820312 28.714844 251.25 28.3125 252.050781 28.3125 C 253.0625 28.3125 253.707031 28.988281 253.707031 29.972656 C 253.707031 30.894531 253.183594 31.996094 252.203125 33.042969 L 250.085938 35.253906 L 250.085938 35.40625 L 254.6875 35.40625 Z M 255.332031 33.808594 "/>
<path fill-rule="nonzero" fill="rgb(50.196078%, 50.196078%, 50.196078%)" fill-opacity="1" d="M 266.144531 36.246094 C 266.390625 36.246094 266.667969 36.246094 266.667969 35.96875 C 266.667969 35.695312 266.390625 35.695312 266.144531 35.695312 L 258.316406 35.695312 C 258.070312 35.695312 257.796875 35.695312 257.796875 35.96875 C 257.796875 36.246094 258.070312 36.246094 258.316406 36.246094 Z M 266.144531 36.246094 "/>
<path fill-rule="nonzero" fill="rgb(50.196078%, 50.196078%, 50.196078%)" fill-opacity="1" d="M 272.058594 29.800781 L 269.449219 31.121094 L 269.449219 31.304688 C 269.632812 31.242188 269.785156 31.179688 269.847656 31.148438 C 270.125 31.058594 270.371094 30.996094 270.492188 30.996094 C 270.800781 30.996094 270.953125 31.210938 270.953125 31.671875 L 270.953125 38.242188 C 270.953125 38.734375 270.828125 39.070312 270.585938 39.195312 C 270.371094 39.316406 270.183594 39.347656 269.570312 39.378906 L 269.570312 39.59375 L 273.5625 39.59375 L 273.5625 39.378906 C 272.425781 39.347656 272.179688 39.222656 272.179688 38.519531 L 272.179688 29.828125 Z M 272.058594 29.800781 "/>
</svg>
