<?xml version="1.0" encoding="UTF-8"?>
<svg xmlns="http://www.w3.org/2000/svg" xmlns:xlink="http://www.w3.org/1999/xlink" width="400" height="434.320973" viewBox="0 0 400 434.320973">
<defs>
<clipPath id="clip-0">
<path clip-rule="nonzero" d="M 20.007812 51.851562 L 387.609375 51.851562 L 387.609375 386 L 20.007812 386 Z M 20.007812 51.851562 "/>
</clipPath>
<clipPath id="clip-1">
<path clip-rule="nonzero" d="M 202.375 53 L 205 53 L 205 358 L 202.375 358 Z M 202.375 53 "/>
</clipPath>
<clipPath id="clip-2">
<path clip-rule="nonzero" d="M 195 51.851562 L 213 51.851562 L 213 60.910156 L 195 60.910156 Z M 195 51.851562 "/>
</clipPath>
</defs>
<path fill="none" stroke-width="0.09962" stroke-linecap="butt" stroke-linejoin="miter" stroke="rgb(69.803922%, 69.803922%, 69.803922%)" stroke-opacity="1" stroke-dasharray="2.98883 2.98883" stroke-miterlimit="10" d="M 0.00117607 0.00113032 L 0.00117607 187.095621 M 31.18094 0.00113032 L 31.18094 187.095621 M 62.364681 0.00113032 L 62.364681 187.095621 M 124.728186 0.00113032 L 124.728186 187.095621 M 155.911926 0.00113032 L 155.911926 187.095621 M 187.095667 0.00113032 L 187.095667 187.095621 " transform="matrix(1.964791, 0, 0, -1.964791, 20.005502, 419.455346)"/>
<path fill="none" stroke-width="0.09962" stroke-linecap="butt" stroke-linejoin="miter" stroke="rgb(69.803922%, 69.803922%, 69.803922%)" stroke-opacity="1" stroke-dasharray="2.98883 2.98883" stroke-miterlimit="10" d="M 0.00117607 0.00113032 L 187.095667 0.00113032 M 0.00117607 31.180895 L 187.095667 31.180895 M 0.00117607 62.364635 L 187.095667 62.364635 M 0.00117607 124.72814 L 187.095667 124.72814 M 0.00117607 155.911881 L 187.095667 155.911881 M 0.00117607 187.095621 L 187.095667 187.095621 " transform="matrix(1.964791, 0, 0, -1.964791, 20.005502, 419.455346)"/>
<path fill="none" stroke-width="0.19925" stroke-linecap="butt" stroke-linejoin="miter" stroke="rgb(50.196078%, 50.196078%, 50.196078%)" stroke-opacity="1" stroke-miterlimit="10" d="M 0.00117607 91.419094 L 0.00117607 95.673681 M 31.18094 91.419094 L 31.18094 95.673681 M 62.364681 91.419094 L 62.364681 95.673681 M 124.728186 91.419094 L 124.728186 95.673681 M 155.911926 91.419094 L 155.911926 95.673681 M 187.095667 91.419094 L 187.095667 95.673681 " transform="matrix(1.964791, 0, 0, -1.964791, 20.005502, 419.455346)"/>
<path fill="none" stroke-width="0.19925" stroke-linecap="butt" stroke-linejoin="miter" stroke="rgb(50.196078%, 50.196078%, 50.196078%)" stroke-opacity="1" stroke-miterlimit="10" d="M 91.41914 0.00113032 L 95.673727 0.00113032 M 91.41914 31.180895 L 95.673727 31.180895 M 91.41914 62.364635 L 95.673727 62.364635 M 91.41914 124.72814 L 95.673727 124.72814 M 91.41914 155.911881 L 95.673727 155.911881 M 91.41914 187.095621 L 95.673727 187.095621 " transform="matrix(1.964791, 0, 0, -1.964791, 20.005502, 419.455346)"/>
<path fill="none" stroke-width="0.3985" stroke-linecap="butt" stroke-linejoin="miter" stroke="rgb(50.196078%, 50.196078%, 50.196078%)" stroke-opacity="1" stroke-miterlimit="10" d="M 0.00117607 93.548376 L 185.103566 93.548376 " transform="matrix(1.964791, 0, 0, -1.964791, 20.005502, 419.455346)"/>
<path fill-rule="nonzero" fill="rgb(50.196078%, 50.196078%, 50.196078%)" fill-opacity="1" d="M 387.609375 235.652344 L 381.339844 232.519531 L 383.695312 235.652344 L 381.339844 238.785156 "/>
<path fill="none" stroke-width="0.3985" stroke-linecap="butt" stroke-linejoin="miter" stroke="rgb(50.196078%, 50.196078%, 50.196078%)" stroke-opacity="1" stroke-miterlimit="10" d="M 93.548422 0.00113032 L 93.548422 185.10352 " transform="matrix(1.964791, 0, 0, -1.964791, 20.005502, 419.455346)"/>
<path fill-rule="nonzero" fill="rgb(50.196078%, 50.196078%, 50.196078%)" fill-opacity="1" d="M 203.808594 51.851562 L 200.675781 58.121094 L 203.808594 55.765625 L 206.941406 58.121094 "/>
<path fill-rule="nonzero" fill="rgb(50.196078%, 50.196078%, 50.196078%)" fill-opacity="1" d="M 20.402344 255.332031 C 20.738281 255.332031 21.109375 255.332031 21.109375 254.929688 C 21.109375 254.5625 20.738281 254.5625 20.402344 254.5625 L 9.808594 254.5625 C 9.472656 254.5625 9.132812 254.5625 9.132812 254.929688 C 9.132812 255.332031 9.472656 255.332031 9.808594 255.332031 Z M 20.402344 255.332031 "/>
<path fill-rule="nonzero" fill="rgb(50.196078%, 50.196078%, 50.196078%)" fill-opacity="1" d="M 25.722656 253.367188 C 26.859375 253.367188 27.320312 253.425781 27.78125 253.582031 C 29.007812 254.042969 29.777344 255.148438 29.777344 256.496094 C 29.777344 258.125 28.640625 259.414062 27.195312 259.414062 C 26.675781 259.414062 26.277344 259.261719 25.570312 258.800781 C 24.957031 258.460938 24.648438 258.308594 24.3125 258.308594 C 23.851562 258.308594 23.542969 258.585938 23.542969 259.015625 C 23.542969 259.691406 24.402344 260.121094 25.785156 260.121094 C 27.289062 260.121094 28.824219 259.597656 29.746094 258.800781 C 30.667969 258 31.1875 256.867188 31.1875 255.546875 C 31.1875 254.5625 30.851562 253.640625 30.296875 253.027344 C 29.898438 252.597656 29.53125 252.351562 28.671875 251.984375 C 30.023438 251.0625 30.511719 250.355469 30.511719 249.28125 C 30.511719 247.6875 29.253906 246.613281 27.441406 246.613281 C 26.460938 246.613281 25.601562 246.949219 24.894531 247.5625 C 24.3125 248.085938 24.035156 248.609375 23.605469 249.773438 L 23.882812 249.867188 C 24.679688 248.421875 25.570312 247.777344 26.796875 247.777344 C 28.085938 247.777344 28.976562 248.636719 28.976562 249.867188 C 28.976562 250.570312 28.671875 251.277344 28.179688 251.769531 C 27.597656 252.351562 27.042969 252.660156 25.722656 253.121094 Z M 25.722656 253.367188 "/>
<path fill-rule="nonzero" fill="rgb(50.196078%, 50.196078%, 50.196078%)" fill-opacity="1" d="M 81.664062 255.332031 C 82.003906 255.332031 82.371094 255.332031 82.371094 254.929688 C 82.371094 254.5625 82.003906 254.5625 81.664062 254.5625 L 71.074219 254.5625 C 70.738281 254.5625 70.398438 254.5625 70.398438 254.929688 C 70.398438 255.332031 70.738281 255.332031 71.074219 255.332031 Z M 81.664062 255.332031 "/>
<path fill-rule="nonzero" fill="rgb(50.196078%, 50.196078%, 50.196078%)" fill-opacity="1" d="M 93.28125 257.171875 L 93.039062 257.050781 C 92.300781 258.1875 92.054688 258.371094 91.164062 258.371094 L 86.5 258.371094 L 89.785156 254.902344 C 91.535156 253.089844 92.300781 251.585938 92.300781 250.082031 C 92.300781 248.117188 90.703125 246.613281 88.648438 246.613281 C 87.574219 246.613281 86.558594 247.042969 85.855469 247.808594 C 85.210938 248.484375 84.933594 249.097656 84.59375 250.511719 L 84.996094 250.601562 C 85.792969 248.667969 86.5 248.054688 87.847656 248.054688 C 89.476562 248.054688 90.613281 249.160156 90.613281 250.816406 C 90.613281 252.351562 89.691406 254.164062 88.0625 255.914062 L 84.5625 259.597656 L 84.5625 259.84375 L 92.207031 259.84375 Z M 93.28125 257.171875 "/>
<path fill-rule="nonzero" fill="rgb(50.196078%, 50.196078%, 50.196078%)" fill-opacity="1" d="M 142.933594 255.332031 C 143.269531 255.332031 143.636719 255.332031 143.636719 254.929688 C 143.636719 254.5625 143.269531 254.5625 142.933594 254.5625 L 132.339844 254.5625 C 132.003906 254.5625 131.664062 254.5625 131.664062 254.929688 C 131.664062 255.332031 132.003906 255.332031 132.339844 255.332031 Z M 142.933594 255.332031 "/>
<path fill-rule="nonzero" fill="rgb(50.196078%, 50.196078%, 50.196078%)" fill-opacity="1" d="M 150.957031 246.613281 L 147.425781 248.390625 L 147.425781 248.667969 C 147.640625 248.578125 147.855469 248.484375 147.949219 248.453125 C 148.316406 248.300781 148.625 248.238281 148.839844 248.238281 C 149.238281 248.238281 149.421875 248.515625 149.421875 249.160156 L 149.421875 258.03125 C 149.421875 258.675781 149.269531 259.105469 148.960938 259.289062 C 148.65625 259.476562 148.378906 259.535156 147.550781 259.535156 L 147.550781 259.84375 L 152.953125 259.84375 L 152.953125 259.535156 C 151.417969 259.535156 151.109375 259.320312 151.109375 258.402344 L 151.109375 246.644531 Z M 150.957031 246.613281 "/>
<path fill-rule="nonzero" fill="rgb(50.196078%, 50.196078%, 50.196078%)" fill-opacity="1" d="M 265.886719 246.613281 L 262.355469 248.390625 L 262.355469 248.667969 C 262.570312 248.578125 262.785156 248.484375 262.878906 248.453125 C 263.246094 248.300781 263.550781 248.238281 263.765625 248.238281 C 264.167969 248.238281 264.351562 248.515625 264.351562 249.160156 L 264.351562 258.03125 C 264.351562 258.675781 264.199219 259.105469 263.890625 259.289062 C 263.582031 259.476562 263.308594 259.535156 262.476562 259.535156 L 262.476562 259.84375 L 267.882812 259.84375 L 267.882812 259.535156 C 266.347656 259.535156 266.039062 259.320312 266.039062 258.402344 L 266.039062 246.644531 Z M 265.886719 246.613281 "/>
<path fill-rule="nonzero" fill="rgb(50.196078%, 50.196078%, 50.196078%)" fill-opacity="1" d="M 330.742188 257.171875 L 330.496094 257.050781 C 329.757812 258.1875 329.515625 258.371094 328.625 258.371094 L 323.957031 258.371094 L 327.242188 254.902344 C 328.992188 253.089844 329.757812 251.585938 329.757812 250.082031 C 329.757812 248.117188 328.164062 246.613281 326.105469 246.613281 C 325.03125 246.613281 324.019531 247.042969 323.3125 247.808594 C 322.667969 248.484375 322.390625 249.097656 322.054688 250.511719 L 322.453125 250.601562 C 323.25 248.667969 323.957031 248.054688 325.308594 248.054688 C 326.933594 248.054688 328.070312 249.160156 328.070312 250.816406 C 328.070312 252.351562 327.148438 254.164062 325.523438 255.914062 L 322.023438 259.597656 L 322.023438 259.84375 L 329.667969 259.84375 Z M 330.742188 257.171875 "/>
<path fill-rule="nonzero" fill="rgb(50.196078%, 50.196078%, 50.196078%)" fill-opacity="1" d="M 385.714844 253.367188 C 386.851562 253.367188 387.3125 253.425781 387.769531 253.582031 C 389 254.042969 389.765625 255.148438 389.765625 256.496094 C 389.765625 258.125 388.632812 259.414062 387.1875 259.414062 C 386.667969 259.414062 386.265625 259.261719 385.5625 258.800781 C 384.945312 258.460938 384.640625 258.308594 384.300781 258.308594 C 383.84375 258.308594 383.535156 258.585938 383.535156 259.015625 C 383.535156 259.691406 384.394531 260.121094 385.777344 260.121094 C 387.28125 260.121094 388.816406 259.597656 389.734375 258.800781 C 390.65625 258 391.179688 256.867188 391.179688 255.546875 C 391.179688 254.5625 390.839844 253.640625 390.289062 253.027344 C 389.890625 252.597656 389.519531 252.351562 388.660156 251.984375 C 390.011719 251.0625 390.503906 250.355469 390.503906 249.28125 C 390.503906 247.6875 389.246094 246.613281 387.433594 246.613281 C 386.453125 246.613281 385.589844 246.949219 384.886719 247.5625 C 384.300781 248.085938 384.027344 248.609375 383.597656 249.773438 L 383.871094 249.867188 C 384.671875 248.421875 385.5625 247.777344 386.789062 247.777344 C 388.078125 247.777344 388.96875 248.636719 388.96875 249.867188 C 388.96875 250.570312 388.660156 251.277344 388.171875 251.769531 C 387.585938 252.351562 387.035156 252.660156 385.714844 253.121094 Z M 385.714844 253.367188 "/>
<path fill-rule="nonzero" fill="rgb(50.196078%, 50.196078%, 50.196078%)" fill-opacity="1" d="M 180.605469 420.675781 C 180.945312 420.675781 181.3125 420.675781 181.3125 420.277344 C 181.3125 419.910156 180.945312 419.910156 180.605469 419.910156 L 170.015625 419.910156 C 169.675781 419.910156 169.339844 419.910156 169.339844 420.277344 C 169.339844 420.675781 169.675781 420.675781 170.015625 420.675781 Z M 180.605469 420.675781 "/>
<path fill-rule="nonzero" fill="rgb(50.196078%, 50.196078%, 50.196078%)" fill-opacity="1" d="M 185.929688 418.714844 C 187.066406 418.714844 187.527344 418.773438 187.988281 418.929688 C 189.214844 419.386719 189.984375 420.492188 189.984375 421.84375 C 189.984375 423.472656 188.847656 424.761719 187.402344 424.761719 C 186.882812 424.761719 186.484375 424.605469 185.777344 424.148438 C 185.164062 423.808594 184.855469 423.65625 184.519531 423.65625 C 184.058594 423.65625 183.75 423.933594 183.75 424.363281 C 183.75 425.035156 184.609375 425.46875 185.992188 425.46875 C 187.496094 425.46875 189.03125 424.945312 189.953125 424.148438 C 190.875 423.347656 191.394531 422.210938 191.394531 420.894531 C 191.394531 419.910156 191.058594 418.988281 190.503906 418.375 C 190.105469 417.945312 189.738281 417.699219 188.878906 417.332031 C 190.230469 416.410156 190.71875 415.703125 190.71875 414.628906 C 190.71875 413.035156 189.460938 411.957031 187.648438 411.957031 C 186.667969 411.957031 185.808594 412.296875 185.101562 412.910156 C 184.519531 413.433594 184.242188 413.953125 183.8125 415.121094 L 184.089844 415.214844 C 184.886719 413.769531 185.777344 413.125 187.003906 413.125 C 188.292969 413.125 189.183594 413.984375 189.183594 415.214844 C 189.183594 415.917969 188.878906 416.625 188.386719 417.117188 C 187.804688 417.699219 187.25 418.007812 185.929688 418.46875 Z M 185.929688 418.714844 "/>
<path fill-rule="nonzero" fill="rgb(50.196078%, 50.196078%, 50.196078%)" fill-opacity="1" d="M 180.605469 359.410156 C 180.945312 359.410156 181.3125 359.410156 181.3125 359.011719 C 181.3125 358.644531 180.945312 358.644531 180.605469 358.644531 L 170.015625 358.644531 C 169.675781 358.644531 169.339844 358.644531 169.339844 359.011719 C 169.339844 359.410156 169.675781 359.410156 170.015625 359.410156 Z M 180.605469 359.410156 "/>
<path fill-rule="nonzero" fill="rgb(50.196078%, 50.196078%, 50.196078%)" fill-opacity="1" d="M 192.222656 361.253906 L 191.976562 361.128906 C 191.242188 362.265625 190.996094 362.449219 190.105469 362.449219 L 185.4375 362.449219 L 188.722656 358.980469 C 190.472656 357.171875 191.242188 355.667969 191.242188 354.160156 C 191.242188 352.195312 189.644531 350.691406 187.589844 350.691406 C 186.515625 350.691406 185.5 351.121094 184.792969 351.890625 C 184.148438 352.566406 183.875 353.179688 183.535156 354.589844 L 183.933594 354.683594 C 184.734375 352.75 185.4375 352.136719 186.789062 352.136719 C 188.417969 352.136719 189.554688 353.242188 189.554688 354.898438 C 189.554688 356.433594 188.632812 358.246094 187.003906 359.996094 L 183.503906 363.679688 L 183.503906 363.925781 L 191.148438 363.925781 Z M 192.222656 361.253906 "/>
<path fill-rule="nonzero" fill="rgb(50.196078%, 50.196078%, 50.196078%)" fill-opacity="1" d="M 180.605469 298.144531 C 180.945312 298.144531 181.3125 298.144531 181.3125 297.746094 C 181.3125 297.378906 180.945312 297.378906 180.605469 297.378906 L 170.015625 297.378906 C 169.675781 297.378906 169.339844 297.378906 169.339844 297.746094 C 169.339844 298.144531 169.675781 298.144531 170.015625 298.144531 Z M 180.605469 298.144531 "/>
<path fill-rule="nonzero" fill="rgb(50.196078%, 50.196078%, 50.196078%)" fill-opacity="1" d="M 188.632812 289.425781 L 185.101562 291.207031 L 185.101562 291.484375 C 185.316406 291.390625 185.53125 291.300781 185.625 291.269531 C 185.992188 291.113281 186.300781 291.054688 186.515625 291.054688 C 186.914062 291.054688 187.097656 291.332031 187.097656 291.976562 L 187.097656 300.847656 C 187.097656 301.492188 186.945312 301.921875 186.636719 302.105469 C 186.328125 302.289062 186.054688 302.351562 185.222656 302.351562 L 185.222656 302.660156 L 190.628906 302.660156 L 190.628906 302.351562 C 189.09375 302.351562 188.785156 302.136719 188.785156 301.214844 L 188.785156 289.457031 Z M 188.632812 289.425781 "/>
<path fill-rule="nonzero" fill="rgb(50.196078%, 50.196078%, 50.196078%)" fill-opacity="1" d="M 188.632812 167.707031 L 185.101562 169.488281 L 185.101562 169.761719 C 185.316406 169.671875 185.53125 169.578125 185.625 169.546875 C 185.992188 169.394531 186.300781 169.332031 186.515625 169.332031 C 186.914062 169.332031 187.097656 169.609375 187.097656 170.253906 L 187.097656 179.125 C 187.097656 179.769531 186.945312 180.199219 186.636719 180.386719 C 186.328125 180.570312 186.054688 180.628906 185.222656 180.628906 L 185.222656 180.9375 L 190.628906 180.9375 L 190.628906 180.628906 C 189.09375 180.628906 188.785156 180.414062 188.785156 179.496094 L 188.785156 167.738281 Z M 188.632812 167.707031 "/>
<path fill-rule="nonzero" fill="rgb(50.196078%, 50.196078%, 50.196078%)" fill-opacity="1" d="M 192.222656 117.003906 L 191.976562 116.878906 C 191.242188 118.015625 190.996094 118.199219 190.105469 118.199219 L 185.4375 118.199219 L 188.722656 114.730469 C 190.472656 112.917969 191.242188 111.414062 191.242188 109.910156 C 191.242188 107.945312 189.644531 106.441406 187.589844 106.441406 C 186.515625 106.441406 185.5 106.871094 184.792969 107.640625 C 184.148438 108.316406 183.875 108.929688 183.535156 110.339844 L 183.933594 110.433594 C 184.734375 108.5 185.4375 107.882812 186.789062 107.882812 C 188.417969 107.882812 189.554688 108.988281 189.554688 110.648438 C 189.554688 112.183594 188.632812 113.992188 187.003906 115.742188 L 183.503906 119.429688 L 183.503906 119.671875 L 191.148438 119.671875 Z M 192.222656 117.003906 "/>
<path fill-rule="nonzero" fill="rgb(50.196078%, 50.196078%, 50.196078%)" fill-opacity="1" d="M 185.929688 51.777344 C 187.066406 51.777344 187.527344 51.839844 187.988281 51.992188 C 189.214844 52.453125 189.984375 53.558594 189.984375 54.910156 C 189.984375 56.535156 188.847656 57.828125 187.402344 57.828125 C 186.882812 57.828125 186.484375 57.671875 185.777344 57.210938 C 185.164062 56.875 184.855469 56.722656 184.519531 56.722656 C 184.058594 56.722656 183.75 56.996094 183.75 57.425781 C 183.75 58.101562 184.609375 58.53125 185.992188 58.53125 C 187.496094 58.53125 189.03125 58.011719 189.953125 57.210938 C 190.875 56.414062 191.394531 55.277344 191.394531 53.957031 C 191.394531 52.976562 191.058594 52.054688 190.503906 51.441406 C 190.105469 51.011719 189.738281 50.765625 188.878906 50.398438 C 190.230469 49.476562 190.71875 48.769531 190.71875 47.695312 C 190.71875 46.097656 189.460938 45.023438 187.648438 45.023438 C 186.667969 45.023438 185.808594 45.363281 185.101562 45.976562 C 184.519531 46.496094 184.242188 47.019531 183.8125 48.1875 L 184.089844 48.277344 C 184.886719 46.835938 185.777344 46.191406 187.003906 46.191406 C 188.292969 46.191406 189.183594 47.050781 189.183594 48.277344 C 189.183594 48.984375 188.878906 49.691406 188.386719 50.183594 C 187.804688 50.765625 187.25 51.074219 185.929688 51.53125 Z M 185.929688 51.777344 "/>
<g clip-path="url(#clip-0)">
<path fill="none" stroke-width="0.99628" stroke-linecap="butt" stroke-linejoin="miter" stroke="rgb(6.666667%, 52.941176%, 87.058824%)" stroke-opacity="1" stroke-miterlimit="10" d="M 0.00117607 311.822631 L 1.887907 300.599665 L 3.778614 289.603346 L 5.66932 278.837649 L 7.560027 268.298599 L 9.450734 257.994147 L 11.337465 247.912365 L 13.228172 238.063194 L 15.118879 228.442657 L 17.009585 219.052742 L 18.896316 209.887486 L 20.787023 200.954841 L 22.67773 192.250829 L 24.568437 183.775452 L 26.459144 175.52871 L 28.345874 167.508614 L 30.236581 159.721128 L 32.127288 152.162277 L 34.017995 144.834048 L 35.908702 137.732466 L 37.795432 130.861506 L 39.686139 124.217192 L 41.574858 117.801513 L 43.465565 111.618444 L 45.356272 105.662021 L 47.243002 99.934233 L 49.133709 94.439056 L 51.024416 89.170525 L 52.915123 84.130628 L 54.801853 79.317377 L 56.69256 74.736737 L 58.583267 70.384731 L 60.473974 66.259372 L 62.364681 62.368611 L 64.251412 58.700521 L 66.142118 55.267029 L 68.032825 52.060183 L 69.923532 49.079984 L 71.814239 46.330407 L 73.70097 43.809465 L 75.591677 41.521133 L 77.482383 39.459447 L 79.37309 37.626396 L 81.259821 36.021979 L 83.150528 34.646197 L 85.041235 33.501037 L 86.931942 32.588487 L 88.822648 31.900596 L 90.709379 31.439351 L 92.600086 31.212705 L 94.490793 31.212705 L 96.379512 31.439351 L 98.270218 31.89662 L 100.156949 32.584511 L 102.047656 33.501037 L 103.938363 34.646197 L 105.82907 36.021979 L 107.719777 37.62242 L 109.606507 39.455471 L 111.497214 41.517156 L 113.387921 43.805488 L 115.278628 46.326431 L 117.165358 49.076008 L 119.056065 52.052231 L 120.946772 55.259076 L 122.837479 58.692568 L 124.728186 62.360659 L 126.614916 66.25142 L 128.505623 70.376779 L 130.39633 74.728785 L 132.287037 79.309425 L 134.177744 84.118699 L 136.064475 89.158596 L 137.955181 94.427127 L 139.845888 99.924293 L 141.736595 105.650093 L 143.627302 111.606515 L 145.514033 117.791572 L 147.40474 124.205263 L 149.295446 130.845601 L 151.186153 137.716561 L 153.072884 144.818143 L 154.961603 152.150348 L 156.85231 159.709199 L 158.743016 167.494697 L 160.633723 175.512805 L 162.520454 183.759547 L 164.411161 192.232936 L 166.301868 200.938936 L 168.192575 209.869593 L 170.083281 219.032861 L 171.970012 228.422776 L 173.860719 238.045301 L 175.751426 247.892484 L 177.642133 257.974265 L 179.532839 268.278717 L 181.41957 278.817768 L 183.310277 289.583465 L 185.200984 300.575808 L 187.091691 311.80275 " transform="matrix(1.964791, 0, 0, -1.964791, 20.005502, 419.455346)"/>
</g>
<g clip-path="url(#clip-1)">
<path fill="none" stroke-width="1.19553" stroke-linecap="butt" stroke-linejoin="miter" stroke="rgb(100%, 12.941176%, 32.156863%)" stroke-opacity="1" stroke-miterlimit="10" d="M 93.548422 32.079527 L 93.548422 185.900758 " transform="matrix(1.964791, 0, 0, -1.964791, 20.005502, 419.455346)"/>
</g>
<path fill="none" stroke-width="1.19553" stroke-linecap="butt" stroke-linejoin="miter" stroke="rgb(100%, 12.941176%, 32.156863%)" stroke-opacity="1" stroke-miterlimit="10" d="M -1.943677 3.285915 L 0.000709038 3.285915 L 0.000709038 -3.286827 L -1.943677 -3.286827 " transform="matrix(0, 1.964791, 1.964791, 0, 203.805583, 357.014232)"/>
<g clip-path="url(#clip-2)">
<path fill="none" stroke-width="1.19553" stroke-linecap="round" stroke-linejoin="round" stroke="rgb(100%, 12.941176%, 32.156863%)" stroke-opacity="1" stroke-miterlimit="10" d="M -3.028719 3.829585 C -2.474032 1.5333 -1.241394 0.447784 0.00118387 -0.00153222 C -1.241394 -0.446872 -2.474032 -1.532388 -3.028719 -3.830661 " transform="matrix(0, -1.964791, -1.964791, 0, 203.805583, 53.02967)"/>
</g>
<path fill="none" stroke-width="0.3985" stroke-linecap="butt" stroke-linejoin="miter" stroke="rgb(50.196078%, 50.196078%, 50.196078%)" stroke-opacity="1" stroke-miterlimit="10" d="M 52.46183 194.775748 L 134.631036 194.775748 L 134.631036 212.786172 L 52.46183 212.786172 Z M 52.46183 194.775748 " transform="matrix(1.964791, 0, 0, -1.964791, 20.005502, 419.455346)"/>
<path fill="none" stroke-width="0.99628" stroke-linecap="butt" stroke-linejoin="miter" stroke="rgb(6.666667%, 52.941176%, 87.058824%)" stroke-opacity="1" stroke-miterlimit="10" d="M 0.000986097 -0.00201403 L 17.009395 -0.00201403 " transform="matrix(1.964791, 0, 0, -1.964791, 129.935563, 19.070262)"/>
<path fill-rule="nonzero" fill="rgb(50.196078%, 50.196078%, 50.196078%)" fill-opacity="1" d="M 171.859375 18.234375 L 173.636719 18.234375 L 171.917969 26.460938 C 171.488281 28.578125 170.84375 29.652344 170.015625 29.652344 C 169.769531 29.652344 169.617188 29.5 169.617188 29.316406 C 169.617188 29.285156 169.648438 29.222656 169.707031 29.101562 C 169.769531 29.007812 169.800781 28.917969 169.800781 28.792969 C 169.800781 28.394531 169.433594 28.058594 169.035156 28.058594 C 168.605469 28.058594 168.296875 28.394531 168.296875 28.855469 C 168.296875 29.53125 169.003906 30.050781 169.863281 30.050781 C 171.582031 30.050781 172.964844 28.117188 173.761719 24.527344 L 175.171875 18.234375 L 177.324219 18.234375 L 177.445312 17.617188 L 175.328125 17.617188 C 175.878906 14.550781 176.617188 13.136719 177.691406 13.136719 C 177.96875 13.136719 178.121094 13.257812 178.121094 13.382812 C 178.121094 13.445312 178.121094 13.472656 178.058594 13.597656 C 177.96875 13.75 177.9375 13.84375 177.9375 13.996094 C 177.9375 14.457031 178.242188 14.765625 178.671875 14.765625 C 179.101562 14.765625 179.503906 14.425781 179.503906 13.996094 C 179.503906 13.257812 178.765625 12.707031 177.8125 12.707031 C 176.832031 12.707031 176.09375 13.136719 175.386719 14.058594 C 174.773438 14.824219 174.40625 15.746094 173.792969 17.617188 L 172.011719 17.617188 Z M 171.859375 18.234375 "/>
<path fill-rule="nonzero" fill="rgb(50.196078%, 50.196078%, 50.196078%)" fill-opacity="1" d="M 185.960938 30.695312 C 185.960938 30.636719 185.960938 30.605469 185.621094 30.265625 C 183.195312 27.8125 182.550781 24.097656 182.550781 21.089844 C 182.550781 17.679688 183.289062 14.273438 185.714844 11.847656 C 185.960938 11.601562 185.960938 11.570312 185.960938 11.507812 C 185.960938 11.355469 185.898438 11.292969 185.773438 11.292969 C 185.558594 11.292969 183.808594 12.644531 182.644531 15.132812 C 181.660156 17.28125 181.414062 19.460938 181.414062 21.089844 C 181.414062 22.625 181.628906 24.988281 182.707031 27.226562 C 183.902344 29.621094 185.558594 30.910156 185.773438 30.910156 C 185.898438 30.910156 185.960938 30.851562 185.960938 30.695312 Z M 185.960938 30.695312 "/>
<path fill-rule="nonzero" fill="rgb(50.196078%, 50.196078%, 50.196078%)" fill-opacity="1" d="M 194.933594 23.820312 C 194.78125 24.003906 194.6875 24.128906 194.503906 24.34375 C 194.074219 24.957031 193.828125 25.140625 193.613281 25.140625 C 193.339844 25.140625 193.152344 24.894531 193 24.34375 C 192.96875 24.1875 192.9375 24.066406 192.9375 24.003906 C 192.449219 22.007812 192.234375 21.117188 192.234375 20.84375 C 193.09375 19.308594 193.800781 18.449219 194.136719 18.449219 C 194.257812 18.449219 194.414062 18.507812 194.628906 18.601562 C 194.84375 18.753906 194.996094 18.785156 195.148438 18.785156 C 195.546875 18.785156 195.824219 18.507812 195.824219 18.078125 C 195.824219 17.679688 195.488281 17.375 195.027344 17.375 C 194.167969 17.375 193.429688 18.078125 192.078125 20.167969 L 191.863281 19.09375 C 191.589844 17.742188 191.375 17.375 190.820312 17.375 C 190.390625 17.375 189.746094 17.527344 188.550781 17.925781 L 188.335938 18.019531 L 188.394531 18.292969 C 189.164062 18.140625 189.316406 18.078125 189.5 18.078125 C 189.992188 18.078125 190.113281 18.265625 190.390625 19.429688 L 190.945312 21.855469 L 189.347656 24.128906 C 188.949219 24.742188 188.550781 25.078125 188.335938 25.078125 C 188.242188 25.078125 188.027344 25.019531 187.84375 24.894531 C 187.597656 24.773438 187.382812 24.710938 187.199219 24.710938 C 186.828125 24.710938 186.554688 24.988281 186.554688 25.386719 C 186.554688 25.90625 186.953125 26.214844 187.535156 26.214844 C 188.121094 26.214844 188.363281 26.03125 189.347656 24.832031 C 189.871094 24.21875 190.300781 23.699219 191.097656 22.5625 L 191.710938 24.894531 C 191.957031 25.90625 192.203125 26.214844 192.847656 26.214844 C 193.582031 26.214844 194.074219 25.753906 195.210938 23.972656 Z M 194.933594 23.820312 "/>
<path fill-rule="nonzero" fill="rgb(50.196078%, 50.196078%, 50.196078%)" fill-opacity="1" d="M 201.472656 21.089844 C 201.472656 19.582031 201.257812 17.21875 200.183594 14.980469 C 199.019531 12.585938 197.328125 11.292969 197.144531 11.292969 C 197.023438 11.292969 196.929688 11.386719 196.929688 11.507812 C 196.929688 11.570312 196.929688 11.601562 197.296875 11.96875 C 199.234375 13.90625 200.335938 17.003906 200.335938 21.089844 C 200.335938 24.464844 199.632812 27.902344 197.207031 30.359375 C 196.929688 30.605469 196.929688 30.636719 196.929688 30.695312 C 196.929688 30.820312 197.023438 30.910156 197.144531 30.910156 C 197.328125 30.910156 199.109375 29.5625 200.246094 27.074219 C 201.257812 24.925781 201.472656 22.746094 201.472656 21.089844 Z M 201.472656 21.089844 "/>
<path fill-rule="nonzero" fill="rgb(50.196078%, 50.196078%, 50.196078%)" fill-opacity="1" d="M 221.210938 19.582031 C 221.515625 19.582031 221.886719 19.582031 221.886719 19.214844 C 221.886719 18.816406 221.515625 18.816406 221.242188 18.816406 L 209.511719 18.816406 C 209.238281 18.816406 208.867188 18.816406 208.867188 19.214844 C 208.867188 19.582031 209.238281 19.582031 209.511719 19.582031 Z M 221.242188 23.390625 C 221.515625 23.390625 221.886719 23.390625 221.886719 22.992188 C 221.886719 22.625 221.515625 22.625 221.210938 22.625 L 209.511719 22.625 C 209.238281 22.625 208.867188 22.625 208.867188 22.992188 C 208.867188 23.390625 209.238281 23.390625 209.511719 23.390625 Z M 221.242188 23.390625 "/>
<path fill-rule="nonzero" fill="rgb(50.196078%, 50.196078%, 50.196078%)" fill-opacity="1" d="M 235.1875 23.820312 C 235.035156 24.003906 234.941406 24.128906 234.757812 24.34375 C 234.328125 24.957031 234.082031 25.140625 233.867188 25.140625 C 233.589844 25.140625 233.40625 24.894531 233.253906 24.34375 C 233.222656 24.1875 233.191406 24.066406 233.191406 24.003906 C 232.699219 22.007812 232.484375 21.117188 232.484375 20.84375 C 233.34375 19.308594 234.050781 18.449219 234.390625 18.449219 C 234.511719 18.449219 234.664062 18.507812 234.878906 18.601562 C 235.09375 18.753906 235.25 18.785156 235.402344 18.785156 C 235.800781 18.785156 236.078125 18.507812 236.078125 18.078125 C 236.078125 17.679688 235.738281 17.375 235.28125 17.375 C 234.421875 17.375 233.683594 18.078125 232.332031 20.167969 L 232.117188 19.09375 C 231.839844 17.742188 231.625 17.375 231.074219 17.375 C 230.644531 17.375 230 17.527344 228.800781 17.925781 L 228.585938 18.019531 L 228.648438 18.292969 C 229.414062 18.140625 229.570312 18.078125 229.753906 18.078125 C 230.246094 18.078125 230.367188 18.265625 230.644531 19.429688 L 231.195312 21.855469 L 229.601562 24.128906 C 229.199219 24.742188 228.800781 25.078125 228.585938 25.078125 C 228.496094 25.078125 228.28125 25.019531 228.097656 24.894531 C 227.851562 24.773438 227.636719 24.710938 227.449219 24.710938 C 227.082031 24.710938 226.804688 24.988281 226.804688 25.386719 C 226.804688 25.90625 227.207031 26.214844 227.789062 26.214844 C 228.371094 26.214844 228.617188 26.03125 229.601562 24.832031 C 230.121094 24.21875 230.550781 23.699219 231.351562 22.5625 L 231.964844 24.894531 C 232.210938 25.90625 232.457031 26.214844 233.101562 26.214844 C 233.835938 26.214844 234.328125 25.753906 235.464844 23.972656 Z M 235.1875 23.820312 "/>
<path fill-rule="nonzero" fill="rgb(50.196078%, 50.196078%, 50.196078%)" fill-opacity="1" d="M 242.957031 16.898438 L 242.773438 16.839844 C 242.25 17.667969 242.035156 17.789062 241.390625 17.789062 L 237.921875 17.789062 L 240.378906 15.242188 C 241.667969 13.890625 242.21875 12.785156 242.21875 11.648438 C 242.21875 10.207031 241.054688 9.101562 239.546875 9.101562 C 238.75 9.101562 237.984375 9.410156 237.460938 9.992188 C 237 10.484375 236.785156 10.945312 236.539062 11.988281 L 236.847656 12.050781 C 237.398438 10.636719 237.921875 10.175781 238.933594 10.175781 C 240.164062 10.175781 240.992188 11.003906 240.992188 12.203125 C 240.992188 13.339844 240.316406 14.691406 239.089844 15.980469 L 236.507812 18.710938 L 236.507812 18.894531 L 242.15625 18.894531 Z M 242.957031 16.898438 "/>
<path fill-rule="nonzero" fill="rgb(50.196078%, 50.196078%, 50.196078%)" fill-opacity="1" d="M 259.914062 21.488281 C 260.25 21.488281 260.621094 21.488281 260.621094 21.089844 C 260.621094 20.71875 260.25 20.71875 259.914062 20.71875 L 249.320312 20.71875 C 248.984375 20.71875 248.648438 20.71875 248.648438 21.089844 C 248.648438 21.488281 248.984375 21.488281 249.320312 21.488281 Z M 259.914062 21.488281 "/>
<path fill-rule="nonzero" fill="rgb(50.196078%, 50.196078%, 50.196078%)" fill-opacity="1" d="M 274.25 23.328125 L 274.003906 23.207031 C 273.265625 24.34375 273.019531 24.527344 272.128906 24.527344 L 267.464844 24.527344 L 270.75 21.058594 C 272.5 19.246094 273.265625 17.742188 273.265625 16.238281 C 273.265625 14.273438 271.667969 12.769531 269.613281 12.769531 C 268.539062 12.769531 267.523438 13.199219 266.820312 13.964844 C 266.175781 14.640625 265.898438 15.253906 265.558594 16.667969 L 265.960938 16.757812 C 266.757812 14.824219 267.464844 14.210938 268.8125 14.210938 C 270.441406 14.210938 271.578125 15.316406 271.578125 16.972656 C 271.578125 18.507812 270.65625 20.320312 269.027344 22.070312 L 265.53125 25.753906 L 265.53125 26 L 273.171875 26 Z M 274.25 23.328125 "/>
</svg>
