<?xml version="1.0" encoding="UTF-8"?>
<svg xmlns="http://www.w3.org/2000/svg" xmlns:xlink="http://www.w3.org/1999/xlink" width="400" height="347.98987" viewBox="0 0 400 347.98987">
<defs>
<clipPath id="clip-0">
<path clip-rule="nonzero" d="M 79.460938 5 L 399.367188 5 L 399.367188 265 L 79.460938 265 Z M 79.460938 5 "/>
</clipPath>
</defs>
<path fill="none" stroke-width="0.19925" stroke-linecap="butt" stroke-linejoin="miter" stroke="rgb(50.196078%, 50.196078%, 50.196078%)" stroke-opacity="1" stroke-miterlimit="10" d="M 37.420325 4.110468 L 37.420325 8.360378 M 84.193703 4.110468 L 84.193703 8.360378 " transform="matrix(3.20595, 0, 0, -3.20595, 79.465892, 320.53733)"/>
<path fill="none" stroke-width="0.19925" stroke-linecap="butt" stroke-linejoin="miter" stroke="rgb(50.196078%, 50.196078%, 50.196078%)" stroke-opacity="1" stroke-miterlimit="10" d="M 4.111899 76.39549 L 8.361809 76.39549 M 4.111899 53.008801 L 8.361809 53.008801 " transform="matrix(3.20595, 0, 0, -3.20595, 79.465892, 320.53733)"/>
<path fill="none" stroke-width="0.3985" stroke-linecap="butt" stroke-linejoin="miter" stroke="rgb(50.196078%, 50.196078%, 50.196078%)" stroke-opacity="1" stroke-miterlimit="10" d="M -0.00154548 6.235423 L 97.791465 6.235423 " transform="matrix(3.20595, 0, 0, -3.20595, 79.465892, 320.53733)"/>
<path fill-rule="nonzero" fill="rgb(50.196078%, 50.196078%, 50.196078%)" fill-opacity="1" d="M 399.367188 300.546875 L 389.148438 295.4375 L 392.980469 300.546875 L 389.148438 305.65625 "/>
<path fill="none" stroke-width="0.3985" stroke-linecap="butt" stroke-linejoin="miter" stroke="rgb(50.196078%, 50.196078%, 50.196078%)" stroke-opacity="1" stroke-miterlimit="10" d="M 6.236854 0.00189657 L 6.236854 97.790033 " transform="matrix(3.20595, 0, 0, -3.20595, 79.465892, 320.53733)"/>
<path fill-rule="nonzero" fill="rgb(50.196078%, 50.196078%, 50.196078%)" fill-opacity="1" d="M 99.460938 0.640625 L 94.351562 10.859375 L 99.460938 7.027344 L 104.570312 10.859375 "/>
<path fill-rule="nonzero" fill="rgb(50.196078%, 50.196078%, 50.196078%)" fill-opacity="1" d="M 198.453125 328.964844 C 198.199219 329.265625 198.050781 329.464844 197.75 329.816406 C 197.050781 330.816406 196.648438 331.117188 196.296875 331.117188 C 195.847656 331.117188 195.546875 330.71875 195.296875 329.816406 C 195.246094 329.566406 195.195312 329.367188 195.195312 329.265625 C 194.394531 326.007812 194.042969 324.554688 194.042969 324.105469 C 195.445312 321.601562 196.597656 320.199219 197.148438 320.199219 C 197.347656 320.199219 197.601562 320.296875 197.949219 320.449219 C 198.300781 320.699219 198.550781 320.75 198.800781 320.75 C 199.453125 320.75 199.902344 320.296875 199.902344 319.597656 C 199.902344 318.945312 199.351562 318.445312 198.601562 318.445312 C 197.199219 318.445312 195.996094 319.597656 193.792969 323.003906 L 193.441406 321.25 C 192.992188 319.046875 192.640625 318.445312 191.738281 318.445312 C 191.039062 318.445312 189.984375 318.695312 188.03125 319.347656 L 187.679688 319.496094 L 187.78125 319.949219 C 189.035156 319.699219 189.285156 319.597656 189.585938 319.597656 C 190.386719 319.597656 190.585938 319.898438 191.039062 321.800781 L 191.9375 325.757812 L 189.335938 329.464844 C 188.683594 330.46875 188.03125 331.019531 187.679688 331.019531 C 187.53125 331.019531 187.179688 330.917969 186.878906 330.71875 C 186.480469 330.515625 186.128906 330.417969 185.828125 330.417969 C 185.226562 330.417969 184.777344 330.867188 184.777344 331.519531 C 184.777344 332.371094 185.425781 332.871094 186.378906 332.871094 C 187.332031 332.871094 187.730469 332.570312 189.335938 330.617188 C 190.1875 329.617188 190.886719 328.765625 192.191406 326.910156 L 193.191406 330.71875 C 193.59375 332.371094 193.992188 332.871094 195.046875 332.871094 C 196.246094 332.871094 197.050781 332.121094 198.902344 329.214844 Z M 198.453125 328.964844 "/>
<path fill-rule="nonzero" fill="rgb(50.196078%, 50.196078%, 50.196078%)" fill-opacity="1" d="M 206.671875 321.363281 L 202.414062 323.515625 L 202.414062 323.816406 C 202.714844 323.71875 202.964844 323.617188 203.0625 323.566406 C 203.515625 323.417969 203.914062 323.316406 204.117188 323.316406 C 204.617188 323.316406 204.867188 323.667969 204.867188 324.417969 L 204.867188 335.140625 C 204.867188 335.941406 204.667969 336.492188 204.265625 336.691406 C 203.914062 336.890625 203.613281 336.941406 202.613281 336.992188 L 202.613281 337.34375 L 209.125 337.34375 L 209.125 336.992188 C 207.273438 336.941406 206.871094 336.742188 206.871094 335.589844 L 206.871094 321.414062 Z M 206.671875 321.363281 "/>
<path fill-rule="nonzero" fill="rgb(50.196078%, 50.196078%, 50.196078%)" fill-opacity="1" d="M 348.402344 328.964844 C 348.152344 329.265625 348.003906 329.464844 347.703125 329.816406 C 347 330.816406 346.601562 331.117188 346.25 331.117188 C 345.796875 331.117188 345.5 330.71875 345.246094 329.816406 C 345.199219 329.566406 345.148438 329.367188 345.148438 329.265625 C 344.347656 326.007812 343.996094 324.554688 343.996094 324.105469 C 345.398438 321.601562 346.550781 320.199219 347.101562 320.199219 C 347.300781 320.199219 347.550781 320.296875 347.902344 320.449219 C 348.253906 320.699219 348.503906 320.75 348.753906 320.75 C 349.40625 320.75 349.855469 320.296875 349.855469 319.597656 C 349.855469 318.945312 349.304688 318.445312 348.554688 318.445312 C 347.152344 318.445312 345.949219 319.597656 343.746094 323.003906 L 343.394531 321.25 C 342.941406 319.046875 342.59375 318.445312 341.691406 318.445312 C 340.988281 318.445312 339.9375 318.695312 337.984375 319.347656 L 337.632812 319.496094 L 337.734375 319.949219 C 338.984375 319.699219 339.238281 319.597656 339.535156 319.597656 C 340.339844 319.597656 340.539062 319.898438 340.988281 321.800781 L 341.890625 325.757812 L 339.285156 329.464844 C 338.636719 330.46875 337.984375 331.019531 337.632812 331.019531 C 337.484375 331.019531 337.132812 330.917969 336.832031 330.71875 C 336.429688 330.515625 336.082031 330.417969 335.78125 330.417969 C 335.179688 330.417969 334.726562 330.867188 334.726562 331.519531 C 334.726562 332.371094 335.378906 332.871094 336.332031 332.871094 C 337.28125 332.871094 337.683594 332.570312 339.285156 330.617188 C 340.136719 329.617188 340.839844 328.765625 342.140625 326.910156 L 343.144531 330.71875 C 343.542969 332.371094 343.945312 332.871094 344.996094 332.871094 C 346.199219 332.871094 347 332.121094 348.855469 329.214844 Z M 348.402344 328.964844 "/>
<path fill-rule="nonzero" fill="rgb(50.196078%, 50.196078%, 50.196078%)" fill-opacity="1" d="M 360.980469 334.089844 L 360.679688 333.988281 C 359.828125 335.34375 359.476562 335.542969 358.425781 335.542969 L 352.765625 335.542969 L 356.773438 331.386719 C 358.875 329.179688 359.777344 327.378906 359.777344 325.523438 C 359.777344 323.167969 357.875 321.367188 355.421875 321.367188 C 354.117188 321.367188 352.867188 321.867188 352.015625 322.820312 C 351.261719 323.621094 350.910156 324.371094 350.511719 326.074219 L 351.011719 326.175781 C 351.914062 323.871094 352.765625 323.121094 354.417969 323.121094 C 356.421875 323.121094 357.773438 324.472656 357.773438 326.425781 C 357.773438 328.277344 356.671875 330.484375 354.667969 332.585938 L 350.460938 337.046875 L 350.460938 337.347656 L 359.679688 337.347656 Z M 360.980469 334.089844 "/>
<path fill-rule="nonzero" fill="rgb(50.196078%, 50.196078%, 50.196078%)" fill-opacity="1" d="M 16.539062 70.929688 L 19.445312 70.929688 L 16.640625 84.351562 C 15.9375 87.808594 14.886719 89.5625 13.53125 89.5625 C 13.132812 89.5625 12.882812 89.3125 12.882812 89.011719 C 12.882812 88.960938 12.933594 88.859375 13.03125 88.660156 C 13.132812 88.511719 13.183594 88.359375 13.183594 88.160156 C 13.183594 87.507812 12.582031 86.957031 11.929688 86.957031 C 11.230469 86.957031 10.726562 87.507812 10.726562 88.261719 C 10.726562 89.363281 11.878906 90.214844 13.28125 90.214844 C 16.085938 90.214844 18.34375 87.058594 19.644531 81.195312 L 21.949219 70.929688 L 25.457031 70.929688 L 25.65625 69.925781 L 22.199219 69.925781 C 23.101562 64.917969 24.304688 62.613281 26.054688 62.613281 C 26.507812 62.613281 26.757812 62.8125 26.757812 63.011719 C 26.757812 63.113281 26.757812 63.164062 26.65625 63.363281 C 26.507812 63.613281 26.457031 63.765625 26.457031 64.015625 C 26.457031 64.765625 26.957031 65.265625 27.660156 65.265625 C 28.359375 65.265625 29.011719 64.714844 29.011719 64.015625 C 29.011719 62.8125 27.808594 61.910156 26.257812 61.910156 C 24.652344 61.910156 23.453125 62.613281 22.300781 64.117188 C 21.296875 65.367188 20.695312 66.871094 19.695312 69.925781 L 16.789062 69.925781 Z M 16.539062 70.929688 "/>
<path fill-rule="nonzero" fill="rgb(50.196078%, 50.196078%, 50.196078%)" fill-opacity="1" d="M 39.546875 91.265625 C 39.546875 91.164062 39.546875 91.117188 38.996094 90.566406 C 35.039062 86.558594 33.988281 80.496094 33.988281 75.585938 C 33.988281 70.027344 35.191406 64.464844 39.148438 60.507812 C 39.546875 60.109375 39.546875 60.058594 39.546875 59.957031 C 39.546875 59.707031 39.449219 59.605469 39.246094 59.605469 C 38.898438 59.605469 36.042969 61.8125 34.136719 65.867188 C 32.535156 69.375 32.132812 72.933594 32.132812 75.585938 C 32.132812 78.089844 32.484375 81.949219 34.238281 85.605469 C 36.191406 89.511719 38.898438 91.617188 39.246094 91.617188 C 39.449219 91.617188 39.546875 91.515625 39.546875 91.265625 Z M 39.546875 91.265625 "/>
<path fill-rule="nonzero" fill="rgb(50.196078%, 50.196078%, 50.196078%)" fill-opacity="1" d="M 54.195312 80.046875 C 53.941406 80.34375 53.792969 80.546875 53.492188 80.898438 C 52.789062 81.898438 52.390625 82.199219 52.039062 82.199219 C 51.589844 82.199219 51.289062 81.796875 51.039062 80.898438 C 50.988281 80.644531 50.9375 80.445312 50.9375 80.34375 C 50.136719 77.089844 49.785156 75.636719 49.785156 75.1875 C 51.1875 72.679688 52.339844 71.277344 52.890625 71.277344 C 53.089844 71.277344 53.34375 71.378906 53.691406 71.527344 C 54.042969 71.78125 54.292969 71.828125 54.542969 71.828125 C 55.195312 71.828125 55.644531 71.378906 55.644531 70.675781 C 55.644531 70.027344 55.09375 69.527344 54.34375 69.527344 C 52.941406 69.527344 51.738281 70.675781 49.535156 74.082031 L 49.183594 72.332031 C 48.734375 70.125 48.382812 69.527344 47.480469 69.527344 C 46.78125 69.527344 45.726562 69.777344 43.773438 70.425781 L 43.421875 70.578125 L 43.523438 71.027344 C 44.777344 70.777344 45.027344 70.675781 45.328125 70.675781 C 46.128906 70.675781 46.328125 70.976562 46.78125 72.882812 L 47.679688 76.839844 L 45.078125 80.546875 C 44.425781 81.546875 43.773438 82.097656 43.421875 82.097656 C 43.273438 82.097656 42.921875 82 42.621094 81.796875 C 42.222656 81.597656 41.871094 81.496094 41.570312 81.496094 C 40.96875 81.496094 40.519531 81.949219 40.519531 82.601562 C 40.519531 83.453125 41.167969 83.953125 42.121094 83.953125 C 43.074219 83.953125 43.472656 83.652344 45.078125 81.699219 C 45.929688 80.695312 46.628906 79.84375 47.933594 77.992188 L 48.933594 81.796875 C 49.335938 83.453125 49.734375 83.953125 50.785156 83.953125 C 51.988281 83.953125 52.789062 83.199219 54.644531 80.296875 Z M 54.195312 80.046875 "/>
<path fill-rule="nonzero" fill="rgb(50.196078%, 50.196078%, 50.196078%)" fill-opacity="1" d="M 62.414062 72.445312 L 58.15625 74.601562 L 58.15625 74.902344 C 58.457031 74.800781 58.707031 74.699219 58.808594 74.652344 C 59.257812 74.5 59.660156 74.402344 59.859375 74.402344 C 60.363281 74.402344 60.613281 74.75 60.613281 75.503906 L 60.613281 86.222656 C 60.613281 87.023438 60.410156 87.574219 60.011719 87.773438 C 59.660156 87.976562 59.359375 88.027344 58.359375 88.074219 L 58.359375 88.425781 L 64.871094 88.425781 L 64.871094 88.074219 C 63.015625 88.027344 62.617188 87.824219 62.617188 86.671875 L 62.617188 72.496094 Z M 62.414062 72.445312 "/>
<path fill-rule="nonzero" fill="rgb(50.196078%, 50.196078%, 50.196078%)" fill-opacity="1" d="M 78.183594 75.585938 C 78.183594 73.132812 77.832031 69.273438 76.078125 65.617188 C 74.175781 61.710938 71.421875 59.605469 71.121094 59.605469 C 70.921875 59.605469 70.769531 59.757812 70.769531 59.957031 C 70.769531 60.058594 70.769531 60.109375 71.371094 60.710938 C 74.527344 63.863281 76.328125 68.925781 76.328125 75.585938 C 76.328125 81.097656 75.179688 86.707031 71.21875 90.714844 C 70.769531 91.117188 70.769531 91.164062 70.769531 91.265625 C 70.769531 91.464844 70.921875 91.617188 71.121094 91.617188 C 71.421875 91.617188 74.328125 89.414062 76.179688 85.355469 C 77.832031 81.847656 78.183594 78.292969 78.183594 75.585938 Z M 78.183594 75.585938 "/>
<path fill-rule="nonzero" fill="rgb(50.196078%, 50.196078%, 50.196078%)" fill-opacity="1" d="M 16.539062 145.902344 L 19.445312 145.902344 L 16.640625 159.328125 C 15.9375 162.785156 14.886719 164.535156 13.53125 164.535156 C 13.132812 164.535156 12.882812 164.285156 12.882812 163.984375 C 12.882812 163.9375 12.933594 163.835938 13.03125 163.636719 C 13.132812 163.484375 13.183594 163.335938 13.183594 163.132812 C 13.183594 162.484375 12.582031 161.933594 11.929688 161.933594 C 11.230469 161.933594 10.726562 162.484375 10.726562 163.234375 C 10.726562 164.335938 11.878906 165.1875 13.28125 165.1875 C 16.085938 165.1875 18.34375 162.03125 19.644531 156.171875 L 21.949219 145.902344 L 25.457031 145.902344 L 25.65625 144.902344 L 22.199219 144.902344 C 23.101562 139.890625 24.304688 137.585938 26.054688 137.585938 C 26.507812 137.585938 26.757812 137.789062 26.757812 137.988281 C 26.757812 138.089844 26.757812 138.136719 26.65625 138.339844 C 26.507812 138.589844 26.457031 138.738281 26.457031 138.988281 C 26.457031 139.742188 26.957031 140.242188 27.660156 140.242188 C 28.359375 140.242188 29.011719 139.691406 29.011719 138.988281 C 29.011719 137.789062 27.808594 136.886719 26.257812 136.886719 C 24.652344 136.886719 23.453125 137.585938 22.300781 139.089844 C 21.296875 140.34375 20.695312 141.84375 19.695312 144.902344 L 16.789062 144.902344 Z M 16.539062 145.902344 "/>
<path fill-rule="nonzero" fill="rgb(50.196078%, 50.196078%, 50.196078%)" fill-opacity="1" d="M 39.546875 166.238281 C 39.546875 166.140625 39.546875 166.089844 38.996094 165.539062 C 35.039062 161.53125 33.988281 155.46875 33.988281 150.5625 C 33.988281 145 35.191406 139.441406 39.148438 135.484375 C 39.546875 135.082031 39.546875 135.03125 39.546875 134.933594 C 39.546875 134.679688 39.449219 134.582031 39.246094 134.582031 C 38.898438 134.582031 36.042969 136.785156 34.136719 140.84375 C 32.535156 144.347656 32.132812 147.90625 32.132812 150.5625 C 32.132812 153.066406 32.484375 156.921875 34.238281 160.578125 C 36.191406 164.488281 38.898438 166.589844 39.246094 166.589844 C 39.449219 166.589844 39.546875 166.492188 39.546875 166.238281 Z M 39.546875 166.238281 "/>
<path fill-rule="nonzero" fill="rgb(50.196078%, 50.196078%, 50.196078%)" fill-opacity="1" d="M 54.195312 155.019531 C 53.941406 155.320312 53.792969 155.519531 53.492188 155.871094 C 52.789062 156.871094 52.390625 157.171875 52.039062 157.171875 C 51.589844 157.171875 51.289062 156.773438 51.039062 155.871094 C 50.988281 155.621094 50.9375 155.421875 50.9375 155.320312 C 50.136719 152.0625 49.785156 150.609375 49.785156 150.160156 C 51.1875 147.65625 52.339844 146.253906 52.890625 146.253906 C 53.089844 146.253906 53.34375 146.351562 53.691406 146.503906 C 54.042969 146.753906 54.292969 146.804688 54.542969 146.804688 C 55.195312 146.804688 55.644531 146.351562 55.644531 145.652344 C 55.644531 145 55.09375 144.5 54.34375 144.5 C 52.941406 144.5 51.738281 145.652344 49.535156 149.058594 L 49.183594 147.304688 C 48.734375 145.101562 48.382812 144.5 47.480469 144.5 C 46.78125 144.5 45.726562 144.75 43.773438 145.402344 L 43.421875 145.550781 L 43.523438 146.003906 C 44.777344 145.753906 45.027344 145.652344 45.328125 145.652344 C 46.128906 145.652344 46.328125 145.953125 46.78125 147.855469 L 47.679688 151.8125 L 45.078125 155.519531 C 44.425781 156.523438 43.773438 157.074219 43.421875 157.074219 C 43.273438 157.074219 42.921875 156.972656 42.621094 156.773438 C 42.222656 156.570312 41.871094 156.472656 41.570312 156.472656 C 40.96875 156.472656 40.519531 156.921875 40.519531 157.574219 C 40.519531 158.425781 41.167969 158.925781 42.121094 158.925781 C 43.074219 158.925781 43.472656 158.625 45.078125 156.671875 C 45.929688 155.671875 46.628906 154.820312 47.933594 152.964844 L 48.933594 156.773438 C 49.335938 158.425781 49.734375 158.925781 50.785156 158.925781 C 51.988281 158.925781 52.789062 158.175781 54.644531 155.269531 Z M 54.195312 155.019531 "/>
<path fill-rule="nonzero" fill="rgb(50.196078%, 50.196078%, 50.196078%)" fill-opacity="1" d="M 66.773438 160.144531 L 66.472656 160.042969 C 65.621094 161.398438 65.269531 161.597656 64.21875 161.597656 L 58.558594 161.597656 L 62.566406 157.441406 C 64.667969 155.234375 65.570312 153.433594 65.570312 151.578125 C 65.570312 149.222656 63.667969 147.421875 61.214844 147.421875 C 59.910156 147.421875 58.660156 147.921875 57.808594 148.875 C 57.054688 149.675781 56.703125 150.425781 56.304688 152.128906 L 56.804688 152.230469 C 57.707031 149.925781 58.558594 149.175781 60.210938 149.175781 C 62.214844 149.175781 63.566406 150.527344 63.566406 152.480469 C 63.566406 154.335938 62.464844 156.539062 60.460938 158.640625 L 56.253906 163.101562 L 56.253906 163.402344 L 65.472656 163.402344 Z M 66.773438 160.144531 "/>
<path fill-rule="nonzero" fill="rgb(50.196078%, 50.196078%, 50.196078%)" fill-opacity="1" d="M 78.183594 150.5625 C 78.183594 148.105469 77.832031 144.25 76.078125 140.59375 C 74.175781 136.683594 71.421875 134.582031 71.121094 134.582031 C 70.921875 134.582031 70.769531 134.730469 70.769531 134.933594 C 70.769531 135.03125 70.769531 135.082031 71.371094 135.683594 C 74.527344 138.839844 76.328125 143.898438 76.328125 150.5625 C 76.328125 156.070312 75.179688 161.683594 71.21875 165.6875 C 70.769531 166.089844 70.769531 166.140625 70.769531 166.238281 C 70.769531 166.441406 70.921875 166.589844 71.121094 166.589844 C 71.421875 166.589844 74.328125 164.386719 76.179688 160.328125 C 77.832031 156.824219 78.183594 153.265625 78.183594 150.5625 Z M 78.183594 150.5625 "/>
<path fill="none" stroke-width="0.3985" stroke-linecap="butt" stroke-linejoin="miter" stroke="rgb(69.803922%, 69.803922%, 69.803922%)" stroke-opacity="1" stroke-dasharray="2.98883 2.98883" stroke-miterlimit="10" d="M 6.236854 76.39549 L 37.420325 76.39549 L 37.420325 6.235423 " transform="matrix(3.20595, 0, 0, -3.20595, 79.465892, 320.53733)"/>
<path fill="none" stroke-width="0.3985" stroke-linecap="butt" stroke-linejoin="miter" stroke="rgb(69.803922%, 69.803922%, 69.803922%)" stroke-opacity="1" stroke-dasharray="2.98883 2.98883" stroke-miterlimit="10" d="M 6.236854 53.008801 L 84.193703 53.008801 L 84.193703 6.235423 " transform="matrix(3.20595, 0, 0, -3.20595, 79.465892, 320.53733)"/>
<g clip-path="url(#clip-0)">
<path fill="none" stroke-width="0.99628" stroke-linecap="butt" stroke-linejoin="miter" stroke="rgb(6.666667%, 52.941176%, 87.058824%)" stroke-opacity="1" stroke-miterlimit="10" d="M 12.475254 31.493632 L 13.291607 33.602747 L 14.111616 35.665562 L 14.927969 37.689386 L 15.747977 39.665692 L 16.567986 41.603007 L 17.384339 43.494022 L 18.205566 45.344829 L 19.025574 47.150553 L 19.841927 48.916069 L 20.661936 50.634066 L 21.481944 52.314291 L 22.299516 53.946997 L 23.119524 55.540714 L 23.939533 57.086911 L 24.755886 58.591681 L 25.575894 60.056243 L 26.392247 61.474504 L 27.213474 62.848902 L 28.033482 64.185528 L 28.849836 65.474634 L 29.669844 66.724751 L 30.489852 67.927349 L 31.306206 69.087302 L 32.127432 70.204609 L 32.947441 71.282926 L 33.763794 72.313724 L 34.583802 73.301877 L 35.400155 74.25104 L 36.221382 75.153902 L 37.041391 76.0129 L 37.857744 76.829253 L 38.677752 77.602961 L 39.497761 78.337679 L 40.314114 79.024878 L 41.135341 79.669431 L 41.955349 80.271339 L 42.771702 80.829384 L 43.591711 81.349656 L 44.411719 81.82241 L 45.228072 82.2513 L 46.049299 82.638763 L 46.865652 82.982363 L 47.685661 83.283317 L 48.505669 83.540407 L 49.322022 83.754852 L 50.143249 83.92787 L 50.963257 84.055806 L 51.77961 84.142315 L 52.599619 84.18496 L 53.419627 84.18496 L 54.23598 84.142315 L 55.057207 84.055806 L 55.87356 83.92787 L 56.693569 83.754852 L 57.513577 83.540407 L 58.32993 83.283317 L 59.149939 82.982363 L 59.971166 82.638763 L 60.787519 82.2513 L 61.607527 81.82241 L 62.427536 81.349656 L 63.243889 80.833039 L 64.065116 80.274994 L 64.885124 79.669431 L 65.701477 79.024878 L 66.521486 78.337679 L 67.337839 77.606616 L 68.157847 76.834127 L 68.979074 76.016556 L 69.795427 75.153902 L 70.615435 74.25104 L 71.435444 73.306751 L 72.251797 72.317379 L 73.071805 71.282926 L 73.893032 70.208264 L 74.709385 69.090957 L 75.529394 67.931004 L 76.349402 66.724751 L 77.165755 65.47829 L 77.986982 64.189183 L 78.803335 62.852557 L 79.623344 61.47816 L 80.443352 60.059898 L 81.259705 58.595336 L 82.079714 57.091785 L 82.900941 55.540714 L 83.717294 53.950653 L 84.537302 52.317947 L 85.35731 50.637721 L 86.173664 48.919724 L 86.993672 47.154209 L 87.811244 45.349703 L 88.631252 43.497678 L 89.45126 41.606663 L 90.267614 39.669347 L 91.087622 37.693042 L 91.908849 35.669217 L 92.725202 33.606402 L 93.54521 31.497287 " transform="matrix(3.20595, 0, 0, -3.20595, 79.465892, 320.53733)"/>
</g>
<path fill="none" stroke-width="1.19553" stroke-linecap="butt" stroke-linejoin="miter" stroke="rgb(100%, 12.941176%, 32.156863%)" stroke-opacity="1" stroke-miterlimit="10" d="M 42.552383 73.82946 L 79.060426 55.576048 " transform="matrix(3.20595, 0, 0, -3.20595, 79.465892, 320.53733)"/>
<path fill-rule="nonzero" fill="rgb(100%, 12.941176%, 32.156863%)" fill-opacity="1" d="M 199.433594 75.617188 C 203.839844 78.972656 210.402344 85.671875 214.285156 91.609375 L 221.136719 77.894531 C 214.058594 78.359375 204.753906 77.144531 199.433594 75.617188 "/>
<path fill-rule="nonzero" fill="rgb(100%, 12.941176%, 32.156863%)" fill-opacity="1" d="M 349.386719 150.59375 C 344.964844 147.234375 338.414062 140.535156 334.535156 134.585938 L 327.671875 148.300781 C 334.757812 147.847656 344.050781 149.0625 349.386719 150.59375 "/>
</svg>
