<?xml version="1.0" encoding="UTF-8"?>
<svg xmlns="http://www.w3.org/2000/svg" xmlns:xlink="http://www.w3.org/1999/xlink" width="400" height="458.201026" viewBox="0 0 400 458.201026">
<defs>
<clipPath id="clip-0">
<path clip-rule="nonzero" d="M 20.007812 75.722656 L 387.609375 75.722656 L 387.609375 357 L 20.007812 357 Z M 20.007812 75.722656 "/>
</clipPath>
<clipPath id="clip-1">
<path clip-rule="nonzero" d="M 20.007812 75.722656 L 387.609375 75.722656 L 387.609375 443.3125 L 20.007812 443.3125 Z M 20.007812 75.722656 "/>
</clipPath>
</defs>
<path fill="none" stroke-width="0.09962" stroke-linecap="butt" stroke-linejoin="miter" stroke="rgb(69.803922%, 69.803922%, 69.803922%)" stroke-opacity="1" stroke-dasharray="2.98883 2.98883" stroke-miterlimit="10" d="M 0.00117607 779.543667 L 0.00117607 966.632194 M 31.18094 779.543667 L 31.18094 966.632194 M 62.364681 779.543667 L 62.364681 966.632194 M 124.728186 779.543667 L 124.728186 966.632194 M 155.911926 779.543667 L 155.911926 966.632194 M 187.095667 779.543667 L 187.095667 966.632194 " transform="matrix(1.964791, 0, 0, -1.964791, 20.005502, 1974.952843)"/>
<path fill="none" stroke-width="0.09962" stroke-linecap="butt" stroke-linejoin="miter" stroke="rgb(69.803922%, 69.803922%, 69.803922%)" stroke-opacity="1" stroke-dasharray="2.98883 2.98883" stroke-miterlimit="10" d="M 0.00117607 779.543667 L 187.095667 779.543667 M 0.00117607 810.723432 L 187.095667 810.723432 M 0.00117607 841.907172 L 187.095667 841.907172 M 0.00117607 904.268689 L 187.095667 904.268689 M 0.00117607 935.448453 L 187.095667 935.448453 M 0.00117607 966.632194 L 187.095667 966.632194 " transform="matrix(1.964791, 0, 0, -1.964791, 20.005502, 1974.952843)"/>
<path fill="none" stroke-width="0.19925" stroke-linecap="butt" stroke-linejoin="miter" stroke="rgb(50.196078%, 50.196078%, 50.196078%)" stroke-opacity="1" stroke-miterlimit="10" d="M 0.00117607 870.961631 L 0.00117607 875.21423 M 31.18094 870.961631 L 31.18094 875.21423 M 62.364681 870.961631 L 62.364681 875.21423 M 124.728186 870.961631 L 124.728186 875.21423 M 155.911926 870.961631 L 155.911926 875.21423 M 187.095667 870.961631 L 187.095667 875.21423 " transform="matrix(1.964791, 0, 0, -1.964791, 20.005502, 1974.952843)"/>
<path fill="none" stroke-width="0.19925" stroke-linecap="butt" stroke-linejoin="miter" stroke="rgb(50.196078%, 50.196078%, 50.196078%)" stroke-opacity="1" stroke-miterlimit="10" d="M 91.41914 779.543667 L 95.673727 779.543667 M 91.41914 810.723432 L 95.673727 810.723432 M 91.41914 841.907172 L 95.673727 841.907172 M 91.41914 904.268689 L 95.673727 904.268689 M 91.41914 935.448453 L 95.673727 935.448453 M 91.41914 966.632194 L 95.673727 966.632194 " transform="matrix(1.964791, 0, 0, -1.964791, 20.005502, 1974.952843)"/>
<path fill="none" stroke-width="0.3985" stroke-linecap="butt" stroke-linejoin="miter" stroke="rgb(50.196078%, 50.196078%, 50.196078%)" stroke-opacity="1" stroke-miterlimit="10" d="M 0.00117607 873.086937 L 185.103566 873.086937 " transform="matrix(1.964791, 0, 0, -1.964791, 20.005502, 1974.952843)"/>
<path fill-rule="nonzero" fill="rgb(50.196078%, 50.196078%, 50.196078%)" fill-opacity="1" d="M 387.609375 259.519531 L 381.339844 256.390625 L 383.695312 259.519531 L 381.339844 262.652344 "/>
<path fill="none" stroke-width="0.3985" stroke-linecap="butt" stroke-linejoin="miter" stroke="rgb(50.196078%, 50.196078%, 50.196078%)" stroke-opacity="1" stroke-miterlimit="10" d="M 93.548422 779.543667 L 93.548422 964.640093 " transform="matrix(1.964791, 0, 0, -1.964791, 20.005502, 1974.952843)"/>
<path fill-rule="nonzero" fill="rgb(50.196078%, 50.196078%, 50.196078%)" fill-opacity="1" d="M 203.808594 75.722656 L 200.675781 81.984375 L 203.808594 79.636719 L 206.941406 81.984375 "/>
<path fill-rule="nonzero" fill="rgb(50.196078%, 50.196078%, 50.196078%)" fill-opacity="1" d="M 20.402344 279.214844 C 20.738281 279.214844 21.109375 279.214844 21.109375 278.816406 C 21.109375 278.449219 20.738281 278.449219 20.402344 278.449219 L 9.808594 278.449219 C 9.472656 278.449219 9.132812 278.449219 9.132812 278.816406 C 9.132812 279.214844 9.472656 279.214844 9.808594 279.214844 Z M 20.402344 279.214844 "/>
<path fill-rule="nonzero" fill="rgb(50.196078%, 50.196078%, 50.196078%)" fill-opacity="1" d="M 25.722656 277.25 C 26.859375 277.25 27.320312 277.3125 27.78125 277.464844 C 29.007812 277.925781 29.777344 279.03125 29.777344 280.382812 C 29.777344 282.011719 28.640625 283.300781 27.195312 283.300781 C 26.675781 283.300781 26.277344 283.144531 25.570312 282.6875 C 24.957031 282.347656 24.648438 282.195312 24.3125 282.195312 C 23.851562 282.195312 23.542969 282.472656 23.542969 282.902344 C 23.542969 283.574219 24.402344 284.007812 25.785156 284.007812 C 27.289062 284.007812 28.824219 283.484375 29.746094 282.6875 C 30.667969 281.886719 31.1875 280.75 31.1875 279.429688 C 31.1875 278.449219 30.851562 277.527344 30.296875 276.914062 C 29.898438 276.484375 29.53125 276.238281 28.671875 275.871094 C 30.023438 274.949219 30.511719 274.242188 30.511719 273.167969 C 30.511719 271.574219 29.253906 270.496094 27.441406 270.496094 C 26.460938 270.496094 25.601562 270.835938 24.894531 271.449219 C 24.3125 271.972656 24.035156 272.492188 23.605469 273.660156 L 23.882812 273.753906 C 24.679688 272.308594 25.570312 271.664062 26.796875 271.664062 C 28.085938 271.664062 28.976562 272.523438 28.976562 273.753906 C 28.976562 274.457031 28.671875 275.164062 28.179688 275.65625 C 27.597656 276.238281 27.042969 276.546875 25.722656 277.007812 Z M 25.722656 277.25 "/>
<path fill-rule="nonzero" fill="rgb(50.196078%, 50.196078%, 50.196078%)" fill-opacity="1" d="M 81.664062 279.214844 C 82.003906 279.214844 82.371094 279.214844 82.371094 278.816406 C 82.371094 278.449219 82.003906 278.449219 81.664062 278.449219 L 71.074219 278.449219 C 70.738281 278.449219 70.398438 278.449219 70.398438 278.816406 C 70.398438 279.214844 70.738281 279.214844 71.074219 279.214844 Z M 81.664062 279.214844 "/>
<path fill-rule="nonzero" fill="rgb(50.196078%, 50.196078%, 50.196078%)" fill-opacity="1" d="M 93.28125 281.058594 L 93.039062 280.9375 C 92.300781 282.070312 92.054688 282.257812 91.164062 282.257812 L 86.5 282.257812 L 89.785156 278.785156 C 91.535156 276.976562 92.300781 275.472656 92.300781 273.96875 C 92.300781 272.003906 90.703125 270.496094 88.648438 270.496094 C 87.574219 270.496094 86.558594 270.925781 85.855469 271.695312 C 85.210938 272.371094 84.933594 272.984375 84.59375 274.398438 L 84.996094 274.488281 C 85.792969 272.554688 86.5 271.941406 87.847656 271.941406 C 89.476562 271.941406 90.613281 273.046875 90.613281 274.703125 C 90.613281 276.238281 89.691406 278.050781 88.0625 279.800781 L 84.5625 283.484375 L 84.5625 283.730469 L 92.207031 283.730469 Z M 93.28125 281.058594 "/>
<path fill-rule="nonzero" fill="rgb(50.196078%, 50.196078%, 50.196078%)" fill-opacity="1" d="M 142.933594 279.214844 C 143.269531 279.214844 143.636719 279.214844 143.636719 278.816406 C 143.636719 278.449219 143.269531 278.449219 142.933594 278.449219 L 132.339844 278.449219 C 132.003906 278.449219 131.664062 278.449219 131.664062 278.816406 C 131.664062 279.214844 132.003906 279.214844 132.339844 279.214844 Z M 142.933594 279.214844 "/>
<path fill-rule="nonzero" fill="rgb(50.196078%, 50.196078%, 50.196078%)" fill-opacity="1" d="M 150.957031 270.496094 L 147.425781 272.277344 L 147.425781 272.554688 C 147.640625 272.460938 147.855469 272.371094 147.949219 272.339844 C 148.316406 272.1875 148.625 272.125 148.839844 272.125 C 149.238281 272.125 149.421875 272.402344 149.421875 273.046875 L 149.421875 281.917969 C 149.421875 282.5625 149.269531 282.992188 148.960938 283.175781 C 148.65625 283.359375 148.378906 283.421875 147.550781 283.421875 L 147.550781 283.730469 L 152.953125 283.730469 L 152.953125 283.421875 C 151.417969 283.421875 151.109375 283.207031 151.109375 282.285156 L 151.109375 270.527344 Z M 150.957031 270.496094 "/>
<path fill-rule="nonzero" fill="rgb(50.196078%, 50.196078%, 50.196078%)" fill-opacity="1" d="M 265.886719 270.496094 L 262.355469 272.277344 L 262.355469 272.554688 C 262.570312 272.460938 262.785156 272.371094 262.878906 272.339844 C 263.246094 272.1875 263.550781 272.125 263.765625 272.125 C 264.167969 272.125 264.351562 272.402344 264.351562 273.046875 L 264.351562 281.917969 C 264.351562 282.5625 264.199219 282.992188 263.890625 283.175781 C 263.582031 283.359375 263.308594 283.421875 262.476562 283.421875 L 262.476562 283.730469 L 267.882812 283.730469 L 267.882812 283.421875 C 266.347656 283.421875 266.039062 283.207031 266.039062 282.285156 L 266.039062 270.527344 Z M 265.886719 270.496094 "/>
<path fill-rule="nonzero" fill="rgb(50.196078%, 50.196078%, 50.196078%)" fill-opacity="1" d="M 330.742188 281.058594 L 330.496094 280.9375 C 329.757812 282.070312 329.515625 282.257812 328.625 282.257812 L 323.957031 282.257812 L 327.242188 278.785156 C 328.992188 276.976562 329.757812 275.472656 329.757812 273.96875 C 329.757812 272.003906 328.164062 270.496094 326.105469 270.496094 C 325.03125 270.496094 324.019531 270.925781 323.3125 271.695312 C 322.667969 272.371094 322.390625 272.984375 322.054688 274.398438 L 322.453125 274.488281 C 323.25 272.554688 323.957031 271.941406 325.308594 271.941406 C 326.933594 271.941406 328.070312 273.046875 328.070312 274.703125 C 328.070312 276.238281 327.148438 278.050781 325.523438 279.800781 L 322.023438 283.484375 L 322.023438 283.730469 L 329.667969 283.730469 Z M 330.742188 281.058594 "/>
<path fill-rule="nonzero" fill="rgb(50.196078%, 50.196078%, 50.196078%)" fill-opacity="1" d="M 385.714844 277.25 C 386.851562 277.25 387.3125 277.3125 387.769531 277.464844 C 389 277.925781 389.765625 279.03125 389.765625 280.382812 C 389.765625 282.011719 388.632812 283.300781 387.1875 283.300781 C 386.667969 283.300781 386.265625 283.144531 385.5625 282.6875 C 384.945312 282.347656 384.640625 282.195312 384.300781 282.195312 C 383.84375 282.195312 383.535156 282.472656 383.535156 282.902344 C 383.535156 283.574219 384.394531 284.007812 385.777344 284.007812 C 387.28125 284.007812 388.816406 283.484375 389.734375 282.6875 C 390.65625 281.886719 391.179688 280.75 391.179688 279.429688 C 391.179688 278.449219 390.839844 277.527344 390.289062 276.914062 C 389.890625 276.484375 389.519531 276.238281 388.660156 275.871094 C 390.011719 274.949219 390.503906 274.242188 390.503906 273.167969 C 390.503906 271.574219 389.246094 270.496094 387.433594 270.496094 C 386.453125 270.496094 385.589844 270.835938 384.886719 271.449219 C 384.300781 271.972656 384.027344 272.492188 383.597656 273.660156 L 383.871094 273.753906 C 384.671875 272.308594 385.5625 271.664062 386.789062 271.664062 C 388.078125 271.664062 388.96875 272.523438 388.96875 273.753906 C 388.96875 274.457031 388.660156 275.164062 388.171875 275.65625 C 387.585938 276.238281 387.035156 276.546875 385.714844 277.007812 Z M 385.714844 277.25 "/>
<path fill-rule="nonzero" fill="rgb(50.196078%, 50.196078%, 50.196078%)" fill-opacity="1" d="M 180.605469 444.558594 C 180.945312 444.558594 181.3125 444.558594 181.3125 444.160156 C 181.3125 443.789062 180.945312 443.789062 180.605469 443.789062 L 170.015625 443.789062 C 169.675781 443.789062 169.339844 443.789062 169.339844 444.160156 C 169.339844 444.558594 169.675781 444.558594 170.015625 444.558594 Z M 180.605469 444.558594 "/>
<path fill-rule="nonzero" fill="rgb(50.196078%, 50.196078%, 50.196078%)" fill-opacity="1" d="M 185.929688 442.59375 C 187.066406 442.59375 187.527344 442.65625 187.988281 442.808594 C 189.214844 443.269531 189.984375 444.375 189.984375 445.722656 C 189.984375 447.351562 188.847656 448.640625 187.402344 448.640625 C 186.882812 448.640625 186.484375 448.488281 185.777344 448.027344 C 185.164062 447.6875 184.855469 447.535156 184.519531 447.535156 C 184.058594 447.535156 183.75 447.8125 183.75 448.242188 C 183.75 448.917969 184.609375 449.347656 185.992188 449.347656 C 187.496094 449.347656 189.03125 448.824219 189.953125 448.027344 C 190.875 447.230469 191.394531 446.09375 191.394531 444.773438 C 191.394531 443.789062 191.058594 442.871094 190.503906 442.253906 C 190.105469 441.824219 189.738281 441.578125 188.878906 441.210938 C 190.230469 440.289062 190.71875 439.585938 190.71875 438.511719 C 190.71875 436.914062 189.460938 435.839844 187.648438 435.839844 C 186.667969 435.839844 185.808594 436.175781 185.101562 436.789062 C 184.519531 437.3125 184.242188 437.835938 183.8125 439 L 184.089844 439.09375 C 184.886719 437.648438 185.777344 437.003906 187.003906 437.003906 C 188.292969 437.003906 189.183594 437.863281 189.183594 439.09375 C 189.183594 439.800781 188.878906 440.503906 188.386719 440.996094 C 187.804688 441.578125 187.25 441.886719 185.929688 442.347656 Z M 185.929688 442.59375 "/>
<path fill-rule="nonzero" fill="rgb(50.196078%, 50.196078%, 50.196078%)" fill-opacity="1" d="M 180.605469 383.292969 C 180.945312 383.292969 181.3125 383.292969 181.3125 382.890625 C 181.3125 382.523438 180.945312 382.523438 180.605469 382.523438 L 170.015625 382.523438 C 169.675781 382.523438 169.339844 382.523438 169.339844 382.890625 C 169.339844 383.292969 169.675781 383.292969 170.015625 383.292969 Z M 180.605469 383.292969 "/>
<path fill-rule="nonzero" fill="rgb(50.196078%, 50.196078%, 50.196078%)" fill-opacity="1" d="M 192.222656 385.132812 L 191.976562 385.011719 C 191.242188 386.148438 190.996094 386.332031 190.105469 386.332031 L 185.4375 386.332031 L 188.722656 382.863281 C 190.472656 381.050781 191.242188 379.546875 191.242188 378.042969 C 191.242188 376.078125 189.644531 374.574219 187.589844 374.574219 C 186.515625 374.574219 185.5 375.003906 184.792969 375.769531 C 184.148438 376.445312 183.875 377.058594 183.535156 378.472656 L 183.933594 378.5625 C 184.734375 376.628906 185.4375 376.015625 186.789062 376.015625 C 188.417969 376.015625 189.554688 377.121094 189.554688 378.777344 C 189.554688 380.3125 188.632812 382.125 187.003906 383.875 L 183.503906 387.558594 L 183.503906 387.804688 L 191.148438 387.804688 Z M 192.222656 385.132812 "/>
<path fill-rule="nonzero" fill="rgb(50.196078%, 50.196078%, 50.196078%)" fill-opacity="1" d="M 180.605469 322.027344 C 180.945312 322.027344 181.3125 322.027344 181.3125 321.628906 C 181.3125 321.261719 180.945312 321.261719 180.605469 321.261719 L 170.015625 321.261719 C 169.675781 321.261719 169.339844 321.261719 169.339844 321.628906 C 169.339844 322.027344 169.675781 322.027344 170.015625 322.027344 Z M 180.605469 322.027344 "/>
<path fill-rule="nonzero" fill="rgb(50.196078%, 50.196078%, 50.196078%)" fill-opacity="1" d="M 188.632812 313.308594 L 185.101562 315.089844 L 185.101562 315.367188 C 185.316406 315.273438 185.53125 315.179688 185.625 315.152344 C 185.992188 314.996094 186.300781 314.9375 186.515625 314.9375 C 186.914062 314.9375 187.097656 315.210938 187.097656 315.855469 L 187.097656 324.730469 C 187.097656 325.375 186.945312 325.804688 186.636719 325.988281 C 186.328125 326.171875 186.054688 326.234375 185.222656 326.234375 L 185.222656 326.539062 L 190.628906 326.539062 L 190.628906 326.234375 C 189.09375 326.234375 188.785156 326.019531 188.785156 325.097656 L 188.785156 313.339844 Z M 188.632812 313.308594 "/>
<path fill-rule="nonzero" fill="rgb(50.196078%, 50.196078%, 50.196078%)" fill-opacity="1" d="M 188.632812 191.59375 L 185.101562 193.371094 L 185.101562 193.648438 C 185.316406 193.558594 185.53125 193.464844 185.625 193.433594 C 185.992188 193.28125 186.300781 193.21875 186.515625 193.21875 C 186.914062 193.21875 187.097656 193.496094 187.097656 194.140625 L 187.097656 203.011719 C 187.097656 203.65625 186.945312 204.085938 186.636719 204.269531 C 186.328125 204.457031 186.054688 204.515625 185.222656 204.515625 L 185.222656 204.824219 L 190.628906 204.824219 L 190.628906 204.515625 C 189.09375 204.515625 188.785156 204.300781 188.785156 203.378906 L 188.785156 191.621094 Z M 188.632812 191.59375 "/>
<path fill-rule="nonzero" fill="rgb(50.196078%, 50.196078%, 50.196078%)" fill-opacity="1" d="M 192.222656 140.886719 L 191.976562 140.765625 C 191.242188 141.902344 190.996094 142.085938 190.105469 142.085938 L 185.4375 142.085938 L 188.722656 138.617188 C 190.472656 136.804688 191.242188 135.300781 191.242188 133.796875 C 191.242188 131.832031 189.644531 130.328125 187.589844 130.328125 C 186.515625 130.328125 185.5 130.757812 184.792969 131.523438 C 184.148438 132.199219 183.875 132.816406 183.535156 134.226562 L 183.933594 134.320312 C 184.734375 132.382812 185.4375 131.769531 186.789062 131.769531 C 188.417969 131.769531 189.554688 132.875 189.554688 134.535156 C 189.554688 136.070312 188.632812 137.878906 187.003906 139.628906 L 183.503906 143.3125 L 183.503906 143.558594 L 191.148438 143.558594 Z M 192.222656 140.886719 "/>
<path fill-rule="nonzero" fill="rgb(50.196078%, 50.196078%, 50.196078%)" fill-opacity="1" d="M 185.929688 75.664062 C 187.066406 75.664062 187.527344 75.726562 187.988281 75.878906 C 189.214844 76.339844 189.984375 77.445312 189.984375 78.796875 C 189.984375 80.421875 188.847656 81.710938 187.402344 81.710938 C 186.882812 81.710938 186.484375 81.558594 185.777344 81.097656 C 185.164062 80.761719 184.855469 80.605469 184.519531 80.605469 C 184.058594 80.605469 183.75 80.882812 183.75 81.3125 C 183.75 81.988281 184.609375 82.417969 185.992188 82.417969 C 187.496094 82.417969 189.03125 81.894531 189.953125 81.097656 C 190.875 80.300781 191.394531 79.164062 191.394531 77.84375 C 191.394531 76.863281 191.058594 75.941406 190.503906 75.328125 C 190.105469 74.898438 189.738281 74.652344 188.878906 74.28125 C 190.230469 73.363281 190.71875 72.65625 190.71875 71.582031 C 190.71875 69.984375 189.460938 68.910156 187.648438 68.910156 C 186.667969 68.910156 185.808594 69.25 185.101562 69.863281 C 184.519531 70.382812 184.242188 70.90625 183.8125 72.074219 L 184.089844 72.164062 C 184.886719 70.722656 185.777344 70.078125 187.003906 70.078125 C 188.292969 70.078125 189.183594 70.9375 189.183594 72.164062 C 189.183594 72.871094 188.878906 73.578125 188.386719 74.066406 C 187.804688 74.652344 187.25 74.957031 185.929688 75.417969 Z M 185.929688 75.664062 "/>
<g clip-path="url(#clip-0)">
<path fill="none" stroke-width="0.99628" stroke-linecap="butt" stroke-linejoin="miter" stroke="rgb(6.666667%, 52.941176%, 87.058824%)" stroke-opacity="1" stroke-miterlimit="10" d="M 0.00117607 1309.629483 L 1.887907 1289.074258 L 3.778614 1268.972327 L 5.66932 1249.33164 L 7.560027 1230.144245 L 9.450734 1211.422072 L 11.337465 1193.153192 L 13.228172 1175.343568 L 15.118879 1157.993201 L 17.009585 1141.098115 L 18.896316 1124.664274 L 20.787023 1108.683725 L 22.67773 1093.168398 L 24.568437 1078.106363 L 26.459144 1063.503584 L 28.345874 1049.360063 L 30.236581 1035.671823 L 32.127288 1022.440851 L 34.017995 1009.671124 L 35.908702 997.358666 L 37.795432 985.507453 L 39.686139 974.109532 L 41.574858 963.172857 L 43.465565 952.691462 L 45.356272 942.671312 L 47.243002 933.106442 L 49.133709 924.00083 L 51.024416 915.356462 L 52.915123 907.163399 L 54.801853 899.433569 L 56.69256 892.161008 L 58.583267 885.347704 L 60.473974 878.987692 L 62.364681 873.090913 L 64.251412 867.649415 L 66.142118 862.667174 L 68.032825 858.144189 L 69.923532 854.078474 L 71.814239 850.468039 L 73.70097 847.320837 L 75.591677 844.628915 L 77.482383 842.394263 L 79.37309 840.616879 L 81.259821 839.30074 L 83.150528 838.44187 L 85.041235 838.038281 L 86.931942 838.097925 L 88.822648 838.612849 L 90.709379 839.58703 L 92.600086 841.016492 L 94.490793 842.907199 L 96.379512 845.253187 L 98.270218 848.058431 L 100.156949 851.320944 L 102.047656 855.042714 L 103.938363 859.223741 L 105.82907 863.864025 L 107.719777 868.957601 L 109.606507 874.512422 L 111.497214 880.524512 L 113.387921 886.995859 L 115.278628 893.922487 L 117.165358 901.308371 L 119.056065 909.1555 L 120.946772 917.45791 L 122.837479 926.219577 L 124.728186 935.438513 L 126.614916 945.116705 L 128.505623 955.250178 L 130.39633 965.842908 L 132.287037 976.894895 L 134.177744 988.406139 L 136.064475 1000.374651 L 137.955181 1012.800433 L 139.845888 1025.683483 L 141.736595 1039.027778 L 143.627302 1052.827353 L 145.514033 1067.086186 L 147.40474 1081.800299 L 149.295446 1096.977645 L 151.186153 1112.610272 L 153.072884 1128.700167 L 154.961603 1145.24932 L 156.85231 1162.253753 L 158.743016 1179.723407 L 160.633723 1197.644366 L 162.520454 1216.02657 L 164.411161 1234.86803 L 166.301868 1254.164772 L 168.192575 1273.918782 L 170.083281 1294.132048 L 171.970012 1314.804572 L 173.860719 1335.934365 L 175.751426 1357.523414 L 177.642133 1379.569732 L 179.532839 1402.075307 L 181.41957 1425.036163 L 183.310277 1448.456275 L 185.200984 1472.335644 L 187.091691 1496.672282 " transform="matrix(1.964791, 0, 0, -1.964791, 20.005502, 1974.952843)"/>
</g>
<g clip-path="url(#clip-1)">
<path fill="none" stroke-width="0.99628" stroke-linecap="butt" stroke-linejoin="miter" stroke="rgb(100%, 12.941176%, 32.156863%)" stroke-opacity="1" stroke-miterlimit="10" d="M 0.00117607 -0.000143622 L 1.887907 57.44474 L 3.778614 112.641054 L 5.66932 165.628562 L 7.560027 216.449013 L 9.450734 265.148135 L 11.337465 311.76569 L 13.228172 356.339452 L 15.118879 398.917137 L 17.009585 439.534531 L 18.896316 478.239348 L 20.787023 515.067375 L 22.67773 550.062352 L 24.568437 583.270003 L 26.459144 614.726117 L 28.345874 644.47642 L 30.236581 672.558685 L 32.127288 699.016653 L 34.017995 723.894061 L 35.908702 747.230672 L 37.795432 769.066249 L 39.686139 789.44453 L 41.574858 808.407266 L 43.465565 825.992232 L 45.356272 842.251118 L 47.243002 857.215735 L 49.133709 870.929821 L 51.024416 883.437115 L 52.915123 894.77738 L 54.801853 904.992367 L 56.69256 914.125813 L 58.583267 922.21947 L 60.473974 929.3131 L 62.364681 935.444477 L 64.251412 940.663305 L 66.142118 945.007358 L 68.032825 948.520375 L 69.923532 951.242118 L 71.814239 953.210362 L 73.70097 954.472822 L 75.591677 955.071247 L 77.482383 955.039437 L 79.37309 954.425107 L 81.259821 953.273982 L 83.150528 951.62185 L 85.041235 949.508473 L 86.931942 946.981567 L 88.822648 944.078904 L 90.709379 940.844225 L 92.600086 937.313315 L 94.490793 933.535877 L 96.379512 929.551675 L 98.270218 925.398482 L 100.156949 921.122025 L 102.047656 916.762067 L 105.82907 907.956661 L 107.719777 903.594715 L 109.606507 899.31627 L 111.497214 895.165065 L 113.387921 891.176886 L 115.278628 887.399449 L 117.165358 883.870527 L 119.056065 880.633859 L 120.946772 877.731197 L 122.837479 875.202302 L 124.728186 873.090913 L 126.614916 871.432817 L 128.505623 870.281692 L 130.39633 869.667362 L 132.287037 869.63754 L 134.177744 870.230001 L 136.064475 871.49246 L 137.955181 873.460704 L 139.845888 876.180459 L 141.736595 879.687512 L 143.627302 884.031565 L 145.514033 889.246417 L 147.40474 895.379782 L 149.295446 902.469436 L 151.186153 910.563093 L 153.072884 919.690575 L 154.961603 929.905561 L 156.85231 941.245826 L 158.743016 953.749144 L 160.633723 967.461242 L 162.520454 982.421883 L 164.411161 998.676793 L 166.301868 1016.261758 L 168.192575 1035.21853 L 170.083281 1055.594823 L 171.970012 1077.4304 L 173.860719 1100.761047 L 175.751426 1125.632491 L 177.642133 1152.090458 L 179.532839 1180.168747 L 181.41957 1209.915074 L 183.310277 1241.367211 L 185.200984 1274.570887 L 187.091691 1309.561887 " transform="matrix(1.964791, 0, 0, -1.964791, 20.005502, 1974.952843)"/>
</g>
<path fill="none" stroke-width="0.3985" stroke-linecap="butt" stroke-linejoin="miter" stroke="rgb(50.196078%, 50.196078%, 50.196078%)" stroke-opacity="1" stroke-miterlimit="10" d="M 33.286365 972.445472 L 153.806502 972.445472 L 153.806502 1004.484106 L 33.286365 1004.484106 Z M 33.286365 972.445472 " transform="matrix(1.964791, 0, 0, -1.964791, 20.005502, 1974.952843)"/>
<path fill="none" stroke-width="0.99628" stroke-linecap="butt" stroke-linejoin="miter" stroke="rgb(6.666667%, 52.941176%, 87.058824%)" stroke-opacity="1" stroke-miterlimit="10" d="M 0.00152301 -0.00201403 L 17.007944 -0.00201403 " transform="matrix(1.964791, 0, 0, -1.964791, 92.258726, 19.070262)"/>
<path fill-rule="nonzero" fill="rgb(50.196078%, 50.196078%, 50.196078%)" fill-opacity="1" d="M 134.179688 18.234375 L 135.960938 18.234375 L 134.242188 26.460938 C 133.8125 28.578125 133.167969 29.652344 132.339844 29.652344 C 132.09375 29.652344 131.941406 29.5 131.941406 29.316406 C 131.941406 29.285156 131.96875 29.222656 132.03125 29.101562 C 132.09375 29.007812 132.125 28.917969 132.125 28.792969 C 132.125 28.394531 131.753906 28.058594 131.355469 28.058594 C 130.925781 28.058594 130.621094 28.394531 130.621094 28.855469 C 130.621094 29.53125 131.324219 30.050781 132.183594 30.050781 C 133.90625 30.050781 135.285156 28.117188 136.085938 24.527344 L 137.496094 18.234375 L 139.644531 18.234375 L 139.769531 17.617188 L 137.648438 17.617188 C 138.203125 14.550781 138.9375 13.136719 140.015625 13.136719 C 140.289062 13.136719 140.445312 13.257812 140.445312 13.382812 C 140.445312 13.445312 140.445312 13.472656 140.382812 13.597656 C 140.289062 13.75 140.257812 13.84375 140.257812 13.996094 C 140.257812 14.457031 140.566406 14.765625 140.996094 14.765625 C 141.425781 14.765625 141.824219 14.425781 141.824219 13.996094 C 141.824219 13.257812 141.089844 12.707031 140.136719 12.707031 C 139.15625 12.707031 138.417969 13.136719 137.710938 14.058594 C 137.097656 14.824219 136.730469 15.746094 136.113281 17.617188 L 134.335938 17.617188 Z M 134.179688 18.234375 "/>
<path fill-rule="nonzero" fill="rgb(50.196078%, 50.196078%, 50.196078%)" fill-opacity="1" d="M 148.28125 30.695312 C 148.28125 30.636719 148.28125 30.605469 147.945312 30.265625 C 145.519531 27.8125 144.875 24.097656 144.875 21.089844 C 144.875 17.679688 145.613281 14.273438 148.035156 11.847656 C 148.28125 11.601562 148.28125 11.570312 148.28125 11.507812 C 148.28125 11.355469 148.222656 11.292969 148.097656 11.292969 C 147.882812 11.292969 146.132812 12.644531 144.96875 15.132812 C 143.984375 17.28125 143.738281 19.460938 143.738281 21.089844 C 143.738281 22.625 143.953125 24.988281 145.027344 27.226562 C 146.226562 29.621094 147.882812 30.910156 148.097656 30.910156 C 148.222656 30.910156 148.28125 30.851562 148.28125 30.695312 Z M 148.28125 30.695312 "/>
<path fill-rule="nonzero" fill="rgb(50.196078%, 50.196078%, 50.196078%)" fill-opacity="1" d="M 157.261719 23.820312 C 157.105469 24.003906 157.015625 24.128906 156.832031 24.34375 C 156.398438 24.957031 156.15625 25.140625 155.941406 25.140625 C 155.664062 25.140625 155.480469 24.894531 155.324219 24.34375 C 155.296875 24.1875 155.265625 24.066406 155.265625 24.003906 C 154.773438 22.007812 154.558594 21.117188 154.558594 20.84375 C 155.417969 19.308594 156.125 18.449219 156.460938 18.449219 C 156.585938 18.449219 156.738281 18.507812 156.953125 18.601562 C 157.167969 18.753906 157.320312 18.785156 157.476562 18.785156 C 157.875 18.785156 158.148438 18.507812 158.148438 18.078125 C 158.148438 17.679688 157.8125 17.375 157.351562 17.375 C 156.492188 17.375 155.753906 18.078125 154.40625 20.167969 L 154.191406 19.09375 C 153.914062 17.742188 153.699219 17.375 153.144531 17.375 C 152.714844 17.375 152.070312 17.527344 150.875 17.925781 L 150.660156 18.019531 L 150.722656 18.292969 C 151.488281 18.140625 151.640625 18.078125 151.824219 18.078125 C 152.316406 18.078125 152.441406 18.265625 152.714844 19.429688 L 153.269531 21.855469 L 151.671875 24.128906 C 151.273438 24.742188 150.875 25.078125 150.660156 25.078125 C 150.566406 25.078125 150.351562 25.019531 150.167969 24.894531 C 149.921875 24.773438 149.707031 24.710938 149.523438 24.710938 C 149.15625 24.710938 148.878906 24.988281 148.878906 25.386719 C 148.878906 25.90625 149.277344 26.214844 149.859375 26.214844 C 150.445312 26.214844 150.691406 26.03125 151.671875 24.832031 C 152.195312 24.21875 152.625 23.699219 153.421875 22.5625 L 154.035156 24.894531 C 154.28125 25.90625 154.527344 26.214844 155.171875 26.214844 C 155.910156 26.214844 156.398438 25.753906 157.535156 23.972656 Z M 157.261719 23.820312 "/>
<path fill-rule="nonzero" fill="rgb(50.196078%, 50.196078%, 50.196078%)" fill-opacity="1" d="M 163.796875 21.089844 C 163.796875 19.582031 163.582031 17.21875 162.507812 14.980469 C 161.34375 12.585938 159.652344 11.292969 159.46875 11.292969 C 159.347656 11.292969 159.253906 11.386719 159.253906 11.507812 C 159.253906 11.570312 159.253906 11.601562 159.625 11.96875 C 161.558594 13.90625 162.664062 17.003906 162.664062 21.089844 C 162.664062 24.464844 161.957031 27.902344 159.53125 30.359375 C 159.253906 30.605469 159.253906 30.636719 159.253906 30.695312 C 159.253906 30.820312 159.347656 30.910156 159.46875 30.910156 C 159.652344 30.910156 161.433594 29.5625 162.570312 27.074219 C 163.582031 24.925781 163.796875 22.746094 163.796875 21.089844 Z M 163.796875 21.089844 "/>
<path fill-rule="nonzero" fill="rgb(50.196078%, 50.196078%, 50.196078%)" fill-opacity="1" d="M 183.535156 19.582031 C 183.84375 19.582031 184.210938 19.582031 184.210938 19.214844 C 184.210938 18.816406 183.84375 18.816406 183.566406 18.816406 L 171.839844 18.816406 C 171.5625 18.816406 171.195312 18.816406 171.195312 19.214844 C 171.195312 19.582031 171.5625 19.582031 171.839844 19.582031 Z M 183.566406 23.390625 C 183.84375 23.390625 184.210938 23.390625 184.210938 22.992188 C 184.210938 22.625 183.84375 22.625 183.535156 22.625 L 171.839844 22.625 C 171.5625 22.625 171.195312 22.625 171.195312 22.992188 C 171.195312 23.390625 171.5625 23.390625 171.839844 23.390625 Z M 183.566406 23.390625 "/>
<path fill-rule="nonzero" fill="rgb(50.196078%, 50.196078%, 50.196078%)" fill-opacity="1" d="M 198.957031 23.328125 L 198.710938 23.207031 C 197.972656 24.34375 197.726562 24.527344 196.835938 24.527344 L 192.171875 24.527344 L 195.457031 21.058594 C 197.207031 19.246094 197.972656 17.742188 197.972656 16.238281 C 197.972656 14.273438 196.375 12.769531 194.320312 12.769531 C 193.246094 12.769531 192.230469 13.199219 191.527344 13.964844 C 190.882812 14.640625 190.605469 15.253906 190.265625 16.667969 L 190.667969 16.757812 C 191.464844 14.824219 192.171875 14.210938 193.523438 14.210938 C 195.148438 14.210938 196.285156 15.316406 196.285156 16.972656 C 196.285156 18.507812 195.363281 20.320312 193.738281 22.070312 L 190.238281 25.753906 L 190.238281 26 L 197.882812 26 Z M 198.957031 23.328125 "/>
<path fill-rule="nonzero" fill="rgb(50.196078%, 50.196078%, 50.196078%)" fill-opacity="1" d="M 207.300781 23.820312 C 207.144531 24.003906 207.054688 24.128906 206.871094 24.34375 C 206.441406 24.957031 206.195312 25.140625 205.980469 25.140625 C 205.703125 25.140625 205.519531 24.894531 205.363281 24.34375 C 205.335938 24.1875 205.304688 24.066406 205.304688 24.003906 C 204.8125 22.007812 204.597656 21.117188 204.597656 20.84375 C 205.457031 19.308594 206.164062 18.449219 206.5 18.449219 C 206.625 18.449219 206.777344 18.507812 206.992188 18.601562 C 207.207031 18.753906 207.359375 18.785156 207.515625 18.785156 C 207.914062 18.785156 208.191406 18.507812 208.191406 18.078125 C 208.191406 17.679688 207.851562 17.375 207.390625 17.375 C 206.53125 17.375 205.792969 18.078125 204.445312 20.167969 L 204.230469 19.09375 C 203.953125 17.742188 203.738281 17.375 203.183594 17.375 C 202.753906 17.375 202.109375 17.527344 200.914062 17.925781 L 200.699219 18.019531 L 200.761719 18.292969 C 201.527344 18.140625 201.679688 18.078125 201.867188 18.078125 C 202.355469 18.078125 202.480469 18.265625 202.753906 19.429688 L 203.308594 21.855469 L 201.710938 24.128906 C 201.3125 24.742188 200.914062 25.078125 200.699219 25.078125 C 200.605469 25.078125 200.390625 25.019531 200.207031 24.894531 C 199.960938 24.773438 199.746094 24.710938 199.5625 24.710938 C 199.195312 24.710938 198.917969 24.988281 198.917969 25.386719 C 198.917969 25.90625 199.316406 26.214844 199.902344 26.214844 C 200.484375 26.214844 200.730469 26.03125 201.710938 24.832031 C 202.234375 24.21875 202.664062 23.699219 203.460938 22.5625 L 204.074219 24.894531 C 204.320312 25.90625 204.566406 26.214844 205.210938 26.214844 C 205.949219 26.214844 206.441406 25.753906 207.574219 23.972656 Z M 207.300781 23.820312 "/>
<path fill-rule="nonzero" fill="rgb(50.196078%, 50.196078%, 50.196078%)" fill-opacity="1" d="M 215.066406 16.898438 L 214.882812 16.839844 C 214.359375 17.667969 214.144531 17.789062 213.5 17.789062 L 210.03125 17.789062 L 212.488281 15.242188 C 213.777344 13.890625 214.328125 12.785156 214.328125 11.648438 C 214.328125 10.207031 213.164062 9.101562 211.660156 9.101562 C 210.859375 9.101562 210.09375 9.410156 209.570312 9.992188 C 209.109375 10.484375 208.894531 10.945312 208.648438 11.988281 L 208.957031 12.050781 C 209.507812 10.636719 210.03125 10.175781 211.042969 10.175781 C 212.273438 10.175781 213.101562 11.003906 213.101562 12.203125 C 213.101562 13.339844 212.425781 14.691406 211.199219 15.980469 L 208.617188 18.710938 L 208.617188 18.894531 L 214.269531 18.894531 Z M 215.066406 16.898438 "/>
<path fill-rule="nonzero" fill="rgb(50.196078%, 50.196078%, 50.196078%)" fill-opacity="1" d="M 227.140625 21.488281 L 232.605469 21.488281 C 232.882812 21.488281 233.25 21.488281 233.25 21.089844 C 233.25 20.71875 232.882812 20.71875 232.605469 20.71875 L 227.140625 20.71875 L 227.140625 15.222656 C 227.140625 14.949219 227.140625 14.578125 226.742188 14.578125 C 226.34375 14.578125 226.34375 14.949219 226.34375 15.222656 L 226.34375 20.71875 L 220.878906 20.71875 C 220.601562 20.71875 220.234375 20.71875 220.234375 21.089844 C 220.234375 21.488281 220.601562 21.488281 220.878906 21.488281 L 226.34375 21.488281 L 226.34375 26.984375 C 226.34375 27.257812 226.34375 27.628906 226.742188 27.628906 C 227.140625 27.628906 227.140625 27.257812 227.140625 26.984375 Z M 227.140625 21.488281 "/>
<path fill-rule="nonzero" fill="rgb(50.196078%, 50.196078%, 50.196078%)" fill-opacity="1" d="M 244.917969 23.820312 C 244.761719 24.003906 244.671875 24.128906 244.488281 24.34375 C 244.058594 24.957031 243.8125 25.140625 243.597656 25.140625 C 243.320312 25.140625 243.136719 24.894531 242.984375 24.34375 C 242.953125 24.1875 242.921875 24.066406 242.921875 24.003906 C 242.429688 22.007812 242.214844 21.117188 242.214844 20.84375 C 243.074219 19.308594 243.78125 18.449219 244.117188 18.449219 C 244.242188 18.449219 244.394531 18.507812 244.609375 18.601562 C 244.824219 18.753906 244.976562 18.785156 245.132812 18.785156 C 245.53125 18.785156 245.808594 18.507812 245.808594 18.078125 C 245.808594 17.679688 245.46875 17.375 245.007812 17.375 C 244.148438 17.375 243.414062 18.078125 242.0625 20.167969 L 241.847656 19.09375 C 241.570312 17.742188 241.355469 17.375 240.804688 17.375 C 240.375 17.375 239.730469 17.527344 238.53125 17.925781 L 238.316406 18.019531 L 238.378906 18.292969 C 239.144531 18.140625 239.300781 18.078125 239.484375 18.078125 C 239.972656 18.078125 240.097656 18.265625 240.375 19.429688 L 240.925781 21.855469 L 239.328125 24.128906 C 238.929688 24.742188 238.53125 25.078125 238.316406 25.078125 C 238.222656 25.078125 238.007812 25.019531 237.824219 24.894531 C 237.578125 24.773438 237.363281 24.710938 237.179688 24.710938 C 236.8125 24.710938 236.535156 24.988281 236.535156 25.386719 C 236.535156 25.90625 236.933594 26.214844 237.519531 26.214844 C 238.101562 26.214844 238.347656 26.03125 239.328125 24.832031 C 239.851562 24.21875 240.28125 23.699219 241.078125 22.5625 L 241.695312 24.894531 C 241.9375 25.90625 242.183594 26.214844 242.828125 26.214844 C 243.566406 26.214844 244.058594 25.753906 245.195312 23.972656 Z M 244.917969 23.820312 "/>
<path fill-rule="nonzero" fill="rgb(50.196078%, 50.196078%, 50.196078%)" fill-opacity="1" d="M 261.421875 21.488281 C 261.757812 21.488281 262.125 21.488281 262.125 21.089844 C 262.125 20.71875 261.757812 20.71875 261.421875 20.71875 L 250.828125 20.71875 C 250.492188 20.71875 250.152344 20.71875 250.152344 21.089844 C 250.152344 21.488281 250.492188 21.488281 250.828125 21.488281 Z M 261.421875 21.488281 "/>
<path fill-rule="nonzero" fill="rgb(50.196078%, 50.196078%, 50.196078%)" fill-opacity="1" d="M 272.164062 12.769531 L 268.632812 14.550781 L 268.632812 14.824219 C 268.847656 14.734375 269.0625 14.640625 269.15625 14.609375 C 269.523438 14.457031 269.832031 14.394531 270.046875 14.394531 C 270.445312 14.394531 270.628906 14.671875 270.628906 15.316406 L 270.628906 24.1875 C 270.628906 24.832031 270.476562 25.261719 270.167969 25.449219 C 269.859375 25.632812 269.585938 25.691406 268.753906 25.691406 L 268.753906 26 L 274.160156 26 L 274.160156 25.691406 C 272.625 25.691406 272.316406 25.476562 272.316406 24.558594 L 272.316406 12.800781 Z M 272.164062 12.769531 "/>
<path fill="none" stroke-width="0.99628" stroke-linecap="butt" stroke-linejoin="miter" stroke="rgb(100%, 12.941176%, 32.156863%)" stroke-opacity="1" stroke-miterlimit="10" d="M 0.00152301 -0.000236955 L 17.007944 -0.000236955 " transform="matrix(1.964791, 0, 0, -1.964791, 92.258726, 46.632347)"/>
<path fill-rule="nonzero" fill="rgb(50.196078%, 50.196078%, 50.196078%)" fill-opacity="1" d="M 139.8125 45.640625 L 138.613281 45.640625 C 138.550781 45.640625 138.460938 45.582031 138.304688 45.488281 C 137.785156 45.121094 137.140625 44.933594 136.371094 44.933594 C 134.222656 44.933594 132.441406 46.441406 132.441406 48.28125 C 132.441406 49.292969 132.871094 49.878906 134.007812 50.398438 C 132.84375 51.167969 132.503906 51.566406 132.503906 52.027344 C 132.503906 52.304688 132.65625 52.519531 133.027344 52.792969 C 131.09375 54.085938 130.722656 54.453125 130.722656 55.375 C 130.722656 56.722656 132.011719 57.582031 134.007812 57.582031 C 136.464844 57.582031 138.121094 56.449219 138.121094 54.730469 C 138.121094 53.5 137.171875 52.640625 135.296875 52.148438 C 134.4375 51.933594 133.945312 51.628906 133.945312 51.320312 C 133.945312 51.042969 134.378906 50.523438 134.652344 50.523438 C 134.683594 50.523438 134.714844 50.523438 134.777344 50.554688 C 134.929688 50.585938 135.207031 50.613281 135.390625 50.613281 C 137.171875 50.613281 139.011719 49.019531 139.011719 47.484375 C 139.011719 47.175781 138.953125 46.777344 138.828125 46.378906 L 139.8125 46.378906 Z M 133.457031 53.007812 C 133.488281 53.007812 133.515625 53.039062 133.578125 53.039062 C 133.640625 53.070312 133.824219 53.132812 134.132812 53.222656 C 136.21875 53.871094 136.925781 54.421875 136.925781 55.3125 C 136.925781 56.386719 135.789062 57.152344 134.285156 57.152344 C 132.71875 57.152344 131.796875 56.417969 131.796875 55.160156 C 131.796875 54.699219 131.921875 54.359375 132.226562 53.992188 C 132.503906 53.652344 133.300781 53.007812 133.457031 53.007812 Z M 136.371094 45.367188 C 137.078125 45.367188 137.476562 45.824219 137.476562 46.746094 C 137.476562 47.421875 137.230469 48.28125 136.863281 48.957031 C 136.433594 49.753906 135.820312 50.183594 135.144531 50.183594 C 134.40625 50.183594 133.976562 49.632812 133.976562 48.710938 C 133.976562 46.929688 135.082031 45.367188 136.371094 45.367188 Z M 136.371094 45.367188 "/>
<path fill-rule="nonzero" fill="rgb(50.196078%, 50.196078%, 50.196078%)" fill-opacity="1" d="M 146.835938 58.257812 C 146.835938 58.199219 146.835938 58.167969 146.496094 57.828125 C 144.070312 55.375 143.425781 51.660156 143.425781 48.648438 C 143.425781 45.242188 144.164062 41.835938 146.589844 39.410156 C 146.835938 39.164062 146.835938 39.132812 146.835938 39.070312 C 146.835938 38.917969 146.773438 38.855469 146.648438 38.855469 C 146.433594 38.855469 144.683594 40.207031 143.519531 42.695312 C 142.535156 44.84375 142.289062 47.023438 142.289062 48.648438 C 142.289062 50.183594 142.503906 52.550781 143.582031 54.789062 C 144.777344 57.183594 146.433594 58.472656 146.648438 58.472656 C 146.773438 58.472656 146.835938 58.414062 146.835938 58.257812 Z M 146.835938 58.257812 "/>
<path fill-rule="nonzero" fill="rgb(50.196078%, 50.196078%, 50.196078%)" fill-opacity="1" d="M 155.8125 51.382812 C 155.660156 51.566406 155.566406 51.691406 155.382812 51.90625 C 154.953125 52.519531 154.707031 52.703125 154.492188 52.703125 C 154.214844 52.703125 154.03125 52.457031 153.878906 51.90625 C 153.847656 51.75 153.816406 51.628906 153.816406 51.566406 C 153.324219 49.570312 153.109375 48.679688 153.109375 48.40625 C 153.96875 46.871094 154.675781 46.011719 155.011719 46.011719 C 155.136719 46.011719 155.289062 46.070312 155.503906 46.164062 C 155.71875 46.316406 155.875 46.347656 156.027344 46.347656 C 156.425781 46.347656 156.703125 46.070312 156.703125 45.640625 C 156.703125 45.242188 156.363281 44.933594 155.902344 44.933594 C 155.042969 44.933594 154.308594 45.640625 152.957031 47.730469 L 152.742188 46.65625 C 152.464844 45.304688 152.25 44.933594 151.699219 44.933594 C 151.269531 44.933594 150.625 45.089844 149.425781 45.488281 L 149.210938 45.582031 L 149.273438 45.855469 C 150.039062 45.703125 150.195312 45.640625 150.378906 45.640625 C 150.871094 45.640625 150.992188 45.824219 151.269531 46.992188 L 151.820312 49.417969 L 150.222656 51.691406 C 149.824219 52.304688 149.425781 52.640625 149.210938 52.640625 C 149.121094 52.640625 148.90625 52.578125 148.71875 52.457031 C 148.472656 52.335938 148.257812 52.273438 148.074219 52.273438 C 147.707031 52.273438 147.429688 52.550781 147.429688 52.949219 C 147.429688 53.46875 147.828125 53.777344 148.414062 53.777344 C 148.996094 53.777344 149.242188 53.59375 150.222656 52.394531 C 150.746094 51.78125 151.175781 51.257812 151.972656 50.125 L 152.589844 52.457031 C 152.832031 53.46875 153.078125 53.777344 153.722656 53.777344 C 154.460938 53.777344 154.953125 53.316406 156.089844 51.535156 Z M 155.8125 51.382812 "/>
<path fill-rule="nonzero" fill="rgb(50.196078%, 50.196078%, 50.196078%)" fill-opacity="1" d="M 162.351562 48.648438 C 162.351562 47.144531 162.136719 44.78125 161.0625 42.539062 C 159.894531 40.144531 158.207031 38.855469 158.023438 38.855469 C 157.898438 38.855469 157.808594 38.949219 157.808594 39.070312 C 157.808594 39.132812 157.808594 39.164062 158.175781 39.53125 C 160.109375 41.464844 161.214844 44.566406 161.214844 48.648438 C 161.214844 52.027344 160.507812 55.464844 158.082031 57.921875 C 157.808594 58.167969 157.808594 58.199219 157.808594 58.257812 C 157.808594 58.382812 157.898438 58.472656 158.023438 58.472656 C 158.207031 58.472656 159.988281 57.125 161.121094 54.636719 C 162.136719 52.488281 162.351562 50.308594 162.351562 48.648438 Z M 162.351562 48.648438 "/>
<path fill-rule="nonzero" fill="rgb(50.196078%, 50.196078%, 50.196078%)" fill-opacity="1" d="M 182.085938 47.144531 C 182.394531 47.144531 182.761719 47.144531 182.761719 46.777344 C 182.761719 46.378906 182.394531 46.378906 182.117188 46.378906 L 170.390625 46.378906 C 170.113281 46.378906 169.746094 46.378906 169.746094 46.777344 C 169.746094 47.144531 170.113281 47.144531 170.390625 47.144531 Z M 182.117188 50.953125 C 182.394531 50.953125 182.761719 50.953125 182.761719 50.554688 C 182.761719 50.183594 182.394531 50.183594 182.085938 50.183594 L 170.390625 50.183594 C 170.113281 50.183594 169.746094 50.183594 169.746094 50.554688 C 169.746094 50.953125 170.113281 50.953125 170.390625 50.953125 Z M 182.117188 50.953125 "/>
<path fill-rule="nonzero" fill="rgb(50.196078%, 50.196078%, 50.196078%)" fill-opacity="1" d="M 196.066406 51.382812 C 195.910156 51.566406 195.820312 51.691406 195.632812 51.90625 C 195.203125 52.519531 194.960938 52.703125 194.746094 52.703125 C 194.46875 52.703125 194.285156 52.457031 194.128906 51.90625 C 194.101562 51.75 194.070312 51.628906 194.070312 51.566406 C 193.578125 49.570312 193.363281 48.679688 193.363281 48.40625 C 194.222656 46.871094 194.929688 46.011719 195.265625 46.011719 C 195.390625 46.011719 195.542969 46.070312 195.757812 46.164062 C 195.972656 46.316406 196.125 46.347656 196.28125 46.347656 C 196.679688 46.347656 196.953125 46.070312 196.953125 45.640625 C 196.953125 45.242188 196.617188 44.933594 196.15625 44.933594 C 195.296875 44.933594 194.558594 45.640625 193.210938 47.730469 L 192.996094 46.65625 C 192.71875 45.304688 192.503906 44.933594 191.949219 44.933594 C 191.519531 44.933594 190.875 45.089844 189.679688 45.488281 L 189.464844 45.582031 L 189.527344 45.855469 C 190.292969 45.703125 190.445312 45.640625 190.628906 45.640625 C 191.121094 45.640625 191.246094 45.824219 191.519531 46.992188 L 192.074219 49.417969 L 190.476562 51.691406 C 190.078125 52.304688 189.679688 52.640625 189.464844 52.640625 C 189.371094 52.640625 189.15625 52.578125 188.972656 52.457031 C 188.726562 52.335938 188.511719 52.273438 188.328125 52.273438 C 187.960938 52.273438 187.683594 52.550781 187.683594 52.949219 C 187.683594 53.46875 188.082031 53.777344 188.664062 53.777344 C 189.25 53.777344 189.496094 53.59375 190.476562 52.394531 C 191 51.78125 191.429688 51.257812 192.226562 50.125 L 192.839844 52.457031 C 193.085938 53.46875 193.332031 53.777344 193.976562 53.777344 C 194.714844 53.777344 195.203125 53.316406 196.339844 51.535156 Z M 196.066406 51.382812 "/>
<path fill-rule="nonzero" fill="rgb(50.196078%, 50.196078%, 50.196078%)" fill-opacity="1" d="M 199.164062 41.667969 C 200.023438 41.667969 200.363281 41.699219 200.699219 41.820312 C 201.621094 42.160156 202.171875 42.988281 202.171875 43.972656 C 202.171875 45.199219 201.34375 46.152344 200.269531 46.152344 C 199.871094 46.152344 199.59375 46.027344 199.042969 45.691406 C 198.613281 45.414062 198.367188 45.320312 198.121094 45.320312 C 197.785156 45.320312 197.570312 45.535156 197.570312 45.84375 C 197.570312 46.335938 198.214844 46.671875 199.226562 46.671875 C 200.332031 46.671875 201.46875 46.273438 202.144531 45.691406 C 202.847656 45.105469 203.21875 44.246094 203.21875 43.296875 C 203.21875 42.558594 202.972656 41.851562 202.574219 41.421875 C 202.265625 41.085938 201.988281 40.929688 201.34375 40.65625 C 202.359375 39.980469 202.726562 39.425781 202.726562 38.660156 C 202.726562 37.460938 201.804688 36.664062 200.453125 36.664062 C 199.75 36.664062 199.105469 36.910156 198.582031 37.371094 C 198.152344 37.769531 197.9375 38.136719 197.597656 38.996094 L 197.8125 39.058594 C 198.429688 38.015625 199.074219 37.523438 199.992188 37.523438 C 200.914062 37.523438 201.589844 38.167969 201.589844 39.089844 C 201.589844 39.613281 201.34375 40.132812 201.007812 40.5 C 200.578125 40.929688 200.148438 41.144531 199.164062 41.484375 Z M 199.164062 41.667969 "/>
<path fill-rule="nonzero" fill="rgb(50.196078%, 50.196078%, 50.196078%)" fill-opacity="1" d="M 220.789062 49.050781 C 221.125 49.050781 221.496094 49.050781 221.496094 48.648438 C 221.496094 48.28125 221.125 48.28125 220.789062 48.28125 L 210.195312 48.28125 C 209.859375 48.28125 209.523438 48.28125 209.523438 48.648438 C 209.523438 49.050781 209.859375 49.050781 210.195312 49.050781 Z M 220.789062 49.050781 "/>
<path fill-rule="nonzero" fill="rgb(50.196078%, 50.196078%, 50.196078%)" fill-opacity="1" d="M 233.679688 51.382812 C 233.527344 51.566406 233.433594 51.691406 233.25 51.90625 C 232.820312 52.519531 232.574219 52.703125 232.359375 52.703125 C 232.085938 52.703125 231.898438 52.457031 231.746094 51.90625 C 231.714844 51.75 231.683594 51.628906 231.683594 51.566406 C 231.195312 49.570312 230.980469 48.679688 230.980469 48.40625 C 231.839844 46.871094 232.542969 46.011719 232.882812 46.011719 C 233.003906 46.011719 233.160156 46.070312 233.375 46.164062 C 233.589844 46.316406 233.742188 46.347656 233.894531 46.347656 C 234.292969 46.347656 234.570312 46.070312 234.570312 45.640625 C 234.570312 45.242188 234.234375 44.933594 233.773438 44.933594 C 232.914062 44.933594 232.175781 45.640625 230.824219 47.730469 L 230.609375 46.65625 C 230.335938 45.304688 230.121094 44.933594 229.566406 44.933594 C 229.136719 44.933594 228.492188 45.089844 227.292969 45.488281 L 227.078125 45.582031 L 227.140625 45.855469 C 227.910156 45.703125 228.0625 45.640625 228.246094 45.640625 C 228.738281 45.640625 228.859375 45.824219 229.136719 46.992188 L 229.691406 49.417969 L 228.09375 51.691406 C 227.695312 52.304688 227.292969 52.640625 227.078125 52.640625 C 226.988281 52.640625 226.773438 52.578125 226.589844 52.457031 C 226.34375 52.335938 226.128906 52.273438 225.945312 52.273438 C 225.574219 52.273438 225.300781 52.550781 225.300781 52.949219 C 225.300781 53.46875 225.699219 53.777344 226.28125 53.777344 C 226.863281 53.777344 227.109375 53.59375 228.09375 52.394531 C 228.613281 51.78125 229.042969 51.257812 229.84375 50.125 L 230.457031 52.457031 C 230.703125 53.46875 230.949219 53.777344 231.59375 53.777344 C 232.328125 53.777344 232.820312 53.316406 233.957031 51.535156 Z M 233.679688 51.382812 "/>
<path fill-rule="nonzero" fill="rgb(50.196078%, 50.196078%, 50.196078%)" fill-opacity="1" d="M 241.449219 44.460938 L 241.265625 44.402344 C 240.742188 45.230469 240.527344 45.351562 239.882812 45.351562 L 236.414062 45.351562 L 238.871094 42.804688 C 240.160156 41.453125 240.710938 40.347656 240.710938 39.210938 C 240.710938 37.769531 239.546875 36.664062 238.042969 36.664062 C 237.242188 36.664062 236.476562 36.972656 235.953125 37.554688 C 235.492188 38.046875 235.277344 38.507812 235.03125 39.550781 L 235.339844 39.613281 C 235.890625 38.199219 236.414062 37.738281 237.425781 37.738281 C 238.65625 37.738281 239.484375 38.566406 239.484375 39.765625 C 239.484375 40.902344 238.808594 42.25 237.582031 43.539062 L 235.003906 46.273438 L 235.003906 46.457031 L 240.652344 46.457031 Z M 241.449219 44.460938 "/>
<path fill-rule="nonzero" fill="rgb(50.196078%, 50.196078%, 50.196078%)" fill-opacity="1" d="M 258.40625 49.050781 C 258.742188 49.050781 259.113281 49.050781 259.113281 48.648438 C 259.113281 48.28125 258.742188 48.28125 258.40625 48.28125 L 247.816406 48.28125 C 247.476562 48.28125 247.140625 48.28125 247.140625 48.648438 C 247.140625 49.050781 247.476562 49.050781 247.816406 49.050781 Z M 258.40625 49.050781 "/>
<path fill-rule="nonzero" fill="rgb(50.196078%, 50.196078%, 50.196078%)" fill-opacity="1" d="M 272.742188 50.890625 L 272.496094 50.769531 C 271.757812 51.90625 271.511719 52.089844 270.621094 52.089844 L 265.957031 52.089844 L 269.242188 48.621094 C 270.992188 46.808594 271.757812 45.304688 271.757812 43.800781 C 271.757812 41.835938 270.164062 40.332031 268.105469 40.332031 C 267.03125 40.332031 266.019531 40.761719 265.3125 41.527344 C 264.667969 42.203125 264.390625 42.816406 264.054688 44.230469 L 264.453125 44.320312 C 265.25 42.386719 265.957031 41.773438 267.308594 41.773438 C 268.933594 41.773438 270.070312 42.878906 270.070312 44.535156 C 270.070312 46.070312 269.148438 47.882812 267.523438 49.632812 L 264.023438 53.316406 L 264.023438 53.5625 L 271.667969 53.5625 Z M 272.742188 50.890625 "/>
<path fill-rule="nonzero" fill="rgb(50.196078%, 50.196078%, 50.196078%)" fill-opacity="1" d="M 281.085938 51.382812 C 280.929688 51.566406 280.839844 51.691406 280.65625 51.90625 C 280.226562 52.519531 279.980469 52.703125 279.765625 52.703125 C 279.488281 52.703125 279.304688 52.457031 279.152344 51.90625 C 279.121094 51.75 279.089844 51.628906 279.089844 51.566406 C 278.597656 49.570312 278.382812 48.679688 278.382812 48.40625 C 279.242188 46.871094 279.949219 46.011719 280.285156 46.011719 C 280.410156 46.011719 280.5625 46.070312 280.777344 46.164062 C 280.992188 46.316406 281.144531 46.347656 281.300781 46.347656 C 281.699219 46.347656 281.976562 46.070312 281.976562 45.640625 C 281.976562 45.242188 281.636719 44.933594 281.175781 44.933594 C 280.316406 44.933594 279.582031 45.640625 278.230469 47.730469 L 278.015625 46.65625 C 277.738281 45.304688 277.523438 44.933594 276.972656 44.933594 C 276.542969 44.933594 275.898438 45.089844 274.699219 45.488281 L 274.484375 45.582031 L 274.546875 45.855469 C 275.3125 45.703125 275.46875 45.640625 275.652344 45.640625 C 276.140625 45.640625 276.265625 45.824219 276.542969 46.992188 L 277.09375 49.417969 L 275.496094 51.691406 C 275.097656 52.304688 274.699219 52.640625 274.484375 52.640625 C 274.390625 52.640625 274.175781 52.578125 273.992188 52.457031 C 273.746094 52.335938 273.53125 52.273438 273.347656 52.273438 C 272.980469 52.273438 272.703125 52.550781 272.703125 52.949219 C 272.703125 53.46875 273.101562 53.777344 273.6875 53.777344 C 274.269531 53.777344 274.515625 53.59375 275.496094 52.394531 C 276.019531 51.78125 276.449219 51.257812 277.246094 50.125 L 277.863281 52.457031 C 278.105469 53.46875 278.351562 53.777344 278.996094 53.777344 C 279.734375 53.777344 280.226562 53.316406 281.359375 51.535156 Z M 281.085938 51.382812 "/>
<path fill-rule="nonzero" fill="rgb(50.196078%, 50.196078%, 50.196078%)" fill-opacity="1" d="M 292.707031 49.050781 L 298.171875 49.050781 C 298.449219 49.050781 298.816406 49.050781 298.816406 48.648438 C 298.816406 48.28125 298.449219 48.28125 298.171875 48.28125 L 292.707031 48.28125 L 292.707031 42.785156 C 292.707031 42.511719 292.707031 42.140625 292.308594 42.140625 C 291.910156 42.140625 291.910156 42.511719 291.910156 42.785156 L 291.910156 48.28125 L 286.445312 48.28125 C 286.167969 48.28125 285.800781 48.28125 285.800781 48.648438 C 285.800781 49.050781 286.167969 49.050781 286.445312 49.050781 L 291.910156 49.050781 L 291.910156 54.542969 C 291.910156 54.820312 291.910156 55.1875 292.308594 55.1875 C 292.707031 55.1875 292.707031 54.820312 292.707031 54.542969 Z M 292.707031 49.050781 "/>
<path fill-rule="nonzero" fill="rgb(50.196078%, 50.196078%, 50.196078%)" fill-opacity="1" d="M 311.925781 50.890625 L 311.679688 50.769531 C 310.941406 51.90625 310.695312 52.089844 309.808594 52.089844 L 305.140625 52.089844 L 308.425781 48.621094 C 310.175781 46.808594 310.941406 45.304688 310.941406 43.800781 C 310.941406 41.835938 309.347656 40.332031 307.289062 40.332031 C 306.214844 40.332031 305.203125 40.761719 304.496094 41.527344 C 303.851562 42.203125 303.574219 42.816406 303.238281 44.230469 L 303.636719 44.320312 C 304.433594 42.386719 305.140625 41.773438 306.492188 41.773438 C 308.117188 41.773438 309.253906 42.878906 309.253906 44.535156 C 309.253906 46.070312 308.332031 47.882812 306.707031 49.632812 L 303.207031 53.316406 L 303.207031 53.5625 L 310.851562 53.5625 Z M 311.925781 50.890625 "/>
</svg>
