<?xml version="1.0" encoding="UTF-8"?>
<svg xmlns="http://www.w3.org/2000/svg" xmlns:xlink="http://www.w3.org/1999/xlink" width="400" height="347.98987" viewBox="0 0 400 347.98987">
<defs>
<clipPath id="clip-0">
<path clip-rule="nonzero" d="M 79.460938 0.640625 L 399.367188 0.640625 L 399.367188 246 L 79.460938 246 Z M 79.460938 0.640625 "/>
</clipPath>
</defs>
<path fill="none" stroke-width="0.19925" stroke-linecap="butt" stroke-linejoin="miter" stroke="rgb(50.196078%, 50.196078%, 50.196078%)" stroke-opacity="1" stroke-miterlimit="10" d="M 37.420325 4.110468 L 37.420325 8.360378 M 84.193703 4.110468 L 84.193703 8.360378 " transform="matrix(3.20595, 0, 0, -3.20595, 79.465892, 320.53733)"/>
<path fill="none" stroke-width="0.19925" stroke-linecap="butt" stroke-linejoin="miter" stroke="rgb(50.196078%, 50.196078%, 50.196078%)" stroke-opacity="1" stroke-miterlimit="10" d="M 4.111899 45.212019 L 8.361809 45.212019 M 4.111899 68.598708 L 8.361809 68.598708 " transform="matrix(3.20595, 0, 0, -3.20595, 79.465892, 320.53733)"/>
<path fill="none" stroke-width="0.3985" stroke-linecap="butt" stroke-linejoin="miter" stroke="rgb(50.196078%, 50.196078%, 50.196078%)" stroke-opacity="1" stroke-miterlimit="10" d="M -0.00154548 6.235423 L 97.791465 6.235423 " transform="matrix(3.20595, 0, 0, -3.20595, 79.465892, 320.53733)"/>
<path fill-rule="nonzero" fill="rgb(50.196078%, 50.196078%, 50.196078%)" fill-opacity="1" d="M 399.367188 300.546875 L 389.148438 295.4375 L 392.980469 300.546875 L 389.148438 305.65625 "/>
<path fill="none" stroke-width="0.3985" stroke-linecap="butt" stroke-linejoin="miter" stroke="rgb(50.196078%, 50.196078%, 50.196078%)" stroke-opacity="1" stroke-miterlimit="10" d="M 6.236854 0.00189657 L 6.236854 97.790033 " transform="matrix(3.20595, 0, 0, -3.20595, 79.465892, 320.53733)"/>
<path fill-rule="nonzero" fill="rgb(50.196078%, 50.196078%, 50.196078%)" fill-opacity="1" d="M 99.460938 0.640625 L 94.351562 10.859375 L 99.460938 7.027344 L 104.570312 10.859375 "/>
<path fill-rule="nonzero" fill="rgb(50.196078%, 50.196078%, 50.196078%)" fill-opacity="1" d="M 198.453125 328.964844 C 198.199219 329.265625 198.050781 329.464844 197.75 329.816406 C 197.050781 330.816406 196.648438 331.117188 196.296875 331.117188 C 195.847656 331.117188 195.546875 330.71875 195.296875 329.816406 C 195.246094 329.566406 195.195312 329.367188 195.195312 329.265625 C 194.394531 326.007812 194.042969 324.554688 194.042969 324.105469 C 195.445312 321.601562 196.597656 320.199219 197.148438 320.199219 C 197.347656 320.199219 197.601562 320.296875 197.949219 320.449219 C 198.300781 320.699219 198.550781 320.75 198.800781 320.75 C 199.453125 320.75 199.902344 320.296875 199.902344 319.597656 C 199.902344 318.945312 199.351562 318.445312 198.601562 318.445312 C 197.199219 318.445312 195.996094 319.597656 193.792969 323.003906 L 193.441406 321.25 C 192.992188 319.046875 192.640625 318.445312 191.738281 318.445312 C 191.039062 318.445312 189.984375 318.695312 188.03125 319.347656 L 187.679688 319.496094 L 187.78125 319.949219 C 189.035156 319.699219 189.285156 319.597656 189.585938 319.597656 C 190.386719 319.597656 190.585938 319.898438 191.039062 321.800781 L 191.9375 325.757812 L 189.335938 329.464844 C 188.683594 330.46875 188.03125 331.019531 187.679688 331.019531 C 187.53125 331.019531 187.179688 330.917969 186.878906 330.71875 C 186.480469 330.515625 186.128906 330.417969 185.828125 330.417969 C 185.226562 330.417969 184.777344 330.867188 184.777344 331.519531 C 184.777344 332.371094 185.425781 332.871094 186.378906 332.871094 C 187.332031 332.871094 187.730469 332.570312 189.335938 330.617188 C 190.1875 329.617188 190.886719 328.765625 192.191406 326.910156 L 193.191406 330.71875 C 193.59375 332.371094 193.992188 332.871094 195.046875 332.871094 C 196.246094 332.871094 197.050781 332.121094 198.902344 329.214844 Z M 198.453125 328.964844 "/>
<path fill-rule="nonzero" fill="rgb(50.196078%, 50.196078%, 50.196078%)" fill-opacity="1" d="M 206.671875 321.363281 L 202.414062 323.515625 L 202.414062 323.816406 C 202.714844 323.71875 202.964844 323.617188 203.0625 323.566406 C 203.515625 323.417969 203.914062 323.316406 204.117188 323.316406 C 204.617188 323.316406 204.867188 323.667969 204.867188 324.417969 L 204.867188 335.140625 C 204.867188 335.941406 204.667969 336.492188 204.265625 336.691406 C 203.914062 336.890625 203.613281 336.941406 202.613281 336.992188 L 202.613281 337.34375 L 209.125 337.34375 L 209.125 336.992188 C 207.273438 336.941406 206.871094 336.742188 206.871094 335.589844 L 206.871094 321.414062 Z M 206.671875 321.363281 "/>
<path fill-rule="nonzero" fill="rgb(50.196078%, 50.196078%, 50.196078%)" fill-opacity="1" d="M 348.402344 328.964844 C 348.152344 329.265625 348.003906 329.464844 347.703125 329.816406 C 347 330.816406 346.601562 331.117188 346.25 331.117188 C 345.796875 331.117188 345.5 330.71875 345.246094 329.816406 C 345.199219 329.566406 345.148438 329.367188 345.148438 329.265625 C 344.347656 326.007812 343.996094 324.554688 343.996094 324.105469 C 345.398438 321.601562 346.550781 320.199219 347.101562 320.199219 C 347.300781 320.199219 347.550781 320.296875 347.902344 320.449219 C 348.253906 320.699219 348.503906 320.75 348.753906 320.75 C 349.40625 320.75 349.855469 320.296875 349.855469 319.597656 C 349.855469 318.945312 349.304688 318.445312 348.554688 318.445312 C 347.152344 318.445312 345.949219 319.597656 343.746094 323.003906 L 343.394531 321.25 C 342.941406 319.046875 342.59375 318.445312 341.691406 318.445312 C 340.988281 318.445312 339.9375 318.695312 337.984375 319.347656 L 337.632812 319.496094 L 337.734375 319.949219 C 338.984375 319.699219 339.238281 319.597656 339.535156 319.597656 C 340.339844 319.597656 340.539062 319.898438 340.988281 321.800781 L 341.890625 325.757812 L 339.285156 329.464844 C 338.636719 330.46875 337.984375 331.019531 337.632812 331.019531 C 337.484375 331.019531 337.132812 330.917969 336.832031 330.71875 C 336.429688 330.515625 336.082031 330.417969 335.78125 330.417969 C 335.179688 330.417969 334.726562 330.867188 334.726562 331.519531 C 334.726562 332.371094 335.378906 332.871094 336.332031 332.871094 C 337.28125 332.871094 337.683594 332.570312 339.285156 330.617188 C 340.136719 329.617188 340.839844 328.765625 342.140625 326.910156 L 343.144531 330.71875 C 343.542969 332.371094 343.945312 332.871094 344.996094 332.871094 C 346.199219 332.871094 347 332.121094 348.855469 329.214844 Z M 348.402344 328.964844 "/>
<path fill-rule="nonzero" fill="rgb(50.196078%, 50.196078%, 50.196078%)" fill-opacity="1" d="M 360.980469 334.089844 L 360.679688 333.988281 C 359.828125 335.34375 359.476562 335.542969 358.425781 335.542969 L 352.765625 335.542969 L 356.773438 331.386719 C 358.875 329.179688 359.777344 327.378906 359.777344 325.523438 C 359.777344 323.167969 357.875 321.367188 355.421875 321.367188 C 354.117188 321.367188 352.867188 321.867188 352.015625 322.820312 C 351.261719 323.621094 350.910156 324.371094 350.511719 326.074219 L 351.011719 326.175781 C 351.914062 323.871094 352.765625 323.121094 354.417969 323.121094 C 356.421875 323.121094 357.773438 324.472656 357.773438 326.425781 C 357.773438 328.277344 356.671875 330.484375 354.667969 332.585938 L 350.460938 337.046875 L 350.460938 337.347656 L 359.679688 337.347656 Z M 360.980469 334.089844 "/>
<path fill-rule="nonzero" fill="rgb(50.196078%, 50.196078%, 50.196078%)" fill-opacity="1" d="M 16.539062 170.894531 L 19.445312 170.894531 L 16.640625 184.320312 C 15.9375 187.777344 14.886719 189.53125 13.53125 189.53125 C 13.132812 189.53125 12.882812 189.28125 12.882812 188.980469 C 12.882812 188.929688 12.933594 188.828125 13.03125 188.628906 C 13.132812 188.480469 13.183594 188.328125 13.183594 188.128906 C 13.183594 187.476562 12.582031 186.925781 11.929688 186.925781 C 11.230469 186.925781 10.726562 187.476562 10.726562 188.226562 C 10.726562 189.332031 11.878906 190.183594 13.28125 190.183594 C 16.085938 190.183594 18.34375 187.027344 19.644531 181.164062 L 21.949219 170.894531 L 25.457031 170.894531 L 25.65625 169.894531 L 22.199219 169.894531 C 23.101562 164.886719 24.304688 162.582031 26.054688 162.582031 C 26.507812 162.582031 26.757812 162.78125 26.757812 162.980469 C 26.757812 163.082031 26.757812 163.132812 26.65625 163.332031 C 26.507812 163.582031 26.457031 163.734375 26.457031 163.984375 C 26.457031 164.734375 26.957031 165.234375 27.660156 165.234375 C 28.359375 165.234375 29.011719 164.683594 29.011719 163.984375 C 29.011719 162.78125 27.808594 161.878906 26.257812 161.878906 C 24.652344 161.878906 23.453125 162.582031 22.300781 164.082031 C 21.296875 165.335938 20.695312 166.839844 19.695312 169.894531 L 16.789062 169.894531 Z M 16.539062 170.894531 "/>
<path fill-rule="nonzero" fill="rgb(50.196078%, 50.196078%, 50.196078%)" fill-opacity="1" d="M 39.546875 191.234375 C 39.546875 191.132812 39.546875 191.082031 38.996094 190.53125 C 35.039062 186.523438 33.988281 180.464844 33.988281 175.554688 C 33.988281 169.996094 35.191406 164.433594 39.148438 160.476562 C 39.546875 160.074219 39.546875 160.027344 39.546875 159.925781 C 39.546875 159.675781 39.449219 159.574219 39.246094 159.574219 C 38.898438 159.574219 36.042969 161.777344 34.136719 165.835938 C 32.535156 169.34375 32.132812 172.898438 32.132812 175.554688 C 32.132812 178.058594 32.484375 181.917969 34.238281 185.574219 C 36.191406 189.480469 38.898438 191.585938 39.246094 191.585938 C 39.449219 191.585938 39.546875 191.484375 39.546875 191.234375 Z M 39.546875 191.234375 "/>
<path fill-rule="nonzero" fill="rgb(50.196078%, 50.196078%, 50.196078%)" fill-opacity="1" d="M 54.195312 180.011719 C 53.941406 180.3125 53.792969 180.515625 53.492188 180.863281 C 52.789062 181.867188 52.390625 182.167969 52.039062 182.167969 C 51.589844 182.167969 51.289062 181.765625 51.039062 180.863281 C 50.988281 180.613281 50.9375 180.414062 50.9375 180.3125 C 50.136719 177.058594 49.785156 175.605469 49.785156 175.152344 C 51.1875 172.648438 52.339844 171.246094 52.890625 171.246094 C 53.089844 171.246094 53.34375 171.347656 53.691406 171.496094 C 54.042969 171.746094 54.292969 171.796875 54.542969 171.796875 C 55.195312 171.796875 55.644531 171.347656 55.644531 170.644531 C 55.644531 169.996094 55.09375 169.492188 54.34375 169.492188 C 52.941406 169.492188 51.738281 170.644531 49.535156 174.050781 L 49.183594 172.296875 C 48.734375 170.09375 48.382812 169.492188 47.480469 169.492188 C 46.78125 169.492188 45.726562 169.742188 43.773438 170.394531 L 43.421875 170.546875 L 43.523438 170.996094 C 44.777344 170.746094 45.027344 170.644531 45.328125 170.644531 C 46.128906 170.644531 46.328125 170.945312 46.78125 172.847656 L 47.679688 176.808594 L 45.078125 180.515625 C 44.425781 181.515625 43.773438 182.066406 43.421875 182.066406 C 43.273438 182.066406 42.921875 181.964844 42.621094 181.765625 C 42.222656 181.566406 41.871094 181.464844 41.570312 181.464844 C 40.96875 181.464844 40.519531 181.917969 40.519531 182.566406 C 40.519531 183.417969 41.167969 183.921875 42.121094 183.921875 C 43.074219 183.921875 43.472656 183.621094 45.078125 181.664062 C 45.929688 180.664062 46.628906 179.8125 47.933594 177.960938 L 48.933594 181.765625 C 49.335938 183.417969 49.734375 183.921875 50.785156 183.921875 C 51.988281 183.921875 52.789062 183.167969 54.644531 180.261719 Z M 54.195312 180.011719 "/>
<path fill-rule="nonzero" fill="rgb(50.196078%, 50.196078%, 50.196078%)" fill-opacity="1" d="M 62.414062 172.414062 L 58.15625 174.570312 L 58.15625 174.871094 C 58.457031 174.769531 58.707031 174.667969 58.808594 174.617188 C 59.257812 174.46875 59.660156 174.367188 59.859375 174.367188 C 60.363281 174.367188 60.613281 174.71875 60.613281 175.46875 L 60.613281 186.191406 C 60.613281 186.992188 60.410156 187.542969 60.011719 187.742188 C 59.660156 187.945312 59.359375 187.992188 58.359375 188.042969 L 58.359375 188.394531 L 64.871094 188.394531 L 64.871094 188.042969 C 63.015625 187.992188 62.617188 187.792969 62.617188 186.640625 L 62.617188 172.464844 Z M 62.414062 172.414062 "/>
<path fill-rule="nonzero" fill="rgb(50.196078%, 50.196078%, 50.196078%)" fill-opacity="1" d="M 78.183594 175.554688 C 78.183594 173.101562 77.832031 169.242188 76.078125 165.585938 C 74.175781 161.679688 71.421875 159.574219 71.121094 159.574219 C 70.921875 159.574219 70.769531 159.726562 70.769531 159.925781 C 70.769531 160.027344 70.769531 160.074219 71.371094 160.675781 C 74.527344 163.832031 76.328125 168.890625 76.328125 175.554688 C 76.328125 181.066406 75.179688 186.675781 71.21875 190.683594 C 70.769531 191.082031 70.769531 191.132812 70.769531 191.234375 C 70.769531 191.433594 70.921875 191.585938 71.121094 191.585938 C 71.421875 191.585938 74.328125 189.378906 76.179688 185.324219 C 77.832031 181.816406 78.183594 178.257812 78.183594 175.554688 Z M 78.183594 175.554688 "/>
<path fill-rule="nonzero" fill="rgb(50.196078%, 50.196078%, 50.196078%)" fill-opacity="1" d="M 16.539062 95.917969 L 19.445312 95.917969 L 16.640625 109.34375 C 15.9375 112.800781 14.886719 114.554688 13.53125 114.554688 C 13.132812 114.554688 12.882812 114.300781 12.882812 114.003906 C 12.882812 113.953125 12.933594 113.851562 13.03125 113.652344 C 13.132812 113.5 13.183594 113.351562 13.183594 113.152344 C 13.183594 112.5 12.582031 111.949219 11.929688 111.949219 C 11.230469 111.949219 10.726562 112.5 10.726562 113.25 C 10.726562 114.351562 11.878906 115.203125 13.28125 115.203125 C 16.085938 115.203125 18.34375 112.046875 19.644531 106.1875 L 21.949219 95.917969 L 25.457031 95.917969 L 25.65625 94.917969 L 22.199219 94.917969 C 23.101562 89.90625 24.304688 87.601562 26.054688 87.601562 C 26.507812 87.601562 26.757812 87.804688 26.757812 88.003906 C 26.757812 88.105469 26.757812 88.152344 26.65625 88.355469 C 26.507812 88.605469 26.457031 88.753906 26.457031 89.003906 C 26.457031 89.757812 26.957031 90.257812 27.660156 90.257812 C 28.359375 90.257812 29.011719 89.707031 29.011719 89.003906 C 29.011719 87.804688 27.808594 86.902344 26.257812 86.902344 C 24.652344 86.902344 23.453125 87.601562 22.300781 89.105469 C 21.296875 90.359375 20.695312 91.859375 19.695312 94.917969 L 16.789062 94.917969 Z M 16.539062 95.917969 "/>
<path fill-rule="nonzero" fill="rgb(50.196078%, 50.196078%, 50.196078%)" fill-opacity="1" d="M 39.546875 116.257812 C 39.546875 116.15625 39.546875 116.105469 38.996094 115.554688 C 35.039062 111.546875 33.988281 105.484375 33.988281 100.578125 C 33.988281 95.015625 35.191406 89.457031 39.148438 85.5 C 39.546875 85.097656 39.546875 85.046875 39.546875 84.949219 C 39.546875 84.699219 39.449219 84.597656 39.246094 84.597656 C 38.898438 84.597656 36.042969 86.800781 34.136719 90.859375 C 32.535156 94.367188 32.132812 97.921875 32.132812 100.578125 C 32.132812 103.082031 32.484375 106.9375 34.238281 110.59375 C 36.191406 114.503906 38.898438 116.605469 39.246094 116.605469 C 39.449219 116.605469 39.546875 116.507812 39.546875 116.257812 Z M 39.546875 116.257812 "/>
<path fill-rule="nonzero" fill="rgb(50.196078%, 50.196078%, 50.196078%)" fill-opacity="1" d="M 54.195312 105.035156 C 53.941406 105.335938 53.792969 105.535156 53.492188 105.886719 C 52.789062 106.890625 52.390625 107.1875 52.039062 107.1875 C 51.589844 107.1875 51.289062 106.789062 51.039062 105.886719 C 50.988281 105.636719 50.9375 105.4375 50.9375 105.335938 C 50.136719 102.078125 49.785156 100.628906 49.785156 100.175781 C 51.1875 97.671875 52.339844 96.269531 52.890625 96.269531 C 53.089844 96.269531 53.34375 96.371094 53.691406 96.519531 C 54.042969 96.769531 54.292969 96.820312 54.542969 96.820312 C 55.195312 96.820312 55.644531 96.371094 55.644531 95.667969 C 55.644531 95.015625 55.09375 94.515625 54.34375 94.515625 C 52.941406 94.515625 51.738281 95.667969 49.535156 99.074219 L 49.183594 97.320312 C 48.734375 95.117188 48.382812 94.515625 47.480469 94.515625 C 46.78125 94.515625 45.726562 94.765625 43.773438 95.417969 L 43.421875 95.566406 L 43.523438 96.019531 C 44.777344 95.769531 45.027344 95.667969 45.328125 95.667969 C 46.128906 95.667969 46.328125 95.96875 46.78125 97.871094 L 47.679688 101.828125 L 45.078125 105.535156 C 44.425781 106.539062 43.773438 107.089844 43.421875 107.089844 C 43.273438 107.089844 42.921875 106.988281 42.621094 106.789062 C 42.222656 106.589844 41.871094 106.488281 41.570312 106.488281 C 40.96875 106.488281 40.519531 106.9375 40.519531 107.589844 C 40.519531 108.441406 41.167969 108.941406 42.121094 108.941406 C 43.074219 108.941406 43.472656 108.640625 45.078125 106.6875 C 45.929688 105.6875 46.628906 104.835938 47.933594 102.980469 L 48.933594 106.789062 C 49.335938 108.441406 49.734375 108.941406 50.785156 108.941406 C 51.988281 108.941406 52.789062 108.191406 54.644531 105.285156 Z M 54.195312 105.035156 "/>
<path fill-rule="nonzero" fill="rgb(50.196078%, 50.196078%, 50.196078%)" fill-opacity="1" d="M 66.773438 110.160156 L 66.472656 110.0625 C 65.621094 111.414062 65.269531 111.613281 64.21875 111.613281 L 58.558594 111.613281 L 62.566406 107.457031 C 64.667969 105.25 65.570312 103.449219 65.570312 101.59375 C 65.570312 99.242188 63.667969 97.4375 61.214844 97.4375 C 59.910156 97.4375 58.660156 97.9375 57.808594 98.890625 C 57.054688 99.691406 56.703125 100.441406 56.304688 102.144531 L 56.804688 102.246094 C 57.707031 99.941406 58.558594 99.191406 60.210938 99.191406 C 62.214844 99.191406 63.566406 100.542969 63.566406 102.496094 C 63.566406 104.351562 62.464844 106.554688 60.460938 108.65625 L 56.253906 113.117188 L 56.253906 113.417969 L 65.472656 113.417969 Z M 66.773438 110.160156 "/>
<path fill-rule="nonzero" fill="rgb(50.196078%, 50.196078%, 50.196078%)" fill-opacity="1" d="M 78.183594 100.578125 C 78.183594 98.121094 77.832031 94.265625 76.078125 90.609375 C 74.175781 86.703125 71.421875 84.597656 71.121094 84.597656 C 70.921875 84.597656 70.769531 84.746094 70.769531 84.949219 C 70.769531 85.046875 70.769531 85.097656 71.371094 85.699219 C 74.527344 88.855469 76.328125 93.914062 76.328125 100.578125 C 76.328125 106.085938 75.179688 111.699219 71.21875 115.707031 C 70.769531 116.105469 70.769531 116.15625 70.769531 116.257812 C 70.769531 116.457031 70.921875 116.605469 71.121094 116.605469 C 71.421875 116.605469 74.328125 114.402344 76.179688 110.34375 C 77.832031 106.839844 78.183594 103.28125 78.183594 100.578125 Z M 78.183594 100.578125 "/>
<path fill="none" stroke-width="0.3985" stroke-linecap="butt" stroke-linejoin="miter" stroke="rgb(69.803922%, 69.803922%, 69.803922%)" stroke-opacity="1" stroke-dasharray="2.98883 2.98883" stroke-miterlimit="10" d="M 6.236854 45.212019 L 37.420325 45.212019 L 37.420325 6.235423 " transform="matrix(3.20595, 0, 0, -3.20595, 79.465892, 320.53733)"/>
<path fill="none" stroke-width="0.3985" stroke-linecap="butt" stroke-linejoin="miter" stroke="rgb(69.803922%, 69.803922%, 69.803922%)" stroke-opacity="1" stroke-dasharray="2.98883 2.98883" stroke-miterlimit="10" d="M 6.236854 68.598708 L 84.193703 68.598708 L 84.193703 6.235423 " transform="matrix(3.20595, 0, 0, -3.20595, 79.465892, 320.53733)"/>
<g clip-path="url(#clip-0)">
<path fill="none" stroke-width="0.99628" stroke-linecap="butt" stroke-linejoin="miter" stroke="rgb(6.666667%, 52.941176%, 87.058824%)" stroke-opacity="1" stroke-miterlimit="10" d="M 12.475254 90.118751 L 13.291607 88.009636 L 14.111616 85.943166 L 14.927969 83.922996 L 15.747977 81.943035 L 16.567986 80.009375 L 17.384339 78.114705 L 18.205566 76.267554 L 19.025574 74.458174 L 19.841927 72.696313 L 20.661936 70.974661 L 21.481944 69.298091 L 22.299516 67.665385 L 23.119524 66.071669 L 23.939533 64.525472 L 24.755886 63.017046 L 25.575894 61.55614 L 26.392247 60.137878 L 27.213474 58.759826 L 28.033482 57.426855 L 28.849836 56.134093 L 29.669844 54.88885 L 30.489852 53.685033 L 31.306206 52.521426 L 32.127432 51.404118 L 32.947441 50.329457 L 33.763794 49.298658 L 34.583802 48.305632 L 35.400155 47.361343 L 36.221382 46.458481 L 37.041391 45.599482 L 37.857744 44.779474 L 38.677752 44.005766 L 39.497761 43.274704 L 40.314114 42.587505 L 41.135341 41.942951 L 41.955349 41.337388 L 42.771702 40.779344 L 43.591711 40.262726 L 44.411719 39.791191 L 45.228072 39.361082 L 46.049299 38.973619 L 46.865652 38.63002 L 47.685661 38.329066 L 48.505669 38.06832 L 49.322022 37.852657 L 50.143249 37.680857 L 50.963257 37.552921 L 51.77961 37.466412 L 52.599619 37.423767 L 53.419627 37.423767 L 54.23598 37.466412 L 55.057207 37.552921 L 55.87356 37.680857 L 56.693569 37.852657 L 57.513577 38.06832 L 58.32993 38.325411 L 59.149939 38.626365 L 59.971166 38.969964 L 60.787519 39.361082 L 61.607527 39.791191 L 62.427536 40.262726 L 63.243889 40.779344 L 64.065116 41.337388 L 64.885124 41.939296 L 65.701477 42.58385 L 66.521486 43.271048 L 67.337839 44.005766 L 68.157847 44.779474 L 68.979074 45.595827 L 69.795427 46.454825 L 70.615435 47.356469 L 71.435444 48.305632 L 72.251797 49.295003 L 73.071805 50.325801 L 73.893032 51.400463 L 74.709385 52.521426 L 75.529394 53.681378 L 76.349402 54.883976 L 77.165755 56.134093 L 77.986982 57.4232 L 78.803335 58.754952 L 79.623344 60.134223 L 80.443352 61.552484 L 81.259705 63.013391 L 82.079714 64.520598 L 82.900941 66.068013 L 83.717294 67.66173 L 84.537302 69.294436 L 85.35731 70.969787 L 86.173664 72.692658 L 86.993672 74.454519 L 87.811244 76.26268 L 88.631252 78.11105 L 89.45126 80.00572 L 90.267614 81.93938 L 91.087622 83.919341 L 91.908849 85.93951 L 92.725202 88.00598 L 93.54521 90.11144 " transform="matrix(3.20595, 0, 0, -3.20595, 79.465892, 320.53733)"/>
</g>
<path fill="none" stroke-width="1.19553" stroke-linecap="butt" stroke-linejoin="miter" stroke="rgb(100%, 12.941176%, 32.156863%)" stroke-opacity="1" stroke-miterlimit="10" d="M 42.552383 47.779267 L 79.060426 66.036334 " transform="matrix(3.20595, 0, 0, -3.20595, 79.465892, 320.53733)"/>
<path fill-rule="nonzero" fill="rgb(100%, 12.941176%, 32.156863%)" fill-opacity="1" d="M 199.433594 175.589844 C 204.753906 174.0625 214.058594 172.847656 221.136719 173.296875 L 214.285156 159.582031 C 210.402344 165.53125 203.839844 172.230469 199.433594 175.589844 "/>
<path fill-rule="nonzero" fill="rgb(100%, 12.941176%, 32.156863%)" fill-opacity="1" d="M 349.386719 100.613281 C 344.050781 102.128906 334.757812 103.355469 327.671875 102.890625 L 334.535156 116.605469 C 338.414062 110.65625 344.964844 103.957031 349.386719 100.613281 "/>
</svg>
