<?xml version="1.0" encoding="UTF-8"?>
<svg xmlns="http://www.w3.org/2000/svg" xmlns:xlink="http://www.w3.org/1999/xlink" width="400" height="302.324353" viewBox="0 0 400 302.324353">
<defs>
<clipPath id="clip-0">
<path clip-rule="nonzero" d="M 20.007812 60 L 387.609375 60 L 387.609375 269.175781 L 20.007812 269.175781 Z M 20.007812 60 "/>
</clipPath>
</defs>
<path fill="none" stroke-width="0.09962" stroke-linecap="butt" stroke-linejoin="miter" stroke="rgb(69.803922%, 69.803922%, 69.803922%)" stroke-opacity="1" stroke-dasharray="2.98883 2.98883" stroke-miterlimit="10" d="M 0.00117607 0.000862314 L 0.00117607 124.72986 M 31.18094 0.000862314 L 31.18094 124.72986 M 62.364681 0.000862314 L 62.364681 124.72986 M 124.728186 0.000862314 L 124.728186 124.72986 M 155.911926 0.000862314 L 155.911926 124.72986 M 187.095667 0.000862314 L 187.095667 124.72986 " transform="matrix(1.964791, 0, 0, -1.964791, 20.005502, 287.458726)"/>
<path fill="none" stroke-width="0.09962" stroke-linecap="butt" stroke-linejoin="miter" stroke="rgb(69.803922%, 69.803922%, 69.803922%)" stroke-opacity="1" stroke-dasharray="2.98883 2.98883" stroke-miterlimit="10" d="M 0.00117607 0.000862314 L 187.095667 0.000862314 M 0.00117607 31.184603 L 187.095667 31.184603 M 0.00117607 93.548108 L 187.095667 93.548108 M 0.00117607 124.72986 L 187.095667 124.72986 " transform="matrix(1.964791, 0, 0, -1.964791, 20.005502, 287.458726)"/>
<path fill="none" stroke-width="0.19925" stroke-linecap="butt" stroke-linejoin="miter" stroke="rgb(50.196078%, 50.196078%, 50.196078%)" stroke-opacity="1" stroke-miterlimit="10" d="M 0.00117607 60.239062 L 0.00117607 64.487685 M 31.18094 60.239062 L 31.18094 64.487685 M 62.364681 60.239062 L 62.364681 64.487685 M 124.728186 60.239062 L 124.728186 64.487685 M 155.911926 60.239062 L 155.911926 64.487685 M 187.095667 60.239062 L 187.095667 64.487685 " transform="matrix(1.964791, 0, 0, -1.964791, 20.005502, 287.458726)"/>
<path fill="none" stroke-width="0.19925" stroke-linecap="butt" stroke-linejoin="miter" stroke="rgb(50.196078%, 50.196078%, 50.196078%)" stroke-opacity="1" stroke-miterlimit="10" d="M 91.41914 0.000862314 L 95.673727 0.000862314 M 91.41914 31.184603 L 95.673727 31.184603 M 91.41914 93.548108 L 95.673727 93.548108 M 91.41914 124.72986 L 95.673727 124.72986 " transform="matrix(1.964791, 0, 0, -1.964791, 20.005502, 287.458726)"/>
<path fill="none" stroke-width="0.3985" stroke-linecap="butt" stroke-linejoin="miter" stroke="rgb(50.196078%, 50.196078%, 50.196078%)" stroke-opacity="1" stroke-miterlimit="10" d="M 0.00117607 62.364367 L 185.103566 62.364367 " transform="matrix(1.964791, 0, 0, -1.964791, 20.005502, 287.458726)"/>
<path fill-rule="nonzero" fill="rgb(50.196078%, 50.196078%, 50.196078%)" fill-opacity="1" d="M 387.609375 164.925781 L 381.339844 161.796875 L 383.695312 164.925781 L 381.339844 168.058594 "/>
<path fill="none" stroke-width="0.3985" stroke-linecap="butt" stroke-linejoin="miter" stroke="rgb(50.196078%, 50.196078%, 50.196078%)" stroke-opacity="1" stroke-miterlimit="10" d="M 93.548422 0.000862314 L 93.548422 122.737759 " transform="matrix(1.964791, 0, 0, -1.964791, 20.005502, 287.458726)"/>
<path fill-rule="nonzero" fill="rgb(50.196078%, 50.196078%, 50.196078%)" fill-opacity="1" d="M 203.808594 42.390625 L 200.675781 48.660156 L 203.808594 46.304688 L 206.941406 48.660156 "/>
<path fill-rule="nonzero" fill="rgb(50.196078%, 50.196078%, 50.196078%)" fill-opacity="1" d="M 20.402344 184.601562 C 20.738281 184.601562 21.109375 184.601562 21.109375 184.199219 C 21.109375 183.832031 20.738281 183.832031 20.402344 183.832031 L 9.808594 183.832031 C 9.472656 183.832031 9.132812 183.832031 9.132812 184.199219 C 9.132812 184.601562 9.472656 184.601562 9.808594 184.601562 Z M 20.402344 184.601562 "/>
<path fill-rule="nonzero" fill="rgb(50.196078%, 50.196078%, 50.196078%)" fill-opacity="1" d="M 25.722656 182.636719 C 26.859375 182.636719 27.320312 182.695312 27.78125 182.851562 C 29.007812 183.3125 29.777344 184.414062 29.777344 185.765625 C 29.777344 187.394531 28.640625 188.683594 27.195312 188.683594 C 26.675781 188.683594 26.277344 188.53125 25.570312 188.070312 C 24.957031 187.730469 24.648438 187.578125 24.3125 187.578125 C 23.851562 187.578125 23.542969 187.855469 23.542969 188.285156 C 23.542969 188.960938 24.402344 189.390625 25.785156 189.390625 C 27.289062 189.390625 28.824219 188.867188 29.746094 188.070312 C 30.667969 187.269531 31.1875 186.136719 31.1875 184.816406 C 31.1875 183.832031 30.851562 182.910156 30.296875 182.296875 C 29.898438 181.867188 29.53125 181.621094 28.671875 181.253906 C 30.023438 180.332031 30.511719 179.625 30.511719 178.550781 C 30.511719 176.957031 29.253906 175.882812 27.441406 175.882812 C 26.460938 175.882812 25.601562 176.21875 24.894531 176.832031 C 24.3125 177.355469 24.035156 177.875 23.605469 179.042969 L 23.882812 179.136719 C 24.679688 177.691406 25.570312 177.046875 26.796875 177.046875 C 28.085938 177.046875 28.976562 177.90625 28.976562 179.136719 C 28.976562 179.839844 28.671875 180.546875 28.179688 181.039062 C 27.597656 181.621094 27.042969 181.929688 25.722656 182.390625 Z M 25.722656 182.636719 "/>
<path fill-rule="nonzero" fill="rgb(50.196078%, 50.196078%, 50.196078%)" fill-opacity="1" d="M 81.664062 184.601562 C 82.003906 184.601562 82.371094 184.601562 82.371094 184.199219 C 82.371094 183.832031 82.003906 183.832031 81.664062 183.832031 L 71.074219 183.832031 C 70.738281 183.832031 70.398438 183.832031 70.398438 184.199219 C 70.398438 184.601562 70.738281 184.601562 71.074219 184.601562 Z M 81.664062 184.601562 "/>
<path fill-rule="nonzero" fill="rgb(50.196078%, 50.196078%, 50.196078%)" fill-opacity="1" d="M 93.28125 186.441406 L 93.039062 186.320312 C 92.300781 187.457031 92.054688 187.640625 91.164062 187.640625 L 86.5 187.640625 L 89.785156 184.171875 C 91.535156 182.359375 92.300781 180.855469 92.300781 179.351562 C 92.300781 177.386719 90.703125 175.882812 88.648438 175.882812 C 87.574219 175.882812 86.558594 176.3125 85.855469 177.078125 C 85.210938 177.753906 84.933594 178.367188 84.59375 179.78125 L 84.996094 179.871094 C 85.792969 177.9375 86.5 177.324219 87.847656 177.324219 C 89.476562 177.324219 90.613281 178.429688 90.613281 180.085938 C 90.613281 181.621094 89.691406 183.433594 88.0625 185.183594 L 84.5625 188.867188 L 84.5625 189.113281 L 92.207031 189.113281 Z M 93.28125 186.441406 "/>
<path fill-rule="nonzero" fill="rgb(50.196078%, 50.196078%, 50.196078%)" fill-opacity="1" d="M 142.933594 184.601562 C 143.269531 184.601562 143.636719 184.601562 143.636719 184.199219 C 143.636719 183.832031 143.269531 183.832031 142.933594 183.832031 L 132.339844 183.832031 C 132.003906 183.832031 131.664062 183.832031 131.664062 184.199219 C 131.664062 184.601562 132.003906 184.601562 132.339844 184.601562 Z M 142.933594 184.601562 "/>
<path fill-rule="nonzero" fill="rgb(50.196078%, 50.196078%, 50.196078%)" fill-opacity="1" d="M 150.957031 175.882812 L 147.425781 177.660156 L 147.425781 177.9375 C 147.640625 177.847656 147.855469 177.753906 147.949219 177.722656 C 148.316406 177.570312 148.625 177.507812 148.839844 177.507812 C 149.238281 177.507812 149.421875 177.785156 149.421875 178.429688 L 149.421875 187.300781 C 149.421875 187.945312 149.269531 188.375 148.960938 188.558594 C 148.65625 188.746094 148.378906 188.804688 147.550781 188.804688 L 147.550781 189.113281 L 152.953125 189.113281 L 152.953125 188.804688 C 151.417969 188.804688 151.109375 188.589844 151.109375 187.671875 L 151.109375 175.914062 Z M 150.957031 175.882812 "/>
<path fill-rule="nonzero" fill="rgb(50.196078%, 50.196078%, 50.196078%)" fill-opacity="1" d="M 265.886719 175.882812 L 262.355469 177.660156 L 262.355469 177.9375 C 262.570312 177.847656 262.785156 177.753906 262.878906 177.722656 C 263.246094 177.570312 263.550781 177.507812 263.765625 177.507812 C 264.167969 177.507812 264.351562 177.785156 264.351562 178.429688 L 264.351562 187.300781 C 264.351562 187.945312 264.199219 188.375 263.890625 188.558594 C 263.582031 188.746094 263.308594 188.804688 262.476562 188.804688 L 262.476562 189.113281 L 267.882812 189.113281 L 267.882812 188.804688 C 266.347656 188.804688 266.039062 188.589844 266.039062 187.671875 L 266.039062 175.914062 Z M 265.886719 175.882812 "/>
<path fill-rule="nonzero" fill="rgb(50.196078%, 50.196078%, 50.196078%)" fill-opacity="1" d="M 330.742188 186.441406 L 330.496094 186.320312 C 329.757812 187.457031 329.515625 187.640625 328.625 187.640625 L 323.957031 187.640625 L 327.242188 184.171875 C 328.992188 182.359375 329.757812 180.855469 329.757812 179.351562 C 329.757812 177.386719 328.164062 175.882812 326.105469 175.882812 C 325.03125 175.882812 324.019531 176.3125 323.3125 177.078125 C 322.667969 177.753906 322.390625 178.367188 322.054688 179.78125 L 322.453125 179.871094 C 323.25 177.9375 323.957031 177.324219 325.308594 177.324219 C 326.933594 177.324219 328.070312 178.429688 328.070312 180.085938 C 328.070312 181.621094 327.148438 183.433594 325.523438 185.183594 L 322.023438 188.867188 L 322.023438 189.113281 L 329.667969 189.113281 Z M 330.742188 186.441406 "/>
<path fill-rule="nonzero" fill="rgb(50.196078%, 50.196078%, 50.196078%)" fill-opacity="1" d="M 385.714844 182.636719 C 386.851562 182.636719 387.3125 182.695312 387.769531 182.851562 C 389 183.3125 389.765625 184.414062 389.765625 185.765625 C 389.765625 187.394531 388.632812 188.683594 387.1875 188.683594 C 386.667969 188.683594 386.265625 188.53125 385.5625 188.070312 C 384.945312 187.730469 384.640625 187.578125 384.300781 187.578125 C 383.84375 187.578125 383.535156 187.855469 383.535156 188.285156 C 383.535156 188.960938 384.394531 189.390625 385.777344 189.390625 C 387.28125 189.390625 388.816406 188.867188 389.734375 188.070312 C 390.65625 187.269531 391.179688 186.136719 391.179688 184.816406 C 391.179688 183.832031 390.839844 182.910156 390.289062 182.296875 C 389.890625 181.867188 389.519531 181.621094 388.660156 181.253906 C 390.011719 180.332031 390.503906 179.625 390.503906 178.550781 C 390.503906 176.957031 389.246094 175.882812 387.433594 175.882812 C 386.453125 175.882812 385.589844 176.21875 384.886719 176.832031 C 384.300781 177.355469 384.027344 177.875 383.597656 179.042969 L 383.871094 179.136719 C 384.671875 177.691406 385.5625 177.046875 386.789062 177.046875 C 388.078125 177.046875 388.96875 177.90625 388.96875 179.136719 C 388.96875 179.839844 388.660156 180.546875 388.171875 181.039062 C 387.585938 181.621094 387.035156 181.929688 385.714844 182.390625 Z M 385.714844 182.636719 "/>
<path fill-rule="nonzero" fill="rgb(50.196078%, 50.196078%, 50.196078%)" fill-opacity="1" d="M 180.605469 288.679688 C 180.945312 288.679688 181.3125 288.679688 181.3125 288.28125 C 181.3125 287.914062 180.945312 287.914062 180.605469 287.914062 L 170.015625 287.914062 C 169.675781 287.914062 169.339844 287.914062 169.339844 288.28125 C 169.339844 288.679688 169.675781 288.679688 170.015625 288.679688 Z M 180.605469 288.679688 "/>
<path fill-rule="nonzero" fill="rgb(50.196078%, 50.196078%, 50.196078%)" fill-opacity="1" d="M 192.222656 290.523438 L 191.976562 290.398438 C 191.242188 291.535156 190.996094 291.71875 190.105469 291.71875 L 185.4375 291.71875 L 188.722656 288.25 C 190.472656 286.441406 191.242188 284.9375 191.242188 283.429688 C 191.242188 281.464844 189.644531 279.960938 187.589844 279.960938 C 186.515625 279.960938 185.5 280.390625 184.792969 281.160156 C 184.148438 281.835938 183.875 282.449219 183.535156 283.859375 L 183.933594 283.953125 C 184.734375 282.019531 185.4375 281.40625 186.789062 281.40625 C 188.417969 281.40625 189.554688 282.511719 189.554688 284.167969 C 189.554688 285.703125 188.632812 287.515625 187.003906 289.265625 L 183.503906 292.949219 L 183.503906 293.195312 L 191.148438 293.195312 Z M 192.222656 290.523438 "/>
<path fill-rule="nonzero" fill="rgb(50.196078%, 50.196078%, 50.196078%)" fill-opacity="1" d="M 180.605469 227.414062 C 180.945312 227.414062 181.3125 227.414062 181.3125 227.015625 C 181.3125 226.648438 180.945312 226.648438 180.605469 226.648438 L 170.015625 226.648438 C 169.675781 226.648438 169.339844 226.648438 169.339844 227.015625 C 169.339844 227.414062 169.675781 227.414062 170.015625 227.414062 Z M 180.605469 227.414062 "/>
<path fill-rule="nonzero" fill="rgb(50.196078%, 50.196078%, 50.196078%)" fill-opacity="1" d="M 188.632812 218.695312 L 185.101562 220.476562 L 185.101562 220.753906 C 185.316406 220.660156 185.53125 220.570312 185.625 220.539062 C 185.992188 220.382812 186.300781 220.324219 186.515625 220.324219 C 186.914062 220.324219 187.097656 220.597656 187.097656 221.246094 L 187.097656 230.117188 C 187.097656 230.761719 186.945312 231.191406 186.636719 231.375 C 186.328125 231.558594 186.054688 231.621094 185.222656 231.621094 L 185.222656 231.929688 L 190.628906 231.929688 L 190.628906 231.621094 C 189.09375 231.621094 188.785156 231.40625 188.785156 230.484375 L 188.785156 218.726562 Z M 188.632812 218.695312 "/>
<path fill-rule="nonzero" fill="rgb(50.196078%, 50.196078%, 50.196078%)" fill-opacity="1" d="M 188.632812 96.976562 L 185.101562 98.757812 L 185.101562 99.03125 C 185.316406 98.941406 185.53125 98.847656 185.625 98.816406 C 185.992188 98.664062 186.300781 98.601562 186.515625 98.601562 C 186.914062 98.601562 187.097656 98.878906 187.097656 99.523438 L 187.097656 108.394531 C 187.097656 109.039062 186.945312 109.46875 186.636719 109.65625 C 186.328125 109.839844 186.054688 109.898438 185.222656 109.898438 L 185.222656 110.207031 L 190.628906 110.207031 L 190.628906 109.898438 C 189.09375 109.898438 188.785156 109.683594 188.785156 108.765625 L 188.785156 97.007812 Z M 188.632812 96.976562 "/>
<path fill-rule="nonzero" fill="rgb(50.196078%, 50.196078%, 50.196078%)" fill-opacity="1" d="M 192.222656 46.269531 L 191.976562 46.148438 C 191.242188 47.28125 190.996094 47.46875 190.105469 47.46875 L 185.4375 47.46875 L 188.722656 44 C 190.472656 42.1875 191.242188 40.683594 191.242188 39.179688 C 191.242188 37.214844 189.644531 35.710938 187.589844 35.710938 C 186.515625 35.710938 185.5 36.140625 184.792969 36.90625 C 184.148438 37.582031 183.875 38.195312 183.535156 39.609375 L 183.933594 39.699219 C 184.734375 37.765625 185.4375 37.152344 186.789062 37.152344 C 188.417969 37.152344 189.554688 38.257812 189.554688 39.914062 C 189.554688 41.449219 188.632812 43.261719 187.003906 45.011719 L 183.503906 48.695312 L 183.503906 48.941406 L 191.148438 48.941406 Z M 192.222656 46.269531 "/>
<g clip-path="url(#clip-0)">
<path fill="none" stroke-width="0.99628" stroke-linecap="butt" stroke-linejoin="miter" stroke="rgb(6.666667%, 52.941176%, 87.058824%)" stroke-opacity="1" stroke-miterlimit="10" d="M 0.00117607 23.418987 L 1.887907 23.609847 L 3.778614 23.808659 L 5.66932 24.015424 L 7.560027 24.234118 L 9.450734 24.456788 L 11.337465 24.691387 L 13.228172 24.933938 L 15.118879 25.184442 L 17.009585 25.448862 L 18.896316 25.723224 L 20.787023 26.007525 L 22.67773 26.30972 L 24.568437 26.625832 L 26.459144 26.949897 L 28.345874 27.297819 L 30.236581 27.655681 L 32.127288 28.031437 L 34.017995 28.433038 L 35.908702 28.848556 L 37.795432 29.28992 L 39.686139 29.751165 L 41.574858 30.234279 L 43.465565 30.751192 L 45.356272 31.29395 L 47.243002 31.86653 L 49.133709 32.476884 L 51.024416 33.11706 L 52.915123 33.796999 L 54.801853 34.520677 L 56.69256 35.286105 L 58.583267 36.09726 L 60.473974 36.962094 L 62.364681 37.874643 L 64.251412 38.848825 L 66.142118 39.88265 L 68.032825 40.980095 L 69.923532 42.149112 L 71.814239 43.383738 L 73.70097 44.691924 L 75.591677 46.073671 L 77.482383 47.530967 L 79.37309 49.059835 L 81.259821 50.660275 L 83.150528 52.328312 L 85.041235 54.057981 L 86.931942 55.843317 L 88.822648 57.672392 L 90.709379 59.535265 L 92.600086 61.41802 L 94.490793 63.308727 L 96.379512 65.187505 L 98.270218 67.050378 L 100.156949 68.879453 L 102.047656 70.664789 L 103.938363 72.394458 L 105.82907 74.062495 L 107.719777 75.664923 L 109.606507 77.19578 L 111.497214 78.653075 L 113.387921 80.034822 L 115.278628 81.344997 L 117.165358 82.577634 L 119.056065 83.746652 L 120.946772 84.844097 L 122.837479 85.87991 L 124.728186 86.852103 L 126.614916 87.76664 L 128.505623 88.633463 L 130.39633 89.44263 L 132.287037 90.208058 L 134.177744 90.929747 L 136.064475 91.613662 L 137.955181 92.253838 L 139.845888 92.860217 L 141.736595 93.434785 L 143.627302 93.977543 L 145.514033 94.492467 L 147.40474 94.981546 L 149.295446 95.440803 L 151.186153 95.880178 L 153.072884 96.297685 L 154.961603 96.691333 L 156.85231 97.075042 L 158.743016 97.434892 L 160.633723 97.77685 L 162.520454 98.10489 L 164.411161 98.419014 L 166.301868 98.719221 L 168.192575 99.003523 L 170.083281 99.277884 L 171.970012 99.542305 L 173.860719 99.796785 L 175.751426 100.039336 L 177.642133 100.269958 L 179.532839 100.496605 L 181.41957 100.711322 L 183.310277 100.918087 L 185.200984 101.1169 L 187.091691 101.313724 " transform="matrix(1.964791, 0, 0, -1.964791, 20.005502, 287.458726)"/>
</g>
<path fill="none" stroke-width="0.3985" stroke-linecap="butt" stroke-linejoin="miter" stroke="rgb(50.196078%, 50.196078%, 50.196078%)" stroke-opacity="1" stroke-miterlimit="10" d="M 47.922941 128.668336 L 139.169926 128.668336 L 139.169926 145.605173 L 47.922941 145.605173 Z M 47.922941 128.668336 " transform="matrix(1.964791, 0, 0, -1.964791, 20.005502, 287.458726)"/>
<path fill="none" stroke-width="0.99628" stroke-linecap="butt" stroke-linejoin="miter" stroke="rgb(6.666667%, 52.941176%, 87.058824%)" stroke-opacity="1" stroke-miterlimit="10" d="M 0.00210146 0.000755863 L 17.010511 0.000755863 " transform="matrix(1.964791, 0, 0, -1.964791, 121.015402, 18.013204)"/>
<path fill-rule="nonzero" fill="rgb(50.196078%, 50.196078%, 50.196078%)" fill-opacity="1" d="M 162.9375 16.117188 L 164.71875 16.117188 L 163 24.347656 C 162.570312 26.464844 161.925781 27.539062 161.09375 27.539062 C 160.851562 27.539062 160.695312 27.386719 160.695312 27.203125 C 160.695312 27.171875 160.726562 27.109375 160.789062 26.988281 C 160.851562 26.894531 160.878906 26.800781 160.878906 26.679688 C 160.878906 26.28125 160.511719 25.941406 160.113281 25.941406 C 159.683594 25.941406 159.375 26.28125 159.375 26.742188 C 159.375 27.417969 160.082031 27.9375 160.941406 27.9375 C 162.660156 27.9375 164.042969 26.003906 164.839844 22.414062 L 166.253906 16.117188 L 168.402344 16.117188 L 168.523438 15.503906 L 166.40625 15.503906 C 166.960938 12.433594 167.695312 11.023438 168.769531 11.023438 C 169.046875 11.023438 169.199219 11.144531 169.199219 11.269531 C 169.199219 11.328125 169.199219 11.359375 169.140625 11.484375 C 169.046875 11.636719 169.015625 11.730469 169.015625 11.882812 C 169.015625 12.34375 169.324219 12.648438 169.753906 12.648438 C 170.183594 12.648438 170.582031 12.3125 170.582031 11.882812 C 170.582031 11.144531 169.84375 10.59375 168.894531 10.59375 C 167.910156 10.59375 167.175781 11.023438 166.46875 11.945312 C 165.855469 12.710938 165.484375 13.632812 164.871094 15.503906 L 163.089844 15.503906 Z M 162.9375 16.117188 "/>
<path fill-rule="nonzero" fill="rgb(50.196078%, 50.196078%, 50.196078%)" fill-opacity="1" d="M 177.039062 28.582031 C 177.039062 28.523438 177.039062 28.492188 176.703125 28.152344 C 174.277344 25.695312 173.632812 21.984375 173.632812 18.972656 C 173.632812 15.566406 174.367188 12.160156 176.792969 9.734375 C 177.039062 9.488281 177.039062 9.457031 177.039062 9.394531 C 177.039062 9.242188 176.976562 9.179688 176.855469 9.179688 C 176.640625 9.179688 174.890625 10.53125 173.722656 13.019531 C 172.742188 15.167969 172.496094 17.347656 172.496094 18.972656 C 172.496094 20.507812 172.710938 22.871094 173.785156 25.113281 C 174.980469 27.507812 176.640625 28.796875 176.855469 28.796875 C 176.976562 28.796875 177.039062 28.738281 177.039062 28.582031 Z M 177.039062 28.582031 "/>
<path fill-rule="nonzero" fill="rgb(50.196078%, 50.196078%, 50.196078%)" fill-opacity="1" d="M 186.015625 21.707031 C 185.863281 21.890625 185.769531 22.011719 185.585938 22.226562 C 185.15625 22.84375 184.910156 23.027344 184.695312 23.027344 C 184.421875 23.027344 184.234375 22.78125 184.082031 22.226562 C 184.050781 22.074219 184.019531 21.953125 184.019531 21.890625 C 183.53125 19.894531 183.316406 19.003906 183.316406 18.726562 C 184.175781 17.195312 184.878906 16.332031 185.21875 16.332031 C 185.339844 16.332031 185.496094 16.394531 185.710938 16.488281 C 185.925781 16.640625 186.078125 16.671875 186.230469 16.671875 C 186.628906 16.671875 186.90625 16.394531 186.90625 15.964844 C 186.90625 15.566406 186.570312 15.257812 186.109375 15.257812 C 185.25 15.257812 184.511719 15.964844 183.160156 18.054688 L 182.945312 16.976562 C 182.671875 15.628906 182.457031 15.257812 181.902344 15.257812 C 181.472656 15.257812 180.828125 15.414062 179.632812 15.8125 L 179.417969 15.902344 L 179.476562 16.179688 C 180.246094 16.027344 180.398438 15.964844 180.582031 15.964844 C 181.074219 15.964844 181.195312 16.148438 181.472656 17.316406 L 182.027344 19.742188 L 180.429688 22.011719 C 180.03125 22.628906 179.632812 22.964844 179.417969 22.964844 C 179.324219 22.964844 179.109375 22.902344 178.925781 22.78125 C 178.679688 22.65625 178.464844 22.597656 178.28125 22.597656 C 177.910156 22.597656 177.636719 22.871094 177.636719 23.273438 C 177.636719 23.792969 178.035156 24.101562 178.617188 24.101562 C 179.203125 24.101562 179.445312 23.917969 180.429688 22.71875 C 180.949219 22.105469 181.382812 21.582031 182.179688 20.449219 L 182.792969 22.78125 C 183.039062 23.792969 183.285156 24.101562 183.929688 24.101562 C 184.664062 24.101562 185.15625 23.640625 186.292969 21.859375 Z M 186.015625 21.707031 "/>
<path fill-rule="nonzero" fill="rgb(50.196078%, 50.196078%, 50.196078%)" fill-opacity="1" d="M 192.554688 18.972656 C 192.554688 17.46875 192.339844 15.105469 191.265625 12.863281 C 190.097656 10.46875 188.410156 9.179688 188.226562 9.179688 C 188.105469 9.179688 188.011719 9.273438 188.011719 9.394531 C 188.011719 9.457031 188.011719 9.488281 188.378906 9.855469 C 190.3125 11.789062 191.417969 14.890625 191.417969 18.972656 C 191.417969 22.351562 190.714844 25.789062 188.289062 28.246094 C 188.011719 28.492188 188.011719 28.523438 188.011719 28.582031 C 188.011719 28.707031 188.105469 28.796875 188.226562 28.796875 C 188.410156 28.796875 190.191406 27.445312 191.328125 24.960938 C 192.339844 22.8125 192.554688 20.632812 192.554688 18.972656 Z M 192.554688 18.972656 "/>
<path fill-rule="nonzero" fill="rgb(50.196078%, 50.196078%, 50.196078%)" fill-opacity="1" d="M 212.292969 17.46875 C 212.597656 17.46875 212.96875 17.46875 212.96875 17.101562 C 212.96875 16.703125 212.597656 16.703125 212.324219 16.703125 L 200.59375 16.703125 C 200.320312 16.703125 199.949219 16.703125 199.949219 17.101562 C 199.949219 17.46875 200.320312 17.46875 200.59375 17.46875 Z M 212.324219 21.277344 C 212.597656 21.277344 212.96875 21.277344 212.96875 20.878906 C 212.96875 20.507812 212.597656 20.507812 212.292969 20.507812 L 200.59375 20.507812 C 200.320312 20.507812 199.949219 20.507812 199.949219 20.878906 C 199.949219 21.277344 200.320312 21.277344 200.59375 21.277344 Z M 212.324219 21.277344 "/>
<path fill-rule="nonzero" fill="rgb(50.196078%, 50.196078%, 50.196078%)" fill-opacity="1" d="M 227.066406 22.597656 C 226.730469 22.871094 226.484375 22.964844 226.207031 22.964844 C 225.746094 22.964844 225.625 22.6875 225.625 21.828125 L 225.625 18.023438 C 225.625 16.976562 225.53125 16.425781 225.226562 15.964844 C 224.796875 15.257812 223.964844 14.890625 222.800781 14.890625 C 220.957031 14.890625 219.515625 15.84375 219.515625 17.070312 C 219.515625 17.53125 219.882812 17.898438 220.34375 17.898438 C 220.804688 17.898438 221.234375 17.53125 221.234375 17.101562 C 221.234375 17.007812 221.203125 16.917969 221.203125 16.761719 C 221.140625 16.609375 221.140625 16.457031 221.140625 16.304688 C 221.140625 15.78125 221.757812 15.351562 222.554688 15.351562 C 223.507812 15.351562 224.027344 15.902344 224.027344 16.976562 L 224.027344 18.175781 C 221.019531 19.375 220.683594 19.527344 219.851562 20.292969 C 219.421875 20.664062 219.148438 21.335938 219.148438 21.984375 C 219.148438 23.210938 220.007812 24.070312 221.203125 24.070312 C 222.0625 24.070312 222.863281 23.671875 224.058594 22.65625 C 224.152344 23.671875 224.488281 24.070312 225.316406 24.070312 C 225.960938 24.070312 226.390625 23.855469 227.066406 23.085938 Z M 224.027344 21.492188 C 224.027344 22.074219 223.9375 22.257812 223.535156 22.503906 C 223.046875 22.78125 222.492188 22.933594 222.09375 22.933594 C 221.417969 22.933594 220.867188 22.289062 220.867188 21.429688 L 220.867188 21.367188 C 220.867188 20.203125 221.664062 19.496094 224.027344 18.636719 Z M 224.027344 21.492188 "/>
<path fill-rule="nonzero" fill="rgb(50.196078%, 50.196078%, 50.196078%)" fill-opacity="1" d="M 227.222656 16.242188 C 227.5 16.179688 227.683594 16.179688 227.929688 16.179688 C 228.421875 16.179688 228.574219 16.488281 228.574219 17.347656 L 228.574219 22.226562 C 228.574219 23.210938 228.453125 23.363281 227.191406 23.578125 L 227.191406 23.886719 L 231.890625 23.886719 L 231.890625 23.578125 C 230.570312 23.546875 230.234375 23.242188 230.234375 22.136719 L 230.234375 17.714844 C 230.234375 17.101562 231.09375 16.117188 231.613281 16.117188 C 231.738281 16.117188 231.890625 16.210938 232.105469 16.394531 C 232.441406 16.671875 232.65625 16.792969 232.902344 16.792969 C 233.363281 16.792969 233.671875 16.457031 233.671875 15.902344 C 233.671875 15.257812 233.242188 14.890625 232.597656 14.890625 C 231.765625 14.890625 231.183594 15.320312 230.234375 16.703125 L 230.234375 14.921875 L 230.140625 14.890625 C 229.097656 15.320312 228.390625 15.566406 227.222656 15.933594 Z M 227.222656 16.242188 "/>
<path fill-rule="nonzero" fill="rgb(50.196078%, 50.196078%, 50.196078%)" fill-opacity="1" d="M 241.417969 20.816406 C 240.464844 22.199219 239.757812 22.65625 238.652344 22.65625 C 236.875 22.65625 235.613281 21.09375 235.613281 18.851562 C 235.613281 16.824219 236.6875 15.445312 238.285156 15.445312 C 238.992188 15.445312 239.238281 15.660156 239.421875 16.394531 L 239.542969 16.824219 C 239.699219 17.378906 240.066406 17.714844 240.464844 17.714844 C 240.988281 17.714844 241.417969 17.347656 241.417969 16.886719 C 241.417969 15.8125 240.035156 14.890625 238.410156 14.890625 C 237.425781 14.890625 236.445312 15.257812 235.644531 15.964844 C 234.664062 16.824219 234.109375 18.175781 234.109375 19.710938 C 234.109375 22.257812 235.644531 24.070312 237.824219 24.070312 C 238.714844 24.070312 239.484375 23.761719 240.1875 23.148438 C 240.742188 22.6875 241.109375 22.167969 241.695312 21 Z M 241.417969 20.816406 "/>
<path fill-rule="nonzero" fill="rgb(50.196078%, 50.196078%, 50.196078%)" fill-opacity="1" d="M 247.316406 15.074219 L 245.320312 15.074219 L 245.320312 12.804688 C 245.320312 12.617188 245.320312 12.558594 245.195312 12.558594 C 245.042969 12.710938 244.921875 12.894531 244.796875 13.078125 C 244.058594 14.183594 243.199219 15.105469 242.894531 15.199219 C 242.679688 15.320312 242.554688 15.472656 242.554688 15.566406 C 242.554688 15.628906 242.585938 15.660156 242.648438 15.6875 L 243.691406 15.6875 L 243.691406 21.582031 C 243.691406 23.242188 244.273438 24.070312 245.410156 24.070312 C 246.394531 24.070312 247.128906 23.609375 247.773438 22.597656 L 247.53125 22.382812 C 247.101562 22.871094 246.761719 23.058594 246.332031 23.058594 C 245.625 23.058594 245.320312 22.535156 245.320312 21.308594 L 245.320312 15.6875 L 247.316406 15.6875 Z M 247.316406 15.074219 "/>
<path fill-rule="nonzero" fill="rgb(50.196078%, 50.196078%, 50.196078%)" fill-opacity="1" d="M 256.960938 16.273438 L 256.960938 15.535156 L 255.457031 15.535156 C 255.058594 15.535156 254.75 15.472656 254.382812 15.320312 L 253.953125 15.167969 C 253.402344 14.984375 252.878906 14.890625 252.386719 14.890625 C 250.546875 14.890625 249.101562 16.273438 249.101562 18.082031 C 249.101562 19.3125 249.625 20.046875 250.914062 20.691406 C 250.546875 21.03125 250.207031 21.367188 250.085938 21.492188 C 249.441406 22.042969 249.195312 22.441406 249.195312 22.84375 C 249.195312 23.242188 249.410156 23.488281 250.207031 23.855469 C 248.828125 24.898438 248.304688 25.542969 248.304688 26.25 C 248.304688 27.292969 249.839844 28.152344 251.683594 28.152344 C 253.15625 28.152344 254.691406 27.632812 255.703125 26.832031 C 256.441406 26.21875 256.777344 25.605469 256.777344 24.835938 C 256.777344 23.640625 255.855469 22.8125 254.414062 22.75 L 251.898438 22.628906 C 250.851562 22.597656 250.363281 22.414062 250.363281 22.105469 C 250.363281 21.707031 251.007812 21.03125 251.527344 20.878906 C 251.710938 20.878906 251.835938 20.90625 251.898438 20.90625 C 252.265625 20.9375 252.542969 20.96875 252.664062 20.96875 C 253.371094 20.96875 254.167969 20.664062 254.75 20.140625 C 255.394531 19.589844 255.703125 18.914062 255.703125 17.929688 C 255.703125 17.378906 255.609375 16.917969 255.335938 16.273438 Z M 250.636719 23.917969 C 251.28125 24.070312 252.847656 24.191406 253.800781 24.191406 C 255.582031 24.191406 256.226562 24.4375 256.226562 25.144531 C 256.226562 26.28125 254.75 27.046875 252.542969 27.046875 C 250.820312 27.046875 249.6875 26.464844 249.6875 25.605469 C 249.6875 25.144531 249.808594 24.898438 250.636719 23.917969 Z M 250.730469 17.253906 C 250.730469 16.117188 251.28125 15.414062 252.171875 15.414062 C 252.785156 15.414062 253.308594 15.75 253.617188 16.332031 C 253.953125 17.039062 254.199219 17.929688 254.199219 18.699219 C 254.199219 19.804688 253.617188 20.476562 252.726562 20.476562 C 251.558594 20.476562 250.730469 19.21875 250.730469 17.316406 Z M 250.730469 17.253906 "/>
<path fill-rule="nonzero" fill="rgb(50.196078%, 50.196078%, 50.196078%)" fill-opacity="1" d="M 266.191406 28.582031 C 266.191406 28.523438 266.191406 28.492188 265.855469 28.152344 C 263.429688 25.695312 262.785156 21.984375 262.785156 18.972656 C 262.785156 15.566406 263.519531 12.160156 265.945312 9.734375 C 266.191406 9.488281 266.191406 9.457031 266.191406 9.394531 C 266.191406 9.242188 266.128906 9.179688 266.007812 9.179688 C 265.792969 9.179688 264.042969 10.53125 262.875 13.019531 C 261.894531 15.167969 261.648438 17.347656 261.648438 18.972656 C 261.648438 20.507812 261.863281 22.871094 262.9375 25.113281 C 264.132812 27.507812 265.792969 28.796875 266.007812 28.796875 C 266.128906 28.796875 266.191406 28.738281 266.191406 28.582031 Z M 266.191406 28.582031 "/>
<path fill-rule="nonzero" fill="rgb(50.196078%, 50.196078%, 50.196078%)" fill-opacity="1" d="M 275.167969 21.707031 C 275.011719 21.890625 274.921875 22.011719 274.738281 22.226562 C 274.308594 22.84375 274.0625 23.027344 273.847656 23.027344 C 273.570312 23.027344 273.386719 22.78125 273.234375 22.226562 C 273.203125 22.074219 273.171875 21.953125 273.171875 21.890625 C 272.679688 19.894531 272.464844 19.003906 272.464844 18.726562 C 273.324219 17.195312 274.03125 16.332031 274.367188 16.332031 C 274.492188 16.332031 274.644531 16.394531 274.859375 16.488281 C 275.074219 16.640625 275.226562 16.671875 275.382812 16.671875 C 275.78125 16.671875 276.058594 16.394531 276.058594 15.964844 C 276.058594 15.566406 275.71875 15.257812 275.257812 15.257812 C 274.398438 15.257812 273.664062 15.964844 272.3125 18.054688 L 272.097656 16.976562 C 271.820312 15.628906 271.605469 15.257812 271.054688 15.257812 C 270.625 15.257812 269.980469 15.414062 268.78125 15.8125 L 268.566406 15.902344 L 268.628906 16.179688 C 269.394531 16.027344 269.550781 15.964844 269.734375 15.964844 C 270.222656 15.964844 270.347656 16.148438 270.625 17.316406 L 271.175781 19.742188 L 269.578125 22.011719 C 269.179688 22.628906 268.78125 22.964844 268.566406 22.964844 C 268.472656 22.964844 268.257812 22.902344 268.074219 22.78125 C 267.828125 22.65625 267.613281 22.597656 267.429688 22.597656 C 267.0625 22.597656 266.785156 22.871094 266.785156 23.273438 C 266.785156 23.792969 267.183594 24.101562 267.769531 24.101562 C 268.351562 24.101562 268.597656 23.917969 269.578125 22.71875 C 270.101562 22.105469 270.53125 21.582031 271.328125 20.449219 L 271.945312 22.78125 C 272.1875 23.792969 272.433594 24.101562 273.078125 24.101562 C 273.816406 24.101562 274.308594 23.640625 275.441406 21.859375 Z M 275.167969 21.707031 "/>
<path fill-rule="nonzero" fill="rgb(50.196078%, 50.196078%, 50.196078%)" fill-opacity="1" d="M 281.707031 18.972656 C 281.707031 17.46875 281.492188 15.105469 280.417969 12.863281 C 279.25 10.46875 277.5625 9.179688 277.378906 9.179688 C 277.253906 9.179688 277.164062 9.273438 277.164062 9.394531 C 277.164062 9.457031 277.164062 9.488281 277.53125 9.855469 C 279.464844 11.789062 280.570312 14.890625 280.570312 18.972656 C 280.570312 22.351562 279.863281 25.789062 277.4375 28.246094 C 277.164062 28.492188 277.164062 28.523438 277.164062 28.582031 C 277.164062 28.707031 277.253906 28.796875 277.378906 28.796875 C 277.5625 28.796875 279.34375 27.445312 280.476562 24.960938 C 281.492188 22.8125 281.707031 20.632812 281.707031 18.972656 Z M 281.707031 18.972656 "/>
</svg>
