<?xml version="1.0" encoding="UTF-8"?>
<svg xmlns="http://www.w3.org/2000/svg" xmlns:xlink="http://www.w3.org/1999/xlink" width="400" height="302.318446" viewBox="0 0 400 302.318446">
<defs>
<clipPath id="clip-0">
<path clip-rule="nonzero" d="M 20.007812 42.390625 L 387.609375 42.390625 L 387.609375 251 L 20.007812 251 Z M 20.007812 42.390625 "/>
</clipPath>
<clipPath id="clip-1">
<path clip-rule="nonzero" d="M 20.007812 42.390625 L 387.609375 42.390625 L 387.609375 247 L 20.007812 247 Z M 20.007812 42.390625 "/>
</clipPath>
</defs>
<path fill="none" stroke-width="0.09962" stroke-linecap="butt" stroke-linejoin="miter" stroke="rgb(69.803922%, 69.803922%, 69.803922%)" stroke-opacity="1" stroke-dasharray="2.98883 2.98883" stroke-miterlimit="10" d="M 0.00117607 0.00184784 L 0.00117607 124.726869 M 31.18094 0.00184784 L 31.18094 124.726869 M 62.364681 0.00184784 L 62.364681 124.726869 M 124.728186 0.00184784 L 124.728186 124.726869 M 155.911926 0.00184784 L 155.911926 124.726869 M 187.095667 0.00184784 L 187.095667 124.726869 " transform="matrix(1.964791, 0, 0, -1.964791, 20.005502, 287.452849)"/>
<path fill="none" stroke-width="0.09962" stroke-linecap="butt" stroke-linejoin="miter" stroke="rgb(69.803922%, 69.803922%, 69.803922%)" stroke-opacity="1" stroke-dasharray="2.98883 2.98883" stroke-miterlimit="10" d="M 0.00117607 0.00184784 L 187.095667 0.00184784 M 0.00117607 62.365353 L 187.095667 62.365353 M 0.00117607 93.545117 L 187.095667 93.545117 M 0.00117607 124.726869 L 187.095667 124.726869 " transform="matrix(1.964791, 0, 0, -1.964791, 20.005502, 287.452849)"/>
<path fill="none" stroke-width="0.19925" stroke-linecap="butt" stroke-linejoin="miter" stroke="rgb(50.196078%, 50.196078%, 50.196078%)" stroke-opacity="1" stroke-miterlimit="10" d="M 0.00117607 29.056307 L 0.00117607 33.308906 M 31.18094 29.056307 L 31.18094 33.308906 M 62.364681 29.056307 L 62.364681 33.308906 M 124.728186 29.056307 L 124.728186 33.308906 M 155.911926 29.056307 L 155.911926 33.308906 M 187.095667 29.056307 L 187.095667 33.308906 " transform="matrix(1.964791, 0, 0, -1.964791, 20.005502, 287.452849)"/>
<path fill="none" stroke-width="0.19925" stroke-linecap="butt" stroke-linejoin="miter" stroke="rgb(50.196078%, 50.196078%, 50.196078%)" stroke-opacity="1" stroke-miterlimit="10" d="M 91.41914 0.00184784 L 95.673727 0.00184784 M 91.41914 62.365353 L 95.673727 62.365353 M 91.41914 93.545117 L 95.673727 93.545117 M 91.41914 124.726869 L 95.673727 124.726869 " transform="matrix(1.964791, 0, 0, -1.964791, 20.005502, 287.452849)"/>
<path fill="none" stroke-width="0.3985" stroke-linecap="butt" stroke-linejoin="miter" stroke="rgb(50.196078%, 50.196078%, 50.196078%)" stroke-opacity="1" stroke-miterlimit="10" d="M 0.00117607 31.181612 L 185.103566 31.181612 " transform="matrix(1.964791, 0, 0, -1.964791, 20.005502, 287.452849)"/>
<path fill-rule="nonzero" fill="rgb(50.196078%, 50.196078%, 50.196078%)" fill-opacity="1" d="M 387.609375 226.1875 L 381.339844 223.058594 L 383.695312 226.1875 L 381.339844 229.320312 "/>
<path fill="none" stroke-width="0.3985" stroke-linecap="butt" stroke-linejoin="miter" stroke="rgb(50.196078%, 50.196078%, 50.196078%)" stroke-opacity="1" stroke-miterlimit="10" d="M 93.548422 0.00184784 L 93.548422 122.734768 " transform="matrix(1.964791, 0, 0, -1.964791, 20.005502, 287.452849)"/>
<path fill-rule="nonzero" fill="rgb(50.196078%, 50.196078%, 50.196078%)" fill-opacity="1" d="M 203.808594 42.390625 L 200.675781 48.652344 L 203.808594 46.304688 L 206.941406 48.652344 "/>
<path fill-rule="nonzero" fill="rgb(50.196078%, 50.196078%, 50.196078%)" fill-opacity="1" d="M 20.402344 245.863281 C 20.738281 245.863281 21.109375 245.863281 21.109375 245.464844 C 21.109375 245.09375 20.738281 245.09375 20.402344 245.09375 L 9.808594 245.09375 C 9.472656 245.09375 9.132812 245.09375 9.132812 245.464844 C 9.132812 245.863281 9.472656 245.863281 9.808594 245.863281 Z M 20.402344 245.863281 "/>
<path fill-rule="nonzero" fill="rgb(50.196078%, 50.196078%, 50.196078%)" fill-opacity="1" d="M 25.722656 243.898438 C 26.859375 243.898438 27.320312 243.960938 27.78125 244.113281 C 29.007812 244.574219 29.777344 245.679688 29.777344 247.027344 C 29.777344 248.65625 28.640625 249.945312 27.195312 249.945312 C 26.675781 249.945312 26.277344 249.792969 25.570312 249.332031 C 24.957031 248.992188 24.648438 248.839844 24.3125 248.839844 C 23.851562 248.839844 23.542969 249.117188 23.542969 249.546875 C 23.542969 250.222656 24.402344 250.652344 25.785156 250.652344 C 27.289062 250.652344 28.824219 250.128906 29.746094 249.332031 C 30.667969 248.535156 31.1875 247.398438 31.1875 246.078125 C 31.1875 245.09375 30.851562 244.175781 30.296875 243.558594 C 29.898438 243.128906 29.53125 242.882812 28.671875 242.515625 C 30.023438 241.59375 30.511719 240.890625 30.511719 239.816406 C 30.511719 238.21875 29.253906 237.144531 27.441406 237.144531 C 26.460938 237.144531 25.601562 237.480469 24.894531 238.09375 C 24.3125 238.617188 24.035156 239.140625 23.605469 240.304688 L 23.882812 240.398438 C 24.679688 238.953125 25.570312 238.308594 26.796875 238.308594 C 28.085938 238.308594 28.976562 239.167969 28.976562 240.398438 C 28.976562 241.105469 28.671875 241.808594 28.179688 242.300781 C 27.597656 242.882812 27.042969 243.191406 25.722656 243.652344 Z M 25.722656 243.898438 "/>
<path fill-rule="nonzero" fill="rgb(50.196078%, 50.196078%, 50.196078%)" fill-opacity="1" d="M 81.664062 245.863281 C 82.003906 245.863281 82.371094 245.863281 82.371094 245.464844 C 82.371094 245.09375 82.003906 245.09375 81.664062 245.09375 L 71.074219 245.09375 C 70.738281 245.09375 70.398438 245.09375 70.398438 245.464844 C 70.398438 245.863281 70.738281 245.863281 71.074219 245.863281 Z M 81.664062 245.863281 "/>
<path fill-rule="nonzero" fill="rgb(50.196078%, 50.196078%, 50.196078%)" fill-opacity="1" d="M 93.28125 247.703125 L 93.039062 247.582031 C 92.300781 248.71875 92.054688 248.902344 91.164062 248.902344 L 86.5 248.902344 L 89.785156 245.433594 C 91.535156 243.621094 92.300781 242.117188 92.300781 240.613281 C 92.300781 238.648438 90.703125 237.144531 88.648438 237.144531 C 87.574219 237.144531 86.558594 237.574219 85.855469 238.339844 C 85.210938 239.015625 84.933594 239.628906 84.59375 241.042969 L 84.996094 241.132812 C 85.792969 239.199219 86.5 238.585938 87.847656 238.585938 C 89.476562 238.585938 90.613281 239.691406 90.613281 241.347656 C 90.613281 242.882812 89.691406 244.695312 88.0625 246.445312 L 84.5625 250.128906 L 84.5625 250.375 L 92.207031 250.375 Z M 93.28125 247.703125 "/>
<path fill-rule="nonzero" fill="rgb(50.196078%, 50.196078%, 50.196078%)" fill-opacity="1" d="M 142.933594 245.863281 C 143.269531 245.863281 143.636719 245.863281 143.636719 245.464844 C 143.636719 245.09375 143.269531 245.09375 142.933594 245.09375 L 132.339844 245.09375 C 132.003906 245.09375 131.664062 245.09375 131.664062 245.464844 C 131.664062 245.863281 132.003906 245.863281 132.339844 245.863281 Z M 142.933594 245.863281 "/>
<path fill-rule="nonzero" fill="rgb(50.196078%, 50.196078%, 50.196078%)" fill-opacity="1" d="M 150.957031 237.144531 L 147.425781 238.925781 L 147.425781 239.199219 C 147.640625 239.109375 147.855469 239.015625 147.949219 238.984375 C 148.316406 238.832031 148.625 238.769531 148.839844 238.769531 C 149.238281 238.769531 149.421875 239.046875 149.421875 239.691406 L 149.421875 248.5625 C 149.421875 249.207031 149.269531 249.636719 148.960938 249.824219 C 148.65625 250.007812 148.378906 250.066406 147.550781 250.066406 L 147.550781 250.375 L 152.953125 250.375 L 152.953125 250.066406 C 151.417969 250.066406 151.109375 249.851562 151.109375 248.933594 L 151.109375 237.175781 Z M 150.957031 237.144531 "/>
<path fill-rule="nonzero" fill="rgb(50.196078%, 50.196078%, 50.196078%)" fill-opacity="1" d="M 265.886719 237.144531 L 262.355469 238.925781 L 262.355469 239.199219 C 262.570312 239.109375 262.785156 239.015625 262.878906 238.984375 C 263.246094 238.832031 263.550781 238.769531 263.765625 238.769531 C 264.167969 238.769531 264.351562 239.046875 264.351562 239.691406 L 264.351562 248.5625 C 264.351562 249.207031 264.199219 249.636719 263.890625 249.824219 C 263.582031 250.007812 263.308594 250.066406 262.476562 250.066406 L 262.476562 250.375 L 267.882812 250.375 L 267.882812 250.066406 C 266.347656 250.066406 266.039062 249.851562 266.039062 248.933594 L 266.039062 237.175781 Z M 265.886719 237.144531 "/>
<path fill-rule="nonzero" fill="rgb(50.196078%, 50.196078%, 50.196078%)" fill-opacity="1" d="M 330.742188 247.703125 L 330.496094 247.582031 C 329.757812 248.71875 329.515625 248.902344 328.625 248.902344 L 323.957031 248.902344 L 327.242188 245.433594 C 328.992188 243.621094 329.757812 242.117188 329.757812 240.613281 C 329.757812 238.648438 328.164062 237.144531 326.105469 237.144531 C 325.03125 237.144531 324.019531 237.574219 323.3125 238.339844 C 322.667969 239.015625 322.390625 239.628906 322.054688 241.042969 L 322.453125 241.132812 C 323.25 239.199219 323.957031 238.585938 325.308594 238.585938 C 326.933594 238.585938 328.070312 239.691406 328.070312 241.347656 C 328.070312 242.882812 327.148438 244.695312 325.523438 246.445312 L 322.023438 250.128906 L 322.023438 250.375 L 329.667969 250.375 Z M 330.742188 247.703125 "/>
<path fill-rule="nonzero" fill="rgb(50.196078%, 50.196078%, 50.196078%)" fill-opacity="1" d="M 385.714844 243.898438 C 386.851562 243.898438 387.3125 243.960938 387.769531 244.113281 C 389 244.574219 389.765625 245.679688 389.765625 247.027344 C 389.765625 248.65625 388.632812 249.945312 387.1875 249.945312 C 386.667969 249.945312 386.265625 249.792969 385.5625 249.332031 C 384.945312 248.992188 384.640625 248.839844 384.300781 248.839844 C 383.84375 248.839844 383.535156 249.117188 383.535156 249.546875 C 383.535156 250.222656 384.394531 250.652344 385.777344 250.652344 C 387.28125 250.652344 388.816406 250.128906 389.734375 249.332031 C 390.65625 248.535156 391.179688 247.398438 391.179688 246.078125 C 391.179688 245.09375 390.839844 244.175781 390.289062 243.558594 C 389.890625 243.128906 389.519531 242.882812 388.660156 242.515625 C 390.011719 241.59375 390.503906 240.890625 390.503906 239.816406 C 390.503906 238.21875 389.246094 237.144531 387.433594 237.144531 C 386.453125 237.144531 385.589844 237.480469 384.886719 238.09375 C 384.300781 238.617188 384.027344 239.140625 383.597656 240.304688 L 383.871094 240.398438 C 384.671875 238.953125 385.5625 238.308594 386.789062 238.308594 C 388.078125 238.308594 388.96875 239.167969 388.96875 240.398438 C 388.96875 241.105469 388.660156 241.808594 388.171875 242.300781 C 387.585938 242.882812 387.035156 243.191406 385.714844 243.652344 Z M 385.714844 243.898438 "/>
<path fill-rule="nonzero" fill="rgb(50.196078%, 50.196078%, 50.196078%)" fill-opacity="1" d="M 180.605469 288.675781 C 180.945312 288.675781 181.3125 288.675781 181.3125 288.277344 C 181.3125 287.90625 180.945312 287.90625 180.605469 287.90625 L 170.015625 287.90625 C 169.675781 287.90625 169.339844 287.90625 169.339844 288.277344 C 169.339844 288.675781 169.675781 288.675781 170.015625 288.675781 Z M 180.605469 288.675781 "/>
<path fill-rule="nonzero" fill="rgb(50.196078%, 50.196078%, 50.196078%)" fill-opacity="1" d="M 188.632812 279.957031 L 185.101562 281.738281 L 185.101562 282.011719 C 185.316406 281.921875 185.53125 281.828125 185.625 281.796875 C 185.992188 281.644531 186.300781 281.582031 186.515625 281.582031 C 186.914062 281.582031 187.097656 281.859375 187.097656 282.503906 L 187.097656 291.375 C 187.097656 292.019531 186.945312 292.453125 186.636719 292.636719 C 186.328125 292.820312 186.054688 292.882812 185.222656 292.882812 L 185.222656 293.1875 L 190.628906 293.1875 L 190.628906 292.882812 C 189.09375 292.882812 188.785156 292.667969 188.785156 291.746094 L 188.785156 279.988281 Z M 188.632812 279.957031 "/>
<path fill-rule="nonzero" fill="rgb(50.196078%, 50.196078%, 50.196078%)" fill-opacity="1" d="M 188.632812 158.238281 L 185.101562 160.019531 L 185.101562 160.292969 C 185.316406 160.203125 185.53125 160.109375 185.625 160.078125 C 185.992188 159.925781 186.300781 159.863281 186.515625 159.863281 C 186.914062 159.863281 187.097656 160.140625 187.097656 160.785156 L 187.097656 169.65625 C 187.097656 170.300781 186.945312 170.734375 186.636719 170.917969 C 186.328125 171.101562 186.054688 171.164062 185.222656 171.164062 L 185.222656 171.46875 L 190.628906 171.46875 L 190.628906 171.164062 C 189.09375 171.164062 188.785156 170.949219 188.785156 170.027344 L 188.785156 158.269531 Z M 188.632812 158.238281 "/>
<path fill-rule="nonzero" fill="rgb(50.196078%, 50.196078%, 50.196078%)" fill-opacity="1" d="M 192.222656 107.535156 L 191.976562 107.410156 C 191.242188 108.546875 190.996094 108.730469 190.105469 108.730469 L 185.4375 108.730469 L 188.722656 105.261719 C 190.472656 103.449219 191.242188 101.945312 191.242188 100.441406 C 191.242188 98.476562 189.644531 96.972656 187.589844 96.972656 C 186.515625 96.972656 185.5 97.402344 184.792969 98.171875 C 184.148438 98.847656 183.875 99.460938 183.535156 100.871094 L 183.933594 100.964844 C 184.734375 99.03125 185.4375 98.417969 186.789062 98.417969 C 188.417969 98.417969 189.554688 99.523438 189.554688 101.179688 C 189.554688 102.714844 188.632812 104.527344 187.003906 106.277344 L 183.503906 109.960938 L 183.503906 110.207031 L 191.148438 110.207031 Z M 192.222656 107.535156 "/>
<path fill-rule="nonzero" fill="rgb(50.196078%, 50.196078%, 50.196078%)" fill-opacity="1" d="M 185.929688 42.3125 C 187.066406 42.3125 187.527344 42.375 187.988281 42.527344 C 189.214844 42.988281 189.984375 44.09375 189.984375 45.445312 C 189.984375 47.070312 188.847656 48.359375 187.402344 48.359375 C 186.882812 48.359375 186.484375 48.207031 185.777344 47.746094 C 185.164062 47.40625 184.855469 47.253906 184.519531 47.253906 C 184.058594 47.253906 183.75 47.53125 183.75 47.960938 C 183.75 48.636719 184.609375 49.066406 185.992188 49.066406 C 187.496094 49.066406 189.03125 48.542969 189.953125 47.746094 C 190.875 46.949219 191.394531 45.8125 191.394531 44.492188 C 191.394531 43.507812 191.058594 42.589844 190.503906 41.972656 C 190.105469 41.542969 189.738281 41.300781 188.878906 40.929688 C 190.230469 40.007812 190.71875 39.304688 190.71875 38.230469 C 190.71875 36.632812 189.460938 35.558594 187.648438 35.558594 C 186.667969 35.558594 185.808594 35.894531 185.101562 36.507812 C 184.519531 37.03125 184.242188 37.554688 183.8125 38.71875 L 184.089844 38.8125 C 184.886719 37.371094 185.777344 36.726562 187.003906 36.726562 C 188.292969 36.726562 189.183594 37.585938 189.183594 38.8125 C 189.183594 39.519531 188.878906 40.222656 188.386719 40.714844 C 187.804688 41.300781 187.25 41.605469 185.929688 42.066406 Z M 185.929688 42.3125 "/>
<g clip-path="url(#clip-0)">
<path fill="none" stroke-width="0.99628" stroke-linecap="butt" stroke-linejoin="miter" stroke="rgb(6.666667%, 52.941176%, 87.058824%)" stroke-opacity="1" stroke-miterlimit="10" d="M 0.00117607 32.736326 L 1.887907 32.829768 L 3.778614 32.935138 L 5.66932 33.044485 L 7.560027 33.161785 L 9.450734 33.28306 L 11.337465 33.416265 L 13.228172 33.555433 L 15.118879 33.704543 L 17.009585 33.859617 L 18.896316 34.028607 L 20.787023 34.203562 L 22.67773 34.392434 L 24.568437 34.595223 L 26.459144 34.80994 L 28.345874 35.03261 L 30.236581 35.275162 L 32.127288 35.53163 L 34.017995 35.802015 L 35.908702 36.090293 L 37.795432 36.40044 L 39.686139 36.724505 L 41.574858 37.072427 L 43.465565 37.438242 L 45.356272 37.829902 L 47.243002 38.247408 L 49.133709 38.684796 L 51.024416 39.15797 L 52.915123 39.656989 L 54.801853 40.183842 L 56.69256 40.746482 L 58.583267 41.340931 L 60.473974 41.977131 L 62.364681 42.653093 L 64.251412 43.368818 L 66.142118 44.13027 L 68.032825 44.943413 L 69.923532 45.802283 L 71.814239 46.712845 L 73.70097 47.689014 L 75.591677 48.716875 L 77.482383 49.81432 L 79.37309 50.977373 L 81.259821 52.211998 L 83.150528 53.528137 L 85.041235 54.923801 L 86.931942 56.406942 L 88.822648 57.981537 L 90.709379 59.657526 L 92.600086 61.438886 L 94.490793 63.321641 L 96.379512 65.329647 L 98.270218 67.462905 L 100.156949 69.72738 L 102.047656 72.134999 L 103.938363 74.695704 L 105.82907 77.415459 L 107.719777 80.302216 L 109.606507 83.371881 L 111.497214 86.630418 L 113.387921 90.09572 L 115.278628 93.777728 L 117.165358 97.68837 L 119.056065 101.841563 L 120.946772 106.259176 L 122.837479 110.951151 L 124.728186 115.931405 L 126.614916 121.227769 L 128.505623 126.852175 L 130.39633 132.828479 L 132.287037 139.180538 L 134.177744 145.930223 L 136.064475 153.099401 L 137.955181 160.715908 L 139.845888 168.809565 L 141.736595 177.408206 L 143.627302 186.54364 L 145.514033 196.251654 L 147.40474 206.564059 L 149.295446 217.520616 L 151.186153 229.165064 L 153.072884 241.537166 L 154.961603 254.676684 L 156.85231 268.637297 L 158.743016 283.47865 L 160.633723 299.238517 L 162.520454 315.986482 L 164.411161 333.786165 L 166.301868 352.69721 L 168.192575 372.783237 L 170.083281 394.125759 L 171.970012 416.806289 L 173.860719 440.8964 L 175.751426 466.485556 L 177.642133 493.689071 L 179.532839 522.574539 L 181.41957 553.287094 L 183.310277 585.900296 L 185.200984 620.559279 L 187.091691 657.375378 " transform="matrix(1.964791, 0, 0, -1.964791, 20.005502, 287.452849)"/>
</g>
<g clip-path="url(#clip-1)">
<path fill="none" stroke-width="0.99628" stroke-linecap="butt" stroke-linejoin="miter" stroke="rgb(100%, 12.941176%, 32.156863%)" stroke-opacity="1" stroke-miterlimit="10" d="M 0.00117607 35.080325 L 1.887907 35.247328 L 3.778614 35.418307 L 5.66932 35.603202 L 7.560027 35.794062 L 9.450734 35.988898 L 11.337465 36.195663 L 13.228172 36.412369 L 15.118879 36.637027 L 17.009585 36.86765 L 18.896316 37.118153 L 20.787023 37.368657 L 22.67773 37.633078 L 24.568437 37.911415 L 26.459144 38.199693 L 28.345874 38.501888 L 30.236581 38.818 L 32.127288 39.146041 L 34.017995 39.48601 L 35.908702 39.841885 L 37.795432 40.211676 L 39.686139 40.59936 L 41.574858 41.004938 L 43.465565 41.42642 L 45.356272 41.867784 L 47.243002 42.325053 L 49.133709 42.802203 L 51.024416 43.301222 L 52.915123 43.822111 L 54.801853 44.364869 L 56.69256 44.931485 L 58.583267 45.51997 L 60.473974 46.1343 L 62.364681 46.774477 L 64.251412 47.446463 L 66.142118 48.142307 L 68.032825 48.871948 L 69.923532 49.629424 L 71.814239 50.422686 L 73.70097 51.247758 L 75.591677 52.106628 L 77.482383 53.00526 L 79.37309 53.939679 L 81.259821 54.915848 L 83.150528 55.935756 L 85.041235 56.997415 L 86.931942 58.102813 L 88.822648 59.263878 L 90.709379 60.466693 L 92.600086 61.719212 L 94.490793 63.02541 L 96.379512 64.387276 L 98.270218 65.812761 L 100.156949 67.297891 L 102.047656 68.848628 L 103.938363 70.462986 L 105.82907 72.148916 L 107.719777 73.908406 L 109.606507 75.73947 L 111.497214 77.650058 L 113.387921 79.642159 L 115.278628 81.723726 L 117.165358 83.89277 L 119.056065 86.149292 L 120.946772 88.509196 L 122.837479 90.970495 L 124.728186 93.533188 L 126.614916 96.209205 L 128.505623 98.996556 L 130.39633 101.907171 L 132.287037 104.939061 L 134.177744 108.102168 L 136.064475 111.404444 L 137.955181 114.845888 L 139.845888 118.434454 L 141.736595 122.176105 L 143.627302 126.078794 L 145.514033 130.150474 L 147.40474 134.395121 L 149.295446 138.824664 L 151.186153 143.443078 L 153.072884 148.258317 L 154.961603 153.282309 L 156.85231 158.517042 L 158.743016 163.982398 L 160.633723 169.676388 L 162.520454 175.618893 L 164.411161 181.813891 L 166.301868 188.275297 L 168.192575 195.009076 L 170.083281 202.041074 L 171.970012 209.373279 L 173.860719 217.013644 L 175.751426 224.986025 L 177.642133 233.298376 L 179.532839 241.970577 L 181.41957 251.016546 L 183.310277 260.442246 L 185.200984 270.275512 L 187.091691 280.532249 " transform="matrix(1.964791, 0, 0, -1.964791, 20.005502, 287.452849)"/>
<path fill="none" stroke-width="0.99628" stroke-linecap="butt" stroke-linejoin="miter" stroke="rgb(1.176471%, 74.901961%, 23.921569%)" stroke-opacity="1" stroke-miterlimit="10" d="M 0.00117607 280.633644 L 1.887907 270.37293 L 3.778614 260.531712 L 5.66932 251.098059 L 7.560027 242.05209 L 9.450734 233.371936 L 11.337465 225.059586 L 13.228172 217.079252 L 15.118879 209.434911 L 17.009585 202.09873 L 18.896316 195.066732 L 20.787023 188.325 L 22.67773 181.859618 L 24.568437 175.66462 L 26.459144 169.720126 L 28.345874 164.020172 L 30.236581 158.556804 L 32.127288 153.318095 L 34.017995 148.290127 L 35.908702 143.4729 L 37.795432 138.852498 L 39.686139 134.422955 L 41.574858 130.17632 L 43.465565 126.102652 L 45.356272 122.199963 L 47.243002 118.454335 L 49.133709 114.863781 L 51.024416 111.422337 L 52.915123 108.118073 L 54.801853 104.958943 L 56.69256 101.9191 L 58.583267 99.012461 L 60.473974 96.219145 L 62.364681 93.545117 L 64.251412 90.978448 L 66.142118 88.521125 L 68.032825 86.161221 L 69.923532 83.898735 L 71.814239 81.731678 L 73.70097 79.650111 L 75.591677 77.65801 L 77.482383 75.743446 L 79.37309 73.910395 L 81.259821 72.152892 L 83.150528 70.470938 L 85.041235 68.852605 L 86.931942 67.301867 L 88.822648 65.816738 L 90.709379 64.391252 L 92.600086 63.02541 L 94.490793 61.723188 L 96.379512 60.466693 L 98.270218 59.263878 L 100.156949 58.106789 L 102.047656 57.001391 L 103.938363 55.935756 L 105.82907 54.915848 L 107.719777 53.939679 L 109.606507 53.00526 L 111.497214 52.106628 L 113.387921 51.247758 L 115.278628 50.422686 L 117.165358 49.629424 L 119.056065 48.871948 L 120.946772 48.142307 L 122.837479 47.442487 L 124.728186 46.774477 L 126.614916 46.1343 L 128.505623 45.51997 L 130.39633 44.931485 L 132.287037 44.360893 L 134.177744 43.822111 L 136.064475 43.301222 L 137.955181 42.802203 L 139.845888 42.325053 L 141.736595 41.867784 L 143.627302 41.42642 L 145.514033 41.004938 L 147.40474 40.59936 L 149.295446 40.211676 L 151.186153 39.841885 L 153.072884 39.48601 L 154.961603 39.146041 L 156.85231 38.818 L 158.743016 38.501888 L 160.633723 38.199693 L 162.520454 37.911415 L 164.411161 37.633078 L 166.301868 37.368657 L 168.192575 37.114177 L 170.083281 36.86765 L 171.970012 36.637027 L 173.860719 36.412369 L 175.751426 36.195663 L 177.642133 35.988898 L 179.532839 35.790086 L 181.41957 35.599226 L 183.310277 35.418307 L 185.200984 35.247328 L 187.091691 35.080325 " transform="matrix(1.964791, 0, 0, -1.964791, 20.005502, 287.452849)"/>
</g>
<path fill="none" stroke-width="0.3985" stroke-linecap="butt" stroke-linejoin="miter" stroke="rgb(50.196078%, 50.196078%, 50.196078%)" stroke-opacity="1" stroke-miterlimit="10" d="M -3.549615 128.669321 L 190.642482 128.669321 L 190.642482 145.602182 L -3.549615 145.602182 Z M -3.549615 128.669321 " transform="matrix(1.964791, 0, 0, -1.964791, 20.005502, 287.452849)"/>
<path fill="none" stroke-width="0.99628" stroke-linecap="butt" stroke-linejoin="miter" stroke="rgb(6.666667%, 52.941176%, 87.058824%)" stroke-opacity="1" stroke-miterlimit="10" d="M -0.00143233 -0.000244542 L 17.008965 -0.000244542 " transform="matrix(1.964791, 0, 0, -1.964791, 19.88172, 18.011238)"/>
<path fill-rule="nonzero" fill="rgb(50.196078%, 50.196078%, 50.196078%)" fill-opacity="1" d="M 61.804688 16.117188 L 63.585938 16.117188 L 61.867188 24.34375 C 61.4375 26.460938 60.789062 27.539062 59.960938 27.539062 C 59.714844 27.539062 59.5625 27.382812 59.5625 27.199219 C 59.5625 27.167969 59.59375 27.109375 59.65625 26.984375 C 59.714844 26.894531 59.746094 26.800781 59.746094 26.675781 C 59.746094 26.277344 59.378906 25.941406 58.980469 25.941406 C 58.550781 25.941406 58.242188 26.277344 58.242188 26.738281 C 58.242188 27.414062 58.949219 27.9375 59.808594 27.9375 C 61.527344 27.9375 62.910156 26.003906 63.707031 22.410156 L 65.121094 16.117188 L 67.269531 16.117188 L 67.390625 15.503906 L 65.273438 15.503906 C 65.824219 12.433594 66.5625 11.019531 67.636719 11.019531 C 67.914062 11.019531 68.066406 11.144531 68.066406 11.265625 C 68.066406 11.328125 68.066406 11.359375 68.003906 11.480469 C 67.914062 11.632812 67.882812 11.726562 67.882812 11.878906 C 67.882812 12.339844 68.191406 12.648438 68.621094 12.648438 C 69.050781 12.648438 69.449219 12.308594 69.449219 11.878906 C 69.449219 11.144531 68.710938 10.589844 67.757812 10.589844 C 66.777344 10.589844 66.039062 11.019531 65.335938 11.941406 C 64.71875 12.710938 64.351562 13.628906 63.738281 15.503906 L 61.957031 15.503906 Z M 61.804688 16.117188 "/>
<path fill-rule="nonzero" fill="rgb(50.196078%, 50.196078%, 50.196078%)" fill-opacity="1" d="M 75.90625 28.582031 C 75.90625 28.519531 75.90625 28.488281 75.566406 28.152344 C 73.140625 25.695312 72.496094 21.980469 72.496094 18.972656 C 72.496094 15.5625 73.234375 12.15625 75.660156 9.730469 C 75.90625 9.484375 75.90625 9.453125 75.90625 9.394531 C 75.90625 9.238281 75.84375 9.179688 75.722656 9.179688 C 75.507812 9.179688 73.757812 10.53125 72.589844 13.015625 C 71.609375 15.164062 71.363281 17.34375 71.363281 18.972656 C 71.363281 20.507812 71.578125 22.871094 72.652344 25.113281 C 73.847656 27.507812 75.507812 28.796875 75.722656 28.796875 C 75.84375 28.796875 75.90625 28.734375 75.90625 28.582031 Z M 75.90625 28.582031 "/>
<path fill-rule="nonzero" fill="rgb(50.196078%, 50.196078%, 50.196078%)" fill-opacity="1" d="M 84.882812 21.703125 C 84.726562 21.886719 84.636719 22.011719 84.449219 22.226562 C 84.019531 22.839844 83.777344 23.023438 83.5625 23.023438 C 83.285156 23.023438 83.101562 22.777344 82.945312 22.226562 C 82.917969 22.074219 82.886719 21.949219 82.886719 21.886719 C 82.394531 19.894531 82.179688 19.003906 82.179688 18.726562 C 83.039062 17.191406 83.746094 16.332031 84.082031 16.332031 C 84.207031 16.332031 84.359375 16.394531 84.574219 16.484375 C 84.789062 16.640625 84.941406 16.667969 85.097656 16.667969 C 85.496094 16.667969 85.769531 16.394531 85.769531 15.964844 C 85.769531 15.5625 85.433594 15.257812 84.972656 15.257812 C 84.113281 15.257812 83.375 15.964844 82.027344 18.050781 L 81.8125 16.976562 C 81.535156 15.625 81.320312 15.257812 80.765625 15.257812 C 80.335938 15.257812 79.691406 15.410156 78.496094 15.808594 L 78.28125 15.902344 L 78.34375 16.179688 C 79.109375 16.023438 79.261719 15.964844 79.445312 15.964844 C 79.9375 15.964844 80.0625 16.148438 80.335938 17.3125 L 80.890625 19.738281 L 79.292969 22.011719 C 78.894531 22.625 78.496094 22.964844 78.28125 22.964844 C 78.1875 22.964844 77.972656 22.902344 77.789062 22.777344 C 77.542969 22.65625 77.328125 22.59375 77.144531 22.59375 C 76.777344 22.59375 76.5 22.871094 76.5 23.269531 C 76.5 23.792969 76.898438 24.097656 77.480469 24.097656 C 78.066406 24.097656 78.3125 23.914062 79.292969 22.71875 C 79.816406 22.101562 80.246094 21.582031 81.042969 20.445312 L 81.65625 22.777344 C 81.902344 23.792969 82.148438 24.097656 82.792969 24.097656 C 83.53125 24.097656 84.019531 23.636719 85.15625 21.859375 Z M 84.882812 21.703125 "/>
<path fill-rule="nonzero" fill="rgb(50.196078%, 50.196078%, 50.196078%)" fill-opacity="1" d="M 91.417969 18.972656 C 91.417969 17.46875 91.203125 15.105469 90.128906 12.863281 C 88.964844 10.46875 87.273438 9.179688 87.089844 9.179688 C 86.96875 9.179688 86.875 9.269531 86.875 9.394531 C 86.875 9.453125 86.875 9.484375 87.246094 9.855469 C 89.179688 11.789062 90.285156 14.890625 90.285156 18.972656 C 90.285156 22.347656 89.578125 25.789062 87.152344 28.242188 C 86.875 28.488281 86.875 28.519531 86.875 28.582031 C 86.875 28.703125 86.96875 28.796875 87.089844 28.796875 C 87.273438 28.796875 89.054688 27.445312 90.191406 24.957031 C 91.203125 22.808594 91.417969 20.628906 91.417969 18.972656 Z M 91.417969 18.972656 "/>
<path fill-rule="nonzero" fill="rgb(50.196078%, 50.196078%, 50.196078%)" fill-opacity="1" d="M 111.15625 17.46875 C 111.464844 17.46875 111.832031 17.46875 111.832031 17.097656 C 111.832031 16.699219 111.464844 16.699219 111.1875 16.699219 L 99.460938 16.699219 C 99.183594 16.699219 98.816406 16.699219 98.816406 17.097656 C 98.816406 17.46875 99.183594 17.46875 99.460938 17.46875 Z M 111.1875 21.273438 C 111.464844 21.273438 111.832031 21.273438 111.832031 20.875 C 111.832031 20.507812 111.464844 20.507812 111.15625 20.507812 L 99.460938 20.507812 C 99.183594 20.507812 98.816406 20.507812 98.816406 20.875 C 98.816406 21.273438 99.183594 21.273438 99.460938 21.273438 Z M 111.1875 21.273438 "/>
<path fill-rule="nonzero" fill="rgb(50.196078%, 50.196078%, 50.196078%)" fill-opacity="1" d="M 124.273438 21.734375 C 122.863281 22.902344 122.277344 23.207031 121.417969 23.207031 C 120.3125 23.207031 119.578125 22.503906 119.578125 21.457031 C 119.578125 21.152344 119.636719 20.875 119.792969 20.230469 L 120.34375 20.167969 C 123.261719 19.738281 125.347656 18.265625 125.347656 16.578125 C 125.347656 15.75 124.765625 15.257812 123.78125 15.257812 C 120.957031 15.257812 117.886719 18.480469 117.886719 21.429688 C 117.886719 22.992188 118.933594 24.097656 120.46875 24.097656 C 121.847656 24.097656 123.351562 23.300781 124.519531 21.980469 Z M 120.253906 18.941406 C 120.925781 17.191406 122.371094 15.6875 123.351562 15.6875 C 123.78125 15.6875 124.058594 16.023438 124.058594 16.453125 C 124.058594 17.070312 123.691406 17.773438 123.078125 18.359375 C 122.339844 19.035156 121.601562 19.402344 119.914062 19.800781 Z M 120.253906 18.941406 "/>
<path fill-rule="nonzero" fill="rgb(50.196078%, 50.196078%, 50.196078%)" fill-opacity="1" d="M 131.796875 15.183594 C 131.675781 15.304688 131.613281 15.398438 131.460938 15.550781 C 131.152344 16.011719 130.96875 16.132812 130.816406 16.132812 C 130.601562 16.132812 130.445312 15.949219 130.355469 15.550781 C 130.324219 15.429688 130.324219 15.335938 130.292969 15.304688 C 129.925781 13.832031 129.773438 13.15625 129.773438 12.941406 C 130.417969 11.835938 130.9375 11.191406 131.183594 11.191406 C 131.277344 11.191406 131.398438 11.253906 131.550781 11.316406 C 131.707031 11.40625 131.828125 11.4375 131.921875 11.4375 C 132.226562 11.4375 132.441406 11.222656 132.441406 10.914062 C 132.441406 10.609375 132.195312 10.394531 131.859375 10.394531 C 131.214844 10.394531 130.660156 10.914062 129.648438 12.449219 L 129.496094 11.652344 C 129.3125 10.671875 129.125 10.394531 128.757812 10.394531 C 128.421875 10.394531 127.929688 10.515625 127.039062 10.824219 L 126.886719 10.855469 L 126.945312 11.101562 C 127.5 10.945312 127.621094 10.914062 127.777344 10.914062 C 128.113281 10.914062 128.207031 11.070312 128.421875 11.929688 L 128.820312 13.710938 L 127.652344 15.398438 C 127.347656 15.828125 127.070312 16.105469 126.917969 16.105469 C 126.824219 16.105469 126.671875 16.042969 126.515625 15.980469 C 126.332031 15.859375 126.179688 15.828125 126.058594 15.828125 C 125.78125 15.828125 125.566406 16.042969 125.566406 16.320312 C 125.566406 16.71875 125.871094 16.933594 126.300781 16.933594 C 126.730469 16.933594 126.917969 16.808594 127.652344 15.917969 C 128.023438 15.460938 128.328125 15.058594 128.941406 14.230469 L 129.371094 15.980469 C 129.585938 16.71875 129.773438 16.933594 130.230469 16.933594 C 130.785156 16.933594 131.152344 16.59375 131.980469 15.273438 Z M 131.796875 15.183594 "/>
<path fill="none" stroke-width="0.99628" stroke-linecap="butt" stroke-linejoin="miter" stroke="rgb(100%, 12.941176%, 32.156863%)" stroke-opacity="1" stroke-miterlimit="10" d="M -0.00246197 -0.000244542 L 17.005947 -0.000244542 " transform="matrix(1.964791, 0, 0, -1.964791, 138.313431, 18.011238)"/>
<path fill-rule="nonzero" fill="rgb(50.196078%, 50.196078%, 50.196078%)" fill-opacity="1" d="M 185.863281 15.964844 L 184.667969 15.964844 C 184.605469 15.964844 184.511719 15.902344 184.359375 15.808594 C 183.835938 15.441406 183.191406 15.257812 182.425781 15.257812 C 180.277344 15.257812 178.496094 16.761719 178.496094 18.605469 C 178.496094 19.617188 178.925781 20.199219 180.0625 20.722656 C 178.894531 21.488281 178.558594 21.886719 178.558594 22.347656 C 178.558594 22.625 178.710938 22.839844 179.078125 23.117188 C 177.144531 24.40625 176.777344 24.773438 176.777344 25.695312 C 176.777344 27.046875 178.066406 27.90625 180.0625 27.90625 C 182.515625 27.90625 184.175781 26.769531 184.175781 25.050781 C 184.175781 23.824219 183.222656 22.964844 181.351562 22.472656 C 180.492188 22.257812 180 21.949219 180 21.644531 C 180 21.367188 180.429688 20.84375 180.707031 20.84375 C 180.738281 20.84375 180.765625 20.84375 180.828125 20.875 C 180.980469 20.90625 181.257812 20.9375 181.441406 20.9375 C 183.222656 20.9375 185.066406 19.339844 185.066406 17.804688 C 185.066406 17.5 185.003906 17.097656 184.882812 16.699219 L 185.863281 16.699219 Z M 179.507812 23.332031 C 179.539062 23.332031 179.570312 23.363281 179.632812 23.363281 C 179.691406 23.394531 179.878906 23.453125 180.183594 23.546875 C 182.273438 24.191406 182.976562 24.742188 182.976562 25.632812 C 182.976562 26.707031 181.84375 27.476562 180.335938 27.476562 C 178.773438 27.476562 177.851562 26.738281 177.851562 25.480469 C 177.851562 25.019531 177.972656 24.683594 178.28125 24.3125 C 178.558594 23.976562 179.355469 23.332031 179.507812 23.332031 Z M 182.425781 15.6875 C 183.132812 15.6875 183.53125 16.148438 183.53125 17.070312 C 183.53125 17.742188 183.285156 18.605469 182.917969 19.277344 C 182.488281 20.078125 181.871094 20.507812 181.195312 20.507812 C 180.460938 20.507812 180.03125 19.953125 180.03125 19.035156 C 180.03125 17.253906 181.136719 15.6875 182.425781 15.6875 Z M 182.425781 15.6875 "/>
<path fill-rule="nonzero" fill="rgb(50.196078%, 50.196078%, 50.196078%)" fill-opacity="1" d="M 192.890625 28.582031 C 192.890625 28.519531 192.890625 28.488281 192.550781 28.152344 C 190.125 25.695312 189.480469 21.980469 189.480469 18.972656 C 189.480469 15.5625 190.21875 12.15625 192.644531 9.730469 C 192.890625 9.484375 192.890625 9.453125 192.890625 9.394531 C 192.890625 9.238281 192.828125 9.179688 192.703125 9.179688 C 192.488281 9.179688 190.738281 10.53125 189.574219 13.015625 C 188.589844 15.164062 188.34375 17.34375 188.34375 18.972656 C 188.34375 20.507812 188.558594 22.871094 189.636719 25.113281 C 190.832031 27.507812 192.488281 28.796875 192.703125 28.796875 C 192.828125 28.796875 192.890625 28.734375 192.890625 28.582031 Z M 192.890625 28.582031 "/>
<path fill-rule="nonzero" fill="rgb(50.196078%, 50.196078%, 50.196078%)" fill-opacity="1" d="M 201.863281 21.703125 C 201.710938 21.886719 201.617188 22.011719 201.433594 22.226562 C 201.003906 22.839844 200.757812 23.023438 200.542969 23.023438 C 200.269531 23.023438 200.085938 22.777344 199.929688 22.226562 C 199.898438 22.074219 199.867188 21.949219 199.867188 21.886719 C 199.378906 19.894531 199.164062 19.003906 199.164062 18.726562 C 200.023438 17.191406 200.730469 16.332031 201.066406 16.332031 C 201.1875 16.332031 201.34375 16.394531 201.558594 16.484375 C 201.773438 16.640625 201.925781 16.667969 202.078125 16.667969 C 202.480469 16.667969 202.753906 16.394531 202.753906 15.964844 C 202.753906 15.5625 202.417969 15.257812 201.957031 15.257812 C 201.097656 15.257812 200.359375 15.964844 199.007812 18.050781 L 198.792969 16.976562 C 198.519531 15.625 198.304688 15.257812 197.75 15.257812 C 197.320312 15.257812 196.675781 15.410156 195.480469 15.808594 L 195.265625 15.902344 L 195.324219 16.179688 C 196.09375 16.023438 196.246094 15.964844 196.429688 15.964844 C 196.921875 15.964844 197.042969 16.148438 197.320312 17.3125 L 197.875 19.738281 L 196.277344 22.011719 C 195.878906 22.625 195.480469 22.964844 195.265625 22.964844 C 195.171875 22.964844 194.957031 22.902344 194.773438 22.777344 C 194.527344 22.65625 194.3125 22.59375 194.128906 22.59375 C 193.761719 22.59375 193.484375 22.871094 193.484375 23.269531 C 193.484375 23.792969 193.882812 24.097656 194.464844 24.097656 C 195.050781 24.097656 195.292969 23.914062 196.277344 22.71875 C 196.800781 22.101562 197.230469 21.582031 198.027344 20.445312 L 198.640625 22.777344 C 198.886719 23.792969 199.132812 24.097656 199.777344 24.097656 C 200.515625 24.097656 201.003906 23.636719 202.140625 21.859375 Z M 201.863281 21.703125 "/>
<path fill-rule="nonzero" fill="rgb(50.196078%, 50.196078%, 50.196078%)" fill-opacity="1" d="M 208.402344 18.972656 C 208.402344 17.46875 208.1875 15.105469 207.113281 12.863281 C 205.949219 10.46875 204.257812 9.179688 204.074219 9.179688 C 203.953125 9.179688 203.859375 9.269531 203.859375 9.394531 C 203.859375 9.453125 203.859375 9.484375 204.226562 9.855469 C 206.164062 11.789062 207.265625 14.890625 207.265625 18.972656 C 207.265625 22.347656 206.5625 25.789062 204.136719 28.242188 C 203.859375 28.488281 203.859375 28.519531 203.859375 28.582031 C 203.859375 28.703125 203.953125 28.796875 204.074219 28.796875 C 204.257812 28.796875 206.039062 27.445312 207.175781 24.957031 C 208.1875 22.808594 208.402344 20.628906 208.402344 18.972656 Z M 208.402344 18.972656 "/>
<path fill-rule="nonzero" fill="rgb(50.196078%, 50.196078%, 50.196078%)" fill-opacity="1" d="M 228.140625 17.46875 C 228.445312 17.46875 228.816406 17.46875 228.816406 17.097656 C 228.816406 16.699219 228.445312 16.699219 228.171875 16.699219 L 216.441406 16.699219 C 216.167969 16.699219 215.796875 16.699219 215.796875 17.097656 C 215.796875 17.46875 216.167969 17.46875 216.441406 17.46875 Z M 228.171875 21.273438 C 228.445312 21.273438 228.816406 21.273438 228.816406 20.875 C 228.816406 20.507812 228.445312 20.507812 228.140625 20.507812 L 216.441406 20.507812 C 216.167969 20.507812 215.796875 20.507812 215.796875 20.875 C 215.796875 21.273438 216.167969 21.273438 216.441406 21.273438 Z M 228.171875 21.273438 "/>
<path fill-rule="nonzero" fill="rgb(50.196078%, 50.196078%, 50.196078%)" fill-opacity="1" d="M 243.558594 21.214844 L 243.316406 21.089844 C 242.578125 22.226562 242.332031 22.410156 241.441406 22.410156 L 236.777344 22.410156 L 240.058594 18.941406 C 241.808594 17.128906 242.578125 15.625 242.578125 14.121094 C 242.578125 12.15625 240.980469 10.652344 238.925781 10.652344 C 237.851562 10.652344 236.835938 11.082031 236.128906 11.851562 C 235.484375 12.523438 235.210938 13.140625 234.871094 14.550781 L 235.269531 14.644531 C 236.070312 12.710938 236.777344 12.09375 238.125 12.09375 C 239.753906 12.09375 240.890625 13.199219 240.890625 14.859375 C 240.890625 16.394531 239.96875 18.203125 238.339844 19.953125 L 234.839844 23.636719 L 234.839844 23.882812 L 242.484375 23.882812 Z M 243.558594 21.214844 "/>
<path fill-rule="nonzero" fill="rgb(50.196078%, 50.196078%, 50.196078%)" fill-opacity="1" d="M 249.878906 15.183594 C 249.753906 15.304688 249.695312 15.398438 249.539062 15.550781 C 249.234375 16.011719 249.046875 16.132812 248.894531 16.132812 C 248.679688 16.132812 248.527344 15.949219 248.433594 15.550781 C 248.402344 15.429688 248.402344 15.335938 248.375 15.304688 C 248.003906 13.832031 247.851562 13.15625 247.851562 12.941406 C 248.496094 11.835938 249.019531 11.191406 249.265625 11.191406 C 249.355469 11.191406 249.480469 11.253906 249.632812 11.316406 C 249.785156 11.40625 249.910156 11.4375 250 11.4375 C 250.308594 11.4375 250.523438 11.222656 250.523438 10.914062 C 250.523438 10.609375 250.277344 10.394531 249.9375 10.394531 C 249.292969 10.394531 248.742188 10.914062 247.730469 12.449219 L 247.574219 11.652344 C 247.390625 10.671875 247.207031 10.394531 246.839844 10.394531 C 246.5 10.394531 246.007812 10.515625 245.121094 10.824219 L 244.964844 10.855469 L 245.027344 11.101562 C 245.578125 10.945312 245.703125 10.914062 245.855469 10.914062 C 246.195312 10.914062 246.285156 11.070312 246.5 11.929688 L 246.898438 13.710938 L 245.734375 15.398438 C 245.425781 15.828125 245.148438 16.105469 244.996094 16.105469 C 244.90625 16.105469 244.75 16.042969 244.597656 15.980469 C 244.414062 15.859375 244.257812 15.828125 244.136719 15.828125 C 243.859375 15.828125 243.644531 16.042969 243.644531 16.320312 C 243.644531 16.71875 243.953125 16.933594 244.382812 16.933594 C 244.8125 16.933594 244.996094 16.808594 245.734375 15.917969 C 246.101562 15.460938 246.410156 15.058594 247.023438 14.230469 L 247.453125 15.980469 C 247.667969 16.71875 247.851562 16.933594 248.3125 16.933594 C 248.863281 16.933594 249.234375 16.59375 250.0625 15.273438 Z M 249.878906 15.183594 "/>
<path fill="none" stroke-width="0.99628" stroke-linecap="butt" stroke-linejoin="miter" stroke="rgb(1.176471%, 74.901961%, 23.921569%)" stroke-opacity="1" stroke-miterlimit="10" d="M -0.000423951 -0.000244542 L 17.007985 -0.000244542 " transform="matrix(1.964791, 0, 0, -1.964791, 256.391458, 18.011238)"/>
<path fill-rule="nonzero" fill="rgb(50.196078%, 50.196078%, 50.196078%)" fill-opacity="1" d="M 303.820312 21.582031 C 302.746094 22.933594 302.53125 23.148438 302.195312 23.148438 C 302.039062 23.148438 301.886719 22.964844 301.886719 22.777344 C 301.886719 22.59375 302.195312 21.367188 302.53125 20.351562 C 303.113281 18.480469 303.484375 17.039062 303.484375 16.546875 C 303.484375 15.777344 302.960938 15.257812 302.195312 15.257812 C 300.90625 15.257812 299.523438 16.546875 297.710938 19.371094 L 300.042969 10.589844 L 299.953125 10.5 C 298.816406 10.773438 298.050781 10.898438 296.882812 11.019531 L 296.882812 11.328125 L 297.375 11.328125 C 297.40625 11.328125 297.433594 11.328125 297.433594 11.296875 C 297.710938 11.203125 298.203125 11.511719 298.203125 11.789062 C 298.203125 12.066406 298.078125 12.554688 297.925781 13.140625 C 297.894531 13.140625 297.835938 13.414062 297.710938 13.84375 L 295.070312 23.882812 L 296.546875 23.882812 C 297.3125 20.875 297.589844 20.199219 298.355469 19.003906 C 299.371094 17.46875 300.71875 16.238281 301.394531 16.238281 C 301.703125 16.238281 301.949219 16.484375 301.949219 16.730469 C 301.949219 16.824219 301.886719 17.070312 301.824219 17.375 L 300.75 21.429688 C 300.472656 22.410156 300.351562 22.992188 300.351562 23.238281 C 300.351562 23.761719 300.6875 24.066406 301.210938 24.066406 C 302.195312 24.066406 302.898438 23.546875 304.066406 21.828125 Z M 303.820312 21.582031 "/>
<path fill-rule="nonzero" fill="rgb(50.196078%, 50.196078%, 50.196078%)" fill-opacity="1" d="M 310.96875 28.582031 C 310.96875 28.519531 310.96875 28.488281 310.628906 28.152344 C 308.203125 25.695312 307.558594 21.980469 307.558594 18.972656 C 307.558594 15.5625 308.296875 12.15625 310.722656 9.730469 C 310.96875 9.484375 310.96875 9.453125 310.96875 9.394531 C 310.96875 9.238281 310.90625 9.179688 310.78125 9.179688 C 310.566406 9.179688 308.816406 10.53125 307.652344 13.015625 C 306.667969 15.164062 306.421875 17.34375 306.421875 18.972656 C 306.421875 20.507812 306.636719 22.871094 307.714844 25.113281 C 308.910156 27.507812 310.566406 28.796875 310.78125 28.796875 C 310.90625 28.796875 310.96875 28.734375 310.96875 28.582031 Z M 310.96875 28.582031 "/>
<path fill-rule="nonzero" fill="rgb(50.196078%, 50.196078%, 50.196078%)" fill-opacity="1" d="M 319.945312 21.703125 C 319.792969 21.886719 319.699219 22.011719 319.515625 22.226562 C 319.085938 22.839844 318.839844 23.023438 318.625 23.023438 C 318.347656 23.023438 318.164062 22.777344 318.011719 22.226562 C 317.980469 22.074219 317.949219 21.949219 317.949219 21.886719 C 317.457031 19.894531 317.242188 19.003906 317.242188 18.726562 C 318.101562 17.191406 318.808594 16.332031 319.144531 16.332031 C 319.269531 16.332031 319.421875 16.394531 319.636719 16.484375 C 319.851562 16.640625 320.007812 16.667969 320.160156 16.667969 C 320.558594 16.667969 320.835938 16.394531 320.835938 15.964844 C 320.835938 15.5625 320.496094 15.257812 320.035156 15.257812 C 319.175781 15.257812 318.441406 15.964844 317.089844 18.050781 L 316.875 16.976562 C 316.597656 15.625 316.382812 15.257812 315.832031 15.257812 C 315.402344 15.257812 314.757812 15.410156 313.558594 15.808594 L 313.34375 15.902344 L 313.40625 16.179688 C 314.171875 16.023438 314.328125 15.964844 314.511719 15.964844 C 315 15.964844 315.125 16.148438 315.402344 17.3125 L 315.953125 19.738281 L 314.355469 22.011719 C 313.957031 22.625 313.558594 22.964844 313.34375 22.964844 C 313.253906 22.964844 313.039062 22.902344 312.851562 22.777344 C 312.605469 22.65625 312.390625 22.59375 312.207031 22.59375 C 311.839844 22.59375 311.5625 22.871094 311.5625 23.269531 C 311.5625 23.792969 311.960938 24.097656 312.546875 24.097656 C 313.128906 24.097656 313.375 23.914062 314.355469 22.71875 C 314.878906 22.101562 315.308594 21.582031 316.105469 20.445312 L 316.722656 22.777344 C 316.964844 23.792969 317.210938 24.097656 317.855469 24.097656 C 318.59375 24.097656 319.085938 23.636719 320.222656 21.859375 Z M 319.945312 21.703125 "/>
<path fill-rule="nonzero" fill="rgb(50.196078%, 50.196078%, 50.196078%)" fill-opacity="1" d="M 326.484375 18.972656 C 326.484375 17.46875 326.269531 15.105469 325.195312 12.863281 C 324.027344 10.46875 322.339844 9.179688 322.15625 9.179688 C 322.03125 9.179688 321.941406 9.269531 321.941406 9.394531 C 321.941406 9.453125 321.941406 9.484375 322.308594 9.855469 C 324.242188 11.789062 325.347656 14.890625 325.347656 18.972656 C 325.347656 22.347656 324.640625 25.789062 322.214844 28.242188 C 321.941406 28.488281 321.941406 28.519531 321.941406 28.582031 C 321.941406 28.703125 322.03125 28.796875 322.15625 28.796875 C 322.339844 28.796875 324.121094 27.445312 325.253906 24.957031 C 326.269531 22.808594 326.484375 20.628906 326.484375 18.972656 Z M 326.484375 18.972656 "/>
<path fill-rule="nonzero" fill="rgb(50.196078%, 50.196078%, 50.196078%)" fill-opacity="1" d="M 346.21875 17.46875 C 346.527344 17.46875 346.894531 17.46875 346.894531 17.097656 C 346.894531 16.699219 346.527344 16.699219 346.25 16.699219 L 334.523438 16.699219 C 334.246094 16.699219 333.878906 16.699219 333.878906 17.097656 C 333.878906 17.46875 334.246094 17.46875 334.523438 17.46875 Z M 346.25 21.273438 C 346.527344 21.273438 346.894531 21.273438 346.894531 20.875 C 346.894531 20.507812 346.527344 20.507812 346.21875 20.507812 L 334.523438 20.507812 C 334.246094 20.507812 333.878906 20.507812 333.878906 20.875 C 333.878906 21.273438 334.246094 21.273438 334.523438 21.273438 Z M 346.25 21.273438 "/>
<path fill-rule="nonzero" fill="rgb(50.196078%, 50.196078%, 50.196078%)" fill-opacity="1" d="M 357.3125 10.652344 C 356.238281 10.652344 355.40625 10.988281 354.703125 11.664062 C 353.566406 12.769531 352.796875 15.011719 352.796875 17.3125 C 352.796875 19.433594 353.441406 21.734375 354.363281 22.839844 C 355.101562 23.699219 356.082031 24.160156 357.25 24.160156 C 358.234375 24.160156 359.0625 23.824219 359.765625 23.148438 C 360.902344 22.074219 361.671875 19.800781 361.671875 17.40625 C 361.671875 13.414062 359.890625 10.652344 357.3125 10.652344 Z M 357.25 11.144531 C 358.90625 11.144531 359.765625 13.355469 359.765625 17.46875 C 359.765625 21.550781 358.90625 23.636719 357.25 23.636719 C 355.5625 23.636719 354.703125 21.550781 354.703125 17.46875 C 354.703125 13.324219 355.5625 11.144531 357.25 11.144531 Z M 357.25 11.144531 "/>
<path fill-rule="nonzero" fill="rgb(50.196078%, 50.196078%, 50.196078%)" fill-opacity="1" d="M 365.871094 22.839844 C 365.871094 22.289062 365.410156 21.796875 364.855469 21.796875 C 364.273438 21.796875 363.8125 22.289062 363.8125 22.839844 C 363.8125 23.421875 364.273438 23.882812 364.855469 23.882812 C 365.410156 23.882812 365.871094 23.421875 365.871094 22.839844 Z M 365.871094 22.839844 "/>
<path fill-rule="nonzero" fill="rgb(50.196078%, 50.196078%, 50.196078%)" fill-opacity="1" d="M 371.078125 12.464844 L 374.945312 12.464844 C 375.253906 12.464844 375.316406 12.433594 375.375 12.28125 L 376.113281 10.558594 L 375.960938 10.40625 C 375.652344 10.804688 375.46875 10.929688 375.039062 10.929688 L 370.957031 10.929688 L 368.804688 15.5625 C 368.804688 15.59375 368.804688 15.625 368.804688 15.65625 C 368.804688 15.75 368.867188 15.808594 369.019531 15.808594 C 369.664062 15.808594 370.433594 15.964844 371.261719 16.210938 C 373.503906 16.945312 374.546875 18.144531 374.546875 20.078125 C 374.546875 21.949219 373.351562 23.421875 371.816406 23.421875 C 371.414062 23.421875 371.078125 23.300781 370.496094 22.871094 C 369.878906 22.410156 369.421875 22.226562 369.019531 22.226562 C 368.4375 22.226562 368.160156 22.441406 368.160156 22.933594 C 368.160156 23.699219 369.082031 24.160156 370.554688 24.160156 C 372.214844 24.160156 373.625 23.636719 374.609375 22.625 C 375.5 21.734375 375.898438 20.628906 375.898438 19.15625 C 375.898438 17.742188 375.53125 16.824219 374.546875 15.839844 C 373.6875 14.980469 372.582031 14.550781 370.28125 14.121094 Z M 371.078125 12.464844 "/>
<path fill-rule="nonzero" fill="rgb(50.196078%, 50.196078%, 50.196078%)" fill-opacity="1" d="M 383.167969 15.183594 C 383.042969 15.304688 382.984375 15.398438 382.828125 15.550781 C 382.523438 16.011719 382.339844 16.132812 382.183594 16.132812 C 381.96875 16.132812 381.816406 15.949219 381.722656 15.550781 C 381.695312 15.429688 381.695312 15.335938 381.664062 15.304688 C 381.292969 13.832031 381.140625 13.15625 381.140625 12.941406 C 381.785156 11.835938 382.308594 11.191406 382.554688 11.191406 C 382.644531 11.191406 382.769531 11.253906 382.921875 11.316406 C 383.074219 11.40625 383.199219 11.4375 383.289062 11.4375 C 383.597656 11.4375 383.8125 11.222656 383.8125 10.914062 C 383.8125 10.609375 383.566406 10.394531 383.230469 10.394531 C 382.582031 10.394531 382.03125 10.914062 381.019531 12.449219 L 380.863281 11.652344 C 380.679688 10.671875 380.496094 10.394531 380.128906 10.394531 C 379.789062 10.394531 379.300781 10.515625 378.410156 10.824219 L 378.253906 10.855469 L 378.316406 11.101562 C 378.871094 10.945312 378.992188 10.914062 379.144531 10.914062 C 379.484375 10.914062 379.574219 11.070312 379.789062 11.929688 L 380.1875 13.710938 L 379.023438 15.398438 C 378.714844 15.828125 378.4375 16.105469 378.285156 16.105469 C 378.195312 16.105469 378.039062 16.042969 377.886719 15.980469 C 377.703125 15.859375 377.550781 15.828125 377.425781 15.828125 C 377.148438 15.828125 376.933594 16.042969 376.933594 16.320312 C 376.933594 16.71875 377.242188 16.933594 377.671875 16.933594 C 378.101562 16.933594 378.285156 16.808594 379.023438 15.917969 C 379.390625 15.460938 379.699219 15.058594 380.3125 14.230469 L 380.742188 15.980469 C 380.957031 16.71875 381.140625 16.933594 381.601562 16.933594 C 382.152344 16.933594 382.523438 16.59375 383.351562 15.273438 Z M 383.167969 15.183594 "/>
</svg>
