<?xml version="1.0" encoding="UTF-8"?>
<svg xmlns="http://www.w3.org/2000/svg" xmlns:xlink="http://www.w3.org/1999/xlink" width="400" height="479.576197" viewBox="0 0 400 479.576197">
<defs>
<clipPath id="clip-0">
<path clip-rule="nonzero" d="M 21 82.339844 L 379 82.339844 L 379 476.804688 L 21 476.804688 Z M 21 82.339844 "/>
</clipPath>
</defs>
<path fill="none" stroke-width="0.09962" stroke-linecap="butt" stroke-linejoin="miter" stroke="rgb(69.803922%, 69.803922%, 69.803922%)" stroke-opacity="1" stroke-dasharray="2.98883 2.98883" stroke-miterlimit="10" d="M 18.711152 0.00206264 L 18.711152 99.782931 M 81.074812 0.00206264 L 81.074812 99.782931 " transform="matrix(3.953311, 0, 0, -3.953311, 2.763365, 476.812842)"/>
<path fill="none" stroke-width="0.09962" stroke-linecap="butt" stroke-linejoin="miter" stroke="rgb(69.803922%, 69.803922%, 69.803922%)" stroke-opacity="1" stroke-dasharray="2.98883 2.98883" stroke-miterlimit="10" d="M 0.000571755 18.70869 L 99.78144 18.70869 M 0.000571755 81.076303 L 99.78144 81.076303 " transform="matrix(3.953311, 0, 0, -3.953311, 2.763365, 476.812842)"/>
<path fill="none" stroke-width="0.19925" stroke-linecap="butt" stroke-linejoin="miter" stroke="rgb(50.196078%, 50.196078%, 50.196078%)" stroke-opacity="1" stroke-miterlimit="10" d="M 18.711152 47.767597 L 18.711152 52.017397 M 81.074812 47.767597 L 81.074812 52.017397 " transform="matrix(3.953311, 0, 0, -3.953311, 2.763365, 476.812842)"/>
<path fill="none" stroke-width="0.19925" stroke-linecap="butt" stroke-linejoin="miter" stroke="rgb(50.196078%, 50.196078%, 50.196078%)" stroke-opacity="1" stroke-miterlimit="10" d="M 47.766106 18.70869 L 52.015906 18.70869 M 47.766106 81.076303 L 52.015906 81.076303 " transform="matrix(3.953311, 0, 0, -3.953311, 2.763365, 476.812842)"/>
<path fill="none" stroke-width="0.3985" stroke-linecap="butt" stroke-linejoin="miter" stroke="rgb(50.196078%, 50.196078%, 50.196078%)" stroke-opacity="1" stroke-miterlimit="10" d="M 0.000571755 49.892003 L 97.789439 49.892003 " transform="matrix(3.953311, 0, 0, -3.953311, 2.763365, 476.812842)"/>
<path fill-rule="nonzero" fill="rgb(50.196078%, 50.196078%, 50.196078%)" fill-opacity="1" d="M 397.230469 279.574219 L 384.628906 273.273438 L 389.355469 279.574219 L 384.628906 285.875 "/>
<path fill="none" stroke-width="0.3985" stroke-linecap="butt" stroke-linejoin="miter" stroke="rgb(50.196078%, 50.196078%, 50.196078%)" stroke-opacity="1" stroke-miterlimit="10" d="M 49.890512 0.00206264 L 49.890512 97.79093 " transform="matrix(3.953311, 0, 0, -3.953311, 2.763365, 476.812842)"/>
<path fill-rule="nonzero" fill="rgb(50.196078%, 50.196078%, 50.196078%)" fill-opacity="1" d="M 199.996094 82.339844 L 193.695312 94.941406 L 199.996094 90.214844 L 206.296875 94.941406 "/>
<path fill-rule="nonzero" fill="rgb(50.196078%, 50.196078%, 50.196078%)" fill-opacity="1" d="M 77.523438 319.164062 C 78.203125 319.164062 78.941406 319.164062 78.941406 318.359375 C 78.941406 317.617188 78.203125 317.617188 77.523438 317.617188 L 56.210938 317.617188 C 55.53125 317.617188 54.851562 317.617188 54.851562 318.359375 C 54.851562 319.164062 55.53125 319.164062 56.210938 319.164062 Z M 77.523438 319.164062 "/>
<path fill-rule="nonzero" fill="rgb(50.196078%, 50.196078%, 50.196078%)" fill-opacity="1" d="M 93.671875 301.621094 L 86.566406 305.203125 L 86.566406 305.757812 C 87 305.574219 87.433594 305.386719 87.617188 305.328125 C 88.359375 305.019531 88.976562 304.894531 89.410156 304.894531 C 90.210938 304.894531 90.582031 305.449219 90.582031 306.746094 L 90.582031 324.597656 C 90.582031 325.894531 90.273438 326.761719 89.65625 327.132812 C 89.039062 327.503906 88.480469 327.625 86.8125 327.625 L 86.8125 328.242188 L 97.6875 328.242188 L 97.6875 327.625 C 94.597656 327.625 93.980469 327.191406 93.980469 325.339844 L 93.980469 301.683594 Z M 93.671875 301.621094 "/>
<path fill-rule="nonzero" fill="rgb(50.196078%, 50.196078%, 50.196078%)" fill-opacity="1" d="M 324.910156 301.621094 L 317.808594 305.203125 L 317.808594 305.757812 C 318.242188 305.574219 318.671875 305.386719 318.859375 305.328125 C 319.597656 305.019531 320.21875 304.894531 320.648438 304.894531 C 321.453125 304.894531 321.824219 305.449219 321.824219 306.746094 L 321.824219 324.597656 C 321.824219 325.894531 321.515625 326.761719 320.898438 327.132812 C 320.277344 327.503906 319.722656 327.625 318.054688 327.625 L 318.054688 328.242188 L 328.925781 328.242188 L 328.925781 327.625 C 325.839844 327.625 325.21875 327.191406 325.21875 325.339844 L 325.21875 301.683594 Z M 324.910156 301.621094 "/>
<path fill-rule="nonzero" fill="rgb(50.196078%, 50.196078%, 50.196078%)" fill-opacity="1" d="M 153.328125 405.308594 C 154.007812 405.308594 154.746094 405.308594 154.746094 404.507812 C 154.746094 403.765625 154.007812 403.765625 153.328125 403.765625 L 132.015625 403.765625 C 131.335938 403.765625 130.65625 403.765625 130.65625 404.507812 C 130.65625 405.308594 131.335938 405.308594 132.015625 405.308594 Z M 153.328125 405.308594 "/>
<path fill-rule="nonzero" fill="rgb(50.196078%, 50.196078%, 50.196078%)" fill-opacity="1" d="M 169.476562 387.765625 L 162.371094 391.351562 L 162.371094 391.90625 C 162.804688 391.71875 163.238281 391.535156 163.421875 391.472656 C 164.164062 391.164062 164.78125 391.039062 165.214844 391.039062 C 166.015625 391.039062 166.386719 391.597656 166.386719 392.894531 L 166.386719 410.746094 C 166.386719 412.042969 166.078125 412.90625 165.460938 413.277344 C 164.84375 413.648438 164.285156 413.773438 162.617188 413.773438 L 162.617188 414.390625 L 173.492188 414.390625 L 173.492188 413.773438 C 170.402344 413.773438 169.785156 413.339844 169.785156 411.488281 L 169.785156 387.828125 Z M 169.476562 387.765625 "/>
<path fill-rule="nonzero" fill="rgb(50.196078%, 50.196078%, 50.196078%)" fill-opacity="1" d="M 169.476562 142.855469 L 162.371094 146.4375 L 162.371094 146.992188 C 162.804688 146.808594 163.238281 146.625 163.421875 146.5625 C 164.164062 146.253906 164.78125 146.128906 165.214844 146.128906 C 166.015625 146.128906 166.386719 146.683594 166.386719 147.980469 L 166.386719 165.835938 C 166.386719 167.132812 166.078125 167.996094 165.460938 168.367188 C 164.84375 168.738281 164.285156 168.859375 162.617188 168.859375 L 162.617188 169.476562 L 173.492188 169.476562 L 173.492188 168.859375 C 170.402344 168.859375 169.785156 168.429688 169.785156 166.574219 L 169.785156 142.917969 Z M 169.476562 142.855469 "/>
<g clip-path="url(#clip-0)">
<path fill="none" stroke-width="0.99628" stroke-linecap="butt" stroke-linejoin="miter" stroke="rgb(6.666667%, 52.941176%, 87.058824%)" stroke-opacity="1" stroke-miterlimit="10" d="M 18.711152 0.912099 L 19.339581 7.189471 L 19.968998 9.805948 L 20.597427 11.821663 L 21.230796 13.533045 L 21.859225 15.044832 L 22.488642 16.423225 L 23.117071 17.69688 L 23.75044 18.884571 L 24.378869 20.009024 L 25.008286 21.08012 L 25.636715 22.102799 L 26.270084 23.087931 L 26.898513 24.036502 L 27.52793 24.954443 L 28.156359 25.845706 L 28.789728 26.712266 L 29.418157 27.556099 L 30.047574 28.380171 L 30.676003 29.189422 L 31.308384 29.981874 L 31.937801 30.759506 L 32.56623 31.52528 L 33.195647 32.275244 L 33.828028 33.017304 L 34.457445 33.743555 L 35.085874 34.466841 L 35.719243 35.177281 L 36.347672 35.880806 L 36.977089 36.575437 L 37.605518 37.263152 L 38.238887 37.946914 L 38.867316 38.622771 L 39.496733 39.294676 L 40.125162 39.958677 L 40.757543 40.618725 L 42.015389 41.930916 L 42.644806 42.580094 L 43.277187 43.224333 L 43.906604 43.868571 L 44.535033 44.509845 L 45.16445 45.146179 L 45.796831 45.782513 L 46.426248 46.419834 L 47.684094 47.685585 L 48.316475 48.314014 L 48.945892 48.947383 L 50.203738 50.205229 L 50.836119 50.833658 L 51.465536 51.466039 L 52.726346 52.727837 L 53.355763 53.361207 L 54.613609 54.634862 L 55.24599 55.271196 L 55.875407 55.911482 L 57.133253 57.200947 L 57.765635 57.849137 L 58.395051 58.501281 L 59.652897 59.822364 L 60.285279 60.486365 L 60.914696 61.15827 L 61.543124 61.834127 L 62.172541 62.516901 L 62.804923 63.204616 L 63.433351 63.900235 L 64.062768 64.602771 L 64.691197 65.3142 L 65.324567 66.036498 L 65.952995 66.763737 L 66.582412 67.505797 L 67.210841 68.255761 L 67.844211 69.021535 L 68.47264 69.798179 L 69.102056 70.587667 L 69.730485 71.395929 L 70.363855 72.223954 L 70.992284 73.067787 L 71.621701 73.935335 L 72.254082 74.82561 L 72.883499 75.74355 L 73.511928 76.69311 L 74.140356 77.673301 L 74.773726 78.696969 L 75.402155 79.767076 L 76.031572 80.892517 L 76.660001 82.083172 L 77.29337 83.352875 L 77.921799 84.732257 L 78.551216 86.244043 L 79.179645 87.950485 L 79.813014 89.9662 L 80.441443 92.579713 L 81.07086 98.747406 " transform="matrix(3.953311, 0, 0, -3.953311, 2.763365, 476.812842)"/>
</g>
<path fill="none" stroke-width="0.3985" stroke-linecap="butt" stroke-linejoin="miter" stroke="rgb(50.196078%, 50.196078%, 50.196078%)" stroke-opacity="1" stroke-miterlimit="10" d="M 1.504453 102.97448 L 98.277558 102.97448 L 98.277558 119.911428 L 1.504453 119.911428 Z M 1.504453 102.97448 " transform="matrix(3.953311, 0, 0, -3.953311, 2.763365, 476.812842)"/>
<path fill="none" stroke-width="0.99628" stroke-linecap="butt" stroke-linejoin="miter" stroke="rgb(6.666667%, 52.941176%, 87.058824%)" stroke-opacity="1" stroke-miterlimit="10" d="M 0.000431252 0.00044831 L 17.008523 0.00044831 " transform="matrix(3.953311, 0, 0, -3.953311, 22.498295, 36.24396)"/>
<path fill-rule="nonzero" fill="rgb(50.196078%, 50.196078%, 50.196078%)" fill-opacity="1" d="M 106.847656 32.433594 L 110.433594 32.433594 L 106.972656 48.988281 C 106.109375 53.25 104.8125 55.410156 103.144531 55.410156 C 102.648438 55.410156 102.339844 55.101562 102.339844 54.730469 C 102.339844 54.667969 102.402344 54.546875 102.523438 54.300781 C 102.648438 54.113281 102.710938 53.929688 102.710938 53.679688 C 102.710938 52.878906 101.96875 52.199219 101.167969 52.199219 C 100.300781 52.199219 99.683594 52.878906 99.683594 53.804688 C 99.683594 55.164062 101.105469 56.214844 102.835938 56.214844 C 106.292969 56.214844 109.074219 52.324219 110.679688 45.09375 L 113.519531 32.433594 L 117.84375 32.433594 L 118.089844 31.195312 L 113.828125 31.195312 C 114.941406 25.019531 116.421875 22.179688 118.585938 22.179688 C 119.140625 22.179688 119.449219 22.425781 119.449219 22.671875 C 119.449219 22.796875 119.449219 22.859375 119.328125 23.105469 C 119.140625 23.414062 119.078125 23.597656 119.078125 23.90625 C 119.078125 24.835938 119.699219 25.453125 120.5625 25.453125 C 121.425781 25.453125 122.230469 24.773438 122.230469 23.90625 C 122.230469 22.425781 120.746094 21.3125 118.832031 21.3125 C 116.855469 21.3125 115.375 22.179688 113.953125 24.03125 C 112.71875 25.574219 111.976562 27.429688 110.742188 31.195312 L 107.15625 31.195312 Z M 106.847656 32.433594 "/>
<path fill-rule="nonzero" fill="rgb(50.196078%, 50.196078%, 50.196078%)" fill-opacity="1" d="M 135.222656 57.511719 C 135.222656 57.386719 135.222656 57.324219 134.542969 56.648438 C 129.664062 51.703125 128.367188 44.230469 128.367188 38.175781 C 128.367188 31.320312 129.847656 24.464844 134.726562 19.585938 C 135.222656 19.089844 135.222656 19.027344 135.222656 18.90625 C 135.222656 18.597656 135.097656 18.472656 134.851562 18.472656 C 134.417969 18.472656 130.898438 21.191406 128.550781 26.195312 C 126.574219 30.519531 126.082031 34.902344 126.082031 38.175781 C 126.082031 41.265625 126.511719 46.023438 128.675781 50.53125 C 131.082031 55.347656 134.417969 57.945312 134.851562 57.945312 C 135.097656 57.945312 135.222656 57.820312 135.222656 57.511719 Z M 135.222656 57.511719 "/>
<path fill-rule="nonzero" fill="rgb(50.196078%, 50.196078%, 50.196078%)" fill-opacity="1" d="M 153.28125 43.675781 C 152.972656 44.046875 152.789062 44.292969 152.417969 44.726562 C 151.550781 45.960938 151.058594 46.332031 150.625 46.332031 C 150.070312 46.332031 149.699219 45.835938 149.390625 44.726562 C 149.328125 44.414062 149.265625 44.167969 149.265625 44.046875 C 148.277344 40.03125 147.847656 38.238281 147.847656 37.683594 C 149.574219 34.59375 150.996094 32.863281 151.675781 32.863281 C 151.921875 32.863281 152.230469 32.988281 152.664062 33.171875 C 153.097656 33.484375 153.40625 33.542969 153.714844 33.542969 C 154.515625 33.542969 155.074219 32.988281 155.074219 32.125 C 155.074219 31.320312 154.394531 30.703125 153.46875 30.703125 C 151.738281 30.703125 150.253906 32.125 147.535156 36.324219 L 147.105469 34.160156 C 146.546875 31.445312 146.117188 30.703125 145.003906 30.703125 C 144.140625 30.703125 142.84375 31.011719 140.433594 31.816406 L 140 32 L 140.125 32.554688 C 141.667969 32.246094 141.976562 32.125 142.347656 32.125 C 143.335938 32.125 143.582031 32.496094 144.140625 34.839844 L 145.25 39.722656 L 142.039062 44.292969 C 141.238281 45.527344 140.433594 46.207031 140 46.207031 C 139.816406 46.207031 139.382812 46.082031 139.011719 45.835938 C 138.519531 45.589844 138.085938 45.464844 137.714844 45.464844 C 136.972656 45.464844 136.417969 46.023438 136.417969 46.824219 C 136.417969 47.875 137.222656 48.492188 138.394531 48.492188 C 139.570312 48.492188 140.0625 48.121094 142.039062 45.714844 C 143.089844 44.476562 143.953125 43.425781 145.558594 41.140625 L 146.796875 45.835938 C 147.289062 47.875 147.785156 48.492188 149.082031 48.492188 C 150.5625 48.492188 151.550781 47.566406 153.835938 43.984375 Z M 153.28125 43.675781 "/>
<path fill-rule="nonzero" fill="rgb(50.196078%, 50.196078%, 50.196078%)" fill-opacity="1" d="M 166.4375 38.175781 C 166.4375 35.148438 166.007812 30.394531 163.84375 25.886719 C 161.496094 21.066406 158.097656 18.472656 157.730469 18.472656 C 157.480469 18.472656 157.296875 18.65625 157.296875 18.90625 C 157.296875 19.027344 157.296875 19.089844 158.039062 19.832031 C 161.929688 23.722656 164.152344 29.960938 164.152344 38.175781 C 164.152344 44.972656 162.730469 51.890625 157.851562 56.832031 C 157.296875 57.324219 157.296875 57.386719 157.296875 57.511719 C 157.296875 57.757812 157.480469 57.945312 157.730469 57.945312 C 158.097656 57.945312 161.683594 55.226562 163.96875 50.222656 C 166.007812 45.898438 166.4375 41.511719 166.4375 38.175781 Z M 166.4375 38.175781 "/>
<path fill-rule="nonzero" fill="rgb(50.196078%, 50.196078%, 50.196078%)" fill-opacity="1" d="M 206.148438 35.148438 C 206.765625 35.148438 207.507812 35.148438 207.507812 34.410156 C 207.507812 33.605469 206.765625 33.605469 206.210938 33.605469 L 182.613281 33.605469 C 182.058594 33.605469 181.316406 33.605469 181.316406 34.410156 C 181.316406 35.148438 182.058594 35.148438 182.613281 35.148438 Z M 206.210938 42.808594 C 206.765625 42.808594 207.507812 42.808594 207.507812 42.007812 C 207.507812 41.265625 206.765625 41.265625 206.148438 41.265625 L 182.613281 41.265625 C 182.058594 41.265625 181.316406 41.265625 181.316406 42.007812 C 181.316406 42.808594 182.058594 42.808594 182.613281 42.808594 Z M 206.210938 42.808594 "/>
<path fill-rule="nonzero" fill="rgb(50.196078%, 50.196078%, 50.196078%)" fill-opacity="1" d="M 235.878906 45.464844 C 235.199219 46.023438 234.707031 46.207031 234.148438 46.207031 C 233.222656 46.207031 232.976562 45.652344 232.976562 43.921875 L 232.976562 36.261719 C 232.976562 34.160156 232.789062 33.050781 232.171875 32.125 C 231.308594 30.703125 229.640625 29.960938 227.292969 29.960938 C 223.585938 29.960938 220.683594 31.875 220.683594 34.347656 C 220.683594 35.273438 221.425781 36.015625 222.351562 36.015625 C 223.277344 36.015625 224.144531 35.273438 224.144531 34.410156 C 224.144531 34.222656 224.082031 34.039062 224.082031 33.730469 C 223.957031 33.421875 223.957031 33.113281 223.957031 32.804688 C 223.957031 31.753906 225.191406 30.886719 226.800781 30.886719 C 228.714844 30.886719 229.765625 32 229.765625 34.160156 L 229.765625 36.570312 C 223.710938 38.980469 223.03125 39.289062 221.363281 40.832031 C 220.5 41.574219 219.941406 42.933594 219.941406 44.230469 C 219.941406 46.703125 221.671875 48.429688 224.082031 48.429688 C 225.8125 48.429688 227.417969 47.628906 229.824219 45.589844 C 230.011719 47.628906 230.691406 48.429688 232.359375 48.429688 C 233.65625 48.429688 234.519531 48 235.878906 46.453125 Z M 229.765625 43.242188 C 229.765625 44.414062 229.578125 44.785156 228.777344 45.28125 C 227.789062 45.835938 226.675781 46.144531 225.871094 46.144531 C 224.511719 46.144531 223.402344 44.847656 223.402344 43.117188 L 223.402344 42.996094 C 223.402344 40.648438 225.007812 39.226562 229.765625 37.496094 Z M 229.765625 43.242188 "/>
<path fill-rule="nonzero" fill="rgb(50.196078%, 50.196078%, 50.196078%)" fill-opacity="1" d="M 236.195312 32.679688 C 236.75 32.554688 237.121094 32.554688 237.613281 32.554688 C 238.601562 32.554688 238.910156 33.171875 238.910156 34.902344 L 238.910156 44.726562 C 238.910156 46.703125 238.664062 47.011719 236.132812 47.441406 L 236.132812 48.058594 L 245.582031 48.058594 L 245.582031 47.441406 C 242.925781 47.382812 242.246094 46.761719 242.246094 44.539062 L 242.246094 35.644531 C 242.246094 34.410156 243.976562 32.433594 245.027344 32.433594 C 245.273438 32.433594 245.582031 32.617188 246.015625 32.988281 C 246.695312 33.542969 247.128906 33.792969 247.621094 33.792969 C 248.546875 33.792969 249.164062 33.113281 249.164062 32 C 249.164062 30.703125 248.300781 29.960938 247.003906 29.960938 C 245.335938 29.960938 244.164062 30.828125 242.246094 33.605469 L 242.246094 30.023438 L 242.0625 29.960938 C 239.960938 30.828125 238.542969 31.320312 236.195312 32.0625 Z M 236.195312 32.679688 "/>
<path fill-rule="nonzero" fill="rgb(50.196078%, 50.196078%, 50.196078%)" fill-opacity="1" d="M 264.753906 41.882812 C 262.835938 44.664062 261.417969 45.589844 259.191406 45.589844 C 255.609375 45.589844 253.078125 42.4375 253.078125 37.929688 C 253.078125 33.851562 255.238281 31.074219 258.453125 31.074219 C 259.871094 31.074219 260.367188 31.507812 260.738281 32.988281 L 260.984375 33.851562 C 261.292969 34.964844 262.035156 35.644531 262.835938 35.644531 C 263.886719 35.644531 264.753906 34.902344 264.753906 33.976562 C 264.753906 31.816406 261.972656 29.960938 258.699219 29.960938 C 256.722656 29.960938 254.746094 30.703125 253.140625 32.125 C 251.164062 33.851562 250.050781 36.570312 250.050781 39.660156 C 250.050781 44.785156 253.140625 48.429688 257.523438 48.429688 C 259.316406 48.429688 260.859375 47.8125 262.28125 46.578125 C 263.394531 45.652344 264.132812 44.601562 265.308594 42.253906 Z M 264.753906 41.882812 "/>
<path fill-rule="nonzero" fill="rgb(50.196078%, 50.196078%, 50.196078%)" fill-opacity="1" d="M 278.964844 35.707031 L 278.78125 30.332031 L 278.347656 30.332031 L 278.285156 30.394531 C 277.914062 30.703125 277.914062 30.703125 277.730469 30.703125 C 277.484375 30.703125 277.113281 30.640625 276.679688 30.457031 C 275.816406 30.148438 274.949219 29.960938 273.898438 29.960938 C 270.8125 29.960938 268.585938 32 268.585938 34.839844 C 268.585938 37.003906 269.824219 38.609375 273.160156 40.523438 L 275.445312 41.820312 C 276.863281 42.5625 277.484375 43.550781 277.484375 44.726562 C 277.484375 46.453125 276.246094 47.566406 274.207031 47.566406 C 272.910156 47.566406 271.675781 47.070312 270.933594 46.207031 C 270.070312 45.21875 269.761719 44.292969 269.207031 42.070312 L 268.585938 42.070312 L 268.585938 48.246094 L 269.082031 48.246094 C 269.390625 47.8125 269.515625 47.75 270.007812 47.75 C 270.378906 47.75 270.933594 47.8125 271.800781 48.058594 C 272.910156 48.308594 274.023438 48.429688 274.703125 48.429688 C 277.730469 48.429688 280.261719 46.144531 280.261719 43.425781 C 280.261719 41.449219 279.335938 40.152344 276.925781 38.734375 L 272.726562 36.199219 C 271.613281 35.582031 270.996094 34.59375 270.996094 33.542969 C 270.996094 31.9375 272.230469 30.828125 274.023438 30.828125 C 276.308594 30.828125 277.484375 32.183594 278.347656 35.707031 Z M 278.964844 35.707031 "/>
<path fill-rule="nonzero" fill="rgb(50.196078%, 50.196078%, 50.196078%)" fill-opacity="1" d="M 297.929688 41.574219 C 296.078125 44.601562 294.347656 45.714844 291.816406 45.714844 C 289.589844 45.714844 287.921875 44.601562 286.75 42.316406 C 286.070312 40.832031 285.761719 39.535156 285.699219 37.128906 L 297.808594 37.128906 C 297.5 34.59375 297.128906 33.421875 296.140625 32.183594 C 294.964844 30.765625 293.113281 29.960938 291.074219 29.960938 C 289.097656 29.960938 287.246094 30.640625 285.761719 32 C 283.910156 33.605469 282.859375 36.386719 282.859375 39.597656 C 282.859375 45.09375 285.699219 48.429688 290.210938 48.429688 C 293.976562 48.429688 296.941406 46.144531 298.609375 41.882812 Z M 285.761719 35.890625 C 286.195312 32.804688 287.554688 31.320312 289.960938 31.320312 C 292.371094 31.320312 293.296875 32.433594 293.792969 35.890625 Z M 285.761719 35.890625 "/>
<path fill-rule="nonzero" fill="rgb(50.196078%, 50.196078%, 50.196078%)" fill-opacity="1" d="M 299.976562 32.371094 C 300.222656 32.246094 300.59375 32.246094 301.023438 32.246094 C 302.136719 32.246094 302.507812 32.804688 302.507812 34.71875 L 302.507812 44.539062 C 302.507812 46.761719 302.074219 47.320312 300.035156 47.441406 L 300.035156 48.058594 L 308.4375 48.058594 L 308.4375 47.441406 C 306.398438 47.320312 305.84375 46.824219 305.84375 45.402344 L 305.84375 34.347656 C 307.695312 32.554688 308.5625 32.125 309.859375 32.125 C 311.835938 32.125 312.761719 33.296875 312.761719 35.890625 L 312.761719 44.167969 C 312.761719 46.640625 312.265625 47.320312 310.289062 47.441406 L 310.289062 48.058594 L 318.445312 48.058594 L 318.445312 47.441406 C 316.53125 47.257812 316.097656 46.824219 316.097656 44.847656 L 316.097656 35.828125 C 316.097656 32.125 314.304688 29.960938 311.402344 29.960938 C 309.609375 29.960938 308.375 30.578125 305.71875 33.113281 L 305.71875 30.023438 L 305.410156 29.960938 C 303.496094 30.640625 302.136719 31.074219 299.976562 31.691406 Z M 299.976562 32.371094 "/>
<path fill-rule="nonzero" fill="rgb(50.196078%, 50.196078%, 50.196078%)" fill-opacity="1" d="M 336.457031 57.511719 C 336.457031 57.386719 336.457031 57.324219 335.777344 56.648438 C 330.898438 51.703125 329.601562 44.230469 329.601562 38.175781 C 329.601562 31.320312 331.082031 24.464844 335.964844 19.585938 C 336.457031 19.089844 336.457031 19.027344 336.457031 18.90625 C 336.457031 18.597656 336.335938 18.472656 336.085938 18.472656 C 335.65625 18.472656 332.132812 21.191406 329.785156 26.195312 C 327.808594 30.519531 327.316406 34.902344 327.316406 38.175781 C 327.316406 41.265625 327.75 46.023438 329.910156 50.53125 C 332.320312 55.347656 335.65625 57.945312 336.085938 57.945312 C 336.335938 57.945312 336.457031 57.820312 336.457031 57.511719 Z M 336.457031 57.511719 "/>
<path fill-rule="nonzero" fill="rgb(50.196078%, 50.196078%, 50.196078%)" fill-opacity="1" d="M 354.519531 43.675781 C 354.210938 44.046875 354.027344 44.292969 353.65625 44.726562 C 352.792969 45.960938 352.296875 46.332031 351.863281 46.332031 C 351.308594 46.332031 350.9375 45.835938 350.628906 44.726562 C 350.566406 44.414062 350.507812 44.167969 350.507812 44.046875 C 349.519531 40.03125 349.085938 38.238281 349.085938 37.683594 C 350.816406 34.59375 352.234375 32.863281 352.914062 32.863281 C 353.164062 32.863281 353.472656 32.988281 353.902344 33.171875 C 354.335938 33.484375 354.644531 33.542969 354.953125 33.542969 C 355.757812 33.542969 356.3125 32.988281 356.3125 32.125 C 356.3125 31.320312 355.632812 30.703125 354.707031 30.703125 C 352.976562 30.703125 351.496094 32.125 348.777344 36.324219 L 348.34375 34.160156 C 347.789062 31.445312 347.355469 30.703125 346.242188 30.703125 C 345.378906 30.703125 344.082031 31.011719 341.671875 31.816406 L 341.242188 32 L 341.363281 32.554688 C 342.910156 32.246094 343.21875 32.125 343.585938 32.125 C 344.574219 32.125 344.824219 32.496094 345.378906 34.839844 L 346.492188 39.722656 L 343.277344 44.292969 C 342.476562 45.527344 341.671875 46.207031 341.242188 46.207031 C 341.054688 46.207031 340.621094 46.082031 340.253906 45.835938 C 339.757812 45.589844 339.324219 45.464844 338.953125 45.464844 C 338.214844 45.464844 337.65625 46.023438 337.65625 46.824219 C 337.65625 47.875 338.460938 48.492188 339.632812 48.492188 C 340.808594 48.492188 341.300781 48.121094 343.277344 45.714844 C 344.328125 44.476562 345.195312 43.425781 346.800781 41.140625 L 348.035156 45.835938 C 348.53125 47.875 349.023438 48.492188 350.320312 48.492188 C 351.804688 48.492188 352.792969 47.566406 355.078125 43.984375 Z M 354.519531 43.675781 "/>
<path fill-rule="nonzero" fill="rgb(50.196078%, 50.196078%, 50.196078%)" fill-opacity="1" d="M 367.675781 38.175781 C 367.675781 35.148438 367.246094 30.394531 365.082031 25.886719 C 362.734375 21.066406 359.339844 18.472656 358.96875 18.472656 C 358.722656 18.472656 358.535156 18.65625 358.535156 18.90625 C 358.535156 19.027344 358.535156 19.089844 359.277344 19.832031 C 363.167969 23.722656 365.390625 29.960938 365.390625 38.175781 C 365.390625 44.972656 363.972656 51.890625 359.089844 56.832031 C 358.535156 57.324219 358.535156 57.386719 358.535156 57.511719 C 358.535156 57.757812 358.722656 57.945312 358.96875 57.945312 C 359.339844 57.945312 362.921875 55.226562 365.207031 50.222656 C 367.246094 45.898438 367.675781 41.511719 367.675781 38.175781 Z M 367.675781 38.175781 "/>
</svg>
