<?xml version="1.0" encoding="UTF-8"?>
<svg xmlns="http://www.w3.org/2000/svg" xmlns:xlink="http://www.w3.org/1999/xlink" width="400" height="114.07054" viewBox="0 0 400 114.07054">
<defs>
<clipPath id="clip-0">
<path clip-rule="nonzero" d="M 0.992188 4.253906 L 399.011719 4.253906 L 399.011719 113.078125 L 0.992188 113.078125 Z M 0.992188 4.253906 "/>
</clipPath>
</defs>
<path fill="none" stroke-width="0.3985" stroke-linecap="butt" stroke-linejoin="miter" stroke="rgb(50.196078%, 50.196078%, 50.196078%)" stroke-opacity="1" stroke-miterlimit="10" d="M 0.00058151 31.184453 L 278.648855 31.184453 " transform="matrix(1.418259, 0, 0, -1.418259, 0.991363, 113.079181)"/>
<path fill-rule="nonzero" fill="rgb(50.196078%, 50.196078%, 50.196078%)" fill-opacity="1" d="M 399.011719 68.851562 L 394.492188 66.589844 L 396.1875 68.851562 L 394.492188 71.117188 "/>
<path fill="none" stroke-width="0.3985" stroke-linecap="butt" stroke-linejoin="miter" stroke="rgb(50.196078%, 50.196078%, 50.196078%)" stroke-opacity="1" stroke-miterlimit="10" d="M 31.18429 0.000744615 L 31.18429 75.960424 " transform="matrix(1.418259, 0, 0, -1.418259, 0.991363, 113.079181)"/>
<path fill-rule="nonzero" fill="rgb(50.196078%, 50.196078%, 50.196078%)" fill-opacity="1" d="M 45.21875 2.515625 L 42.957031 7.042969 L 45.21875 5.347656 L 47.476562 7.042969 "/>
<g clip-path="url(#clip-0)">
<path fill="none" stroke-width="0.99628" stroke-linecap="butt" stroke-linejoin="miter" stroke="rgb(6.666667%, 52.941176%, 87.058824%)" stroke-opacity="1" stroke-miterlimit="10" d="M 0.00058151 2.829367 L 2.837467 0.950964 L 5.668844 0.0668468 L 8.502976 0.212822 L 11.339861 1.375119 L 14.171238 3.52344 L 17.008124 6.583421 L 19.84501 10.453153 L 22.679141 15.003187 L 25.513273 20.090302 L 28.347404 25.543733 L 31.18429 31.184453 L 34.015667 36.819664 L 36.852552 42.273095 L 39.686684 47.36021 L 42.520815 51.910244 L 45.354947 55.78273 L 48.191832 58.839957 L 51.023209 60.988278 L 53.860095 62.153329 L 56.694226 62.29655 L 59.531112 61.415188 L 62.362489 59.536784 L 65.199375 56.721932 L 68.036261 53.067032 L 70.867638 48.687762 L 73.704523 43.735606 L 76.538655 38.367557 L 79.370032 32.762643 L 82.206918 27.105397 L 85.043803 21.58311 L 87.877935 16.374808 L 90.712066 11.659518 L 93.546197 7.583217 L 96.383083 4.289124 L 99.21446 1.879149 L 102.051346 0.433163 L 104.888232 0.00349887 L 107.719609 0.601173 L 110.55374 2.206905 L 113.390626 4.771119 L 116.227511 8.202925 L 119.058889 12.392151 L 121.895774 17.201085 L 124.729906 22.469981 L 127.564037 28.028073 L 130.398168 33.688073 L 133.235054 39.265445 L 136.066431 44.578409 L 138.903317 49.450691 L 141.737448 53.714283 L 144.57158 57.242487 L 147.405711 59.911363 L 150.242597 61.624511 L 153.079482 62.343373 L 155.910859 62.032141 L 158.744991 60.704589 L 161.581876 58.402029 L 164.413254 55.198828 L 167.250139 51.210662 L 170.087025 46.55872 L 172.918402 41.399995 L 175.755288 35.908005 L 178.589419 30.253514 L 181.426305 24.632073 L 184.257682 19.230973 L 187.094568 14.218224 L 189.928699 9.770097 L 192.76283 6.024307 L 195.596962 3.104793 L 198.433847 1.118973 L 201.265225 0.116423 L 204.10211 0.143966 L 206.938996 1.190584 L 209.770373 3.225981 L 212.604504 6.186808 L 215.44139 9.968404 L 218.278276 14.449582 L 221.109653 19.484365 L 223.946539 24.90199 L 226.78067 30.531694 L 229.614801 36.175168 L 232.448933 41.66165 L 235.285818 46.798341 L 238.117196 51.417231 L 240.954081 55.3751 L 243.788213 58.536988 L 246.625098 60.789971 L 249.456475 62.070701 L 252.293361 62.332356 L 255.130247 61.566672 L 257.961624 59.801193 L 260.795755 57.091003 L 263.632641 53.526993 L 266.464018 49.222088 L 269.300904 44.327772 L 272.137789 39.001037 L 274.969166 33.415402 L 277.806052 27.755402 L 280.640183 22.208326 " transform="matrix(1.418259, 0, 0, -1.418259, 0.991363, 113.079181)"/>
</g>
<path fill="none" stroke-width="1.19553" stroke-linecap="butt" stroke-linejoin="miter" stroke="rgb(100%, 12.941176%, 32.156863%)" stroke-opacity="1" stroke-miterlimit="10" d="M 61.409516 62.362652 L 147.89046 62.362652 " transform="matrix(1.418259, 0, 0, -1.418259, 0.991363, 113.079181)"/>
<path fill-rule="nonzero" fill="rgb(100%, 12.941176%, 32.156863%)" fill-opacity="1" d="M 79.949219 24.632812 C 82.359375 25.078125 86.28125 26.4375 88.988281 28.023438 L 88.988281 21.242188 C 86.28125 22.820312 82.359375 24.175781 79.949219 24.632812 "/>
<path fill-rule="nonzero" fill="rgb(100%, 12.941176%, 32.156863%)" fill-opacity="1" d="M 218.878906 24.632812 C 216.46875 24.175781 212.542969 22.820312 209.835938 21.242188 L 209.835938 28.023438 C 212.542969 26.4375 216.46875 25.078125 218.878906 24.632812 "/>
<path fill="none" stroke-width="1.19553" stroke-linecap="butt" stroke-linejoin="miter" stroke="rgb(100%, 12.941176%, 32.156863%)" stroke-opacity="1" stroke-miterlimit="10" d="M 153.630334 56.625533 L 153.630334 36.921572 " transform="matrix(1.418259, 0, 0, -1.418259, 0.991363, 113.079181)"/>
<path fill-rule="nonzero" fill="rgb(100%, 12.941176%, 32.156863%)" fill-opacity="1" d="M 218.878906 24.632812 C 218.421875 27.042969 217.066406 30.957031 215.488281 33.671875 L 222.269531 33.671875 C 220.683594 30.957031 219.332031 27.042969 218.878906 24.632812 "/>
<path fill-rule="nonzero" fill="rgb(100%, 12.941176%, 32.156863%)" fill-opacity="1" d="M 218.878906 68.851562 C 219.332031 66.441406 220.683594 62.523438 222.269531 59.8125 L 215.488281 59.8125 C 217.066406 62.523438 218.421875 66.441406 218.878906 68.851562 "/>
<path fill-rule="nonzero" fill="rgb(50.196078%, 50.196078%, 50.196078%)" fill-opacity="1" d="M 130.296875 10.933594 C 130.652344 10.976562 130.894531 10.976562 131.269531 10.976562 C 132.378906 10.976562 133.132812 10.84375 133.753906 10.511719 C 134.59375 10.046875 135.105469 9.183594 135.105469 8.25 C 135.105469 7.652344 134.90625 7.121094 134.527344 6.722656 C 133.953125 6.101562 132.734375 5.703125 131.40625 5.703125 L 127.660156 5.703125 L 127.660156 5.96875 C 128.699219 6.078125 128.855469 6.210938 128.855469 7.230469 L 128.855469 13.347656 C 128.855469 14.546875 128.746094 14.679688 127.660156 14.789062 L 127.660156 15.054688 L 131.625 15.054688 L 131.625 14.789062 C 130.496094 14.746094 130.296875 14.546875 130.296875 13.503906 Z M 130.296875 6.699219 C 130.296875 6.324219 130.386719 6.210938 130.785156 6.210938 C 132.691406 6.210938 133.554688 6.878906 133.554688 8.339844 C 133.554688 9.714844 132.734375 10.421875 131.09375 10.421875 C 130.804688 10.421875 130.628906 10.402344 130.296875 10.378906 Z M 130.296875 6.699219 "/>
<path fill-rule="nonzero" fill="rgb(50.196078%, 50.196078%, 50.196078%)" fill-opacity="1" d="M 141.054688 12.726562 C 140.390625 13.8125 139.769531 14.210938 138.863281 14.210938 C 138.0625 14.210938 137.464844 13.8125 137.042969 12.992188 C 136.800781 12.460938 136.691406 11.996094 136.667969 11.132812 L 141.011719 11.132812 C 140.898438 10.222656 140.765625 9.804688 140.414062 9.359375 C 139.992188 8.851562 139.328125 8.5625 138.59375 8.5625 C 137.886719 8.5625 137.222656 8.804688 136.691406 9.292969 C 136.023438 9.871094 135.648438 10.867188 135.648438 12.019531 C 135.648438 13.992188 136.667969 15.1875 138.285156 15.1875 C 139.636719 15.1875 140.699219 14.367188 141.300781 12.839844 Z M 136.691406 10.6875 C 136.84375 9.582031 137.332031 9.050781 138.195312 9.050781 C 139.0625 9.050781 139.394531 9.449219 139.570312 10.6875 Z M 136.691406 10.6875 "/>
<path fill-rule="nonzero" fill="rgb(50.196078%, 50.196078%, 50.196078%)" fill-opacity="1" d="M 141.65625 9.535156 C 141.855469 9.492188 141.988281 9.492188 142.164062 9.492188 C 142.519531 9.492188 142.628906 9.714844 142.628906 10.335938 L 142.628906 13.859375 C 142.628906 14.566406 142.542969 14.679688 141.632812 14.832031 L 141.632812 15.054688 L 145.023438 15.054688 L 145.023438 14.832031 C 144.070312 14.8125 143.828125 14.589844 143.828125 13.792969 L 143.828125 10.601562 C 143.828125 10.15625 144.449219 9.449219 144.824219 9.449219 C 144.914062 9.449219 145.023438 9.515625 145.179688 9.648438 C 145.421875 9.847656 145.578125 9.9375 145.753906 9.9375 C 146.085938 9.9375 146.308594 9.691406 146.308594 9.292969 C 146.308594 8.828125 146 8.5625 145.535156 8.5625 C 144.933594 8.5625 144.515625 8.871094 143.828125 9.871094 L 143.828125 8.585938 L 143.761719 8.5625 C 143.007812 8.871094 142.496094 9.050781 141.65625 9.316406 Z M 141.65625 9.535156 "/>
<path fill-rule="nonzero" fill="rgb(50.196078%, 50.196078%, 50.196078%)" fill-opacity="1" d="M 148.753906 8.5625 L 146.558594 9.335938 L 146.558594 9.535156 L 146.671875 9.535156 C 146.847656 9.492188 147.027344 9.492188 147.160156 9.492188 C 147.492188 9.492188 147.625 9.714844 147.625 10.335938 L 147.625 13.613281 C 147.625 14.632812 147.46875 14.789062 146.492188 14.832031 L 146.492188 15.054688 L 149.839844 15.054688 L 149.839844 14.832031 C 148.910156 14.765625 148.796875 14.632812 148.796875 13.613281 L 148.796875 8.585938 Z M 148.089844 5.394531 C 147.691406 5.394531 147.378906 5.726562 147.378906 6.125 C 147.378906 6.523438 147.691406 6.832031 148.089844 6.832031 C 148.488281 6.832031 148.820312 6.523438 148.820312 6.125 C 148.820312 5.726562 148.488281 5.394531 148.089844 5.394531 Z M 148.089844 5.394531 "/>
<path fill-rule="nonzero" fill="rgb(50.196078%, 50.196078%, 50.196078%)" fill-opacity="1" d="M 153.746094 8.5625 C 151.90625 8.5625 150.621094 9.914062 150.621094 11.863281 C 150.621094 13.769531 151.929688 15.1875 153.703125 15.1875 C 155.496094 15.1875 156.847656 13.703125 156.847656 11.753906 C 156.847656 9.890625 155.539062 8.5625 153.746094 8.5625 Z M 153.546875 8.9375 C 154.742188 8.9375 155.5625 10.3125 155.5625 12.242188 C 155.5625 13.835938 154.941406 14.8125 153.878906 14.8125 C 153.324219 14.8125 152.792969 14.457031 152.503906 13.902344 C 152.105469 13.171875 151.882812 12.175781 151.882812 11.175781 C 151.882812 9.824219 152.550781 8.9375 153.546875 8.9375 Z M 153.546875 8.9375 "/>
<path fill-rule="nonzero" fill="rgb(50.196078%, 50.196078%, 50.196078%)" fill-opacity="1" d="M 162.117188 15.1875 L 164.203125 14.457031 L 164.203125 14.234375 C 163.957031 14.257812 163.914062 14.257812 163.890625 14.257812 C 163.382812 14.257812 163.269531 14.101562 163.269531 13.4375 L 163.269531 5.4375 L 163.183594 5.394531 C 162.515625 5.636719 162.007812 5.769531 161.121094 6.011719 L 161.121094 6.257812 C 161.230469 6.234375 161.296875 6.234375 161.429688 6.234375 C 161.941406 6.234375 162.074219 6.367188 162.074219 6.945312 L 162.074219 9.160156 C 161.542969 8.71875 161.144531 8.5625 160.589844 8.5625 C 158.972656 8.5625 157.640625 10.15625 157.640625 12.152344 C 157.640625 13.96875 158.707031 15.1875 160.257812 15.1875 C 161.054688 15.1875 161.585938 14.921875 162.074219 14.257812 L 162.074219 15.144531 Z M 162.074219 13.613281 C 162.074219 13.703125 161.964844 13.878906 161.832031 14.035156 C 161.585938 14.324219 161.230469 14.457031 160.8125 14.457031 C 159.636719 14.457031 158.859375 13.328125 158.859375 11.597656 C 158.859375 10.003906 159.546875 8.9375 160.632812 8.9375 C 161.386719 8.9375 162.074219 9.601562 162.074219 10.355469 Z M 162.074219 13.613281 "/>
<path fill-rule="nonzero" fill="rgb(50.196078%, 50.196078%, 50.196078%)" fill-opacity="1" d="M 167.875 8.5625 C 166.035156 8.5625 164.75 9.914062 164.75 11.863281 C 164.75 13.769531 166.058594 15.1875 167.832031 15.1875 C 169.625 15.1875 170.976562 13.703125 170.976562 11.753906 C 170.976562 9.890625 169.671875 8.5625 167.875 8.5625 Z M 167.675781 8.9375 C 168.871094 8.9375 169.691406 10.3125 169.691406 12.242188 C 169.691406 13.835938 169.070312 14.8125 168.007812 14.8125 C 167.453125 14.8125 166.921875 14.457031 166.632812 13.902344 C 166.234375 13.171875 166.015625 12.175781 166.015625 11.175781 C 166.015625 9.824219 166.679688 8.9375 167.675781 8.9375 Z M 167.675781 8.9375 "/>
<path fill-rule="nonzero" fill="rgb(50.196078%, 50.196078%, 50.196078%)" fill-opacity="1" d="M 237.140625 49.480469 C 236.519531 49.4375 236.363281 49.304688 235.878906 48.242188 L 232.355469 40.21875 L 232.066406 40.21875 L 229.140625 47.15625 C 228.230469 49.214844 228.054688 49.460938 227.390625 49.480469 L 227.390625 49.75 L 230.183594 49.75 L 230.183594 49.480469 C 229.496094 49.480469 229.230469 49.304688 229.230469 48.90625 C 229.230469 48.730469 229.25 48.53125 229.339844 48.351562 L 229.984375 46.691406 L 233.683594 46.691406 L 234.257812 48.042969 C 234.4375 48.441406 234.523438 48.796875 234.523438 48.996094 C 234.523438 49.347656 234.304688 49.460938 233.550781 49.480469 L 233.550781 49.75 L 237.140625 49.75 Z M 230.226562 46.113281 L 231.84375 42.234375 L 233.484375 46.113281 Z M 230.226562 46.113281 "/>
<path fill-rule="nonzero" fill="rgb(50.196078%, 50.196078%, 50.196078%)" fill-opacity="1" d="M 237.636719 44.121094 C 237.8125 44.074219 237.945312 44.074219 238.101562 44.074219 C 238.457031 44.074219 238.589844 44.296875 238.589844 44.960938 L 238.589844 48.550781 C 238.589844 49.304688 238.390625 49.527344 237.589844 49.527344 L 237.589844 49.75 L 240.738281 49.75 L 240.738281 49.527344 C 239.984375 49.503906 239.761719 49.347656 239.761719 48.796875 L 239.761719 44.804688 C 239.761719 44.785156 239.894531 44.652344 239.984375 44.539062 C 240.339844 44.230469 240.9375 43.988281 241.445312 43.988281 C 242.066406 43.988281 242.378906 44.472656 242.378906 45.472656 L 242.378906 48.53125 C 242.378906 49.328125 242.222656 49.480469 241.402344 49.527344 L 241.402344 49.75 L 244.570312 49.75 L 244.570312 49.527344 C 243.773438 49.527344 243.550781 49.28125 243.550781 48.394531 L 243.550781 44.851562 C 243.996094 44.230469 244.460938 43.988281 245.105469 43.988281 C 245.902344 43.988281 246.167969 44.363281 246.167969 45.539062 L 246.167969 48.507812 C 246.167969 49.328125 246.054688 49.4375 245.238281 49.527344 L 245.238281 49.75 L 248.316406 49.75 L 248.316406 49.527344 L 247.960938 49.503906 C 247.542969 49.480469 247.34375 49.214844 247.34375 48.683594 L 247.34375 45.757812 C 247.34375 44.097656 246.808594 43.253906 245.703125 43.253906 C 244.882812 43.253906 244.171875 43.609375 243.398438 44.429688 C 243.152344 43.632812 242.664062 43.253906 241.914062 43.253906 C 241.292969 43.253906 240.894531 43.433594 239.71875 44.339844 L 239.71875 43.277344 L 239.609375 43.253906 C 238.898438 43.519531 238.410156 43.675781 237.636719 43.875 Z M 237.636719 44.121094 "/>
<path fill-rule="nonzero" fill="rgb(50.196078%, 50.196078%, 50.196078%)" fill-opacity="1" d="M 248.496094 44.1875 C 248.605469 44.1875 248.71875 44.1875 248.851562 44.1875 C 249.316406 44.1875 249.425781 44.320312 249.425781 44.984375 L 249.425781 51.609375 C 249.425781 52.339844 249.269531 52.496094 248.429688 52.585938 L 248.429688 52.804688 L 251.863281 52.804688 L 251.863281 52.5625 C 250.800781 52.539062 250.601562 52.386719 250.601562 51.5 L 250.601562 49.28125 C 251.109375 49.75 251.441406 49.882812 252.042969 49.882812 C 253.703125 49.882812 255.011719 48.308594 255.011719 46.246094 C 255.011719 44.496094 254.011719 43.253906 252.640625 43.253906 C 251.863281 43.253906 251.242188 43.585938 250.601562 44.363281 L 250.601562 43.277344 L 250.535156 43.253906 C 249.757812 43.542969 249.269531 43.71875 248.496094 43.964844 Z M 250.601562 45.027344 C 250.601562 44.605469 251.398438 44.097656 252.0625 44.097656 C 253.105469 44.097656 253.792969 45.160156 253.792969 46.800781 C 253.792969 48.375 253.105469 49.4375 252.085938 49.4375 C 251.421875 49.4375 250.601562 48.929688 250.601562 48.507812 Z M 250.601562 45.027344 "/>
<path fill-rule="nonzero" fill="rgb(50.196078%, 50.196078%, 50.196078%)" fill-opacity="1" d="M 255.691406 40.949219 L 255.78125 40.949219 C 255.9375 40.929688 256.113281 40.90625 256.226562 40.90625 C 256.667969 40.90625 256.824219 41.105469 256.824219 41.769531 L 256.824219 48.507812 C 256.824219 49.28125 256.625 49.460938 255.714844 49.527344 L 255.714844 49.75 L 259.0625 49.75 L 259.0625 49.527344 C 258.175781 49.480469 257.996094 49.328125 257.996094 48.550781 L 257.996094 40.128906 L 257.953125 40.085938 C 257.199219 40.332031 256.667969 40.464844 255.691406 40.707031 Z M 255.691406 40.949219 "/>
<path fill-rule="nonzero" fill="rgb(50.196078%, 50.196078%, 50.196078%)" fill-opacity="1" d="M 261.835938 43.253906 L 259.644531 44.03125 L 259.644531 44.230469 L 259.753906 44.230469 C 259.929688 44.1875 260.109375 44.1875 260.242188 44.1875 C 260.574219 44.1875 260.707031 44.40625 260.707031 45.027344 L 260.707031 48.308594 C 260.707031 49.328125 260.550781 49.480469 259.578125 49.527344 L 259.578125 49.75 L 262.921875 49.75 L 262.921875 49.527344 C 261.992188 49.460938 261.882812 49.328125 261.882812 48.308594 L 261.882812 43.277344 Z M 261.171875 40.085938 C 260.773438 40.085938 260.464844 40.417969 260.464844 40.816406 C 260.464844 41.214844 260.773438 41.527344 261.171875 41.527344 C 261.570312 41.527344 261.902344 41.214844 261.902344 40.816406 C 261.902344 40.417969 261.570312 40.085938 261.171875 40.085938 Z M 261.171875 40.085938 "/>
<path fill-rule="nonzero" fill="rgb(50.196078%, 50.196078%, 50.196078%)" fill-opacity="1" d="M 266.894531 43.386719 L 265.453125 43.386719 L 265.453125 41.75 C 265.453125 41.617188 265.453125 41.570312 265.367188 41.570312 C 265.253906 41.683594 265.167969 41.816406 265.078125 41.949219 C 264.546875 42.746094 263.925781 43.410156 263.703125 43.476562 C 263.550781 43.566406 263.460938 43.675781 263.460938 43.742188 C 263.460938 43.789062 263.484375 43.808594 263.527344 43.832031 L 264.28125 43.832031 L 264.28125 48.085938 C 264.28125 49.28125 264.703125 49.882812 265.519531 49.882812 C 266.230469 49.882812 266.761719 49.546875 267.226562 48.816406 L 267.050781 48.664062 C 266.742188 49.015625 266.496094 49.148438 266.1875 49.148438 C 265.675781 49.148438 265.453125 48.773438 265.453125 47.886719 L 265.453125 43.832031 L 266.894531 43.832031 Z M 266.894531 43.386719 "/>
<path fill-rule="nonzero" fill="rgb(50.196078%, 50.196078%, 50.196078%)" fill-opacity="1" d="M 273.992188 49.039062 L 273.902344 49.039062 C 273.261719 49.039062 273.105469 48.882812 273.105469 48.242188 L 273.105469 43.386719 L 270.867188 43.386719 L 270.867188 43.632812 C 271.753906 43.675781 271.910156 43.808594 271.910156 44.519531 L 271.910156 47.84375 C 271.910156 48.242188 271.84375 48.441406 271.644531 48.597656 C 271.265625 48.90625 270.824219 49.0625 270.402344 49.0625 C 269.847656 49.0625 269.40625 48.597656 269.40625 47.996094 L 269.40625 43.386719 L 267.34375 43.386719 L 267.34375 43.585938 C 268.007812 43.632812 268.207031 43.832031 268.207031 44.496094 L 268.207031 48.042969 C 268.207031 49.171875 268.894531 49.882812 269.914062 49.882812 C 270.445312 49.882812 271 49.660156 271.378906 49.28125 L 271.996094 48.683594 L 271.996094 49.835938 L 272.042969 49.882812 C 272.75 49.59375 273.261719 49.4375 273.992188 49.238281 Z M 273.992188 49.039062 "/>
<path fill-rule="nonzero" fill="rgb(50.196078%, 50.196078%, 50.196078%)" fill-opacity="1" d="M 279.128906 49.882812 L 281.210938 49.148438 L 281.210938 48.929688 C 280.96875 48.949219 280.925781 48.949219 280.902344 48.949219 C 280.390625 48.949219 280.28125 48.796875 280.28125 48.128906 L 280.28125 40.128906 L 280.191406 40.085938 C 279.527344 40.332031 279.019531 40.464844 278.132812 40.707031 L 278.132812 40.949219 C 278.242188 40.929688 278.308594 40.929688 278.441406 40.929688 C 278.953125 40.929688 279.085938 41.0625 279.085938 41.636719 L 279.085938 43.855469 C 278.554688 43.410156 278.152344 43.253906 277.601562 43.253906 C 275.980469 43.253906 274.652344 44.851562 274.652344 46.84375 C 274.652344 48.664062 275.714844 49.882812 277.269531 49.882812 C 278.066406 49.882812 278.597656 49.617188 279.085938 48.949219 L 279.085938 49.835938 Z M 279.085938 48.308594 C 279.085938 48.394531 278.972656 48.574219 278.839844 48.730469 C 278.597656 49.015625 278.242188 49.148438 277.820312 49.148438 C 276.648438 49.148438 275.871094 48.019531 275.871094 46.292969 C 275.871094 44.695312 276.558594 43.632812 277.644531 43.632812 C 278.398438 43.632812 279.085938 44.296875 279.085938 45.050781 Z M 279.085938 48.308594 "/>
</svg>
