<?xml version="1.0" encoding="UTF-8"?>
<svg xmlns="http://www.w3.org/2000/svg" xmlns:xlink="http://www.w3.org/1999/xlink" width="400" height="351.163778" viewBox="0 0 400 351.163778">
<defs>
<clipPath id="clip-0">
<path clip-rule="nonzero" d="M 98 6 L 101 6 L 101 351.164062 L 98 351.164062 Z M 98 6 "/>
</clipPath>
<clipPath id="clip-1">
<path clip-rule="nonzero" d="M 104 0.640625 L 345 0.640625 L 345 310.976562 L 104 310.976562 Z M 104 0.640625 "/>
</clipPath>
</defs>
<path fill="none" stroke-width="0.19925" stroke-linecap="butt" stroke-linejoin="miter" stroke="rgb(50.196078%, 50.196078%, 50.196078%)" stroke-opacity="1" stroke-miterlimit="10" d="M 51.452325 13.464464 L 51.452325 17.719248 M 73.280633 13.464464 L 73.280633 17.719248 " transform="matrix(3.20595, 0, 0, -3.20595, 34.479996, 350.525777)"/>
<path fill="none" stroke-width="0.19925" stroke-linecap="butt" stroke-linejoin="miter" stroke="rgb(50.196078%, 50.196078%, 50.196078%)" stroke-opacity="1" stroke-miterlimit="10" d="M 18.1439 46.774108 L 22.39381 46.774108 M 18.1439 84.816163 L 22.39381 84.816163 " transform="matrix(3.20595, 0, 0, -3.20595, 34.479996, 350.525777)"/>
<path fill="none" stroke-width="0.3985" stroke-linecap="butt" stroke-linejoin="miter" stroke="rgb(50.196078%, 50.196078%, 50.196078%)" stroke-opacity="1" stroke-miterlimit="10" d="M -0.00107093 15.589419 L 111.823465 15.589419 " transform="matrix(3.20595, 0, 0, -3.20595, 34.479996, 350.525777)"/>
<path fill-rule="nonzero" fill="rgb(50.196078%, 50.196078%, 50.196078%)" fill-opacity="1" d="M 399.367188 300.546875 L 389.148438 295.4375 L 392.980469 300.546875 L 389.148438 305.65625 "/>
<g clip-path="url(#clip-0)">
<path fill="none" stroke-width="0.3985" stroke-linecap="butt" stroke-linejoin="miter" stroke="rgb(50.196078%, 50.196078%, 50.196078%)" stroke-opacity="1" stroke-miterlimit="10" d="M 20.268855 -0.000488548 L 20.268855 107.14403 " transform="matrix(3.20595, 0, 0, -3.20595, 34.479996, 350.525777)"/>
</g>
<path fill-rule="nonzero" fill="rgb(50.196078%, 50.196078%, 50.196078%)" fill-opacity="1" d="M 99.460938 0.640625 L 94.351562 10.859375 L 99.460938 7.027344 L 104.570312 10.859375 "/>
<path fill-rule="nonzero" fill="rgb(50.196078%, 50.196078%, 50.196078%)" fill-opacity="1" d="M 198.453125 328.960938 C 198.199219 329.261719 198.050781 329.460938 197.75 329.8125 C 197.050781 330.816406 196.648438 331.117188 196.296875 331.117188 C 195.847656 331.117188 195.546875 330.714844 195.296875 329.8125 C 195.246094 329.5625 195.195312 329.363281 195.195312 329.261719 C 194.394531 326.007812 194.042969 324.554688 194.042969 324.101562 C 195.445312 321.597656 196.597656 320.195312 197.148438 320.195312 C 197.347656 320.195312 197.601562 320.296875 197.949219 320.445312 C 198.300781 320.695312 198.550781 320.746094 198.800781 320.746094 C 199.453125 320.746094 199.902344 320.296875 199.902344 319.59375 C 199.902344 318.941406 199.351562 318.441406 198.601562 318.441406 C 197.199219 318.441406 195.996094 319.59375 193.792969 323 L 193.441406 321.246094 C 192.992188 319.042969 192.640625 318.441406 191.738281 318.441406 C 191.039062 318.441406 189.984375 318.691406 188.03125 319.34375 L 187.679688 319.492188 L 187.78125 319.945312 C 189.035156 319.695312 189.285156 319.59375 189.585938 319.59375 C 190.386719 319.59375 190.585938 319.894531 191.039062 321.796875 L 191.9375 325.753906 L 189.335938 329.460938 C 188.683594 330.464844 188.03125 331.015625 187.679688 331.015625 C 187.53125 331.015625 187.179688 330.914062 186.878906 330.714844 C 186.480469 330.515625 186.128906 330.414062 185.828125 330.414062 C 185.226562 330.414062 184.777344 330.863281 184.777344 331.515625 C 184.777344 332.367188 185.425781 332.867188 186.378906 332.867188 C 187.332031 332.867188 187.730469 332.566406 189.335938 330.613281 C 190.1875 329.613281 190.886719 328.761719 192.191406 326.90625 L 193.191406 330.714844 C 193.59375 332.367188 193.992188 332.867188 195.046875 332.867188 C 196.246094 332.867188 197.050781 332.117188 198.902344 329.210938 Z M 198.453125 328.960938 "/>
<path fill-rule="nonzero" fill="rgb(50.196078%, 50.196078%, 50.196078%)" fill-opacity="1" d="M 206.671875 321.363281 L 202.414062 323.515625 L 202.414062 323.816406 C 202.714844 323.71875 202.964844 323.617188 203.0625 323.566406 C 203.515625 323.417969 203.914062 323.316406 204.117188 323.316406 C 204.617188 323.316406 204.867188 323.667969 204.867188 324.417969 L 204.867188 335.140625 C 204.867188 335.941406 204.667969 336.492188 204.265625 336.691406 C 203.914062 336.890625 203.613281 336.941406 202.613281 336.992188 L 202.613281 337.34375 L 209.125 337.34375 L 209.125 336.992188 C 207.273438 336.941406 206.871094 336.742188 206.871094 335.589844 L 206.871094 321.414062 Z M 206.671875 321.363281 "/>
<path fill-rule="nonzero" fill="rgb(50.196078%, 50.196078%, 50.196078%)" fill-opacity="1" d="M 268.429688 328.960938 C 268.175781 329.261719 268.027344 329.460938 267.726562 329.8125 C 267.023438 330.816406 266.625 331.117188 266.273438 331.117188 C 265.824219 331.117188 265.523438 330.714844 265.273438 329.8125 C 265.222656 329.5625 265.171875 329.363281 265.171875 329.261719 C 264.371094 326.007812 264.019531 324.554688 264.019531 324.101562 C 265.421875 321.597656 266.574219 320.195312 267.125 320.195312 C 267.324219 320.195312 267.578125 320.296875 267.925781 320.445312 C 268.277344 320.695312 268.527344 320.746094 268.777344 320.746094 C 269.429688 320.746094 269.878906 320.296875 269.878906 319.59375 C 269.878906 318.941406 269.328125 318.441406 268.578125 318.441406 C 267.175781 318.441406 265.972656 319.59375 263.769531 323 L 263.417969 321.246094 C 262.96875 319.042969 262.617188 318.441406 261.714844 318.441406 C 261.015625 318.441406 259.960938 318.691406 258.007812 319.34375 L 257.65625 319.492188 L 257.757812 319.945312 C 259.011719 319.695312 259.261719 319.59375 259.5625 319.59375 C 260.363281 319.59375 260.5625 319.894531 261.015625 321.796875 L 261.914062 325.753906 L 259.3125 329.460938 C 258.660156 330.464844 258.007812 331.015625 257.65625 331.015625 C 257.507812 331.015625 257.15625 330.914062 256.855469 330.714844 C 256.457031 330.515625 256.105469 330.414062 255.804688 330.414062 C 255.203125 330.414062 254.753906 330.863281 254.753906 331.515625 C 254.753906 332.367188 255.402344 332.867188 256.355469 332.867188 C 257.308594 332.867188 257.707031 332.566406 259.3125 330.613281 C 260.164062 329.613281 260.863281 328.761719 262.167969 326.90625 L 263.167969 330.714844 C 263.570312 332.367188 263.96875 332.867188 265.019531 332.867188 C 266.222656 332.867188 267.023438 332.117188 268.878906 329.210938 Z M 268.429688 328.960938 "/>
<path fill-rule="nonzero" fill="rgb(50.196078%, 50.196078%, 50.196078%)" fill-opacity="1" d="M 281.007812 334.085938 L 280.707031 333.988281 C 279.855469 335.339844 279.503906 335.539062 278.453125 335.539062 L 272.792969 335.539062 L 276.800781 331.382812 C 278.902344 329.179688 279.804688 327.375 279.804688 325.519531 C 279.804688 323.167969 277.902344 321.363281 275.449219 321.363281 C 274.144531 321.363281 272.894531 321.863281 272.042969 322.816406 C 271.289062 323.617188 270.9375 324.367188 270.539062 326.070312 L 271.039062 326.171875 C 271.941406 323.867188 272.792969 323.117188 274.445312 323.117188 C 276.449219 323.117188 277.800781 324.46875 277.800781 326.421875 C 277.800781 328.277344 276.699219 330.480469 274.695312 332.585938 L 270.488281 337.042969 L 270.488281 337.34375 L 279.707031 337.34375 Z M 281.007812 334.085938 "/>
<path fill-rule="nonzero" fill="rgb(50.196078%, 50.196078%, 50.196078%)" fill-opacity="1" d="M 16.539062 195.886719 L 19.445312 195.886719 L 16.640625 209.3125 C 15.9375 212.769531 14.886719 214.519531 13.53125 214.519531 C 13.132812 214.519531 12.882812 214.269531 12.882812 213.96875 C 12.882812 213.917969 12.933594 213.820312 13.03125 213.621094 C 13.132812 213.46875 13.183594 213.320312 13.183594 213.117188 C 13.183594 212.46875 12.582031 211.917969 11.929688 211.917969 C 11.230469 211.917969 10.726562 212.46875 10.726562 213.21875 C 10.726562 214.320312 11.878906 215.171875 13.28125 215.171875 C 16.085938 215.171875 18.34375 212.015625 19.644531 206.15625 L 21.949219 195.886719 L 25.457031 195.886719 L 25.65625 194.882812 L 22.199219 194.882812 C 23.101562 189.875 24.304688 187.570312 26.054688 187.570312 C 26.507812 187.570312 26.757812 187.769531 26.757812 187.972656 C 26.757812 188.070312 26.757812 188.121094 26.65625 188.324219 C 26.507812 188.574219 26.457031 188.722656 26.457031 188.972656 C 26.457031 189.726562 26.957031 190.226562 27.660156 190.226562 C 28.359375 190.226562 29.011719 189.675781 29.011719 188.972656 C 29.011719 187.769531 27.808594 186.871094 26.257812 186.871094 C 24.652344 186.871094 23.453125 187.570312 22.300781 189.074219 C 21.296875 190.324219 20.695312 191.828125 19.695312 194.882812 L 16.789062 194.882812 Z M 16.539062 195.886719 "/>
<path fill-rule="nonzero" fill="rgb(50.196078%, 50.196078%, 50.196078%)" fill-opacity="1" d="M 39.546875 216.222656 C 39.546875 216.125 39.546875 216.074219 38.996094 215.523438 C 35.039062 211.515625 33.988281 205.453125 33.988281 200.546875 C 33.988281 194.984375 35.191406 189.425781 39.148438 185.46875 C 39.546875 185.066406 39.546875 185.015625 39.546875 184.914062 C 39.546875 184.664062 39.449219 184.566406 39.246094 184.566406 C 38.898438 184.566406 36.042969 186.769531 34.136719 190.828125 C 32.535156 194.332031 32.132812 197.890625 32.132812 200.546875 C 32.132812 203.050781 32.484375 206.90625 34.238281 210.5625 C 36.191406 214.472656 38.898438 216.574219 39.246094 216.574219 C 39.449219 216.574219 39.546875 216.472656 39.546875 216.222656 Z M 39.546875 216.222656 "/>
<path fill-rule="nonzero" fill="rgb(50.196078%, 50.196078%, 50.196078%)" fill-opacity="1" d="M 54.195312 205.003906 C 53.941406 205.304688 53.792969 205.503906 53.492188 205.855469 C 52.789062 206.855469 52.390625 207.15625 52.039062 207.15625 C 51.589844 207.15625 51.289062 206.757812 51.039062 205.855469 C 50.988281 205.605469 50.9375 205.402344 50.9375 205.304688 C 50.136719 202.046875 49.785156 200.59375 49.785156 200.144531 C 51.1875 197.640625 52.339844 196.238281 52.890625 196.238281 C 53.089844 196.238281 53.34375 196.335938 53.691406 196.488281 C 54.042969 196.738281 54.292969 196.789062 54.542969 196.789062 C 55.195312 196.789062 55.644531 196.335938 55.644531 195.636719 C 55.644531 194.984375 55.09375 194.484375 54.34375 194.484375 C 52.941406 194.484375 51.738281 195.636719 49.535156 199.042969 L 49.183594 197.289062 C 48.734375 195.085938 48.382812 194.484375 47.480469 194.484375 C 46.78125 194.484375 45.726562 194.734375 43.773438 195.386719 L 43.421875 195.535156 L 43.523438 195.988281 C 44.777344 195.734375 45.027344 195.636719 45.328125 195.636719 C 46.128906 195.636719 46.328125 195.9375 46.78125 197.839844 L 47.679688 201.796875 L 45.078125 205.503906 C 44.425781 206.507812 43.773438 207.058594 43.421875 207.058594 C 43.273438 207.058594 42.921875 206.957031 42.621094 206.757812 C 42.222656 206.554688 41.871094 206.457031 41.570312 206.457031 C 40.96875 206.457031 40.519531 206.90625 40.519531 207.558594 C 40.519531 208.410156 41.167969 208.910156 42.121094 208.910156 C 43.074219 208.910156 43.472656 208.609375 45.078125 206.65625 C 45.929688 205.65625 46.628906 204.804688 47.933594 202.949219 L 48.933594 206.757812 C 49.335938 208.410156 49.734375 208.910156 50.785156 208.910156 C 51.988281 208.910156 52.789062 208.160156 54.644531 205.253906 Z M 54.195312 205.003906 "/>
<path fill-rule="nonzero" fill="rgb(50.196078%, 50.196078%, 50.196078%)" fill-opacity="1" d="M 62.414062 197.40625 L 58.15625 199.558594 L 58.15625 199.859375 C 58.457031 199.757812 58.707031 199.660156 58.808594 199.609375 C 59.257812 199.460938 59.660156 199.359375 59.859375 199.359375 C 60.363281 199.359375 60.613281 199.710938 60.613281 200.460938 L 60.613281 211.179688 C 60.613281 211.980469 60.410156 212.535156 60.011719 212.734375 C 59.660156 212.933594 59.359375 212.984375 58.359375 213.035156 L 58.359375 213.386719 L 64.871094 213.386719 L 64.871094 213.035156 C 63.015625 212.984375 62.617188 212.785156 62.617188 211.632812 L 62.617188 197.457031 Z M 62.414062 197.40625 "/>
<path fill-rule="nonzero" fill="rgb(50.196078%, 50.196078%, 50.196078%)" fill-opacity="1" d="M 78.183594 200.546875 C 78.183594 198.089844 77.832031 194.234375 76.078125 190.578125 C 74.175781 186.667969 71.421875 184.566406 71.121094 184.566406 C 70.921875 184.566406 70.769531 184.714844 70.769531 184.914062 C 70.769531 185.015625 70.769531 185.066406 71.371094 185.667969 C 74.527344 188.824219 76.328125 193.882812 76.328125 200.546875 C 76.328125 206.054688 75.179688 211.664062 71.21875 215.671875 C 70.769531 216.074219 70.769531 216.125 70.769531 216.222656 C 70.769531 216.425781 70.921875 216.574219 71.121094 216.574219 C 71.421875 216.574219 74.328125 214.371094 76.179688 210.3125 C 77.832031 206.804688 78.183594 203.25 78.183594 200.546875 Z M 78.183594 200.546875 "/>
<path fill-rule="nonzero" fill="rgb(50.196078%, 50.196078%, 50.196078%)" fill-opacity="1" d="M 16.539062 73.925781 L 19.445312 73.925781 L 16.640625 87.351562 C 15.9375 90.808594 14.886719 92.558594 13.53125 92.558594 C 13.132812 92.558594 12.882812 92.308594 12.882812 92.007812 C 12.882812 91.960938 12.933594 91.859375 13.03125 91.660156 C 13.132812 91.507812 13.183594 91.359375 13.183594 91.15625 C 13.183594 90.507812 12.582031 89.957031 11.929688 89.957031 C 11.230469 89.957031 10.726562 90.507812 10.726562 91.257812 C 10.726562 92.359375 11.878906 93.210938 13.28125 93.210938 C 16.085938 93.210938 18.34375 90.054688 19.644531 84.195312 L 21.949219 73.925781 L 25.457031 73.925781 L 25.65625 72.921875 L 22.199219 72.921875 C 23.101562 67.914062 24.304688 65.609375 26.054688 65.609375 C 26.507812 65.609375 26.757812 65.808594 26.757812 66.011719 C 26.757812 66.109375 26.757812 66.160156 26.65625 66.363281 C 26.507812 66.613281 26.457031 66.761719 26.457031 67.011719 C 26.457031 67.765625 26.957031 68.265625 27.660156 68.265625 C 28.359375 68.265625 29.011719 67.714844 29.011719 67.011719 C 29.011719 65.808594 27.808594 64.910156 26.257812 64.910156 C 24.652344 64.910156 23.453125 65.609375 22.300781 67.113281 C 21.296875 68.367188 20.695312 69.867188 19.695312 72.921875 L 16.789062 72.921875 Z M 16.539062 73.925781 "/>
<path fill-rule="nonzero" fill="rgb(50.196078%, 50.196078%, 50.196078%)" fill-opacity="1" d="M 39.546875 94.261719 C 39.546875 94.164062 39.546875 94.113281 38.996094 93.5625 C 35.039062 89.554688 33.988281 83.492188 33.988281 78.585938 C 33.988281 73.023438 35.191406 67.464844 39.148438 63.507812 C 39.546875 63.105469 39.546875 63.054688 39.546875 62.957031 C 39.546875 62.703125 39.449219 62.605469 39.246094 62.605469 C 38.898438 62.605469 36.042969 64.808594 34.136719 68.867188 C 32.535156 72.371094 32.132812 75.929688 32.132812 78.585938 C 32.132812 81.089844 32.484375 84.945312 34.238281 88.601562 C 36.191406 92.511719 38.898438 94.613281 39.246094 94.613281 C 39.449219 94.613281 39.546875 94.515625 39.546875 94.261719 Z M 39.546875 94.261719 "/>
<path fill-rule="nonzero" fill="rgb(50.196078%, 50.196078%, 50.196078%)" fill-opacity="1" d="M 54.195312 83.042969 C 53.941406 83.34375 53.792969 83.542969 53.492188 83.894531 C 52.789062 84.894531 52.390625 85.195312 52.039062 85.195312 C 51.589844 85.195312 51.289062 84.796875 51.039062 83.894531 C 50.988281 83.644531 50.9375 83.441406 50.9375 83.34375 C 50.136719 80.085938 49.785156 78.632812 49.785156 78.183594 C 51.1875 75.679688 52.339844 74.277344 52.890625 74.277344 C 53.089844 74.277344 53.34375 74.375 53.691406 74.527344 C 54.042969 74.777344 54.292969 74.828125 54.542969 74.828125 C 55.195312 74.828125 55.644531 74.375 55.644531 73.675781 C 55.644531 73.023438 55.09375 72.523438 54.34375 72.523438 C 52.941406 72.523438 51.738281 73.675781 49.535156 77.082031 L 49.183594 75.328125 C 48.734375 73.125 48.382812 72.523438 47.480469 72.523438 C 46.78125 72.523438 45.726562 72.773438 43.773438 73.425781 L 43.421875 73.574219 L 43.523438 74.027344 C 44.777344 73.773438 45.027344 73.675781 45.328125 73.675781 C 46.128906 73.675781 46.328125 73.976562 46.78125 75.878906 L 47.679688 79.835938 L 45.078125 83.542969 C 44.425781 84.546875 43.773438 85.097656 43.421875 85.097656 C 43.273438 85.097656 42.921875 84.996094 42.621094 84.796875 C 42.222656 84.59375 41.871094 84.496094 41.570312 84.496094 C 40.96875 84.496094 40.519531 84.945312 40.519531 85.597656 C 40.519531 86.449219 41.167969 86.949219 42.121094 86.949219 C 43.074219 86.949219 43.472656 86.648438 45.078125 84.695312 C 45.929688 83.695312 46.628906 82.84375 47.933594 80.988281 L 48.933594 84.796875 C 49.335938 86.449219 49.734375 86.949219 50.785156 86.949219 C 51.988281 86.949219 52.789062 86.199219 54.644531 83.292969 Z M 54.195312 83.042969 "/>
<path fill-rule="nonzero" fill="rgb(50.196078%, 50.196078%, 50.196078%)" fill-opacity="1" d="M 66.773438 88.167969 L 66.472656 88.066406 C 65.621094 89.421875 65.269531 89.621094 64.21875 89.621094 L 58.558594 89.621094 L 62.566406 85.464844 C 64.667969 83.257812 65.570312 81.457031 65.570312 79.601562 C 65.570312 77.246094 63.667969 75.445312 61.214844 75.445312 C 59.910156 75.445312 58.660156 75.945312 57.808594 76.898438 C 57.054688 77.699219 56.703125 78.449219 56.304688 80.152344 L 56.804688 80.253906 C 57.707031 77.949219 58.558594 77.199219 60.210938 77.199219 C 62.214844 77.199219 63.566406 78.550781 63.566406 80.503906 C 63.566406 82.355469 62.464844 84.5625 60.460938 86.664062 L 56.253906 91.125 L 56.253906 91.425781 L 65.472656 91.425781 Z M 66.773438 88.167969 "/>
<path fill-rule="nonzero" fill="rgb(50.196078%, 50.196078%, 50.196078%)" fill-opacity="1" d="M 78.183594 78.585938 C 78.183594 76.128906 77.832031 72.273438 76.078125 68.617188 C 74.175781 64.707031 71.421875 62.605469 71.121094 62.605469 C 70.921875 62.605469 70.769531 62.753906 70.769531 62.957031 C 70.769531 63.054688 70.769531 63.105469 71.371094 63.707031 C 74.527344 66.863281 76.328125 71.921875 76.328125 78.585938 C 76.328125 84.09375 75.179688 89.703125 71.21875 93.710938 C 70.769531 94.113281 70.769531 94.164062 70.769531 94.261719 C 70.769531 94.464844 70.921875 94.613281 71.121094 94.613281 C 71.421875 94.613281 74.328125 92.410156 76.179688 88.351562 C 77.832031 84.847656 78.183594 81.289062 78.183594 78.585938 Z M 78.183594 78.585938 "/>
<path fill="none" stroke-width="0.3985" stroke-linecap="butt" stroke-linejoin="miter" stroke="rgb(69.803922%, 69.803922%, 69.803922%)" stroke-opacity="1" stroke-dasharray="2.98883 2.98883" stroke-miterlimit="10" d="M 20.268855 46.774108 L 51.452325 46.774108 L 51.452325 15.589419 " transform="matrix(3.20595, 0, 0, -3.20595, 34.479996, 350.525777)"/>
<path fill="none" stroke-width="0.3985" stroke-linecap="butt" stroke-linejoin="miter" stroke="rgb(69.803922%, 69.803922%, 69.803922%)" stroke-opacity="1" stroke-dasharray="2.98883 2.98883" stroke-miterlimit="10" d="M 20.268855 84.816163 L 73.280633 84.816163 L 73.280633 15.589419 " transform="matrix(3.20595, 0, 0, -3.20595, 34.479996, 350.525777)"/>
<g clip-path="url(#clip-1)">
<path fill="none" stroke-width="0.99628" stroke-linecap="butt" stroke-linejoin="miter" stroke="rgb(6.666667%, 52.941176%, 87.058824%)" stroke-opacity="1" stroke-miterlimit="10" d="M 35.858762 26.617497 L 36.331516 27.120711 L 36.803052 27.632455 L 37.748559 28.680311 L 38.221313 29.215205 L 38.694066 29.753755 L 39.16682 30.304488 L 40.112328 31.421796 L 40.585081 31.992024 L 41.057835 32.565908 L 41.530589 33.148321 L 42.003343 33.738045 L 42.471223 34.327769 L 42.943976 34.929677 L 43.41673 35.538896 L 43.889484 36.152988 L 44.362238 36.769518 L 44.834991 37.394576 L 45.307745 38.031819 L 46.253253 39.312397 L 46.726006 39.965479 L 47.197542 40.620999 L 47.670295 41.281392 L 48.143049 41.949095 L 48.615803 42.621673 L 49.088557 43.300343 L 49.56131 43.983886 L 50.030409 44.675958 L 50.503163 45.366813 L 51.44867 46.774108 L 51.920205 47.480802 L 52.865713 48.918558 L 53.338467 49.644746 L 53.81122 50.379464 L 54.283974 51.117837 L 54.756728 51.859866 L 55.229482 52.60555 L 55.702235 53.359762 L 56.174989 54.11763 L 56.647743 54.879154 L 57.120496 55.647988 L 57.588376 56.41804 L 58.533884 57.980077 L 59.479391 59.559172 L 60.424899 61.160199 L 60.897653 61.964368 L 61.370406 62.777066 L 61.84316 63.593419 L 62.787449 65.234654 L 63.732957 66.89904 L 64.20571 67.738543 L 64.678464 68.581702 L 65.147563 69.429734 L 65.620316 70.281422 L 66.09307 71.136765 L 67.038578 72.863291 L 67.510113 73.734474 L 68.45562 75.48415 L 69.401128 77.258195 L 69.873882 78.148873 L 70.346635 79.043206 L 70.819389 79.949723 L 71.292143 80.844057 L 71.764897 81.750574 L 72.23765 82.668057 L 72.70553 83.585541 L 73.178284 84.504243 L 73.651038 85.430255 L 74.596545 87.289591 L 75.069299 88.230225 L 75.542053 89.168421 L 76.014806 90.109055 L 76.48756 91.063092 L 76.960314 92.019565 L 77.433068 92.965073 L 77.904603 93.930075 L 78.377357 94.902388 L 78.85011 95.871046 L 79.322864 96.832393 L 79.795618 97.820546 L 80.264716 98.801388 L 80.73747 99.777357 L 81.210224 100.765509 L 81.682978 101.765846 L 82.155731 102.753999 L 82.627267 103.757992 " transform="matrix(3.20595, 0, 0, -3.20595, 34.479996, 350.525777)"/>
</g>
<path fill-rule="nonzero" fill="rgb(50.196078%, 50.196078%, 50.196078%)" fill-opacity="1" d="M 243.597656 312.644531 C 243.945312 312.445312 244.195312 312.292969 244.195312 311.945312 C 244.195312 311.59375 243.894531 311.292969 243.546875 311.292969 C 243.445312 311.292969 243.394531 311.292969 242.996094 311.542969 L 225.261719 319.859375 C 224.910156 320.058594 224.660156 320.210938 224.660156 320.558594 C 224.660156 320.960938 224.910156 321.109375 225.261719 321.3125 L 242.996094 329.625 C 243.394531 329.878906 243.445312 329.878906 243.546875 329.878906 C 243.894531 329.878906 244.195312 329.578125 244.195312 329.226562 C 244.195312 328.875 243.945312 328.726562 243.597656 328.523438 L 226.816406 320.558594 Z M 243.597656 312.644531 "/>
<path fill-rule="nonzero" fill="rgb(50.196078%, 50.196078%, 50.196078%)" fill-opacity="1" d="M 38.523438 136.410156 C 38.371094 136.058594 38.222656 135.808594 37.820312 135.808594 C 37.472656 135.808594 37.171875 136.058594 37.171875 136.457031 C 37.171875 136.609375 37.320312 136.910156 37.371094 137.011719 L 45.738281 154.691406 C 45.988281 155.242188 46.1875 155.34375 46.4375 155.34375 C 46.738281 155.34375 46.9375 155.144531 47.140625 154.691406 L 55.453125 137.011719 C 55.703125 136.609375 55.703125 136.558594 55.703125 136.457031 C 55.703125 136.109375 55.40625 135.808594 55.054688 135.808594 C 54.753906 135.808594 54.554688 135.957031 54.300781 136.507812 L 46.4375 153.191406 Z M 61.867188 136.960938 C 61.867188 136.410156 61.867188 135.808594 61.265625 135.808594 C 60.613281 135.808594 60.613281 136.507812 60.613281 136.960938 L 60.613281 154.191406 C 60.613281 154.691406 60.613281 155.34375 61.265625 155.34375 C 61.867188 155.34375 61.867188 154.792969 61.867188 154.242188 Z M 61.867188 136.960938 "/>
</svg>
