<?xml version="1.0" encoding="UTF-8"?>
<svg xmlns="http://www.w3.org/2000/svg" xmlns:xlink="http://www.w3.org/1999/xlink" width="400" height="183.191816" viewBox="0 0 400 183.191816">
<defs>
<clipPath id="clip-0">
<path clip-rule="nonzero" d="M 43.054688 32 L 357 32 L 357 183 L 43.054688 183 Z M 43.054688 32 "/>
</clipPath>
<clipPath id="clip-1">
<path clip-rule="nonzero" d="M 1 57.402344 L 399 57.402344 L 399 157.859375 L 1 157.859375 Z M 1 57.402344 "/>
</clipPath>
<clipPath id="clip-2">
<path clip-rule="nonzero" d="M 199.320312 35.082031 L 200.914062 35.082031 L 200.914062 183 L 199.320312 183 Z M 199.320312 35.082031 "/>
</clipPath>
<clipPath id="clip-3">
<path clip-rule="nonzero" d="M 1.113281 35.082031 L 398.886719 35.082031 L 398.886719 180 L 1.113281 180 Z M 1.113281 35.082031 "/>
</clipPath>
</defs>
<g clip-path="url(#clip-0)">
<path fill="none" stroke-width="0.09962" stroke-linecap="butt" stroke-linejoin="miter" stroke="rgb(69.803922%, 69.803922%, 69.803922%)" stroke-opacity="1" stroke-dasharray="2.98883 2.98883" stroke-miterlimit="10" d="M 26.765104 -0.00057024 L 26.765104 93.545436 M 75.750228 -0.00057024 L 75.750228 93.545436 M 173.710676 -0.00057024 L 173.710676 93.545436 M 222.6909 -0.00057024 L 222.6909 93.545436 " transform="matrix(1.594553, 0, 0, -1.594553, 1.114593, 182.077216)"/>
</g>
<g clip-path="url(#clip-1)">
<path fill="none" stroke-width="0.09962" stroke-linecap="butt" stroke-linejoin="miter" stroke="rgb(69.803922%, 69.803922%, 69.803922%)" stroke-opacity="1" stroke-dasharray="2.98883 2.98883" stroke-miterlimit="10" d="M -0.000822353 15.589614 L 249.456826 15.589614 M -0.000822353 77.957701 L 249.456826 77.957701 " transform="matrix(1.594553, 0, 0, -1.594553, 1.114593, 182.077216)"/>
</g>
<path fill="none" stroke-width="0.19925" stroke-linecap="butt" stroke-linejoin="miter" stroke="rgb(50.196078%, 50.196078%, 50.196078%)" stroke-opacity="1" stroke-miterlimit="10" d="M 26.765104 44.648503 L 26.765104 48.898812 M 75.750228 44.648503 L 75.750228 48.898812 M 173.710676 44.648503 L 173.710676 48.898812 M 222.6909 44.648503 L 222.6909 48.898812 " transform="matrix(1.594553, 0, 0, -1.594553, 1.114593, 182.077216)"/>
<path fill="none" stroke-width="0.19925" stroke-linecap="butt" stroke-linejoin="miter" stroke="rgb(50.196078%, 50.196078%, 50.196078%)" stroke-opacity="1" stroke-miterlimit="10" d="M 122.601622 15.589614 L 126.856831 15.589614 M 122.601622 77.957701 L 126.856831 77.957701 " transform="matrix(1.594553, 0, 0, -1.594553, 1.114593, 182.077216)"/>
<path fill="none" stroke-width="0.3985" stroke-linecap="butt" stroke-linejoin="miter" stroke="rgb(50.196078%, 50.196078%, 50.196078%)" stroke-opacity="1" stroke-miterlimit="10" d="M -0.000822353 46.772433 L 247.465183 46.772433 " transform="matrix(1.594553, 0, 0, -1.594553, 1.114593, 182.077216)"/>
<path fill-rule="nonzero" fill="rgb(50.196078%, 50.196078%, 50.196078%)" fill-opacity="1" d="M 398.886719 107.496094 L 393.804688 104.953125 L 395.710938 107.496094 L 393.804688 110.035156 "/>
<g clip-path="url(#clip-2)">
<path fill="none" stroke-width="0.3985" stroke-linecap="butt" stroke-linejoin="miter" stroke="rgb(50.196078%, 50.196078%, 50.196078%)" stroke-opacity="1" stroke-miterlimit="10" d="M 124.730452 -0.00057024 L 124.730452 91.553792 " transform="matrix(1.594553, 0, 0, -1.594553, 1.114593, 182.077216)"/>
</g>
<path fill-rule="nonzero" fill="rgb(50.196078%, 50.196078%, 50.196078%)" fill-opacity="1" d="M 200.003906 32.914062 L 197.464844 37.996094 L 200.003906 36.089844 L 202.546875 37.996094 "/>
<path fill-rule="nonzero" fill="rgb(50.196078%, 50.196078%, 50.196078%)" fill-opacity="1" d="M 43.085938 122.097656 C 43.359375 122.097656 43.65625 122.097656 43.65625 121.773438 C 43.65625 121.472656 43.359375 121.472656 43.085938 121.472656 L 34.488281 121.472656 C 34.214844 121.472656 33.941406 121.472656 33.941406 121.773438 C 33.941406 122.097656 34.214844 122.097656 34.488281 122.097656 Z M 43.085938 122.097656 "/>
<path fill-rule="nonzero" fill="rgb(50.196078%, 50.196078%, 50.196078%)" fill-opacity="1" d="M 46.359375 120.226562 C 47.03125 119.40625 47.332031 119.230469 48.101562 119.230469 L 48.824219 119.230469 L 47.828125 122.746094 C 47.679688 123.191406 47.40625 123.542969 46.78125 124.039062 C 46.207031 124.488281 46.035156 124.738281 45.984375 125.085938 C 45.910156 125.558594 46.207031 125.957031 46.707031 125.957031 C 47.207031 125.957031 47.652344 125.609375 47.976562 124.910156 C 48.175781 124.511719 48.675781 122.894531 49.074219 121.273438 L 49.621094 119.230469 L 51.339844 119.230469 C 50.941406 120.476562 50.519531 122.195312 50.371094 123.09375 C 50.070312 124.886719 50.496094 125.957031 51.464844 125.957031 C 52.089844 125.957031 52.710938 125.535156 53.210938 124.789062 C 53.507812 124.339844 53.632812 124.039062 53.808594 123.242188 L 53.410156 123.242188 C 53.210938 124.015625 52.835938 124.414062 52.3125 124.414062 C 52.015625 124.414062 51.714844 124.191406 51.589844 123.839844 C 51.492188 123.566406 51.492188 123.316406 51.566406 122.792969 C 51.789062 121.574219 52.089844 120.105469 52.363281 119.230469 L 54.382812 119.230469 L 54.605469 117.8125 L 49.050781 117.8125 C 48.203125 117.8125 47.851562 117.910156 47.332031 118.359375 C 46.808594 118.808594 46.484375 119.28125 46.035156 120.226562 Z M 46.359375 120.226562 "/>
<path fill-rule="nonzero" fill="rgb(50.196078%, 50.196078%, 50.196078%)" fill-opacity="1" d="M 113.246094 124.664062 C 113.519531 124.664062 113.816406 124.664062 113.816406 124.339844 C 113.816406 124.039062 113.519531 124.039062 113.246094 124.039062 L 104.648438 124.039062 C 104.375 124.039062 104.101562 124.039062 104.101562 124.339844 C 104.101562 124.664062 104.375 124.664062 104.648438 124.664062 Z M 113.246094 124.664062 "/>
<path fill-rule="nonzero" fill="rgb(50.196078%, 50.196078%, 50.196078%)" fill-opacity="1" d="M 116.519531 122.792969 C 117.191406 121.972656 117.492188 121.796875 118.261719 121.796875 L 118.984375 121.796875 L 117.988281 125.308594 C 117.839844 125.757812 117.566406 126.105469 116.941406 126.605469 C 116.371094 127.054688 116.195312 127.304688 116.144531 127.652344 C 116.070312 128.125 116.371094 128.523438 116.867188 128.523438 C 117.367188 128.523438 117.8125 128.175781 118.136719 127.476562 C 118.335938 127.078125 118.835938 125.460938 119.234375 123.839844 L 119.78125 121.796875 L 121.5 121.796875 C 121.101562 123.042969 120.679688 124.761719 120.53125 125.660156 C 120.230469 127.453125 120.65625 128.523438 121.625 128.523438 C 122.25 128.523438 122.871094 128.101562 123.371094 127.351562 C 123.667969 126.90625 123.792969 126.605469 123.96875 125.808594 L 123.570312 125.808594 C 123.371094 126.582031 122.996094 126.980469 122.472656 126.980469 C 122.175781 126.980469 121.875 126.753906 121.75 126.40625 C 121.652344 126.132812 121.652344 125.882812 121.726562 125.359375 C 121.949219 124.140625 122.25 122.667969 122.523438 121.796875 L 124.542969 121.796875 L 124.765625 120.378906 L 119.210938 120.378906 C 118.363281 120.378906 118.011719 120.476562 117.492188 120.925781 C 116.96875 121.375 116.644531 121.847656 116.195312 122.792969 Z M 116.519531 122.792969 "/>
<path fill-rule="nonzero" fill="rgb(50.196078%, 50.196078%, 50.196078%)" fill-opacity="1" d="M 132.105469 117.011719 C 132.183594 116.789062 132.183594 116.738281 132.183594 116.714844 C 132.183594 116.539062 132.058594 116.390625 131.882812 116.390625 C 131.757812 116.390625 131.660156 116.441406 131.609375 116.539062 L 126.078125 131.6875 C 126.003906 131.914062 126.003906 131.960938 126.003906 131.988281 C 126.003906 132.160156 126.152344 132.3125 126.328125 132.3125 C 126.527344 132.3125 126.574219 132.1875 126.675781 131.914062 Z M 132.105469 117.011719 "/>
<path fill-rule="nonzero" fill="rgb(50.196078%, 50.196078%, 50.196078%)" fill-opacity="1" d="M 140.621094 126.15625 L 140.421875 126.058594 C 139.824219 126.980469 139.625 127.128906 138.902344 127.128906 L 135.117188 127.128906 L 137.78125 124.3125 C 139.203125 122.84375 139.824219 121.621094 139.824219 120.402344 C 139.824219 118.808594 138.53125 117.585938 136.859375 117.585938 C 135.988281 117.585938 135.167969 117.933594 134.59375 118.558594 C 134.070312 119.105469 133.847656 119.605469 133.570312 120.75 L 133.894531 120.824219 C 134.542969 119.253906 135.117188 118.757812 136.210938 118.757812 C 137.53125 118.757812 138.453125 119.65625 138.453125 121 C 138.453125 122.246094 137.707031 123.714844 136.386719 125.136719 L 133.546875 128.125 L 133.546875 128.324219 L 139.75 128.324219 Z M 140.621094 126.15625 "/>
<path fill-rule="nonzero" fill="rgb(50.196078%, 50.196078%, 50.196078%)" fill-opacity="1" d="M 266.550781 122.792969 C 267.222656 121.972656 267.523438 121.796875 268.292969 121.796875 L 269.015625 121.796875 L 268.019531 125.308594 C 267.871094 125.757812 267.597656 126.105469 266.972656 126.605469 C 266.402344 127.054688 266.226562 127.304688 266.175781 127.652344 C 266.101562 128.125 266.402344 128.523438 266.898438 128.523438 C 267.398438 128.523438 267.847656 128.175781 268.167969 127.476562 C 268.367188 127.078125 268.867188 125.460938 269.265625 123.839844 L 269.8125 121.796875 L 271.535156 121.796875 C 271.132812 123.042969 270.710938 124.761719 270.5625 125.660156 C 270.261719 127.453125 270.6875 128.523438 271.65625 128.523438 C 272.28125 128.523438 272.902344 128.101562 273.402344 127.351562 C 273.699219 126.90625 273.824219 126.605469 274 125.808594 L 273.601562 125.808594 C 273.402344 126.582031 273.027344 126.980469 272.503906 126.980469 C 272.207031 126.980469 271.90625 126.753906 271.78125 126.40625 C 271.683594 126.132812 271.683594 125.882812 271.757812 125.359375 C 271.980469 124.140625 272.28125 122.667969 272.554688 121.796875 L 274.574219 121.796875 L 274.796875 120.378906 L 269.242188 120.378906 C 268.394531 120.378906 268.046875 120.476562 267.523438 120.925781 C 267 121.375 266.675781 121.847656 266.226562 122.792969 Z M 266.550781 122.792969 "/>
<path fill-rule="nonzero" fill="rgb(50.196078%, 50.196078%, 50.196078%)" fill-opacity="1" d="M 282.136719 117.011719 C 282.214844 116.789062 282.214844 116.738281 282.214844 116.714844 C 282.214844 116.539062 282.089844 116.390625 281.914062 116.390625 C 281.789062 116.390625 281.691406 116.441406 281.640625 116.539062 L 276.109375 131.6875 C 276.035156 131.914062 276.035156 131.960938 276.035156 131.988281 C 276.035156 132.160156 276.183594 132.3125 276.359375 132.3125 C 276.558594 132.3125 276.609375 132.1875 276.707031 131.914062 Z M 282.136719 117.011719 "/>
<path fill-rule="nonzero" fill="rgb(50.196078%, 50.196078%, 50.196078%)" fill-opacity="1" d="M 290.652344 126.15625 L 290.453125 126.058594 C 289.855469 126.980469 289.65625 127.128906 288.933594 127.128906 L 285.148438 127.128906 L 287.8125 124.3125 C 289.234375 122.84375 289.855469 121.621094 289.855469 120.402344 C 289.855469 118.808594 288.5625 117.585938 286.890625 117.585938 C 286.019531 117.585938 285.199219 117.933594 284.625 118.558594 C 284.101562 119.105469 283.878906 119.605469 283.601562 120.75 L 283.925781 120.824219 C 284.574219 119.253906 285.148438 118.757812 286.246094 118.757812 C 287.566406 118.757812 288.488281 119.65625 288.488281 121 C 288.488281 122.246094 287.738281 123.714844 286.417969 125.136719 L 283.578125 128.125 L 283.578125 128.324219 L 289.78125 128.324219 Z M 290.652344 126.15625 "/>
<path fill-rule="nonzero" fill="rgb(50.196078%, 50.196078%, 50.196078%)" fill-opacity="1" d="M 352.59375 118.804688 C 353.265625 117.984375 353.566406 117.808594 354.339844 117.808594 L 355.058594 117.808594 L 354.0625 121.320312 C 353.914062 121.769531 353.640625 122.121094 353.015625 122.617188 C 352.445312 123.066406 352.269531 123.316406 352.21875 123.664062 C 352.144531 124.136719 352.445312 124.535156 352.941406 124.535156 C 353.441406 124.535156 353.890625 124.1875 354.214844 123.488281 C 354.414062 123.089844 354.910156 121.472656 355.308594 119.851562 L 355.859375 117.808594 L 357.578125 117.808594 C 357.179688 119.054688 356.753906 120.773438 356.605469 121.671875 C 356.304688 123.464844 356.730469 124.535156 357.703125 124.535156 C 358.324219 124.535156 358.945312 124.113281 359.445312 123.363281 C 359.746094 122.917969 359.867188 122.617188 360.042969 121.820312 L 359.644531 121.820312 C 359.445312 122.59375 359.070312 122.992188 358.546875 122.992188 C 358.25 122.992188 357.949219 122.765625 357.824219 122.417969 C 357.726562 122.144531 357.726562 121.894531 357.800781 121.371094 C 358.023438 120.152344 358.324219 118.679688 358.597656 117.808594 L 360.617188 117.808594 L 360.839844 116.390625 L 355.285156 116.390625 C 354.4375 116.390625 354.089844 116.488281 353.566406 116.9375 C 353.042969 117.386719 352.71875 117.859375 352.269531 118.804688 Z M 352.59375 118.804688 "/>
<path fill-rule="nonzero" fill="rgb(50.196078%, 50.196078%, 50.196078%)" fill-opacity="1" d="M 181.175781 158.207031 C 181.449219 158.207031 181.75 158.207031 181.75 157.882812 C 181.75 157.585938 181.449219 157.585938 181.175781 157.585938 L 172.578125 157.585938 C 172.304688 157.585938 172.03125 157.585938 172.03125 157.882812 C 172.03125 158.207031 172.304688 158.207031 172.578125 158.207031 Z M 181.175781 158.207031 "/>
<path fill-rule="nonzero" fill="rgb(50.196078%, 50.196078%, 50.196078%)" fill-opacity="1" d="M 187.6875 151.132812 L 184.824219 152.578125 L 184.824219 152.800781 C 185 152.726562 185.171875 152.652344 185.246094 152.628906 C 185.546875 152.503906 185.796875 152.453125 185.96875 152.453125 C 186.292969 152.453125 186.441406 152.675781 186.441406 153.199219 L 186.441406 160.402344 C 186.441406 160.925781 186.320312 161.273438 186.070312 161.421875 C 185.820312 161.570312 185.597656 161.621094 184.921875 161.621094 L 184.921875 161.871094 L 189.308594 161.871094 L 189.308594 161.621094 C 188.0625 161.621094 187.8125 161.449219 187.8125 160.699219 L 187.8125 151.15625 Z M 187.6875 151.132812 "/>
<path fill-rule="nonzero" fill="rgb(50.196078%, 50.196078%, 50.196078%)" fill-opacity="1" d="M 187.6875 52.351562 L 184.824219 53.796875 L 184.824219 54.019531 C 185 53.945312 185.171875 53.871094 185.246094 53.84375 C 185.546875 53.71875 185.796875 53.671875 185.96875 53.671875 C 186.292969 53.671875 186.441406 53.894531 186.441406 54.417969 L 186.441406 61.617188 C 186.441406 62.140625 186.320312 62.492188 186.070312 62.640625 C 185.820312 62.789062 185.597656 62.839844 184.921875 62.839844 L 184.921875 63.089844 L 189.308594 63.089844 L 189.308594 62.839844 C 188.0625 62.839844 187.8125 62.664062 187.8125 61.917969 L 187.8125 52.375 Z M 187.6875 52.351562 "/>
<g clip-path="url(#clip-3)">
<path fill="none" stroke-width="0.99628" stroke-linecap="butt" stroke-linejoin="miter" stroke="rgb(6.666667%, 52.941176%, 87.058824%)" stroke-opacity="1" stroke-miterlimit="10" d="M -0.000822353 70.370837 L 2.519966 68.648666 L 5.038305 66.784409 L 7.559094 64.787866 L 10.077433 62.676185 L 12.598222 60.456715 L 15.116561 58.151503 L 17.63735 55.7728 L 20.155689 53.330403 L 22.676478 50.85126 L 25.194817 48.34272 L 27.718055 45.824381 L 30.238844 43.310941 L 32.757183 40.81955 L 35.277972 38.369803 L 37.796311 35.971502 L 40.317099 33.649143 L 42.835439 31.410075 L 45.356227 29.268997 L 47.874566 27.240607 L 50.395355 25.342053 L 52.913694 23.585586 L 55.434483 21.981002 L 57.952822 20.535652 L 60.473611 19.256884 L 62.99195 18.164297 L 65.512738 17.257891 L 68.031077 16.542565 L 70.551866 16.023219 L 73.075105 15.707202 L 75.593444 15.592064 L 78.114233 15.682704 L 80.632572 15.971775 L 83.15336 16.469073 L 85.671699 17.159901 L 88.192488 18.04181 L 90.710827 19.112349 L 93.231616 20.366619 L 95.749955 21.787472 L 98.270744 23.377357 L 100.789083 25.116677 L 103.309872 27.000532 L 105.828211 29.011773 L 108.348999 31.135703 L 110.867338 33.367422 L 113.388127 35.682432 L 115.906466 38.070934 L 118.429705 40.515781 L 120.950493 43.002273 L 123.468832 45.510813 L 125.989621 48.031602 L 128.50796 50.542592 L 131.028749 53.026635 L 133.547088 55.471481 L 136.065427 57.862433 L 138.586216 60.179893 L 141.104555 62.406712 L 143.625344 64.530642 L 146.143683 66.541884 L 148.664471 68.425739 L 151.18281 70.167508 L 153.703599 71.752494 L 156.221938 73.178246 L 158.742727 74.430066 L 161.261066 75.503055 L 163.781855 76.387414 L 166.305093 77.078242 L 168.823432 77.573091 L 171.344221 77.862161 L 173.86256 77.952801 L 176.383349 77.840113 L 178.901688 77.524096 L 181.422477 77.007199 L 183.940816 76.291874 L 186.461604 75.383018 L 188.979943 74.287981 L 191.500732 73.014113 L 194.019071 71.568763 L 196.53986 69.964179 L 199.058199 68.207711 L 201.578988 66.309158 L 204.097327 64.280768 L 206.618116 62.14459 L 209.136455 59.900622 L 211.659693 57.578263 L 214.180482 55.179961 L 216.698821 52.730215 L 219.21961 50.238823 L 221.737949 47.725384 L 224.258738 45.207045 L 226.777077 42.698505 L 229.297865 40.219362 L 231.816204 37.776965 L 234.336993 35.398261 L 236.855332 33.088151 L 239.376121 30.87358 L 241.89446 28.761899 L 244.415249 26.765356 L 246.933588 24.901099 L 249.454377 23.178928 " transform="matrix(1.594553, 0, 0, -1.594553, 1.114593, 182.077216)"/>
</g>
<path fill="none" stroke-width="0.79701" stroke-linecap="butt" stroke-linejoin="miter" stroke="rgb(100%, 12.941176%, 32.156863%)" stroke-opacity="1" stroke-miterlimit="10" d="M 31.429421 46.772433 L 218.026583 46.772433 " transform="matrix(1.594553, 0, 0, -1.594553, 1.114593, 182.077216)"/>
<path fill-rule="nonzero" fill="rgb(100%, 12.941176%, 32.156863%)" fill-opacity="1" d="M 43.792969 107.496094 C 46 107.90625 49.582031 109.144531 52.058594 110.589844 L 52.058594 104.398438 C 49.582031 105.84375 46 107.085938 43.792969 107.496094 "/>
<path fill-rule="nonzero" fill="rgb(100%, 12.941176%, 32.156863%)" fill-opacity="1" d="M 356.207031 107.496094 C 354.003906 107.085938 350.429688 105.84375 347.949219 104.398438 L 347.949219 110.589844 C 350.429688 109.144531 354.003906 107.90625 356.207031 107.496094 "/>
<path fill-rule="nonzero" fill="rgb(100%, 12.941176%, 32.156863%)" fill-opacity="1" d="M 167.542969 96.980469 C 167.941406 97.027344 168.214844 97.027344 168.636719 97.027344 C 169.882812 97.027344 170.730469 96.878906 171.429688 96.503906 C 172.375 95.980469 172.949219 95.011719 172.949219 93.964844 C 172.949219 93.292969 172.722656 92.691406 172.300781 92.246094 C 171.652344 91.546875 170.28125 91.097656 168.789062 91.097656 L 164.578125 91.097656 L 164.578125 91.398438 C 165.75 91.523438 165.921875 91.671875 165.921875 92.816406 L 165.921875 99.695312 C 165.921875 101.039062 165.796875 101.1875 164.578125 101.3125 L 164.578125 101.613281 L 169.039062 101.613281 L 169.039062 101.3125 C 167.765625 101.265625 167.542969 101.039062 167.542969 99.867188 Z M 167.542969 92.21875 C 167.542969 91.796875 167.640625 91.671875 168.089844 91.671875 C 170.234375 91.671875 171.203125 92.417969 171.203125 94.0625 C 171.203125 95.609375 170.28125 96.40625 168.4375 96.40625 C 168.117188 96.40625 167.914062 96.378906 167.542969 96.355469 Z M 167.542969 92.21875 "/>
<path fill-rule="nonzero" fill="rgb(100%, 12.941176%, 32.156863%)" fill-opacity="1" d="M 179.640625 98.996094 C 178.890625 100.21875 178.195312 100.667969 177.171875 100.667969 C 176.273438 100.667969 175.601562 100.21875 175.128906 99.296875 C 174.855469 98.699219 174.730469 98.175781 174.707031 97.203125 L 179.589844 97.203125 C 179.464844 96.179688 179.316406 95.707031 178.917969 95.210938 C 178.441406 94.636719 177.695312 94.3125 176.875 94.3125 C 176.074219 94.3125 175.328125 94.585938 174.730469 95.136719 C 173.984375 95.78125 173.558594 96.902344 173.558594 98.199219 C 173.558594 100.417969 174.707031 101.761719 176.523438 101.761719 C 178.042969 101.761719 179.238281 100.839844 179.914062 99.121094 Z M 174.730469 96.703125 C 174.90625 95.457031 175.453125 94.859375 176.425781 94.859375 C 177.394531 94.859375 177.769531 95.308594 177.96875 96.703125 Z M 174.730469 96.703125 "/>
<path fill-rule="nonzero" fill="rgb(100%, 12.941176%, 32.156863%)" fill-opacity="1" d="M 180.3125 95.410156 C 180.539062 95.359375 180.6875 95.359375 180.886719 95.359375 C 181.285156 95.359375 181.410156 95.609375 181.410156 96.304688 L 181.410156 100.265625 C 181.410156 101.066406 181.308594 101.1875 180.289062 101.363281 L 180.289062 101.613281 L 184.101562 101.613281 L 184.101562 101.363281 C 183.03125 101.339844 182.753906 101.089844 182.753906 100.191406 L 182.753906 96.605469 C 182.753906 96.105469 183.453125 95.308594 183.875 95.308594 C 183.976562 95.308594 184.101562 95.382812 184.273438 95.535156 C 184.550781 95.757812 184.722656 95.859375 184.921875 95.859375 C 185.296875 95.859375 185.546875 95.582031 185.546875 95.136719 C 185.546875 94.613281 185.195312 94.3125 184.675781 94.3125 C 184 94.3125 183.527344 94.660156 182.753906 95.78125 L 182.753906 94.335938 L 182.679688 94.3125 C 181.832031 94.660156 181.261719 94.859375 180.3125 95.160156 Z M 180.3125 95.410156 "/>
<path fill-rule="nonzero" fill="rgb(100%, 12.941176%, 32.156863%)" fill-opacity="1" d="M 188.292969 94.3125 L 185.828125 95.183594 L 185.828125 95.410156 L 185.953125 95.410156 C 186.152344 95.359375 186.351562 95.359375 186.5 95.359375 C 186.875 95.359375 187.023438 95.609375 187.023438 96.304688 L 187.023438 99.992188 C 187.023438 101.140625 186.847656 101.3125 185.753906 101.363281 L 185.753906 101.613281 L 189.515625 101.613281 L 189.515625 101.363281 C 188.46875 101.289062 188.34375 101.140625 188.34375 99.992188 L 188.34375 94.335938 Z M 187.546875 90.75 C 187.097656 90.75 186.75 91.125 186.75 91.570312 C 186.75 92.019531 187.097656 92.371094 187.546875 92.371094 C 187.996094 92.371094 188.371094 92.019531 188.371094 91.570312 C 188.371094 91.125 187.996094 90.75 187.546875 90.75 Z M 187.546875 90.75 "/>
<path fill-rule="nonzero" fill="rgb(100%, 12.941176%, 32.156863%)" fill-opacity="1" d="M 193.90625 94.3125 C 191.839844 94.3125 190.394531 95.832031 190.394531 98.023438 C 190.394531 100.167969 191.863281 101.761719 193.855469 101.761719 C 195.875 101.761719 197.394531 100.09375 197.394531 97.902344 C 197.394531 95.808594 195.925781 94.3125 193.90625 94.3125 Z M 193.683594 94.738281 C 195.027344 94.738281 195.949219 96.28125 195.949219 98.449219 C 195.949219 100.242188 195.253906 101.339844 194.054688 101.339844 C 193.433594 101.339844 192.835938 100.941406 192.511719 100.316406 C 192.0625 99.496094 191.8125 98.375 191.8125 97.253906 C 191.8125 95.734375 192.5625 94.738281 193.683594 94.738281 Z M 193.683594 94.738281 "/>
<path fill-rule="nonzero" fill="rgb(100%, 12.941176%, 32.156863%)" fill-opacity="1" d="M 203.320312 101.761719 L 205.660156 100.941406 L 205.660156 100.691406 C 205.386719 100.714844 205.335938 100.714844 205.3125 100.714844 C 204.738281 100.714844 204.617188 100.542969 204.617188 99.792969 L 204.617188 90.800781 L 204.515625 90.75 C 203.769531 91.023438 203.195312 91.171875 202.199219 91.449219 L 202.199219 91.722656 C 202.324219 91.695312 202.398438 91.695312 202.546875 91.695312 C 203.121094 91.695312 203.269531 91.847656 203.269531 92.492188 L 203.269531 94.984375 C 202.671875 94.488281 202.222656 94.3125 201.601562 94.3125 C 199.78125 94.3125 198.285156 96.105469 198.285156 98.347656 C 198.285156 100.390625 199.484375 101.761719 201.226562 101.761719 C 202.125 101.761719 202.722656 101.464844 203.269531 100.714844 L 203.269531 101.710938 Z M 203.269531 99.992188 C 203.269531 100.09375 203.144531 100.292969 202.996094 100.46875 C 202.722656 100.789062 202.324219 100.941406 201.851562 100.941406 C 200.527344 100.941406 199.65625 99.667969 199.65625 97.726562 C 199.65625 95.933594 200.429688 94.738281 201.652344 94.738281 C 202.496094 94.738281 203.269531 95.484375 203.269531 96.332031 Z M 203.269531 99.992188 "/>
<path fill-rule="nonzero" fill="rgb(100%, 12.941176%, 32.156863%)" fill-opacity="1" d="M 209.792969 94.3125 C 207.726562 94.3125 206.28125 95.832031 206.28125 98.023438 C 206.28125 100.167969 207.75 101.761719 209.742188 101.761719 C 211.761719 101.761719 213.28125 100.09375 213.28125 97.902344 C 213.28125 95.808594 211.8125 94.3125 209.792969 94.3125 Z M 209.570312 94.738281 C 210.914062 94.738281 211.835938 96.28125 211.835938 98.449219 C 211.835938 100.242188 211.136719 101.339844 209.941406 101.339844 C 209.320312 101.339844 208.722656 100.941406 208.398438 100.316406 C 207.949219 99.496094 207.699219 98.375 207.699219 97.253906 C 207.699219 95.734375 208.449219 94.738281 209.570312 94.738281 Z M 209.570312 94.738281 "/>
<path fill-rule="nonzero" fill="rgb(100%, 12.941176%, 32.156863%)" fill-opacity="1" d="M 225.269531 99.445312 L 225.070312 99.34375 C 224.472656 100.265625 224.273438 100.417969 223.550781 100.417969 L 219.765625 100.417969 L 222.429688 97.601562 C 223.851562 96.132812 224.472656 94.910156 224.472656 93.691406 C 224.472656 92.09375 223.175781 90.875 221.507812 90.875 C 220.636719 90.875 219.8125 91.222656 219.242188 91.847656 C 218.71875 92.394531 218.492188 92.894531 218.21875 94.039062 L 218.542969 94.113281 C 219.191406 92.542969 219.765625 92.046875 220.859375 92.046875 C 222.179688 92.046875 223.101562 92.941406 223.101562 94.289062 C 223.101562 95.535156 222.355469 97.003906 221.035156 98.421875 L 218.195312 101.414062 L 218.195312 101.613281 L 224.398438 101.613281 Z M 225.269531 99.445312 "/>
<path fill-rule="nonzero" fill="rgb(100%, 12.941176%, 32.156863%)" fill-opacity="1" d="M 227.058594 96.082031 C 227.730469 95.257812 228.03125 95.085938 228.800781 95.085938 L 229.523438 95.085938 L 228.527344 98.597656 C 228.378906 99.046875 228.105469 99.394531 227.480469 99.894531 C 226.910156 100.34375 226.734375 100.589844 226.683594 100.941406 C 226.609375 101.414062 226.910156 101.8125 227.40625 101.8125 C 227.90625 101.8125 228.355469 101.464844 228.675781 100.765625 C 228.875 100.367188 229.375 98.746094 229.773438 97.128906 L 230.320312 95.085938 L 232.039062 95.085938 C 231.640625 96.332031 231.21875 98.050781 231.070312 98.945312 C 230.769531 100.742188 231.195312 101.8125 232.164062 101.8125 C 232.789062 101.8125 233.410156 101.386719 233.910156 100.640625 C 234.207031 100.191406 234.332031 99.894531 234.507812 99.097656 L 234.109375 99.097656 C 233.910156 99.867188 233.535156 100.265625 233.011719 100.265625 C 232.714844 100.265625 232.414062 100.042969 232.289062 99.695312 C 232.191406 99.421875 232.191406 99.171875 232.265625 98.648438 C 232.488281 97.425781 232.789062 95.957031 233.0625 95.085938 L 235.082031 95.085938 L 235.304688 93.664062 L 229.75 93.664062 C 228.902344 93.664062 228.554688 93.765625 228.03125 94.214844 C 227.507812 94.660156 227.183594 95.136719 226.734375 96.082031 Z M 227.058594 96.082031 "/>
<path fill="none" stroke-width="0.3985" stroke-linecap="butt" stroke-linejoin="miter" stroke="rgb(50.196078%, 50.196078%, 50.196078%)" stroke-opacity="1" stroke-miterlimit="10" d="M 82.425786 96.553724 L 167.035118 96.553724 L 167.035118 113.488819 L 82.425786 113.488819 Z M 82.425786 96.553724 " transform="matrix(1.594553, 0, 0, -1.594553, 1.114593, 182.077216)"/>
<path fill="none" stroke-width="0.99628" stroke-linecap="butt" stroke-linejoin="miter" stroke="rgb(6.666667%, 52.941176%, 87.058824%)" stroke-opacity="1" stroke-miterlimit="10" d="M -0.000676413 0.0000497913 L 17.007911 0.0000497913 " transform="matrix(1.594553, 0, 0, -1.594553, 138.102641, 14.617267)"/>
<path fill-rule="nonzero" fill="rgb(50.196078%, 50.196078%, 50.196078%)" fill-opacity="1" d="M 172.125 13.078125 L 173.570312 13.078125 L 172.175781 19.757812 C 171.828125 21.476562 171.304688 22.347656 170.628906 22.347656 C 170.429688 22.347656 170.304688 22.222656 170.304688 22.074219 C 170.304688 22.050781 170.332031 22 170.382812 21.898438 C 170.429688 21.824219 170.457031 21.75 170.457031 21.652344 C 170.457031 21.328125 170.15625 21.050781 169.832031 21.050781 C 169.484375 21.050781 169.234375 21.328125 169.234375 21.699219 C 169.234375 22.25 169.808594 22.671875 170.503906 22.671875 C 171.902344 22.671875 173.023438 21.101562 173.671875 18.1875 L 174.816406 13.078125 L 176.558594 13.078125 L 176.660156 12.582031 L 174.941406 12.582031 C 175.390625 10.089844 175.988281 8.945312 176.859375 8.945312 C 177.082031 8.945312 177.207031 9.042969 177.207031 9.144531 C 177.207031 9.191406 177.207031 9.21875 177.15625 9.316406 C 177.082031 9.441406 177.058594 9.515625 177.058594 9.640625 C 177.058594 10.015625 177.308594 10.265625 177.65625 10.265625 C 178.003906 10.265625 178.328125 9.992188 178.328125 9.640625 C 178.328125 9.042969 177.730469 8.59375 176.957031 8.59375 C 176.160156 8.59375 175.5625 8.945312 174.992188 9.691406 C 174.492188 10.3125 174.191406 11.0625 173.695312 12.582031 L 172.25 12.582031 Z M 172.125 13.078125 "/>
<path fill-rule="nonzero" fill="rgb(50.196078%, 50.196078%, 50.196078%)" fill-opacity="1" d="M 183.570312 23.195312 C 183.570312 23.144531 183.570312 23.121094 183.296875 22.847656 C 181.328125 20.851562 180.804688 17.839844 180.804688 15.398438 C 180.804688 12.632812 181.402344 9.867188 183.371094 7.898438 C 183.570312 7.699219 183.570312 7.671875 183.570312 7.625 C 183.570312 7.5 183.519531 7.449219 183.421875 7.449219 C 183.246094 7.449219 181.828125 8.546875 180.878906 10.5625 C 180.082031 12.308594 179.882812 14.078125 179.882812 15.398438 C 179.882812 16.644531 180.058594 18.5625 180.929688 20.378906 C 181.902344 22.324219 183.246094 23.371094 183.421875 23.371094 C 183.519531 23.371094 183.570312 23.320312 183.570312 23.195312 Z M 183.570312 23.195312 "/>
<path fill-rule="nonzero" fill="rgb(50.196078%, 50.196078%, 50.196078%)" fill-opacity="1" d="M 190.855469 17.613281 C 190.730469 17.765625 190.65625 17.863281 190.507812 18.039062 C 190.15625 18.535156 189.957031 18.6875 189.785156 18.6875 C 189.558594 18.6875 189.410156 18.488281 189.285156 18.039062 C 189.261719 17.914062 189.234375 17.8125 189.234375 17.765625 C 188.835938 16.144531 188.664062 15.421875 188.664062 15.199219 C 189.359375 13.953125 189.933594 13.253906 190.207031 13.253906 C 190.308594 13.253906 190.433594 13.304688 190.605469 13.378906 C 190.78125 13.503906 190.90625 13.527344 191.03125 13.527344 C 191.355469 13.527344 191.578125 13.304688 191.578125 12.957031 C 191.578125 12.632812 191.304688 12.382812 190.929688 12.382812 C 190.230469 12.382812 189.632812 12.957031 188.539062 14.648438 L 188.363281 13.777344 C 188.140625 12.679688 187.964844 12.382812 187.515625 12.382812 C 187.167969 12.382812 186.644531 12.507812 185.671875 12.832031 L 185.5 12.90625 L 185.546875 13.128906 C 186.171875 13.003906 186.296875 12.957031 186.445312 12.957031 C 186.84375 12.957031 186.945312 13.105469 187.167969 14.050781 L 187.617188 16.019531 L 186.320312 17.863281 C 185.996094 18.363281 185.671875 18.636719 185.5 18.636719 C 185.421875 18.636719 185.25 18.585938 185.101562 18.488281 C 184.902344 18.386719 184.726562 18.335938 184.578125 18.335938 C 184.277344 18.335938 184.054688 18.5625 184.054688 18.886719 C 184.054688 19.308594 184.378906 19.558594 184.851562 19.558594 C 185.324219 19.558594 185.523438 19.410156 186.320312 18.4375 C 186.746094 17.9375 187.09375 17.515625 187.742188 16.59375 L 188.238281 18.488281 C 188.4375 19.308594 188.636719 19.558594 189.160156 19.558594 C 189.757812 19.558594 190.15625 19.183594 191.078125 17.738281 Z M 190.855469 17.613281 "/>
<path fill-rule="nonzero" fill="rgb(50.196078%, 50.196078%, 50.196078%)" fill-opacity="1" d="M 196.160156 15.398438 C 196.160156 14.175781 195.988281 12.257812 195.117188 10.4375 C 194.167969 8.496094 192.796875 7.449219 192.648438 7.449219 C 192.550781 7.449219 192.472656 7.523438 192.472656 7.625 C 192.472656 7.671875 192.472656 7.699219 192.773438 7.996094 C 194.34375 9.566406 195.238281 12.082031 195.238281 15.398438 C 195.238281 18.136719 194.667969 20.929688 192.699219 22.921875 C 192.472656 23.121094 192.472656 23.144531 192.472656 23.195312 C 192.472656 23.296875 192.550781 23.371094 192.648438 23.371094 C 192.796875 23.371094 194.242188 22.273438 195.164062 20.253906 C 195.988281 18.511719 196.160156 16.742188 196.160156 15.398438 Z M 196.160156 15.398438 "/>
<path fill-rule="nonzero" fill="rgb(50.196078%, 50.196078%, 50.196078%)" fill-opacity="1" d="M 212.179688 14.175781 C 212.429688 14.175781 212.726562 14.175781 212.726562 13.878906 C 212.726562 13.554688 212.429688 13.554688 212.203125 13.554688 L 202.6875 13.554688 C 202.460938 13.554688 202.164062 13.554688 202.164062 13.878906 C 202.164062 14.175781 202.460938 14.175781 202.6875 14.175781 Z M 212.203125 17.265625 C 212.429688 17.265625 212.726562 17.265625 212.726562 16.941406 C 212.726562 16.644531 212.429688 16.644531 212.179688 16.644531 L 202.6875 16.644531 C 202.460938 16.644531 202.164062 16.644531 202.164062 16.941406 C 202.164062 17.265625 202.460938 17.265625 202.6875 17.265625 Z M 212.203125 17.265625 "/>
<path fill-rule="nonzero" fill="rgb(50.196078%, 50.196078%, 50.196078%)" fill-opacity="1" d="M 222.152344 14.402344 L 222.078125 12.234375 L 221.902344 12.234375 L 221.878906 12.257812 C 221.730469 12.382812 221.730469 12.382812 221.652344 12.382812 C 221.554688 12.382812 221.40625 12.355469 221.230469 12.28125 C 220.882812 12.15625 220.53125 12.082031 220.109375 12.082031 C 218.863281 12.082031 217.96875 12.90625 217.96875 14.050781 C 217.96875 14.921875 218.464844 15.570312 219.808594 16.34375 L 220.730469 16.867188 C 221.304688 17.164062 221.554688 17.566406 221.554688 18.039062 C 221.554688 18.734375 221.054688 19.183594 220.234375 19.183594 C 219.710938 19.183594 219.210938 18.984375 218.914062 18.636719 C 218.566406 18.238281 218.441406 17.863281 218.214844 16.964844 L 217.96875 16.964844 L 217.96875 19.457031 L 218.167969 19.457031 C 218.289062 19.285156 218.339844 19.257812 218.539062 19.257812 C 218.6875 19.257812 218.914062 19.285156 219.261719 19.382812 C 219.710938 19.484375 220.160156 19.53125 220.433594 19.53125 C 221.652344 19.53125 222.675781 18.609375 222.675781 17.515625 C 222.675781 16.71875 222.300781 16.195312 221.332031 15.621094 L 219.636719 14.601562 C 219.1875 14.351562 218.9375 13.953125 218.9375 13.527344 C 218.9375 12.878906 219.4375 12.433594 220.160156 12.433594 C 221.082031 12.433594 221.554688 12.980469 221.902344 14.402344 Z M 222.152344 14.402344 "/>
<path fill-rule="nonzero" fill="rgb(50.196078%, 50.196078%, 50.196078%)" fill-opacity="1" d="M 229.800781 16.765625 C 229.054688 17.988281 228.355469 18.4375 227.335938 18.4375 C 226.4375 18.4375 225.765625 17.988281 225.292969 17.066406 C 225.019531 16.46875 224.894531 15.945312 224.867188 14.972656 L 229.753906 14.972656 C 229.628906 13.953125 229.476562 13.480469 229.078125 12.980469 C 228.605469 12.40625 227.859375 12.082031 227.035156 12.082031 C 226.238281 12.082031 225.492188 12.355469 224.894531 12.90625 C 224.144531 13.554688 223.722656 14.675781 223.722656 15.96875 C 223.722656 18.1875 224.867188 19.53125 226.6875 19.53125 C 228.207031 19.53125 229.402344 18.609375 230.078125 16.890625 Z M 224.894531 14.476562 C 225.066406 13.230469 225.617188 12.632812 226.589844 12.632812 C 227.558594 12.632812 227.933594 13.078125 228.132812 14.476562 Z M 224.894531 14.476562 "/>
<path fill-rule="nonzero" fill="rgb(50.196078%, 50.196078%, 50.196078%)" fill-opacity="1" d="M 230.625 13.054688 C 230.726562 13.003906 230.875 13.003906 231.050781 13.003906 C 231.5 13.003906 231.648438 13.230469 231.648438 14 L 231.648438 17.964844 C 231.648438 18.859375 231.472656 19.085938 230.652344 19.132812 L 230.652344 19.382812 L 234.039062 19.382812 L 234.039062 19.132812 C 233.21875 19.085938 232.992188 18.886719 232.992188 18.3125 L 232.992188 13.851562 C 233.742188 13.128906 234.089844 12.957031 234.613281 12.957031 C 235.410156 12.957031 235.785156 13.429688 235.785156 14.476562 L 235.785156 17.8125 C 235.785156 18.808594 235.585938 19.085938 234.789062 19.132812 L 234.789062 19.382812 L 238.078125 19.382812 L 238.078125 19.132812 C 237.304688 19.058594 237.128906 18.886719 237.128906 18.085938 L 237.128906 14.449219 C 237.128906 12.957031 236.40625 12.082031 235.234375 12.082031 C 234.511719 12.082031 234.015625 12.332031 232.945312 13.355469 L 232.945312 12.109375 L 232.820312 12.082031 C 232.046875 12.355469 231.5 12.53125 230.625 12.78125 Z M 230.625 13.054688 "/>
<path fill-rule="nonzero" fill="rgb(50.196078%, 50.196078%, 50.196078%)" fill-opacity="1" d="M 245.34375 23.195312 C 245.34375 23.144531 245.34375 23.121094 245.070312 22.847656 C 243.101562 20.851562 242.578125 17.839844 242.578125 15.398438 C 242.578125 12.632812 243.175781 9.867188 245.144531 7.898438 C 245.34375 7.699219 245.34375 7.671875 245.34375 7.625 C 245.34375 7.5 245.292969 7.449219 245.191406 7.449219 C 245.019531 7.449219 243.597656 8.546875 242.652344 10.5625 C 241.855469 12.308594 241.65625 14.078125 241.65625 15.398438 C 241.65625 16.644531 241.828125 18.5625 242.703125 20.378906 C 243.671875 22.324219 245.019531 23.371094 245.191406 23.371094 C 245.292969 23.371094 245.34375 23.320312 245.34375 23.195312 Z M 245.34375 23.195312 "/>
<path fill-rule="nonzero" fill="rgb(50.196078%, 50.196078%, 50.196078%)" fill-opacity="1" d="M 252.625 17.613281 C 252.503906 17.765625 252.425781 17.863281 252.277344 18.039062 C 251.929688 18.535156 251.730469 18.6875 251.554688 18.6875 C 251.332031 18.6875 251.179688 18.488281 251.058594 18.039062 C 251.03125 17.914062 251.007812 17.8125 251.007812 17.765625 C 250.609375 16.144531 250.433594 15.421875 250.433594 15.199219 C 251.132812 13.953125 251.703125 13.253906 251.980469 13.253906 C 252.078125 13.253906 252.203125 13.304688 252.378906 13.378906 C 252.550781 13.503906 252.675781 13.527344 252.800781 13.527344 C 253.125 13.527344 253.347656 13.304688 253.347656 12.957031 C 253.347656 12.632812 253.074219 12.382812 252.703125 12.382812 C 252.003906 12.382812 251.40625 12.957031 250.308594 14.648438 L 250.136719 13.777344 C 249.910156 12.679688 249.738281 12.382812 249.289062 12.382812 C 248.9375 12.382812 248.414062 12.507812 247.445312 12.832031 L 247.269531 12.90625 L 247.320312 13.128906 C 247.941406 13.003906 248.066406 12.957031 248.214844 12.957031 C 248.617188 12.957031 248.714844 13.105469 248.9375 14.050781 L 249.386719 16.019531 L 248.09375 17.863281 C 247.769531 18.363281 247.445312 18.636719 247.269531 18.636719 C 247.195312 18.636719 247.019531 18.585938 246.871094 18.488281 C 246.671875 18.386719 246.496094 18.335938 246.347656 18.335938 C 246.050781 18.335938 245.824219 18.5625 245.824219 18.886719 C 245.824219 19.308594 246.148438 19.558594 246.621094 19.558594 C 247.09375 19.558594 247.292969 19.410156 248.09375 18.4375 C 248.515625 17.9375 248.863281 17.515625 249.511719 16.59375 L 250.011719 18.488281 C 250.210938 19.308594 250.410156 19.558594 250.933594 19.558594 C 251.53125 19.558594 251.929688 19.183594 252.851562 17.738281 Z M 252.625 17.613281 "/>
<path fill-rule="nonzero" fill="rgb(50.196078%, 50.196078%, 50.196078%)" fill-opacity="1" d="M 257.933594 15.398438 C 257.933594 14.175781 257.757812 12.257812 256.886719 10.4375 C 255.941406 8.496094 254.570312 7.449219 254.421875 7.449219 C 254.320312 7.449219 254.246094 7.523438 254.246094 7.625 C 254.246094 7.671875 254.246094 7.699219 254.542969 7.996094 C 256.113281 9.566406 257.011719 12.082031 257.011719 15.398438 C 257.011719 18.136719 256.4375 20.929688 254.46875 22.921875 C 254.246094 23.121094 254.246094 23.144531 254.246094 23.195312 C 254.246094 23.296875 254.320312 23.371094 254.421875 23.371094 C 254.570312 23.371094 256.015625 22.273438 256.9375 20.253906 C 257.757812 18.511719 257.933594 16.742188 257.933594 15.398438 Z M 257.933594 15.398438 "/>
</svg>
