<?xml version="1.0" encoding="UTF-8"?>
<svg xmlns="http://www.w3.org/2000/svg" xmlns:xlink="http://www.w3.org/1999/xlink" width="400" height="545.699275" viewBox="0 0 400 545.699275">
<defs>
<clipPath id="clip-0">
<path clip-rule="nonzero" d="M 21 84.179688 L 379 84.179688 L 379 534 L 21 534 Z M 21 84.179688 "/>
</clipPath>
</defs>
<path fill="none" stroke-width="0.09962" stroke-linecap="butt" stroke-linejoin="miter" stroke="rgb(69.803922%, 69.803922%, 69.803922%)" stroke-opacity="1" stroke-dasharray="2.98883 2.98883" stroke-miterlimit="10" d="M 18.711152 0.0005495 L 18.711152 115.375544 M 81.074812 0.0005495 L 81.074812 115.375544 " transform="matrix(3.953311, 0, 0, -3.953311, 2.763365, 540.295141)"/>
<path fill="none" stroke-width="0.09962" stroke-linecap="butt" stroke-linejoin="miter" stroke="rgb(69.803922%, 69.803922%, 69.803922%)" stroke-opacity="1" stroke-dasharray="2.98883 2.98883" stroke-miterlimit="10" d="M 0.000571755 46.774036 L 99.78144 46.774036 M 0.000571755 77.954384 L 99.78144 77.954384 M 0.000571755 109.137696 L 99.78144 109.137696 " transform="matrix(3.953311, 0, 0, -3.953311, 2.763365, 540.295141)"/>
<path fill="none" stroke-width="0.19925" stroke-linecap="butt" stroke-linejoin="miter" stroke="rgb(50.196078%, 50.196078%, 50.196078%)" stroke-opacity="1" stroke-miterlimit="10" d="M 18.711152 13.466318 L 18.711152 17.716117 M 81.074812 13.466318 L 81.074812 17.716117 " transform="matrix(3.953311, 0, 0, -3.953311, 2.763365, 540.295141)"/>
<path fill="none" stroke-width="0.19925" stroke-linecap="butt" stroke-linejoin="miter" stroke="rgb(50.196078%, 50.196078%, 50.196078%)" stroke-opacity="1" stroke-miterlimit="10" d="M 47.766106 46.774036 L 52.015906 46.774036 M 47.766106 77.954384 L 52.015906 77.954384 M 47.766106 109.137696 L 52.015906 109.137696 " transform="matrix(3.953311, 0, 0, -3.953311, 2.763365, 540.295141)"/>
<path fill="none" stroke-width="0.3985" stroke-linecap="butt" stroke-linejoin="miter" stroke="rgb(50.196078%, 50.196078%, 50.196078%)" stroke-opacity="1" stroke-miterlimit="10" d="M 0.000571755 15.590723 L 97.789439 15.590723 " transform="matrix(3.953311, 0, 0, -3.953311, 2.763365, 540.295141)"/>
<path fill-rule="nonzero" fill="rgb(50.196078%, 50.196078%, 50.196078%)" fill-opacity="1" d="M 397.230469 478.660156 L 384.628906 472.359375 L 389.355469 478.660156 L 384.628906 484.960938 "/>
<path fill="none" stroke-width="0.3985" stroke-linecap="butt" stroke-linejoin="miter" stroke="rgb(50.196078%, 50.196078%, 50.196078%)" stroke-opacity="1" stroke-miterlimit="10" d="M 49.890512 0.0005495 L 49.890512 113.383543 " transform="matrix(3.953311, 0, 0, -3.953311, 2.763365, 540.295141)"/>
<path fill-rule="nonzero" fill="rgb(50.196078%, 50.196078%, 50.196078%)" fill-opacity="1" d="M 199.996094 84.179688 L 193.695312 96.792969 L 199.996094 92.054688 L 206.296875 96.792969 "/>
<path fill-rule="nonzero" fill="rgb(50.196078%, 50.196078%, 50.196078%)" fill-opacity="1" d="M 77.523438 518.246094 C 78.203125 518.246094 78.941406 518.246094 78.941406 517.445312 C 78.941406 516.703125 78.203125 516.703125 77.523438 516.703125 L 56.210938 516.703125 C 55.53125 516.703125 54.851562 516.703125 54.851562 517.445312 C 54.851562 518.246094 55.53125 518.246094 56.210938 518.246094 Z M 77.523438 518.246094 "/>
<path fill-rule="nonzero" fill="rgb(50.196078%, 50.196078%, 50.196078%)" fill-opacity="1" d="M 93.671875 500.707031 L 86.566406 504.289062 L 86.566406 504.84375 C 87 504.660156 87.433594 504.472656 87.617188 504.410156 C 88.359375 504.101562 88.976562 503.980469 89.410156 503.980469 C 90.210938 503.980469 90.582031 504.535156 90.582031 505.832031 L 90.582031 523.683594 C 90.582031 524.980469 90.273438 525.847656 89.65625 526.214844 C 89.039062 526.585938 88.480469 526.710938 86.8125 526.710938 L 86.8125 527.328125 L 97.6875 527.328125 L 97.6875 526.710938 C 94.597656 526.710938 93.980469 526.277344 93.980469 524.425781 L 93.980469 500.765625 Z M 93.671875 500.707031 "/>
<path fill-rule="nonzero" fill="rgb(50.196078%, 50.196078%, 50.196078%)" fill-opacity="1" d="M 324.910156 500.707031 L 317.808594 504.289062 L 317.808594 504.84375 C 318.242188 504.660156 318.671875 504.472656 318.859375 504.410156 C 319.597656 504.101562 320.21875 503.980469 320.648438 503.980469 C 321.453125 503.980469 321.824219 504.535156 321.824219 505.832031 L 321.824219 523.683594 C 321.824219 524.980469 321.515625 525.847656 320.898438 526.214844 C 320.277344 526.585938 319.722656 526.710938 318.054688 526.710938 L 318.054688 527.328125 L 328.925781 527.328125 L 328.925781 526.710938 C 325.839844 526.710938 325.21875 526.277344 325.21875 524.425781 L 325.21875 500.765625 Z M 324.910156 500.707031 "/>
<path fill-rule="nonzero" fill="rgb(50.196078%, 50.196078%, 50.196078%)" fill-opacity="1" d="M 169.476562 341.941406 L 162.371094 345.523438 L 162.371094 346.078125 C 162.804688 345.894531 163.238281 345.707031 163.421875 345.644531 C 164.164062 345.335938 164.78125 345.214844 165.214844 345.214844 C 166.015625 345.214844 166.386719 345.769531 166.386719 347.066406 L 166.386719 364.917969 C 166.386719 366.214844 166.078125 367.082031 165.460938 367.453125 C 164.84375 367.820312 164.285156 367.945312 162.617188 367.945312 L 162.617188 368.5625 L 173.492188 368.5625 L 173.492188 367.945312 C 170.402344 367.945312 169.785156 367.511719 169.785156 365.660156 L 169.785156 342 Z M 169.476562 341.941406 "/>
<path fill-rule="nonzero" fill="rgb(50.196078%, 50.196078%, 50.196078%)" fill-opacity="1" d="M 176.703125 239.917969 L 176.207031 239.671875 C 174.726562 241.957031 174.230469 242.324219 172.441406 242.324219 L 163.050781 242.324219 L 169.660156 235.347656 C 173.183594 231.703125 174.726562 228.675781 174.726562 225.648438 C 174.726562 221.695312 171.515625 218.667969 167.375 218.667969 C 165.214844 218.667969 163.175781 219.53125 161.753906 221.078125 C 160.457031 222.4375 159.902344 223.671875 159.222656 226.511719 L 160.023438 226.699219 C 161.628906 222.808594 163.050781 221.570312 165.769531 221.570312 C 169.042969 221.570312 171.328125 223.796875 171.328125 227.128906 C 171.328125 230.21875 169.476562 233.863281 166.203125 237.382812 L 159.160156 244.796875 L 159.160156 245.292969 L 174.539062 245.292969 Z M 176.703125 239.917969 "/>
<path fill-rule="nonzero" fill="rgb(50.196078%, 50.196078%, 50.196078%)" fill-opacity="1" d="M 164.039062 108.679688 C 166.324219 108.679688 167.25 108.804688 168.179688 109.113281 C 170.648438 110.039062 172.195312 112.261719 172.195312 114.980469 C 172.195312 118.253906 169.90625 120.851562 167.003906 120.851562 C 165.953125 120.851562 165.152344 120.539062 163.730469 119.613281 C 162.496094 118.933594 161.878906 118.625 161.199219 118.625 C 160.273438 118.625 159.652344 119.183594 159.652344 120.046875 C 159.652344 121.40625 161.382812 122.269531 164.164062 122.269531 C 167.191406 122.269531 170.277344 121.21875 172.132812 119.613281 C 173.984375 118.007812 175.035156 115.722656 175.035156 113.066406 C 175.035156 111.089844 174.355469 109.238281 173.242188 108 C 172.441406 107.136719 171.699219 106.640625 169.96875 105.902344 C 172.6875 104.046875 173.675781 102.628906 173.675781 100.464844 C 173.675781 97.253906 171.144531 95.089844 167.5 95.089844 C 165.523438 95.089844 163.792969 95.769531 162.371094 97.007812 C 161.199219 98.054688 160.640625 99.105469 159.777344 101.453125 L 160.332031 101.640625 C 161.941406 98.734375 163.730469 97.4375 166.203125 97.4375 C 168.796875 97.4375 170.585938 99.167969 170.585938 101.640625 C 170.585938 103.058594 169.96875 104.480469 168.980469 105.46875 C 167.808594 106.640625 166.695312 107.261719 164.039062 108.1875 Z M 164.039062 108.679688 "/>
<g clip-path="url(#clip-0)">
<path fill="none" stroke-width="0.99628" stroke-linecap="butt" stroke-linejoin="miter" stroke="rgb(6.666667%, 52.941176%, 87.058824%)" stroke-opacity="1" stroke-miterlimit="10" d="M 18.711152 113.551519 L 19.339581 107.274147 L 19.968998 104.661622 L 20.597427 102.641955 L 21.230796 100.930573 L 21.859225 99.418787 L 22.488642 98.040393 L 23.117071 96.77069 L 23.75044 95.579047 L 24.378869 94.454594 L 25.008286 93.383498 L 25.636715 92.360819 L 26.270084 91.375688 L 26.898513 90.427116 L 27.52793 89.509175 L 28.156359 88.617912 L 28.789728 87.751352 L 29.418157 86.907519 L 30.047574 86.083447 L 30.676003 85.274197 L 31.308384 84.481744 L 31.937801 83.704113 L 32.56623 82.938338 L 33.195647 82.188374 L 33.828028 81.446314 L 34.457445 80.720063 L 35.085874 79.996777 L 35.719243 79.286337 L 36.347672 78.582812 L 36.977089 77.888181 L 37.605518 77.200467 L 38.238887 76.516704 L 38.867316 75.840847 L 39.496733 75.168942 L 40.125162 74.504942 L 40.757543 73.844894 L 42.015389 72.532703 L 42.644806 71.883524 L 43.277187 71.239285 L 43.906604 70.595047 L 44.535033 69.953773 L 45.16445 69.317439 L 45.796831 68.681105 L 46.426248 68.043784 L 47.684094 66.778033 L 48.316475 66.149604 L 48.945892 65.520187 L 49.574321 64.887806 L 50.203738 64.258389 L 50.836119 63.62996 L 51.465536 62.997579 L 52.726346 61.735781 L 53.355763 61.102411 L 54.613609 59.828756 L 55.24599 59.192422 L 55.875407 58.552136 L 57.133253 57.262672 L 57.765635 56.614481 L 58.395051 55.962338 L 59.652897 54.641254 L 60.285279 53.977253 L 60.914696 53.305348 L 61.543124 52.629491 L 62.172541 51.946717 L 62.804923 51.259002 L 63.433351 50.563383 L 64.062768 49.860847 L 64.691197 49.149418 L 65.324567 48.431072 L 65.952995 47.699881 L 66.582412 46.957821 L 67.210841 46.207857 L 67.844211 45.442083 L 68.47264 44.665439 L 69.102056 43.871999 L 69.730485 43.067689 L 70.363855 42.239665 L 70.992284 41.395831 L 71.621701 40.528283 L 72.254082 39.638009 L 72.883499 38.720068 L 73.511928 37.770508 L 74.140356 36.790317 L 74.773726 35.76665 L 75.402155 34.696542 L 76.031572 33.571101 L 76.660001 32.379458 L 77.29337 31.110743 L 77.921799 29.731361 L 78.551216 28.219575 L 79.179645 26.513133 L 79.813014 24.497418 L 80.441443 21.883905 L 81.07086 15.716212 " transform="matrix(3.953311, 0, 0, -3.953311, 2.763365, 540.295141)"/>
</g>
<path fill="none" stroke-width="0.3985" stroke-linecap="butt" stroke-linejoin="miter" stroke="rgb(50.196078%, 50.196078%, 50.196078%)" stroke-opacity="1" stroke-miterlimit="10" d="M 1.504453 119.036439 L 98.277558 119.036439 L 98.277558 135.969435 L 1.504453 135.969435 Z M 1.504453 119.036439 " transform="matrix(3.953311, 0, 0, -3.953311, 2.763365, 540.295141)"/>
<path fill="none" stroke-width="0.99628" stroke-linecap="butt" stroke-linejoin="miter" stroke="rgb(6.666667%, 52.941176%, 87.058824%)" stroke-opacity="1" stroke-miterlimit="10" d="M 0.000431252 -0.000552095 L 17.008523 -0.000552095 " transform="matrix(3.953311, 0, 0, -3.953311, 22.498295, 36.240005)"/>
<path fill-rule="nonzero" fill="rgb(50.196078%, 50.196078%, 50.196078%)" fill-opacity="1" d="M 106.847656 32.429688 L 110.433594 32.429688 L 106.972656 48.984375 C 106.109375 53.246094 104.8125 55.40625 103.144531 55.40625 C 102.648438 55.40625 102.339844 55.097656 102.339844 54.726562 C 102.339844 54.664062 102.402344 54.542969 102.523438 54.296875 C 102.648438 54.109375 102.710938 53.925781 102.710938 53.675781 C 102.710938 52.875 101.96875 52.195312 101.167969 52.195312 C 100.300781 52.195312 99.683594 52.875 99.683594 53.800781 C 99.683594 55.160156 101.105469 56.210938 102.835938 56.210938 C 106.292969 56.210938 109.074219 52.320312 110.679688 45.089844 L 113.519531 32.429688 L 117.84375 32.429688 L 118.089844 31.191406 L 113.828125 31.191406 C 114.941406 25.015625 116.421875 22.175781 118.585938 22.175781 C 119.140625 22.175781 119.449219 22.421875 119.449219 22.667969 C 119.449219 22.792969 119.449219 22.855469 119.328125 23.101562 C 119.140625 23.410156 119.078125 23.59375 119.078125 23.902344 C 119.078125 24.832031 119.699219 25.449219 120.5625 25.449219 C 121.425781 25.449219 122.230469 24.769531 122.230469 23.902344 C 122.230469 22.421875 120.746094 21.308594 118.832031 21.308594 C 116.855469 21.308594 115.375 22.175781 113.953125 24.027344 C 112.71875 25.570312 111.976562 27.425781 110.742188 31.191406 L 107.15625 31.191406 Z M 106.847656 32.429688 "/>
<path fill-rule="nonzero" fill="rgb(50.196078%, 50.196078%, 50.196078%)" fill-opacity="1" d="M 135.222656 57.507812 C 135.222656 57.382812 135.222656 57.320312 134.542969 56.640625 C 129.664062 51.699219 128.367188 44.226562 128.367188 38.171875 C 128.367188 31.316406 129.847656 24.460938 134.726562 19.582031 C 135.222656 19.085938 135.222656 19.023438 135.222656 18.902344 C 135.222656 18.59375 135.097656 18.46875 134.851562 18.46875 C 134.417969 18.46875 130.898438 21.1875 128.550781 26.191406 C 126.574219 30.511719 126.082031 34.898438 126.082031 38.171875 C 126.082031 41.261719 126.511719 46.019531 128.675781 50.527344 C 131.082031 55.34375 134.417969 57.941406 134.851562 57.941406 C 135.097656 57.941406 135.222656 57.816406 135.222656 57.507812 Z M 135.222656 57.507812 "/>
<path fill-rule="nonzero" fill="rgb(50.196078%, 50.196078%, 50.196078%)" fill-opacity="1" d="M 153.28125 43.671875 C 152.972656 44.042969 152.789062 44.289062 152.417969 44.722656 C 151.550781 45.957031 151.058594 46.328125 150.625 46.328125 C 150.070312 46.328125 149.699219 45.832031 149.390625 44.722656 C 149.328125 44.410156 149.265625 44.164062 149.265625 44.042969 C 148.277344 40.027344 147.847656 38.234375 147.847656 37.679688 C 149.574219 34.589844 150.996094 32.859375 151.675781 32.859375 C 151.921875 32.859375 152.230469 32.984375 152.664062 33.167969 C 153.097656 33.480469 153.40625 33.539062 153.714844 33.539062 C 154.515625 33.539062 155.074219 32.984375 155.074219 32.121094 C 155.074219 31.316406 154.394531 30.699219 153.46875 30.699219 C 151.738281 30.699219 150.253906 32.121094 147.535156 36.320312 L 147.105469 34.15625 C 146.546875 31.441406 146.117188 30.699219 145.003906 30.699219 C 144.140625 30.699219 142.84375 31.007812 140.433594 31.8125 L 140 31.996094 L 140.125 32.550781 C 141.667969 32.242188 141.976562 32.121094 142.347656 32.121094 C 143.335938 32.121094 143.582031 32.492188 144.140625 34.835938 L 145.25 39.71875 L 142.039062 44.289062 C 141.238281 45.523438 140.433594 46.203125 140 46.203125 C 139.816406 46.203125 139.382812 46.078125 139.011719 45.832031 C 138.519531 45.585938 138.085938 45.460938 137.714844 45.460938 C 136.972656 45.460938 136.417969 46.019531 136.417969 46.820312 C 136.417969 47.871094 137.222656 48.488281 138.394531 48.488281 C 139.570312 48.488281 140.0625 48.117188 142.039062 45.710938 C 143.089844 44.472656 143.953125 43.421875 145.558594 41.136719 L 146.796875 45.832031 C 147.289062 47.871094 147.785156 48.488281 149.082031 48.488281 C 150.5625 48.488281 151.550781 47.5625 153.835938 43.980469 Z M 153.28125 43.671875 "/>
<path fill-rule="nonzero" fill="rgb(50.196078%, 50.196078%, 50.196078%)" fill-opacity="1" d="M 166.4375 38.171875 C 166.4375 35.144531 166.007812 30.390625 163.84375 25.878906 C 161.496094 21.0625 158.097656 18.46875 157.730469 18.46875 C 157.480469 18.46875 157.296875 18.652344 157.296875 18.902344 C 157.296875 19.023438 157.296875 19.085938 158.039062 19.828125 C 161.929688 23.71875 164.152344 29.957031 164.152344 38.171875 C 164.152344 44.96875 162.730469 51.886719 157.851562 56.828125 C 157.296875 57.320312 157.296875 57.382812 157.296875 57.507812 C 157.296875 57.753906 157.480469 57.941406 157.730469 57.941406 C 158.097656 57.941406 161.683594 55.222656 163.96875 50.21875 C 166.007812 45.894531 166.4375 41.507812 166.4375 38.171875 Z M 166.4375 38.171875 "/>
<path fill-rule="nonzero" fill="rgb(50.196078%, 50.196078%, 50.196078%)" fill-opacity="1" d="M 206.148438 35.144531 C 206.765625 35.144531 207.507812 35.144531 207.507812 34.40625 C 207.507812 33.601562 206.765625 33.601562 206.210938 33.601562 L 182.613281 33.601562 C 182.058594 33.601562 181.316406 33.601562 181.316406 34.40625 C 181.316406 35.144531 182.058594 35.144531 182.613281 35.144531 Z M 206.210938 42.804688 C 206.765625 42.804688 207.507812 42.804688 207.507812 42.003906 C 207.507812 41.261719 206.765625 41.261719 206.148438 41.261719 L 182.613281 41.261719 C 182.058594 41.261719 181.316406 41.261719 181.316406 42.003906 C 181.316406 42.804688 182.058594 42.804688 182.613281 42.804688 Z M 206.210938 42.804688 "/>
<path fill-rule="nonzero" fill="rgb(50.196078%, 50.196078%, 50.196078%)" fill-opacity="1" d="M 235.878906 45.460938 C 235.199219 46.019531 234.707031 46.203125 234.148438 46.203125 C 233.222656 46.203125 232.976562 45.648438 232.976562 43.917969 L 232.976562 36.257812 C 232.976562 34.15625 232.789062 33.046875 232.171875 32.121094 C 231.308594 30.699219 229.640625 29.957031 227.292969 29.957031 C 223.585938 29.957031 220.683594 31.871094 220.683594 34.34375 C 220.683594 35.269531 221.425781 36.011719 222.351562 36.011719 C 223.277344 36.011719 224.144531 35.269531 224.144531 34.40625 C 224.144531 34.21875 224.082031 34.035156 224.082031 33.726562 C 223.957031 33.417969 223.957031 33.109375 223.957031 32.800781 C 223.957031 31.75 225.191406 30.882812 226.800781 30.882812 C 228.714844 30.882812 229.765625 31.996094 229.765625 34.15625 L 229.765625 36.566406 C 223.710938 38.976562 223.03125 39.285156 221.363281 40.828125 C 220.5 41.570312 219.941406 42.929688 219.941406 44.226562 C 219.941406 46.699219 221.671875 48.425781 224.082031 48.425781 C 225.8125 48.425781 227.417969 47.625 229.824219 45.585938 C 230.011719 47.625 230.691406 48.425781 232.359375 48.425781 C 233.65625 48.425781 234.519531 47.996094 235.878906 46.449219 Z M 229.765625 43.238281 C 229.765625 44.410156 229.578125 44.78125 228.777344 45.277344 C 227.789062 45.832031 226.675781 46.140625 225.871094 46.140625 C 224.511719 46.140625 223.402344 44.84375 223.402344 43.113281 L 223.402344 42.992188 C 223.402344 40.644531 225.007812 39.222656 229.765625 37.492188 Z M 229.765625 43.238281 "/>
<path fill-rule="nonzero" fill="rgb(50.196078%, 50.196078%, 50.196078%)" fill-opacity="1" d="M 236.195312 32.675781 C 236.75 32.550781 237.121094 32.550781 237.613281 32.550781 C 238.601562 32.550781 238.910156 33.167969 238.910156 34.898438 L 238.910156 44.722656 C 238.910156 46.699219 238.664062 47.007812 236.132812 47.4375 L 236.132812 48.054688 L 245.582031 48.054688 L 245.582031 47.4375 C 242.925781 47.378906 242.246094 46.757812 242.246094 44.535156 L 242.246094 35.640625 C 242.246094 34.40625 243.976562 32.429688 245.027344 32.429688 C 245.273438 32.429688 245.582031 32.613281 246.015625 32.984375 C 246.695312 33.539062 247.128906 33.789062 247.621094 33.789062 C 248.546875 33.789062 249.164062 33.109375 249.164062 31.996094 C 249.164062 30.699219 248.300781 29.957031 247.003906 29.957031 C 245.335938 29.957031 244.164062 30.824219 242.246094 33.601562 L 242.246094 30.019531 L 242.0625 29.957031 C 239.960938 30.824219 238.542969 31.316406 236.195312 32.058594 Z M 236.195312 32.675781 "/>
<path fill-rule="nonzero" fill="rgb(50.196078%, 50.196078%, 50.196078%)" fill-opacity="1" d="M 264.753906 41.878906 C 262.835938 44.660156 261.417969 45.585938 259.191406 45.585938 C 255.609375 45.585938 253.078125 42.433594 253.078125 37.925781 C 253.078125 33.847656 255.238281 31.070312 258.453125 31.070312 C 259.871094 31.070312 260.367188 31.503906 260.738281 32.984375 L 260.984375 33.847656 C 261.292969 34.960938 262.035156 35.640625 262.835938 35.640625 C 263.886719 35.640625 264.753906 34.898438 264.753906 33.972656 C 264.753906 31.8125 261.972656 29.957031 258.699219 29.957031 C 256.722656 29.957031 254.746094 30.699219 253.140625 32.121094 C 251.164062 33.847656 250.050781 36.566406 250.050781 39.65625 C 250.050781 44.78125 253.140625 48.425781 257.523438 48.425781 C 259.316406 48.425781 260.859375 47.808594 262.28125 46.574219 C 263.394531 45.648438 264.132812 44.597656 265.308594 42.25 Z M 264.753906 41.878906 "/>
<path fill-rule="nonzero" fill="rgb(50.196078%, 50.196078%, 50.196078%)" fill-opacity="1" d="M 282.238281 41.878906 C 280.324219 44.660156 278.902344 45.585938 276.679688 45.585938 C 273.097656 45.585938 270.566406 42.433594 270.566406 37.925781 C 270.566406 33.847656 272.726562 31.070312 275.9375 31.070312 C 277.359375 31.070312 277.851562 31.503906 278.222656 32.984375 L 278.472656 33.847656 C 278.78125 34.960938 279.519531 35.640625 280.324219 35.640625 C 281.375 35.640625 282.238281 34.898438 282.238281 33.972656 C 282.238281 31.8125 279.460938 29.957031 276.1875 29.957031 C 274.207031 29.957031 272.230469 30.699219 270.625 32.121094 C 268.648438 33.847656 267.539062 36.566406 267.539062 39.65625 C 267.539062 44.78125 270.625 48.425781 275.011719 48.425781 C 276.804688 48.425781 278.347656 47.808594 279.769531 46.574219 C 280.878906 45.648438 281.621094 44.597656 282.796875 42.25 Z M 282.238281 41.878906 "/>
<path fill-rule="nonzero" fill="rgb(50.196078%, 50.196078%, 50.196078%)" fill-opacity="1" d="M 293.917969 29.957031 C 288.792969 29.957031 285.210938 33.726562 285.210938 39.160156 C 285.210938 44.472656 288.855469 48.425781 293.796875 48.425781 C 298.800781 48.425781 302.566406 44.289062 302.566406 38.851562 C 302.566406 33.664062 298.921875 29.957031 293.917969 29.957031 Z M 293.363281 31.007812 C 296.699219 31.007812 298.984375 34.835938 298.984375 40.210938 C 298.984375 44.660156 297.253906 47.378906 294.289062 47.378906 C 292.746094 47.378906 291.261719 46.386719 290.460938 44.84375 C 289.347656 42.804688 288.730469 40.027344 288.730469 37.246094 C 288.730469 33.480469 290.585938 31.007812 293.363281 31.007812 Z M 293.363281 31.007812 "/>
<path fill-rule="nonzero" fill="rgb(50.196078%, 50.196078%, 50.196078%)" fill-opacity="1" d="M 316.144531 35.703125 L 315.960938 30.328125 L 315.527344 30.328125 L 315.464844 30.390625 C 315.09375 30.699219 315.09375 30.699219 314.910156 30.699219 C 314.664062 30.699219 314.292969 30.636719 313.859375 30.453125 C 312.996094 30.144531 312.128906 29.957031 311.078125 29.957031 C 307.992188 29.957031 305.765625 31.996094 305.765625 34.835938 C 305.765625 37 307.003906 38.605469 310.339844 40.519531 L 312.625 41.816406 C 314.042969 42.558594 314.664062 43.546875 314.664062 44.722656 C 314.664062 46.449219 313.425781 47.5625 311.386719 47.5625 C 310.089844 47.5625 308.855469 47.066406 308.113281 46.203125 C 307.25 45.214844 306.941406 44.289062 306.386719 42.066406 L 305.765625 42.066406 L 305.765625 48.242188 L 306.261719 48.242188 C 306.570312 47.808594 306.695312 47.746094 307.1875 47.746094 C 307.558594 47.746094 308.113281 47.808594 308.980469 48.054688 C 310.089844 48.304688 311.203125 48.425781 311.882812 48.425781 C 314.910156 48.425781 317.441406 46.140625 317.441406 43.421875 C 317.441406 41.445312 316.515625 40.148438 314.105469 38.730469 L 309.90625 36.195312 C 308.792969 35.578125 308.175781 34.589844 308.175781 33.539062 C 308.175781 31.933594 309.410156 30.824219 311.203125 30.824219 C 313.488281 30.824219 314.664062 32.179688 315.527344 35.703125 Z M 316.144531 35.703125 "/>
<path fill-rule="nonzero" fill="rgb(50.196078%, 50.196078%, 50.196078%)" fill-opacity="1" d="M 336.457031 57.507812 C 336.457031 57.382812 336.457031 57.320312 335.777344 56.640625 C 330.898438 51.699219 329.601562 44.226562 329.601562 38.171875 C 329.601562 31.316406 331.082031 24.460938 335.964844 19.582031 C 336.457031 19.085938 336.457031 19.023438 336.457031 18.902344 C 336.457031 18.59375 336.335938 18.46875 336.085938 18.46875 C 335.65625 18.46875 332.132812 21.1875 329.785156 26.191406 C 327.808594 30.511719 327.316406 34.898438 327.316406 38.171875 C 327.316406 41.261719 327.75 46.019531 329.910156 50.527344 C 332.320312 55.34375 335.65625 57.941406 336.085938 57.941406 C 336.335938 57.941406 336.457031 57.816406 336.457031 57.507812 Z M 336.457031 57.507812 "/>
<path fill-rule="nonzero" fill="rgb(50.196078%, 50.196078%, 50.196078%)" fill-opacity="1" d="M 354.519531 43.671875 C 354.210938 44.042969 354.027344 44.289062 353.65625 44.722656 C 352.792969 45.957031 352.296875 46.328125 351.863281 46.328125 C 351.308594 46.328125 350.9375 45.832031 350.628906 44.722656 C 350.566406 44.410156 350.507812 44.164062 350.507812 44.042969 C 349.519531 40.027344 349.085938 38.234375 349.085938 37.679688 C 350.816406 34.589844 352.234375 32.859375 352.914062 32.859375 C 353.164062 32.859375 353.472656 32.984375 353.902344 33.167969 C 354.335938 33.480469 354.644531 33.539062 354.953125 33.539062 C 355.757812 33.539062 356.3125 32.984375 356.3125 32.121094 C 356.3125 31.316406 355.632812 30.699219 354.707031 30.699219 C 352.976562 30.699219 351.496094 32.121094 348.777344 36.320312 L 348.34375 34.15625 C 347.789062 31.441406 347.355469 30.699219 346.242188 30.699219 C 345.378906 30.699219 344.082031 31.007812 341.671875 31.8125 L 341.242188 31.996094 L 341.363281 32.550781 C 342.910156 32.242188 343.21875 32.121094 343.585938 32.121094 C 344.574219 32.121094 344.824219 32.492188 345.378906 34.835938 L 346.492188 39.71875 L 343.277344 44.289062 C 342.476562 45.523438 341.671875 46.203125 341.242188 46.203125 C 341.054688 46.203125 340.621094 46.078125 340.253906 45.832031 C 339.757812 45.585938 339.324219 45.460938 338.953125 45.460938 C 338.214844 45.460938 337.65625 46.019531 337.65625 46.820312 C 337.65625 47.871094 338.460938 48.488281 339.632812 48.488281 C 340.808594 48.488281 341.300781 48.117188 343.277344 45.710938 C 344.328125 44.472656 345.195312 43.421875 346.800781 41.136719 L 348.035156 45.832031 C 348.53125 47.871094 349.023438 48.488281 350.320312 48.488281 C 351.804688 48.488281 352.792969 47.5625 355.078125 43.980469 Z M 354.519531 43.671875 "/>
<path fill-rule="nonzero" fill="rgb(50.196078%, 50.196078%, 50.196078%)" fill-opacity="1" d="M 367.675781 38.171875 C 367.675781 35.144531 367.246094 30.390625 365.082031 25.878906 C 362.734375 21.0625 359.339844 18.46875 358.96875 18.46875 C 358.722656 18.46875 358.535156 18.652344 358.535156 18.902344 C 358.535156 19.023438 358.535156 19.085938 359.277344 19.828125 C 363.167969 23.71875 365.390625 29.957031 365.390625 38.171875 C 365.390625 44.96875 363.972656 51.886719 359.089844 56.828125 C 358.535156 57.320312 358.535156 57.382812 358.535156 57.507812 C 358.535156 57.753906 358.722656 57.941406 358.96875 57.941406 C 359.339844 57.941406 362.921875 55.222656 365.207031 50.21875 C 367.246094 45.894531 367.675781 41.507812 367.675781 38.171875 Z M 367.675781 38.171875 "/>
</svg>
