<?xml version="1.0" encoding="UTF-8"?>
<svg xmlns="http://www.w3.org/2000/svg" xmlns:xlink="http://www.w3.org/1999/xlink" width="400" height="274.135497" viewBox="0 0 400 274.135497">
<defs>
<clipPath id="clip-0">
<path clip-rule="nonzero" d="M 20.007812 14.207031 L 387.609375 14.207031 L 387.609375 225.949219 L 20.007812 225.949219 Z M 20.007812 14.207031 "/>
</clipPath>
</defs>
<path fill="none" stroke-width="0.09962" stroke-linecap="butt" stroke-linejoin="miter" stroke="rgb(69.803922%, 69.803922%, 69.803922%)" stroke-opacity="1" stroke-dasharray="2.98883 2.98883" stroke-miterlimit="10" d="M 0.00117607 0.000172166 L 0.00117607 124.727182 M 31.18094 0.000172166 L 31.18094 124.727182 M 62.364681 0.000172166 L 62.364681 124.727182 M 124.728186 0.000172166 L 124.728186 124.727182 M 155.911926 0.000172166 L 155.911926 124.727182 M 187.095667 0.000172166 L 187.095667 124.727182 " transform="matrix(1.964791, 0, 0, -1.964791, 20.005502, 259.26987)"/>
<path fill="none" stroke-width="0.09962" stroke-linecap="butt" stroke-linejoin="miter" stroke="rgb(69.803922%, 69.803922%, 69.803922%)" stroke-opacity="1" stroke-dasharray="2.98883 2.98883" stroke-miterlimit="10" d="M 0.00117607 0.000172166 L 187.095667 0.000172166 M 0.00117607 62.363677 L 187.095667 62.363677 M 0.00117607 93.547418 L 187.095667 93.547418 M 0.00117607 124.727182 L 187.095667 124.727182 " transform="matrix(1.964791, 0, 0, -1.964791, 20.005502, 259.26987)"/>
<path fill="none" stroke-width="0.19925" stroke-linecap="butt" stroke-linejoin="miter" stroke="rgb(50.196078%, 50.196078%, 50.196078%)" stroke-opacity="1" stroke-miterlimit="10" d="M 0.00117607 29.056619 L 0.00117607 33.309218 M 31.18094 29.056619 L 31.18094 33.309218 M 62.364681 29.056619 L 62.364681 33.309218 M 124.728186 29.056619 L 124.728186 33.309218 M 155.911926 29.056619 L 155.911926 33.309218 M 187.095667 29.056619 L 187.095667 33.309218 " transform="matrix(1.964791, 0, 0, -1.964791, 20.005502, 259.26987)"/>
<path fill="none" stroke-width="0.19925" stroke-linecap="butt" stroke-linejoin="miter" stroke="rgb(50.196078%, 50.196078%, 50.196078%)" stroke-opacity="1" stroke-miterlimit="10" d="M 91.41914 0.000172166 L 95.673727 0.000172166 M 91.41914 62.363677 L 95.673727 62.363677 M 91.41914 93.547418 L 95.673727 93.547418 M 91.41914 124.727182 L 95.673727 124.727182 " transform="matrix(1.964791, 0, 0, -1.964791, 20.005502, 259.26987)"/>
<path fill="none" stroke-width="0.3985" stroke-linecap="butt" stroke-linejoin="miter" stroke="rgb(50.196078%, 50.196078%, 50.196078%)" stroke-opacity="1" stroke-miterlimit="10" d="M 0.00117607 31.179936 L 185.103566 31.179936 " transform="matrix(1.964791, 0, 0, -1.964791, 20.005502, 259.26987)"/>
<path fill-rule="nonzero" fill="rgb(50.196078%, 50.196078%, 50.196078%)" fill-opacity="1" d="M 387.609375 198.007812 L 381.339844 194.875 L 383.695312 198.007812 L 381.339844 201.136719 "/>
<path fill="none" stroke-width="0.3985" stroke-linecap="butt" stroke-linejoin="miter" stroke="rgb(50.196078%, 50.196078%, 50.196078%)" stroke-opacity="1" stroke-miterlimit="10" d="M 93.548422 0.000172166 L 93.548422 122.735081 " transform="matrix(1.964791, 0, 0, -1.964791, 20.005502, 259.26987)"/>
<path fill-rule="nonzero" fill="rgb(50.196078%, 50.196078%, 50.196078%)" fill-opacity="1" d="M 203.808594 14.207031 L 200.675781 20.46875 L 203.808594 18.121094 L 206.941406 20.46875 "/>
<path fill-rule="nonzero" fill="rgb(50.196078%, 50.196078%, 50.196078%)" fill-opacity="1" d="M 20.402344 217.675781 C 20.738281 217.675781 21.109375 217.675781 21.109375 217.277344 C 21.109375 216.910156 20.738281 216.910156 20.402344 216.910156 L 9.808594 216.910156 C 9.472656 216.910156 9.132812 216.910156 9.132812 217.277344 C 9.132812 217.675781 9.472656 217.675781 9.808594 217.675781 Z M 20.402344 217.675781 "/>
<path fill-rule="nonzero" fill="rgb(50.196078%, 50.196078%, 50.196078%)" fill-opacity="1" d="M 25.722656 215.710938 C 26.859375 215.710938 27.320312 215.773438 27.78125 215.925781 C 29.007812 216.386719 29.777344 217.492188 29.777344 218.84375 C 29.777344 220.472656 28.640625 221.761719 27.195312 221.761719 C 26.675781 221.761719 26.277344 221.605469 25.570312 221.148438 C 24.957031 220.808594 24.648438 220.65625 24.3125 220.65625 C 23.851562 220.65625 23.542969 220.933594 23.542969 221.363281 C 23.542969 222.035156 24.402344 222.464844 25.785156 222.464844 C 27.289062 222.464844 28.824219 221.945312 29.746094 221.148438 C 30.667969 220.347656 31.1875 219.210938 31.1875 217.890625 C 31.1875 216.910156 30.851562 215.988281 30.296875 215.375 C 29.898438 214.945312 29.53125 214.699219 28.671875 214.332031 C 30.023438 213.410156 30.511719 212.703125 30.511719 211.628906 C 30.511719 210.03125 29.253906 208.957031 27.441406 208.957031 C 26.460938 208.957031 25.601562 209.296875 24.894531 209.910156 C 24.3125 210.433594 24.035156 210.953125 23.605469 212.121094 L 23.882812 212.214844 C 24.679688 210.769531 25.570312 210.125 26.796875 210.125 C 28.085938 210.125 28.976562 210.984375 28.976562 212.214844 C 28.976562 212.917969 28.671875 213.625 28.179688 214.117188 C 27.597656 214.699219 27.042969 215.007812 25.722656 215.46875 Z M 25.722656 215.710938 "/>
<path fill-rule="nonzero" fill="rgb(50.196078%, 50.196078%, 50.196078%)" fill-opacity="1" d="M 81.664062 217.675781 C 82.003906 217.675781 82.371094 217.675781 82.371094 217.277344 C 82.371094 216.910156 82.003906 216.910156 81.664062 216.910156 L 71.074219 216.910156 C 70.738281 216.910156 70.398438 216.910156 70.398438 217.277344 C 70.398438 217.675781 70.738281 217.675781 71.074219 217.675781 Z M 81.664062 217.675781 "/>
<path fill-rule="nonzero" fill="rgb(50.196078%, 50.196078%, 50.196078%)" fill-opacity="1" d="M 93.28125 219.519531 L 93.039062 219.398438 C 92.300781 220.53125 92.054688 220.714844 91.164062 220.714844 L 86.5 220.714844 L 89.785156 217.246094 C 91.535156 215.4375 92.300781 213.933594 92.300781 212.429688 C 92.300781 210.464844 90.703125 208.957031 88.648438 208.957031 C 87.574219 208.957031 86.558594 209.386719 85.855469 210.15625 C 85.210938 210.832031 84.933594 211.445312 84.59375 212.859375 L 84.996094 212.949219 C 85.792969 211.015625 86.5 210.402344 87.847656 210.402344 C 89.476562 210.402344 90.613281 211.507812 90.613281 213.164062 C 90.613281 214.699219 89.691406 216.511719 88.0625 218.261719 L 84.5625 221.945312 L 84.5625 222.191406 L 92.207031 222.191406 Z M 93.28125 219.519531 "/>
<path fill-rule="nonzero" fill="rgb(50.196078%, 50.196078%, 50.196078%)" fill-opacity="1" d="M 142.933594 217.675781 C 143.269531 217.675781 143.636719 217.675781 143.636719 217.277344 C 143.636719 216.910156 143.269531 216.910156 142.933594 216.910156 L 132.339844 216.910156 C 132.003906 216.910156 131.664062 216.910156 131.664062 217.277344 C 131.664062 217.675781 132.003906 217.675781 132.339844 217.675781 Z M 142.933594 217.675781 "/>
<path fill-rule="nonzero" fill="rgb(50.196078%, 50.196078%, 50.196078%)" fill-opacity="1" d="M 150.957031 208.957031 L 147.425781 210.738281 L 147.425781 211.015625 C 147.640625 210.921875 147.855469 210.832031 147.949219 210.800781 C 148.316406 210.648438 148.625 210.585938 148.839844 210.585938 C 149.238281 210.585938 149.421875 210.863281 149.421875 211.507812 L 149.421875 220.378906 C 149.421875 221.023438 149.269531 221.453125 148.960938 221.636719 C 148.65625 221.820312 148.378906 221.882812 147.550781 221.882812 L 147.550781 222.191406 L 152.953125 222.191406 L 152.953125 221.882812 C 151.417969 221.882812 151.109375 221.667969 151.109375 220.746094 L 151.109375 208.988281 Z M 150.957031 208.957031 "/>
<path fill-rule="nonzero" fill="rgb(50.196078%, 50.196078%, 50.196078%)" fill-opacity="1" d="M 265.886719 208.957031 L 262.355469 210.738281 L 262.355469 211.015625 C 262.570312 210.921875 262.785156 210.832031 262.878906 210.800781 C 263.246094 210.648438 263.550781 210.585938 263.765625 210.585938 C 264.167969 210.585938 264.351562 210.863281 264.351562 211.507812 L 264.351562 220.378906 C 264.351562 221.023438 264.199219 221.453125 263.890625 221.636719 C 263.582031 221.820312 263.308594 221.882812 262.476562 221.882812 L 262.476562 222.191406 L 267.882812 222.191406 L 267.882812 221.882812 C 266.347656 221.882812 266.039062 221.667969 266.039062 220.746094 L 266.039062 208.988281 Z M 265.886719 208.957031 "/>
<path fill-rule="nonzero" fill="rgb(50.196078%, 50.196078%, 50.196078%)" fill-opacity="1" d="M 330.742188 219.519531 L 330.496094 219.398438 C 329.757812 220.53125 329.515625 220.714844 328.625 220.714844 L 323.957031 220.714844 L 327.242188 217.246094 C 328.992188 215.4375 329.757812 213.933594 329.757812 212.429688 C 329.757812 210.464844 328.164062 208.957031 326.105469 208.957031 C 325.03125 208.957031 324.019531 209.386719 323.3125 210.15625 C 322.667969 210.832031 322.390625 211.445312 322.054688 212.859375 L 322.453125 212.949219 C 323.25 211.015625 323.957031 210.402344 325.308594 210.402344 C 326.933594 210.402344 328.070312 211.507812 328.070312 213.164062 C 328.070312 214.699219 327.148438 216.511719 325.523438 218.261719 L 322.023438 221.945312 L 322.023438 222.191406 L 329.667969 222.191406 Z M 330.742188 219.519531 "/>
<path fill-rule="nonzero" fill="rgb(50.196078%, 50.196078%, 50.196078%)" fill-opacity="1" d="M 385.714844 215.710938 C 386.851562 215.710938 387.3125 215.773438 387.769531 215.925781 C 389 216.386719 389.765625 217.492188 389.765625 218.84375 C 389.765625 220.472656 388.632812 221.761719 387.1875 221.761719 C 386.667969 221.761719 386.265625 221.605469 385.5625 221.148438 C 384.945312 220.808594 384.640625 220.65625 384.300781 220.65625 C 383.84375 220.65625 383.535156 220.933594 383.535156 221.363281 C 383.535156 222.035156 384.394531 222.464844 385.777344 222.464844 C 387.28125 222.464844 388.816406 221.945312 389.734375 221.148438 C 390.65625 220.347656 391.179688 219.210938 391.179688 217.890625 C 391.179688 216.910156 390.839844 215.988281 390.289062 215.375 C 389.890625 214.945312 389.519531 214.699219 388.660156 214.332031 C 390.011719 213.410156 390.503906 212.703125 390.503906 211.628906 C 390.503906 210.03125 389.246094 208.957031 387.433594 208.957031 C 386.453125 208.957031 385.589844 209.296875 384.886719 209.910156 C 384.300781 210.433594 384.027344 210.953125 383.597656 212.121094 L 383.871094 212.214844 C 384.671875 210.769531 385.5625 210.125 386.789062 210.125 C 388.078125 210.125 388.96875 210.984375 388.96875 212.214844 C 388.96875 212.917969 388.660156 213.625 388.171875 214.117188 C 387.585938 214.699219 387.035156 215.007812 385.714844 215.46875 Z M 385.714844 215.710938 "/>
<path fill-rule="nonzero" fill="rgb(50.196078%, 50.196078%, 50.196078%)" fill-opacity="1" d="M 180.605469 260.492188 C 180.945312 260.492188 181.3125 260.492188 181.3125 260.09375 C 181.3125 259.726562 180.945312 259.726562 180.605469 259.726562 L 170.015625 259.726562 C 169.675781 259.726562 169.339844 259.726562 169.339844 260.09375 C 169.339844 260.492188 169.675781 260.492188 170.015625 260.492188 Z M 180.605469 260.492188 "/>
<path fill-rule="nonzero" fill="rgb(50.196078%, 50.196078%, 50.196078%)" fill-opacity="1" d="M 188.632812 251.773438 L 185.101562 253.554688 L 185.101562 253.832031 C 185.316406 253.738281 185.53125 253.644531 185.625 253.617188 C 185.992188 253.460938 186.300781 253.402344 186.515625 253.402344 C 186.914062 253.402344 187.097656 253.675781 187.097656 254.320312 L 187.097656 263.195312 C 187.097656 263.839844 186.945312 264.269531 186.636719 264.453125 C 186.328125 264.636719 186.054688 264.699219 185.222656 264.699219 L 185.222656 265.003906 L 190.628906 265.003906 L 190.628906 264.699219 C 189.09375 264.699219 188.785156 264.484375 188.785156 263.5625 L 188.785156 251.804688 Z M 188.632812 251.773438 "/>
<path fill-rule="nonzero" fill="rgb(50.196078%, 50.196078%, 50.196078%)" fill-opacity="1" d="M 188.632812 130.050781 L 185.101562 131.832031 L 185.101562 132.109375 C 185.316406 132.015625 185.53125 131.925781 185.625 131.894531 C 185.992188 131.742188 186.300781 131.679688 186.515625 131.679688 C 186.914062 131.679688 187.097656 131.957031 187.097656 132.601562 L 187.097656 141.472656 C 187.097656 142.117188 186.945312 142.546875 186.636719 142.730469 C 186.328125 142.914062 186.054688 142.976562 185.222656 142.976562 L 185.222656 143.285156 L 190.628906 143.285156 L 190.628906 142.976562 C 189.09375 142.976562 188.785156 142.761719 188.785156 141.839844 L 188.785156 130.082031 Z M 188.632812 130.050781 "/>
<path fill-rule="nonzero" fill="rgb(50.196078%, 50.196078%, 50.196078%)" fill-opacity="1" d="M 192.222656 79.347656 L 191.976562 79.222656 C 191.242188 80.359375 190.996094 80.542969 190.105469 80.542969 L 185.4375 80.542969 L 188.722656 77.074219 C 190.472656 75.265625 191.242188 73.761719 191.242188 72.253906 C 191.242188 70.289062 189.644531 68.785156 187.589844 68.785156 C 186.515625 68.785156 185.5 69.214844 184.792969 69.984375 C 184.148438 70.660156 183.875 71.273438 183.535156 72.683594 L 183.933594 72.777344 C 184.734375 70.84375 185.4375 70.230469 186.789062 70.230469 C 188.417969 70.230469 189.554688 71.335938 189.554688 72.992188 C 189.554688 74.527344 188.632812 76.339844 187.003906 78.089844 L 183.503906 81.773438 L 183.503906 82.019531 L 191.148438 82.019531 Z M 192.222656 79.347656 "/>
<path fill-rule="nonzero" fill="rgb(50.196078%, 50.196078%, 50.196078%)" fill-opacity="1" d="M 185.929688 14.125 C 187.066406 14.125 187.527344 14.183594 187.988281 14.339844 C 189.214844 14.796875 189.984375 15.902344 189.984375 17.253906 C 189.984375 18.882812 188.847656 20.171875 187.402344 20.171875 C 186.882812 20.171875 186.484375 20.015625 185.777344 19.558594 C 185.164062 19.21875 184.855469 19.066406 184.519531 19.066406 C 184.058594 19.066406 183.75 19.34375 183.75 19.773438 C 183.75 20.449219 184.609375 20.878906 185.992188 20.878906 C 187.496094 20.878906 189.03125 20.355469 189.953125 19.558594 C 190.875 18.757812 191.394531 17.621094 191.394531 16.304688 C 191.394531 15.320312 191.058594 14.398438 190.503906 13.785156 C 190.105469 13.355469 189.738281 13.109375 188.878906 12.742188 C 190.230469 11.820312 190.71875 11.113281 190.71875 10.039062 C 190.71875 8.445312 189.460938 7.371094 187.648438 7.371094 C 186.667969 7.371094 185.808594 7.707031 185.101562 8.320312 C 184.519531 8.84375 184.242188 9.363281 183.8125 10.53125 L 184.089844 10.625 C 184.886719 9.179688 185.777344 8.535156 187.003906 8.535156 C 188.292969 8.535156 189.183594 9.394531 189.183594 10.625 C 189.183594 11.328125 188.878906 12.035156 188.386719 12.527344 C 187.804688 13.109375 187.25 13.417969 185.929688 13.878906 Z M 185.929688 14.125 "/>
<path fill="none" stroke-width="0.09962" stroke-linecap="butt" stroke-linejoin="miter" stroke="rgb(69.803922%, 69.803922%, 69.803922%)" stroke-opacity="1" stroke-dasharray="2.98883 2.98883" stroke-miterlimit="10" d="M 140.32105 0.000172166 L 140.32105 124.727182 " transform="matrix(1.964791, 0, 0, -1.964791, 20.005502, 259.26987)"/>
<path fill="none" stroke-width="0.19925" stroke-linecap="butt" stroke-linejoin="miter" stroke="rgb(50.196078%, 50.196078%, 50.196078%)" stroke-opacity="1" stroke-miterlimit="10" d="M 140.32105 29.056619 L 140.32105 33.309218 " transform="matrix(1.964791, 0, 0, -1.964791, 20.005502, 259.26987)"/>
<path fill-rule="nonzero" fill="rgb(100%, 12.941176%, 32.156863%)" fill-opacity="1" d="M 299.1875 215.421875 C 299.03125 215.605469 298.941406 215.726562 298.757812 215.941406 C 298.328125 216.558594 298.082031 216.742188 297.867188 216.742188 C 297.589844 216.742188 297.40625 216.496094 297.253906 215.941406 C 297.222656 215.789062 297.191406 215.667969 297.191406 215.605469 C 296.699219 213.609375 296.484375 212.71875 296.484375 212.441406 C 297.34375 210.90625 298.050781 210.046875 298.386719 210.046875 C 298.511719 210.046875 298.664062 210.109375 298.878906 210.203125 C 299.09375 210.355469 299.246094 210.386719 299.402344 210.386719 C 299.800781 210.386719 300.078125 210.109375 300.078125 209.679688 C 300.078125 209.28125 299.738281 208.972656 299.277344 208.972656 C 298.417969 208.972656 297.683594 209.679688 296.332031 211.769531 L 296.117188 210.691406 C 295.839844 209.34375 295.625 208.972656 295.074219 208.972656 C 294.644531 208.972656 294 209.128906 292.800781 209.527344 L 292.585938 209.617188 L 292.648438 209.894531 C 293.414062 209.742188 293.570312 209.679688 293.753906 209.679688 C 294.242188 209.679688 294.367188 209.863281 294.644531 211.03125 L 295.195312 213.457031 L 293.597656 215.726562 C 293.199219 216.34375 292.800781 216.679688 292.585938 216.679688 C 292.492188 216.679688 292.277344 216.617188 292.09375 216.496094 C 291.847656 216.371094 291.632812 216.3125 291.449219 216.3125 C 291.082031 216.3125 290.804688 216.585938 290.804688 216.988281 C 290.804688 217.507812 291.203125 217.816406 291.789062 217.816406 C 292.371094 217.816406 292.617188 217.632812 293.597656 216.433594 C 294.121094 215.820312 294.550781 215.296875 295.347656 214.164062 L 295.964844 216.496094 C 296.207031 217.507812 296.453125 217.816406 297.097656 217.816406 C 297.835938 217.816406 298.328125 217.355469 299.460938 215.574219 Z M 299.1875 215.421875 "/>
<path fill="none" stroke-width="0.09962" stroke-linecap="butt" stroke-linejoin="miter" stroke="rgb(69.803922%, 69.803922%, 69.803922%)" stroke-opacity="1" stroke-dasharray="2.98883 2.98883" stroke-miterlimit="10" d="M 0.00117607 101.340868 L 187.095667 101.340868 " transform="matrix(1.964791, 0, 0, -1.964791, 20.005502, 259.26987)"/>
<path fill="none" stroke-width="0.19925" stroke-linecap="butt" stroke-linejoin="miter" stroke="rgb(50.196078%, 50.196078%, 50.196078%)" stroke-opacity="1" stroke-miterlimit="10" d="M 91.41914 101.340868 L 95.673727 101.340868 " transform="matrix(1.964791, 0, 0, -1.964791, 20.005502, 259.26987)"/>
<path fill-rule="nonzero" fill="rgb(100%, 12.941176%, 32.156863%)" fill-opacity="1" d="M 184.324219 54.582031 C 184.570312 54.523438 184.695312 54.492188 184.910156 54.492188 C 186.042969 54.492188 186.320312 54.980469 187.242188 58.359375 C 187.550781 59.617188 188.039062 61.921875 188.039062 62.257812 C 188.039062 62.566406 187.917969 62.871094 187.609375 63.242188 C 187.027344 64.039062 186.628906 64.5625 186.414062 64.777344 C 185.984375 65.207031 185.769531 65.359375 185.492188 65.359375 C 185.398438 65.359375 185.246094 65.296875 185.03125 65.144531 C 184.753906 64.929688 184.539062 64.804688 184.324219 64.804688 C 183.894531 64.804688 183.558594 65.144531 183.558594 65.574219 C 183.558594 66.066406 183.988281 66.433594 184.539062 66.433594 C 185.800781 66.433594 188.378906 63.515625 190.496094 59.617188 C 191.816406 57.222656 192.367188 55.8125 192.367188 54.859375 C 192.367188 54.277344 191.878906 53.785156 191.292969 53.785156 C 190.832031 53.785156 190.527344 54.0625 190.527344 54.492188 C 190.527344 54.796875 190.679688 55.011719 191.078125 55.257812 C 191.449219 55.472656 191.570312 55.65625 191.570312 55.933594 C 191.570312 56.703125 190.863281 58.238281 189.175781 61 L 188.808594 58.726562 C 188.5 57.007812 187.394531 53.785156 187.117188 53.785156 L 187.027344 53.785156 C 187.027344 53.785156 186.933594 53.785156 186.875 53.785156 C 186.6875 53.816406 185.984375 53.9375 184.9375 54.121094 C 184.847656 54.152344 184.601562 54.214844 184.324219 54.246094 Z M 184.324219 54.582031 "/>
<g clip-path="url(#clip-0)">
<path fill="none" stroke-width="0.99628" stroke-linecap="butt" stroke-linejoin="miter" stroke="rgb(6.666667%, 52.941176%, 87.058824%)" stroke-opacity="1" stroke-miterlimit="10" d="M 0.00117607 311.821673 L 1.887907 300.598707 L 3.778614 289.602388 L 5.66932 278.836691 L 7.560027 268.301617 L 9.450734 257.993189 L 11.337465 247.915383 L 13.228172 238.064224 L 15.118879 228.441699 L 17.009585 219.051784 L 18.896316 209.888516 L 20.787023 200.953882 L 22.67773 192.251859 L 24.568437 183.774494 L 26.459144 175.527752 L 28.345874 167.509644 L 30.236581 159.724146 L 32.127288 152.161319 L 34.017995 144.83309 L 35.908702 137.731508 L 37.795432 130.860548 L 39.686139 124.216234 L 41.574858 117.802543 L 43.465565 111.617486 L 45.356272 105.661063 L 47.243002 99.935263 L 49.133709 94.438098 L 51.024416 89.169566 L 52.915123 84.12967 L 54.801853 79.316419 L 56.69256 74.735779 L 58.583267 70.383773 L 60.473974 66.26239 L 62.364681 62.367653 L 64.251412 58.699563 L 66.142118 55.266071 L 68.032825 52.059225 L 69.923532 49.079026 L 71.814239 46.333425 L 73.70097 43.812483 L 75.591677 41.520175 L 77.482383 39.458489 L 79.37309 37.625438 L 81.259821 36.024997 L 83.150528 34.649215 L 85.041235 33.500078 L 86.931942 32.587529 L 88.822648 31.899638 L 90.709379 31.438393 L 92.600086 31.211746 L 94.490793 31.211746 L 96.379512 31.438393 L 98.270218 31.899638 L 100.156949 32.583553 L 102.047656 33.500078 L 103.938363 34.645238 L 105.82907 36.021021 L 107.719777 37.621461 L 109.606507 39.454513 L 111.497214 41.516198 L 113.387921 43.806518 L 115.278628 46.325473 L 117.165358 49.07505 L 119.056065 52.051273 L 120.946772 55.258118 L 122.837479 58.695586 L 124.728186 62.359701 L 126.614916 66.254438 L 128.505623 70.375821 L 130.39633 74.727826 L 132.287037 79.310455 L 134.177744 84.117741 L 136.064475 89.157638 L 137.955181 94.426169 L 139.845888 99.923334 L 141.736595 105.649134 L 143.627302 111.605557 L 145.514033 117.790614 L 147.40474 124.204305 L 149.295446 130.844643 L 151.186153 137.719579 L 153.072884 144.817185 L 154.961603 152.14939 L 156.85231 159.708241 L 158.743016 167.497715 L 160.633723 175.511847 L 162.520454 183.758589 L 164.411161 192.231978 L 166.301868 200.937977 L 168.192575 209.872611 L 170.083281 219.031903 L 171.970012 228.423806 L 173.860719 238.044342 L 175.751426 247.895502 L 177.642133 257.973307 L 179.532839 268.277759 L 181.41957 278.81681 L 183.310277 289.582507 L 185.200984 300.578826 L 187.091691 311.801792 " transform="matrix(1.964791, 0, 0, -1.964791, 20.005502, 259.26987)"/>
</g>
<path fill="none" stroke-width="0.79701" stroke-linecap="butt" stroke-linejoin="miter" stroke="rgb(100%, 12.941176%, 32.156863%)" stroke-opacity="1" stroke-dasharray="0.79701 1.99255" stroke-miterlimit="10" d="M 140.32105 31.179936 L 140.32105 101.340868 L 93.548422 101.340868 " transform="matrix(1.964791, 0, 0, -1.964791, 20.005502, 259.26987)"/>
</svg>
