<?xml version="1.0" encoding="UTF-8"?>
<svg xmlns="http://www.w3.org/2000/svg" xmlns:xlink="http://www.w3.org/1999/xlink" width="400" height="386.750154" viewBox="0 0 400 386.750154">
<defs>
<clipPath id="clip-0">
<path clip-rule="nonzero" d="M 73.59375 54 L 384.613281 54 L 384.613281 303 L 73.59375 303 Z M 73.59375 54 "/>
</clipPath>
</defs>
<path fill="none" stroke-width="0.19925" stroke-linecap="butt" stroke-linejoin="miter" stroke="rgb(50.196078%, 50.196078%, 50.196078%)" stroke-opacity="1" stroke-miterlimit="10" d="M 40.535757 29.055454 L 40.535757 33.310269 M 56.129525 29.055454 L 56.129525 33.310269 M 115.374632 29.055454 L 115.374632 33.310269 " transform="matrix(3.066379, 0, 0, -3.066379, 2.143399, 384.606763)"/>
<path fill="none" stroke-width="0.19925" stroke-linecap="butt" stroke-linejoin="miter" stroke="rgb(50.196078%, 50.196078%, 50.196078%)" stroke-opacity="1" stroke-miterlimit="10" d="M 29.055402 77.64569 L 33.308942 77.64569 " transform="matrix(3.066379, 0, 0, -3.066379, 2.143399, 384.606763)"/>
<path fill="none" stroke-width="0.3985" stroke-linecap="butt" stroke-linejoin="miter" stroke="rgb(50.196078%, 50.196078%, 50.196078%)" stroke-opacity="1" stroke-miterlimit="10" d="M 0.000369202 31.180314 L 122.739027 31.180314 " transform="matrix(3.066379, 0, 0, -3.066379, 2.143399, 384.606763)"/>
<path fill-rule="nonzero" fill="rgb(50.196078%, 50.196078%, 50.196078%)" fill-opacity="1" d="M 384.613281 288.996094 L 374.828125 284.105469 L 378.507812 288.996094 L 374.828125 293.882812 "/>
<path fill="none" stroke-width="0.3985" stroke-linecap="butt" stroke-linejoin="miter" stroke="rgb(50.196078%, 50.196078%, 50.196078%)" stroke-opacity="1" stroke-miterlimit="10" d="M 31.184083 0.00169591 L 31.184083 122.735259 " transform="matrix(3.066379, 0, 0, -3.066379, 2.143399, 384.606763)"/>
<path fill-rule="nonzero" fill="rgb(50.196078%, 50.196078%, 50.196078%)" fill-opacity="1" d="M 97.765625 2.144531 L 92.878906 11.917969 L 97.765625 8.253906 L 102.652344 11.917969 "/>
<path fill-rule="nonzero" fill="rgb(50.196078%, 50.196078%, 50.196078%)" fill-opacity="1" d="M 106.347656 325.644531 C 106.109375 325.933594 105.964844 326.125 105.675781 326.460938 C 105.007812 327.417969 104.625 327.707031 104.289062 327.707031 C 103.855469 327.707031 103.570312 327.320312 103.328125 326.460938 C 103.28125 326.21875 103.234375 326.027344 103.234375 325.933594 C 102.46875 322.820312 102.132812 321.429688 102.132812 320.996094 C 103.472656 318.601562 104.574219 317.261719 105.101562 317.261719 C 105.292969 317.261719 105.535156 317.355469 105.867188 317.5 C 106.203125 317.738281 106.445312 317.789062 106.683594 317.789062 C 107.304688 317.789062 107.738281 317.355469 107.738281 316.6875 C 107.738281 316.0625 107.210938 315.582031 106.492188 315.582031 C 105.148438 315.582031 104 316.6875 101.890625 319.945312 L 101.558594 318.265625 C 101.125 316.160156 100.789062 315.582031 99.929688 315.582031 C 99.257812 315.582031 98.25 315.824219 96.382812 316.445312 L 96.046875 316.589844 L 96.144531 317.019531 C 97.339844 316.78125 97.582031 316.6875 97.867188 316.6875 C 98.632812 316.6875 98.824219 316.972656 99.257812 318.792969 L 100.121094 322.578125 L 97.628906 326.125 C 97.003906 327.082031 96.382812 327.609375 96.046875 327.609375 C 95.902344 327.609375 95.566406 327.515625 95.28125 327.320312 C 94.898438 327.128906 94.5625 327.035156 94.273438 327.035156 C 93.699219 327.035156 93.269531 327.464844 93.269531 328.089844 C 93.269531 328.902344 93.890625 329.382812 94.800781 329.382812 C 95.710938 329.382812 96.09375 329.09375 97.628906 327.226562 C 98.441406 326.269531 99.113281 325.453125 100.359375 323.679688 L 101.316406 327.320312 C 101.699219 328.902344 102.082031 329.382812 103.089844 329.382812 C 104.238281 329.382812 105.007812 328.664062 106.78125 325.886719 Z M 106.347656 325.644531 "/>
<path fill-rule="nonzero" fill="rgb(50.196078%, 50.196078%, 50.196078%)" fill-opacity="1" d="M 132.101562 322.003906 C 132.628906 322.003906 133.203125 322.003906 133.203125 321.382812 C 133.203125 320.804688 132.628906 320.804688 132.101562 320.804688 L 115.570312 320.804688 C 115.042969 320.804688 114.515625 320.804688 114.515625 321.382812 C 114.515625 322.003906 115.042969 322.003906 115.570312 322.003906 Z M 132.101562 322.003906 "/>
<path fill-rule="nonzero" fill="rgb(50.196078%, 50.196078%, 50.196078%)" fill-opacity="1" d="M 150.066406 315.488281 C 148.34375 315.96875 147.386719 316.351562 146.378906 316.972656 C 144.128906 318.363281 142.640625 320.472656 142.210938 322.769531 C 141.585938 326.410156 144.03125 329.429688 147.527344 329.429688 C 151.363281 329.429688 155.195312 325.980469 155.867188 321.957031 C 156.152344 319.992188 155.816406 318.125 154.8125 316.589844 C 153.949219 315.34375 153.519531 314.960938 151.074219 313.285156 C 148.535156 311.558594 147.578125 310.503906 147.769531 309.5 C 147.914062 308.492188 149.015625 307.726562 150.210938 307.726562 C 151.3125 307.726562 151.9375 308.0625 152.847656 309.210938 C 153.902344 310.503906 154.285156 310.746094 155.050781 310.746094 C 155.867188 310.746094 156.585938 310.167969 156.726562 309.449219 C 156.96875 307.820312 154.570312 306.433594 151.363281 306.433594 C 148.488281 306.433594 146.523438 307.582031 146.234375 309.449219 C 146.042969 310.554688 146.378906 311.464844 147.527344 312.707031 Z M 150.785156 316.253906 C 152.511719 318.21875 153.132812 320.328125 152.65625 322.960938 C 152.175781 325.980469 150.402344 327.992188 148.296875 327.992188 C 146.140625 327.992188 145.085938 325.644531 145.660156 322.101562 C 146.1875 318.792969 147.914062 316.828125 150.785156 316.253906 Z M 150.785156 316.253906 "/>
<path fill-rule="nonzero" fill="rgb(50.196078%, 50.196078%, 50.196078%)" fill-opacity="1" d="M 179.691406 316.171875 C 179.449219 316.460938 179.304688 316.652344 179.019531 316.988281 C 178.347656 317.945312 177.964844 318.234375 177.628906 318.234375 C 177.199219 318.234375 176.910156 317.851562 176.671875 316.988281 C 176.625 316.75 176.574219 316.554688 176.574219 316.460938 C 175.808594 313.347656 175.472656 311.957031 175.472656 311.527344 C 176.816406 309.128906 177.917969 307.789062 178.445312 307.789062 C 178.636719 307.789062 178.875 307.882812 179.210938 308.027344 C 179.546875 308.269531 179.785156 308.316406 180.023438 308.316406 C 180.648438 308.316406 181.078125 307.882812 181.078125 307.214844 C 181.078125 306.589844 180.550781 306.113281 179.832031 306.113281 C 178.492188 306.113281 177.34375 307.214844 175.234375 310.472656 L 174.898438 308.792969 C 174.46875 306.6875 174.132812 306.113281 173.269531 306.113281 C 172.597656 306.113281 171.59375 306.351562 169.722656 306.972656 L 169.390625 307.117188 L 169.484375 307.550781 C 170.683594 307.308594 170.921875 307.214844 171.210938 307.214844 C 171.976562 307.214844 172.167969 307.5 172.597656 309.320312 L 173.460938 313.105469 L 170.96875 316.652344 C 170.347656 317.609375 169.722656 318.136719 169.390625 318.136719 C 169.246094 318.136719 168.910156 318.042969 168.621094 317.851562 C 168.238281 317.660156 167.902344 317.5625 167.617188 317.5625 C 167.039062 317.5625 166.609375 317.992188 166.609375 318.617188 C 166.609375 319.429688 167.234375 319.910156 168.144531 319.910156 C 169.054688 319.910156 169.4375 319.621094 170.96875 317.753906 C 171.785156 316.796875 172.457031 315.980469 173.699219 314.207031 L 174.660156 317.851562 C 175.042969 319.429688 175.425781 319.910156 176.433594 319.910156 C 177.582031 319.910156 178.347656 319.191406 180.121094 316.414062 Z M 179.691406 316.171875 "/>
<path fill-rule="nonzero" fill="rgb(50.196078%, 50.196078%, 50.196078%)" fill-opacity="1" d="M 335.824219 325.644531 C 335.585938 325.933594 335.441406 326.125 335.152344 326.460938 C 334.480469 327.417969 334.097656 327.707031 333.761719 327.707031 C 333.332031 327.707031 333.042969 327.320312 332.804688 326.460938 C 332.757812 326.21875 332.710938 326.027344 332.710938 325.933594 C 331.941406 322.820312 331.609375 321.429688 331.609375 320.996094 C 332.949219 318.601562 334.050781 317.261719 334.578125 317.261719 C 334.769531 317.261719 335.007812 317.355469 335.34375 317.5 C 335.679688 317.738281 335.917969 317.789062 336.160156 317.789062 C 336.78125 317.789062 337.214844 317.355469 337.214844 316.6875 C 337.214844 316.0625 336.6875 315.582031 335.96875 315.582031 C 334.625 315.582031 333.476562 316.6875 331.367188 319.945312 L 331.03125 318.265625 C 330.601562 316.160156 330.265625 315.582031 329.402344 315.582031 C 328.734375 315.582031 327.726562 315.824219 325.859375 316.445312 L 325.523438 316.589844 L 325.617188 317.019531 C 326.816406 316.78125 327.054688 316.6875 327.34375 316.6875 C 328.109375 316.6875 328.300781 316.972656 328.734375 318.792969 L 329.59375 322.578125 L 327.105469 326.125 C 326.480469 327.082031 325.859375 327.609375 325.523438 327.609375 C 325.378906 327.609375 325.042969 327.515625 324.757812 327.320312 C 324.371094 327.128906 324.039062 327.035156 323.75 327.035156 C 323.175781 327.035156 322.742188 327.464844 322.742188 328.089844 C 322.742188 328.902344 323.367188 329.382812 324.277344 329.382812 C 325.1875 329.382812 325.570312 329.09375 327.105469 327.226562 C 327.917969 326.269531 328.589844 325.453125 329.835938 323.679688 L 330.792969 327.320312 C 331.175781 328.902344 331.558594 329.382812 332.566406 329.382812 C 333.714844 329.382812 334.480469 328.664062 336.253906 325.886719 Z M 335.824219 325.644531 "/>
<path fill-rule="nonzero" fill="rgb(50.196078%, 50.196078%, 50.196078%)" fill-opacity="1" d="M 353.960938 322.003906 L 362.488281 322.003906 C 362.921875 322.003906 363.496094 322.003906 363.496094 321.382812 C 363.496094 320.804688 362.921875 320.804688 362.488281 320.804688 L 353.960938 320.804688 L 353.960938 312.230469 C 353.960938 311.796875 353.960938 311.222656 353.339844 311.222656 C 352.714844 311.222656 352.714844 311.796875 352.714844 312.230469 L 352.714844 320.804688 L 344.1875 320.804688 C 343.757812 320.804688 343.179688 320.804688 343.179688 321.382812 C 343.179688 322.003906 343.757812 322.003906 344.1875 322.003906 L 352.714844 322.003906 L 352.714844 330.582031 C 352.714844 331.011719 352.714844 331.585938 353.339844 331.585938 C 353.960938 331.585938 353.960938 331.011719 353.960938 330.582031 Z M 353.960938 322.003906 "/>
<path fill-rule="nonzero" fill="rgb(50.196078%, 50.196078%, 50.196078%)" fill-opacity="1" d="M 379.542969 315.488281 C 377.820312 315.96875 376.859375 316.351562 375.855469 316.972656 C 373.601562 318.363281 372.117188 320.472656 371.6875 322.769531 C 371.0625 326.410156 373.507812 329.429688 377.003906 329.429688 C 380.835938 329.429688 384.671875 325.980469 385.339844 321.957031 C 385.628906 319.992188 385.292969 318.125 384.285156 316.589844 C 383.425781 315.34375 382.992188 314.960938 380.550781 313.285156 C 378.011719 311.558594 377.050781 310.503906 377.242188 309.5 C 377.386719 308.492188 378.488281 307.726562 379.6875 307.726562 C 380.789062 307.726562 381.414062 308.0625 382.324219 309.210938 C 383.375 310.503906 383.761719 310.746094 384.527344 310.746094 C 385.339844 310.746094 386.058594 310.167969 386.203125 309.449219 C 386.441406 307.820312 384.046875 306.433594 380.835938 306.433594 C 377.960938 306.433594 376 307.582031 375.710938 309.449219 C 375.519531 310.554688 375.855469 311.464844 377.003906 312.707031 Z M 380.261719 316.253906 C 381.988281 318.21875 382.609375 320.328125 382.132812 322.960938 C 381.652344 325.980469 379.878906 327.992188 377.769531 327.992188 C 375.613281 327.992188 374.5625 325.644531 375.136719 322.101562 C 375.664062 318.792969 377.386719 316.828125 380.261719 316.253906 Z M 380.261719 316.253906 "/>
<path fill-rule="nonzero" fill="rgb(50.196078%, 50.196078%, 50.196078%)" fill-opacity="1" d="M 31.191406 142.039062 L 33.96875 142.039062 L 31.285156 154.882812 C 30.617188 158.1875 29.609375 159.863281 28.316406 159.863281 C 27.933594 159.863281 27.691406 159.625 27.691406 159.335938 C 27.691406 159.289062 27.742188 159.191406 27.835938 159 C 27.933594 158.859375 27.980469 158.714844 27.980469 158.523438 C 27.980469 157.898438 27.40625 157.371094 26.78125 157.371094 C 26.113281 157.371094 25.632812 157.898438 25.632812 158.617188 C 25.632812 159.671875 26.734375 160.488281 28.074219 160.488281 C 30.757812 160.488281 32.914062 157.46875 34.160156 151.863281 L 36.363281 142.039062 L 39.71875 142.039062 L 39.910156 141.082031 L 36.605469 141.082031 C 37.46875 136.289062 38.617188 134.085938 40.292969 134.085938 C 40.726562 134.085938 40.964844 134.277344 40.964844 134.46875 C 40.964844 134.566406 40.964844 134.613281 40.867188 134.804688 C 40.726562 135.046875 40.675781 135.1875 40.675781 135.429688 C 40.675781 136.148438 41.15625 136.625 41.828125 136.625 C 42.496094 136.625 43.121094 136.097656 43.121094 135.429688 C 43.121094 134.277344 41.96875 133.417969 40.484375 133.417969 C 38.953125 133.417969 37.800781 134.085938 36.699219 135.523438 C 35.742188 136.722656 35.167969 138.160156 34.207031 141.082031 L 31.429688 141.082031 Z M 31.191406 142.039062 "/>
<path fill-rule="nonzero" fill="rgb(50.196078%, 50.196078%, 50.196078%)" fill-opacity="1" d="M 53.199219 161.492188 C 53.199219 161.398438 53.199219 161.347656 52.671875 160.820312 C 48.886719 156.988281 47.878906 151.191406 47.878906 146.496094 C 47.878906 141.179688 49.03125 135.859375 52.816406 132.074219 C 53.199219 131.691406 53.199219 131.644531 53.199219 131.546875 C 53.199219 131.308594 53.101562 131.210938 52.910156 131.210938 C 52.574219 131.210938 49.84375 133.320312 48.023438 137.203125 C 46.492188 140.554688 46.105469 143.957031 46.105469 146.496094 C 46.105469 148.890625 46.441406 152.582031 48.121094 156.078125 C 49.988281 159.816406 52.574219 161.828125 52.910156 161.828125 C 53.101562 161.828125 53.199219 161.730469 53.199219 161.492188 Z M 53.199219 161.492188 "/>
<path fill-rule="nonzero" fill="rgb(50.196078%, 50.196078%, 50.196078%)" fill-opacity="1" d="M 67.207031 150.761719 C 66.964844 151.046875 66.824219 151.238281 66.535156 151.574219 C 65.863281 152.535156 65.480469 152.820312 65.144531 152.820312 C 64.714844 152.820312 64.425781 152.4375 64.1875 151.574219 C 64.140625 151.335938 64.089844 151.144531 64.089844 151.046875 C 63.324219 147.933594 62.988281 146.542969 62.988281 146.113281 C 64.332031 143.71875 65.433594 142.375 65.960938 142.375 C 66.152344 142.375 66.390625 142.472656 66.726562 142.617188 C 67.0625 142.855469 67.300781 142.902344 67.542969 142.902344 C 68.164062 142.902344 68.59375 142.472656 68.59375 141.800781 C 68.59375 141.179688 68.066406 140.699219 67.347656 140.699219 C 66.007812 140.699219 64.859375 141.800781 62.75 145.058594 L 62.414062 143.382812 C 61.984375 141.273438 61.648438 140.699219 60.785156 140.699219 C 60.113281 140.699219 59.109375 140.9375 57.238281 141.5625 L 56.90625 141.703125 L 57 142.136719 C 58.199219 141.898438 58.4375 141.800781 58.726562 141.800781 C 59.492188 141.800781 59.683594 142.089844 60.113281 143.910156 L 60.976562 147.695312 L 58.484375 151.238281 C 57.863281 152.199219 57.238281 152.726562 56.90625 152.726562 C 56.761719 152.726562 56.425781 152.628906 56.136719 152.4375 C 55.753906 152.246094 55.417969 152.148438 55.132812 152.148438 C 54.558594 152.148438 54.125 152.582031 54.125 153.203125 C 54.125 154.019531 54.75 154.496094 55.660156 154.496094 C 56.570312 154.496094 56.953125 154.210938 58.484375 152.339844 C 59.300781 151.382812 59.972656 150.570312 61.21875 148.796875 L 62.175781 152.4375 C 62.558594 154.019531 62.941406 154.496094 63.949219 154.496094 C 65.097656 154.496094 65.863281 153.777344 67.636719 151 Z M 67.207031 150.761719 "/>
<path fill-rule="nonzero" fill="rgb(50.196078%, 50.196078%, 50.196078%)" fill-opacity="1" d="M 77.410156 146.496094 C 77.410156 144.148438 77.074219 140.460938 75.398438 136.960938 C 73.578125 133.222656 70.941406 131.210938 70.65625 131.210938 C 70.464844 131.210938 70.320312 131.355469 70.320312 131.546875 C 70.320312 131.644531 70.320312 131.691406 70.894531 132.265625 C 73.914062 135.285156 75.636719 140.125 75.636719 146.496094 C 75.636719 151.765625 74.535156 157.132812 70.75 160.964844 C 70.320312 161.347656 70.320312 161.398438 70.320312 161.492188 C 70.320312 161.683594 70.464844 161.828125 70.65625 161.828125 C 70.941406 161.828125 73.722656 159.71875 75.496094 155.839844 C 77.074219 152.484375 77.410156 149.082031 77.410156 146.496094 Z M 77.410156 146.496094 "/>
<path fill="none" stroke-width="0.19925" stroke-linecap="butt" stroke-linejoin="miter" stroke="rgb(50.196078%, 50.196078%, 50.196078%)" stroke-opacity="1" stroke-miterlimit="10" d="M 77.957742 29.055454 L 77.957742 33.310269 " transform="matrix(3.066379, 0, 0, -3.066379, 2.143399, 384.606763)"/>
<path fill-rule="nonzero" fill="rgb(100%, 12.941176%, 32.156863%)" fill-opacity="1" d="M 247.726562 316.222656 C 247.246094 316.652344 247.105469 316.84375 246.863281 317.082031 C 245.953125 317.992188 245.570312 318.328125 245.28125 318.328125 C 245.042969 318.328125 244.851562 318.136719 244.851562 317.945312 C 244.851562 317.324219 246.144531 312.101562 247.582031 306.832031 C 247.679688 306.542969 247.679688 306.445312 247.773438 306.207031 L 247.535156 306.113281 L 245.667969 306.304688 L 245.570312 306.398438 L 245.234375 307.882812 C 244.996094 306.734375 244.132812 306.113281 242.792969 306.113281 C 238.765625 306.113281 234.070312 311.667969 234.070312 316.507812 C 234.070312 318.664062 235.222656 319.910156 237.1875 319.910156 C 239.34375 319.910156 240.636719 318.902344 243.320312 315.121094 C 242.695312 317.515625 242.601562 317.898438 242.601562 318.617188 C 242.601562 319.527344 242.984375 319.863281 243.847656 319.863281 C 245.089844 319.863281 245.808594 319.289062 248.109375 316.507812 Z M 242.984375 306.78125 C 244.039062 306.832031 244.707031 307.550781 244.707031 308.652344 C 244.707031 311.191406 243.175781 314.785156 241.066406 317.082031 C 240.347656 317.898438 239.292969 318.425781 238.382812 318.425781 C 237.328125 318.425781 236.609375 317.515625 236.609375 316.125 C 236.609375 314.449219 237.808594 311.335938 239.101562 309.417969 C 240.347656 307.644531 241.785156 306.6875 242.984375 306.78125 Z M 242.984375 306.78125 "/>
<path fill="none" stroke-width="0.19925" stroke-linecap="butt" stroke-linejoin="miter" stroke="rgb(50.196078%, 50.196078%, 50.196078%)" stroke-opacity="1" stroke-miterlimit="10" d="M 29.055402 93.547741 L 33.308942 93.547741 " transform="matrix(3.066379, 0, 0, -3.066379, 2.143399, 384.606763)"/>
<path fill-rule="nonzero" fill="rgb(100%, 12.941176%, 32.156863%)" fill-opacity="1" d="M 29.566406 93.277344 L 32.347656 93.277344 L 29.664062 106.117188 C 28.992188 109.421875 27.988281 111.097656 26.695312 111.097656 C 26.308594 111.097656 26.070312 110.859375 26.070312 110.570312 C 26.070312 110.523438 26.117188 110.429688 26.214844 110.238281 C 26.308594 110.09375 26.359375 109.949219 26.359375 109.757812 C 26.359375 109.132812 25.785156 108.609375 25.160156 108.609375 C 24.488281 108.609375 24.011719 109.132812 24.011719 109.851562 C 24.011719 110.90625 25.113281 111.722656 26.453125 111.722656 C 29.136719 111.722656 31.292969 108.703125 32.539062 103.097656 L 34.742188 93.277344 L 38.097656 93.277344 L 38.289062 92.316406 L 34.980469 92.316406 C 35.84375 87.527344 36.996094 85.324219 38.671875 85.324219 C 39.101562 85.324219 39.34375 85.515625 39.34375 85.707031 C 39.34375 85.800781 39.34375 85.847656 39.246094 86.042969 C 39.101562 86.28125 39.054688 86.425781 39.054688 86.664062 C 39.054688 87.382812 39.535156 87.863281 40.203125 87.863281 C 40.875 87.863281 41.5 87.335938 41.5 86.664062 C 41.5 85.515625 40.347656 84.652344 38.863281 84.652344 C 37.332031 84.652344 36.179688 85.324219 35.078125 86.757812 C 34.121094 87.957031 33.546875 89.394531 32.585938 92.316406 L 29.808594 92.316406 Z M 29.566406 93.277344 "/>
<path fill-rule="nonzero" fill="rgb(100%, 12.941176%, 32.156863%)" fill-opacity="1" d="M 51.574219 112.726562 C 51.574219 112.632812 51.574219 112.585938 51.050781 112.058594 C 47.265625 108.222656 46.257812 102.425781 46.257812 97.730469 C 46.257812 92.414062 47.40625 87.09375 51.191406 83.308594 C 51.574219 82.925781 51.574219 82.878906 51.574219 82.78125 C 51.574219 82.542969 51.480469 82.449219 51.289062 82.449219 C 50.953125 82.449219 48.222656 84.554688 46.402344 88.4375 C 44.867188 91.789062 44.484375 95.191406 44.484375 97.730469 C 44.484375 100.128906 44.820312 103.816406 46.496094 107.3125 C 48.367188 111.050781 50.953125 113.0625 51.289062 113.0625 C 51.480469 113.0625 51.574219 112.96875 51.574219 112.726562 Z M 51.574219 112.726562 "/>
<path fill-rule="nonzero" fill="rgb(100%, 12.941176%, 32.156863%)" fill-opacity="1" d="M 67.503906 102.042969 C 67.023438 102.476562 66.878906 102.667969 66.640625 102.90625 C 65.730469 103.816406 65.347656 104.152344 65.058594 104.152344 C 64.820312 104.152344 64.628906 103.960938 64.628906 103.769531 C 64.628906 103.144531 65.921875 97.921875 67.359375 92.652344 C 67.457031 92.367188 67.457031 92.269531 67.550781 92.03125 L 67.3125 91.933594 L 65.441406 92.125 L 65.347656 92.222656 L 65.011719 93.707031 C 64.773438 92.558594 63.910156 91.933594 62.566406 91.933594 C 58.542969 91.933594 53.847656 97.492188 53.847656 102.332031 C 53.847656 104.488281 55 105.734375 56.960938 105.734375 C 59.117188 105.734375 60.414062 104.726562 63.09375 100.941406 C 62.472656 103.335938 62.375 103.71875 62.375 104.4375 C 62.375 105.351562 62.761719 105.683594 63.621094 105.683594 C 64.867188 105.683594 65.585938 105.109375 67.886719 102.332031 Z M 62.761719 92.605469 C 63.8125 92.652344 64.484375 93.371094 64.484375 94.472656 C 64.484375 97.011719 62.953125 100.605469 60.84375 102.90625 C 60.125 103.71875 59.070312 104.246094 58.160156 104.246094 C 57.105469 104.246094 56.386719 103.335938 56.386719 101.949219 C 56.386719 100.269531 57.585938 97.15625 58.878906 95.238281 C 60.125 93.46875 61.5625 92.507812 62.761719 92.605469 Z M 62.761719 92.605469 "/>
<path fill-rule="nonzero" fill="rgb(100%, 12.941176%, 32.156863%)" fill-opacity="1" d="M 77.410156 97.730469 C 77.410156 95.382812 77.074219 91.695312 75.398438 88.195312 C 73.578125 84.460938 70.941406 82.449219 70.65625 82.449219 C 70.464844 82.449219 70.320312 82.589844 70.320312 82.78125 C 70.320312 82.878906 70.320312 82.925781 70.894531 83.5 C 73.914062 86.519531 75.636719 91.359375 75.636719 97.730469 C 75.636719 103.003906 74.535156 108.367188 70.75 112.199219 C 70.320312 112.585938 70.320312 112.632812 70.320312 112.726562 C 70.320312 112.917969 70.464844 113.0625 70.65625 113.0625 C 70.941406 113.0625 73.722656 110.957031 75.496094 107.074219 C 77.074219 103.71875 77.410156 100.320312 77.410156 97.730469 Z M 77.410156 97.730469 "/>
<g clip-path="url(#clip-0)">
<path fill="none" stroke-width="0.99628" stroke-linecap="butt" stroke-linejoin="miter" stroke="rgb(6.666667%, 52.941176%, 87.058824%)" stroke-opacity="1" stroke-miterlimit="10" d="M 37.418532 40.849189 L 38.238922 42.958761 L 39.055489 45.0212 L 39.874605 47.044148 L 40.694994 49.021235 L 41.511562 50.958832 L 42.331951 52.849294 L 43.152341 54.700266 L 43.968908 56.505377 L 44.789298 58.270998 L 45.609687 59.989484 L 46.426255 61.669754 L 47.246644 63.301615 L 48.063212 64.891438 L 48.883601 66.443044 L 49.702717 67.946242 L 50.519284 69.411223 L 51.339674 70.82907 L 52.160063 72.204878 L 52.976631 73.539922 L 53.79702 74.829105 L 54.61741 76.074976 L 55.433977 77.28263 L 56.254367 78.44315 L 57.074756 79.560357 L 57.891324 80.638073 L 58.711713 81.668656 L 59.527007 82.657199 L 60.347396 83.602431 L 61.167786 84.509445 L 61.984353 85.368051 L 62.804743 86.184619 L 63.625132 86.957874 L 64.4417 87.692912 L 65.262089 88.379543 L 66.082479 89.024134 L 66.899046 89.626687 L 67.719436 90.184654 L 68.536003 90.700582 L 69.355119 91.177019 L 70.175508 91.606323 L 70.992076 91.993587 L 71.812465 92.337539 L 72.632855 92.638179 L 73.449422 92.895506 L 74.269812 93.110794 L 75.090201 93.28277 L 75.906769 93.411434 L 76.727158 93.496785 L 77.547547 93.540098 L 78.364115 93.540098 L 79.183231 93.496785 L 79.999798 93.411434 L 80.820188 93.28277 L 81.640577 93.110794 L 82.457145 92.895506 L 83.277534 92.638179 L 84.097924 92.337539 L 84.914491 91.993587 L 85.734881 91.606323 L 86.55527 91.177019 L 87.371838 90.704404 L 88.192227 90.188476 L 89.007521 89.626687 L 89.82791 89.024134 L 90.6483 88.379543 L 91.464867 87.692912 L 92.285257 86.961696 L 93.105646 86.188441 L 93.922214 85.368051 L 94.742603 84.509445 L 95.562992 83.606252 L 96.37956 82.661021 L 97.199949 81.672477 L 98.020339 80.638073 L 98.835633 79.564179 L 99.656022 78.446971 L 100.47259 77.28263 L 101.292979 76.078798 L 102.113368 74.832927 L 102.929936 73.543743 L 103.750326 72.2087 L 104.570715 70.832892 L 105.387283 69.415045 L 106.207672 67.950064 L 107.028061 66.446866 L 107.843355 64.89526 L 108.663745 63.305437 L 109.480312 61.673575 L 110.300702 59.993306 L 111.121091 58.274819 L 111.937659 56.509199 L 112.758048 54.704087 L 113.578437 52.853116 L 114.395005 50.962653 L 115.215394 49.025057 L 116.035784 47.047969 L 116.852351 45.025022 L 117.671467 42.962583 L 118.491856 40.85301 " transform="matrix(3.066379, 0, 0, -3.066379, 2.143399, 384.606763)"/>
</g>
<path fill="none" stroke-width="0.3985" stroke-linecap="butt" stroke-linejoin="miter" stroke="rgb(69.803922%, 69.803922%, 69.803922%)" stroke-opacity="1" stroke-dasharray="2.98883 2.98883" stroke-miterlimit="10" d="M 31.184083 93.547741 L 77.957742 93.547741 L 77.957742 31.180314 " transform="matrix(3.066379, 0, 0, -3.066379, 2.143399, 384.606763)"/>
<path fill="none" stroke-width="0.3985" stroke-linecap="butt" stroke-linejoin="miter" stroke="rgb(69.803922%, 69.803922%, 69.803922%)" stroke-opacity="1" stroke-dasharray="2.98883 2.98883" stroke-miterlimit="10" d="M 31.184083 77.64569 L 56.129525 77.64569 L 56.129525 31.180314 " transform="matrix(3.066379, 0, 0, -3.066379, 2.143399, 384.606763)"/>
<path fill-rule="nonzero" fill="rgb(50.196078%, 50.196078%, 50.196078%)" fill-opacity="1" d="M 131.585938 303.960938 C 131.585938 303.863281 131.585938 303.816406 131.058594 303.289062 C 127.273438 299.457031 126.265625 293.660156 126.265625 288.964844 C 126.265625 283.644531 127.414062 278.328125 131.199219 274.542969 C 131.585938 274.160156 131.585938 274.109375 131.585938 274.015625 C 131.585938 273.773438 131.488281 273.679688 131.296875 273.679688 C 130.960938 273.679688 128.230469 275.789062 126.410156 279.667969 C 124.875 283.023438 124.492188 286.425781 124.492188 288.964844 C 124.492188 291.359375 124.828125 295.046875 126.503906 298.546875 C 128.375 302.28125 130.960938 304.296875 131.296875 304.296875 C 131.488281 304.296875 131.585938 304.199219 131.585938 303.960938 Z M 131.585938 303.960938 "/>
<path fill-rule="nonzero" fill="rgb(50.196078%, 50.196078%, 50.196078%)" fill-opacity="1" d="M 357.855469 288.964844 C 357.855469 286.617188 357.519531 282.925781 355.84375 279.429688 C 354.023438 275.691406 351.386719 273.679688 351.101562 273.679688 C 350.910156 273.679688 350.765625 273.824219 350.765625 274.015625 C 350.765625 274.109375 350.765625 274.160156 351.339844 274.734375 C 354.359375 277.75 356.082031 282.589844 356.082031 288.964844 C 356.082031 294.234375 354.980469 299.601562 351.195312 303.433594 C 350.765625 303.816406 350.765625 303.863281 350.765625 303.960938 C 350.765625 304.152344 350.910156 304.296875 351.101562 304.296875 C 351.386719 304.296875 354.167969 302.1875 355.9375 298.304688 C 357.519531 294.953125 357.855469 291.550781 357.855469 288.964844 Z M 357.855469 288.964844 "/>
<path fill-rule="nonzero" fill="rgb(50.196078%, 50.196078%, 50.196078%)" fill-opacity="1" d="M 39.476562 114.125 C 39.332031 113.789062 39.191406 113.546875 38.804688 113.546875 C 38.472656 113.546875 38.183594 113.789062 38.183594 114.171875 C 38.183594 114.316406 38.328125 114.601562 38.375 114.699219 L 46.375 131.609375 C 46.617188 132.136719 46.808594 132.234375 47.046875 132.234375 C 47.335938 132.234375 47.527344 132.042969 47.71875 131.609375 L 55.671875 114.699219 C 55.910156 114.316406 55.910156 114.265625 55.910156 114.171875 C 55.910156 113.835938 55.625 113.546875 55.289062 113.546875 C 55 113.546875 54.808594 113.691406 54.570312 114.21875 L 47.046875 130.175781 Z M 61.804688 114.648438 C 61.804688 114.125 61.804688 113.546875 61.230469 113.546875 C 60.605469 113.546875 60.605469 114.21875 60.605469 114.648438 L 60.605469 131.132812 C 60.605469 131.609375 60.605469 132.234375 61.230469 132.234375 C 61.804688 132.234375 61.804688 131.707031 61.804688 131.179688 Z M 61.804688 114.648438 "/>
<path fill-rule="nonzero" fill="rgb(100%, 12.941176%, 32.156863%)" fill-opacity="1" stroke-width="0.3985" stroke-linecap="butt" stroke-linejoin="miter" stroke="rgb(100%, 12.941176%, 32.156863%)" stroke-opacity="1" stroke-miterlimit="10" d="M 79.948842 93.547741 C 79.948842 94.64584 79.054567 95.540115 77.957742 95.540115 C 76.855822 95.540115 75.965368 94.64584 75.965368 93.547741 C 75.965368 92.447094 76.855822 91.555367 77.957742 91.555367 C 79.054567 91.555367 79.948842 92.447094 79.948842 93.547741 Z M 79.948842 93.547741 " transform="matrix(3.066379, 0, 0, -3.066379, 2.143399, 384.606763)"/>
</svg>
