<?xml version="1.0" encoding="UTF-8"?>
<svg xmlns="http://www.w3.org/2000/svg" xmlns:xlink="http://www.w3.org/1999/xlink" width="400" height="302.860766" viewBox="0 0 400 302.860766">
<path fill-rule="nonzero" fill="rgb(6.666667%, 52.941176%, 87.058824%)" fill-opacity="1" d="M 33.683594 288.679688 C 31.621094 288.511719 31.453125 288.175781 30.953125 285.613281 L 27.609375 265.5 L 26.71875 265.5 L 16.410156 283.273438 C 13.570312 288.007812 13.234375 288.398438 11.785156 288.679688 L 11.785156 289.234375 L 18.472656 289.234375 L 18.472656 288.679688 C 16.632812 288.511719 16.355469 288.289062 16.355469 287.398438 C 16.355469 286.726562 16.46875 286.449219 17.078125 285.222656 L 19.085938 281.210938 L 26.941406 281.210938 L 27.609375 285.835938 C 27.667969 286.171875 27.722656 286.503906 27.722656 286.785156 C 27.722656 288.121094 27.21875 288.457031 24.9375 288.679688 L 24.9375 289.234375 L 33.683594 289.234375 Z M 19.867188 279.929688 L 25.160156 270.679688 L 26.71875 279.929688 Z M 19.867188 279.929688 "/>
<path fill-rule="nonzero" fill="rgb(6.666667%, 52.941176%, 87.058824%)" fill-opacity="1" d="M 385.078125 20.949219 L 386.414062 13.871094 L 385.632812 13.871094 C 385.355469 14.484375 385.019531 14.652344 384.296875 14.652344 C 384.019531 14.652344 383.570312 14.597656 382.847656 14.429688 C 381.230469 14.039062 379.839844 13.816406 378.667969 13.816406 C 371.089844 13.816406 364.238281 20.949219 364.238281 28.859375 C 364.238281 34.320312 368.082031 38.109375 373.542969 38.109375 C 377.164062 38.109375 380.007812 36.546875 383.238281 32.816406 L 382.625 32.3125 C 379.449219 35.488281 377.386719 36.546875 374.433594 36.546875 C 370.480469 36.546875 368.25 33.816406 368.25 29.25 C 368.25 25.015625 369.921875 20.726562 372.707031 17.828125 C 374.433594 16.101562 376.664062 15.097656 379.003906 15.097656 C 382.289062 15.097656 384.074219 17.046875 384.40625 20.835938 Z M 385.078125 20.949219 "/>
<path fill-rule="nonzero" fill="rgb(6.666667%, 52.941176%, 87.058824%)" fill-opacity="1" d="M 363.398438 288.417969 L 373.429688 288.417969 C 379 288.417969 382.84375 285.523438 382.84375 281.285156 C 382.84375 280.003906 382.398438 278.722656 381.617188 277.945312 C 380.894531 277.164062 380.226562 276.71875 378.332031 275.9375 C 380.894531 275.324219 381.898438 274.933594 383.066406 273.933594 C 384.070312 273.039062 384.570312 271.871094 384.570312 270.421875 C 384.570312 267.078125 382.0625 265.183594 377.496094 265.183594 L 368.300781 265.183594 L 368.300781 265.796875 C 370.476562 265.964844 371.03125 266.242188 371.03125 267.246094 C 371.03125 267.746094 370.921875 268.640625 370.640625 269.53125 L 366.296875 285.242188 C 365.628906 287.304688 365.40625 287.472656 363.398438 287.863281 Z M 372.148438 276.664062 C 374.429688 276.664062 375.933594 276.773438 376.660156 277.050781 C 378.109375 277.664062 379 279.226562 379 281.175781 C 379 285.019531 376.382812 287.359375 372.035156 287.359375 C 370.53125 287.359375 369.75 286.804688 369.75 285.855469 C 369.75 285.410156 370.195312 283.738281 370.976562 280.898438 C 371.476562 279.28125 371.699219 278.445312 372.148438 276.664062 Z M 374.820312 267.246094 C 375.042969 266.464844 375.433594 266.300781 376.828125 266.300781 C 379.667969 266.300781 381.003906 267.46875 381.003906 270.085938 C 381.003906 272.148438 380.113281 273.710938 378.609375 274.546875 C 377.382812 275.269531 375.710938 275.492188 372.480469 275.492188 Z M 374.820312 267.246094 "/>
<path fill="none" stroke-width="0.79701" stroke-linecap="butt" stroke-linejoin="miter" stroke="rgb(6.666667%, 52.941176%, 87.058824%)" stroke-opacity="1" stroke-miterlimit="10" d="M -0.00129452 -0.000931473 L 85.042049 56.693536 L 85.042049 -0.000931473 L -0.00129452 -0.000931473 " transform="matrix(3.565921, 0, 0, -3.565921, 47.879616, 252.813085)"/>
<path fill="none" stroke-width="0.3985" stroke-linecap="butt" stroke-linejoin="miter" stroke="rgb(100%, 12.941176%, 32.156863%)" stroke-opacity="1" stroke-miterlimit="10" d="M 28.346487 -0.000931473 C 28.346487 5.596764 26.690182 11.068484 23.584612 15.725197 " transform="matrix(3.565921, 0, 0, -3.565921, 47.879616, 252.813085)"/>
<path fill-rule="nonzero" fill="rgb(100%, 12.941176%, 32.156863%)" fill-opacity="1" d="M 113.855469 225.929688 L 110.679688 232.058594 C 110.457031 227.765625 108.675781 225.484375 105.445312 225.484375 C 103.773438 225.484375 101.933594 226.152344 100.429688 227.265625 C 98.144531 228.9375 96.75 231.5 96.140625 235.011719 C 95.191406 240.695312 97.421875 244.148438 102.046875 244.148438 C 105.164062 244.148438 107.726562 242.585938 109.734375 239.410156 C 109.789062 240.082031 109.957031 240.695312 110.179688 241.585938 C 110.792969 243.589844 111.292969 244.148438 112.464844 244.148438 C 113.632812 244.148438 114.527344 243.421875 115.25 241.917969 C 115.640625 241.082031 115.863281 240.304688 116.253906 238.351562 L 115.304688 238.351562 C 114.972656 240.136719 114.078125 241.472656 113.1875 241.472656 C 112.019531 241.472656 111.128906 239.578125 111.128906 237.128906 L 117.03125 225.929688 Z M 109.121094 235.121094 L 107.894531 237.460938 C 106.058594 241.082031 104.328125 242.8125 102.546875 242.8125 C 101.433594 242.8125 100.484375 242.085938 100.039062 241.082031 C 99.539062 239.636719 99.480469 237.351562 99.929688 234.789062 C 100.375 232.28125 101.210938 230.105469 102.378906 228.546875 C 103.214844 227.488281 104.105469 226.988281 105.164062 226.988281 C 107.726562 226.988281 109.007812 229.046875 109.066406 233.058594 Z M 109.121094 235.121094 "/>
<path fill="none" stroke-width="0.3985" stroke-linecap="butt" stroke-linejoin="miter" stroke="rgb(6.666667%, 52.941176%, 87.058824%)" stroke-opacity="1" stroke-miterlimit="10" d="M 70.865968 -0.000931473 L 70.865968 14.174055 L 85.042049 14.174055 " transform="matrix(3.565921, 0, 0, -3.565921, 47.879616, 252.813085)"/>
<path fill-rule="nonzero" fill="rgb(6.666667%, 52.941176%, 87.058824%)" fill-opacity="1" d="M 69.511719 46.4375 L 65.890625 46.4375 L 65.890625 42.316406 C 65.890625 41.980469 65.890625 41.867188 65.667969 41.867188 C 65.390625 42.148438 65.167969 42.480469 64.945312 42.816406 C 63.609375 44.820312 62.046875 46.492188 61.492188 46.660156 C 61.101562 46.882812 60.878906 47.160156 60.878906 47.328125 C 60.878906 47.441406 60.933594 47.496094 61.042969 47.550781 L 62.9375 47.550781 L 62.9375 58.25 C 62.9375 61.257812 63.996094 62.761719 66.058594 62.761719 C 67.84375 62.761719 69.179688 61.925781 70.347656 60.089844 L 69.902344 59.699219 C 69.125 60.589844 68.511719 60.925781 67.730469 60.925781 C 66.449219 60.925781 65.890625 59.976562 65.890625 57.75 L 65.890625 47.550781 L 69.511719 47.550781 Z M 69.511719 46.4375 "/>
<path fill-rule="nonzero" fill="rgb(6.666667%, 52.941176%, 87.058824%)" fill-opacity="1" d="M 87.023438 48.609375 L 87.023438 47.273438 L 84.292969 47.273438 C 83.570312 47.273438 83.011719 47.160156 82.34375 46.882812 L 81.5625 46.605469 C 80.558594 46.269531 79.613281 46.101562 78.722656 46.101562 C 75.378906 46.101562 72.757812 48.609375 72.757812 51.898438 C 72.757812 54.125 73.707031 55.464844 76.046875 56.632812 C 75.378906 57.246094 74.765625 57.859375 74.542969 58.082031 C 73.371094 59.085938 72.925781 59.808594 72.925781 60.535156 C 72.925781 61.257812 73.316406 61.703125 74.765625 62.371094 C 72.257812 64.265625 71.3125 65.4375 71.3125 66.71875 C 71.3125 68.613281 74.097656 70.171875 77.441406 70.171875 C 80.113281 70.171875 82.898438 69.226562 84.738281 67.777344 C 86.074219 66.664062 86.6875 65.546875 86.6875 64.15625 C 86.6875 61.984375 85.015625 60.476562 82.398438 60.367188 L 77.828125 60.144531 C 75.933594 60.089844 75.042969 59.753906 75.042969 59.195312 C 75.042969 58.472656 76.214844 57.246094 77.160156 56.96875 C 77.496094 56.96875 77.71875 57.023438 77.828125 57.023438 C 78.5 57.078125 79 57.136719 79.222656 57.136719 C 80.503906 57.136719 81.953125 56.578125 83.011719 55.632812 C 84.179688 54.628906 84.738281 53.402344 84.738281 51.621094 C 84.738281 50.617188 84.570312 49.78125 84.070312 48.609375 Z M 75.546875 62.484375 C 76.714844 62.761719 79.558594 62.984375 81.285156 62.984375 C 84.515625 62.984375 85.6875 63.429688 85.6875 64.714844 C 85.6875 66.773438 83.011719 68.167969 79 68.167969 C 75.878906 68.167969 73.816406 67.109375 73.816406 65.546875 C 73.816406 64.714844 74.039062 64.265625 75.546875 62.484375 Z M 75.710938 50.394531 C 75.710938 48.332031 76.714844 47.050781 78.332031 47.050781 C 79.445312 47.050781 80.394531 47.664062 80.949219 48.722656 C 81.5625 50.003906 82.007812 51.621094 82.007812 53.011719 C 82.007812 55.019531 80.949219 56.242188 79.335938 56.242188 C 77.21875 56.242188 75.710938 53.960938 75.710938 50.503906 Z M 75.710938 50.394531 "/>
<path fill-rule="nonzero" fill="rgb(6.666667%, 52.941176%, 87.058824%)" fill-opacity="1" d="M 99.828125 70.953125 C 99.828125 70.84375 99.828125 70.785156 99.214844 70.171875 C 94.8125 65.714844 93.644531 58.972656 93.644531 53.515625 C 93.644531 47.328125 94.980469 41.144531 99.382812 36.742188 C 99.828125 36.296875 99.828125 36.242188 99.828125 36.128906 C 99.828125 35.851562 99.714844 35.738281 99.492188 35.738281 C 99.101562 35.738281 95.925781 38.191406 93.808594 42.703125 C 92.027344 46.605469 91.582031 50.5625 91.582031 53.515625 C 91.582031 56.300781 91.972656 60.589844 93.921875 64.65625 C 96.09375 69.003906 99.101562 71.34375 99.492188 71.34375 C 99.714844 71.34375 99.828125 71.230469 99.828125 70.953125 Z M 99.828125 70.953125 "/>
<path fill-rule="nonzero" fill="rgb(6.666667%, 52.941176%, 87.058824%)" fill-opacity="1" d="M 122.46875 44.65625 L 119.292969 50.785156 C 119.070312 46.492188 117.289062 44.207031 114.054688 44.207031 C 112.382812 44.207031 110.546875 44.878906 109.039062 45.992188 C 106.757812 47.664062 105.363281 50.226562 104.75 53.738281 C 103.804688 59.417969 106.03125 62.875 110.65625 62.875 C 113.777344 62.875 116.339844 61.3125 118.347656 58.136719 C 118.402344 58.808594 118.570312 59.417969 118.792969 60.3125 C 119.40625 62.316406 119.90625 62.875 121.074219 62.875 C 122.246094 62.875 123.136719 62.148438 123.863281 60.644531 C 124.25 59.808594 124.476562 59.03125 124.863281 57.078125 L 123.917969 57.078125 C 123.582031 58.863281 122.691406 60.199219 121.800781 60.199219 C 120.628906 60.199219 119.738281 58.304688 119.738281 55.855469 L 125.644531 44.65625 Z M 117.734375 53.847656 L 116.507812 56.1875 C 114.667969 59.808594 112.941406 61.535156 111.160156 61.535156 C 110.042969 61.535156 109.097656 60.8125 108.652344 59.808594 C 108.148438 58.359375 108.09375 56.078125 108.539062 53.515625 C 108.984375 51.007812 109.820312 48.832031 110.992188 47.273438 C 111.828125 46.214844 112.71875 45.714844 113.777344 45.714844 C 116.339844 45.714844 117.621094 47.773438 117.675781 51.785156 Z M 117.734375 53.847656 "/>
<path fill-rule="nonzero" fill="rgb(6.666667%, 52.941176%, 87.058824%)" fill-opacity="1" d="M 137.472656 53.515625 C 137.472656 50.785156 137.082031 46.492188 135.132812 42.425781 C 133.015625 38.078125 129.953125 35.738281 129.617188 35.738281 C 129.394531 35.738281 129.226562 35.90625 129.226562 36.128906 C 129.226562 36.242188 129.226562 36.296875 129.894531 36.964844 C 133.40625 40.476562 135.410156 46.101562 135.410156 53.515625 C 135.410156 59.644531 134.128906 65.882812 129.730469 70.339844 C 129.226562 70.785156 129.226562 70.84375 129.226562 70.953125 C 129.226562 71.175781 129.394531 71.34375 129.617188 71.34375 C 129.953125 71.34375 133.183594 68.890625 135.246094 64.378906 C 137.082031 60.476562 137.472656 56.523438 137.472656 53.515625 Z M 137.472656 53.515625 "/>
<path fill-rule="nonzero" fill="rgb(6.666667%, 52.941176%, 87.058824%)" fill-opacity="1" d="M 173.292969 50.785156 C 173.851562 50.785156 174.519531 50.785156 174.519531 50.113281 C 174.519531 49.390625 173.851562 49.390625 173.347656 49.390625 L 152.066406 49.390625 C 151.5625 49.390625 150.894531 49.390625 150.894531 50.113281 C 150.894531 50.785156 151.5625 50.785156 152.066406 50.785156 Z M 173.347656 57.691406 C 173.851562 57.691406 174.519531 57.691406 174.519531 56.96875 C 174.519531 56.300781 173.851562 56.300781 173.292969 56.300781 L 152.066406 56.300781 C 151.5625 56.300781 150.894531 56.300781 150.894531 56.96875 C 150.894531 57.691406 151.5625 57.691406 152.066406 57.691406 Z M 173.347656 57.691406 "/>
<path fill-rule="nonzero" fill="rgb(6.666667%, 52.941176%, 87.058824%)" fill-opacity="1" d="M 188.378906 38.375 L 198.410156 38.375 C 203.980469 38.375 207.824219 35.480469 207.824219 31.246094 C 207.824219 29.964844 207.378906 28.679688 206.601562 27.902344 C 205.875 27.121094 205.207031 26.675781 203.3125 25.894531 C 205.875 25.28125 206.878906 24.894531 208.046875 23.890625 C 209.050781 23 209.550781 21.828125 209.550781 20.378906 C 209.550781 17.035156 207.046875 15.140625 202.476562 15.140625 L 193.28125 15.140625 L 193.28125 15.753906 C 195.457031 15.921875 196.011719 16.199219 196.011719 17.203125 C 196.011719 17.707031 195.902344 18.597656 195.625 19.488281 L 191.277344 35.199219 C 190.609375 37.261719 190.386719 37.429688 188.378906 37.820312 Z M 197.128906 26.621094 C 199.410156 26.621094 200.917969 26.730469 201.640625 27.011719 C 203.089844 27.621094 203.980469 29.183594 203.980469 31.132812 C 203.980469 34.976562 201.363281 37.316406 197.015625 37.316406 C 195.511719 37.316406 194.730469 36.761719 194.730469 35.8125 C 194.730469 35.367188 195.175781 33.695312 195.957031 30.855469 C 196.460938 29.238281 196.683594 28.402344 197.128906 26.621094 Z M 199.800781 17.203125 C 200.023438 16.421875 200.414062 16.257812 201.808594 16.257812 C 204.648438 16.257812 205.988281 17.425781 205.988281 20.046875 C 205.988281 22.105469 205.09375 23.667969 203.589844 24.503906 C 202.363281 25.226562 200.695312 25.449219 197.460938 25.449219 Z M 199.800781 17.203125 "/>
<path fill-rule="nonzero" fill="rgb(6.666667%, 52.941176%, 87.058824%)" fill-opacity="1" d="M 231.765625 21.828125 L 233.105469 14.753906 L 232.324219 14.753906 C 232.046875 15.363281 231.710938 15.53125 230.988281 15.53125 C 230.707031 15.53125 230.261719 15.476562 229.539062 15.308594 C 227.921875 14.917969 226.53125 14.695312 225.359375 14.695312 C 217.78125 14.695312 210.929688 21.828125 210.929688 29.738281 C 210.929688 35.199219 214.773438 38.988281 220.234375 38.988281 C 223.855469 38.988281 226.695312 37.429688 229.929688 33.695312 L 229.316406 33.195312 C 226.140625 36.371094 224.078125 37.429688 221.125 37.429688 C 217.167969 37.429688 214.941406 34.699219 214.941406 30.128906 C 214.941406 25.894531 216.613281 21.605469 219.398438 18.707031 C 221.125 16.980469 223.355469 15.976562 225.695312 15.976562 C 228.980469 15.976562 230.765625 17.929688 231.097656 21.71875 Z M 231.765625 21.828125 "/>
<path fill="none" stroke-width="0.398" stroke-linecap="butt" stroke-linejoin="miter" stroke="rgb(6.666667%, 52.941176%, 87.058824%)" stroke-opacity="1" stroke-miterlimit="10" d="M 0.000439397 0.000811676 L 12.453395 0.000811676 " transform="matrix(3.565921, 0, 0, -3.565921, 188.658589, 53.545863)"/>
<path fill-rule="nonzero" fill="rgb(6.666667%, 52.941176%, 87.058824%)" fill-opacity="1" d="M 209.214844 86.242188 C 207.15625 86.074219 206.988281 85.738281 206.484375 83.175781 L 203.144531 63.0625 L 202.25 63.0625 L 191.945312 80.835938 C 189.101562 85.574219 188.769531 85.960938 187.320312 86.242188 L 187.320312 86.796875 L 194.003906 86.796875 L 194.003906 86.242188 C 192.167969 86.074219 191.886719 85.851562 191.886719 84.960938 C 191.886719 84.289062 192 84.011719 192.613281 82.785156 L 194.617188 78.773438 L 202.472656 78.773438 L 203.144531 83.398438 C 203.199219 83.734375 203.253906 84.066406 203.253906 84.347656 C 203.253906 85.683594 202.753906 86.019531 200.46875 86.242188 L 200.46875 86.796875 L 209.214844 86.796875 Z M 195.398438 77.492188 L 200.691406 68.246094 L 202.25 77.492188 Z M 195.398438 77.492188 "/>
<path fill-rule="nonzero" fill="rgb(6.666667%, 52.941176%, 87.058824%)" fill-opacity="1" d="M 210.585938 86.796875 L 220.613281 86.796875 C 226.1875 86.796875 230.03125 83.902344 230.03125 79.667969 C 230.03125 78.382812 229.585938 77.101562 228.804688 76.324219 C 228.082031 75.542969 227.414062 75.097656 225.519531 74.316406 C 228.082031 73.703125 229.082031 73.3125 230.253906 72.3125 C 231.257812 71.421875 231.757812 70.25 231.757812 68.800781 C 231.757812 65.457031 229.25 63.5625 224.683594 63.5625 L 215.488281 63.5625 L 215.488281 64.175781 C 217.660156 64.34375 218.21875 64.621094 218.21875 65.625 C 218.21875 66.125 218.105469 67.019531 217.828125 67.910156 L 213.484375 83.621094 C 212.8125 85.683594 212.589844 85.851562 210.585938 86.242188 Z M 219.332031 75.042969 C 221.617188 75.042969 223.121094 75.152344 223.847656 75.433594 C 225.296875 76.042969 226.1875 77.605469 226.1875 79.554688 C 226.1875 83.398438 223.566406 85.738281 219.222656 85.738281 C 217.71875 85.738281 216.9375 85.183594 216.9375 84.234375 C 216.9375 83.789062 217.382812 82.117188 218.164062 79.277344 C 218.664062 77.660156 218.886719 76.824219 219.332031 75.042969 Z M 222.007812 65.625 C 222.230469 64.84375 222.621094 64.679688 224.011719 64.679688 C 226.855469 64.679688 228.191406 65.847656 228.191406 68.46875 C 228.191406 70.527344 227.300781 72.089844 225.796875 72.925781 C 224.570312 73.648438 222.898438 73.871094 219.667969 73.871094 Z M 222.007812 65.625 "/>
</svg>
