<?xml version="1.0" encoding="UTF-8"?>
<svg xmlns="http://www.w3.org/2000/svg" xmlns:xlink="http://www.w3.org/1999/xlink" width="273.864014" height="124.20385" viewBox="0 0 273.864014 124.20385">
<defs>
<clipPath id="clip-0">
<path clip-rule="nonzero" d="M 0 0 L 273.863281 0 L 273.863281 124 L 0 124 Z M 0 0 "/>
</clipPath>
<clipPath id="clip-1">
<path clip-rule="nonzero" d="M 0 0 L 273.863281 0 L 273.863281 124.203125 L 0 124.203125 Z M 0 0 "/>
</clipPath>
<clipPath id="clip-2">
<path clip-rule="nonzero" d="M 215 81 L 270 81 L 270 124.203125 L 215 124.203125 Z M 215 81 "/>
</clipPath>
</defs>
<g clip-path="url(#clip-0)">
<path fill-rule="evenodd" fill="rgb(100%, 100%, 100%)" fill-opacity="1" d="M 0.617188 40.742188 L 129.476562 3.398438 C 141.464844 -0.199219 175.285156 -1.652344 194.726562 7.496094 C 217.253906 18.097656 236.277344 34.414062 247.984375 51.386719 C 259.6875 68.359375 272.269531 91.765625 273.148438 98.789062 C 274.023438 105.8125 269.179688 117.460938 258.808594 120.734375 C 247.691406 124.246094 222.542969 125.289062 181.851562 119.273438 C 156.007812 115.453125 0.726562 57.824219 0.726562 57.824219 Z M 0.617188 40.742188 "/>
</g>
<g clip-path="url(#clip-1)">
<path fill="none" stroke-width="1.228962" stroke-linecap="butt" stroke-linejoin="miter" stroke="rgb(0%, 0%, 0%)" stroke-opacity="1" stroke-miterlimit="4" d="M 0.617188 40.742188 L 129.476562 3.398438 C 141.464844 -0.199219 175.285156 -1.652344 194.726562 7.496094 C 217.253906 18.097656 236.277344 34.414062 247.984375 51.386719 C 259.6875 68.359375 272.269531 91.765625 273.148438 98.789062 C 274.023438 105.8125 269.179688 117.460938 258.808594 120.734375 C 247.691406 124.246094 222.542969 125.289062 181.851562 119.273438 C 156.007812 115.453125 0.726562 57.824219 0.726562 57.824219 Z M 0.617188 40.742188 "/>
</g>
<path fill-rule="evenodd" fill="rgb(0%, 0%, 0%)" fill-opacity="1" d="M 129.25 33.214844 C 145.316406 33.417969 169.683594 48.640625 188.328125 65.691406 C 189.179688 66.46875 188.925781 67.191406 187.574219 66.921875 C 180.460938 65.488281 160.765625 62.457031 152.152344 61.914062 C 139.347656 61.109375 112.097656 59.167969 84.199219 57.128906 L 84.199219 37.578125 C 105.011719 35.332031 122.878906 33.480469 127.726562 33.238281 C 128.226562 33.214844 128.730469 33.207031 129.25 33.214844 Z M 78.566406 35.875 C 80.027344 35.875 81.191406 39.949219 81.191406 45.015625 L 81.191406 49.5625 C 81.191406 54.628906 80.027344 58.703125 78.566406 58.703125 C 77.109375 58.703125 75.929688 54.628906 75.929688 49.5625 L 75.929688 45.015625 C 75.929688 39.949219 77.109375 35.875 78.566406 35.875 Z M 73.664062 38.730469 L 73.664062 56.347656 C 52.0625 54.761719 33.589844 53.398438 19.757812 52.363281 L 19.757812 44.722656 C 34.066406 43.113281 52.980469 40.988281 73.664062 38.730469 Z M 18.269531 44.890625 L 18.269531 52.25 C 15.398438 52.035156 14.882812 52.003906 12.546875 51.828125 L 12.546875 45.542969 C 14.894531 45.277344 15.503906 45.199219 18.269531 44.890625 Z M 9.757812 45.847656 L 9.757812 51.609375 C 5.761719 51.308594 0.875 50.945312 0.875 50.945312 L 0.875 46.847656 C 0.875 46.847656 5.75 46.300781 9.757812 45.847656 Z M 9.757812 45.847656 "/>
<path fill-rule="nonzero" fill="rgb(100%, 0%, 0%)" fill-opacity="1" d="M 1.304688 52.804688 C 2.417969 52.824219 3.296875 52.925781 3.613281 52.941406 C 4.757812 52.996094 5.808594 53.535156 6.058594 53.785156 C 6.566406 54.292969 6.175781 54.480469 3.996094 54.40625 C 3.164062 54.378906 1.871094 54.0625 1.300781 54.03125 C 1.316406 53.390625 1.304688 53.441406 1.304688 52.804688 Z M 7.605469 53.621094 C 11.203125 53.75 14.742188 54.121094 18.269531 54.554688 L 18.269531 56.628906 C 15.277344 56.085938 12 55.5 9.257812 55.117188 C 7.605469 54.746094 6.710938 53.578125 7.605469 53.621094 Z M 19.757812 54.746094 C 22.726562 55.121094 25.695312 55.527344 28.679688 55.847656 C 30.257812 56.054688 35.3125 56.695312 39.917969 57.28125 C 48.140625 58.324219 49.203125 58.636719 48.738281 59.90625 C 48.628906 60.207031 48.546875 60.746094 48.546875 61.097656 C 48.546875 61.898438 47.671875 61.796875 35.847656 59.585938 C 31.003906 58.679688 28.945312 58.359375 25.847656 57.933594 C 24.527344 57.753906 22.261719 57.339844 19.757812 56.882812 Z M 52.335938 59.125 C 54.625 59.128906 64.230469 60.113281 80.089844 61.992188 C 82.003906 62.21875 91.5 63.332031 101.1875 64.460938 C 110.875 65.59375 121.660156 66.886719 125.152344 67.34375 C 128.644531 67.800781 136.019531 68.730469 141.539062 69.417969 C 160.230469 71.734375 199.347656 76.949219 201.15625 77.367188 C 201.875 77.53125 207.851562 84.324219 208.234375 85.40625 C 208.308594 85.617188 207.761719 85.789062 207.007812 85.789062 C 205.578125 85.789062 173.46875 82.039062 159.5625 80.246094 C 155.167969 79.679688 149.640625 79.035156 147.273438 78.800781 C 140.84375 78.167969 137.824219 77.738281 131.5 76.585938 C 128.347656 76.011719 122.539062 74.992188 118.597656 74.320312 C 96.417969 70.535156 53.953125 63.003906 52.578125 62.605469 C 51.902344 62.410156 51.347656 59.925781 51.8125 59.175781 C 51.835938 59.136719 52.007812 59.125 52.335938 59.125 Z M 52.335938 59.125 "/>
<path fill-rule="evenodd" fill="rgb(0%, 0%, 0%)" fill-opacity="1" d="M 162.246094 16.710938 C 165.597656 19.441406 196.921875 47.875 203.214844 50.800781 C 209.503906 53.726562 227.792969 58.117188 237.15625 57.53125 C 246.519531 56.945312 249.300781 56.007812 250.175781 54.691406 C 235.226562 31.855469 213.507812 16.921875 195.898438 8.0625 C 183.460938 5.722656 167.195312 7.605469 164.441406 9.542969 C 160.492188 12.324219 159.960938 14.851562 162.246094 16.710938 Z M 162.246094 16.710938 "/>
<path fill-rule="evenodd" fill="rgb(66.665649%, 79.998779%, 100%)" fill-opacity="1" stroke-width="0.409654" stroke-linecap="butt" stroke-linejoin="miter" stroke="rgb(0%, 0%, 0%)" stroke-opacity="1" stroke-miterlimit="4" d="M 224.058594 85.71875 L 210.917969 68.753906 C 218.707031 69.09375 227.023438 70.347656 229.4375 72.683594 C 231.90625 75.078125 237.507812 83.238281 237.507812 83.238281 Z M 224.058594 85.71875 "/>
<path fill-rule="evenodd" fill="rgb(66.665649%, 79.998779%, 100%)" fill-opacity="1" stroke-width="0.409654" stroke-linecap="butt" stroke-linejoin="miter" stroke="rgb(0%, 0%, 0%)" stroke-opacity="1" stroke-miterlimit="4" d="M 265.128906 80.03125 L 264.300781 80.238281 C 264.300781 80.238281 260.769531 74.054688 260.265625 72.683594 C 259.949219 71.828125 260.164062 71.132812 260.164062 71.132812 Z M 265.128906 80.03125 "/>
<path fill="none" stroke-width="0.819308" stroke-linecap="butt" stroke-linejoin="miter" stroke="rgb(100%, 0%, 0%)" stroke-opacity="1" stroke-miterlimit="4" d="M 248.058594 77.132812 C 247.773438 77.988281 251.058594 84.53125 251.785156 84.996094 C 252.4375 85.414062 259.121094 84.347656 259.644531 83.546875 C 260.136719 82.796875 256.429688 76.148438 255.816406 75.789062 C 255.257812 75.457031 248.335938 76.304688 248.058594 77.132812 Z M 248.058594 77.132812 "/>
<g clip-path="url(#clip-2)">
<path fill="none" stroke-width="0.409654" stroke-linecap="butt" stroke-linejoin="miter" stroke="rgb(0%, 0%, 0%)" stroke-opacity="1" stroke-miterlimit="4" d="M 267.40625 84.167969 C 267.40625 84.167969 239.167969 88.128906 231.609375 89.238281 C 223.851562 90.375 220.242188 93.660156 219.09375 97.410156 C 217.910156 101.253906 217.125 116.964844 221.78125 123.171875 "/>
</g>
<path fill="none" stroke-width="0.409654" stroke-linecap="butt" stroke-linejoin="miter" stroke="rgb(0%, 0%, 0%)" stroke-opacity="1" stroke-miterlimit="4" d="M 24.339844 33.839844 C 22.339844 34.949219 19.152344 38.519531 19.117188 43.769531 L 19.011719 58.511719 C 18.996094 61.164062 19.226562 63.222656 20.011719 64.882812 "/>
<path fill-rule="evenodd" fill="rgb(0%, 0%, 0%)" fill-opacity="1" d="M 11.089844 45.480469 C 11.519531 45.480469 11.859375 46.671875 11.859375 48.148438 L 11.859375 49.476562 C 11.859375 50.957031 11.519531 52.148438 11.089844 52.148438 C 10.664062 52.148438 10.320312 50.957031 10.320312 49.476562 L 10.320312 48.148438 C 10.320312 46.671875 10.664062 45.480469 11.089844 45.480469 Z M 11.089844 45.480469 "/>
<path fill-rule="evenodd" fill="rgb(0%, 0%, 0%)" fill-opacity="1" d="M 12.253906 59.945312 L 17.59375 61.59375 L 17.4375 63.859375 L 12.28125 62.03125 Z M 21.535156 62.761719 L 27.757812 64.550781 L 27.617188 67.664062 L 21.394531 65.398438 Z M 89.027344 82.691406 C 106.949219 87.894531 125.3125 92.222656 143.816406 96.453125 C 145.863281 97.148438 155.492188 108.851562 157.644531 112.6875 C 132.917969 105.003906 89.382812 89.71875 89.382812 89.71875 Z M 89.027344 82.691406 "/>
<path fill="none" stroke-width="0.409654" stroke-linecap="butt" stroke-linejoin="miter" stroke="rgb(0%, 0%, 0%)" stroke-opacity="1" stroke-miterlimit="4" d="M 218.472656 109.410156 C 185.574219 106.722656 119.15625 91.617188 84.808594 81.480469 C 50.464844 71.339844 0.597656 56.441406 0.597656 56.441406 "/>
</svg>
