<?xml version="1.0" encoding="UTF-8"?>
<svg xmlns="http://www.w3.org/2000/svg" xmlns:xlink="http://www.w3.org/1999/xlink" width="400" height="283.407523" viewBox="0 0 400 283.407523">
<defs>
<clipPath id="clip-0">
<path clip-rule="nonzero" d="M 0 28 L 177 28 L 177 283.40625 L 0 283.40625 Z M 0 28 "/>
</clipPath>
<clipPath id="clip-1">
<path clip-rule="nonzero" d="M 223.570312 28 L 400 28 L 400 283.40625 L 223.570312 283.40625 Z M 223.570312 28 "/>
</clipPath>
</defs>
<path fill-rule="nonzero" fill="rgb(80%, 80%, 100%)" fill-opacity="1" d="M 160.386719 162.625 C 160.386719 96.992188 124.917969 43.796875 81.164062 43.796875 C 37.421875 43.796875 1.953125 96.992188 1.953125 162.625 C 1.953125 228.253906 37.421875 281.449219 81.164062 281.449219 C 124.917969 281.449219 160.386719 228.253906 160.386719 162.625 Z M 160.386719 162.625 "/>
<g clip-path="url(#clip-0)">
<path fill="none" stroke-width="0.3985" stroke-linecap="butt" stroke-linejoin="miter" stroke="rgb(40%, 40%, 100%)" stroke-opacity="1" stroke-miterlimit="10" d="M -14.174225 0.000305495 C -14.174225 23.48553 -26.865919 42.520275 -42.52227 42.520275 C -58.174427 42.520275 -70.866121 23.48553 -70.866121 0.000305495 C -70.866121 -23.483521 -58.174427 -42.518267 -42.52227 -42.518267 C -26.865919 -42.518267 -14.174225 -23.483521 -14.174225 0.000305495 Z M -14.174225 0.000305495 " transform="matrix(2.794643, 0, 0, -2.794643, 199.998614, 162.625854)"/>
</g>
<path fill-rule="nonzero" fill="rgb(100%, 80%, 80%)" fill-opacity="1" d="M 398.050781 162.625 C 398.050781 96.992188 362.582031 43.796875 318.828125 43.796875 C 275.074219 43.796875 239.609375 96.992188 239.609375 162.625 C 239.609375 228.253906 275.074219 281.449219 318.828125 281.449219 C 362.582031 281.449219 398.050781 228.253906 398.050781 162.625 Z M 398.050781 162.625 "/>
<g clip-path="url(#clip-1)">
<path fill="none" stroke-width="0.3985" stroke-linecap="butt" stroke-linejoin="miter" stroke="rgb(100%, 40%, 40%)" stroke-opacity="1" stroke-miterlimit="10" d="M 70.86851 0.000305495 C 70.86851 23.48553 58.176816 42.520275 42.520466 42.520275 C 26.864115 42.520275 14.173819 23.48553 14.173819 0.000305495 C 14.173819 -23.483521 26.864115 -42.518267 42.520466 -42.518267 C 58.176816 -42.518267 70.86851 -23.483521 70.86851 0.000305495 Z M 70.86851 0.000305495 " transform="matrix(2.794643, 0, 0, -2.794643, 199.998614, 162.625854)"/>
</g>
<path fill-rule="nonzero" fill="rgb(69.803922%, 69.803922%, 69.803922%)" fill-opacity="1" d="M 88.386719 28.953125 C 86.769531 28.820312 86.640625 28.558594 86.246094 26.550781 L 83.625 10.785156 L 82.929688 10.785156 L 74.851562 24.714844 C 72.621094 28.429688 72.359375 28.734375 71.226562 28.953125 L 71.226562 29.386719 L 76.464844 29.386719 L 76.464844 28.953125 C 75.023438 28.820312 74.804688 28.644531 74.804688 27.949219 C 74.804688 27.421875 74.894531 27.207031 75.375 26.246094 L 76.945312 23.101562 L 83.101562 23.101562 L 83.625 26.726562 C 83.671875 26.988281 83.714844 27.25 83.714844 27.46875 C 83.714844 28.515625 83.320312 28.777344 81.53125 28.953125 L 81.53125 29.386719 L 88.386719 29.386719 Z M 77.558594 22.097656 L 81.707031 14.847656 L 82.929688 22.097656 Z M 77.558594 22.097656 "/>
<path fill-rule="nonzero" fill="rgb(69.803922%, 69.803922%, 69.803922%)" fill-opacity="1" d="M 310.101562 29.066406 L 317.960938 29.066406 C 322.328125 29.066406 325.339844 26.796875 325.339844 23.476562 C 325.339844 22.472656 324.992188 21.46875 324.378906 20.859375 C 323.8125 20.246094 323.289062 19.898438 321.804688 19.285156 C 323.8125 18.804688 324.597656 18.5 325.515625 17.714844 C 326.300781 17.015625 326.695312 16.097656 326.695312 14.960938 C 326.695312 12.34375 324.730469 10.859375 321.148438 10.859375 L 313.945312 10.859375 L 313.945312 11.339844 C 315.648438 11.46875 316.082031 11.6875 316.082031 12.472656 C 316.082031 12.867188 315.996094 13.566406 315.777344 14.265625 L 312.371094 26.578125 C 311.847656 28.195312 311.671875 28.324219 310.101562 28.628906 Z M 316.957031 19.851562 C 318.746094 19.851562 319.925781 19.941406 320.496094 20.160156 C 321.628906 20.640625 322.328125 21.863281 322.328125 23.390625 C 322.328125 26.402344 320.277344 28.238281 316.871094 28.238281 C 315.691406 28.238281 315.078125 27.800781 315.078125 27.058594 C 315.078125 26.710938 315.429688 25.398438 316.039062 23.171875 C 316.433594 21.90625 316.609375 21.25 316.957031 19.851562 Z M 319.054688 12.472656 C 319.226562 11.863281 319.535156 11.730469 320.625 11.730469 C 322.851562 11.730469 323.898438 12.648438 323.898438 14.699219 C 323.898438 16.316406 323.203125 17.539062 322.023438 18.195312 C 321.0625 18.761719 319.75 18.9375 317.21875 18.9375 Z M 319.054688 12.472656 "/>
<path fill-rule="nonzero" fill="rgb(0%, 0%, 0%)" fill-opacity="1" d="M 82.332031 81.824219 L 77.3125 84.355469 L 77.3125 84.75 C 77.617188 84.617188 77.921875 84.488281 78.054688 84.441406 C 78.578125 84.226562 79.015625 84.136719 79.320312 84.136719 C 79.886719 84.136719 80.148438 84.53125 80.148438 85.449219 L 80.148438 98.066406 C 80.148438 98.984375 79.933594 99.59375 79.496094 99.859375 C 79.058594 100.121094 78.664062 100.207031 77.488281 100.207031 L 77.488281 100.644531 L 85.171875 100.644531 L 85.171875 100.207031 C 82.988281 100.207031 82.550781 99.902344 82.550781 98.589844 L 82.550781 81.867188 Z M 82.332031 81.824219 "/>
<path fill-rule="nonzero" fill="rgb(0%, 0%, 0%)" fill-opacity="1" d="M 87.441406 144.375 L 87.09375 144.199219 C 86.046875 145.816406 85.695312 146.078125 84.429688 146.078125 L 77.792969 146.078125 L 82.464844 141.144531 C 84.953125 138.566406 86.046875 136.429688 86.046875 134.289062 C 86.046875 131.496094 83.773438 129.355469 80.847656 129.355469 C 79.320312 129.355469 77.878906 129.964844 76.875 131.058594 C 75.957031 132.019531 75.566406 132.890625 75.085938 134.898438 L 75.652344 135.03125 C 76.789062 132.28125 77.792969 131.40625 79.714844 131.40625 C 82.027344 131.40625 83.644531 132.980469 83.644531 135.335938 C 83.644531 137.519531 82.332031 140.097656 80.019531 142.585938 L 75.042969 147.824219 L 75.042969 148.175781 L 85.914062 148.175781 Z M 87.441406 144.375 "/>
<path fill-rule="nonzero" fill="rgb(0%, 0%, 0%)" fill-opacity="1" d="M 78.492188 186.273438 C 80.105469 186.273438 80.761719 186.363281 81.417969 186.582031 C 83.164062 187.234375 84.253906 188.808594 84.253906 190.726562 C 84.253906 193.042969 82.640625 194.875 80.585938 194.875 C 79.84375 194.875 79.277344 194.660156 78.273438 194.003906 C 77.398438 193.523438 76.960938 193.304688 76.480469 193.304688 C 75.828125 193.304688 75.390625 193.699219 75.390625 194.308594 C 75.390625 195.269531 76.613281 195.882812 78.578125 195.882812 C 80.71875 195.882812 82.902344 195.140625 84.210938 194.003906 C 85.519531 192.867188 86.261719 191.253906 86.261719 189.375 C 86.261719 187.976562 85.785156 186.667969 84.996094 185.792969 C 84.429688 185.183594 83.90625 184.832031 82.683594 184.308594 C 84.605469 183 85.304688 181.996094 85.304688 180.46875 C 85.304688 178.195312 83.511719 176.667969 80.9375 176.667969 C 79.539062 176.667969 78.316406 177.148438 77.3125 178.023438 C 76.480469 178.765625 76.089844 179.507812 75.476562 181.164062 L 75.871094 181.296875 C 77.007812 179.246094 78.273438 178.328125 80.019531 178.328125 C 81.851562 178.328125 83.121094 179.550781 83.121094 181.296875 C 83.121094 182.300781 82.683594 183.304688 81.984375 184.003906 C 81.15625 184.832031 80.367188 185.269531 78.492188 185.925781 Z M 78.492188 186.273438 "/>
<path fill-rule="nonzero" fill="rgb(0%, 0%, 0%)" fill-opacity="1" d="M 87.355469 236.816406 L 84.515625 236.816406 L 84.515625 224.414062 L 83.292969 224.414062 L 74.5625 236.816406 L 74.5625 238.5625 L 82.378906 238.5625 L 82.378906 243.234375 L 84.515625 243.234375 L 84.515625 238.5625 L 87.355469 238.5625 Z M 82.332031 236.816406 L 75.652344 236.816406 L 82.332031 227.253906 Z M 82.332031 236.816406 "/>
<path fill-rule="nonzero" fill="rgb(0%, 0%, 0%)" fill-opacity="1" d="M 324.789062 94.167969 C 324.355469 94.5625 324.222656 94.738281 324.003906 94.953125 C 323.175781 95.785156 322.824219 96.089844 322.5625 96.089844 C 322.34375 96.089844 322.171875 95.914062 322.171875 95.742188 C 322.171875 95.171875 323.347656 90.414062 324.660156 85.609375 C 324.746094 85.347656 324.746094 85.261719 324.835938 85.042969 L 324.617188 84.957031 L 322.914062 85.128906 L 322.824219 85.21875 L 322.519531 86.570312 C 322.300781 85.523438 321.515625 84.957031 320.292969 84.957031 C 316.625 84.957031 312.34375 90.019531 312.34375 94.429688 C 312.34375 96.394531 313.394531 97.53125 315.183594 97.53125 C 317.148438 97.53125 318.328125 96.613281 320.773438 93.164062 C 320.207031 95.347656 320.117188 95.699219 320.117188 96.351562 C 320.117188 97.183594 320.46875 97.488281 321.253906 97.488281 C 322.390625 97.488281 323.042969 96.964844 325.140625 94.429688 Z M 320.46875 85.566406 C 321.429688 85.609375 322.039062 86.265625 322.039062 87.269531 C 322.039062 89.585938 320.640625 92.859375 318.722656 94.953125 C 318.066406 95.699219 317.105469 96.175781 316.277344 96.175781 C 315.316406 96.175781 314.660156 95.347656 314.660156 94.082031 C 314.660156 92.554688 315.75 89.714844 316.929688 87.96875 C 318.066406 86.351562 319.375 85.480469 320.46875 85.566406 Z M 320.46875 85.566406 "/>
<path fill-rule="nonzero" fill="rgb(0%, 0%, 0%)" fill-opacity="1" d="M 314.921875 130.390625 C 316.582031 130.433594 316.757812 130.519531 316.757812 131.132812 C 316.757812 131.394531 316.667969 131.699219 316.492188 132.308594 C 316.449219 132.527344 316.363281 132.703125 316.363281 132.878906 L 316.277344 133.050781 L 312.519531 147.027344 L 312.519531 147.113281 C 312.519531 147.769531 314.660156 148.597656 316.230469 148.597656 C 320.425781 148.597656 325.050781 143.707031 325.050781 139.339844 C 325.050781 137.417969 323.699219 136.023438 321.820312 136.023438 C 319.855469 136.023438 318.414062 137.15625 316.449219 140.214844 C 317.890625 134.929688 318.066406 134.1875 319.332031 129.382812 L 319.203125 129.253906 C 317.804688 129.515625 316.800781 129.691406 314.921875 129.910156 Z M 320.730469 137.375 C 321.910156 137.375 322.695312 138.292969 322.695312 139.777344 C 322.695312 141.609375 321.253906 144.582031 319.59375 146.328125 C 318.589844 147.375 317.367188 147.941406 316.1875 147.941406 C 315.316406 147.941406 314.921875 147.636719 314.921875 147.027344 C 314.921875 145.324219 315.75 142.617188 316.886719 140.5625 C 318.152344 138.421875 319.375 137.375 320.730469 137.375 Z M 320.730469 137.375 "/>
<path fill-rule="nonzero" fill="rgb(0%, 0%, 0%)" fill-opacity="1" d="M 322.382812 189.320312 C 320.855469 190.976562 319.761719 191.589844 318.410156 191.589844 C 316.835938 191.589844 315.875 190.410156 315.875 188.402344 C 315.875 186.042969 316.835938 183.554688 318.410156 181.9375 C 319.238281 181.109375 320.332031 180.585938 321.421875 180.585938 C 322.078125 180.585938 322.46875 180.804688 322.46875 181.152344 C 322.46875 181.285156 322.425781 181.414062 322.296875 181.675781 C 322.121094 182.027344 322.078125 182.246094 322.078125 182.464844 C 322.078125 183.160156 322.46875 183.554688 323.167969 183.554688 C 323.910156 183.554688 324.480469 182.988281 324.480469 182.246094 C 324.480469 180.980469 323.210938 180.019531 321.554688 180.019531 C 317.359375 180.019531 313.476562 184.078125 313.476562 188.402344 C 313.476562 191.066406 315.003906 192.59375 317.578125 192.59375 C 319.632812 192.59375 321.160156 191.71875 322.863281 189.625 Z M 322.382812 189.320312 "/>
<path fill-rule="nonzero" fill="rgb(0%, 0%, 0%)" fill-opacity="1" d="M 324.023438 240.253906 C 322.539062 242 322.234375 242.21875 321.753906 242.21875 C 321.492188 242.21875 321.273438 242 321.273438 241.695312 C 321.273438 241.300781 322.144531 237.894531 323.0625 234.839844 C 323.804688 232.261719 324.417969 230.035156 325.8125 224.445312 L 325.683594 224.316406 C 324.199219 224.621094 323.195312 224.796875 321.402344 224.972656 L 321.402344 225.453125 C 322.976562 225.496094 323.148438 225.582031 323.148438 226.148438 C 323.148438 226.542969 323.105469 226.675781 322.714844 228.113281 L 321.492188 232.699219 C 321.273438 231.519531 320.792969 231.085938 319.699219 231.085938 C 316.074219 231.085938 311.578125 236.324219 311.578125 240.472656 C 311.578125 242.480469 312.667969 243.660156 314.503906 243.660156 C 316.382812 243.660156 317.605469 242.785156 319.480469 239.992188 C 319.175781 241.390625 319.132812 241.828125 319.132812 242.480469 C 319.132812 243.222656 319.613281 243.703125 320.3125 243.703125 C 321.492188 243.703125 322.929688 242.570312 324.371094 240.558594 Z M 319.789062 231.695312 C 320.660156 231.78125 321.054688 232.308594 321.054688 233.3125 C 321.054688 237.546875 318.171875 242.308594 315.59375 242.308594 C 314.636719 242.308594 313.980469 241.5625 313.980469 240.472656 C 313.980469 238.160156 315.378906 234.925781 317.210938 233.003906 C 317.996094 232.175781 319.046875 231.652344 319.789062 231.695312 Z M 319.789062 231.695312 "/>
<path fill="none" stroke-width="0.3985" stroke-linecap="butt" stroke-linejoin="miter" stroke="rgb(6.666667%, 52.941176%, 87.058824%)" stroke-opacity="1" stroke-miterlimit="10" d="M -36.510488 21.910251 L 34.540633 -20.729927 " transform="matrix(2.794643, 0, 0, -2.794643, 199.998614, 162.625854)"/>
<path fill-rule="nonzero" fill="rgb(6.666667%, 52.941176%, 87.058824%)" fill-opacity="1" d="M 301.308594 223.417969 L 295.960938 215.011719 L 296.527344 220.558594 L 291.375 222.65625 "/>
<path fill="none" stroke-width="0.3985" stroke-linecap="butt" stroke-linejoin="miter" stroke="rgb(6.666667%, 52.941176%, 87.058824%)" stroke-opacity="1" stroke-miterlimit="10" d="M -36.510488 7.300825 L 34.832766 -6.967546 " transform="matrix(2.794643, 0, 0, -2.794643, 199.998614, 162.625854)"/>
<path fill-rule="nonzero" fill="rgb(6.666667%, 52.941176%, 87.058824%)" fill-opacity="1" d="M 302.816406 183.191406 L 294.945312 177.078125 L 297.34375 182.097656 L 293.199219 185.8125 "/>
<path fill="none" stroke-width="0.3985" stroke-linecap="butt" stroke-linejoin="miter" stroke="rgb(6.666667%, 52.941176%, 87.058824%)" stroke-opacity="1" stroke-miterlimit="10" d="M -36.510488 -6.100933 L 34.662239 22.371513 " transform="matrix(2.794643, 0, 0, -2.794643, 199.998614, 162.625854)"/>
<path fill-rule="nonzero" fill="rgb(6.666667%, 52.941176%, 87.058824%)" fill-opacity="1" d="M 302.027344 98.042969 L 292.105469 97.210938 L 296.867188 100.105469 L 295.414062 105.488281 "/>
<path fill="none" stroke-width="0.3985" stroke-linecap="butt" stroke-linejoin="miter" stroke="rgb(6.666667%, 52.941176%, 87.058824%)" stroke-opacity="1" stroke-miterlimit="10" d="M -36.510488 -24.312395 L 34.832766 -10.038433 " transform="matrix(2.794643, 0, 0, -2.794643, 199.998614, 162.625854)"/>
<path fill-rule="nonzero" fill="rgb(6.666667%, 52.941176%, 87.058824%)" fill-opacity="1" d="M 302.816406 189.589844 L 293.199219 186.96875 L 297.34375 190.679688 L 294.945312 195.710938 "/>
</svg>
