<?xml version="1.0" encoding="UTF-8"?>
<svg xmlns="http://www.w3.org/2000/svg" xmlns:xlink="http://www.w3.org/1999/xlink" width="400" height="431.253925" viewBox="0 0 400 431.253925">
<defs>
<clipPath id="clip-0">
<path clip-rule="nonzero" d="M 20.007812 48.78125 L 387.609375 48.78125 L 387.609375 416.382812 L 20.007812 416.382812 Z M 20.007812 48.78125 "/>
</clipPath>
</defs>
<path fill="none" stroke-width="0.09962" stroke-linecap="butt" stroke-linejoin="miter" stroke="rgb(69.803922%, 69.803922%, 69.803922%)" stroke-opacity="1" stroke-dasharray="2.98883 2.98883" stroke-miterlimit="10" d="M 0.00117607 57.089798 L 0.00117607 244.184288 M 31.18094 57.089798 L 31.18094 244.184288 M 62.364681 57.089798 L 62.364681 244.184288 M 124.728186 57.089798 L 124.728186 244.184288 M 155.911926 57.089798 L 155.911926 244.184288 M 187.095667 57.089798 L 187.095667 244.184288 " transform="matrix(1.964791, 0, 0, -1.964791, 20.005502, 528.55233)"/>
<path fill="none" stroke-width="0.09962" stroke-linecap="butt" stroke-linejoin="miter" stroke="rgb(69.803922%, 69.803922%, 69.803922%)" stroke-opacity="1" stroke-dasharray="2.98883 2.98883" stroke-miterlimit="10" d="M 0.00117607 57.089798 L 187.095667 57.089798 M 0.00117607 88.269562 L 187.095667 88.269562 M 0.00117607 119.453302 L 187.095667 119.453302 M 0.00117607 181.816807 L 187.095667 181.816807 M 0.00117607 213.000548 L 187.095667 213.000548 M 0.00117607 244.184288 L 187.095667 244.184288 " transform="matrix(1.964791, 0, 0, -1.964791, 20.005502, 528.55233)"/>
<path fill="none" stroke-width="0.19925" stroke-linecap="butt" stroke-linejoin="miter" stroke="rgb(50.196078%, 50.196078%, 50.196078%)" stroke-opacity="1" stroke-miterlimit="10" d="M 0.00117607 148.507761 L 0.00117607 152.762349 M 31.18094 148.507761 L 31.18094 152.762349 M 62.364681 148.507761 L 62.364681 152.762349 M 124.728186 148.507761 L 124.728186 152.762349 M 155.911926 148.507761 L 155.911926 152.762349 M 187.095667 148.507761 L 187.095667 152.762349 " transform="matrix(1.964791, 0, 0, -1.964791, 20.005502, 528.55233)"/>
<path fill="none" stroke-width="0.19925" stroke-linecap="butt" stroke-linejoin="miter" stroke="rgb(50.196078%, 50.196078%, 50.196078%)" stroke-opacity="1" stroke-miterlimit="10" d="M 91.41914 57.089798 L 95.673727 57.089798 M 91.41914 88.269562 L 95.673727 88.269562 M 91.41914 119.453302 L 95.673727 119.453302 M 91.41914 181.816807 L 95.673727 181.816807 M 91.41914 213.000548 L 95.673727 213.000548 M 91.41914 244.184288 L 95.673727 244.184288 " transform="matrix(1.964791, 0, 0, -1.964791, 20.005502, 528.55233)"/>
<path fill="none" stroke-width="0.3985" stroke-linecap="butt" stroke-linejoin="miter" stroke="rgb(50.196078%, 50.196078%, 50.196078%)" stroke-opacity="1" stroke-miterlimit="10" d="M 0.00117607 150.637043 L 185.103566 150.637043 " transform="matrix(1.964791, 0, 0, -1.964791, 20.005502, 528.55233)"/>
<path fill-rule="nonzero" fill="rgb(50.196078%, 50.196078%, 50.196078%)" fill-opacity="1" d="M 387.609375 232.582031 L 381.339844 229.449219 L 383.695312 232.582031 L 381.339844 235.714844 "/>
<path fill="none" stroke-width="0.3985" stroke-linecap="butt" stroke-linejoin="miter" stroke="rgb(50.196078%, 50.196078%, 50.196078%)" stroke-opacity="1" stroke-miterlimit="10" d="M 93.548422 57.089798 L 93.548422 242.192187 " transform="matrix(1.964791, 0, 0, -1.964791, 20.005502, 528.55233)"/>
<path fill-rule="nonzero" fill="rgb(50.196078%, 50.196078%, 50.196078%)" fill-opacity="1" d="M 203.808594 48.78125 L 200.675781 55.050781 L 203.808594 52.695312 L 206.941406 55.050781 "/>
<path fill-rule="nonzero" fill="rgb(50.196078%, 50.196078%, 50.196078%)" fill-opacity="1" d="M 20.402344 252.265625 C 20.738281 252.265625 21.109375 252.265625 21.109375 251.863281 C 21.109375 251.496094 20.738281 251.496094 20.402344 251.496094 L 9.808594 251.496094 C 9.472656 251.496094 9.132812 251.496094 9.132812 251.863281 C 9.132812 252.265625 9.472656 252.265625 9.808594 252.265625 Z M 20.402344 252.265625 "/>
<path fill-rule="nonzero" fill="rgb(50.196078%, 50.196078%, 50.196078%)" fill-opacity="1" d="M 25.722656 250.300781 C 26.859375 250.300781 27.320312 250.359375 27.78125 250.515625 C 29.007812 250.972656 29.777344 252.078125 29.777344 253.429688 C 29.777344 255.058594 28.640625 256.347656 27.195312 256.347656 C 26.675781 256.347656 26.277344 256.191406 25.570312 255.734375 C 24.957031 255.394531 24.648438 255.242188 24.3125 255.242188 C 23.851562 255.242188 23.542969 255.519531 23.542969 255.949219 C 23.542969 256.625 24.402344 257.054688 25.785156 257.054688 C 27.289062 257.054688 28.824219 256.53125 29.746094 255.734375 C 30.667969 254.933594 31.1875 253.796875 31.1875 252.480469 C 31.1875 251.496094 30.851562 250.574219 30.296875 249.960938 C 29.898438 249.53125 29.53125 249.285156 28.671875 248.917969 C 30.023438 247.996094 30.511719 247.289062 30.511719 246.214844 C 30.511719 244.621094 29.253906 243.542969 27.441406 243.542969 C 26.460938 243.542969 25.601562 243.882812 24.894531 244.496094 C 24.3125 245.019531 24.035156 245.539062 23.605469 246.707031 L 23.882812 246.800781 C 24.679688 245.355469 25.570312 244.710938 26.796875 244.710938 C 28.085938 244.710938 28.976562 245.570312 28.976562 246.800781 C 28.976562 247.503906 28.671875 248.210938 28.179688 248.703125 C 27.597656 249.285156 27.042969 249.59375 25.722656 250.054688 Z M 25.722656 250.300781 "/>
<path fill-rule="nonzero" fill="rgb(50.196078%, 50.196078%, 50.196078%)" fill-opacity="1" d="M 81.664062 252.265625 C 82.003906 252.265625 82.371094 252.265625 82.371094 251.863281 C 82.371094 251.496094 82.003906 251.496094 81.664062 251.496094 L 71.074219 251.496094 C 70.738281 251.496094 70.398438 251.496094 70.398438 251.863281 C 70.398438 252.265625 70.738281 252.265625 71.074219 252.265625 Z M 81.664062 252.265625 "/>
<path fill-rule="nonzero" fill="rgb(50.196078%, 50.196078%, 50.196078%)" fill-opacity="1" d="M 93.28125 254.105469 L 93.039062 253.984375 C 92.300781 255.117188 92.054688 255.304688 91.164062 255.304688 L 86.5 255.304688 L 89.785156 251.832031 C 91.535156 250.023438 92.300781 248.519531 92.300781 247.015625 C 92.300781 245.050781 90.703125 243.542969 88.648438 243.542969 C 87.574219 243.542969 86.558594 243.976562 85.855469 244.742188 C 85.210938 245.417969 84.933594 246.03125 84.59375 247.445312 L 84.996094 247.535156 C 85.792969 245.601562 86.5 244.988281 87.847656 244.988281 C 89.476562 244.988281 90.613281 246.09375 90.613281 247.75 C 90.613281 249.285156 89.691406 251.097656 88.0625 252.847656 L 84.5625 256.53125 L 84.5625 256.777344 L 92.207031 256.777344 Z M 93.28125 254.105469 "/>
<path fill-rule="nonzero" fill="rgb(50.196078%, 50.196078%, 50.196078%)" fill-opacity="1" d="M 142.933594 252.265625 C 143.269531 252.265625 143.636719 252.265625 143.636719 251.863281 C 143.636719 251.496094 143.269531 251.496094 142.933594 251.496094 L 132.339844 251.496094 C 132.003906 251.496094 131.664062 251.496094 131.664062 251.863281 C 131.664062 252.265625 132.003906 252.265625 132.339844 252.265625 Z M 142.933594 252.265625 "/>
<path fill-rule="nonzero" fill="rgb(50.196078%, 50.196078%, 50.196078%)" fill-opacity="1" d="M 150.957031 243.542969 L 147.425781 245.324219 L 147.425781 245.601562 C 147.640625 245.507812 147.855469 245.417969 147.949219 245.386719 C 148.316406 245.234375 148.625 245.171875 148.839844 245.171875 C 149.238281 245.171875 149.421875 245.449219 149.421875 246.09375 L 149.421875 254.964844 C 149.421875 255.609375 149.269531 256.039062 148.960938 256.222656 C 148.65625 256.40625 148.378906 256.46875 147.550781 256.46875 L 147.550781 256.777344 L 152.953125 256.777344 L 152.953125 256.46875 C 151.417969 256.46875 151.109375 256.253906 151.109375 255.332031 L 151.109375 243.574219 Z M 150.957031 243.542969 "/>
<path fill-rule="nonzero" fill="rgb(50.196078%, 50.196078%, 50.196078%)" fill-opacity="1" d="M 265.886719 243.542969 L 262.355469 245.324219 L 262.355469 245.601562 C 262.570312 245.507812 262.785156 245.417969 262.878906 245.386719 C 263.246094 245.234375 263.550781 245.171875 263.765625 245.171875 C 264.167969 245.171875 264.351562 245.449219 264.351562 246.09375 L 264.351562 254.964844 C 264.351562 255.609375 264.199219 256.039062 263.890625 256.222656 C 263.582031 256.40625 263.308594 256.46875 262.476562 256.46875 L 262.476562 256.777344 L 267.882812 256.777344 L 267.882812 256.46875 C 266.347656 256.46875 266.039062 256.253906 266.039062 255.332031 L 266.039062 243.574219 Z M 265.886719 243.542969 "/>
<path fill-rule="nonzero" fill="rgb(50.196078%, 50.196078%, 50.196078%)" fill-opacity="1" d="M 330.742188 254.105469 L 330.496094 253.984375 C 329.757812 255.117188 329.515625 255.304688 328.625 255.304688 L 323.957031 255.304688 L 327.242188 251.832031 C 328.992188 250.023438 329.757812 248.519531 329.757812 247.015625 C 329.757812 245.050781 328.164062 243.542969 326.105469 243.542969 C 325.03125 243.542969 324.019531 243.976562 323.3125 244.742188 C 322.667969 245.417969 322.390625 246.03125 322.054688 247.445312 L 322.453125 247.535156 C 323.25 245.601562 323.957031 244.988281 325.308594 244.988281 C 326.933594 244.988281 328.070312 246.09375 328.070312 247.75 C 328.070312 249.285156 327.148438 251.097656 325.523438 252.847656 L 322.023438 256.53125 L 322.023438 256.777344 L 329.667969 256.777344 Z M 330.742188 254.105469 "/>
<path fill-rule="nonzero" fill="rgb(50.196078%, 50.196078%, 50.196078%)" fill-opacity="1" d="M 385.714844 250.300781 C 386.851562 250.300781 387.3125 250.359375 387.769531 250.515625 C 389 250.972656 389.765625 252.078125 389.765625 253.429688 C 389.765625 255.058594 388.632812 256.347656 387.1875 256.347656 C 386.667969 256.347656 386.265625 256.191406 385.5625 255.734375 C 384.945312 255.394531 384.640625 255.242188 384.300781 255.242188 C 383.84375 255.242188 383.535156 255.519531 383.535156 255.949219 C 383.535156 256.625 384.394531 257.054688 385.777344 257.054688 C 387.28125 257.054688 388.816406 256.53125 389.734375 255.734375 C 390.65625 254.933594 391.179688 253.796875 391.179688 252.480469 C 391.179688 251.496094 390.839844 250.574219 390.289062 249.960938 C 389.890625 249.53125 389.519531 249.285156 388.660156 248.917969 C 390.011719 247.996094 390.503906 247.289062 390.503906 246.214844 C 390.503906 244.621094 389.246094 243.542969 387.433594 243.542969 C 386.453125 243.542969 385.589844 243.882812 384.886719 244.496094 C 384.300781 245.019531 384.027344 245.539062 383.597656 246.707031 L 383.871094 246.800781 C 384.671875 245.355469 385.5625 244.710938 386.789062 244.710938 C 388.078125 244.710938 388.96875 245.570312 388.96875 246.800781 C 388.96875 247.503906 388.660156 248.210938 388.171875 248.703125 C 387.585938 249.285156 387.035156 249.59375 385.714844 250.054688 Z M 385.714844 250.300781 "/>
<path fill-rule="nonzero" fill="rgb(50.196078%, 50.196078%, 50.196078%)" fill-opacity="1" d="M 180.605469 417.609375 C 180.945312 417.609375 181.3125 417.609375 181.3125 417.210938 C 181.3125 416.84375 180.945312 416.84375 180.605469 416.84375 L 170.015625 416.84375 C 169.675781 416.84375 169.339844 416.84375 169.339844 417.210938 C 169.339844 417.609375 169.675781 417.609375 170.015625 417.609375 Z M 180.605469 417.609375 "/>
<path fill-rule="nonzero" fill="rgb(50.196078%, 50.196078%, 50.196078%)" fill-opacity="1" d="M 185.929688 415.644531 C 187.066406 415.644531 187.527344 415.707031 187.988281 415.859375 C 189.214844 416.320312 189.984375 417.425781 189.984375 418.777344 C 189.984375 420.40625 188.847656 421.695312 187.402344 421.695312 C 186.882812 421.695312 186.484375 421.539062 185.777344 421.078125 C 185.164062 420.742188 184.855469 420.589844 184.519531 420.589844 C 184.058594 420.589844 183.75 420.863281 183.75 421.292969 C 183.75 421.96875 184.609375 422.398438 185.992188 422.398438 C 187.496094 422.398438 189.03125 421.878906 189.953125 421.078125 C 190.875 420.28125 191.394531 419.144531 191.394531 417.824219 C 191.394531 416.84375 191.058594 415.921875 190.503906 415.308594 C 190.105469 414.878906 189.738281 414.632812 188.878906 414.265625 C 190.230469 413.34375 190.71875 412.636719 190.71875 411.5625 C 190.71875 409.964844 189.460938 408.890625 187.648438 408.890625 C 186.667969 408.890625 185.808594 409.230469 185.101562 409.84375 C 184.519531 410.367188 184.242188 410.886719 183.8125 412.054688 L 184.089844 412.144531 C 184.886719 410.703125 185.777344 410.058594 187.003906 410.058594 C 188.292969 410.058594 189.183594 410.917969 189.183594 412.144531 C 189.183594 412.851562 188.878906 413.558594 188.386719 414.050781 C 187.804688 414.632812 187.25 414.941406 185.929688 415.398438 Z M 185.929688 415.644531 "/>
<path fill-rule="nonzero" fill="rgb(50.196078%, 50.196078%, 50.196078%)" fill-opacity="1" d="M 180.605469 356.34375 C 180.945312 356.34375 181.3125 356.34375 181.3125 355.945312 C 181.3125 355.578125 180.945312 355.578125 180.605469 355.578125 L 170.015625 355.578125 C 169.675781 355.578125 169.339844 355.578125 169.339844 355.945312 C 169.339844 356.34375 169.675781 356.34375 170.015625 356.34375 Z M 180.605469 356.34375 "/>
<path fill-rule="nonzero" fill="rgb(50.196078%, 50.196078%, 50.196078%)" fill-opacity="1" d="M 192.222656 358.1875 L 191.976562 358.0625 C 191.242188 359.199219 190.996094 359.382812 190.105469 359.382812 L 185.4375 359.382812 L 188.722656 355.914062 C 190.472656 354.101562 191.242188 352.597656 191.242188 351.09375 C 191.242188 349.128906 189.644531 347.625 187.589844 347.625 C 186.515625 347.625 185.5 348.054688 184.792969 348.824219 C 184.148438 349.5 183.875 350.113281 183.535156 351.523438 L 183.933594 351.617188 C 184.734375 349.683594 185.4375 349.070312 186.789062 349.070312 C 188.417969 349.070312 189.554688 350.175781 189.554688 351.832031 C 189.554688 353.367188 188.632812 355.179688 187.003906 356.929688 L 183.503906 360.613281 L 183.503906 360.859375 L 191.148438 360.859375 Z M 192.222656 358.1875 "/>
<path fill-rule="nonzero" fill="rgb(50.196078%, 50.196078%, 50.196078%)" fill-opacity="1" d="M 180.605469 295.078125 C 180.945312 295.078125 181.3125 295.078125 181.3125 294.679688 C 181.3125 294.3125 180.945312 294.3125 180.605469 294.3125 L 170.015625 294.3125 C 169.675781 294.3125 169.339844 294.3125 169.339844 294.679688 C 169.339844 295.078125 169.675781 295.078125 170.015625 295.078125 Z M 180.605469 295.078125 "/>
<path fill-rule="nonzero" fill="rgb(50.196078%, 50.196078%, 50.196078%)" fill-opacity="1" d="M 188.632812 286.359375 L 185.101562 288.140625 L 185.101562 288.417969 C 185.316406 288.324219 185.53125 288.230469 185.625 288.203125 C 185.992188 288.046875 186.300781 287.988281 186.515625 287.988281 C 186.914062 287.988281 187.097656 288.261719 187.097656 288.90625 L 187.097656 297.78125 C 187.097656 298.425781 186.945312 298.855469 186.636719 299.039062 C 186.328125 299.222656 186.054688 299.285156 185.222656 299.285156 L 185.222656 299.589844 L 190.628906 299.589844 L 190.628906 299.285156 C 189.09375 299.285156 188.785156 299.070312 188.785156 298.148438 L 188.785156 286.390625 Z M 188.632812 286.359375 "/>
<path fill-rule="nonzero" fill="rgb(50.196078%, 50.196078%, 50.196078%)" fill-opacity="1" d="M 188.632812 164.640625 L 185.101562 166.417969 L 185.101562 166.695312 C 185.316406 166.605469 185.53125 166.511719 185.625 166.480469 C 185.992188 166.328125 186.300781 166.265625 186.515625 166.265625 C 186.914062 166.265625 187.097656 166.542969 187.097656 167.1875 L 187.097656 176.058594 C 187.097656 176.703125 186.945312 177.132812 186.636719 177.316406 C 186.328125 177.503906 186.054688 177.5625 185.222656 177.5625 L 185.222656 177.871094 L 190.628906 177.871094 L 190.628906 177.5625 C 189.09375 177.5625 188.785156 177.347656 188.785156 176.425781 L 188.785156 164.667969 Z M 188.632812 164.640625 "/>
<path fill-rule="nonzero" fill="rgb(50.196078%, 50.196078%, 50.196078%)" fill-opacity="1" d="M 192.222656 113.933594 L 191.976562 113.8125 C 191.242188 114.945312 190.996094 115.128906 190.105469 115.128906 L 185.4375 115.128906 L 188.722656 111.660156 C 190.472656 109.851562 191.242188 108.347656 191.242188 106.84375 C 191.242188 104.878906 189.644531 103.371094 187.589844 103.371094 C 186.515625 103.371094 185.5 103.800781 184.792969 104.570312 C 184.148438 105.246094 183.875 105.859375 183.535156 107.273438 L 183.933594 107.363281 C 184.734375 105.429688 185.4375 104.816406 186.789062 104.816406 C 188.417969 104.816406 189.554688 105.921875 189.554688 107.578125 C 189.554688 109.113281 188.632812 110.925781 187.003906 112.675781 L 183.503906 116.359375 L 183.503906 116.605469 L 191.148438 116.605469 Z M 192.222656 113.933594 "/>
<path fill-rule="nonzero" fill="rgb(50.196078%, 50.196078%, 50.196078%)" fill-opacity="1" d="M 185.929688 48.710938 C 187.066406 48.710938 187.527344 48.769531 187.988281 48.925781 C 189.214844 49.386719 189.984375 50.488281 189.984375 51.839844 C 189.984375 53.46875 188.847656 54.757812 187.402344 54.757812 C 186.882812 54.757812 186.484375 54.605469 185.777344 54.144531 C 185.164062 53.804688 184.855469 53.652344 184.519531 53.652344 C 184.058594 53.652344 183.75 53.929688 183.75 54.359375 C 183.75 55.035156 184.609375 55.464844 185.992188 55.464844 C 187.496094 55.464844 189.03125 54.941406 189.953125 54.144531 C 190.875 53.34375 191.394531 52.210938 191.394531 50.890625 C 191.394531 49.90625 191.058594 48.984375 190.503906 48.371094 C 190.105469 47.941406 189.738281 47.695312 188.878906 47.328125 C 190.230469 46.40625 190.71875 45.699219 190.71875 44.625 C 190.71875 43.03125 189.460938 41.957031 187.648438 41.957031 C 186.667969 41.957031 185.808594 42.292969 185.101562 42.90625 C 184.519531 43.429688 184.242188 43.949219 183.8125 45.117188 L 184.089844 45.210938 C 184.886719 43.765625 185.777344 43.121094 187.003906 43.121094 C 188.292969 43.121094 189.183594 43.980469 189.183594 45.210938 C 189.183594 45.914062 188.878906 46.621094 188.386719 47.113281 C 187.804688 47.695312 187.25 48.003906 185.929688 48.464844 Z M 185.929688 48.710938 "/>
<g clip-path="url(#clip-0)">
<path fill="none" stroke-width="0.99628" stroke-linecap="butt" stroke-linejoin="miter" stroke="rgb(6.666667%, 52.941176%, 87.058824%)" stroke-opacity="1" stroke-miterlimit="10" d="M 0.00117607 140.243126 L 1.887907 140.028408 L 3.778614 139.805738 L 5.66932 139.571139 L 7.560027 139.328588 L 9.450734 139.074108 L 11.337465 138.809687 L 13.228172 138.527374 L 15.118879 138.239096 L 17.009585 137.930936 L 18.896316 137.60886 L 20.787023 137.268891 L 22.67773 136.915004 L 24.568437 136.539249 L 26.459144 136.141624 L 28.345874 135.722129 L 30.236581 135.276789 L 32.127288 134.805604 L 34.017995 134.30062 L 35.908702 133.765814 L 37.795432 133.195222 L 39.686139 132.58288 L 41.574858 131.926799 L 43.465565 131.219026 L 45.356272 130.461551 L 47.243002 129.636479 L 49.133709 128.741822 L 51.024416 127.769629 L 52.915123 126.707971 L 54.801853 125.538953 L 56.69256 124.250648 L 58.583267 122.825162 L 60.473974 121.234662 L 62.364681 119.453302 L 64.251412 117.44132 L 66.142118 115.156964 L 68.032825 112.524687 L 69.923532 109.476891 L 71.814239 105.902242 L 73.70097 101.637714 L 75.591677 96.476542 L 77.482383 90.110566 L 79.37309 82.042754 L 81.259821 71.491775 L 83.150528 57.101726 L 85.041235 36.319856 L 86.931942 3.672855 M 100.156949 297.680756 L 102.047656 264.992005 L 103.938363 244.200193 L 105.82907 229.80418 L 107.719777 219.247237 L 109.606507 211.171473 L 111.497214 204.797544 L 113.387921 199.644324 L 115.278628 195.383772 L 117.165358 191.801171 L 119.056065 188.753375 L 120.946772 186.121098 L 122.837479 183.832766 L 124.728186 181.816807 L 126.614916 180.039424 L 128.505623 178.448924 L 130.39633 177.023438 L 132.287037 175.735133 L 134.177744 174.566115 L 136.064475 173.504457 L 137.955181 172.532264 L 139.845888 171.637607 L 141.736595 170.812535 L 143.627302 170.051084 L 145.514033 169.347287 L 147.40474 168.68723 L 149.295446 168.078864 L 151.186153 167.504295 L 153.072884 166.96949 L 154.961603 166.464506 L 156.85231 165.99332 L 158.743016 165.551957 L 160.633723 165.128486 L 162.520454 164.730861 L 164.411161 164.355105 L 166.301868 164.001219 L 168.192575 163.66125 L 170.083281 163.339174 L 171.970012 163.03499 L 173.860719 162.742736 L 175.751426 162.464399 L 177.642133 162.199978 L 179.532839 161.945498 L 181.41957 161.69897 L 183.310277 161.468348 L 185.200984 161.245678 L 187.091691 161.03096 " transform="matrix(1.964791, 0, 0, -1.964791, 20.005502, 528.55233)"/>
<path fill="none" stroke-width="0.99628" stroke-linecap="butt" stroke-linejoin="miter" stroke="rgb(100%, 12.941176%, 32.156863%)" stroke-opacity="1" stroke-miterlimit="10" d="M 0.00117607 131.145466 L 1.887907 130.721995 L 3.778614 130.276655 L 5.66932 129.809446 L 7.560027 129.316391 L 9.450734 128.79749 L 11.337465 128.246779 L 13.228172 127.660282 L 15.118879 127.039987 L 17.009585 126.375954 L 18.896316 125.668181 L 20.787023 124.910706 L 22.67773 124.093586 L 24.568437 123.210859 L 26.459144 122.254571 L 28.345874 121.210805 L 30.236581 120.067633 L 32.127288 118.80915 L 34.017995 117.407522 L 35.908702 115.840879 L 37.795432 114.071448 L 39.686139 112.047537 L 41.574858 109.71149 L 43.465565 106.965889 L 45.356272 103.679519 L 47.243002 99.655554 L 49.133709 94.593787 L 51.024416 87.977307 L 52.915123 78.879648 L 54.801853 65.469744 L 56.69256 43.465177 L 58.583267 0.000788267 M 66.142118 254.411203 L 68.032825 210.684382 L 69.923532 188.347798 L 71.814239 174.532317 L 73.70097 164.93365 L 75.591677 157.706815 L 77.482383 151.925348 L 79.37309 147.066371 L 81.259821 142.809795 L 83.150528 138.94488 L 85.041235 135.324504 L 86.931942 131.839321 L 88.822648 128.393901 L 90.709379 124.914682 L 92.600086 121.320152 L 94.490793 117.538738 L 96.379512 113.476999 L 98.270218 109.051432 L 100.156949 104.136787 L 102.047656 98.57799 L 103.938363 92.176227 L 105.82907 84.653162 L 107.719777 75.613158 L 109.606507 64.473694 L 111.497214 50.296374 L 113.387921 31.558296 L 115.278628 5.507895 M 136.064475 285.887198 L 137.955181 267.33998 L 139.845888 253.399248 L 141.736595 242.52818 L 143.627302 233.804288 L 145.514033 226.653002 L 147.40474 220.672722 L 149.295446 215.601015 L 151.186153 211.243045 L 153.072884 207.449703 L 154.961603 204.125558 L 156.85231 201.183133 L 158.743016 198.558808 L 160.633723 196.206856 L 162.520454 194.08155 L 164.411161 192.153069 L 166.301868 190.395567 L 168.192575 188.785185 L 170.083281 187.308009 L 171.970012 185.946143 L 173.860719 184.679707 L 175.751426 183.508702 L 177.642133 182.419209 L 179.532839 181.399301 L 181.41957 180.445001 L 183.310277 179.550345 L 185.200984 178.711356 L 187.091691 177.92207 " transform="matrix(1.964791, 0, 0, -1.964791, 20.005502, 528.55233)"/>
</g>
<path fill="none" stroke-width="0.3985" stroke-linecap="butt" stroke-linejoin="miter" stroke="rgb(50.196078%, 50.196078%, 50.196078%)" stroke-opacity="1" stroke-miterlimit="10" d="M 26.435286 249.991602 L 160.661557 249.991602 L 160.661557 268.31615 L 26.435286 268.31615 Z M 26.435286 249.991602 " transform="matrix(1.964791, 0, 0, -1.964791, 20.005502, 528.55233)"/>
<path fill="none" stroke-width="0.99628" stroke-linecap="butt" stroke-linejoin="miter" stroke="rgb(6.666667%, 52.941176%, 87.058824%)" stroke-opacity="1" stroke-miterlimit="10" d="M 0.000468113 0.000887799 L 17.006889 0.000887799 " transform="matrix(1.964791, 0, 0, -1.964791, 78.792049, 19.372838)"/>
<path fill-rule="nonzero" fill="rgb(50.196078%, 50.196078%, 50.196078%)" fill-opacity="1" d="M 120.714844 18.839844 L 122.496094 18.839844 L 120.777344 27.066406 C 120.347656 29.1875 119.703125 30.261719 118.871094 30.261719 C 118.625 30.261719 118.472656 30.105469 118.472656 29.921875 C 118.472656 29.890625 118.503906 29.832031 118.566406 29.707031 C 118.625 29.617188 118.65625 29.523438 118.65625 29.402344 C 118.65625 29 118.289062 28.664062 117.890625 28.664062 C 117.460938 28.664062 117.152344 29 117.152344 29.460938 C 117.152344 30.136719 117.859375 30.660156 118.71875 30.660156 C 120.4375 30.660156 121.820312 28.726562 122.617188 25.132812 L 124.03125 18.839844 L 126.179688 18.839844 L 126.300781 18.226562 L 124.183594 18.226562 C 124.734375 15.15625 125.472656 13.742188 126.546875 13.742188 C 126.824219 13.742188 126.976562 13.867188 126.976562 13.988281 C 126.976562 14.050781 126.976562 14.082031 126.914062 14.203125 C 126.824219 14.359375 126.792969 14.449219 126.792969 14.605469 C 126.792969 15.0625 127.101562 15.371094 127.53125 15.371094 C 127.960938 15.371094 128.359375 15.035156 128.359375 14.605469 C 128.359375 13.867188 127.621094 13.3125 126.671875 13.3125 C 125.6875 13.3125 124.949219 13.742188 124.246094 14.664062 C 123.628906 15.433594 123.261719 16.351562 122.648438 18.226562 L 120.867188 18.226562 Z M 120.714844 18.839844 "/>
<path fill-rule="nonzero" fill="rgb(50.196078%, 50.196078%, 50.196078%)" fill-opacity="1" d="M 134.816406 31.304688 C 134.816406 31.242188 134.816406 31.210938 134.476562 30.875 C 132.054688 28.417969 131.40625 24.703125 131.40625 21.695312 C 131.40625 18.289062 132.144531 14.878906 134.570312 12.453125 C 134.816406 12.207031 134.816406 12.179688 134.816406 12.117188 C 134.816406 11.964844 134.753906 11.902344 134.632812 11.902344 C 134.417969 11.902344 132.667969 13.253906 131.5 15.738281 C 130.519531 17.886719 130.273438 20.066406 130.273438 21.695312 C 130.273438 23.230469 130.488281 25.59375 131.5625 27.835938 C 132.757812 30.230469 134.417969 31.519531 134.632812 31.519531 C 134.753906 31.519531 134.816406 31.457031 134.816406 31.304688 Z M 134.816406 31.304688 "/>
<path fill-rule="nonzero" fill="rgb(50.196078%, 50.196078%, 50.196078%)" fill-opacity="1" d="M 143.792969 24.425781 C 143.636719 24.613281 143.546875 24.734375 143.363281 24.949219 C 142.933594 25.5625 142.6875 25.746094 142.472656 25.746094 C 142.195312 25.746094 142.011719 25.503906 141.855469 24.949219 C 141.828125 24.796875 141.796875 24.671875 141.796875 24.613281 C 141.304688 22.617188 141.089844 21.726562 141.089844 21.449219 C 141.949219 19.914062 142.65625 19.054688 142.992188 19.054688 C 143.117188 19.054688 143.269531 19.117188 143.484375 19.207031 C 143.699219 19.363281 143.851562 19.394531 144.007812 19.394531 C 144.40625 19.394531 144.679688 19.117188 144.679688 18.6875 C 144.679688 18.289062 144.34375 17.980469 143.882812 17.980469 C 143.023438 17.980469 142.285156 18.6875 140.9375 20.773438 L 140.722656 19.699219 C 140.445312 18.347656 140.230469 17.980469 139.675781 17.980469 C 139.246094 17.980469 138.601562 18.132812 137.40625 18.53125 L 137.191406 18.625 L 137.253906 18.902344 C 138.019531 18.746094 138.171875 18.6875 138.355469 18.6875 C 138.847656 18.6875 138.972656 18.871094 139.246094 20.039062 L 139.800781 22.460938 L 138.203125 24.734375 C 137.804688 25.347656 137.40625 25.6875 137.191406 25.6875 C 137.097656 25.6875 136.882812 25.625 136.699219 25.503906 C 136.453125 25.378906 136.238281 25.316406 136.054688 25.316406 C 135.6875 25.316406 135.410156 25.59375 135.410156 25.992188 C 135.410156 26.515625 135.808594 26.820312 136.394531 26.820312 C 136.976562 26.820312 137.222656 26.636719 138.203125 25.441406 C 138.726562 24.828125 139.15625 24.304688 139.953125 23.167969 L 140.566406 25.503906 C 140.8125 26.515625 141.058594 26.820312 141.703125 26.820312 C 142.441406 26.820312 142.933594 26.363281 144.066406 24.582031 Z M 143.792969 24.425781 "/>
<path fill-rule="nonzero" fill="rgb(50.196078%, 50.196078%, 50.196078%)" fill-opacity="1" d="M 150.332031 21.695312 C 150.332031 20.191406 150.113281 17.828125 149.039062 15.585938 C 147.875 13.191406 146.1875 11.902344 146 11.902344 C 145.878906 11.902344 145.785156 11.992188 145.785156 12.117188 C 145.785156 12.179688 145.785156 12.207031 146.15625 12.578125 C 148.089844 14.511719 149.195312 17.613281 149.195312 21.695312 C 149.195312 25.070312 148.488281 28.511719 146.0625 30.964844 C 145.785156 31.210938 145.785156 31.242188 145.785156 31.304688 C 145.785156 31.425781 145.878906 31.519531 146 31.519531 C 146.1875 31.519531 147.964844 30.167969 149.101562 27.683594 C 150.113281 25.53125 150.332031 23.351562 150.332031 21.695312 Z M 150.332031 21.695312 "/>
<path fill-rule="nonzero" fill="rgb(50.196078%, 50.196078%, 50.196078%)" fill-opacity="1" d="M 170.066406 20.191406 C 170.375 20.191406 170.742188 20.191406 170.742188 19.824219 C 170.742188 19.421875 170.375 19.421875 170.097656 19.421875 L 158.371094 19.421875 C 158.09375 19.421875 157.726562 19.421875 157.726562 19.824219 C 157.726562 20.191406 158.09375 20.191406 158.371094 20.191406 Z M 170.097656 23.996094 C 170.375 23.996094 170.742188 23.996094 170.742188 23.597656 C 170.742188 23.230469 170.375 23.230469 170.066406 23.230469 L 158.371094 23.230469 C 158.09375 23.230469 157.726562 23.230469 157.726562 23.597656 C 157.726562 23.996094 158.09375 23.996094 158.371094 23.996094 Z M 170.097656 23.996094 "/>
<path fill-rule="nonzero" fill="rgb(50.196078%, 50.196078%, 50.196078%)" fill-opacity="1" d="M 182.742188 9.101562 L 180.132812 10.421875 L 180.132812 10.605469 C 180.316406 10.546875 180.46875 10.484375 180.53125 10.453125 C 180.804688 10.359375 181.050781 10.300781 181.175781 10.300781 C 181.480469 10.300781 181.636719 10.515625 181.636719 10.976562 L 181.636719 17.542969 C 181.636719 18.035156 181.511719 18.375 181.265625 18.496094 C 181.050781 18.617188 180.867188 18.648438 180.253906 18.679688 L 180.253906 18.894531 L 184.246094 18.894531 L 184.246094 18.679688 C 183.109375 18.648438 182.863281 18.527344 182.863281 17.820312 L 182.863281 9.132812 Z M 182.742188 9.101562 "/>
<path fill="none" stroke-width="0.398" stroke-linecap="butt" stroke-linejoin="miter" stroke="rgb(50.196078%, 50.196078%, 50.196078%)" stroke-opacity="1" stroke-miterlimit="10" d="M 0.000256196 0.00100091 L 3.688228 0.00100091 " transform="matrix(1.964791, 0, 0, -1.964791, 178.534653, 21.712904)"/>
<path fill-rule="nonzero" fill="rgb(50.196078%, 50.196078%, 50.196078%)" fill-opacity="1" d="M 184.75 31.765625 C 184.628906 31.886719 184.566406 31.980469 184.414062 32.132812 C 184.105469 32.59375 183.921875 32.714844 183.769531 32.714844 C 183.554688 32.714844 183.398438 32.53125 183.308594 32.132812 C 183.277344 32.007812 183.277344 31.917969 183.246094 31.886719 C 182.878906 30.414062 182.722656 29.738281 182.722656 29.523438 C 183.371094 28.417969 183.890625 27.773438 184.136719 27.773438 C 184.230469 27.773438 184.351562 27.835938 184.503906 27.894531 C 184.660156 27.988281 184.78125 28.019531 184.875 28.019531 C 185.179688 28.019531 185.394531 27.804688 185.394531 27.496094 C 185.394531 27.191406 185.148438 26.976562 184.8125 26.976562 C 184.167969 26.976562 183.613281 27.496094 182.601562 29.03125 L 182.449219 28.234375 C 182.265625 27.25 182.078125 26.976562 181.710938 26.976562 C 181.375 26.976562 180.882812 27.097656 179.992188 27.40625 L 179.839844 27.433594 L 179.898438 27.679688 C 180.453125 27.527344 180.574219 27.496094 180.730469 27.496094 C 181.066406 27.496094 181.160156 27.648438 181.375 28.507812 L 181.773438 30.289062 L 180.605469 31.980469 C 180.300781 32.410156 180.023438 32.683594 179.871094 32.683594 C 179.777344 32.683594 179.625 32.625 179.46875 32.5625 C 179.285156 32.4375 179.132812 32.410156 179.011719 32.410156 C 178.734375 32.410156 178.519531 32.625 178.519531 32.898438 C 178.519531 33.296875 178.824219 33.515625 179.253906 33.515625 C 179.683594 33.515625 179.871094 33.390625 180.605469 32.5 C 180.976562 32.039062 181.28125 31.640625 181.894531 30.8125 L 182.324219 32.5625 C 182.539062 33.296875 182.722656 33.515625 183.183594 33.515625 C 183.738281 33.515625 184.105469 33.175781 184.933594 31.855469 Z M 184.75 31.765625 "/>
<path fill="none" stroke-width="0.99628" stroke-linecap="butt" stroke-linejoin="miter" stroke="rgb(100%, 12.941176%, 32.156863%)" stroke-opacity="1" stroke-miterlimit="10" d="M 0.000222035 0.000887799 L 17.006643 0.000887799 " transform="matrix(1.964791, 0, 0, -1.964791, 193.019095, 19.372838)"/>
<path fill-rule="nonzero" fill="rgb(50.196078%, 50.196078%, 50.196078%)" fill-opacity="1" d="M 240.570312 18.683594 L 239.375 18.683594 C 239.3125 18.683594 239.21875 18.625 239.066406 18.53125 C 238.546875 18.164062 237.898438 17.980469 237.132812 17.980469 C 234.984375 17.980469 233.203125 19.484375 233.203125 21.324219 C 233.203125 22.339844 233.632812 22.921875 234.769531 23.441406 C 233.601562 24.210938 233.265625 24.609375 233.265625 25.070312 C 233.265625 25.347656 233.417969 25.5625 233.785156 25.835938 C 231.851562 27.128906 231.484375 27.496094 231.484375 28.417969 C 231.484375 29.765625 232.773438 30.625 234.769531 30.625 C 237.226562 30.625 238.882812 29.492188 238.882812 27.773438 C 238.882812 26.542969 237.929688 25.683594 236.058594 25.191406 C 235.199219 24.976562 234.707031 24.671875 234.707031 24.363281 C 234.707031 24.085938 235.136719 23.566406 235.414062 23.566406 C 235.445312 23.566406 235.476562 23.566406 235.535156 23.597656 C 235.691406 23.628906 235.964844 23.65625 236.152344 23.65625 C 237.929688 23.65625 239.773438 22.0625 239.773438 20.527344 C 239.773438 20.21875 239.710938 19.820312 239.589844 19.421875 L 240.570312 19.421875 Z M 234.214844 26.050781 C 234.246094 26.050781 234.277344 26.082031 234.339844 26.082031 C 234.402344 26.113281 234.585938 26.175781 234.890625 26.265625 C 236.980469 26.914062 237.683594 27.464844 237.683594 28.355469 C 237.683594 29.429688 236.550781 30.195312 235.046875 30.195312 C 233.480469 30.195312 232.558594 29.460938 232.558594 28.203125 C 232.558594 27.742188 232.679688 27.402344 232.988281 27.035156 C 233.265625 26.699219 234.0625 26.050781 234.214844 26.050781 Z M 237.132812 18.410156 C 237.839844 18.410156 238.238281 18.867188 238.238281 19.789062 C 238.238281 20.464844 237.992188 21.324219 237.625 22 C 237.195312 22.796875 236.582031 23.226562 235.90625 23.226562 C 235.167969 23.226562 234.738281 22.675781 234.738281 21.753906 C 234.738281 19.972656 235.84375 18.410156 237.132812 18.410156 Z M 237.132812 18.410156 "/>
<path fill-rule="nonzero" fill="rgb(50.196078%, 50.196078%, 50.196078%)" fill-opacity="1" d="M 247.59375 31.300781 C 247.59375 31.242188 247.59375 31.210938 247.257812 30.871094 C 244.832031 28.417969 244.1875 24.703125 244.1875 21.691406 C 244.1875 18.285156 244.925781 14.878906 247.347656 12.453125 C 247.59375 12.207031 247.59375 12.175781 247.59375 12.113281 C 247.59375 11.960938 247.535156 11.898438 247.410156 11.898438 C 247.195312 11.898438 245.445312 13.25 244.277344 15.738281 C 243.296875 17.886719 243.050781 20.066406 243.050781 21.691406 C 243.050781 23.226562 243.265625 25.59375 244.339844 27.832031 C 245.539062 30.226562 247.195312 31.515625 247.410156 31.515625 C 247.535156 31.515625 247.59375 31.457031 247.59375 31.300781 Z M 247.59375 31.300781 "/>
<path fill-rule="nonzero" fill="rgb(50.196078%, 50.196078%, 50.196078%)" fill-opacity="1" d="M 256.570312 24.425781 C 256.417969 24.609375 256.328125 24.734375 256.140625 24.949219 C 255.710938 25.5625 255.46875 25.746094 255.253906 25.746094 C 254.976562 25.746094 254.792969 25.5 254.636719 24.949219 C 254.609375 24.792969 254.578125 24.671875 254.578125 24.609375 C 254.085938 22.613281 253.871094 21.722656 253.871094 21.449219 C 254.730469 19.914062 255.4375 19.054688 255.773438 19.054688 C 255.898438 19.054688 256.050781 19.113281 256.265625 19.207031 C 256.480469 19.359375 256.632812 19.390625 256.789062 19.390625 C 257.1875 19.390625 257.460938 19.113281 257.460938 18.683594 C 257.460938 18.285156 257.125 17.980469 256.664062 17.980469 C 255.804688 17.980469 255.066406 18.683594 253.71875 20.773438 L 253.503906 19.699219 C 253.226562 18.347656 253.011719 17.980469 252.457031 17.980469 C 252.027344 17.980469 251.382812 18.132812 250.1875 18.53125 L 249.972656 18.625 L 250.03125 18.898438 C 250.800781 18.746094 250.953125 18.683594 251.136719 18.683594 C 251.628906 18.683594 251.753906 18.867188 252.027344 20.035156 L 252.582031 22.460938 L 250.984375 24.734375 C 250.585938 25.347656 250.1875 25.683594 249.972656 25.683594 C 249.878906 25.683594 249.664062 25.621094 249.480469 25.5 C 249.234375 25.378906 249.019531 25.316406 248.835938 25.316406 C 248.46875 25.316406 248.191406 25.59375 248.191406 25.992188 C 248.191406 26.511719 248.589844 26.820312 249.171875 26.820312 C 249.757812 26.820312 250.003906 26.636719 250.984375 25.4375 C 251.507812 24.824219 251.9375 24.304688 252.734375 23.167969 L 253.347656 25.5 C 253.59375 26.511719 253.839844 26.820312 254.484375 26.820312 C 255.222656 26.820312 255.710938 26.359375 256.847656 24.578125 Z M 256.570312 24.425781 "/>
<path fill-rule="nonzero" fill="rgb(50.196078%, 50.196078%, 50.196078%)" fill-opacity="1" d="M 263.109375 21.691406 C 263.109375 20.1875 262.894531 17.824219 261.820312 15.585938 C 260.65625 13.1875 258.964844 11.898438 258.78125 11.898438 C 258.660156 11.898438 258.566406 11.992188 258.566406 12.113281 C 258.566406 12.175781 258.566406 12.207031 258.9375 12.574219 C 260.871094 14.507812 261.976562 17.609375 261.976562 21.691406 C 261.976562 25.070312 261.269531 28.507812 258.84375 30.964844 C 258.566406 31.210938 258.566406 31.242188 258.566406 31.300781 C 258.566406 31.425781 258.660156 31.515625 258.78125 31.515625 C 258.964844 31.515625 260.746094 30.167969 261.882812 27.679688 C 262.894531 25.53125 263.109375 23.351562 263.109375 21.691406 Z M 263.109375 21.691406 "/>
<path fill-rule="nonzero" fill="rgb(50.196078%, 50.196078%, 50.196078%)" fill-opacity="1" d="M 282.847656 20.1875 C 283.152344 20.1875 283.523438 20.1875 283.523438 19.820312 C 283.523438 19.421875 283.152344 19.421875 282.878906 19.421875 L 271.152344 19.421875 C 270.875 19.421875 270.507812 19.421875 270.507812 19.820312 C 270.507812 20.1875 270.875 20.1875 271.152344 20.1875 Z M 282.878906 23.996094 C 283.152344 23.996094 283.523438 23.996094 283.523438 23.597656 C 283.523438 23.226562 283.152344 23.226562 282.847656 23.226562 L 271.152344 23.226562 C 270.875 23.226562 270.507812 23.226562 270.507812 23.597656 C 270.507812 23.996094 270.875 23.996094 271.152344 23.996094 Z M 282.878906 23.996094 "/>
<path fill-rule="nonzero" fill="rgb(50.196078%, 50.196078%, 50.196078%)" fill-opacity="1" d="M 298.191406 16.898438 L 298.007812 16.835938 C 297.484375 17.664062 297.269531 17.789062 296.625 17.789062 L 293.15625 17.789062 L 295.613281 15.238281 C 296.902344 13.890625 297.453125 12.785156 297.453125 11.648438 C 297.453125 10.207031 296.285156 9.101562 294.78125 9.101562 C 293.984375 9.101562 293.21875 9.40625 292.695312 9.992188 C 292.234375 10.480469 292.019531 10.941406 291.773438 11.984375 L 292.082031 12.046875 C 292.632812 10.636719 293.15625 10.175781 294.167969 10.175781 C 295.398438 10.175781 296.226562 11.003906 296.226562 12.199219 C 296.226562 13.335938 295.550781 14.6875 294.320312 15.976562 L 291.742188 18.710938 L 291.742188 18.894531 L 297.390625 18.894531 Z M 298.191406 16.898438 "/>
<path fill-rule="nonzero" fill="rgb(50.196078%, 50.196078%, 50.196078%)" fill-opacity="1" d="M 304.390625 17.296875 C 304.265625 17.417969 304.203125 17.511719 304.050781 17.664062 C 303.746094 18.125 303.558594 18.25 303.40625 18.25 C 303.191406 18.25 303.039062 18.066406 302.945312 17.664062 C 302.914062 17.542969 302.914062 17.449219 302.882812 17.417969 C 302.515625 15.945312 302.363281 15.269531 302.363281 15.054688 C 303.007812 13.949219 303.527344 13.304688 303.773438 13.304688 C 303.867188 13.304688 303.988281 13.367188 304.144531 13.429688 C 304.296875 13.519531 304.417969 13.550781 304.511719 13.550781 C 304.820312 13.550781 305.035156 13.335938 305.035156 13.03125 C 305.035156 12.722656 304.789062 12.507812 304.449219 12.507812 C 303.804688 12.507812 303.253906 13.03125 302.238281 14.566406 L 302.085938 13.765625 C 301.902344 12.785156 301.71875 12.507812 301.347656 12.507812 C 301.011719 12.507812 300.519531 12.628906 299.628906 12.9375 L 299.476562 12.96875 L 299.539062 13.214844 C 300.089844 13.058594 300.214844 13.03125 300.367188 13.03125 C 300.703125 13.03125 300.796875 13.183594 301.011719 14.042969 L 301.410156 15.824219 L 300.246094 17.511719 C 299.9375 17.941406 299.660156 18.21875 299.507812 18.21875 C 299.414062 18.21875 299.261719 18.15625 299.109375 18.09375 C 298.925781 17.972656 298.769531 17.941406 298.648438 17.941406 C 298.371094 17.941406 298.15625 18.15625 298.15625 18.433594 C 298.15625 18.832031 298.464844 19.046875 298.894531 19.046875 C 299.324219 19.046875 299.507812 18.925781 300.246094 18.035156 C 300.613281 17.574219 300.917969 17.175781 301.535156 16.34375 L 301.964844 18.09375 C 302.179688 18.832031 302.363281 19.046875 302.824219 19.046875 C 303.375 19.046875 303.746094 18.710938 304.574219 17.390625 Z M 304.390625 17.296875 "/>
<path fill-rule="nonzero" fill="rgb(50.196078%, 50.196078%, 50.196078%)" fill-opacity="1" d="M 310.957031 15.546875 L 315.007812 15.546875 C 315.195312 15.546875 315.46875 15.546875 315.46875 15.269531 C 315.46875 14.996094 315.195312 14.996094 315.007812 14.996094 L 310.957031 14.996094 L 310.957031 10.910156 C 310.957031 10.726562 310.957031 10.449219 310.679688 10.449219 C 310.375 10.449219 310.375 10.726562 310.375 10.910156 L 310.375 14.996094 L 306.320312 14.996094 C 306.105469 14.996094 305.828125 14.996094 305.828125 15.269531 C 305.828125 15.546875 306.105469 15.546875 306.320312 15.546875 L 310.375 15.546875 L 310.375 19.628906 C 310.375 19.8125 310.375 20.089844 310.679688 20.089844 C 310.957031 20.089844 310.957031 19.8125 310.957031 19.628906 Z M 310.957031 15.546875 "/>
<path fill-rule="nonzero" fill="rgb(50.196078%, 50.196078%, 50.196078%)" fill-opacity="1" d="M 320.492188 9.101562 L 317.882812 10.421875 L 317.882812 10.605469 C 318.066406 10.542969 318.21875 10.480469 318.28125 10.449219 C 318.558594 10.359375 318.804688 10.296875 318.925781 10.296875 C 319.234375 10.296875 319.386719 10.511719 319.386719 10.972656 L 319.386719 17.542969 C 319.386719 18.035156 319.265625 18.371094 319.019531 18.496094 C 318.804688 18.617188 318.621094 18.648438 318.003906 18.679688 L 318.003906 18.894531 L 321.996094 18.894531 L 321.996094 18.679688 C 320.859375 18.648438 320.613281 18.523438 320.613281 17.820312 L 320.613281 9.132812 Z M 320.492188 9.101562 "/>
<path fill="none" stroke-width="0.398" stroke-linecap="butt" stroke-linejoin="miter" stroke="rgb(50.196078%, 50.196078%, 50.196078%)" stroke-opacity="1" stroke-miterlimit="10" d="M -0.000588558 0.00000146061 L 16.397466 0.00000146061 " transform="matrix(1.964791, 0, 0, -1.964791, 291.313656, 21.71094)"/>
<path fill-rule="nonzero" fill="rgb(50.196078%, 50.196078%, 50.196078%)" fill-opacity="1" d="M 297.34375 33.332031 C 297.21875 33.453125 297.160156 33.546875 297.003906 33.699219 C 296.699219 34.160156 296.515625 34.285156 296.359375 34.285156 C 296.144531 34.285156 295.992188 34.097656 295.898438 33.699219 C 295.871094 33.578125 295.871094 33.484375 295.839844 33.453125 C 295.46875 31.980469 295.316406 31.304688 295.316406 31.089844 C 295.960938 29.984375 296.484375 29.339844 296.730469 29.339844 C 296.820312 29.339844 296.945312 29.402344 297.097656 29.464844 C 297.25 29.554688 297.375 29.585938 297.464844 29.585938 C 297.773438 29.585938 297.988281 29.371094 297.988281 29.0625 C 297.988281 28.757812 297.742188 28.542969 297.40625 28.542969 C 296.761719 28.542969 296.207031 29.0625 295.195312 30.597656 L 295.039062 29.800781 C 294.855469 28.820312 294.671875 28.542969 294.304688 28.542969 C 293.964844 28.542969 293.476562 28.664062 292.585938 28.972656 L 292.429688 29.003906 L 292.492188 29.25 C 293.046875 29.09375 293.167969 29.0625 293.320312 29.0625 C 293.660156 29.0625 293.75 29.21875 293.964844 30.078125 L 294.363281 31.859375 L 293.199219 33.546875 C 292.890625 33.976562 292.617188 34.253906 292.460938 34.253906 C 292.371094 34.253906 292.214844 34.191406 292.0625 34.128906 C 291.878906 34.007812 291.726562 33.976562 291.601562 33.976562 C 291.324219 33.976562 291.109375 34.191406 291.109375 34.46875 C 291.109375 34.867188 291.417969 35.082031 291.847656 35.082031 C 292.277344 35.082031 292.460938 34.957031 293.199219 34.070312 C 293.566406 33.609375 293.875 33.207031 294.488281 32.378906 L 294.917969 34.128906 C 295.132812 34.867188 295.316406 35.082031 295.777344 35.082031 C 296.328125 35.082031 296.699219 34.742188 297.527344 33.421875 Z M 297.34375 33.332031 "/>
<path fill-rule="nonzero" fill="rgb(50.196078%, 50.196078%, 50.196078%)" fill-opacity="1" d="M 303.570312 29.148438 L 303.417969 29.085938 C 302.988281 29.730469 302.835938 29.851562 302.3125 29.851562 L 299.488281 29.851562 L 301.453125 27.765625 C 302.496094 26.691406 302.957031 25.800781 302.957031 24.878906 C 302.957031 23.710938 302.003906 22.792969 300.808594 22.792969 C 300.132812 22.792969 299.550781 23.066406 299.089844 23.527344 C 298.722656 23.925781 298.535156 24.296875 298.351562 25.125 L 298.597656 25.1875 C 299.058594 24.050781 299.488281 23.652344 300.285156 23.652344 C 301.300781 23.652344 301.945312 24.328125 301.945312 25.308594 C 301.945312 26.230469 301.421875 27.335938 300.441406 28.378906 L 298.320312 30.589844 L 298.320312 30.742188 L 302.925781 30.742188 Z M 303.570312 29.148438 "/>
<path fill-rule="nonzero" fill="rgb(50.196078%, 50.196078%, 50.196078%)" fill-opacity="1" d="M 314.382812 31.582031 C 314.628906 31.582031 314.90625 31.582031 314.90625 31.304688 C 314.90625 31.027344 314.628906 31.027344 314.382812 31.027344 L 306.554688 31.027344 C 306.308594 31.027344 306.03125 31.027344 306.03125 31.304688 C 306.03125 31.582031 306.308594 31.582031 306.554688 31.582031 Z M 314.382812 31.582031 "/>
<path fill-rule="nonzero" fill="rgb(50.196078%, 50.196078%, 50.196078%)" fill-opacity="1" d="M 320.296875 25.136719 L 317.6875 26.453125 L 317.6875 26.640625 C 317.871094 26.578125 318.023438 26.515625 318.085938 26.484375 C 318.363281 26.394531 318.605469 26.332031 318.730469 26.332031 C 319.035156 26.332031 319.191406 26.546875 319.191406 27.007812 L 319.191406 33.578125 C 319.191406 34.070312 319.066406 34.40625 318.820312 34.527344 C 318.605469 34.652344 318.421875 34.683594 317.808594 34.714844 L 317.808594 34.929688 L 321.800781 34.929688 L 321.800781 34.714844 C 320.664062 34.683594 320.417969 34.558594 320.417969 33.855469 L 320.417969 25.164062 Z M 320.296875 25.136719 "/>
</svg>
