<?xml version="1.0" encoding="UTF-8"?>
<svg xmlns="http://www.w3.org/2000/svg" xmlns:xlink="http://www.w3.org/1999/xlink" width="400" height="183.191816" viewBox="0 0 400 183.191816">
<defs>
<clipPath id="clip-0">
<path clip-rule="nonzero" d="M 43.054688 32 L 357 32 L 357 183 L 43.054688 183 Z M 43.054688 32 "/>
</clipPath>
<clipPath id="clip-1">
<path clip-rule="nonzero" d="M 1 57.402344 L 399 57.402344 L 399 157.859375 L 1 157.859375 Z M 1 57.402344 "/>
</clipPath>
<clipPath id="clip-2">
<path clip-rule="nonzero" d="M 199.320312 35.082031 L 200.914062 35.082031 L 200.914062 183 L 199.320312 183 Z M 199.320312 35.082031 "/>
</clipPath>
<clipPath id="clip-3">
<path clip-rule="nonzero" d="M 1.113281 35.082031 L 398.886719 35.082031 L 398.886719 180 L 1.113281 180 Z M 1.113281 35.082031 "/>
</clipPath>
</defs>
<g clip-path="url(#clip-0)">
<path fill="none" stroke-width="0.09962" stroke-linecap="butt" stroke-linejoin="miter" stroke="rgb(69.803922%, 69.803922%, 69.803922%)" stroke-opacity="1" stroke-dasharray="2.98883 2.98883" stroke-miterlimit="10" d="M 26.765104 -0.00057024 L 26.765104 93.545436 M 75.750228 -0.00057024 L 75.750228 93.545436 M 173.710676 -0.00057024 L 173.710676 93.545436 M 222.6909 -0.00057024 L 222.6909 93.545436 " transform="matrix(1.594553, 0, 0, -1.594553, 1.114593, 182.077216)"/>
</g>
<g clip-path="url(#clip-1)">
<path fill="none" stroke-width="0.09962" stroke-linecap="butt" stroke-linejoin="miter" stroke="rgb(69.803922%, 69.803922%, 69.803922%)" stroke-opacity="1" stroke-dasharray="2.98883 2.98883" stroke-miterlimit="10" d="M -0.000822353 15.589614 L 249.456826 15.589614 M -0.000822353 77.957701 L 249.456826 77.957701 " transform="matrix(1.594553, 0, 0, -1.594553, 1.114593, 182.077216)"/>
</g>
<path fill="none" stroke-width="0.19925" stroke-linecap="butt" stroke-linejoin="miter" stroke="rgb(50.196078%, 50.196078%, 50.196078%)" stroke-opacity="1" stroke-miterlimit="10" d="M 26.765104 44.648503 L 26.765104 48.898812 M 75.750228 44.648503 L 75.750228 48.898812 M 173.710676 44.648503 L 173.710676 48.898812 M 222.6909 44.648503 L 222.6909 48.898812 " transform="matrix(1.594553, 0, 0, -1.594553, 1.114593, 182.077216)"/>
<path fill="none" stroke-width="0.19925" stroke-linecap="butt" stroke-linejoin="miter" stroke="rgb(50.196078%, 50.196078%, 50.196078%)" stroke-opacity="1" stroke-miterlimit="10" d="M 122.601622 15.589614 L 126.856831 15.589614 M 122.601622 77.957701 L 126.856831 77.957701 " transform="matrix(1.594553, 0, 0, -1.594553, 1.114593, 182.077216)"/>
<path fill="none" stroke-width="0.3985" stroke-linecap="butt" stroke-linejoin="miter" stroke="rgb(50.196078%, 50.196078%, 50.196078%)" stroke-opacity="1" stroke-miterlimit="10" d="M -0.000822353 46.772433 L 247.465183 46.772433 " transform="matrix(1.594553, 0, 0, -1.594553, 1.114593, 182.077216)"/>
<path fill-rule="nonzero" fill="rgb(50.196078%, 50.196078%, 50.196078%)" fill-opacity="1" d="M 398.886719 107.496094 L 393.804688 104.953125 L 395.710938 107.496094 L 393.804688 110.035156 "/>
<g clip-path="url(#clip-2)">
<path fill="none" stroke-width="0.3985" stroke-linecap="butt" stroke-linejoin="miter" stroke="rgb(50.196078%, 50.196078%, 50.196078%)" stroke-opacity="1" stroke-miterlimit="10" d="M 124.730452 -0.00057024 L 124.730452 91.553792 " transform="matrix(1.594553, 0, 0, -1.594553, 1.114593, 182.077216)"/>
</g>
<path fill-rule="nonzero" fill="rgb(50.196078%, 50.196078%, 50.196078%)" fill-opacity="1" d="M 200.003906 32.914062 L 197.464844 37.996094 L 200.003906 36.089844 L 202.546875 37.996094 "/>
<path fill-rule="nonzero" fill="rgb(50.196078%, 50.196078%, 50.196078%)" fill-opacity="1" d="M 43.085938 122.097656 C 43.359375 122.097656 43.65625 122.097656 43.65625 121.773438 C 43.65625 121.472656 43.359375 121.472656 43.085938 121.472656 L 34.488281 121.472656 C 34.214844 121.472656 33.941406 121.472656 33.941406 121.773438 C 33.941406 122.097656 34.214844 122.097656 34.488281 122.097656 Z M 43.085938 122.097656 "/>
<path fill-rule="nonzero" fill="rgb(50.196078%, 50.196078%, 50.196078%)" fill-opacity="1" d="M 46.359375 120.226562 C 47.03125 119.40625 47.332031 119.230469 48.101562 119.230469 L 48.824219 119.230469 L 47.828125 122.746094 C 47.679688 123.191406 47.40625 123.542969 46.78125 124.039062 C 46.207031 124.488281 46.035156 124.738281 45.984375 125.085938 C 45.910156 125.558594 46.207031 125.957031 46.707031 125.957031 C 47.207031 125.957031 47.652344 125.609375 47.976562 124.910156 C 48.175781 124.511719 48.675781 122.894531 49.074219 121.273438 L 49.621094 119.230469 L 51.339844 119.230469 C 50.941406 120.476562 50.519531 122.195312 50.371094 123.09375 C 50.070312 124.886719 50.496094 125.957031 51.464844 125.957031 C 52.089844 125.957031 52.710938 125.535156 53.210938 124.789062 C 53.507812 124.339844 53.632812 124.039062 53.808594 123.242188 L 53.410156 123.242188 C 53.210938 124.015625 52.835938 124.414062 52.3125 124.414062 C 52.015625 124.414062 51.714844 124.191406 51.589844 123.839844 C 51.492188 123.566406 51.492188 123.316406 51.566406 122.792969 C 51.789062 121.574219 52.089844 120.105469 52.363281 119.230469 L 54.382812 119.230469 L 54.605469 117.8125 L 49.050781 117.8125 C 48.203125 117.8125 47.851562 117.910156 47.332031 118.359375 C 46.808594 118.808594 46.484375 119.28125 46.035156 120.226562 Z M 46.359375 120.226562 "/>
<path fill-rule="nonzero" fill="rgb(50.196078%, 50.196078%, 50.196078%)" fill-opacity="1" d="M 113.246094 124.664062 C 113.519531 124.664062 113.816406 124.664062 113.816406 124.339844 C 113.816406 124.039062 113.519531 124.039062 113.246094 124.039062 L 104.648438 124.039062 C 104.375 124.039062 104.101562 124.039062 104.101562 124.339844 C 104.101562 124.664062 104.375 124.664062 104.648438 124.664062 Z M 113.246094 124.664062 "/>
<path fill-rule="nonzero" fill="rgb(50.196078%, 50.196078%, 50.196078%)" fill-opacity="1" d="M 116.519531 122.792969 C 117.191406 121.972656 117.492188 121.796875 118.261719 121.796875 L 118.984375 121.796875 L 117.988281 125.308594 C 117.839844 125.757812 117.566406 126.105469 116.941406 126.605469 C 116.371094 127.054688 116.195312 127.304688 116.144531 127.652344 C 116.070312 128.125 116.371094 128.523438 116.867188 128.523438 C 117.367188 128.523438 117.8125 128.175781 118.136719 127.476562 C 118.335938 127.078125 118.835938 125.460938 119.234375 123.839844 L 119.78125 121.796875 L 121.5 121.796875 C 121.101562 123.042969 120.679688 124.761719 120.53125 125.660156 C 120.230469 127.453125 120.65625 128.523438 121.625 128.523438 C 122.25 128.523438 122.871094 128.101562 123.371094 127.351562 C 123.667969 126.90625 123.792969 126.605469 123.96875 125.808594 L 123.570312 125.808594 C 123.371094 126.582031 122.996094 126.980469 122.472656 126.980469 C 122.175781 126.980469 121.875 126.753906 121.75 126.40625 C 121.652344 126.132812 121.652344 125.882812 121.726562 125.359375 C 121.949219 124.140625 122.25 122.667969 122.523438 121.796875 L 124.542969 121.796875 L 124.765625 120.378906 L 119.210938 120.378906 C 118.363281 120.378906 118.011719 120.476562 117.492188 120.925781 C 116.96875 121.375 116.644531 121.847656 116.195312 122.792969 Z M 116.519531 122.792969 "/>
<path fill-rule="nonzero" fill="rgb(50.196078%, 50.196078%, 50.196078%)" fill-opacity="1" d="M 132.105469 117.011719 C 132.183594 116.789062 132.183594 116.738281 132.183594 116.714844 C 132.183594 116.539062 132.058594 116.390625 131.882812 116.390625 C 131.757812 116.390625 131.660156 116.441406 131.609375 116.539062 L 126.078125 131.6875 C 126.003906 131.914062 126.003906 131.960938 126.003906 131.988281 C 126.003906 132.160156 126.152344 132.3125 126.328125 132.3125 C 126.527344 132.3125 126.574219 132.1875 126.675781 131.914062 Z M 132.105469 117.011719 "/>
<path fill-rule="nonzero" fill="rgb(50.196078%, 50.196078%, 50.196078%)" fill-opacity="1" d="M 140.621094 126.15625 L 140.421875 126.058594 C 139.824219 126.980469 139.625 127.128906 138.902344 127.128906 L 135.117188 127.128906 L 137.78125 124.3125 C 139.203125 122.84375 139.824219 121.621094 139.824219 120.402344 C 139.824219 118.808594 138.53125 117.585938 136.859375 117.585938 C 135.988281 117.585938 135.167969 117.933594 134.59375 118.558594 C 134.070312 119.105469 133.847656 119.605469 133.570312 120.75 L 133.894531 120.824219 C 134.542969 119.253906 135.117188 118.757812 136.210938 118.757812 C 137.53125 118.757812 138.453125 119.65625 138.453125 121 C 138.453125 122.246094 137.707031 123.714844 136.386719 125.136719 L 133.546875 128.125 L 133.546875 128.324219 L 139.75 128.324219 Z M 140.621094 126.15625 "/>
<path fill-rule="nonzero" fill="rgb(50.196078%, 50.196078%, 50.196078%)" fill-opacity="1" d="M 266.550781 122.792969 C 267.222656 121.972656 267.523438 121.796875 268.292969 121.796875 L 269.015625 121.796875 L 268.019531 125.308594 C 267.871094 125.757812 267.597656 126.105469 266.972656 126.605469 C 266.402344 127.054688 266.226562 127.304688 266.175781 127.652344 C 266.101562 128.125 266.402344 128.523438 266.898438 128.523438 C 267.398438 128.523438 267.847656 128.175781 268.167969 127.476562 C 268.367188 127.078125 268.867188 125.460938 269.265625 123.839844 L 269.8125 121.796875 L 271.535156 121.796875 C 271.132812 123.042969 270.710938 124.761719 270.5625 125.660156 C 270.261719 127.453125 270.6875 128.523438 271.65625 128.523438 C 272.28125 128.523438 272.902344 128.101562 273.402344 127.351562 C 273.699219 126.90625 273.824219 126.605469 274 125.808594 L 273.601562 125.808594 C 273.402344 126.582031 273.027344 126.980469 272.503906 126.980469 C 272.207031 126.980469 271.90625 126.753906 271.78125 126.40625 C 271.683594 126.132812 271.683594 125.882812 271.757812 125.359375 C 271.980469 124.140625 272.28125 122.667969 272.554688 121.796875 L 274.574219 121.796875 L 274.796875 120.378906 L 269.242188 120.378906 C 268.394531 120.378906 268.046875 120.476562 267.523438 120.925781 C 267 121.375 266.675781 121.847656 266.226562 122.792969 Z M 266.550781 122.792969 "/>
<path fill-rule="nonzero" fill="rgb(50.196078%, 50.196078%, 50.196078%)" fill-opacity="1" d="M 282.136719 117.011719 C 282.214844 116.789062 282.214844 116.738281 282.214844 116.714844 C 282.214844 116.539062 282.089844 116.390625 281.914062 116.390625 C 281.789062 116.390625 281.691406 116.441406 281.640625 116.539062 L 276.109375 131.6875 C 276.035156 131.914062 276.035156 131.960938 276.035156 131.988281 C 276.035156 132.160156 276.183594 132.3125 276.359375 132.3125 C 276.558594 132.3125 276.609375 132.1875 276.707031 131.914062 Z M 282.136719 117.011719 "/>
<path fill-rule="nonzero" fill="rgb(50.196078%, 50.196078%, 50.196078%)" fill-opacity="1" d="M 290.652344 126.15625 L 290.453125 126.058594 C 289.855469 126.980469 289.65625 127.128906 288.933594 127.128906 L 285.148438 127.128906 L 287.8125 124.3125 C 289.234375 122.84375 289.855469 121.621094 289.855469 120.402344 C 289.855469 118.808594 288.5625 117.585938 286.890625 117.585938 C 286.019531 117.585938 285.199219 117.933594 284.625 118.558594 C 284.101562 119.105469 283.878906 119.605469 283.601562 120.75 L 283.925781 120.824219 C 284.574219 119.253906 285.148438 118.757812 286.246094 118.757812 C 287.566406 118.757812 288.488281 119.65625 288.488281 121 C 288.488281 122.246094 287.738281 123.714844 286.417969 125.136719 L 283.578125 128.125 L 283.578125 128.324219 L 289.78125 128.324219 Z M 290.652344 126.15625 "/>
<path fill-rule="nonzero" fill="rgb(50.196078%, 50.196078%, 50.196078%)" fill-opacity="1" d="M 352.59375 118.804688 C 353.265625 117.984375 353.566406 117.808594 354.339844 117.808594 L 355.058594 117.808594 L 354.0625 121.320312 C 353.914062 121.769531 353.640625 122.121094 353.015625 122.617188 C 352.445312 123.066406 352.269531 123.316406 352.21875 123.664062 C 352.144531 124.136719 352.445312 124.535156 352.941406 124.535156 C 353.441406 124.535156 353.890625 124.1875 354.214844 123.488281 C 354.414062 123.089844 354.910156 121.472656 355.308594 119.851562 L 355.859375 117.808594 L 357.578125 117.808594 C 357.179688 119.054688 356.753906 120.773438 356.605469 121.671875 C 356.304688 123.464844 356.730469 124.535156 357.703125 124.535156 C 358.324219 124.535156 358.945312 124.113281 359.445312 123.363281 C 359.746094 122.917969 359.867188 122.617188 360.042969 121.820312 L 359.644531 121.820312 C 359.445312 122.59375 359.070312 122.992188 358.546875 122.992188 C 358.25 122.992188 357.949219 122.765625 357.824219 122.417969 C 357.726562 122.144531 357.726562 121.894531 357.800781 121.371094 C 358.023438 120.152344 358.324219 118.679688 358.597656 117.808594 L 360.617188 117.808594 L 360.839844 116.390625 L 355.285156 116.390625 C 354.4375 116.390625 354.089844 116.488281 353.566406 116.9375 C 353.042969 117.386719 352.71875 117.859375 352.269531 118.804688 Z M 352.59375 118.804688 "/>
<path fill-rule="nonzero" fill="rgb(50.196078%, 50.196078%, 50.196078%)" fill-opacity="1" d="M 181.175781 158.207031 C 181.449219 158.207031 181.75 158.207031 181.75 157.882812 C 181.75 157.585938 181.449219 157.585938 181.175781 157.585938 L 172.578125 157.585938 C 172.304688 157.585938 172.03125 157.585938 172.03125 157.882812 C 172.03125 158.207031 172.304688 158.207031 172.578125 158.207031 Z M 181.175781 158.207031 "/>
<path fill-rule="nonzero" fill="rgb(50.196078%, 50.196078%, 50.196078%)" fill-opacity="1" d="M 187.6875 151.132812 L 184.824219 152.578125 L 184.824219 152.800781 C 185 152.726562 185.171875 152.652344 185.246094 152.628906 C 185.546875 152.503906 185.796875 152.453125 185.96875 152.453125 C 186.292969 152.453125 186.441406 152.675781 186.441406 153.199219 L 186.441406 160.402344 C 186.441406 160.925781 186.320312 161.273438 186.070312 161.421875 C 185.820312 161.570312 185.597656 161.621094 184.921875 161.621094 L 184.921875 161.871094 L 189.308594 161.871094 L 189.308594 161.621094 C 188.0625 161.621094 187.8125 161.449219 187.8125 160.699219 L 187.8125 151.15625 Z M 187.6875 151.132812 "/>
<path fill-rule="nonzero" fill="rgb(50.196078%, 50.196078%, 50.196078%)" fill-opacity="1" d="M 187.6875 52.351562 L 184.824219 53.796875 L 184.824219 54.019531 C 185 53.945312 185.171875 53.871094 185.246094 53.84375 C 185.546875 53.71875 185.796875 53.671875 185.96875 53.671875 C 186.292969 53.671875 186.441406 53.894531 186.441406 54.417969 L 186.441406 61.617188 C 186.441406 62.140625 186.320312 62.492188 186.070312 62.640625 C 185.820312 62.789062 185.597656 62.839844 184.921875 62.839844 L 184.921875 63.089844 L 189.308594 63.089844 L 189.308594 62.839844 C 188.0625 62.839844 187.8125 62.664062 187.8125 61.917969 L 187.8125 52.375 Z M 187.6875 52.351562 "/>
<g clip-path="url(#clip-3)">
<path fill="none" stroke-width="0.99628" stroke-linecap="butt" stroke-linejoin="miter" stroke="rgb(6.666667%, 52.941176%, 87.058824%)" stroke-opacity="1" stroke-miterlimit="10" d="M -0.000822353 26.390545 L 2.519966 24.553235 L 5.038305 22.858011 L 7.559094 21.32447 L 10.077433 19.952612 L 12.598222 18.757136 L 15.116561 17.740491 L 17.63735 16.922276 L 20.155689 16.287792 L 22.676478 15.859086 L 25.194817 15.63126 L 27.718055 15.604313 L 30.238844 15.785594 L 32.757183 16.162855 L 35.277972 16.745894 L 37.796311 17.522464 L 40.317099 18.487664 L 42.835439 19.639044 L 45.356227 20.969257 L 47.874566 22.468501 L 50.395355 24.12453 L 52.913694 25.925093 L 55.434483 27.867742 L 57.952822 29.927978 L 60.473611 32.105803 L 62.99195 34.371818 L 65.512738 36.721124 L 68.031077 39.136574 L 70.551866 41.601019 L 73.075105 44.102209 L 75.593444 46.615649 L 78.114233 49.136438 L 80.632572 51.635179 L 83.15336 54.104523 L 85.671699 56.529771 L 88.192488 58.886427 L 90.710827 61.167141 L 93.231616 63.354764 L 95.749955 65.429699 L 98.270744 67.387046 L 100.789083 69.207208 L 103.309872 70.882834 L 105.828211 72.396777 L 108.348999 73.749037 L 110.867338 74.924915 L 113.388127 75.914613 L 115.906466 76.71323 L 118.429705 77.320767 L 120.950493 77.724975 L 123.468832 77.928304 L 125.989621 77.928304 L 128.50796 77.724975 L 131.028749 77.320767 L 133.547088 76.71323 L 136.065427 75.917062 L 138.586216 74.924915 L 141.104555 73.753937 L 143.625344 72.401677 L 146.143683 70.885284 L 148.664471 69.209657 L 151.18281 67.389496 L 153.703599 65.432149 L 156.221938 63.359664 L 158.742727 61.17204 L 161.261066 58.891327 L 163.781855 56.529771 L 166.305093 54.109422 L 168.823432 51.640078 L 171.344221 49.141337 L 173.86256 46.620548 L 176.383349 44.104659 L 178.901688 41.605918 L 181.422477 39.139024 L 183.940816 36.726024 L 186.461604 34.374267 L 188.979943 32.105803 L 191.500732 29.932878 L 194.019071 27.870192 L 196.53986 25.929993 L 199.058199 24.129429 L 201.578988 22.470951 L 204.097327 20.971706 L 206.618116 19.643944 L 209.136455 18.492563 L 211.659693 17.522464 L 214.180482 16.748344 L 216.698821 16.167754 L 219.21961 15.785594 L 221.737949 15.609212 L 224.258738 15.63126 L 226.777077 15.859086 L 229.297865 16.287792 L 231.816204 16.917377 L 234.336993 17.740491 L 236.855332 18.752236 L 239.376121 19.947713 L 241.89446 21.32447 L 244.415249 22.858011 L 246.933588 24.550785 L 249.454377 26.390545 " transform="matrix(1.594553, 0, 0, -1.594553, 1.114593, 182.077216)"/>
</g>
<path fill="none" stroke-width="0.79701" stroke-linecap="butt" stroke-linejoin="miter" stroke="rgb(100%, 12.941176%, 32.156863%)" stroke-opacity="1" stroke-miterlimit="10" d="M 31.429421 46.772433 L 218.026583 46.772433 " transform="matrix(1.594553, 0, 0, -1.594553, 1.114593, 182.077216)"/>
<path fill-rule="nonzero" fill="rgb(100%, 12.941176%, 32.156863%)" fill-opacity="1" d="M 43.792969 107.496094 C 46 107.90625 49.582031 109.144531 52.058594 110.589844 L 52.058594 104.398438 C 49.582031 105.84375 46 107.085938 43.792969 107.496094 "/>
<path fill-rule="nonzero" fill="rgb(100%, 12.941176%, 32.156863%)" fill-opacity="1" d="M 356.207031 107.496094 C 354.003906 107.085938 350.429688 105.84375 347.949219 104.398438 L 347.949219 110.589844 C 350.429688 109.144531 354.003906 107.90625 356.207031 107.496094 "/>
<path fill-rule="nonzero" fill="rgb(100%, 12.941176%, 32.156863%)" fill-opacity="1" d="M 167.542969 96.980469 C 167.941406 97.027344 168.214844 97.027344 168.636719 97.027344 C 169.882812 97.027344 170.730469 96.878906 171.429688 96.503906 C 172.375 95.980469 172.949219 95.011719 172.949219 93.964844 C 172.949219 93.292969 172.722656 92.691406 172.300781 92.246094 C 171.652344 91.546875 170.28125 91.097656 168.789062 91.097656 L 164.578125 91.097656 L 164.578125 91.398438 C 165.75 91.523438 165.921875 91.671875 165.921875 92.816406 L 165.921875 99.695312 C 165.921875 101.039062 165.796875 101.1875 164.578125 101.3125 L 164.578125 101.613281 L 169.039062 101.613281 L 169.039062 101.3125 C 167.765625 101.265625 167.542969 101.039062 167.542969 99.867188 Z M 167.542969 92.21875 C 167.542969 91.796875 167.640625 91.671875 168.089844 91.671875 C 170.234375 91.671875 171.203125 92.417969 171.203125 94.0625 C 171.203125 95.609375 170.28125 96.40625 168.4375 96.40625 C 168.117188 96.40625 167.914062 96.378906 167.542969 96.355469 Z M 167.542969 92.21875 "/>
<path fill-rule="nonzero" fill="rgb(100%, 12.941176%, 32.156863%)" fill-opacity="1" d="M 179.640625 98.996094 C 178.890625 100.21875 178.195312 100.667969 177.171875 100.667969 C 176.273438 100.667969 175.601562 100.21875 175.128906 99.296875 C 174.855469 98.699219 174.730469 98.175781 174.707031 97.203125 L 179.589844 97.203125 C 179.464844 96.179688 179.316406 95.707031 178.917969 95.210938 C 178.441406 94.636719 177.695312 94.3125 176.875 94.3125 C 176.074219 94.3125 175.328125 94.585938 174.730469 95.136719 C 173.984375 95.78125 173.558594 96.902344 173.558594 98.199219 C 173.558594 100.417969 174.707031 101.761719 176.523438 101.761719 C 178.042969 101.761719 179.238281 100.839844 179.914062 99.121094 Z M 174.730469 96.703125 C 174.90625 95.457031 175.453125 94.859375 176.425781 94.859375 C 177.394531 94.859375 177.769531 95.308594 177.96875 96.703125 Z M 174.730469 96.703125 "/>
<path fill-rule="nonzero" fill="rgb(100%, 12.941176%, 32.156863%)" fill-opacity="1" d="M 180.3125 95.410156 C 180.539062 95.359375 180.6875 95.359375 180.886719 95.359375 C 181.285156 95.359375 181.410156 95.609375 181.410156 96.304688 L 181.410156 100.265625 C 181.410156 101.066406 181.308594 101.1875 180.289062 101.363281 L 180.289062 101.613281 L 184.101562 101.613281 L 184.101562 101.363281 C 183.03125 101.339844 182.753906 101.089844 182.753906 100.191406 L 182.753906 96.605469 C 182.753906 96.105469 183.453125 95.308594 183.875 95.308594 C 183.976562 95.308594 184.101562 95.382812 184.273438 95.535156 C 184.550781 95.757812 184.722656 95.859375 184.921875 95.859375 C 185.296875 95.859375 185.546875 95.582031 185.546875 95.136719 C 185.546875 94.613281 185.195312 94.3125 184.675781 94.3125 C 184 94.3125 183.527344 94.660156 182.753906 95.78125 L 182.753906 94.335938 L 182.679688 94.3125 C 181.832031 94.660156 181.261719 94.859375 180.3125 95.160156 Z M 180.3125 95.410156 "/>
<path fill-rule="nonzero" fill="rgb(100%, 12.941176%, 32.156863%)" fill-opacity="1" d="M 188.292969 94.3125 L 185.828125 95.183594 L 185.828125 95.410156 L 185.953125 95.410156 C 186.152344 95.359375 186.351562 95.359375 186.5 95.359375 C 186.875 95.359375 187.023438 95.609375 187.023438 96.304688 L 187.023438 99.992188 C 187.023438 101.140625 186.847656 101.3125 185.753906 101.363281 L 185.753906 101.613281 L 189.515625 101.613281 L 189.515625 101.363281 C 188.46875 101.289062 188.34375 101.140625 188.34375 99.992188 L 188.34375 94.335938 Z M 187.546875 90.75 C 187.097656 90.75 186.75 91.125 186.75 91.570312 C 186.75 92.019531 187.097656 92.371094 187.546875 92.371094 C 187.996094 92.371094 188.371094 92.019531 188.371094 91.570312 C 188.371094 91.125 187.996094 90.75 187.546875 90.75 Z M 187.546875 90.75 "/>
<path fill-rule="nonzero" fill="rgb(100%, 12.941176%, 32.156863%)" fill-opacity="1" d="M 193.90625 94.3125 C 191.839844 94.3125 190.394531 95.832031 190.394531 98.023438 C 190.394531 100.167969 191.863281 101.761719 193.855469 101.761719 C 195.875 101.761719 197.394531 100.09375 197.394531 97.902344 C 197.394531 95.808594 195.925781 94.3125 193.90625 94.3125 Z M 193.683594 94.738281 C 195.027344 94.738281 195.949219 96.28125 195.949219 98.449219 C 195.949219 100.242188 195.253906 101.339844 194.054688 101.339844 C 193.433594 101.339844 192.835938 100.941406 192.511719 100.316406 C 192.0625 99.496094 191.8125 98.375 191.8125 97.253906 C 191.8125 95.734375 192.5625 94.738281 193.683594 94.738281 Z M 193.683594 94.738281 "/>
<path fill-rule="nonzero" fill="rgb(100%, 12.941176%, 32.156863%)" fill-opacity="1" d="M 203.320312 101.761719 L 205.660156 100.941406 L 205.660156 100.691406 C 205.386719 100.714844 205.335938 100.714844 205.3125 100.714844 C 204.738281 100.714844 204.617188 100.542969 204.617188 99.792969 L 204.617188 90.800781 L 204.515625 90.75 C 203.769531 91.023438 203.195312 91.171875 202.199219 91.449219 L 202.199219 91.722656 C 202.324219 91.695312 202.398438 91.695312 202.546875 91.695312 C 203.121094 91.695312 203.269531 91.847656 203.269531 92.492188 L 203.269531 94.984375 C 202.671875 94.488281 202.222656 94.3125 201.601562 94.3125 C 199.78125 94.3125 198.285156 96.105469 198.285156 98.347656 C 198.285156 100.390625 199.484375 101.761719 201.226562 101.761719 C 202.125 101.761719 202.722656 101.464844 203.269531 100.714844 L 203.269531 101.710938 Z M 203.269531 99.992188 C 203.269531 100.09375 203.144531 100.292969 202.996094 100.46875 C 202.722656 100.789062 202.324219 100.941406 201.851562 100.941406 C 200.527344 100.941406 199.65625 99.667969 199.65625 97.726562 C 199.65625 95.933594 200.429688 94.738281 201.652344 94.738281 C 202.496094 94.738281 203.269531 95.484375 203.269531 96.332031 Z M 203.269531 99.992188 "/>
<path fill-rule="nonzero" fill="rgb(100%, 12.941176%, 32.156863%)" fill-opacity="1" d="M 209.792969 94.3125 C 207.726562 94.3125 206.28125 95.832031 206.28125 98.023438 C 206.28125 100.167969 207.75 101.761719 209.742188 101.761719 C 211.761719 101.761719 213.28125 100.09375 213.28125 97.902344 C 213.28125 95.808594 211.8125 94.3125 209.792969 94.3125 Z M 209.570312 94.738281 C 210.914062 94.738281 211.835938 96.28125 211.835938 98.449219 C 211.835938 100.242188 211.136719 101.339844 209.941406 101.339844 C 209.320312 101.339844 208.722656 100.941406 208.398438 100.316406 C 207.949219 99.496094 207.699219 98.375 207.699219 97.253906 C 207.699219 95.734375 208.449219 94.738281 209.570312 94.738281 Z M 209.570312 94.738281 "/>
<path fill-rule="nonzero" fill="rgb(100%, 12.941176%, 32.156863%)" fill-opacity="1" d="M 225.269531 99.445312 L 225.070312 99.34375 C 224.472656 100.265625 224.273438 100.417969 223.550781 100.417969 L 219.765625 100.417969 L 222.429688 97.601562 C 223.851562 96.132812 224.472656 94.910156 224.472656 93.691406 C 224.472656 92.09375 223.175781 90.875 221.507812 90.875 C 220.636719 90.875 219.8125 91.222656 219.242188 91.847656 C 218.71875 92.394531 218.492188 92.894531 218.21875 94.039062 L 218.542969 94.113281 C 219.191406 92.542969 219.765625 92.046875 220.859375 92.046875 C 222.179688 92.046875 223.101562 92.941406 223.101562 94.289062 C 223.101562 95.535156 222.355469 97.003906 221.035156 98.421875 L 218.195312 101.414062 L 218.195312 101.613281 L 224.398438 101.613281 Z M 225.269531 99.445312 "/>
<path fill-rule="nonzero" fill="rgb(100%, 12.941176%, 32.156863%)" fill-opacity="1" d="M 227.058594 96.082031 C 227.730469 95.257812 228.03125 95.085938 228.800781 95.085938 L 229.523438 95.085938 L 228.527344 98.597656 C 228.378906 99.046875 228.105469 99.394531 227.480469 99.894531 C 226.910156 100.34375 226.734375 100.589844 226.683594 100.941406 C 226.609375 101.414062 226.910156 101.8125 227.40625 101.8125 C 227.90625 101.8125 228.355469 101.464844 228.675781 100.765625 C 228.875 100.367188 229.375 98.746094 229.773438 97.128906 L 230.320312 95.085938 L 232.039062 95.085938 C 231.640625 96.332031 231.21875 98.050781 231.070312 98.945312 C 230.769531 100.742188 231.195312 101.8125 232.164062 101.8125 C 232.789062 101.8125 233.410156 101.386719 233.910156 100.640625 C 234.207031 100.191406 234.332031 99.894531 234.507812 99.097656 L 234.109375 99.097656 C 233.910156 99.867188 233.535156 100.265625 233.011719 100.265625 C 232.714844 100.265625 232.414062 100.042969 232.289062 99.695312 C 232.191406 99.421875 232.191406 99.171875 232.265625 98.648438 C 232.488281 97.425781 232.789062 95.957031 233.0625 95.085938 L 235.082031 95.085938 L 235.304688 93.664062 L 229.75 93.664062 C 228.902344 93.664062 228.554688 93.765625 228.03125 94.214844 C 227.507812 94.660156 227.183594 95.136719 226.734375 96.082031 Z M 227.058594 96.082031 "/>
<path fill="none" stroke-width="0.3985" stroke-linecap="butt" stroke-linejoin="miter" stroke="rgb(50.196078%, 50.196078%, 50.196078%)" stroke-opacity="1" stroke-miterlimit="10" d="M 82.976979 96.553724 L 166.481475 96.553724 L 166.481475 113.488819 L 82.976979 113.488819 Z M 82.976979 96.553724 " transform="matrix(1.594553, 0, 0, -1.594553, 1.114593, 182.077216)"/>
<path fill="none" stroke-width="0.99628" stroke-linecap="butt" stroke-linejoin="miter" stroke="rgb(6.666667%, 52.941176%, 87.058824%)" stroke-opacity="1" stroke-miterlimit="10" d="M 0.0014151 0.0000497913 L 17.010002 0.0000497913 " transform="matrix(1.594553, 0, 0, -1.594553, 138.986025, 14.617267)"/>
<path fill-rule="nonzero" fill="rgb(50.196078%, 50.196078%, 50.196078%)" fill-opacity="1" d="M 173.007812 13.078125 L 174.453125 13.078125 L 173.058594 19.757812 C 172.710938 21.476562 172.1875 22.347656 171.515625 22.347656 C 171.3125 22.347656 171.191406 22.222656 171.191406 22.074219 C 171.191406 22.050781 171.214844 22 171.265625 21.898438 C 171.3125 21.824219 171.339844 21.75 171.339844 21.652344 C 171.339844 21.328125 171.039062 21.050781 170.714844 21.050781 C 170.367188 21.050781 170.117188 21.328125 170.117188 21.699219 C 170.117188 22.25 170.691406 22.671875 171.390625 22.671875 C 172.785156 22.671875 173.90625 21.101562 174.554688 18.1875 L 175.699219 13.078125 L 177.445312 13.078125 L 177.542969 12.582031 L 175.824219 12.582031 C 176.273438 10.089844 176.871094 8.945312 177.742188 8.945312 C 177.964844 8.945312 178.089844 9.042969 178.089844 9.144531 C 178.089844 9.191406 178.089844 9.21875 178.042969 9.316406 C 177.964844 9.441406 177.941406 9.515625 177.941406 9.640625 C 177.941406 10.015625 178.191406 10.265625 178.539062 10.265625 C 178.886719 10.265625 179.210938 9.992188 179.210938 9.640625 C 179.210938 9.042969 178.613281 8.59375 177.84375 8.59375 C 177.042969 8.59375 176.445312 8.945312 175.875 9.691406 C 175.375 10.3125 175.078125 11.0625 174.578125 12.582031 L 173.132812 12.582031 Z M 173.007812 13.078125 "/>
<path fill-rule="nonzero" fill="rgb(50.196078%, 50.196078%, 50.196078%)" fill-opacity="1" d="M 184.453125 23.195312 C 184.453125 23.144531 184.453125 23.121094 184.179688 22.847656 C 182.210938 20.851562 181.6875 17.839844 181.6875 15.398438 C 181.6875 12.632812 182.285156 9.867188 184.253906 7.898438 C 184.453125 7.699219 184.453125 7.671875 184.453125 7.625 C 184.453125 7.5 184.402344 7.449219 184.304688 7.449219 C 184.128906 7.449219 182.707031 8.546875 181.761719 10.5625 C 180.964844 12.308594 180.765625 14.078125 180.765625 15.398438 C 180.765625 16.644531 180.941406 18.5625 181.8125 20.378906 C 182.785156 22.324219 184.128906 23.371094 184.304688 23.371094 C 184.402344 23.371094 184.453125 23.320312 184.453125 23.195312 Z M 184.453125 23.195312 "/>
<path fill-rule="nonzero" fill="rgb(50.196078%, 50.196078%, 50.196078%)" fill-opacity="1" d="M 191.738281 17.613281 C 191.613281 17.765625 191.539062 17.863281 191.386719 18.039062 C 191.039062 18.535156 190.839844 18.6875 190.664062 18.6875 C 190.441406 18.6875 190.292969 18.488281 190.167969 18.039062 C 190.140625 17.914062 190.117188 17.8125 190.117188 17.765625 C 189.71875 16.144531 189.542969 15.421875 189.542969 15.199219 C 190.242188 13.953125 190.816406 13.253906 191.089844 13.253906 C 191.1875 13.253906 191.3125 13.304688 191.488281 13.378906 C 191.664062 13.503906 191.785156 13.527344 191.910156 13.527344 C 192.234375 13.527344 192.460938 13.304688 192.460938 12.957031 C 192.460938 12.632812 192.183594 12.382812 191.8125 12.382812 C 191.113281 12.382812 190.515625 12.957031 189.421875 14.648438 L 189.246094 13.777344 C 189.019531 12.679688 188.847656 12.382812 188.398438 12.382812 C 188.050781 12.382812 187.527344 12.507812 186.554688 12.832031 L 186.378906 12.90625 L 186.429688 13.128906 C 187.054688 13.003906 187.175781 12.957031 187.328125 12.957031 C 187.726562 12.957031 187.824219 13.105469 188.050781 14.050781 L 188.5 16.019531 L 187.203125 17.863281 C 186.878906 18.363281 186.554688 18.636719 186.378906 18.636719 C 186.304688 18.636719 186.132812 18.585938 185.980469 18.488281 C 185.78125 18.386719 185.609375 18.335938 185.457031 18.335938 C 185.160156 18.335938 184.933594 18.5625 184.933594 18.886719 C 184.933594 19.308594 185.257812 19.558594 185.734375 19.558594 C 186.207031 19.558594 186.40625 19.410156 187.203125 18.4375 C 187.625 17.9375 187.976562 17.515625 188.621094 16.59375 L 189.121094 18.488281 C 189.320312 19.308594 189.519531 19.558594 190.042969 19.558594 C 190.640625 19.558594 191.039062 19.183594 191.960938 17.738281 Z M 191.738281 17.613281 "/>
<path fill-rule="nonzero" fill="rgb(50.196078%, 50.196078%, 50.196078%)" fill-opacity="1" d="M 197.046875 15.398438 C 197.046875 14.175781 196.871094 12.257812 196 10.4375 C 195.050781 8.496094 193.683594 7.449219 193.53125 7.449219 C 193.433594 7.449219 193.359375 7.523438 193.359375 7.625 C 193.359375 7.671875 193.359375 7.699219 193.65625 7.996094 C 195.226562 9.566406 196.125 12.082031 196.125 15.398438 C 196.125 18.136719 195.550781 20.929688 193.582031 22.921875 C 193.359375 23.121094 193.359375 23.144531 193.359375 23.195312 C 193.359375 23.296875 193.433594 23.371094 193.53125 23.371094 C 193.683594 23.371094 195.125 22.273438 196.046875 20.253906 C 196.871094 18.511719 197.046875 16.742188 197.046875 15.398438 Z M 197.046875 15.398438 "/>
<path fill-rule="nonzero" fill="rgb(50.196078%, 50.196078%, 50.196078%)" fill-opacity="1" d="M 213.0625 14.175781 C 213.3125 14.175781 213.609375 14.175781 213.609375 13.878906 C 213.609375 13.554688 213.3125 13.554688 213.085938 13.554688 L 203.570312 13.554688 C 203.34375 13.554688 203.046875 13.554688 203.046875 13.878906 C 203.046875 14.175781 203.34375 14.175781 203.570312 14.175781 Z M 213.085938 17.265625 C 213.3125 17.265625 213.609375 17.265625 213.609375 16.941406 C 213.609375 16.644531 213.3125 16.644531 213.0625 16.644531 L 203.570312 16.644531 C 203.34375 16.644531 203.046875 16.644531 203.046875 16.941406 C 203.046875 17.265625 203.34375 17.265625 203.570312 17.265625 Z M 213.085938 17.265625 "/>
<path fill-rule="nonzero" fill="rgb(50.196078%, 50.196078%, 50.196078%)" fill-opacity="1" d="M 224.355469 16.890625 C 223.585938 18.011719 223.011719 18.386719 222.113281 18.386719 C 220.667969 18.386719 219.648438 17.117188 219.648438 15.296875 C 219.648438 13.652344 220.519531 12.53125 221.816406 12.53125 C 222.386719 12.53125 222.585938 12.707031 222.738281 13.304688 L 222.835938 13.652344 C 222.960938 14.101562 223.261719 14.375 223.585938 14.375 C 224.007812 14.375 224.355469 14.078125 224.355469 13.703125 C 224.355469 12.832031 223.234375 12.082031 221.914062 12.082031 C 221.117188 12.082031 220.320312 12.382812 219.671875 12.957031 C 218.875 13.652344 218.425781 14.75 218.425781 15.996094 C 218.425781 18.0625 219.671875 19.53125 221.441406 19.53125 C 222.164062 19.53125 222.785156 19.285156 223.359375 18.785156 C 223.808594 18.410156 224.105469 17.988281 224.582031 17.042969 Z M 224.355469 16.890625 "/>
<path fill-rule="nonzero" fill="rgb(50.196078%, 50.196078%, 50.196078%)" fill-opacity="1" d="M 229.066406 12.082031 C 227 12.082031 225.554688 13.601562 225.554688 15.796875 C 225.554688 17.9375 227.023438 19.53125 229.019531 19.53125 C 231.035156 19.53125 232.554688 17.863281 232.554688 15.671875 C 232.554688 13.578125 231.085938 12.082031 229.066406 12.082031 Z M 228.84375 12.507812 C 230.1875 12.507812 231.109375 14.050781 231.109375 16.21875 C 231.109375 18.011719 230.414062 19.109375 229.21875 19.109375 C 228.59375 19.109375 227.996094 18.710938 227.671875 18.085938 C 227.222656 17.265625 226.976562 16.144531 226.976562 15.023438 C 226.976562 13.503906 227.722656 12.507812 228.84375 12.507812 Z M 228.84375 12.507812 "/>
<path fill-rule="nonzero" fill="rgb(50.196078%, 50.196078%, 50.196078%)" fill-opacity="1" d="M 238.03125 14.402344 L 237.957031 12.234375 L 237.78125 12.234375 L 237.757812 12.257812 C 237.609375 12.382812 237.609375 12.382812 237.535156 12.382812 C 237.433594 12.382812 237.285156 12.355469 237.109375 12.28125 C 236.761719 12.15625 236.414062 12.082031 235.988281 12.082031 C 234.742188 12.082031 233.847656 12.90625 233.847656 14.050781 C 233.847656 14.921875 234.34375 15.570312 235.691406 16.34375 L 236.613281 16.867188 C 237.183594 17.164062 237.433594 17.566406 237.433594 18.039062 C 237.433594 18.734375 236.9375 19.183594 236.113281 19.183594 C 235.589844 19.183594 235.09375 18.984375 234.792969 18.636719 C 234.445312 18.238281 234.320312 17.863281 234.09375 16.964844 L 233.847656 16.964844 L 233.847656 19.457031 L 234.046875 19.457031 C 234.171875 19.285156 234.21875 19.257812 234.417969 19.257812 C 234.570312 19.257812 234.792969 19.285156 235.140625 19.382812 C 235.589844 19.484375 236.039062 19.53125 236.3125 19.53125 C 237.535156 19.53125 238.554688 18.609375 238.554688 17.515625 C 238.554688 16.71875 238.183594 16.195312 237.210938 15.621094 L 235.515625 14.601562 C 235.066406 14.351562 234.816406 13.953125 234.816406 13.527344 C 234.816406 12.878906 235.316406 12.433594 236.039062 12.433594 C 236.960938 12.433594 237.433594 12.980469 237.78125 14.402344 Z M 238.03125 14.402344 "/>
<path fill-rule="nonzero" fill="rgb(50.196078%, 50.196078%, 50.196078%)" fill-opacity="1" d="M 244.460938 23.195312 C 244.460938 23.144531 244.460938 23.121094 244.1875 22.847656 C 242.21875 20.851562 241.695312 17.839844 241.695312 15.398438 C 241.695312 12.632812 242.292969 9.867188 244.261719 7.898438 C 244.460938 7.699219 244.460938 7.671875 244.460938 7.625 C 244.460938 7.5 244.410156 7.449219 244.3125 7.449219 C 244.136719 7.449219 242.714844 8.546875 241.769531 10.5625 C 240.972656 12.308594 240.773438 14.078125 240.773438 15.398438 C 240.773438 16.644531 240.949219 18.5625 241.820312 20.378906 C 242.792969 22.324219 244.136719 23.371094 244.3125 23.371094 C 244.410156 23.371094 244.460938 23.320312 244.460938 23.195312 Z M 244.460938 23.195312 "/>
<path fill-rule="nonzero" fill="rgb(50.196078%, 50.196078%, 50.196078%)" fill-opacity="1" d="M 251.746094 17.613281 C 251.621094 17.765625 251.546875 17.863281 251.394531 18.039062 C 251.046875 18.535156 250.847656 18.6875 250.671875 18.6875 C 250.449219 18.6875 250.300781 18.488281 250.175781 18.039062 C 250.148438 17.914062 250.125 17.8125 250.125 17.765625 C 249.726562 16.144531 249.550781 15.421875 249.550781 15.199219 C 250.25 13.953125 250.824219 13.253906 251.097656 13.253906 C 251.195312 13.253906 251.320312 13.304688 251.496094 13.378906 C 251.671875 13.503906 251.792969 13.527344 251.917969 13.527344 C 252.242188 13.527344 252.46875 13.304688 252.46875 12.957031 C 252.46875 12.632812 252.191406 12.382812 251.820312 12.382812 C 251.121094 12.382812 250.523438 12.957031 249.429688 14.648438 L 249.253906 13.777344 C 249.027344 12.679688 248.855469 12.382812 248.40625 12.382812 C 248.058594 12.382812 247.535156 12.507812 246.5625 12.832031 L 246.386719 12.90625 L 246.4375 13.128906 C 247.0625 13.003906 247.183594 12.957031 247.335938 12.957031 C 247.734375 12.957031 247.832031 13.105469 248.058594 14.050781 L 248.507812 16.019531 L 247.210938 17.863281 C 246.886719 18.363281 246.5625 18.636719 246.386719 18.636719 C 246.3125 18.636719 246.140625 18.585938 245.988281 18.488281 C 245.789062 18.386719 245.617188 18.335938 245.464844 18.335938 C 245.167969 18.335938 244.941406 18.5625 244.941406 18.886719 C 244.941406 19.308594 245.265625 19.558594 245.742188 19.558594 C 246.214844 19.558594 246.414062 19.410156 247.210938 18.4375 C 247.632812 17.9375 247.984375 17.515625 248.628906 16.59375 L 249.128906 18.488281 C 249.328125 19.308594 249.527344 19.558594 250.050781 19.558594 C 250.648438 19.558594 251.046875 19.183594 251.96875 17.738281 Z M 251.746094 17.613281 "/>
<path fill-rule="nonzero" fill="rgb(50.196078%, 50.196078%, 50.196078%)" fill-opacity="1" d="M 257.050781 15.398438 C 257.050781 14.175781 256.878906 12.257812 256.003906 10.4375 C 255.058594 8.496094 253.6875 7.449219 253.539062 7.449219 C 253.4375 7.449219 253.363281 7.523438 253.363281 7.625 C 253.363281 7.671875 253.363281 7.699219 253.664062 7.996094 C 255.234375 9.566406 256.128906 12.082031 256.128906 15.398438 C 256.128906 18.136719 255.554688 20.929688 253.589844 22.921875 C 253.363281 23.121094 253.363281 23.144531 253.363281 23.195312 C 253.363281 23.296875 253.4375 23.371094 253.539062 23.371094 C 253.6875 23.371094 255.132812 22.273438 256.054688 20.253906 C 256.878906 18.511719 257.050781 16.742188 257.050781 15.398438 Z M 257.050781 15.398438 "/>
</svg>
