<?xml version="1.0" encoding="UTF-8"?>
<svg xmlns="http://www.w3.org/2000/svg" xmlns:xlink="http://www.w3.org/1999/xlink" width="400" height="354.720136" viewBox="0 0 400 354.720136">
<defs>
<clipPath id="clip-0">
<path clip-rule="nonzero" d="M 78.066406 85 L 352.140625 85 L 352.140625 342.414062 L 78.066406 342.414062 Z M 78.066406 85 "/>
</clipPath>
<clipPath id="clip-1">
<path clip-rule="nonzero" d="M 78.066406 49 L 352.140625 49 L 352.140625 342.414062 L 78.066406 342.414062 Z M 78.066406 49 "/>
</clipPath>
<clipPath id="clip-2">
<path clip-rule="nonzero" d="M 78.066406 38.128906 L 352.140625 38.128906 L 352.140625 331 L 78.066406 331 Z M 78.066406 38.128906 "/>
</clipPath>
</defs>
<path fill="none" stroke-width="0.09962" stroke-linecap="butt" stroke-linejoin="miter" stroke="rgb(69.803922%, 69.803922%, 69.803922%)" stroke-opacity="1" stroke-dasharray="2.98883 2.98883" stroke-miterlimit="10" d="M -0.00234736 40.769577 L -0.00234736 227.863869 M 62.365619 40.769577 L 62.365619 227.863869 M 93.546 40.769577 L 93.546 227.863869 M 124.728782 40.769577 L 124.728782 227.863869 M 155.913966 40.769577 L 155.913966 227.863869 M 187.091945 40.769577 L 187.091945 227.863869 " transform="matrix(1.626373, 0, 0, -1.626373, 47.859286, 408.720613)"/>
<path fill="none" stroke-width="0.09962" stroke-linecap="butt" stroke-linejoin="miter" stroke="rgb(69.803922%, 69.803922%, 69.803922%)" stroke-opacity="1" stroke-dasharray="2.98883 2.98883" stroke-miterlimit="10" d="M -0.00234736 40.769577 L 187.091945 40.769577 M -0.00234736 71.952359 L 187.091945 71.952359 M -0.00234736 103.135141 L 187.091945 103.135141 M -0.00234736 165.498304 L 187.091945 165.498304 M -0.00234736 196.683488 L 187.091945 196.683488 M -0.00234736 227.863869 L 187.091945 227.863869 " transform="matrix(1.626373, 0, 0, -1.626373, 47.859286, 408.720613)"/>
<path fill="none" stroke-width="0.19925" stroke-linecap="butt" stroke-linejoin="miter" stroke="rgb(50.196078%, 50.196078%, 50.196078%)" stroke-opacity="1" stroke-miterlimit="10" d="M -0.00234736 132.189914 L -0.00234736 136.443531 M 62.365619 132.189914 L 62.365619 136.443531 M 93.546 132.189914 L 93.546 136.443531 M 124.728782 132.189914 L 124.728782 136.443531 M 155.913966 132.189914 L 155.913966 136.443531 M 187.091945 132.189914 L 187.091945 136.443531 " transform="matrix(1.626373, 0, 0, -1.626373, 47.859286, 408.720613)"/>
<path fill="none" stroke-width="0.19925" stroke-linecap="butt" stroke-linejoin="miter" stroke="rgb(50.196078%, 50.196078%, 50.196078%)" stroke-opacity="1" stroke-miterlimit="10" d="M 29.057229 40.769577 L 33.308444 40.769577 M 29.057229 71.952359 L 33.308444 71.952359 M 29.057229 103.135141 L 33.308444 103.135141 M 29.057229 165.498304 L 33.308444 165.498304 M 29.057229 196.683488 L 33.308444 196.683488 M 29.057229 227.863869 L 33.308444 227.863869 " transform="matrix(1.626373, 0, 0, -1.626373, 47.859286, 408.720613)"/>
<path fill="none" stroke-width="0.3985" stroke-linecap="butt" stroke-linejoin="miter" stroke="rgb(50.196078%, 50.196078%, 50.196078%)" stroke-opacity="1" stroke-miterlimit="10" d="M -0.00234736 134.315522 L 185.100839 134.315522 " transform="matrix(1.626373, 0, 0, -1.626373, 47.859286, 408.720613)"/>
<path fill-rule="nonzero" fill="rgb(50.196078%, 50.196078%, 50.196078%)" fill-opacity="1" d="M 352.140625 190.273438 L 346.957031 187.679688 L 348.902344 190.273438 L 346.957031 192.863281 "/>
<path fill="none" stroke-width="0.3985" stroke-linecap="butt" stroke-linejoin="miter" stroke="rgb(50.196078%, 50.196078%, 50.196078%)" stroke-opacity="1" stroke-miterlimit="10" d="M 31.182837 40.769577 L 31.182837 225.870361 " transform="matrix(1.626373, 0, 0, -1.626373, 47.859286, 408.720613)"/>
<path fill-rule="nonzero" fill="rgb(50.196078%, 50.196078%, 50.196078%)" fill-opacity="1" d="M 98.574219 38.128906 L 95.980469 43.316406 L 98.574219 41.371094 L 101.164062 43.316406 "/>
<path fill-rule="nonzero" fill="rgb(50.196078%, 50.196078%, 50.196078%)" fill-opacity="1" d="M 48.1875 206.558594 C 48.464844 206.558594 48.769531 206.558594 48.769531 206.230469 C 48.769531 205.925781 48.464844 205.925781 48.1875 205.925781 L 39.417969 205.925781 C 39.140625 205.925781 38.859375 205.925781 38.859375 206.230469 C 38.859375 206.558594 39.140625 206.558594 39.417969 206.558594 Z M 48.1875 206.558594 "/>
<path fill-rule="nonzero" fill="rgb(50.196078%, 50.196078%, 50.196078%)" fill-opacity="1" d="M 54.832031 199.34375 L 51.90625 200.816406 L 51.90625 201.046875 C 52.085938 200.96875 52.265625 200.890625 52.339844 200.867188 C 52.644531 200.738281 52.898438 200.6875 53.078125 200.6875 C 53.40625 200.6875 53.558594 200.917969 53.558594 201.453125 L 53.558594 208.796875 C 53.558594 209.328125 53.433594 209.683594 53.179688 209.835938 C 52.925781 209.988281 52.695312 210.039062 52.007812 210.039062 L 52.007812 210.296875 L 56.480469 210.296875 L 56.480469 210.039062 C 55.210938 210.039062 54.957031 209.863281 54.957031 209.101562 L 54.957031 199.367188 Z M 54.832031 199.34375 "/>
<path fill-rule="nonzero" fill="rgb(50.196078%, 50.196078%, 50.196078%)" fill-opacity="1" d="M 149.964844 199.34375 L 147.042969 200.816406 L 147.042969 201.046875 C 147.21875 200.96875 147.398438 200.890625 147.472656 200.867188 C 147.777344 200.738281 148.03125 200.6875 148.210938 200.6875 C 148.539062 200.6875 148.691406 200.917969 148.691406 201.453125 L 148.691406 208.796875 C 148.691406 209.328125 148.566406 209.683594 148.3125 209.835938 C 148.058594 209.988281 147.828125 210.039062 147.144531 210.039062 L 147.144531 210.296875 L 151.613281 210.296875 L 151.613281 210.039062 C 150.34375 210.039062 150.089844 209.863281 150.089844 209.101562 L 150.089844 199.367188 Z M 149.964844 199.34375 "/>
<path fill-rule="nonzero" fill="rgb(50.196078%, 50.196078%, 50.196078%)" fill-opacity="1" d="M 203.648438 208.085938 L 203.445312 207.984375 C 202.835938 208.921875 202.632812 209.074219 201.894531 209.074219 L 198.03125 209.074219 L 200.75 206.203125 C 202.199219 204.703125 202.835938 203.460938 202.835938 202.214844 C 202.835938 200.585938 201.515625 199.34375 199.8125 199.34375 C 198.921875 199.34375 198.082031 199.699219 197.5 200.332031 C 196.964844 200.890625 196.738281 201.402344 196.457031 202.570312 L 196.789062 202.644531 C 197.449219 201.046875 198.03125 200.535156 199.152344 200.535156 C 200.496094 200.535156 201.4375 201.453125 201.4375 202.824219 C 201.4375 204.09375 200.675781 205.59375 199.328125 207.042969 L 196.429688 210.089844 L 196.429688 210.296875 L 202.757812 210.296875 Z M 203.648438 208.085938 "/>
<path fill-rule="nonzero" fill="rgb(50.196078%, 50.196078%, 50.196078%)" fill-opacity="1" d="M 249.152344 204.933594 C 250.09375 204.933594 250.472656 204.984375 250.855469 205.109375 C 251.871094 205.492188 252.507812 206.40625 252.507812 207.523438 C 252.507812 208.871094 251.566406 209.9375 250.371094 209.9375 C 249.941406 209.9375 249.609375 209.8125 249.027344 209.429688 C 248.515625 209.152344 248.261719 209.023438 247.984375 209.023438 C 247.601562 209.023438 247.347656 209.253906 247.347656 209.609375 C 247.347656 210.167969 248.058594 210.523438 249.203125 210.523438 C 250.449219 210.523438 251.71875 210.089844 252.480469 209.429688 C 253.242188 208.769531 253.675781 207.828125 253.675781 206.738281 C 253.675781 205.925781 253.394531 205.160156 252.9375 204.652344 C 252.609375 204.296875 252.304688 204.09375 251.59375 203.789062 C 252.710938 203.027344 253.117188 202.441406 253.117188 201.554688 C 253.117188 200.230469 252.074219 199.34375 250.574219 199.34375 C 249.761719 199.34375 249.050781 199.621094 248.464844 200.128906 C 247.984375 200.5625 247.753906 200.992188 247.398438 201.960938 L 247.628906 202.035156 C 248.289062 200.839844 249.027344 200.308594 250.042969 200.308594 C 251.109375 200.308594 251.847656 201.019531 251.847656 202.035156 C 251.847656 202.621094 251.59375 203.203125 251.1875 203.613281 C 250.703125 204.09375 250.246094 204.347656 249.152344 204.730469 Z M 249.152344 204.933594 "/>
<path fill-rule="nonzero" fill="rgb(50.196078%, 50.196078%, 50.196078%)" fill-opacity="1" d="M 305.023438 206.558594 L 303.375 206.558594 L 303.375 199.34375 L 302.660156 199.34375 L 297.578125 206.558594 L 297.578125 207.574219 L 302.128906 207.574219 L 302.128906 210.296875 L 303.375 210.296875 L 303.375 207.574219 L 305.023438 207.574219 Z M 302.101562 206.558594 L 298.214844 206.558594 L 302.101562 200.992188 Z M 302.101562 206.558594 "/>
<path fill-rule="nonzero" fill="rgb(50.196078%, 50.196078%, 50.196078%)" fill-opacity="1" d="M 351.011719 201.070312 L 354.214844 201.070312 C 354.46875 201.070312 354.519531 201.042969 354.570312 200.917969 L 355.179688 199.492188 L 355.050781 199.367188 C 354.796875 199.695312 354.644531 199.796875 354.289062 199.796875 L 350.910156 199.796875 L 349.132812 203.636719 C 349.132812 203.660156 349.132812 203.6875 349.132812 203.710938 C 349.132812 203.789062 349.183594 203.839844 349.308594 203.839844 C 349.84375 203.839844 350.476562 203.964844 351.164062 204.167969 C 353.019531 204.78125 353.882812 205.769531 353.882812 207.371094 C 353.882812 208.921875 352.890625 210.140625 351.621094 210.140625 C 351.292969 210.140625 351.011719 210.039062 350.527344 209.683594 C 350.019531 209.304688 349.640625 209.148438 349.308594 209.148438 C 348.828125 209.148438 348.597656 209.328125 348.597656 209.734375 C 348.597656 210.371094 349.359375 210.75 350.578125 210.75 C 351.953125 210.75 353.121094 210.320312 353.933594 209.480469 C 354.671875 208.742188 355 207.828125 355 206.609375 C 355 205.441406 354.695312 204.679688 353.882812 203.863281 C 353.171875 203.152344 352.257812 202.796875 350.351562 202.441406 Z M 351.011719 201.070312 "/>
<path fill-rule="nonzero" fill="rgb(50.196078%, 50.196078%, 50.196078%)" fill-opacity="1" d="M 79.371094 343.425781 C 79.652344 343.425781 79.957031 343.425781 79.957031 343.097656 C 79.957031 342.792969 79.652344 342.792969 79.371094 342.792969 L 70.605469 342.792969 C 70.324219 342.792969 70.046875 342.792969 70.046875 343.097656 C 70.046875 343.425781 70.324219 343.425781 70.605469 343.425781 Z M 79.371094 343.425781 "/>
<path fill-rule="nonzero" fill="rgb(50.196078%, 50.196078%, 50.196078%)" fill-opacity="1" d="M 83.78125 341.800781 C 84.71875 341.800781 85.101562 341.851562 85.480469 341.976562 C 86.5 342.359375 87.132812 343.273438 87.132812 344.390625 C 87.132812 345.738281 86.195312 346.804688 85 346.804688 C 84.566406 346.804688 84.238281 346.679688 83.652344 346.296875 C 83.144531 346.019531 82.890625 345.890625 82.609375 345.890625 C 82.230469 345.890625 81.976562 346.121094 81.976562 346.476562 C 81.976562 347.035156 82.6875 347.390625 83.832031 347.390625 C 85.074219 347.390625 86.347656 346.960938 87.109375 346.296875 C 87.871094 345.636719 88.304688 344.699219 88.304688 343.605469 C 88.304688 342.792969 88.023438 342.027344 87.566406 341.519531 C 87.234375 341.164062 86.929688 340.960938 86.21875 340.65625 C 87.335938 339.894531 87.742188 339.308594 87.742188 338.421875 C 87.742188 337.097656 86.703125 336.210938 85.203125 336.210938 C 84.390625 336.210938 83.679688 336.488281 83.09375 336.996094 C 82.609375 337.429688 82.382812 337.863281 82.027344 338.828125 L 82.253906 338.902344 C 82.914062 337.710938 83.652344 337.175781 84.667969 337.175781 C 85.738281 337.175781 86.472656 337.886719 86.472656 338.902344 C 86.472656 339.488281 86.21875 340.074219 85.8125 340.480469 C 85.328125 340.960938 84.871094 341.214844 83.78125 341.597656 Z M 83.78125 341.800781 "/>
<path fill-rule="nonzero" fill="rgb(50.196078%, 50.196078%, 50.196078%)" fill-opacity="1" d="M 79.371094 292.714844 C 79.652344 292.714844 79.957031 292.714844 79.957031 292.382812 C 79.957031 292.078125 79.652344 292.078125 79.371094 292.078125 L 70.605469 292.078125 C 70.324219 292.078125 70.046875 292.078125 70.046875 292.382812 C 70.046875 292.714844 70.324219 292.714844 70.605469 292.714844 Z M 79.371094 292.714844 "/>
<path fill-rule="nonzero" fill="rgb(50.196078%, 50.196078%, 50.196078%)" fill-opacity="1" d="M 88.988281 294.238281 L 88.785156 294.136719 C 88.175781 295.078125 87.972656 295.230469 87.234375 295.230469 L 83.375 295.230469 L 86.09375 292.359375 C 87.539062 290.859375 88.175781 289.613281 88.175781 288.367188 C 88.175781 286.742188 86.855469 285.496094 85.152344 285.496094 C 84.261719 285.496094 83.425781 285.851562 82.839844 286.488281 C 82.304688 287.046875 82.078125 287.554688 81.796875 288.722656 L 82.128906 288.800781 C 82.789062 287.199219 83.375 286.691406 84.492188 286.691406 C 85.839844 286.691406 86.777344 287.605469 86.777344 288.976562 C 86.777344 290.25 86.015625 291.746094 84.667969 293.195312 L 81.773438 296.246094 L 81.773438 296.449219 L 88.101562 296.449219 Z M 88.988281 294.238281 "/>
<path fill-rule="nonzero" fill="rgb(50.196078%, 50.196078%, 50.196078%)" fill-opacity="1" d="M 79.371094 242 C 79.652344 242 79.957031 242 79.957031 241.667969 C 79.957031 241.363281 79.652344 241.363281 79.371094 241.363281 L 70.605469 241.363281 C 70.324219 241.363281 70.046875 241.363281 70.046875 241.667969 C 70.046875 242 70.324219 242 70.605469 242 Z M 79.371094 242 "/>
<path fill-rule="nonzero" fill="rgb(50.196078%, 50.196078%, 50.196078%)" fill-opacity="1" d="M 86.015625 234.78125 L 83.09375 236.257812 L 83.09375 236.484375 C 83.273438 236.410156 83.449219 236.332031 83.527344 236.308594 C 83.832031 236.179688 84.085938 236.128906 84.261719 236.128906 C 84.59375 236.128906 84.746094 236.359375 84.746094 236.890625 L 84.746094 244.234375 C 84.746094 244.769531 84.617188 245.125 84.363281 245.277344 C 84.109375 245.429688 83.882812 245.480469 83.195312 245.480469 L 83.195312 245.734375 L 87.667969 245.734375 L 87.667969 245.480469 C 86.398438 245.480469 86.144531 245.304688 86.144531 244.539062 L 86.144531 234.808594 Z M 86.015625 234.78125 "/>
<path fill-rule="nonzero" fill="rgb(50.196078%, 50.196078%, 50.196078%)" fill-opacity="1" d="M 86.015625 134.027344 L 83.09375 135.5 L 83.09375 135.730469 C 83.273438 135.652344 83.449219 135.578125 83.527344 135.550781 C 83.832031 135.425781 84.085938 135.375 84.261719 135.375 C 84.59375 135.375 84.746094 135.601562 84.746094 136.136719 L 84.746094 143.480469 C 84.746094 144.015625 84.617188 144.371094 84.363281 144.523438 C 84.109375 144.675781 83.882812 144.726562 83.195312 144.726562 L 83.195312 144.980469 L 87.667969 144.980469 L 87.667969 144.726562 C 86.398438 144.726562 86.144531 144.546875 86.144531 143.785156 L 86.144531 134.050781 Z M 86.015625 134.027344 "/>
<path fill-rule="nonzero" fill="rgb(50.196078%, 50.196078%, 50.196078%)" fill-opacity="1" d="M 88.988281 92.058594 L 88.785156 91.957031 C 88.175781 92.894531 87.972656 93.046875 87.234375 93.046875 L 83.375 93.046875 L 86.09375 90.175781 C 87.539062 88.675781 88.175781 87.433594 88.175781 86.1875 C 88.175781 84.558594 86.855469 83.316406 85.152344 83.316406 C 84.261719 83.316406 83.425781 83.671875 82.839844 84.304688 C 82.304688 84.867188 82.078125 85.375 81.796875 86.542969 L 82.128906 86.617188 C 82.789062 85.019531 83.375 84.507812 84.492188 84.507812 C 85.839844 84.507812 86.777344 85.425781 86.777344 86.796875 C 86.777344 88.066406 86.015625 89.566406 84.667969 91.015625 L 81.773438 94.066406 L 81.773438 94.269531 L 88.101562 94.269531 Z M 88.988281 92.058594 "/>
<path fill-rule="nonzero" fill="rgb(50.196078%, 50.196078%, 50.196078%)" fill-opacity="1" d="M 83.78125 38.066406 C 84.71875 38.066406 85.101562 38.117188 85.480469 38.242188 C 86.5 38.625 87.132812 39.539062 87.132812 40.65625 C 87.132812 42.003906 86.195312 43.070312 85 43.070312 C 84.566406 43.070312 84.238281 42.945312 83.652344 42.5625 C 83.144531 42.285156 82.890625 42.15625 82.609375 42.15625 C 82.230469 42.15625 81.976562 42.386719 81.976562 42.742188 C 81.976562 43.300781 82.6875 43.65625 83.832031 43.65625 C 85.074219 43.65625 86.347656 43.222656 87.109375 42.5625 C 87.871094 41.902344 88.304688 40.960938 88.304688 39.871094 C 88.304688 39.054688 88.023438 38.292969 87.566406 37.785156 C 87.234375 37.429688 86.929688 37.226562 86.21875 36.921875 C 87.335938 36.160156 87.742188 35.574219 87.742188 34.6875 C 87.742188 33.363281 86.703125 32.476562 85.203125 32.476562 C 84.390625 32.476562 83.679688 32.753906 83.09375 33.261719 C 82.609375 33.695312 82.382812 34.125 82.027344 35.09375 L 82.253906 35.167969 C 82.914062 33.972656 83.652344 33.441406 84.667969 33.441406 C 85.738281 33.441406 86.472656 34.152344 86.472656 35.167969 C 86.472656 35.753906 86.21875 36.335938 85.8125 36.742188 C 85.328125 37.226562 84.871094 37.480469 83.78125 37.863281 Z M 83.78125 38.066406 "/>
<g clip-path="url(#clip-0)">
<path fill="none" stroke-width="0.99628" stroke-linecap="butt" stroke-linejoin="miter" stroke="rgb(6.666667%, 52.941176%, 87.058824%)" stroke-opacity="1" stroke-miterlimit="10" d="M 32.756026 41.213913 L 34.331618 62.83026 L 35.904808 75.47102 L 37.482801 84.444206 L 39.058393 91.402268 L 40.631582 97.084966 L 42.204772 101.893402 L 43.780364 106.058152 L 45.353554 109.730529 L 46.931547 113.016214 L 48.507138 115.987261 L 50.080328 118.698912 L 51.65592 121.194399 L 53.229109 123.507348 L 54.802299 125.65217 L 56.377891 127.672098 L 57.955884 129.562327 L 59.529074 131.342073 L 61.104665 133.03055 L 62.677855 134.627758 L 64.253447 136.152911 L 65.826636 137.601207 L 67.40463 138.987055 L 68.980221 140.315259 L 70.553411 141.588222 L 72.126601 142.808345 L 73.702192 143.987637 L 75.275382 145.121294 L 76.853376 146.21412 L 78.428967 147.273321 L 80.002157 148.291692 L 81.577748 149.283642 L 83.150938 150.241966 L 84.72653 151.171469 L 86.299719 152.081758 L 87.877713 152.956019 L 89.450903 153.808664 L 91.026494 154.644496 L 92.599684 155.449104 L 94.175275 156.246507 L 95.748465 157.010285 L 97.326459 157.764455 L 98.90205 158.499411 L 100.47524 159.215153 L 102.04843 159.916483 L 103.624021 160.601001 L 105.197211 161.273509 L 106.772802 161.929205 L 108.350796 162.572892 L 109.923986 163.202168 L 111.499577 163.819435 L 113.072767 164.424692 L 114.648358 165.017941 L 116.221548 165.601582 L 117.799542 166.170813 L 119.372731 166.732838 L 120.948323 167.287657 L 122.521513 167.828066 L 124.097104 168.363671 L 125.670294 168.887267 L 127.248287 169.401256 L 128.823879 169.905637 L 130.397069 170.405215 L 131.970258 170.897587 L 133.54585 171.382754 L 135.11904 171.858314 L 136.694631 172.324266 L 138.272624 172.787817 L 139.845814 173.246564 L 141.421406 173.695704 L 144.570187 174.569965 L 146.143377 174.99989 L 147.72137 175.420208 L 149.29456 175.838124 L 150.870151 176.253638 L 152.443341 176.664349 L 154.018933 177.065452 L 155.592123 177.45935 L 157.170116 177.858051 L 158.745707 178.244744 L 160.318897 178.629034 L 163.467679 179.378401 L 166.61646 180.113357 L 168.194453 180.471228 L 171.343234 181.182165 L 172.916424 181.530429 L 174.492016 181.873888 L 176.065206 182.214946 L 177.643199 182.551201 L 179.216389 182.885053 L 180.79198 183.218906 L 183.940761 183.867396 L 185.513951 184.182034 L 187.089543 184.503877 " transform="matrix(1.626373, 0, 0, -1.626373, 47.859286, 408.720613)"/>
</g>
<g clip-path="url(#clip-1)">
<path fill="none" stroke-width="0.99628" stroke-linecap="butt" stroke-linejoin="miter" stroke="rgb(100%, 12.941176%, 32.156863%)" stroke-opacity="1" stroke-miterlimit="10" d="M 32.756026 -0.0012565 L 34.331618 31.183928 L 35.904808 49.42092 L 37.482801 62.36671 L 39.058393 72.406302 L 40.631582 80.603702 L 42.204772 87.537746 L 43.780364 93.54709 L 45.353554 98.847899 L 46.931547 103.584281 L 48.507138 107.871523 L 50.080328 111.784082 L 51.65592 115.386807 L 53.229109 118.72293 L 54.802299 121.816469 L 56.377891 124.729873 L 57.955884 127.455934 L 59.529074 130.025878 L 61.104665 132.46132 L 62.677855 134.769465 L 64.253447 136.959922 L 65.826636 139.054306 L 67.40463 141.055019 L 68.980221 142.969266 L 70.553411 144.809058 L 72.126601 146.569589 L 73.702192 148.270075 L 75.275382 149.900909 L 76.853376 151.483706 L 78.428967 153.006457 L 80.002157 154.478771 L 81.577748 155.910253 L 83.150938 157.291298 L 84.72653 158.636315 L 86.299719 159.945305 L 87.877713 161.206258 L 89.450903 162.435988 L 91.026494 163.639298 L 92.599684 164.804179 L 94.175275 165.947444 L 95.748465 167.061887 L 97.326459 168.145106 L 98.90205 169.201905 L 100.47524 170.237088 L 102.04843 171.248253 L 103.624021 172.237801 L 105.197211 173.205733 L 106.772802 174.152049 L 108.350796 175.081552 L 109.923986 175.99184 L 111.499577 176.87811 L 113.072767 177.752371 L 114.648358 178.60982 L 116.221548 179.448054 L 117.799542 180.271877 L 119.372731 181.086093 L 120.948323 181.881094 L 122.521513 182.664086 L 124.097104 183.432667 L 125.670294 184.191641 L 127.248287 184.933803 L 128.823879 185.663955 L 130.397069 186.382098 L 131.970258 187.093035 L 133.54585 187.789562 L 135.11904 188.476482 L 136.694631 189.151392 L 138.272624 189.816695 L 139.845814 190.474793 L 141.421406 191.123283 L 142.994596 191.762167 L 144.570187 192.389041 L 146.143377 193.006307 L 147.72137 193.616369 L 150.870151 194.819679 L 152.443341 195.410526 L 154.018933 195.986962 L 155.592123 196.558594 L 157.170116 197.132628 L 158.745707 197.689849 L 160.318897 198.242267 L 161.894489 198.787479 L 163.467679 199.327888 L 165.040868 199.85869 L 166.61646 200.387089 L 168.194453 200.905882 L 169.767643 201.422272 L 171.343234 201.929055 L 174.492016 202.928211 L 176.065206 203.420583 L 177.643199 203.90575 L 179.216389 204.386114 L 180.79198 204.861673 L 182.36517 205.334831 L 183.940761 205.800783 L 185.513951 206.261932 L 187.089543 206.718277 " transform="matrix(1.626373, 0, 0, -1.626373, 47.859286, 408.720613)"/>
</g>
<g clip-path="url(#clip-2)">
<path fill="none" stroke-width="0.99628" stroke-linecap="butt" stroke-linejoin="miter" stroke="rgb(1.176471%, 74.901961%, 23.921569%)" stroke-opacity="1" stroke-miterlimit="10" d="M 32.756026 268.6323 L 34.331618 237.444714 L 35.904808 219.210124 L 37.482801 206.269138 L 39.058393 196.229545 L 40.631582 188.029744 L 42.204772 181.093298 L 43.780364 175.086355 L 45.353554 169.787948 L 46.931547 165.049165 L 48.507138 160.764324 L 50.080328 156.846962 L 51.65592 153.249041 L 53.229109 149.910516 L 54.802299 146.819378 L 56.377891 143.905975 L 57.955884 141.179913 L 59.529074 138.605166 L 61.104665 136.174528 L 62.677855 133.866382 L 64.253447 131.671122 L 65.826636 129.576738 L 67.40463 127.578427 L 68.980221 125.664179 L 70.553411 123.82679 L 72.126601 122.066258 L 73.702192 120.365772 L 75.275382 118.730135 L 76.853376 117.152142 L 78.428967 115.62939 L 80.002157 114.154675 L 81.577748 112.725594 L 83.150938 111.339746 L 84.72653 109.999533 L 86.299719 108.690543 L 87.877713 107.429589 L 89.450903 106.197457 L 91.026494 104.996549 L 92.599684 103.826865 L 94.175275 102.686002 L 95.748465 101.573961 L 97.326459 100.490742 L 98.90205 99.433942 L 100.47524 98.39876 L 102.04843 97.385193 L 103.624021 96.398046 L 105.197211 95.430114 L 106.772802 94.483799 L 108.350796 93.554296 L 109.923986 92.644007 L 111.499577 91.757737 L 113.072767 90.881074 L 114.648358 90.026028 L 116.221548 89.187794 L 117.799542 88.361569 L 119.372731 87.549755 L 120.948323 86.752352 L 122.521513 85.971761 L 124.097104 85.198377 L 125.670294 84.44901 L 127.248287 83.706849 L 128.823879 82.971893 L 130.397069 82.248946 L 131.970258 81.542812 L 133.54585 80.846285 L 135.11904 80.159366 L 136.694631 79.486857 L 138.272624 78.819152 L 139.845814 78.158653 L 141.421406 77.510162 L 142.994596 76.873681 L 144.570187 76.244405 L 146.143377 75.624736 L 147.72137 75.019479 L 150.870151 73.816169 L 152.443341 73.225322 L 154.018933 72.648886 L 155.592123 72.077254 L 157.170116 71.498416 L 158.745707 70.943596 L 161.894489 69.843564 L 163.467679 69.307959 L 165.040868 68.777158 L 166.61646 68.248758 L 168.194453 67.725162 L 169.767643 67.213575 L 172.916424 66.207214 L 174.492016 65.710038 L 176.065206 65.217666 L 177.643199 64.730097 L 180.79198 63.769371 L 183.940761 62.839868 L 187.089543 61.91757 " transform="matrix(1.626373, 0, 0, -1.626373, 47.859286, 408.720613)"/>
</g>
<path fill="none" stroke-width="0.3985" stroke-linecap="butt" stroke-linejoin="miter" stroke="rgb(50.196078%, 50.196078%, 50.196078%)" stroke-opacity="1" stroke-miterlimit="10" d="M -28.728071 233.676264 L 215.822472 233.676264 L 215.822472 250.613874 L -28.728071 250.613874 Z M -28.728071 233.676264 " transform="matrix(1.626373, 0, 0, -1.626373, 47.859286, 408.720613)"/>
<path fill="none" stroke-width="0.99628" stroke-linecap="butt" stroke-linejoin="miter" stroke="rgb(6.666667%, 52.941176%, 87.058824%)" stroke-opacity="1" stroke-miterlimit="10" d="M 0.000366111 -0.000733374 L 17.01003 -0.000733374 " transform="matrix(1.626373, 0, 0, -1.626373, 6.807998, 14.908964)"/>
<path fill-rule="nonzero" fill="rgb(50.196078%, 50.196078%, 50.196078%)" fill-opacity="1" d="M 41.507812 13.339844 L 42.984375 13.339844 L 41.558594 20.152344 C 41.203125 21.90625 40.671875 22.792969 39.984375 22.792969 C 39.78125 22.792969 39.65625 22.667969 39.65625 22.515625 C 39.65625 22.488281 39.679688 22.4375 39.730469 22.335938 C 39.78125 22.261719 39.808594 22.183594 39.808594 22.082031 C 39.808594 21.753906 39.503906 21.472656 39.171875 21.472656 C 38.816406 21.472656 38.5625 21.753906 38.5625 22.132812 C 38.5625 22.691406 39.144531 23.125 39.859375 23.125 C 41.28125 23.125 42.425781 21.523438 43.085938 18.550781 L 44.253906 13.339844 L 46.03125 13.339844 L 46.132812 12.832031 L 44.382812 12.832031 C 44.839844 10.292969 45.449219 9.121094 46.335938 9.121094 C 46.566406 9.121094 46.695312 9.222656 46.695312 9.324219 C 46.695312 9.375 46.695312 9.402344 46.644531 9.503906 C 46.566406 9.628906 46.542969 9.707031 46.542969 9.835938 C 46.542969 10.214844 46.796875 10.46875 47.152344 10.46875 C 47.507812 10.46875 47.835938 10.191406 47.835938 9.835938 C 47.835938 9.222656 47.226562 8.765625 46.441406 8.765625 C 45.625 8.765625 45.015625 9.121094 44.433594 9.886719 C 43.921875 10.519531 43.617188 11.28125 43.109375 12.832031 L 41.636719 12.832031 Z M 41.507812 13.339844 "/>
<path fill-rule="nonzero" fill="rgb(50.196078%, 50.196078%, 50.196078%)" fill-opacity="1" d="M 53.183594 23.660156 C 53.183594 23.605469 53.183594 23.582031 52.902344 23.300781 C 50.894531 21.269531 50.363281 18.195312 50.363281 15.703125 C 50.363281 12.882812 50.972656 10.0625 52.980469 8.054688 C 53.183594 7.851562 53.183594 7.828125 53.183594 7.777344 C 53.183594 7.648438 53.132812 7.597656 53.03125 7.597656 C 52.851562 7.597656 51.402344 8.714844 50.4375 10.773438 C 49.625 12.554688 49.421875 14.355469 49.421875 15.703125 C 49.421875 16.976562 49.597656 18.929688 50.488281 20.785156 C 51.480469 22.769531 52.851562 23.835938 53.03125 23.835938 C 53.132812 23.835938 53.183594 23.785156 53.183594 23.660156 Z M 53.183594 23.660156 "/>
<path fill-rule="nonzero" fill="rgb(50.196078%, 50.196078%, 50.196078%)" fill-opacity="1" d="M 60.613281 17.964844 C 60.484375 18.117188 60.410156 18.21875 60.257812 18.398438 C 59.902344 18.90625 59.699219 19.058594 59.519531 19.058594 C 59.292969 19.058594 59.140625 18.855469 59.011719 18.398438 C 58.988281 18.269531 58.960938 18.167969 58.960938 18.117188 C 58.554688 16.464844 58.378906 15.730469 58.378906 15.5 C 59.089844 14.230469 59.671875 13.519531 59.953125 13.519531 C 60.054688 13.519531 60.179688 13.570312 60.359375 13.644531 C 60.535156 13.773438 60.664062 13.796875 60.792969 13.796875 C 61.121094 13.796875 61.351562 13.570312 61.351562 13.214844 C 61.351562 12.882812 61.070312 12.628906 60.691406 12.628906 C 59.976562 12.628906 59.367188 13.214844 58.25 14.941406 L 58.070312 14.050781 C 57.84375 12.933594 57.664062 12.628906 57.207031 12.628906 C 56.851562 12.628906 56.320312 12.757812 55.328125 13.085938 L 55.148438 13.164062 L 55.199219 13.390625 C 55.835938 13.265625 55.964844 13.214844 56.117188 13.214844 C 56.523438 13.214844 56.625 13.367188 56.851562 14.332031 L 57.308594 16.339844 L 55.988281 18.21875 C 55.65625 18.726562 55.328125 19.007812 55.148438 19.007812 C 55.074219 19.007812 54.894531 18.957031 54.742188 18.855469 C 54.539062 18.753906 54.363281 18.703125 54.210938 18.703125 C 53.90625 18.703125 53.675781 18.929688 53.675781 19.261719 C 53.675781 19.695312 54.007812 19.949219 54.488281 19.949219 C 54.972656 19.949219 55.175781 19.796875 55.988281 18.804688 C 56.421875 18.296875 56.777344 17.863281 57.4375 16.925781 L 57.945312 18.855469 C 58.148438 19.695312 58.351562 19.949219 58.886719 19.949219 C 59.496094 19.949219 59.902344 19.566406 60.84375 18.09375 Z M 60.613281 17.964844 "/>
<path fill-rule="nonzero" fill="rgb(50.196078%, 50.196078%, 50.196078%)" fill-opacity="1" d="M 66.027344 15.703125 C 66.027344 14.460938 65.847656 12.503906 64.957031 10.648438 C 63.992188 8.664062 62.59375 7.597656 62.441406 7.597656 C 62.339844 7.597656 62.265625 7.675781 62.265625 7.777344 C 62.265625 7.828125 62.265625 7.851562 62.570312 8.15625 C 64.171875 9.757812 65.085938 12.324219 65.085938 15.703125 C 65.085938 18.5 64.5 21.347656 62.492188 23.378906 C 62.265625 23.582031 62.265625 23.605469 62.265625 23.660156 C 62.265625 23.761719 62.339844 23.835938 62.441406 23.835938 C 62.59375 23.835938 64.070312 22.71875 65.007812 20.660156 C 65.847656 18.878906 66.027344 17.078125 66.027344 15.703125 Z M 66.027344 15.703125 "/>
<path fill-rule="nonzero" fill="rgb(50.196078%, 50.196078%, 50.196078%)" fill-opacity="1" d="M 82.363281 14.460938 C 82.617188 14.460938 82.921875 14.460938 82.921875 14.152344 C 82.921875 13.824219 82.617188 13.824219 82.386719 13.824219 L 72.679688 13.824219 C 72.453125 13.824219 72.148438 13.824219 72.148438 14.152344 C 72.148438 14.460938 72.453125 14.460938 72.679688 14.460938 Z M 82.386719 17.609375 C 82.617188 17.609375 82.921875 17.609375 82.921875 17.28125 C 82.921875 16.976562 82.617188 16.976562 82.363281 16.976562 L 72.679688 16.976562 C 72.453125 16.976562 72.148438 16.976562 72.148438 17.28125 C 72.148438 17.609375 72.453125 17.609375 72.679688 17.609375 Z M 82.386719 17.609375 "/>
<path fill-rule="nonzero" fill="rgb(50.196078%, 50.196078%, 50.196078%)" fill-opacity="1" d="M 87.730469 9.679688 L 87.832031 9.679688 C 88.011719 9.65625 88.214844 9.628906 88.34375 9.628906 C 88.851562 9.628906 89.027344 9.859375 89.027344 10.621094 L 89.027344 18.347656 C 89.027344 19.238281 88.800781 19.441406 87.757812 19.515625 L 87.757812 19.769531 L 91.59375 19.769531 L 91.59375 19.515625 C 90.578125 19.464844 90.375 19.289062 90.375 18.398438 L 90.375 8.742188 L 90.324219 8.691406 C 89.460938 8.96875 88.851562 9.121094 87.730469 9.402344 Z M 87.730469 9.679688 "/>
<path fill-rule="nonzero" fill="rgb(50.196078%, 50.196078%, 50.196078%)" fill-opacity="1" d="M 92.1875 13.316406 C 92.289062 13.265625 92.441406 13.265625 92.617188 13.265625 C 93.074219 13.265625 93.226562 13.492188 93.226562 14.28125 L 93.226562 18.320312 C 93.226562 19.238281 93.050781 19.464844 92.210938 19.515625 L 92.210938 19.769531 L 95.667969 19.769531 L 95.667969 19.515625 C 94.828125 19.464844 94.601562 19.261719 94.601562 18.675781 L 94.601562 14.128906 C 95.363281 13.390625 95.71875 13.214844 96.25 13.214844 C 97.066406 13.214844 97.445312 13.695312 97.445312 14.765625 L 97.445312 18.167969 C 97.445312 19.1875 97.242188 19.464844 96.429688 19.515625 L 96.429688 19.769531 L 99.785156 19.769531 L 99.785156 19.515625 C 98.996094 19.441406 98.820312 19.261719 98.820312 18.449219 L 98.820312 14.738281 C 98.820312 13.214844 98.082031 12.324219 96.886719 12.324219 C 96.148438 12.324219 95.640625 12.578125 94.550781 13.621094 L 94.550781 12.351562 L 94.421875 12.324219 C 93.632812 12.605469 93.074219 12.78125 92.1875 13.035156 Z M 92.1875 13.316406 "/>
<path fill-rule="nonzero" fill="rgb(50.196078%, 50.196078%, 50.196078%)" fill-opacity="1" d="M 105.394531 23.660156 C 105.394531 23.605469 105.394531 23.582031 105.113281 23.300781 C 103.105469 21.269531 102.574219 18.195312 102.574219 15.703125 C 102.574219 12.882812 103.183594 10.0625 105.191406 8.054688 C 105.394531 7.851562 105.394531 7.828125 105.394531 7.777344 C 105.394531 7.648438 105.34375 7.597656 105.242188 7.597656 C 105.0625 7.597656 103.613281 8.714844 102.648438 10.773438 C 101.835938 12.554688 101.632812 14.355469 101.632812 15.703125 C 101.632812 16.976562 101.8125 18.929688 102.699219 20.785156 C 103.691406 22.769531 105.0625 23.835938 105.242188 23.835938 C 105.34375 23.835938 105.394531 23.785156 105.394531 23.660156 Z M 105.394531 23.660156 "/>
<path fill-rule="nonzero" fill="rgb(50.196078%, 50.196078%, 50.196078%)" fill-opacity="1" d="M 112.824219 17.964844 C 112.699219 18.117188 112.621094 18.21875 112.46875 18.398438 C 112.113281 18.90625 111.910156 19.058594 111.730469 19.058594 C 111.503906 19.058594 111.351562 18.855469 111.222656 18.398438 C 111.199219 18.269531 111.171875 18.167969 111.171875 18.117188 C 110.765625 16.464844 110.589844 15.730469 110.589844 15.5 C 111.300781 14.230469 111.882812 13.519531 112.164062 13.519531 C 112.265625 13.519531 112.394531 13.570312 112.570312 13.644531 C 112.75 13.773438 112.875 13.796875 113.003906 13.796875 C 113.332031 13.796875 113.5625 13.570312 113.5625 13.214844 C 113.5625 12.882812 113.28125 12.628906 112.902344 12.628906 C 112.191406 12.628906 111.578125 13.214844 110.460938 14.941406 L 110.285156 14.050781 C 110.054688 12.933594 109.878906 12.628906 109.417969 12.628906 C 109.0625 12.628906 108.53125 12.757812 107.539062 13.085938 L 107.359375 13.164062 L 107.410156 13.390625 C 108.046875 13.265625 108.175781 13.214844 108.328125 13.214844 C 108.734375 13.214844 108.835938 13.367188 109.0625 14.332031 L 109.519531 16.339844 L 108.199219 18.21875 C 107.871094 18.726562 107.539062 19.007812 107.359375 19.007812 C 107.285156 19.007812 107.105469 18.957031 106.953125 18.855469 C 106.75 18.753906 106.574219 18.703125 106.421875 18.703125 C 106.117188 18.703125 105.886719 18.929688 105.886719 19.261719 C 105.886719 19.695312 106.21875 19.949219 106.699219 19.949219 C 107.183594 19.949219 107.386719 19.796875 108.199219 18.804688 C 108.632812 18.296875 108.988281 17.863281 109.648438 16.925781 L 110.15625 18.855469 C 110.359375 19.695312 110.5625 19.949219 111.097656 19.949219 C 111.707031 19.949219 112.113281 19.566406 113.054688 18.09375 Z M 112.824219 17.964844 "/>
<path fill-rule="nonzero" fill="rgb(50.196078%, 50.196078%, 50.196078%)" fill-opacity="1" d="M 118.238281 15.703125 C 118.238281 14.460938 118.058594 12.503906 117.171875 10.648438 C 116.203125 8.664062 114.808594 7.597656 114.652344 7.597656 C 114.550781 7.597656 114.476562 7.675781 114.476562 7.777344 C 114.476562 7.828125 114.476562 7.851562 114.78125 8.15625 C 116.382812 9.757812 117.296875 12.324219 117.296875 15.703125 C 117.296875 18.5 116.710938 21.347656 114.703125 23.378906 C 114.476562 23.582031 114.476562 23.605469 114.476562 23.660156 C 114.476562 23.761719 114.550781 23.835938 114.652344 23.835938 C 114.808594 23.835938 116.28125 22.71875 117.222656 20.660156 C 118.058594 18.878906 118.238281 17.078125 118.238281 15.703125 Z M 118.238281 15.703125 "/>
<path fill="none" stroke-width="0.99628" stroke-linecap="butt" stroke-linejoin="miter" stroke="rgb(100%, 12.941176%, 32.156863%)" stroke-opacity="1" stroke-miterlimit="10" d="M -0.000187247 -0.000733374 L 17.007075 -0.000733374 " transform="matrix(1.626373, 0, 0, -1.626373, 123.898742, 14.908964)"/>
<path fill-rule="nonzero" fill="rgb(50.196078%, 50.196078%, 50.196078%)" fill-opacity="1" d="M 163.261719 13.214844 L 162.269531 13.214844 C 162.21875 13.214844 162.140625 13.164062 162.015625 13.085938 C 161.582031 12.78125 161.050781 12.628906 160.414062 12.628906 C 158.636719 12.628906 157.160156 13.875 157.160156 15.398438 C 157.160156 16.238281 157.515625 16.722656 158.457031 17.152344 C 157.492188 17.789062 157.210938 18.117188 157.210938 18.5 C 157.210938 18.726562 157.339844 18.90625 157.644531 19.136719 C 156.042969 20.203125 155.738281 20.507812 155.738281 21.269531 C 155.738281 22.386719 156.804688 23.097656 158.457031 23.097656 C 160.492188 23.097656 161.863281 22.160156 161.863281 20.734375 C 161.863281 19.71875 161.074219 19.007812 159.523438 18.601562 C 158.8125 18.421875 158.40625 18.167969 158.40625 17.914062 C 158.40625 17.6875 158.761719 17.253906 158.992188 17.253906 C 159.015625 17.253906 159.042969 17.253906 159.09375 17.28125 C 159.21875 17.304688 159.449219 17.332031 159.601562 17.332031 C 161.074219 17.332031 162.601562 16.007812 162.601562 14.738281 C 162.601562 14.484375 162.550781 14.152344 162.445312 13.824219 L 163.261719 13.824219 Z M 158 19.3125 C 158.027344 19.3125 158.050781 19.339844 158.101562 19.339844 C 158.152344 19.363281 158.304688 19.414062 158.558594 19.492188 C 160.289062 20.023438 160.871094 20.480469 160.871094 21.21875 C 160.871094 22.109375 159.929688 22.742188 158.6875 22.742188 C 157.390625 22.742188 156.628906 22.132812 156.628906 21.089844 C 156.628906 20.710938 156.730469 20.429688 156.984375 20.125 C 157.210938 19.847656 157.875 19.3125 158 19.3125 Z M 160.414062 12.984375 C 161 12.984375 161.328125 13.367188 161.328125 14.128906 C 161.328125 14.6875 161.125 15.398438 160.820312 15.957031 C 160.464844 16.617188 159.957031 16.976562 159.398438 16.976562 C 158.789062 16.976562 158.433594 16.515625 158.433594 15.753906 C 158.433594 14.28125 159.347656 12.984375 160.414062 12.984375 Z M 160.414062 12.984375 "/>
<path fill-rule="nonzero" fill="rgb(50.196078%, 50.196078%, 50.196078%)" fill-opacity="1" d="M 169.074219 23.660156 C 169.074219 23.605469 169.074219 23.582031 168.792969 23.300781 C 166.789062 21.269531 166.253906 18.195312 166.253906 15.703125 C 166.253906 12.882812 166.863281 10.0625 168.871094 8.054688 C 169.074219 7.851562 169.074219 7.828125 169.074219 7.777344 C 169.074219 7.648438 169.023438 7.597656 168.921875 7.597656 C 168.742188 7.597656 167.296875 8.714844 166.328125 10.773438 C 165.515625 12.554688 165.3125 14.355469 165.3125 15.703125 C 165.3125 16.976562 165.492188 18.929688 166.378906 20.785156 C 167.371094 22.769531 168.742188 23.835938 168.921875 23.835938 C 169.023438 23.835938 169.074219 23.785156 169.074219 23.660156 Z M 169.074219 23.660156 "/>
<path fill-rule="nonzero" fill="rgb(50.196078%, 50.196078%, 50.196078%)" fill-opacity="1" d="M 176.503906 17.964844 C 176.375 18.117188 176.300781 18.21875 176.148438 18.398438 C 175.792969 18.90625 175.589844 19.058594 175.410156 19.058594 C 175.183594 19.058594 175.03125 18.855469 174.902344 18.398438 C 174.878906 18.269531 174.851562 18.167969 174.851562 18.117188 C 174.445312 16.464844 174.265625 15.730469 174.265625 15.5 C 174.980469 14.230469 175.5625 13.519531 175.84375 13.519531 C 175.945312 13.519531 176.070312 13.570312 176.25 13.644531 C 176.425781 13.773438 176.554688 13.796875 176.683594 13.796875 C 177.011719 13.796875 177.242188 13.570312 177.242188 13.214844 C 177.242188 12.882812 176.960938 12.628906 176.578125 12.628906 C 175.867188 12.628906 175.257812 13.214844 174.140625 14.941406 L 173.960938 14.050781 C 173.734375 12.933594 173.554688 12.628906 173.097656 12.628906 C 172.742188 12.628906 172.210938 12.757812 171.21875 13.085938 L 171.039062 13.164062 L 171.089844 13.390625 C 171.726562 13.265625 171.851562 13.214844 172.003906 13.214844 C 172.414062 13.214844 172.515625 13.367188 172.742188 14.332031 L 173.199219 16.339844 L 171.878906 18.21875 C 171.546875 18.726562 171.21875 19.007812 171.039062 19.007812 C 170.964844 19.007812 170.785156 18.957031 170.632812 18.855469 C 170.429688 18.753906 170.253906 18.703125 170.101562 18.703125 C 169.796875 18.703125 169.566406 18.929688 169.566406 19.261719 C 169.566406 19.695312 169.898438 19.949219 170.378906 19.949219 C 170.863281 19.949219 171.066406 19.796875 171.878906 18.804688 C 172.3125 18.296875 172.667969 17.863281 173.328125 16.925781 L 173.835938 18.855469 C 174.039062 19.695312 174.242188 19.949219 174.777344 19.949219 C 175.386719 19.949219 175.792969 19.566406 176.734375 18.09375 Z M 176.503906 17.964844 "/>
<path fill-rule="nonzero" fill="rgb(50.196078%, 50.196078%, 50.196078%)" fill-opacity="1" d="M 181.917969 15.703125 C 181.917969 14.460938 181.738281 12.503906 180.851562 10.648438 C 179.886719 8.664062 178.488281 7.597656 178.335938 7.597656 C 178.234375 7.597656 178.15625 7.675781 178.15625 7.777344 C 178.15625 7.828125 178.15625 7.851562 178.460938 8.15625 C 180.0625 9.757812 180.976562 12.324219 180.976562 15.703125 C 180.976562 18.5 180.394531 21.347656 178.386719 23.378906 C 178.15625 23.582031 178.15625 23.605469 178.15625 23.660156 C 178.15625 23.761719 178.234375 23.835938 178.335938 23.835938 C 178.488281 23.835938 179.960938 22.71875 180.902344 20.660156 C 181.738281 18.878906 181.917969 17.078125 181.917969 15.703125 Z M 181.917969 15.703125 "/>
<path fill-rule="nonzero" fill="rgb(50.196078%, 50.196078%, 50.196078%)" fill-opacity="1" d="M 198.253906 14.460938 C 198.507812 14.460938 198.8125 14.460938 198.8125 14.152344 C 198.8125 13.824219 198.507812 13.824219 198.28125 13.824219 L 188.574219 13.824219 C 188.34375 13.824219 188.039062 13.824219 188.039062 14.152344 C 188.039062 14.460938 188.34375 14.460938 188.574219 14.460938 Z M 198.28125 17.609375 C 198.507812 17.609375 198.8125 17.609375 198.8125 17.28125 C 198.8125 16.976562 198.507812 16.976562 198.253906 16.976562 L 188.574219 16.976562 C 188.34375 16.976562 188.039062 16.976562 188.039062 17.28125 C 188.039062 17.609375 188.34375 17.609375 188.574219 17.609375 Z M 198.28125 17.609375 "/>
<path fill-rule="nonzero" fill="rgb(50.196078%, 50.196078%, 50.196078%)" fill-opacity="1" d="M 203.625 9.679688 L 203.726562 9.679688 C 203.902344 9.65625 204.105469 9.628906 204.234375 9.628906 C 204.742188 9.628906 204.921875 9.859375 204.921875 10.621094 L 204.921875 18.347656 C 204.921875 19.238281 204.691406 19.441406 203.648438 19.515625 L 203.648438 19.769531 L 207.488281 19.769531 L 207.488281 19.515625 C 206.46875 19.464844 206.265625 19.289062 206.265625 18.398438 L 206.265625 8.742188 L 206.214844 8.691406 C 205.351562 8.96875 204.742188 9.121094 203.625 9.402344 Z M 203.625 9.679688 "/>
<path fill-rule="nonzero" fill="rgb(50.196078%, 50.196078%, 50.196078%)" fill-opacity="1" d="M 211.890625 12.324219 C 209.78125 12.324219 208.308594 13.875 208.308594 16.109375 C 208.308594 18.296875 209.804688 19.921875 211.839844 19.921875 C 213.898438 19.921875 215.449219 18.21875 215.449219 15.984375 C 215.449219 13.847656 213.949219 12.324219 211.890625 12.324219 Z M 211.660156 12.757812 C 213.035156 12.757812 213.972656 14.332031 213.972656 16.542969 C 213.972656 18.371094 213.261719 19.492188 212.042969 19.492188 C 211.40625 19.492188 210.796875 19.085938 210.464844 18.449219 C 210.007812 17.609375 209.753906 16.464844 209.753906 15.324219 C 209.753906 13.773438 210.515625 12.757812 211.660156 12.757812 Z M 211.660156 12.757812 "/>
<path fill-rule="nonzero" fill="rgb(50.196078%, 50.196078%, 50.196078%)" fill-opacity="1" d="M 223.550781 13.46875 L 223.550781 12.859375 L 222.304688 12.859375 C 221.972656 12.859375 221.71875 12.808594 221.414062 12.679688 L 221.058594 12.554688 C 220.601562 12.402344 220.167969 12.324219 219.761719 12.324219 C 218.238281 12.324219 217.042969 13.46875 217.042969 14.96875 C 217.042969 15.984375 217.476562 16.59375 218.542969 17.128906 C 218.238281 17.40625 217.957031 17.6875 217.855469 17.789062 C 217.324219 18.246094 217.121094 18.574219 217.121094 18.90625 C 217.121094 19.238281 217.296875 19.441406 217.957031 19.746094 C 216.816406 20.609375 216.382812 21.140625 216.382812 21.726562 C 216.382812 22.589844 217.652344 23.300781 219.179688 23.300781 C 220.398438 23.300781 221.667969 22.871094 222.507812 22.210938 C 223.117188 21.703125 223.394531 21.191406 223.394531 20.558594 C 223.394531 19.566406 222.632812 18.878906 221.441406 18.828125 L 219.355469 18.726562 C 218.492188 18.703125 218.085938 18.550781 218.085938 18.296875 C 218.085938 17.964844 218.617188 17.40625 219.050781 17.28125 C 219.203125 17.28125 219.304688 17.304688 219.355469 17.304688 C 219.660156 17.332031 219.890625 17.355469 219.992188 17.355469 C 220.574219 17.355469 221.238281 17.101562 221.71875 16.667969 C 222.253906 16.210938 222.507812 15.652344 222.507812 14.839844 C 222.507812 14.382812 222.429688 14 222.203125 13.46875 Z M 218.3125 19.796875 C 218.847656 19.921875 220.144531 20.023438 220.929688 20.023438 C 222.40625 20.023438 222.9375 20.226562 222.9375 20.8125 C 222.9375 21.753906 221.71875 22.386719 219.890625 22.386719 C 218.464844 22.386719 217.527344 21.90625 217.527344 21.191406 C 217.527344 20.8125 217.628906 20.609375 218.3125 19.796875 Z M 218.390625 14.28125 C 218.390625 13.339844 218.847656 12.757812 219.585938 12.757812 C 220.09375 12.757812 220.523438 13.035156 220.777344 13.519531 C 221.058594 14.101562 221.261719 14.839844 221.261719 15.476562 C 221.261719 16.390625 220.777344 16.949219 220.042969 16.949219 C 219.078125 16.949219 218.390625 15.90625 218.390625 14.332031 Z M 218.390625 14.28125 "/>
<path fill-rule="nonzero" fill="rgb(50.196078%, 50.196078%, 50.196078%)" fill-opacity="1" d="M 229.71875 22.226562 L 229.566406 22.175781 C 229.132812 22.859375 228.957031 22.960938 228.421875 22.960938 L 225.550781 22.960938 L 227.585938 20.851562 C 228.652344 19.734375 229.109375 18.820312 229.109375 17.878906 C 229.109375 16.683594 228.144531 15.769531 226.898438 15.769531 C 226.238281 15.769531 225.601562 16.023438 225.171875 16.507812 C 224.789062 16.914062 224.609375 17.296875 224.40625 18.160156 L 224.660156 18.210938 C 225.117188 17.039062 225.550781 16.660156 226.390625 16.660156 C 227.40625 16.660156 228.09375 17.347656 228.09375 18.335938 C 228.09375 19.277344 227.535156 20.394531 226.515625 21.460938 L 224.382812 23.722656 L 224.382812 23.875 L 229.058594 23.875 Z M 229.71875 22.226562 "/>
<path fill-rule="nonzero" fill="rgb(50.196078%, 50.196078%, 50.196078%)" fill-opacity="1" d="M 236.191406 23.660156 C 236.191406 23.605469 236.191406 23.582031 235.914062 23.300781 C 233.90625 21.269531 233.371094 18.195312 233.371094 15.703125 C 233.371094 12.882812 233.980469 10.0625 235.988281 8.054688 C 236.191406 7.851562 236.191406 7.828125 236.191406 7.777344 C 236.191406 7.648438 236.140625 7.597656 236.039062 7.597656 C 235.863281 7.597656 234.414062 8.714844 233.449219 10.773438 C 232.636719 12.554688 232.433594 14.355469 232.433594 15.703125 C 232.433594 16.976562 232.609375 18.929688 233.5 20.785156 C 234.492188 22.769531 235.863281 23.835938 236.039062 23.835938 C 236.140625 23.835938 236.191406 23.785156 236.191406 23.660156 Z M 236.191406 23.660156 "/>
<path fill-rule="nonzero" fill="rgb(50.196078%, 50.196078%, 50.196078%)" fill-opacity="1" d="M 243.621094 17.964844 C 243.496094 18.117188 243.417969 18.21875 243.265625 18.398438 C 242.910156 18.90625 242.707031 19.058594 242.53125 19.058594 C 242.300781 19.058594 242.148438 18.855469 242.023438 18.398438 C 241.996094 18.269531 241.972656 18.167969 241.972656 18.117188 C 241.5625 16.464844 241.386719 15.730469 241.386719 15.5 C 242.097656 14.230469 242.683594 13.519531 242.960938 13.519531 C 243.0625 13.519531 243.191406 13.570312 243.367188 13.644531 C 243.546875 13.773438 243.671875 13.796875 243.800781 13.796875 C 244.128906 13.796875 244.359375 13.570312 244.359375 13.214844 C 244.359375 12.882812 244.078125 12.628906 243.699219 12.628906 C 242.988281 12.628906 242.378906 13.214844 241.257812 14.941406 L 241.082031 14.050781 C 240.851562 12.933594 240.675781 12.628906 240.21875 12.628906 C 239.863281 12.628906 239.328125 12.757812 238.335938 13.085938 L 238.160156 13.164062 L 238.210938 13.390625 C 238.84375 13.265625 238.972656 13.214844 239.125 13.214844 C 239.53125 13.214844 239.632812 13.367188 239.863281 14.332031 L 240.320312 16.339844 L 238.996094 18.21875 C 238.667969 18.726562 238.335938 19.007812 238.160156 19.007812 C 238.082031 19.007812 237.90625 18.957031 237.753906 18.855469 C 237.550781 18.753906 237.371094 18.703125 237.21875 18.703125 C 236.914062 18.703125 236.683594 18.929688 236.683594 19.261719 C 236.683594 19.695312 237.015625 19.949219 237.5 19.949219 C 237.980469 19.949219 238.183594 19.796875 238.996094 18.804688 C 239.429688 18.296875 239.785156 17.863281 240.445312 16.925781 L 240.953125 18.855469 C 241.15625 19.695312 241.359375 19.949219 241.894531 19.949219 C 242.503906 19.949219 242.910156 19.566406 243.851562 18.09375 Z M 243.621094 17.964844 "/>
<path fill-rule="nonzero" fill="rgb(50.196078%, 50.196078%, 50.196078%)" fill-opacity="1" d="M 249.035156 15.703125 C 249.035156 14.460938 248.859375 12.503906 247.96875 10.648438 C 247.003906 8.664062 245.605469 7.597656 245.453125 7.597656 C 245.351562 7.597656 245.277344 7.675781 245.277344 7.777344 C 245.277344 7.828125 245.277344 7.851562 245.582031 8.15625 C 247.183594 9.757812 248.097656 12.324219 248.097656 15.703125 C 248.097656 18.5 247.511719 21.347656 245.503906 23.378906 C 245.277344 23.582031 245.277344 23.605469 245.277344 23.660156 C 245.277344 23.761719 245.351562 23.835938 245.453125 23.835938 C 245.605469 23.835938 247.078125 22.71875 248.019531 20.660156 C 248.859375 18.878906 249.035156 17.078125 249.035156 15.703125 Z M 249.035156 15.703125 "/>
<path fill="none" stroke-width="0.99628" stroke-linecap="butt" stroke-linejoin="miter" stroke="rgb(1.176471%, 74.901961%, 23.921569%)" stroke-opacity="1" stroke-miterlimit="10" d="M 0.000638865 -0.000733374 L 17.007901 -0.000733374 " transform="matrix(1.626373, 0, 0, -1.626373, 254.69818, 14.908964)"/>
<path fill-rule="nonzero" fill="rgb(50.196078%, 50.196078%, 50.196078%)" fill-opacity="1" d="M 293.957031 17.863281 C 293.066406 18.980469 292.890625 19.160156 292.609375 19.160156 C 292.484375 19.160156 292.355469 19.007812 292.355469 18.855469 C 292.355469 18.703125 292.609375 17.6875 292.890625 16.847656 C 293.371094 15.296875 293.675781 14.101562 293.675781 13.695312 C 293.675781 13.0625 293.246094 12.628906 292.609375 12.628906 C 291.542969 12.628906 290.398438 13.695312 288.898438 16.035156 L 290.832031 8.765625 L 290.753906 8.691406 C 289.8125 8.917969 289.179688 9.019531 288.214844 9.121094 L 288.214844 9.375 L 288.621094 9.375 C 288.644531 9.375 288.671875 9.375 288.671875 9.351562 C 288.898438 9.273438 289.304688 9.527344 289.304688 9.757812 C 289.304688 9.988281 289.203125 10.394531 289.078125 10.875 C 289.050781 10.875 289 11.105469 288.898438 11.460938 L 286.714844 19.769531 L 287.933594 19.769531 C 288.570312 17.28125 288.796875 16.722656 289.433594 15.730469 C 290.273438 14.460938 291.390625 13.441406 291.949219 13.441406 C 292.203125 13.441406 292.40625 13.644531 292.40625 13.847656 C 292.40625 13.925781 292.355469 14.128906 292.304688 14.382812 L 291.414062 17.738281 C 291.1875 18.550781 291.085938 19.035156 291.085938 19.238281 C 291.085938 19.667969 291.363281 19.921875 291.796875 19.921875 C 292.609375 19.921875 293.195312 19.492188 294.160156 18.066406 Z M 293.957031 17.863281 "/>
<path fill-rule="nonzero" fill="rgb(50.196078%, 50.196078%, 50.196078%)" fill-opacity="1" d="M 299.875 23.660156 C 299.875 23.605469 299.875 23.582031 299.59375 23.300781 C 297.585938 21.269531 297.054688 18.195312 297.054688 15.703125 C 297.054688 12.882812 297.664062 10.0625 299.671875 8.054688 C 299.875 7.851562 299.875 7.828125 299.875 7.777344 C 299.875 7.648438 299.824219 7.597656 299.722656 7.597656 C 299.542969 7.597656 298.09375 8.714844 297.128906 10.773438 C 296.316406 12.554688 296.113281 14.355469 296.113281 15.703125 C 296.113281 16.976562 296.289062 18.929688 297.179688 20.785156 C 298.171875 22.769531 299.542969 23.835938 299.722656 23.835938 C 299.824219 23.835938 299.875 23.785156 299.875 23.660156 Z M 299.875 23.660156 "/>
<path fill-rule="nonzero" fill="rgb(50.196078%, 50.196078%, 50.196078%)" fill-opacity="1" d="M 307.304688 17.964844 C 307.175781 18.117188 307.101562 18.21875 306.949219 18.398438 C 306.589844 18.90625 306.386719 19.058594 306.210938 19.058594 C 305.980469 19.058594 305.828125 18.855469 305.703125 18.398438 C 305.675781 18.269531 305.652344 18.167969 305.652344 18.117188 C 305.246094 16.464844 305.066406 15.730469 305.066406 15.5 C 305.777344 14.230469 306.363281 13.519531 306.640625 13.519531 C 306.746094 13.519531 306.871094 13.570312 307.050781 13.644531 C 307.226562 13.773438 307.355469 13.796875 307.480469 13.796875 C 307.8125 13.796875 308.039062 13.570312 308.039062 13.214844 C 308.039062 12.882812 307.761719 12.628906 307.378906 12.628906 C 306.667969 12.628906 306.058594 13.214844 304.941406 14.941406 L 304.761719 14.050781 C 304.535156 12.933594 304.355469 12.628906 303.898438 12.628906 C 303.542969 12.628906 303.007812 12.757812 302.015625 13.085938 L 301.839844 13.164062 L 301.890625 13.390625 C 302.527344 13.265625 302.652344 13.214844 302.804688 13.214844 C 303.210938 13.214844 303.3125 13.367188 303.542969 14.332031 L 304 16.339844 L 302.679688 18.21875 C 302.347656 18.726562 302.015625 19.007812 301.839844 19.007812 C 301.761719 19.007812 301.585938 18.957031 301.433594 18.855469 C 301.230469 18.753906 301.050781 18.703125 300.898438 18.703125 C 300.59375 18.703125 300.367188 18.929688 300.367188 19.261719 C 300.367188 19.695312 300.695312 19.949219 301.179688 19.949219 C 301.660156 19.949219 301.863281 19.796875 302.679688 18.804688 C 303.109375 18.296875 303.464844 17.863281 304.125 16.925781 L 304.636719 18.855469 C 304.839844 19.695312 305.042969 19.949219 305.574219 19.949219 C 306.183594 19.949219 306.589844 19.566406 307.53125 18.09375 Z M 307.304688 17.964844 "/>
<path fill-rule="nonzero" fill="rgb(50.196078%, 50.196078%, 50.196078%)" fill-opacity="1" d="M 312.714844 15.703125 C 312.714844 14.460938 312.539062 12.503906 311.648438 10.648438 C 310.683594 8.664062 309.285156 7.597656 309.132812 7.597656 C 309.03125 7.597656 308.953125 7.675781 308.953125 7.777344 C 308.953125 7.828125 308.953125 7.851562 309.257812 8.15625 C 310.859375 9.757812 311.777344 12.324219 311.777344 15.703125 C 311.777344 18.5 311.191406 21.347656 309.183594 23.378906 C 308.953125 23.582031 308.953125 23.605469 308.953125 23.660156 C 308.953125 23.761719 309.03125 23.835938 309.132812 23.835938 C 309.285156 23.835938 310.757812 22.71875 311.699219 20.660156 C 312.539062 18.878906 312.714844 17.078125 312.714844 15.703125 Z M 312.714844 15.703125 "/>
<path fill-rule="nonzero" fill="rgb(50.196078%, 50.196078%, 50.196078%)" fill-opacity="1" d="M 329.050781 14.460938 C 329.308594 14.460938 329.613281 14.460938 329.613281 14.152344 C 329.613281 13.824219 329.308594 13.824219 329.078125 13.824219 L 319.371094 13.824219 C 319.140625 13.824219 318.835938 13.824219 318.835938 14.152344 C 318.835938 14.460938 319.140625 14.460938 319.371094 14.460938 Z M 329.078125 17.609375 C 329.308594 17.609375 329.613281 17.609375 329.613281 17.28125 C 329.613281 16.976562 329.308594 16.976562 329.050781 16.976562 L 319.371094 16.976562 C 319.140625 16.976562 318.835938 16.976562 318.835938 17.28125 C 318.835938 17.609375 319.140625 17.609375 319.371094 17.609375 Z M 329.078125 17.609375 "/>
<path fill-rule="nonzero" fill="rgb(50.196078%, 50.196078%, 50.196078%)" fill-opacity="1" d="M 334.421875 9.679688 L 334.523438 9.679688 C 334.703125 9.65625 334.90625 9.628906 335.03125 9.628906 C 335.539062 9.628906 335.71875 9.859375 335.71875 10.621094 L 335.71875 18.347656 C 335.71875 19.238281 335.488281 19.441406 334.449219 19.515625 L 334.449219 19.769531 L 338.285156 19.769531 L 338.285156 19.515625 C 337.269531 19.464844 337.066406 19.289062 337.066406 18.398438 L 337.066406 8.742188 L 337.015625 8.691406 C 336.148438 8.96875 335.539062 9.121094 334.421875 9.402344 Z M 334.421875 9.679688 "/>
<path fill-rule="nonzero" fill="rgb(50.196078%, 50.196078%, 50.196078%)" fill-opacity="1" d="M 342.6875 12.324219 C 340.578125 12.324219 339.105469 13.875 339.105469 16.109375 C 339.105469 18.296875 340.605469 19.921875 342.636719 19.921875 C 344.695312 19.921875 346.246094 18.21875 346.246094 15.984375 C 346.246094 13.847656 344.746094 12.324219 342.6875 12.324219 Z M 342.457031 12.757812 C 343.832031 12.757812 344.769531 14.332031 344.769531 16.542969 C 344.769531 18.371094 344.058594 19.492188 342.839844 19.492188 C 342.203125 19.492188 341.59375 19.085938 341.265625 18.449219 C 340.808594 17.609375 340.554688 16.464844 340.554688 15.324219 C 340.554688 13.773438 341.316406 12.757812 342.457031 12.757812 Z M 342.457031 12.757812 "/>
<path fill-rule="nonzero" fill="rgb(50.196078%, 50.196078%, 50.196078%)" fill-opacity="1" d="M 354.347656 13.46875 L 354.347656 12.859375 L 353.101562 12.859375 C 352.769531 12.859375 352.515625 12.808594 352.210938 12.679688 L 351.855469 12.554688 C 351.398438 12.402344 350.96875 12.324219 350.558594 12.324219 C 349.035156 12.324219 347.839844 13.46875 347.839844 14.96875 C 347.839844 15.984375 348.273438 16.59375 349.339844 17.128906 C 349.035156 17.40625 348.757812 17.6875 348.65625 17.789062 C 348.121094 18.246094 347.917969 18.574219 347.917969 18.90625 C 347.917969 19.238281 348.09375 19.441406 348.757812 19.746094 C 347.613281 20.609375 347.179688 21.140625 347.179688 21.726562 C 347.179688 22.589844 348.449219 23.300781 349.976562 23.300781 C 351.195312 23.300781 352.464844 22.871094 353.304688 22.210938 C 353.914062 21.703125 354.195312 21.191406 354.195312 20.558594 C 354.195312 19.566406 353.433594 18.878906 352.238281 18.828125 L 350.152344 18.726562 C 349.289062 18.703125 348.882812 18.550781 348.882812 18.296875 C 348.882812 17.964844 349.417969 17.40625 349.847656 17.28125 C 350 17.28125 350.101562 17.304688 350.152344 17.304688 C 350.457031 17.332031 350.6875 17.355469 350.789062 17.355469 C 351.375 17.355469 352.035156 17.101562 352.515625 16.667969 C 353.050781 16.210938 353.304688 15.652344 353.304688 14.839844 C 353.304688 14.382812 353.230469 14 353 13.46875 Z M 349.113281 19.796875 C 349.644531 19.921875 350.941406 20.023438 351.730469 20.023438 C 353.203125 20.023438 353.738281 20.226562 353.738281 20.8125 C 353.738281 21.753906 352.515625 22.386719 350.6875 22.386719 C 349.265625 22.386719 348.324219 21.90625 348.324219 21.191406 C 348.324219 20.8125 348.425781 20.609375 349.113281 19.796875 Z M 349.1875 14.28125 C 349.1875 13.339844 349.644531 12.757812 350.382812 12.757812 C 350.890625 12.757812 351.324219 13.035156 351.578125 13.519531 C 351.855469 14.101562 352.058594 14.839844 352.058594 15.476562 C 352.058594 16.390625 351.578125 16.949219 350.839844 16.949219 C 349.875 16.949219 349.1875 15.90625 349.1875 14.332031 Z M 349.1875 14.28125 "/>
<path fill-rule="nonzero" fill="rgb(50.196078%, 50.196078%, 50.196078%)" fill-opacity="1" d="M 357.875 15.769531 C 357.214844 15.769531 356.703125 15.972656 356.273438 16.378906 C 355.5625 17.066406 355.105469 18.4375 355.105469 19.835938 C 355.105469 21.15625 355.511719 22.554688 356.070312 23.242188 C 356.527344 23.75 357.136719 24.054688 357.824219 24.054688 C 358.433594 24.054688 358.941406 23.851562 359.371094 23.417969 C 360.085938 22.757812 360.542969 21.359375 360.542969 19.914062 C 360.542969 17.449219 359.449219 15.769531 357.875 15.769531 Z M 357.824219 16.074219 C 358.839844 16.074219 359.371094 17.449219 359.371094 19.9375 C 359.371094 22.453125 358.863281 23.722656 357.824219 23.722656 C 356.78125 23.722656 356.273438 22.453125 356.273438 19.964844 C 356.273438 17.421875 356.804688 16.074219 357.824219 16.074219 Z M 357.824219 16.074219 "/>
<path fill-rule="nonzero" fill="rgb(50.196078%, 50.196078%, 50.196078%)" fill-opacity="1" d="M 363.132812 23.242188 C 363.132812 22.886719 362.828125 22.605469 362.496094 22.605469 C 362.140625 22.605469 361.859375 22.886719 361.859375 23.242188 C 361.859375 23.597656 362.140625 23.875 362.496094 23.875 C 362.828125 23.875 363.132812 23.597656 363.132812 23.242188 Z M 363.132812 23.242188 "/>
<path fill-rule="nonzero" fill="rgb(50.196078%, 50.196078%, 50.196078%)" fill-opacity="1" d="M 366.300781 16.886719 L 368.664062 16.886719 C 368.839844 16.886719 368.890625 16.863281 368.941406 16.785156 L 369.402344 15.71875 L 369.273438 15.617188 C 369.09375 15.871094 368.992188 15.949219 368.738281 15.949219 L 366.222656 15.949219 L 364.929688 18.769531 C 364.902344 18.792969 364.902344 18.820312 364.902344 18.84375 C 364.902344 18.894531 364.953125 18.945312 365.054688 18.945312 C 365.4375 18.945312 365.917969 19.023438 366.402344 19.175781 C 367.773438 19.609375 368.433594 20.371094 368.433594 21.539062 C 368.433594 22.707031 367.699219 23.597656 366.757812 23.597656 C 366.503906 23.597656 366.300781 23.519531 365.945312 23.242188 C 365.5625 22.988281 365.285156 22.859375 365.03125 22.859375 C 364.699219 22.859375 364.519531 23.011719 364.519531 23.292969 C 364.519531 23.75 365.082031 24.054688 365.996094 24.054688 C 366.984375 24.054688 367.851562 23.722656 368.460938 23.113281 C 369.019531 22.582031 369.273438 21.894531 369.273438 20.980469 C 369.273438 20.117188 369.042969 19.558594 368.433594 18.945312 C 367.902344 18.4375 367.214844 18.160156 365.816406 17.90625 Z M 366.300781 16.886719 "/>
<path fill-rule="nonzero" fill="rgb(50.196078%, 50.196078%, 50.196078%)" fill-opacity="1" d="M 376.308594 23.660156 C 376.308594 23.605469 376.308594 23.582031 376.027344 23.300781 C 374.019531 21.269531 373.488281 18.195312 373.488281 15.703125 C 373.488281 12.882812 374.097656 10.0625 376.105469 8.054688 C 376.308594 7.851562 376.308594 7.828125 376.308594 7.777344 C 376.308594 7.648438 376.257812 7.597656 376.15625 7.597656 C 375.976562 7.597656 374.53125 8.714844 373.5625 10.773438 C 372.75 12.554688 372.546875 14.355469 372.546875 15.703125 C 372.546875 16.976562 372.726562 18.929688 373.613281 20.785156 C 374.605469 22.769531 375.976562 23.835938 376.15625 23.835938 C 376.257812 23.835938 376.308594 23.785156 376.308594 23.660156 Z M 376.308594 23.660156 "/>
<path fill-rule="nonzero" fill="rgb(50.196078%, 50.196078%, 50.196078%)" fill-opacity="1" d="M 383.738281 17.964844 C 383.609375 18.117188 383.535156 18.21875 383.382812 18.398438 C 383.027344 18.90625 382.824219 19.058594 382.644531 19.058594 C 382.417969 19.058594 382.265625 18.855469 382.136719 18.398438 C 382.113281 18.269531 382.085938 18.167969 382.085938 18.117188 C 381.679688 16.464844 381.5 15.730469 381.5 15.5 C 382.214844 14.230469 382.796875 13.519531 383.078125 13.519531 C 383.179688 13.519531 383.304688 13.570312 383.484375 13.644531 C 383.660156 13.773438 383.789062 13.796875 383.914062 13.796875 C 384.246094 13.796875 384.476562 13.570312 384.476562 13.214844 C 384.476562 12.882812 384.195312 12.628906 383.8125 12.628906 C 383.101562 12.628906 382.492188 13.214844 381.375 14.941406 L 381.195312 14.050781 C 380.96875 12.933594 380.789062 12.628906 380.332031 12.628906 C 379.976562 12.628906 379.441406 12.757812 378.453125 13.085938 L 378.273438 13.164062 L 378.324219 13.390625 C 378.960938 13.265625 379.085938 13.214844 379.238281 13.214844 C 379.648438 13.214844 379.75 13.367188 379.976562 14.332031 L 380.433594 16.339844 L 379.113281 18.21875 C 378.78125 18.726562 378.453125 19.007812 378.273438 19.007812 C 378.199219 19.007812 378.019531 18.957031 377.867188 18.855469 C 377.664062 18.753906 377.488281 18.703125 377.335938 18.703125 C 377.027344 18.703125 376.800781 18.929688 376.800781 19.261719 C 376.800781 19.695312 377.128906 19.949219 377.613281 19.949219 C 378.097656 19.949219 378.300781 19.796875 379.113281 18.804688 C 379.542969 18.296875 379.902344 17.863281 380.5625 16.925781 L 381.070312 18.855469 C 381.273438 19.695312 381.476562 19.949219 382.011719 19.949219 C 382.621094 19.949219 383.027344 19.566406 383.964844 18.09375 Z M 383.738281 17.964844 "/>
<path fill-rule="nonzero" fill="rgb(50.196078%, 50.196078%, 50.196078%)" fill-opacity="1" d="M 389.152344 15.703125 C 389.152344 14.460938 388.972656 12.503906 388.082031 10.648438 C 387.117188 8.664062 385.71875 7.597656 385.566406 7.597656 C 385.464844 7.597656 385.390625 7.675781 385.390625 7.777344 C 385.390625 7.828125 385.390625 7.851562 385.695312 8.15625 C 387.296875 9.757812 388.210938 12.324219 388.210938 15.703125 C 388.210938 18.5 387.625 21.347656 385.617188 23.378906 C 385.390625 23.582031 385.390625 23.605469 385.390625 23.660156 C 385.390625 23.761719 385.464844 23.835938 385.566406 23.835938 C 385.71875 23.835938 387.195312 22.71875 388.132812 20.660156 C 388.972656 18.878906 389.152344 17.078125 389.152344 15.703125 Z M 389.152344 15.703125 "/>
</svg>
