<?xml version="1.0" encoding="UTF-8"?>
<svg xmlns="http://www.w3.org/2000/svg" xmlns:xlink="http://www.w3.org/1999/xlink" width="400" height="234.887084" viewBox="0 0 400 234.887084">
<path fill-rule="nonzero" fill="rgb(69.803922%, 69.803922%, 69.803922%)" fill-opacity="1" d="M 32.210938 119.652344 C 31.890625 120.039062 31.695312 120.296875 31.3125 120.746094 C 30.410156 122.035156 29.894531 122.421875 29.445312 122.421875 C 28.867188 122.421875 28.480469 121.90625 28.15625 120.746094 C 28.09375 120.425781 28.027344 120.167969 28.027344 120.039062 C 27 115.855469 26.550781 113.992188 26.550781 113.410156 C 28.351562 110.195312 29.832031 108.390625 30.539062 108.390625 C 30.796875 108.390625 31.117188 108.519531 31.570312 108.714844 C 32.019531 109.035156 32.339844 109.101562 32.664062 109.101562 C 33.5 109.101562 34.078125 108.519531 34.078125 107.621094 C 34.078125 106.78125 33.371094 106.140625 32.40625 106.140625 C 30.601562 106.140625 29.058594 107.621094 26.226562 111.996094 L 25.777344 109.742188 C 25.199219 106.910156 24.746094 106.140625 23.589844 106.140625 C 22.6875 106.140625 21.335938 106.460938 18.828125 107.296875 L 18.375 107.492188 L 18.503906 108.070312 C 20.113281 107.75 20.433594 107.621094 20.820312 107.621094 C 21.851562 107.621094 22.109375 108.003906 22.6875 110.449219 L 23.847656 115.535156 L 20.5 120.296875 C 19.664062 121.585938 18.828125 122.292969 18.375 122.292969 C 18.183594 122.292969 17.730469 122.164062 17.347656 121.90625 C 16.832031 121.648438 16.382812 121.519531 15.996094 121.519531 C 15.222656 121.519531 14.644531 122.097656 14.644531 122.9375 C 14.644531 124.03125 15.480469 124.671875 16.703125 124.671875 C 17.925781 124.671875 18.441406 124.289062 20.5 121.777344 C 21.59375 120.492188 22.496094 119.394531 24.167969 117.015625 L 25.453125 121.90625 C 25.96875 124.03125 26.484375 124.671875 27.835938 124.671875 C 29.378906 124.671875 30.410156 123.707031 32.792969 119.976562 Z M 32.210938 119.652344 "/>
<path fill-rule="nonzero" fill="rgb(69.803922%, 69.803922%, 69.803922%)" fill-opacity="1" d="M 366.6875 103.855469 C 367.203125 103.726562 367.460938 103.660156 367.910156 103.660156 C 370.292969 103.660156 370.871094 104.691406 372.804688 111.769531 C 373.445312 114.410156 374.476562 119.234375 374.476562 119.941406 C 374.476562 120.585938 374.21875 121.230469 373.574219 122.003906 C 372.351562 123.675781 371.515625 124.769531 371.066406 125.21875 C 370.164062 126.121094 369.714844 126.441406 369.132812 126.441406 C 368.941406 126.441406 368.621094 126.3125 368.167969 125.992188 C 367.589844 125.542969 367.140625 125.285156 366.6875 125.285156 C 365.789062 125.285156 365.082031 125.992188 365.082031 126.894531 C 365.082031 127.921875 365.980469 128.695312 367.140625 128.695312 C 369.777344 128.695312 375.183594 122.582031 379.625 114.410156 C 382.390625 109.390625 383.550781 106.429688 383.550781 104.433594 C 383.550781 103.210938 382.519531 102.179688 381.296875 102.179688 C 380.332031 102.179688 379.6875 102.761719 379.6875 103.660156 C 379.6875 104.304688 380.011719 104.753906 380.847656 105.269531 C 381.621094 105.722656 381.875 106.105469 381.875 106.6875 C 381.875 108.296875 380.398438 111.511719 376.855469 117.304688 L 376.085938 112.542969 C 375.441406 108.9375 373.125 102.179688 372.546875 102.179688 L 372.351562 102.179688 C 372.351562 102.179688 372.160156 102.179688 372.03125 102.179688 C 371.644531 102.246094 370.164062 102.503906 367.976562 102.890625 C 367.785156 102.953125 367.269531 103.082031 366.6875 103.148438 Z M 366.6875 103.855469 "/>
<path fill-rule="nonzero" fill="rgb(6.666667%, 52.941176%, 87.058824%)" fill-opacity="1" d="M 195.824219 27.03125 L 199.558594 27.03125 L 195.953125 44.277344 C 195.050781 48.71875 193.699219 50.96875 191.964844 50.96875 C 191.449219 50.96875 191.125 50.648438 191.125 50.261719 C 191.125 50.199219 191.191406 50.070312 191.320312 49.8125 C 191.449219 49.617188 191.511719 49.425781 191.511719 49.167969 C 191.511719 48.332031 190.742188 47.625 189.902344 47.625 C 189.003906 47.625 188.359375 48.332031 188.359375 49.296875 C 188.359375 50.710938 189.839844 51.804688 191.640625 51.804688 C 195.246094 51.804688 198.140625 47.753906 199.816406 40.222656 L 202.773438 27.03125 L 207.28125 27.03125 L 207.539062 25.742188 L 203.097656 25.742188 C 204.253906 19.308594 205.800781 16.347656 208.050781 16.347656 C 208.632812 16.347656 208.953125 16.605469 208.953125 16.863281 C 208.953125 16.992188 208.953125 17.054688 208.824219 17.3125 C 208.632812 17.632812 208.566406 17.828125 208.566406 18.148438 C 208.566406 19.113281 209.210938 19.757812 210.109375 19.757812 C 211.011719 19.757812 211.847656 19.050781 211.847656 18.148438 C 211.847656 16.605469 210.304688 15.445312 208.308594 15.445312 C 206.25 15.445312 204.707031 16.347656 203.226562 18.277344 C 201.9375 19.886719 201.167969 21.816406 199.878906 25.742188 L 196.144531 25.742188 Z M 195.824219 27.03125 "/>
<path fill-rule="nonzero" fill="rgb(6.666667%, 52.941176%, 87.058824%)" fill-opacity="1" d="M 175.414062 194.292969 L 179.144531 194.292969 L 175.542969 211.539062 C 174.640625 215.980469 173.289062 218.234375 171.550781 218.234375 C 171.035156 218.234375 170.714844 217.910156 170.714844 217.523438 C 170.714844 217.460938 170.777344 217.332031 170.90625 217.074219 C 171.035156 216.882812 171.101562 216.6875 171.101562 216.429688 C 171.101562 215.59375 170.328125 214.886719 169.492188 214.886719 C 168.589844 214.886719 167.949219 215.59375 167.949219 216.558594 C 167.949219 217.976562 169.425781 219.070312 171.230469 219.070312 C 174.832031 219.070312 177.730469 215.015625 179.402344 207.484375 L 182.363281 194.292969 L 186.867188 194.292969 L 187.125 193.007812 L 182.683594 193.007812 C 183.84375 186.570312 185.386719 183.609375 187.640625 183.609375 C 188.21875 183.609375 188.539062 183.867188 188.539062 184.125 C 188.539062 184.253906 188.539062 184.316406 188.414062 184.574219 C 188.21875 184.898438 188.15625 185.089844 188.15625 185.414062 C 188.15625 186.378906 188.796875 187.019531 189.699219 187.019531 C 190.601562 187.019531 191.4375 186.3125 191.4375 185.414062 C 191.4375 183.867188 189.890625 182.710938 187.898438 182.710938 C 185.839844 182.710938 184.292969 183.609375 182.8125 185.539062 C 181.527344 187.148438 180.753906 189.082031 179.46875 193.007812 L 175.734375 193.007812 Z M 175.414062 194.292969 "/>
<path fill-rule="nonzero" fill="rgb(6.666667%, 52.941176%, 87.058824%)" fill-opacity="1" d="M 211.40625 188.667969 C 211.921875 188.667969 212.503906 188.667969 212.503906 188.085938 C 212.503906 187.507812 211.921875 187.507812 211.40625 187.507812 L 194.996094 187.507812 C 194.484375 187.507812 193.902344 187.507812 193.902344 188.085938 C 193.902344 188.667969 194.484375 188.667969 194.996094 188.667969 Z M 211.40625 188.667969 "/>
<path fill-rule="nonzero" fill="rgb(6.666667%, 52.941176%, 87.058824%)" fill-opacity="1" d="M 223.800781 175.152344 L 218.332031 177.917969 L 218.332031 178.304688 C 218.71875 178.175781 219.039062 178.046875 219.167969 177.984375 C 219.746094 177.792969 220.261719 177.664062 220.519531 177.664062 C 221.164062 177.664062 221.484375 178.113281 221.484375 179.078125 L 221.484375 192.851562 C 221.484375 193.878906 221.226562 194.585938 220.714844 194.84375 C 220.261719 195.101562 219.875 195.167969 218.589844 195.230469 L 218.589844 195.679688 L 226.957031 195.679688 L 226.957031 195.230469 C 224.574219 195.167969 224.058594 194.910156 224.058594 193.429688 L 224.058594 175.21875 Z M 223.800781 175.152344 "/>
<path fill="none" stroke-width="0.3985" stroke-linecap="butt" stroke-linejoin="miter" stroke="rgb(6.666667%, 52.941176%, 87.058824%)" stroke-opacity="1" stroke-miterlimit="10" d="M -39.684027 2.833306 C -10.598593 13.42345 10.600665 13.42345 37.812006 3.517122 " transform="matrix(4.118658, 0, 0, -4.118658, 200.030889, 115.536606)"/>
<path fill-rule="nonzero" fill="rgb(6.666667%, 52.941176%, 87.058824%)" fill-opacity="1" d="M 363.488281 103.867188 L 353.382812 93.199219 L 355.765625 101.050781 L 348.894531 105.539062 "/>
<path fill="none" stroke-width="0.3985" stroke-linecap="butt" stroke-linejoin="miter" stroke="rgb(6.666667%, 52.941176%, 87.058824%)" stroke-opacity="1" stroke-miterlimit="10" d="M 39.687048 -2.834499 C 10.600665 -13.420849 -10.598593 -13.420849 -37.812779 -3.514521 " transform="matrix(4.118658, 0, 0, -4.118658, 200.030889, 115.536606)"/>
<path fill-rule="nonzero" fill="rgb(6.666667%, 52.941176%, 87.058824%)" fill-opacity="1" d="M 36.585938 127.210938 L 46.671875 137.878906 L 44.292969 130.011719 L 51.160156 125.539062 "/>
</svg>
