<?xml version="1.0" encoding="UTF-8"?>
<svg xmlns="http://www.w3.org/2000/svg" xmlns:xlink="http://www.w3.org/1999/xlink" width="400" height="334.388552" viewBox="0 0 400 334.388552">
<defs>
<clipPath id="clip-0">
<path clip-rule="nonzero" d="M 19.328125 89.199219 L 388.027344 89.199219 L 388.027344 92 L 19.328125 92 Z M 19.328125 89.199219 "/>
</clipPath>
</defs>
<path fill="none" stroke-width="0.09962" stroke-linecap="butt" stroke-linejoin="miter" stroke="rgb(69.803922%, 69.803922%, 69.803922%)" stroke-opacity="1" stroke-dasharray="2.98883 2.98883" stroke-miterlimit="10" d="M 0.00208522 0.000997715 L 0.00208522 161.394464 M 32.379985 0.000997715 L 32.379985 161.394464 M 64.755826 0.000997715 L 64.755826 161.394464 M 129.513684 0.000997715 L 129.513684 161.394464 M 161.891583 0.000997715 L 161.891583 161.394464 M 194.271541 0.000997715 L 194.271541 161.394464 " transform="matrix(1.897875, 0, 0, -1.897875, 19.324168, 320.029237)"/>
<path fill="none" stroke-width="0.09962" stroke-linecap="butt" stroke-linejoin="miter" stroke="rgb(69.803922%, 69.803922%, 69.803922%)" stroke-opacity="1" stroke-dasharray="2.98883 2.98883" stroke-miterlimit="10" d="M 0.00208522 0.000997715 L 194.271541 0.000997715 M 0.00208522 80.699789 L 194.271541 80.699789 M 0.00208522 121.047127 L 194.271541 121.047127 M 0.00208522 161.394464 L 194.271541 161.394464 " transform="matrix(1.897875, 0, 0, -1.897875, 19.324168, 320.029237)"/>
<path fill="none" stroke-width="0.19925" stroke-linecap="butt" stroke-linejoin="miter" stroke="rgb(50.196078%, 50.196078%, 50.196078%)" stroke-opacity="1" stroke-miterlimit="10" d="M 0.00208522 38.222191 L 0.00208522 42.476537 M 32.379985 38.222191 L 32.379985 42.476537 M 64.755826 38.222191 L 64.755826 42.476537 M 129.513684 38.222191 L 129.513684 42.476537 M 161.891583 38.222191 L 161.891583 42.476537 M 194.271541 38.222191 L 194.271541 42.476537 " transform="matrix(1.897875, 0, 0, -1.897875, 19.324168, 320.029237)"/>
<path fill="none" stroke-width="0.19925" stroke-linecap="butt" stroke-linejoin="miter" stroke="rgb(50.196078%, 50.196078%, 50.196078%)" stroke-opacity="1" stroke-miterlimit="10" d="M 95.00964 0.000997715 L 99.263986 0.000997715 M 95.00964 80.699789 L 99.263986 80.699789 M 95.00964 121.047127 L 99.263986 121.047127 M 95.00964 161.394464 L 99.263986 161.394464 " transform="matrix(1.897875, 0, 0, -1.897875, 19.324168, 320.029237)"/>
<path fill="none" stroke-width="0.3985" stroke-linecap="butt" stroke-linejoin="miter" stroke="rgb(50.196078%, 50.196078%, 50.196078%)" stroke-opacity="1" stroke-miterlimit="10" d="M 0.00208522 40.348335 L 192.279182 40.348335 " transform="matrix(1.897875, 0, 0, -1.897875, 19.324168, 320.029237)"/>
<path fill-rule="nonzero" fill="rgb(50.196078%, 50.196078%, 50.196078%)" fill-opacity="1" d="M 388.027344 243.453125 L 381.976562 240.429688 L 384.246094 243.453125 L 381.976562 246.480469 "/>
<path fill="none" stroke-width="0.3985" stroke-linecap="butt" stroke-linejoin="miter" stroke="rgb(50.196078%, 50.196078%, 50.196078%)" stroke-opacity="1" stroke-miterlimit="10" d="M 97.133726 0.000997715 L 97.133726 159.402105 " transform="matrix(1.897875, 0, 0, -1.897875, 19.324168, 320.029237)"/>
<path fill-rule="nonzero" fill="rgb(50.196078%, 50.196078%, 50.196078%)" fill-opacity="1" d="M 203.671875 13.722656 L 200.648438 19.773438 L 203.671875 17.503906 L 206.699219 19.773438 "/>
<path fill-rule="nonzero" fill="rgb(50.196078%, 50.196078%, 50.196078%)" fill-opacity="1" d="M 19.707031 262.457031 C 20.03125 262.457031 20.386719 262.457031 20.386719 262.070312 C 20.386719 261.714844 20.03125 261.714844 19.707031 261.714844 L 9.476562 261.714844 C 9.148438 261.714844 8.824219 261.714844 8.824219 262.070312 C 8.824219 262.457031 9.148438 262.457031 9.476562 262.457031 Z M 19.707031 262.457031 "/>
<path fill-rule="nonzero" fill="rgb(50.196078%, 50.196078%, 50.196078%)" fill-opacity="1" d="M 24.847656 260.558594 C 25.945312 260.558594 26.390625 260.617188 26.835938 260.765625 C 28.019531 261.210938 28.761719 262.28125 28.761719 263.585938 C 28.761719 265.15625 27.664062 266.402344 26.269531 266.402344 C 25.765625 266.402344 25.382812 266.253906 24.699219 265.808594 C 24.105469 265.480469 23.808594 265.332031 23.484375 265.332031 C 23.039062 265.332031 22.742188 265.601562 22.742188 266.015625 C 22.742188 266.667969 23.574219 267.082031 24.90625 267.082031 C 26.359375 267.082031 27.84375 266.578125 28.730469 265.808594 C 29.621094 265.039062 30.125 263.941406 30.125 262.664062 C 30.125 261.714844 29.800781 260.828125 29.265625 260.234375 C 28.878906 259.816406 28.523438 259.582031 27.695312 259.226562 C 29 258.335938 29.472656 257.652344 29.472656 256.617188 C 29.472656 255.074219 28.257812 254.035156 26.507812 254.035156 C 25.558594 254.035156 24.730469 254.363281 24.046875 254.953125 C 23.484375 255.460938 23.214844 255.964844 22.800781 257.089844 L 23.066406 257.179688 C 23.839844 255.785156 24.699219 255.164062 25.886719 255.164062 C 27.128906 255.164062 27.992188 255.992188 27.992188 257.179688 C 27.992188 257.859375 27.695312 258.542969 27.21875 259.015625 C 26.65625 259.582031 26.121094 259.878906 24.847656 260.324219 Z M 24.847656 260.558594 "/>
<path fill-rule="nonzero" fill="rgb(50.196078%, 50.196078%, 50.196078%)" fill-opacity="1" d="M 81.15625 262.457031 C 81.480469 262.457031 81.839844 262.457031 81.839844 262.070312 C 81.839844 261.714844 81.480469 261.714844 81.15625 261.714844 L 70.925781 261.714844 C 70.597656 261.714844 70.273438 261.714844 70.273438 262.070312 C 70.273438 262.457031 70.597656 262.457031 70.925781 262.457031 Z M 81.15625 262.457031 "/>
<path fill-rule="nonzero" fill="rgb(50.196078%, 50.196078%, 50.196078%)" fill-opacity="1" d="M 92.378906 264.238281 L 92.140625 264.117188 C 91.429688 265.214844 91.191406 265.394531 90.332031 265.394531 L 85.824219 265.394531 L 88.996094 262.042969 C 90.6875 260.292969 91.429688 258.839844 91.429688 257.386719 C 91.429688 255.488281 89.886719 254.035156 87.898438 254.035156 C 86.863281 254.035156 85.882812 254.449219 85.203125 255.191406 C 84.578125 255.84375 84.3125 256.4375 83.984375 257.800781 L 84.371094 257.890625 C 85.140625 256.023438 85.824219 255.429688 87.128906 255.429688 C 88.699219 255.429688 89.796875 256.496094 89.796875 258.097656 C 89.796875 259.582031 88.910156 261.332031 87.335938 263.019531 L 83.957031 266.578125 L 83.957031 266.816406 L 91.339844 266.816406 Z M 92.378906 264.238281 "/>
<path fill-rule="nonzero" fill="rgb(50.196078%, 50.196078%, 50.196078%)" fill-opacity="1" d="M 142.605469 262.457031 C 142.929688 262.457031 143.289062 262.457031 143.289062 262.070312 C 143.289062 261.714844 142.929688 261.714844 142.605469 261.714844 L 132.375 261.714844 C 132.046875 261.714844 131.722656 261.714844 131.722656 262.070312 C 131.722656 262.457031 132.046875 262.457031 132.375 262.457031 Z M 142.605469 262.457031 "/>
<path fill-rule="nonzero" fill="rgb(50.196078%, 50.196078%, 50.196078%)" fill-opacity="1" d="M 150.359375 254.035156 L 146.949219 255.753906 L 146.949219 256.023438 C 147.15625 255.933594 147.363281 255.84375 147.453125 255.816406 C 147.808594 255.667969 148.105469 255.605469 148.3125 255.605469 C 148.695312 255.605469 148.875 255.875 148.875 256.496094 L 148.875 265.066406 C 148.875 265.691406 148.726562 266.105469 148.429688 266.28125 C 148.132812 266.460938 147.867188 266.519531 147.066406 266.519531 L 147.066406 266.816406 L 152.285156 266.816406 L 152.285156 266.519531 C 150.800781 266.519531 150.507812 266.3125 150.507812 265.421875 L 150.507812 254.066406 Z M 150.359375 254.035156 "/>
<path fill-rule="nonzero" fill="rgb(50.196078%, 50.196078%, 50.196078%)" fill-opacity="1" d="M 265.910156 254.035156 L 262.5 255.753906 L 262.5 256.023438 C 262.710938 255.933594 262.917969 255.84375 263.003906 255.816406 C 263.363281 255.667969 263.65625 255.605469 263.867188 255.605469 C 264.25 255.605469 264.429688 255.875 264.429688 256.496094 L 264.429688 265.066406 C 264.429688 265.691406 264.28125 266.105469 263.984375 266.28125 C 263.6875 266.460938 263.421875 266.519531 262.621094 266.519531 L 262.621094 266.816406 L 267.839844 266.816406 L 267.839844 266.519531 C 266.355469 266.519531 266.058594 266.3125 266.058594 265.421875 L 266.058594 254.066406 Z M 265.910156 254.035156 "/>
<path fill-rule="nonzero" fill="rgb(50.196078%, 50.196078%, 50.196078%)" fill-opacity="1" d="M 330.832031 264.238281 L 330.59375 264.117188 C 329.882812 265.214844 329.644531 265.394531 328.785156 265.394531 L 324.277344 265.394531 L 327.449219 262.042969 C 329.140625 260.292969 329.882812 258.839844 329.882812 257.386719 C 329.882812 255.488281 328.339844 254.035156 326.351562 254.035156 C 325.316406 254.035156 324.335938 254.449219 323.65625 255.191406 C 323.03125 255.84375 322.765625 256.4375 322.4375 257.800781 L 322.824219 257.890625 C 323.59375 256.023438 324.277344 255.429688 325.582031 255.429688 C 327.152344 255.429688 328.25 256.496094 328.25 258.097656 C 328.25 259.582031 327.359375 261.332031 325.789062 263.019531 L 322.410156 266.578125 L 322.410156 266.816406 L 329.792969 266.816406 Z M 330.832031 264.238281 "/>
<path fill-rule="nonzero" fill="rgb(50.196078%, 50.196078%, 50.196078%)" fill-opacity="1" d="M 386.203125 260.558594 C 387.300781 260.558594 387.746094 260.617188 388.191406 260.765625 C 389.375 261.210938 390.117188 262.28125 390.117188 263.585938 C 390.117188 265.15625 389.019531 266.402344 387.625 266.402344 C 387.121094 266.402344 386.738281 266.253906 386.054688 265.808594 C 385.460938 265.480469 385.164062 265.332031 384.839844 265.332031 C 384.394531 265.332031 384.097656 265.601562 384.097656 266.015625 C 384.097656 266.667969 384.929688 267.082031 386.261719 267.082031 C 387.714844 267.082031 389.199219 266.578125 390.085938 265.808594 C 390.976562 265.039062 391.480469 263.941406 391.480469 262.664062 C 391.480469 261.714844 391.15625 260.828125 390.621094 260.234375 C 390.234375 259.816406 389.878906 259.582031 389.050781 259.226562 C 390.355469 258.335938 390.828125 257.652344 390.828125 256.617188 C 390.828125 255.074219 389.613281 254.035156 387.863281 254.035156 C 386.914062 254.035156 386.085938 254.363281 385.402344 254.953125 C 384.839844 255.460938 384.570312 255.964844 384.15625 257.089844 L 384.421875 257.179688 C 385.195312 255.785156 386.054688 255.164062 387.242188 255.164062 C 388.484375 255.164062 389.347656 255.992188 389.347656 257.179688 C 389.347656 257.859375 389.050781 258.542969 388.574219 259.015625 C 388.011719 259.582031 387.476562 259.878906 386.203125 260.324219 Z M 386.203125 260.558594 "/>
<path fill-rule="nonzero" fill="rgb(50.196078%, 50.196078%, 50.196078%)" fill-opacity="1" d="M 181.269531 321.210938 C 181.59375 321.210938 181.949219 321.210938 181.949219 320.824219 C 181.949219 320.46875 181.59375 320.46875 181.269531 320.46875 L 171.039062 320.46875 C 170.710938 320.46875 170.386719 320.46875 170.386719 320.824219 C 170.386719 321.210938 170.710938 321.210938 171.039062 321.210938 Z M 181.269531 321.210938 "/>
<path fill-rule="nonzero" fill="rgb(50.196078%, 50.196078%, 50.196078%)" fill-opacity="1" d="M 189.019531 312.789062 L 185.609375 314.507812 L 185.609375 314.773438 C 185.820312 314.6875 186.027344 314.597656 186.113281 314.566406 C 186.472656 314.417969 186.765625 314.359375 186.976562 314.359375 C 187.359375 314.359375 187.539062 314.625 187.539062 315.25 L 187.539062 323.820312 C 187.539062 324.441406 187.390625 324.859375 187.09375 325.035156 C 186.796875 325.214844 186.53125 325.273438 185.730469 325.273438 L 185.730469 325.570312 L 190.949219 325.570312 L 190.949219 325.273438 C 189.464844 325.273438 189.167969 325.066406 189.167969 324.175781 L 189.167969 312.816406 Z M 189.019531 312.789062 "/>
<path fill-rule="nonzero" fill="rgb(50.196078%, 50.196078%, 50.196078%)" fill-opacity="1" d="M 189.019531 160.417969 L 185.609375 162.140625 L 185.609375 162.40625 C 185.820312 162.316406 186.027344 162.226562 186.113281 162.199219 C 186.472656 162.050781 186.765625 161.992188 186.976562 161.992188 C 187.359375 161.992188 187.539062 162.257812 187.539062 162.878906 L 187.539062 171.449219 C 187.539062 172.074219 187.390625 172.488281 187.09375 172.667969 C 186.796875 172.84375 186.53125 172.902344 185.730469 172.902344 L 185.730469 173.199219 L 190.949219 173.199219 L 190.949219 172.902344 C 189.464844 172.902344 189.167969 172.695312 189.167969 171.804688 L 189.167969 160.449219 Z M 189.019531 160.417969 "/>
<path fill-rule="nonzero" fill="rgb(50.196078%, 50.196078%, 50.196078%)" fill-opacity="1" d="M 192.492188 94.042969 L 192.253906 93.925781 C 191.542969 95.019531 191.304688 95.199219 190.445312 95.199219 L 185.9375 95.199219 L 189.109375 91.847656 C 190.800781 90.097656 191.542969 88.644531 191.542969 87.191406 C 191.542969 85.292969 190 83.839844 188.011719 83.839844 C 186.976562 83.839844 185.996094 84.257812 185.316406 85 C 184.691406 85.652344 184.425781 86.242188 184.097656 87.609375 L 184.484375 87.695312 C 185.253906 85.828125 185.9375 85.234375 187.242188 85.234375 C 188.8125 85.234375 189.910156 86.304688 189.910156 87.90625 C 189.910156 89.386719 189.019531 91.136719 187.449219 92.828125 L 184.070312 96.386719 L 184.070312 96.621094 L 191.453125 96.621094 Z M 192.492188 94.042969 "/>
<path fill-rule="nonzero" fill="rgb(50.196078%, 50.196078%, 50.196078%)" fill-opacity="1" d="M 186.410156 13.644531 C 187.507812 13.644531 187.953125 13.703125 188.398438 13.851562 C 189.585938 14.296875 190.324219 15.363281 190.324219 16.667969 C 190.324219 18.242188 189.230469 19.484375 187.835938 19.484375 C 187.332031 19.484375 186.945312 19.335938 186.261719 18.894531 C 185.671875 18.566406 185.375 18.417969 185.046875 18.417969 C 184.601562 18.417969 184.304688 18.683594 184.304688 19.101562 C 184.304688 19.753906 185.136719 20.167969 186.472656 20.167969 C 187.925781 20.167969 189.40625 19.664062 190.296875 18.894531 C 191.1875 18.121094 191.691406 17.023438 191.691406 15.75 C 191.691406 14.800781 191.363281 13.910156 190.832031 13.316406 C 190.445312 12.902344 190.089844 12.664062 189.257812 12.308594 C 190.5625 11.421875 191.039062 10.738281 191.039062 9.699219 C 191.039062 8.15625 189.820312 7.121094 188.074219 7.121094 C 187.125 7.121094 186.292969 7.445312 185.609375 8.039062 C 185.046875 8.542969 184.78125 9.046875 184.367188 10.175781 L 184.632812 10.261719 C 185.402344 8.871094 186.261719 8.246094 187.449219 8.246094 C 188.695312 8.246094 189.554688 9.078125 189.554688 10.261719 C 189.554688 10.945312 189.257812 11.628906 188.785156 12.101562 C 188.21875 12.664062 187.6875 12.960938 186.410156 13.40625 Z M 186.410156 13.644531 "/>
<g clip-path="url(#clip-0)">
<path fill="none" stroke-width="0.99628" stroke-linecap="butt" stroke-linejoin="miter" stroke="rgb(6.666667%, 52.941176%, 87.058824%)" stroke-opacity="1" stroke-miterlimit="10" d="M 0.00208522 121.047127 L 194.271541 121.047127 " transform="matrix(1.897875, 0, 0, -1.897875, 19.324168, 320.029237)"/>
</g>
<path fill="none" stroke-width="0.3985" stroke-linecap="butt" stroke-linejoin="miter" stroke="rgb(50.196078%, 50.196078%, 50.196078%)" stroke-opacity="1" stroke-miterlimit="10" d="M 127.165252 141.03041 L 190.185969 141.03041 L 190.185969 157.969582 L 127.165252 157.969582 Z M 127.165252 141.03041 " transform="matrix(1.897875, 0, 0, -1.897875, 19.324168, 320.029237)"/>
<path fill="none" stroke-width="0.99628" stroke-linecap="butt" stroke-linejoin="miter" stroke="rgb(6.666667%, 52.941176%, 87.058824%)" stroke-opacity="1" stroke-miterlimit="10" d="M 0.00193944 0.000995127 L 17.009033 0.000995127 " transform="matrix(1.897875, 0, 0, -1.897875, 267.285382, 36.298764)"/>
<path fill-rule="nonzero" fill="rgb(50.196078%, 50.196078%, 50.196078%)" fill-opacity="1" d="M 307.78125 34.46875 L 309.5 34.46875 L 307.839844 42.417969 C 307.425781 44.460938 306.800781 45.5 306 45.5 C 305.761719 45.5 305.613281 45.351562 305.613281 45.175781 C 305.613281 45.144531 305.644531 45.085938 305.703125 44.964844 C 305.761719 44.878906 305.792969 44.789062 305.792969 44.671875 C 305.792969 44.285156 305.4375 43.957031 305.050781 43.957031 C 304.636719 43.957031 304.339844 44.285156 304.339844 44.730469 C 304.339844 45.382812 305.023438 45.886719 305.851562 45.886719 C 307.511719 45.886719 308.847656 44.019531 309.617188 40.546875 L 310.984375 34.46875 L 313.058594 34.46875 L 313.175781 33.875 L 311.128906 33.875 C 311.664062 30.910156 312.375 29.546875 313.414062 29.546875 C 313.679688 29.546875 313.828125 29.664062 313.828125 29.785156 C 313.828125 29.84375 313.828125 29.871094 313.769531 29.992188 C 313.679688 30.140625 313.652344 30.226562 313.652344 30.375 C 313.652344 30.820312 313.949219 31.117188 314.363281 31.117188 C 314.777344 31.117188 315.164062 30.792969 315.164062 30.375 C 315.164062 29.664062 314.453125 29.132812 313.53125 29.132812 C 312.582031 29.132812 311.871094 29.546875 311.191406 30.4375 C 310.597656 31.175781 310.242188 32.066406 309.648438 33.875 L 307.929688 33.875 Z M 307.78125 34.46875 "/>
<path fill-rule="nonzero" fill="rgb(50.196078%, 50.196078%, 50.196078%)" fill-opacity="1" d="M 321.402344 46.507812 C 321.402344 46.449219 321.402344 46.417969 321.074219 46.09375 C 318.730469 43.722656 318.109375 40.132812 318.109375 37.226562 C 318.109375 33.933594 318.820312 30.644531 321.164062 28.300781 C 321.402344 28.0625 321.402344 28.035156 321.402344 27.976562 C 321.402344 27.828125 321.34375 27.765625 321.222656 27.765625 C 321.015625 27.765625 319.324219 29.070312 318.199219 31.472656 C 317.25 33.550781 317.011719 35.65625 317.011719 37.226562 C 317.011719 38.710938 317.21875 40.992188 318.257812 43.15625 C 319.414062 45.472656 321.015625 46.714844 321.222656 46.714844 C 321.34375 46.714844 321.402344 46.65625 321.402344 46.507812 Z M 321.402344 46.507812 "/>
<path fill-rule="nonzero" fill="rgb(50.196078%, 50.196078%, 50.196078%)" fill-opacity="1" d="M 330.070312 39.867188 C 329.921875 40.042969 329.832031 40.164062 329.65625 40.371094 C 329.242188 40.964844 329.003906 41.140625 328.796875 41.140625 C 328.527344 41.140625 328.351562 40.902344 328.203125 40.371094 C 328.171875 40.222656 328.144531 40.101562 328.144531 40.042969 C 327.667969 38.117188 327.460938 37.257812 327.460938 36.988281 C 328.292969 35.507812 328.972656 34.675781 329.300781 34.675781 C 329.417969 34.675781 329.566406 34.734375 329.773438 34.824219 C 329.980469 34.972656 330.128906 35.003906 330.277344 35.003906 C 330.664062 35.003906 330.929688 34.734375 330.929688 34.320312 C 330.929688 33.933594 330.605469 33.636719 330.160156 33.636719 C 329.328125 33.636719 328.617188 34.320312 327.3125 36.335938 L 327.105469 35.300781 C 326.839844 33.996094 326.632812 33.636719 326.097656 33.636719 C 325.683594 33.636719 325.058594 33.785156 323.902344 34.171875 L 323.695312 34.261719 L 323.753906 34.527344 C 324.496094 34.378906 324.644531 34.320312 324.820312 34.320312 C 325.296875 34.320312 325.414062 34.5 325.683594 35.625 L 326.214844 37.96875 L 324.671875 40.164062 C 324.289062 40.753906 323.902344 41.082031 323.695312 41.082031 C 323.605469 41.082031 323.398438 41.023438 323.222656 40.902344 C 322.984375 40.785156 322.777344 40.726562 322.597656 40.726562 C 322.242188 40.726562 321.976562 40.992188 321.976562 41.378906 C 321.976562 41.882812 322.359375 42.179688 322.925781 42.179688 C 323.488281 42.179688 323.726562 42 324.671875 40.84375 C 325.179688 40.25 325.59375 39.746094 326.363281 38.648438 L 326.957031 40.902344 C 327.195312 41.882812 327.433594 42.179688 328.054688 42.179688 C 328.765625 42.179688 329.242188 41.734375 330.335938 40.015625 Z M 330.070312 39.867188 "/>
<path fill-rule="nonzero" fill="rgb(50.196078%, 50.196078%, 50.196078%)" fill-opacity="1" d="M 336.386719 37.226562 C 336.386719 35.773438 336.179688 33.492188 335.140625 31.324219 C 334.015625 29.011719 332.382812 27.765625 332.207031 27.765625 C 332.085938 27.765625 332 27.855469 332 27.976562 C 332 28.035156 332 28.0625 332.355469 28.417969 C 334.222656 30.289062 335.289062 33.28125 335.289062 37.226562 C 335.289062 40.488281 334.609375 43.808594 332.265625 46.183594 C 332 46.417969 332 46.449219 332 46.507812 C 332 46.628906 332.085938 46.714844 332.207031 46.714844 C 332.382812 46.714844 334.105469 45.410156 335.199219 43.007812 C 336.179688 40.933594 336.386719 38.828125 336.386719 37.226562 Z M 336.386719 37.226562 "/>
<path fill-rule="nonzero" fill="rgb(50.196078%, 50.196078%, 50.196078%)" fill-opacity="1" d="M 355.449219 35.773438 C 355.746094 35.773438 356.101562 35.773438 356.101562 35.417969 C 356.101562 35.03125 355.746094 35.03125 355.480469 35.03125 L 344.152344 35.03125 C 343.886719 35.03125 343.53125 35.03125 343.53125 35.417969 C 343.53125 35.773438 343.886719 35.773438 344.152344 35.773438 Z M 355.480469 39.449219 C 355.746094 39.449219 356.101562 39.449219 356.101562 39.066406 C 356.101562 38.710938 355.746094 38.710938 355.449219 38.710938 L 344.152344 38.710938 C 343.886719 38.710938 343.53125 38.710938 343.53125 39.066406 C 343.53125 39.449219 343.886719 39.449219 344.152344 39.449219 Z M 355.480469 39.449219 "/>
<path fill-rule="nonzero" fill="rgb(50.196078%, 50.196078%, 50.196078%)" fill-opacity="1" d="M 370.347656 39.390625 L 370.109375 39.273438 C 369.398438 40.371094 369.160156 40.546875 368.300781 40.546875 L 363.792969 40.546875 L 366.964844 37.195312 C 368.65625 35.449219 369.398438 33.996094 369.398438 32.542969 C 369.398438 30.644531 367.855469 29.191406 365.867188 29.191406 C 364.832031 29.191406 363.851562 29.605469 363.171875 30.347656 C 362.546875 31 362.28125 31.59375 361.953125 32.957031 L 362.339844 33.046875 C 363.109375 31.175781 363.792969 30.585938 365.097656 30.585938 C 366.667969 30.585938 367.765625 31.652344 367.765625 33.253906 C 367.765625 34.734375 366.875 36.484375 365.304688 38.175781 L 361.925781 41.734375 L 361.925781 41.972656 L 369.308594 41.972656 Z M 370.347656 39.390625 "/>
</svg>
