<?xml version="1.0" encoding="UTF-8"?>
<svg xmlns="http://www.w3.org/2000/svg" xmlns:xlink="http://www.w3.org/1999/xlink" width="400" height="285.617928" viewBox="0 0 400 285.617928">
<defs>
<clipPath id="clip-0">
<path clip-rule="nonzero" d="M 1 60.59375 L 399 60.59375 L 399 259.914062 L 1 259.914062 Z M 1 60.59375 "/>
</clipPath>
<clipPath id="clip-1">
<path clip-rule="nonzero" d="M 1.113281 35.890625 L 398.886719 35.890625 L 398.886719 284.503906 L 1.113281 284.503906 Z M 1.113281 35.890625 "/>
</clipPath>
</defs>
<path fill="none" stroke-width="0.09962" stroke-linecap="butt" stroke-linejoin="miter" stroke="rgb(69.803922%, 69.803922%, 69.803922%)" stroke-opacity="1" stroke-dasharray="2.98883 2.98883" stroke-miterlimit="10" d="M 26.765104 50.91164 L 26.765104 206.825732 M 75.750228 50.91164 L 75.750228 206.825732 M 173.710676 50.91164 L 173.710676 206.825732 M 222.6909 50.91164 L 222.6909 206.825732 " transform="matrix(1.594553, 0, 0, -1.594553, 1.114593, 365.685213)"/>
<g clip-path="url(#clip-0)">
<path fill="none" stroke-width="0.09962" stroke-linecap="butt" stroke-linejoin="miter" stroke="rgb(69.803922%, 69.803922%, 69.803922%)" stroke-opacity="1" stroke-dasharray="2.98883 2.98883" stroke-miterlimit="10" d="M -0.000822353 66.506723 L 249.456826 66.506723 M -0.000822353 97.684643 L 249.456826 97.684643 M -0.000822353 160.052729 L 249.456826 160.052729 M -0.000822353 191.233098 L 249.456826 191.233098 " transform="matrix(1.594553, 0, 0, -1.594553, 1.114593, 365.685213)"/>
</g>
<path fill="none" stroke-width="0.19925" stroke-linecap="butt" stroke-linejoin="miter" stroke="rgb(50.196078%, 50.196078%, 50.196078%)" stroke-opacity="1" stroke-miterlimit="10" d="M 26.765104 126.743531 L 26.765104 130.993841 M 75.750228 126.743531 L 75.750228 130.993841 M 173.710676 126.743531 L 173.710676 130.993841 M 222.6909 126.743531 L 222.6909 130.993841 " transform="matrix(1.594553, 0, 0, -1.594553, 1.114593, 365.685213)"/>
<path fill="none" stroke-width="0.19925" stroke-linecap="butt" stroke-linejoin="miter" stroke="rgb(50.196078%, 50.196078%, 50.196078%)" stroke-opacity="1" stroke-miterlimit="10" d="M 122.601622 66.506723 L 126.856831 66.506723 M 122.601622 97.684643 L 126.856831 97.684643 M 122.601622 160.052729 L 126.856831 160.052729 M 122.601622 191.233098 L 126.856831 191.233098 " transform="matrix(1.594553, 0, 0, -1.594553, 1.114593, 365.685213)"/>
<path fill="none" stroke-width="0.3985" stroke-linecap="butt" stroke-linejoin="miter" stroke="rgb(50.196078%, 50.196078%, 50.196078%)" stroke-opacity="1" stroke-miterlimit="10" d="M -0.000822353 128.869911 L 247.465183 128.869911 " transform="matrix(1.594553, 0, 0, -1.594553, 1.114593, 365.685213)"/>
<path fill-rule="nonzero" fill="rgb(50.196078%, 50.196078%, 50.196078%)" fill-opacity="1" d="M 398.886719 160.195312 L 393.804688 157.65625 L 395.710938 160.195312 L 393.804688 162.738281 "/>
<path fill="none" stroke-width="0.3985" stroke-linecap="butt" stroke-linejoin="miter" stroke="rgb(50.196078%, 50.196078%, 50.196078%)" stroke-opacity="1" stroke-miterlimit="10" d="M 124.730452 50.91164 L 124.730452 204.829189 " transform="matrix(1.594553, 0, 0, -1.594553, 1.114593, 365.685213)"/>
<path fill-rule="nonzero" fill="rgb(50.196078%, 50.196078%, 50.196078%)" fill-opacity="1" d="M 200.003906 35.890625 L 197.464844 40.980469 L 200.003906 39.074219 L 202.546875 40.980469 "/>
<path fill-rule="nonzero" fill="rgb(50.196078%, 50.196078%, 50.196078%)" fill-opacity="1" d="M 43.085938 174.800781 C 43.359375 174.800781 43.65625 174.800781 43.65625 174.476562 C 43.65625 174.179688 43.359375 174.179688 43.085938 174.179688 L 34.488281 174.179688 C 34.214844 174.179688 33.941406 174.179688 33.941406 174.476562 C 33.941406 174.800781 34.214844 174.800781 34.488281 174.800781 Z M 43.085938 174.800781 "/>
<path fill-rule="nonzero" fill="rgb(50.196078%, 50.196078%, 50.196078%)" fill-opacity="1" d="M 46.359375 172.933594 C 47.03125 172.109375 47.332031 171.9375 48.101562 171.9375 L 48.824219 171.9375 L 47.828125 175.449219 C 47.679688 175.898438 47.40625 176.246094 46.78125 176.746094 C 46.207031 177.191406 46.035156 177.441406 45.984375 177.792969 C 45.910156 178.265625 46.207031 178.664062 46.707031 178.664062 C 47.207031 178.664062 47.652344 178.316406 47.976562 177.617188 C 48.175781 177.21875 48.675781 175.597656 49.074219 173.980469 L 49.621094 171.9375 L 51.339844 171.9375 C 50.941406 173.183594 50.519531 174.902344 50.371094 175.796875 C 50.070312 177.59375 50.496094 178.664062 51.464844 178.664062 C 52.089844 178.664062 52.710938 178.238281 53.210938 177.492188 C 53.507812 177.042969 53.632812 176.746094 53.808594 175.949219 L 53.410156 175.949219 C 53.210938 176.71875 52.835938 177.117188 52.3125 177.117188 C 52.015625 177.117188 51.714844 176.894531 51.589844 176.546875 C 51.492188 176.269531 51.492188 176.023438 51.566406 175.5 C 51.789062 174.277344 52.089844 172.808594 52.363281 171.9375 L 54.382812 171.9375 L 54.605469 170.515625 L 49.050781 170.515625 C 48.203125 170.515625 47.851562 170.617188 47.332031 171.0625 C 46.808594 171.511719 46.484375 171.984375 46.035156 172.933594 Z M 46.359375 172.933594 "/>
<path fill-rule="nonzero" fill="rgb(50.196078%, 50.196078%, 50.196078%)" fill-opacity="1" d="M 113.246094 177.367188 C 113.519531 177.367188 113.816406 177.367188 113.816406 177.042969 C 113.816406 176.746094 113.519531 176.746094 113.246094 176.746094 L 104.648438 176.746094 C 104.375 176.746094 104.101562 176.746094 104.101562 177.042969 C 104.101562 177.367188 104.375 177.367188 104.648438 177.367188 Z M 113.246094 177.367188 "/>
<path fill-rule="nonzero" fill="rgb(50.196078%, 50.196078%, 50.196078%)" fill-opacity="1" d="M 116.519531 175.5 C 117.191406 174.675781 117.492188 174.5 118.261719 174.5 L 118.984375 174.5 L 117.988281 178.015625 C 117.839844 178.464844 117.566406 178.8125 116.941406 179.308594 C 116.371094 179.757812 116.195312 180.007812 116.144531 180.355469 C 116.070312 180.832031 116.371094 181.230469 116.867188 181.230469 C 117.367188 181.230469 117.8125 180.878906 118.136719 180.183594 C 118.335938 179.785156 118.835938 178.164062 119.234375 176.542969 L 119.78125 174.5 L 121.5 174.5 C 121.101562 175.746094 120.679688 177.464844 120.53125 178.363281 C 120.230469 180.15625 120.65625 181.230469 121.625 181.230469 C 122.25 181.230469 122.871094 180.804688 123.371094 180.058594 C 123.667969 179.609375 123.792969 179.308594 123.96875 178.511719 L 123.570312 178.511719 C 123.371094 179.285156 122.996094 179.683594 122.472656 179.683594 C 122.175781 179.683594 121.875 179.460938 121.75 179.109375 C 121.652344 178.835938 121.652344 178.589844 121.726562 178.066406 C 121.949219 176.84375 122.25 175.375 122.523438 174.5 L 124.542969 174.5 L 124.765625 173.082031 L 119.210938 173.082031 C 118.363281 173.082031 118.011719 173.179688 117.492188 173.628906 C 116.96875 174.078125 116.644531 174.550781 116.195312 175.5 Z M 116.519531 175.5 "/>
<path fill-rule="nonzero" fill="rgb(50.196078%, 50.196078%, 50.196078%)" fill-opacity="1" d="M 132.105469 169.71875 C 132.183594 169.492188 132.183594 169.445312 132.183594 169.417969 C 132.183594 169.246094 132.058594 169.09375 131.882812 169.09375 C 131.757812 169.09375 131.660156 169.144531 131.609375 169.246094 L 126.078125 184.394531 C 126.003906 184.617188 126.003906 184.667969 126.003906 184.691406 C 126.003906 184.867188 126.152344 185.015625 126.328125 185.015625 C 126.527344 185.015625 126.574219 184.890625 126.675781 184.617188 Z M 132.105469 169.71875 "/>
<path fill-rule="nonzero" fill="rgb(50.196078%, 50.196078%, 50.196078%)" fill-opacity="1" d="M 140.621094 178.863281 L 140.421875 178.761719 C 139.824219 179.683594 139.625 179.832031 138.902344 179.832031 L 135.117188 179.832031 L 137.78125 177.019531 C 139.203125 175.546875 139.824219 174.328125 139.824219 173.105469 C 139.824219 171.511719 138.53125 170.292969 136.859375 170.292969 C 135.988281 170.292969 135.167969 170.640625 134.59375 171.261719 C 134.070312 171.8125 133.847656 172.308594 133.570312 173.457031 L 133.894531 173.53125 C 134.542969 171.960938 135.117188 171.460938 136.210938 171.460938 C 137.53125 171.460938 138.453125 172.359375 138.453125 173.703125 C 138.453125 174.949219 137.707031 176.421875 136.386719 177.839844 L 133.546875 180.832031 L 133.546875 181.03125 L 139.75 181.03125 Z M 140.621094 178.863281 "/>
<path fill-rule="nonzero" fill="rgb(50.196078%, 50.196078%, 50.196078%)" fill-opacity="1" d="M 266.550781 175.5 C 267.222656 174.675781 267.523438 174.5 268.292969 174.5 L 269.015625 174.5 L 268.019531 178.015625 C 267.871094 178.464844 267.597656 178.8125 266.972656 179.308594 C 266.402344 179.757812 266.226562 180.007812 266.175781 180.355469 C 266.101562 180.832031 266.402344 181.230469 266.898438 181.230469 C 267.398438 181.230469 267.847656 180.878906 268.167969 180.183594 C 268.367188 179.785156 268.867188 178.164062 269.265625 176.542969 L 269.8125 174.5 L 271.535156 174.5 C 271.132812 175.746094 270.710938 177.464844 270.5625 178.363281 C 270.261719 180.15625 270.6875 181.230469 271.65625 181.230469 C 272.28125 181.230469 272.902344 180.804688 273.402344 180.058594 C 273.699219 179.609375 273.824219 179.308594 274 178.511719 L 273.601562 178.511719 C 273.402344 179.285156 273.027344 179.683594 272.503906 179.683594 C 272.207031 179.683594 271.90625 179.460938 271.78125 179.109375 C 271.683594 178.835938 271.683594 178.589844 271.757812 178.066406 C 271.980469 176.84375 272.28125 175.375 272.554688 174.5 L 274.574219 174.5 L 274.796875 173.082031 L 269.242188 173.082031 C 268.394531 173.082031 268.046875 173.179688 267.523438 173.628906 C 267 174.078125 266.675781 174.550781 266.226562 175.5 Z M 266.550781 175.5 "/>
<path fill-rule="nonzero" fill="rgb(50.196078%, 50.196078%, 50.196078%)" fill-opacity="1" d="M 282.136719 169.71875 C 282.214844 169.492188 282.214844 169.445312 282.214844 169.417969 C 282.214844 169.246094 282.089844 169.09375 281.914062 169.09375 C 281.789062 169.09375 281.691406 169.144531 281.640625 169.246094 L 276.109375 184.394531 C 276.035156 184.617188 276.035156 184.667969 276.035156 184.691406 C 276.035156 184.867188 276.183594 185.015625 276.359375 185.015625 C 276.558594 185.015625 276.609375 184.890625 276.707031 184.617188 Z M 282.136719 169.71875 "/>
<path fill-rule="nonzero" fill="rgb(50.196078%, 50.196078%, 50.196078%)" fill-opacity="1" d="M 290.652344 178.863281 L 290.453125 178.761719 C 289.855469 179.683594 289.65625 179.832031 288.933594 179.832031 L 285.148438 179.832031 L 287.8125 177.019531 C 289.234375 175.546875 289.855469 174.328125 289.855469 173.105469 C 289.855469 171.511719 288.5625 170.292969 286.890625 170.292969 C 286.019531 170.292969 285.199219 170.640625 284.625 171.261719 C 284.101562 171.8125 283.878906 172.308594 283.601562 173.457031 L 283.925781 173.53125 C 284.574219 171.960938 285.148438 171.460938 286.246094 171.460938 C 287.566406 171.460938 288.488281 172.359375 288.488281 173.703125 C 288.488281 174.949219 287.738281 176.421875 286.417969 177.839844 L 283.578125 180.832031 L 283.578125 181.03125 L 289.78125 181.03125 Z M 290.652344 178.863281 "/>
<path fill-rule="nonzero" fill="rgb(50.196078%, 50.196078%, 50.196078%)" fill-opacity="1" d="M 352.59375 171.511719 C 353.265625 170.6875 353.566406 170.515625 354.339844 170.515625 L 355.058594 170.515625 L 354.0625 174.027344 C 353.914062 174.476562 353.640625 174.824219 353.015625 175.324219 C 352.445312 175.769531 352.269531 176.019531 352.21875 176.367188 C 352.144531 176.84375 352.445312 177.242188 352.941406 177.242188 C 353.441406 177.242188 353.890625 176.890625 354.214844 176.195312 C 354.414062 175.796875 354.910156 174.175781 355.308594 172.558594 L 355.859375 170.515625 L 357.578125 170.515625 C 357.179688 171.757812 356.753906 173.480469 356.605469 174.375 C 356.304688 176.167969 356.730469 177.242188 357.703125 177.242188 C 358.324219 177.242188 358.945312 176.816406 359.445312 176.070312 C 359.746094 175.621094 359.867188 175.324219 360.042969 174.523438 L 359.644531 174.523438 C 359.445312 175.296875 359.070312 175.695312 358.546875 175.695312 C 358.25 175.695312 357.949219 175.472656 357.824219 175.125 C 357.726562 174.847656 357.726562 174.601562 357.800781 174.078125 C 358.023438 172.855469 358.324219 171.386719 358.597656 170.515625 L 360.617188 170.515625 L 360.839844 169.09375 L 355.285156 169.09375 C 354.4375 169.09375 354.089844 169.195312 353.566406 169.640625 C 353.042969 170.089844 352.71875 170.5625 352.269531 171.511719 Z M 352.59375 171.511719 "/>
<path fill-rule="nonzero" fill="rgb(50.196078%, 50.196078%, 50.196078%)" fill-opacity="1" d="M 181.175781 260.632812 C 181.449219 260.632812 181.75 260.632812 181.75 260.3125 C 181.75 260.011719 181.449219 260.011719 181.175781 260.011719 L 172.578125 260.011719 C 172.304688 260.011719 172.03125 260.011719 172.03125 260.3125 C 172.03125 260.632812 172.304688 260.632812 172.578125 260.632812 Z M 181.175781 260.632812 "/>
<path fill-rule="nonzero" fill="rgb(50.196078%, 50.196078%, 50.196078%)" fill-opacity="1" d="M 190.605469 262.128906 L 190.40625 262.03125 C 189.804688 262.953125 189.605469 263.101562 188.886719 263.101562 L 185.097656 263.101562 L 187.761719 260.285156 C 189.183594 258.816406 189.804688 257.59375 189.804688 256.375 C 189.804688 254.78125 188.511719 253.558594 186.839844 253.558594 C 185.96875 253.558594 185.148438 253.90625 184.574219 254.53125 C 184.050781 255.078125 183.828125 255.578125 183.554688 256.722656 L 183.875 256.796875 C 184.523438 255.226562 185.097656 254.730469 186.195312 254.730469 C 187.515625 254.730469 188.4375 255.625 188.4375 256.972656 C 188.4375 258.21875 187.6875 259.6875 186.367188 261.109375 L 183.527344 264.097656 L 183.527344 264.296875 L 189.730469 264.296875 Z M 190.605469 262.128906 "/>
<path fill-rule="nonzero" fill="rgb(50.196078%, 50.196078%, 50.196078%)" fill-opacity="1" d="M 181.175781 210.914062 C 181.449219 210.914062 181.75 210.914062 181.75 210.589844 C 181.75 210.289062 181.449219 210.289062 181.175781 210.289062 L 172.578125 210.289062 C 172.304688 210.289062 172.03125 210.289062 172.03125 210.589844 C 172.03125 210.914062 172.304688 210.914062 172.578125 210.914062 Z M 181.175781 210.914062 "/>
<path fill-rule="nonzero" fill="rgb(50.196078%, 50.196078%, 50.196078%)" fill-opacity="1" d="M 187.6875 203.835938 L 184.824219 205.28125 L 184.824219 205.507812 C 185 205.433594 185.171875 205.355469 185.246094 205.332031 C 185.546875 205.207031 185.796875 205.15625 185.96875 205.15625 C 186.292969 205.15625 186.441406 205.382812 186.441406 205.90625 L 186.441406 213.105469 C 186.441406 213.628906 186.320312 213.976562 186.070312 214.128906 C 185.820312 214.277344 185.597656 214.328125 184.921875 214.328125 L 184.921875 214.574219 L 189.308594 214.574219 L 189.308594 214.328125 C 188.0625 214.328125 187.8125 214.152344 187.8125 213.40625 L 187.8125 203.863281 Z M 187.6875 203.835938 "/>
<path fill-rule="nonzero" fill="rgb(50.196078%, 50.196078%, 50.196078%)" fill-opacity="1" d="M 187.6875 105.054688 L 184.824219 106.5 L 184.824219 106.722656 C 185 106.648438 185.171875 106.574219 185.246094 106.550781 C 185.546875 106.425781 185.796875 106.375 185.96875 106.375 C 186.292969 106.375 186.441406 106.601562 186.441406 107.121094 L 186.441406 114.324219 C 186.441406 114.847656 186.320312 115.195312 186.070312 115.34375 C 185.820312 115.496094 185.597656 115.542969 184.921875 115.542969 L 184.921875 115.792969 L 189.308594 115.792969 L 189.308594 115.542969 C 188.0625 115.542969 187.8125 115.371094 187.8125 114.621094 L 187.8125 105.078125 Z M 187.6875 105.054688 "/>
<path fill-rule="nonzero" fill="rgb(50.196078%, 50.196078%, 50.196078%)" fill-opacity="1" d="M 190.605469 63.90625 L 190.40625 63.804688 C 189.804688 64.726562 189.605469 64.875 188.886719 64.875 L 185.097656 64.875 L 187.761719 62.0625 C 189.183594 60.589844 189.804688 59.371094 189.804688 58.148438 C 189.804688 56.554688 188.511719 55.332031 186.839844 55.332031 C 185.96875 55.332031 185.148438 55.683594 184.574219 56.304688 C 184.050781 56.851562 183.828125 57.351562 183.554688 58.496094 L 183.875 58.574219 C 184.523438 57.003906 185.097656 56.503906 186.195312 56.503906 C 187.515625 56.503906 188.4375 57.402344 188.4375 58.746094 C 188.4375 59.992188 187.6875 61.460938 186.367188 62.882812 L 183.527344 65.871094 L 183.527344 66.070312 L 189.730469 66.070312 Z M 190.605469 63.90625 "/>
<g clip-path="url(#clip-1)">
<path fill="none" stroke-width="0.99628" stroke-linecap="butt" stroke-linejoin="miter" stroke="rgb(6.666667%, 52.941176%, 87.058824%)" stroke-opacity="1" stroke-miterlimit="10" d="M -0.000822353 92.768002 L 2.519966 98.169692 L 5.038305 102.775215 L 7.559094 106.795248 L 10.077433 110.381677 L 12.598222 113.639839 L 15.116561 116.645678 L 17.63735 119.470235 L 20.155689 122.157606 L 22.676478 124.756787 L 25.194817 127.299623 L 27.718055 129.817963 L 30.238844 132.35345 L 32.757183 134.930583 L 35.277972 137.595906 L 37.796311 140.381268 L 40.317099 143.338111 L 42.835439 146.530131 L 45.356227 150.025918 L 47.874566 153.928364 L 50.395355 158.372203 L 52.913694 163.553417 L 55.434483 169.763523 L 57.952822 177.448377 L 60.473611 187.3527 L 62.99195 200.801806 L 65.512738 220.438971 L 68.031077 252.329767 M 83.15336 -0.00143425 L 85.671699 34.21172 L 88.192488 54.916975 L 90.710827 68.946671 L 93.231616 79.201308 L 95.749955 87.116438 L 98.270744 93.478428 L 100.789083 98.76743 L 103.309872 103.294561 L 105.828211 107.255801 L 108.348999 110.795684 L 110.867338 114.0171 L 113.388127 117.000891 L 115.906466 119.80585 L 118.429705 122.483423 L 120.950493 125.067905 L 123.468832 127.608292 L 125.989621 130.126631 L 128.50796 132.667017 L 131.028749 135.251499 L 133.547088 137.926622 L 136.065427 140.731582 L 138.586216 143.717822 L 141.104555 146.939238 L 143.625344 150.474222 L 146.143683 154.435461 L 148.664471 158.960143 L 151.18281 164.251594 L 153.703599 170.611135 L 156.221938 178.521365 L 158.742727 188.771103 L 161.261066 202.7959 L 163.781855 223.493805 L 166.305093 257.672663 M 181.422477 5.341462 L 183.940816 37.266554 L 186.461604 56.908618 L 188.979943 70.365074 L 191.500732 80.274297 L 194.019071 87.96405 L 196.53986 94.174156 L 199.058199 99.357819 L 201.578988 103.801659 L 204.097327 107.709004 L 206.618116 111.204791 L 209.136455 114.391911 L 211.659693 117.353654 L 214.180482 120.139016 L 216.698821 122.80189 L 219.21961 125.381472 L 221.737949 127.91696 L 224.258738 130.435299 L 226.777077 132.978135 L 229.297865 135.577316 L 231.816204 138.264687 L 234.336993 141.086795 L 236.855332 144.095083 L 239.376121 147.350796 L 241.89446 150.934774 L 244.415249 154.954808 L 246.933588 159.56033 L 249.454377 164.962021 " transform="matrix(1.594553, 0, 0, -1.594553, 1.114593, 365.685213)"/>
</g>
<path fill="none" stroke-width="0.79701" stroke-linecap="butt" stroke-linejoin="miter" stroke="rgb(100%, 12.941176%, 32.156863%)" stroke-opacity="1" stroke-miterlimit="10" d="M 31.429421 128.869911 L 218.026583 128.869911 " transform="matrix(1.594553, 0, 0, -1.594553, 1.114593, 365.685213)"/>
<path fill-rule="nonzero" fill="rgb(100%, 12.941176%, 32.156863%)" fill-opacity="1" d="M 43.792969 160.195312 C 46 160.609375 49.582031 161.847656 52.058594 163.292969 L 52.058594 157.101562 C 49.582031 158.546875 46 159.785156 43.792969 160.195312 "/>
<path fill-rule="nonzero" fill="rgb(100%, 12.941176%, 32.156863%)" fill-opacity="1" d="M 356.207031 160.195312 C 354.003906 159.785156 350.429688 158.546875 347.949219 157.101562 L 347.949219 163.292969 C 350.429688 161.847656 354.003906 160.609375 356.207031 160.195312 "/>
<path fill-rule="nonzero" fill="rgb(100%, 12.941176%, 32.156863%)" fill-opacity="1" d="M 167.542969 149.683594 C 167.941406 149.734375 168.214844 149.734375 168.636719 149.734375 C 169.882812 149.734375 170.730469 149.582031 171.429688 149.210938 C 172.375 148.6875 172.949219 147.714844 172.949219 146.667969 C 172.949219 145.996094 172.722656 145.398438 172.300781 144.949219 C 171.652344 144.253906 170.28125 143.804688 168.789062 143.804688 L 164.578125 143.804688 L 164.578125 144.101562 C 165.75 144.226562 165.921875 144.375 165.921875 145.523438 L 165.921875 152.398438 C 165.921875 153.746094 165.796875 153.894531 164.578125 154.019531 L 164.578125 154.316406 L 169.039062 154.316406 L 169.039062 154.019531 C 167.765625 153.96875 167.542969 153.746094 167.542969 152.574219 Z M 167.542969 144.925781 C 167.542969 144.5 167.640625 144.375 168.089844 144.375 C 170.234375 144.375 171.203125 145.125 171.203125 146.769531 C 171.203125 148.3125 170.28125 149.109375 168.4375 149.109375 C 168.117188 149.109375 167.914062 149.085938 167.542969 149.0625 Z M 167.542969 144.925781 "/>
<path fill-rule="nonzero" fill="rgb(100%, 12.941176%, 32.156863%)" fill-opacity="1" d="M 179.640625 151.703125 C 178.890625 152.921875 178.195312 153.371094 177.171875 153.371094 C 176.273438 153.371094 175.601562 152.921875 175.128906 152 C 174.855469 151.402344 174.730469 150.878906 174.707031 149.90625 L 179.589844 149.90625 C 179.464844 148.886719 179.316406 148.414062 178.917969 147.914062 C 178.441406 147.339844 177.695312 147.019531 176.875 147.019531 C 176.074219 147.019531 175.328125 147.292969 174.730469 147.839844 C 173.984375 148.488281 173.558594 149.609375 173.558594 150.90625 C 173.558594 153.121094 174.707031 154.46875 176.523438 154.46875 C 178.042969 154.46875 179.238281 153.546875 179.914062 151.824219 Z M 174.730469 149.410156 C 174.90625 148.164062 175.453125 147.566406 176.425781 147.566406 C 177.394531 147.566406 177.769531 148.015625 177.96875 149.410156 Z M 174.730469 149.410156 "/>
<path fill-rule="nonzero" fill="rgb(100%, 12.941176%, 32.156863%)" fill-opacity="1" d="M 180.3125 148.113281 C 180.539062 148.0625 180.6875 148.0625 180.886719 148.0625 C 181.285156 148.0625 181.410156 148.3125 181.410156 149.011719 L 181.410156 152.972656 C 181.410156 153.769531 181.308594 153.894531 180.289062 154.070312 L 180.289062 154.316406 L 184.101562 154.316406 L 184.101562 154.070312 C 183.03125 154.042969 182.753906 153.792969 182.753906 152.898438 L 182.753906 149.308594 C 182.753906 148.8125 183.453125 148.015625 183.875 148.015625 C 183.976562 148.015625 184.101562 148.089844 184.273438 148.238281 C 184.550781 148.460938 184.722656 148.5625 184.921875 148.5625 C 185.296875 148.5625 185.546875 148.289062 185.546875 147.839844 C 185.546875 147.316406 185.195312 147.019531 184.675781 147.019531 C 184 147.019531 183.527344 147.367188 182.753906 148.488281 L 182.753906 147.042969 L 182.679688 147.019531 C 181.832031 147.367188 181.261719 147.566406 180.3125 147.863281 Z M 180.3125 148.113281 "/>
<path fill-rule="nonzero" fill="rgb(100%, 12.941176%, 32.156863%)" fill-opacity="1" d="M 188.292969 147.019531 L 185.828125 147.890625 L 185.828125 148.113281 L 185.953125 148.113281 C 186.152344 148.0625 186.351562 148.0625 186.5 148.0625 C 186.875 148.0625 187.023438 148.3125 187.023438 149.011719 L 187.023438 152.699219 C 187.023438 153.84375 186.847656 154.019531 185.753906 154.070312 L 185.753906 154.316406 L 189.515625 154.316406 L 189.515625 154.070312 C 188.46875 153.992188 188.34375 153.84375 188.34375 152.699219 L 188.34375 147.042969 Z M 187.546875 143.453125 C 187.097656 143.453125 186.75 143.828125 186.75 144.277344 C 186.75 144.726562 187.097656 145.074219 187.546875 145.074219 C 187.996094 145.074219 188.371094 144.726562 188.371094 144.277344 C 188.371094 143.828125 187.996094 143.453125 187.546875 143.453125 Z M 187.546875 143.453125 "/>
<path fill-rule="nonzero" fill="rgb(100%, 12.941176%, 32.156863%)" fill-opacity="1" d="M 193.90625 147.019531 C 191.839844 147.019531 190.394531 148.539062 190.394531 150.730469 C 190.394531 152.871094 191.863281 154.46875 193.855469 154.46875 C 195.875 154.46875 197.394531 152.796875 197.394531 150.605469 C 197.394531 148.511719 195.925781 147.019531 193.90625 147.019531 Z M 193.683594 147.441406 C 195.027344 147.441406 195.949219 148.984375 195.949219 151.152344 C 195.949219 152.949219 195.253906 154.042969 194.054688 154.042969 C 193.433594 154.042969 192.835938 153.644531 192.511719 153.023438 C 192.0625 152.199219 191.8125 151.078125 191.8125 149.957031 C 191.8125 148.4375 192.5625 147.441406 193.683594 147.441406 Z M 193.683594 147.441406 "/>
<path fill-rule="nonzero" fill="rgb(100%, 12.941176%, 32.156863%)" fill-opacity="1" d="M 203.320312 154.46875 L 205.660156 153.644531 L 205.660156 153.394531 C 205.386719 153.421875 205.335938 153.421875 205.3125 153.421875 C 204.738281 153.421875 204.617188 153.246094 204.617188 152.5 L 204.617188 143.503906 L 204.515625 143.453125 C 203.769531 143.730469 203.195312 143.878906 202.199219 144.152344 L 202.199219 144.425781 C 202.324219 144.402344 202.398438 144.402344 202.546875 144.402344 C 203.121094 144.402344 203.269531 144.550781 203.269531 145.199219 L 203.269531 147.691406 C 202.671875 147.191406 202.222656 147.019531 201.601562 147.019531 C 199.78125 147.019531 198.285156 148.8125 198.285156 151.054688 C 198.285156 153.097656 199.484375 154.46875 201.226562 154.46875 C 202.125 154.46875 202.722656 154.167969 203.269531 153.421875 L 203.269531 154.417969 Z M 203.269531 152.699219 C 203.269531 152.796875 203.144531 152.996094 202.996094 153.171875 C 202.722656 153.496094 202.324219 153.644531 201.851562 153.644531 C 200.527344 153.644531 199.65625 152.375 199.65625 150.429688 C 199.65625 148.636719 200.429688 147.441406 201.652344 147.441406 C 202.496094 147.441406 203.269531 148.1875 203.269531 149.035156 Z M 203.269531 152.699219 "/>
<path fill-rule="nonzero" fill="rgb(100%, 12.941176%, 32.156863%)" fill-opacity="1" d="M 209.792969 147.019531 C 207.726562 147.019531 206.28125 148.539062 206.28125 150.730469 C 206.28125 152.871094 207.75 154.46875 209.742188 154.46875 C 211.761719 154.46875 213.28125 152.796875 213.28125 150.605469 C 213.28125 148.511719 211.8125 147.019531 209.792969 147.019531 Z M 209.570312 147.441406 C 210.914062 147.441406 211.835938 148.984375 211.835938 151.152344 C 211.835938 152.949219 211.136719 154.042969 209.941406 154.042969 C 209.320312 154.042969 208.722656 153.644531 208.398438 153.023438 C 207.949219 152.199219 207.699219 151.078125 207.699219 149.957031 C 207.699219 148.4375 208.449219 147.441406 209.570312 147.441406 Z M 209.570312 147.441406 "/>
<path fill-rule="nonzero" fill="rgb(100%, 12.941176%, 32.156863%)" fill-opacity="1" d="M 225.269531 152.148438 L 225.070312 152.050781 C 224.472656 152.972656 224.273438 153.121094 223.550781 153.121094 L 219.765625 153.121094 L 222.429688 150.304688 C 223.851562 148.835938 224.472656 147.617188 224.472656 146.394531 C 224.472656 144.800781 223.175781 143.578125 221.507812 143.578125 C 220.636719 143.578125 219.8125 143.929688 219.242188 144.550781 C 218.71875 145.097656 218.492188 145.597656 218.21875 146.742188 L 218.542969 146.816406 C 219.191406 145.25 219.765625 144.75 220.859375 144.75 C 222.179688 144.75 223.101562 145.648438 223.101562 146.992188 C 223.101562 148.238281 222.355469 149.707031 221.035156 151.128906 L 218.195312 154.117188 L 218.195312 154.316406 L 224.398438 154.316406 Z M 225.269531 152.148438 "/>
<path fill-rule="nonzero" fill="rgb(100%, 12.941176%, 32.156863%)" fill-opacity="1" d="M 227.058594 148.785156 C 227.730469 147.964844 228.03125 147.789062 228.800781 147.789062 L 229.523438 147.789062 L 228.527344 151.304688 C 228.378906 151.75 228.105469 152.101562 227.480469 152.597656 C 226.910156 153.046875 226.734375 153.296875 226.683594 153.644531 C 226.609375 154.117188 226.910156 154.515625 227.40625 154.515625 C 227.90625 154.515625 228.355469 154.167969 228.675781 153.46875 C 228.875 153.070312 229.375 151.453125 229.773438 149.832031 L 230.320312 147.789062 L 232.039062 147.789062 C 231.640625 149.035156 231.21875 150.753906 231.070312 151.652344 C 230.769531 153.445312 231.195312 154.515625 232.164062 154.515625 C 232.789062 154.515625 233.410156 154.09375 233.910156 153.347656 C 234.207031 152.898438 234.332031 152.597656 234.507812 151.800781 L 234.109375 151.800781 C 233.910156 152.574219 233.535156 152.972656 233.011719 152.972656 C 232.714844 152.972656 232.414062 152.746094 232.289062 152.398438 C 232.191406 152.125 232.191406 151.875 232.265625 151.351562 C 232.488281 150.132812 232.789062 148.660156 233.0625 147.789062 L 235.082031 147.789062 L 235.304688 146.371094 L 229.75 146.371094 C 228.902344 146.371094 228.554688 146.46875 228.03125 146.917969 C 227.507812 147.367188 227.183594 147.839844 226.734375 148.785156 Z M 227.058594 148.785156 "/>
<path fill="none" stroke-width="0.3985" stroke-linecap="butt" stroke-linejoin="miter" stroke="rgb(50.196078%, 50.196078%, 50.196078%)" stroke-opacity="1" stroke-miterlimit="10" d="M 85.18665 211.700727 L 164.269354 211.700727 L 164.269354 228.638272 L 85.18665 228.638272 Z M 85.18665 211.700727 " transform="matrix(1.594553, 0, 0, -1.594553, 1.114593, 365.685213)"/>
<path fill="none" stroke-width="0.99628" stroke-linecap="butt" stroke-linejoin="miter" stroke="rgb(6.666667%, 52.941176%, 87.058824%)" stroke-opacity="1" stroke-miterlimit="10" d="M 0.0000875807 0.0010502 L 17.008675 0.0010502 " transform="matrix(1.594553, 0, 0, -1.594553, 142.511579, 14.618862)"/>
<path fill-rule="nonzero" fill="rgb(50.196078%, 50.196078%, 50.196078%)" fill-opacity="1" d="M 176.535156 13.082031 L 177.980469 13.082031 L 176.582031 19.757812 C 176.234375 21.476562 175.710938 22.351562 175.039062 22.351562 C 174.839844 22.351562 174.714844 22.226562 174.714844 22.074219 C 174.714844 22.050781 174.742188 22 174.789062 21.902344 C 174.839844 21.828125 174.863281 21.75 174.863281 21.652344 C 174.863281 21.328125 174.566406 21.054688 174.242188 21.054688 C 173.894531 21.054688 173.644531 21.328125 173.644531 21.703125 C 173.644531 22.25 174.21875 22.671875 174.914062 22.671875 C 176.308594 22.671875 177.429688 21.105469 178.078125 18.1875 L 179.226562 13.082031 L 180.96875 13.082031 L 181.070312 12.582031 L 179.347656 12.582031 C 179.796875 10.089844 180.394531 8.945312 181.269531 8.945312 C 181.492188 8.945312 181.617188 9.046875 181.617188 9.144531 C 181.617188 9.195312 181.617188 9.21875 181.566406 9.320312 C 181.492188 9.445312 181.46875 9.519531 181.46875 9.644531 C 181.46875 10.015625 181.714844 10.265625 182.066406 10.265625 C 182.414062 10.265625 182.738281 9.992188 182.738281 9.644531 C 182.738281 9.046875 182.140625 8.597656 181.367188 8.597656 C 180.570312 8.597656 179.972656 8.945312 179.398438 9.691406 C 178.902344 10.316406 178.601562 11.0625 178.105469 12.582031 L 176.660156 12.582031 Z M 176.535156 13.082031 "/>
<path fill-rule="nonzero" fill="rgb(50.196078%, 50.196078%, 50.196078%)" fill-opacity="1" d="M 187.976562 23.195312 C 187.976562 23.148438 187.976562 23.121094 187.703125 22.847656 C 185.734375 20.855469 185.214844 17.839844 185.214844 15.398438 C 185.214844 12.632812 185.8125 9.867188 187.777344 7.898438 C 187.976562 7.699219 187.976562 7.675781 187.976562 7.625 C 187.976562 7.5 187.929688 7.449219 187.828125 7.449219 C 187.65625 7.449219 186.234375 8.546875 185.289062 10.566406 C 184.492188 12.308594 184.292969 14.078125 184.292969 15.398438 C 184.292969 16.644531 184.464844 18.5625 185.335938 20.382812 C 186.308594 22.324219 187.65625 23.371094 187.828125 23.371094 C 187.929688 23.371094 187.976562 23.320312 187.976562 23.195312 Z M 187.976562 23.195312 "/>
<path fill-rule="nonzero" fill="rgb(50.196078%, 50.196078%, 50.196078%)" fill-opacity="1" d="M 195.261719 17.617188 C 195.136719 17.765625 195.0625 17.863281 194.914062 18.039062 C 194.566406 18.539062 194.367188 18.6875 194.191406 18.6875 C 193.96875 18.6875 193.816406 18.488281 193.691406 18.039062 C 193.667969 17.914062 193.644531 17.816406 193.644531 17.765625 C 193.246094 16.144531 193.070312 15.421875 193.070312 15.199219 C 193.769531 13.953125 194.339844 13.257812 194.613281 13.257812 C 194.714844 13.257812 194.839844 13.304688 195.011719 13.378906 C 195.1875 13.503906 195.3125 13.53125 195.4375 13.53125 C 195.761719 13.53125 195.984375 13.304688 195.984375 12.957031 C 195.984375 12.632812 195.710938 12.382812 195.335938 12.382812 C 194.640625 12.382812 194.042969 12.957031 192.945312 14.652344 L 192.769531 13.777344 C 192.546875 12.683594 192.371094 12.382812 191.925781 12.382812 C 191.574219 12.382812 191.050781 12.507812 190.082031 12.832031 L 189.90625 12.90625 L 189.957031 13.132812 C 190.578125 13.007812 190.703125 12.957031 190.851562 12.957031 C 191.25 12.957031 191.351562 13.105469 191.574219 14.054688 L 192.023438 16.019531 L 190.726562 17.863281 C 190.402344 18.363281 190.082031 18.636719 189.90625 18.636719 C 189.832031 18.636719 189.65625 18.585938 189.507812 18.488281 C 189.308594 18.386719 189.132812 18.339844 188.984375 18.339844 C 188.683594 18.339844 188.460938 18.5625 188.460938 18.886719 C 188.460938 19.308594 188.785156 19.558594 189.257812 19.558594 C 189.730469 19.558594 189.929688 19.410156 190.726562 18.4375 C 191.152344 17.941406 191.5 17.515625 192.148438 16.59375 L 192.648438 18.488281 C 192.847656 19.308594 193.046875 19.558594 193.570312 19.558594 C 194.167969 19.558594 194.566406 19.1875 195.488281 17.742188 Z M 195.261719 17.617188 "/>
<path fill-rule="nonzero" fill="rgb(50.196078%, 50.196078%, 50.196078%)" fill-opacity="1" d="M 200.570312 15.398438 C 200.570312 14.179688 200.394531 12.257812 199.523438 10.441406 C 198.578125 8.496094 197.207031 7.449219 197.058594 7.449219 C 196.957031 7.449219 196.882812 7.527344 196.882812 7.625 C 196.882812 7.675781 196.882812 7.699219 197.183594 8 C 198.753906 9.570312 199.648438 12.085938 199.648438 15.398438 C 199.648438 18.140625 199.074219 20.929688 197.109375 22.921875 C 196.882812 23.121094 196.882812 23.148438 196.882812 23.195312 C 196.882812 23.296875 196.957031 23.371094 197.058594 23.371094 C 197.207031 23.371094 198.652344 22.273438 199.574219 20.257812 C 200.394531 18.511719 200.570312 16.742188 200.570312 15.398438 Z M 200.570312 15.398438 "/>
<path fill-rule="nonzero" fill="rgb(50.196078%, 50.196078%, 50.196078%)" fill-opacity="1" d="M 216.589844 14.179688 C 216.835938 14.179688 217.136719 14.179688 217.136719 13.878906 C 217.136719 13.554688 216.835938 13.554688 216.613281 13.554688 L 207.09375 13.554688 C 206.871094 13.554688 206.570312 13.554688 206.570312 13.878906 C 206.570312 14.179688 206.871094 14.179688 207.09375 14.179688 Z M 216.613281 17.265625 C 216.835938 17.265625 217.136719 17.265625 217.136719 16.941406 C 217.136719 16.644531 216.835938 16.644531 216.589844 16.644531 L 207.09375 16.644531 C 206.871094 16.644531 206.570312 16.644531 206.570312 16.941406 C 206.570312 17.265625 206.871094 17.265625 207.09375 17.265625 Z M 216.613281 17.265625 "/>
<path fill-rule="nonzero" fill="rgb(50.196078%, 50.196078%, 50.196078%)" fill-opacity="1" d="M 225.613281 12.234375 L 223.996094 12.234375 L 223.996094 10.390625 C 223.996094 10.242188 223.996094 10.191406 223.894531 10.191406 C 223.769531 10.316406 223.671875 10.464844 223.570312 10.613281 C 222.972656 11.511719 222.277344 12.257812 222.027344 12.335938 C 221.851562 12.433594 221.753906 12.558594 221.753906 12.632812 C 221.753906 12.683594 221.777344 12.707031 221.828125 12.734375 L 222.675781 12.734375 L 222.675781 17.515625 C 222.675781 18.863281 223.148438 19.535156 224.070312 19.535156 C 224.867188 19.535156 225.464844 19.160156 225.988281 18.339844 L 225.789062 18.164062 C 225.441406 18.5625 225.167969 18.710938 224.816406 18.710938 C 224.246094 18.710938 223.996094 18.289062 223.996094 17.292969 L 223.996094 12.734375 L 225.613281 12.734375 Z M 225.613281 12.234375 "/>
<path fill-rule="nonzero" fill="rgb(50.196078%, 50.196078%, 50.196078%)" fill-opacity="1" d="M 233.445312 13.207031 L 233.445312 12.609375 L 232.222656 12.609375 C 231.898438 12.609375 231.652344 12.558594 231.351562 12.433594 L 231.003906 12.308594 C 230.554688 12.160156 230.128906 12.085938 229.730469 12.085938 C 228.238281 12.085938 227.066406 13.207031 227.066406 14.675781 C 227.066406 15.671875 227.488281 16.269531 228.535156 16.792969 C 228.238281 17.066406 227.964844 17.34375 227.863281 17.441406 C 227.339844 17.890625 227.140625 18.214844 227.140625 18.539062 C 227.140625 18.863281 227.316406 19.0625 227.964844 19.359375 C 226.84375 20.207031 226.417969 20.730469 226.417969 21.304688 C 226.417969 22.152344 227.664062 22.847656 229.160156 22.847656 C 230.355469 22.847656 231.601562 22.425781 232.421875 21.777344 C 233.019531 21.277344 233.292969 20.78125 233.292969 20.15625 C 233.292969 19.1875 232.546875 18.511719 231.375 18.464844 L 229.332031 18.363281 C 228.484375 18.339844 228.085938 18.1875 228.085938 17.941406 C 228.085938 17.617188 228.609375 17.066406 229.035156 16.941406 C 229.183594 16.941406 229.285156 16.96875 229.332031 16.96875 C 229.632812 16.992188 229.855469 17.019531 229.957031 17.019531 C 230.527344 17.019531 231.175781 16.769531 231.652344 16.34375 C 232.171875 15.898438 232.421875 15.347656 232.421875 14.550781 C 232.421875 14.101562 232.347656 13.730469 232.125 13.207031 Z M 228.3125 19.410156 C 228.835938 19.535156 230.105469 19.632812 230.878906 19.632812 C 232.324219 19.632812 232.847656 19.832031 232.847656 20.40625 C 232.847656 21.328125 231.652344 21.953125 229.855469 21.953125 C 228.460938 21.953125 227.539062 21.476562 227.539062 20.78125 C 227.539062 20.40625 227.640625 20.207031 228.3125 19.410156 Z M 228.386719 14.003906 C 228.386719 13.082031 228.835938 12.507812 229.558594 12.507812 C 230.054688 12.507812 230.480469 12.78125 230.730469 13.257812 C 231.003906 13.828125 231.203125 14.550781 231.203125 15.175781 C 231.203125 16.070312 230.730469 16.621094 230.007812 16.621094 C 229.058594 16.621094 228.386719 15.597656 228.386719 14.054688 Z M 228.386719 14.003906 "/>
<path fill-rule="nonzero" fill="rgb(50.196078%, 50.196078%, 50.196078%)" fill-opacity="1" d="M 240.933594 23.195312 C 240.933594 23.148438 240.933594 23.121094 240.660156 22.847656 C 238.691406 20.855469 238.167969 17.839844 238.167969 15.398438 C 238.167969 12.632812 238.765625 9.867188 240.734375 7.898438 C 240.933594 7.699219 240.933594 7.675781 240.933594 7.625 C 240.933594 7.5 240.882812 7.449219 240.785156 7.449219 C 240.609375 7.449219 239.191406 8.546875 238.242188 10.566406 C 237.445312 12.308594 237.246094 14.078125 237.246094 15.398438 C 237.246094 16.644531 237.421875 18.5625 238.292969 20.382812 C 239.265625 22.324219 240.609375 23.371094 240.785156 23.371094 C 240.882812 23.371094 240.933594 23.320312 240.933594 23.195312 Z M 240.933594 23.195312 "/>
<path fill-rule="nonzero" fill="rgb(50.196078%, 50.196078%, 50.196078%)" fill-opacity="1" d="M 248.21875 17.617188 C 248.09375 17.765625 248.019531 17.863281 247.871094 18.039062 C 247.523438 18.539062 247.324219 18.6875 247.148438 18.6875 C 246.921875 18.6875 246.773438 18.488281 246.648438 18.039062 C 246.625 17.914062 246.601562 17.816406 246.601562 17.765625 C 246.203125 16.144531 246.027344 15.421875 246.027344 15.199219 C 246.722656 13.953125 247.296875 13.257812 247.570312 13.257812 C 247.671875 13.257812 247.796875 13.304688 247.96875 13.378906 C 248.144531 13.503906 248.269531 13.53125 248.394531 13.53125 C 248.71875 13.53125 248.941406 13.304688 248.941406 12.957031 C 248.941406 12.632812 248.667969 12.382812 248.292969 12.382812 C 247.597656 12.382812 247 12.957031 245.902344 14.652344 L 245.726562 13.777344 C 245.503906 12.683594 245.328125 12.382812 244.878906 12.382812 C 244.53125 12.382812 244.007812 12.507812 243.035156 12.832031 L 242.863281 12.90625 L 242.914062 13.132812 C 243.535156 13.007812 243.660156 12.957031 243.808594 12.957031 C 244.207031 12.957031 244.308594 13.105469 244.53125 14.054688 L 244.980469 16.019531 L 243.683594 17.863281 C 243.359375 18.363281 243.035156 18.636719 242.863281 18.636719 C 242.789062 18.636719 242.613281 18.585938 242.464844 18.488281 C 242.265625 18.386719 242.089844 18.339844 241.941406 18.339844 C 241.640625 18.339844 241.417969 18.5625 241.417969 18.886719 C 241.417969 19.308594 241.742188 19.558594 242.214844 19.558594 C 242.6875 19.558594 242.886719 19.410156 243.683594 18.4375 C 244.109375 17.941406 244.457031 17.515625 245.105469 16.59375 L 245.601562 18.488281 C 245.800781 19.308594 246 19.558594 246.523438 19.558594 C 247.121094 19.558594 247.523438 19.1875 248.445312 17.742188 Z M 248.21875 17.617188 "/>
<path fill-rule="nonzero" fill="rgb(50.196078%, 50.196078%, 50.196078%)" fill-opacity="1" d="M 253.527344 15.398438 C 253.527344 14.179688 253.351562 12.257812 252.480469 10.441406 C 251.53125 8.496094 250.164062 7.449219 250.011719 7.449219 C 249.914062 7.449219 249.839844 7.527344 249.839844 7.625 C 249.839844 7.675781 249.839844 7.699219 250.136719 8 C 251.707031 9.570312 252.605469 12.085938 252.605469 15.398438 C 252.605469 18.140625 252.03125 20.929688 250.0625 22.921875 C 249.839844 23.121094 249.839844 23.148438 249.839844 23.195312 C 249.839844 23.296875 249.914062 23.371094 250.011719 23.371094 C 250.164062 23.371094 251.609375 22.273438 252.53125 20.257812 C 253.351562 18.511719 253.527344 16.742188 253.527344 15.398438 Z M 253.527344 15.398438 "/>
</svg>
