<?xml version="1.0" encoding="UTF-8"?>
<svg xmlns="http://www.w3.org/2000/svg" xmlns:xlink="http://www.w3.org/1999/xlink" width="400" height="396.667716" viewBox="0 0 400 396.667716">
<defs>
<clipPath id="clip-0">
<path clip-rule="nonzero" d="M 20.007812 14.199219 L 387.609375 14.199219 L 387.609375 381.796875 L 20.007812 381.796875 Z M 20.007812 14.199219 "/>
</clipPath>
</defs>
<path fill="none" stroke-width="0.09962" stroke-linecap="butt" stroke-linejoin="miter" stroke="rgb(69.803922%, 69.803922%, 69.803922%)" stroke-opacity="1" stroke-dasharray="2.98883 2.98883" stroke-miterlimit="10" d="M 0.00117607 0.00266908 L 0.00117607 187.095172 M 31.18094 0.00266908 L 31.18094 187.095172 M 62.364681 0.00266908 L 62.364681 187.095172 M 124.728186 0.00266908 L 124.728186 187.095172 M 155.911926 0.00266908 L 155.911926 187.095172 M 187.095667 0.00266908 L 187.095667 187.095172 " transform="matrix(1.964791, 0, 0, -1.964791, 20.005502, 381.802119)"/>
<path fill="none" stroke-width="0.09962" stroke-linecap="butt" stroke-linejoin="miter" stroke="rgb(69.803922%, 69.803922%, 69.803922%)" stroke-opacity="1" stroke-dasharray="2.98883 2.98883" stroke-miterlimit="10" d="M 0.00117607 0.00266908 L 187.095667 0.00266908 M 0.00117607 31.180445 L 187.095667 31.180445 M 0.00117607 62.364186 L 187.095667 62.364186 M 0.00117607 124.727691 L 187.095667 124.727691 M 0.00117607 155.911431 L 187.095667 155.911431 M 0.00117607 187.095172 L 187.095667 187.095172 " transform="matrix(1.964791, 0, 0, -1.964791, 20.005502, 381.802119)"/>
<path fill="none" stroke-width="0.19925" stroke-linecap="butt" stroke-linejoin="miter" stroke="rgb(50.196078%, 50.196078%, 50.196078%)" stroke-opacity="1" stroke-miterlimit="10" d="M 0.00117607 91.420633 L 0.00117607 95.673232 M 31.18094 91.420633 L 31.18094 95.673232 M 62.364681 91.420633 L 62.364681 95.673232 M 124.728186 91.420633 L 124.728186 95.673232 M 155.911926 91.420633 L 155.911926 95.673232 M 187.095667 91.420633 L 187.095667 95.673232 " transform="matrix(1.964791, 0, 0, -1.964791, 20.005502, 381.802119)"/>
<path fill="none" stroke-width="0.19925" stroke-linecap="butt" stroke-linejoin="miter" stroke="rgb(50.196078%, 50.196078%, 50.196078%)" stroke-opacity="1" stroke-miterlimit="10" d="M 91.41914 0.00266908 L 95.673727 0.00266908 M 91.41914 31.180445 L 95.673727 31.180445 M 91.41914 62.364186 L 95.673727 62.364186 M 91.41914 124.727691 L 95.673727 124.727691 M 91.41914 155.911431 L 95.673727 155.911431 M 91.41914 187.095172 L 95.673727 187.095172 " transform="matrix(1.964791, 0, 0, -1.964791, 20.005502, 381.802119)"/>
<path fill="none" stroke-width="0.3985" stroke-linecap="butt" stroke-linejoin="miter" stroke="rgb(50.196078%, 50.196078%, 50.196078%)" stroke-opacity="1" stroke-miterlimit="10" d="M 0.00117607 93.547926 L 185.103566 93.547926 " transform="matrix(1.964791, 0, 0, -1.964791, 20.005502, 381.802119)"/>
<path fill-rule="nonzero" fill="rgb(50.196078%, 50.196078%, 50.196078%)" fill-opacity="1" d="M 387.609375 198 L 381.339844 194.867188 L 383.695312 198 L 381.339844 201.128906 "/>
<path fill="none" stroke-width="0.3985" stroke-linecap="butt" stroke-linejoin="miter" stroke="rgb(50.196078%, 50.196078%, 50.196078%)" stroke-opacity="1" stroke-miterlimit="10" d="M 93.548422 0.00266908 L 93.548422 185.099094 " transform="matrix(1.964791, 0, 0, -1.964791, 20.005502, 381.802119)"/>
<path fill-rule="nonzero" fill="rgb(50.196078%, 50.196078%, 50.196078%)" fill-opacity="1" d="M 203.808594 14.199219 L 200.675781 20.46875 L 203.808594 18.121094 L 206.941406 20.46875 "/>
<path fill-rule="nonzero" fill="rgb(50.196078%, 50.196078%, 50.196078%)" fill-opacity="1" d="M 20.402344 217.675781 C 20.738281 217.675781 21.109375 217.675781 21.109375 217.277344 C 21.109375 216.910156 20.738281 216.910156 20.402344 216.910156 L 9.808594 216.910156 C 9.472656 216.910156 9.132812 216.910156 9.132812 217.277344 C 9.132812 217.675781 9.472656 217.675781 9.808594 217.675781 Z M 20.402344 217.675781 "/>
<path fill-rule="nonzero" fill="rgb(50.196078%, 50.196078%, 50.196078%)" fill-opacity="1" d="M 25.722656 215.710938 C 26.859375 215.710938 27.320312 215.773438 27.78125 215.925781 C 29.007812 216.386719 29.777344 217.492188 29.777344 218.84375 C 29.777344 220.472656 28.640625 221.761719 27.195312 221.761719 C 26.675781 221.761719 26.277344 221.605469 25.570312 221.148438 C 24.957031 220.808594 24.648438 220.65625 24.3125 220.65625 C 23.851562 220.65625 23.542969 220.933594 23.542969 221.363281 C 23.542969 222.035156 24.402344 222.464844 25.785156 222.464844 C 27.289062 222.464844 28.824219 221.945312 29.746094 221.148438 C 30.667969 220.347656 31.1875 219.210938 31.1875 217.890625 C 31.1875 216.910156 30.851562 215.988281 30.296875 215.375 C 29.898438 214.945312 29.53125 214.699219 28.671875 214.332031 C 30.023438 213.410156 30.511719 212.703125 30.511719 211.628906 C 30.511719 210.03125 29.253906 208.957031 27.441406 208.957031 C 26.460938 208.957031 25.601562 209.296875 24.894531 209.910156 C 24.3125 210.433594 24.035156 210.953125 23.605469 212.121094 L 23.882812 212.214844 C 24.679688 210.769531 25.570312 210.125 26.796875 210.125 C 28.085938 210.125 28.976562 210.984375 28.976562 212.214844 C 28.976562 212.917969 28.671875 213.625 28.179688 214.117188 C 27.597656 214.699219 27.042969 215.007812 25.722656 215.46875 Z M 25.722656 215.710938 "/>
<path fill-rule="nonzero" fill="rgb(50.196078%, 50.196078%, 50.196078%)" fill-opacity="1" d="M 81.664062 217.675781 C 82.003906 217.675781 82.371094 217.675781 82.371094 217.277344 C 82.371094 216.910156 82.003906 216.910156 81.664062 216.910156 L 71.074219 216.910156 C 70.738281 216.910156 70.398438 216.910156 70.398438 217.277344 C 70.398438 217.675781 70.738281 217.675781 71.074219 217.675781 Z M 81.664062 217.675781 "/>
<path fill-rule="nonzero" fill="rgb(50.196078%, 50.196078%, 50.196078%)" fill-opacity="1" d="M 93.28125 219.519531 L 93.039062 219.398438 C 92.300781 220.53125 92.054688 220.714844 91.164062 220.714844 L 86.5 220.714844 L 89.785156 217.246094 C 91.535156 215.4375 92.300781 213.933594 92.300781 212.429688 C 92.300781 210.464844 90.703125 208.957031 88.648438 208.957031 C 87.574219 208.957031 86.558594 209.386719 85.855469 210.15625 C 85.210938 210.832031 84.933594 211.445312 84.59375 212.859375 L 84.996094 212.949219 C 85.792969 211.015625 86.5 210.402344 87.847656 210.402344 C 89.476562 210.402344 90.613281 211.507812 90.613281 213.164062 C 90.613281 214.699219 89.691406 216.511719 88.0625 218.261719 L 84.5625 221.945312 L 84.5625 222.191406 L 92.207031 222.191406 Z M 93.28125 219.519531 "/>
<path fill-rule="nonzero" fill="rgb(50.196078%, 50.196078%, 50.196078%)" fill-opacity="1" d="M 142.933594 217.675781 C 143.269531 217.675781 143.636719 217.675781 143.636719 217.277344 C 143.636719 216.910156 143.269531 216.910156 142.933594 216.910156 L 132.339844 216.910156 C 132.003906 216.910156 131.664062 216.910156 131.664062 217.277344 C 131.664062 217.675781 132.003906 217.675781 132.339844 217.675781 Z M 142.933594 217.675781 "/>
<path fill-rule="nonzero" fill="rgb(50.196078%, 50.196078%, 50.196078%)" fill-opacity="1" d="M 150.957031 208.957031 L 147.425781 210.738281 L 147.425781 211.015625 C 147.640625 210.921875 147.855469 210.832031 147.949219 210.800781 C 148.316406 210.648438 148.625 210.585938 148.839844 210.585938 C 149.238281 210.585938 149.421875 210.863281 149.421875 211.507812 L 149.421875 220.378906 C 149.421875 221.023438 149.269531 221.453125 148.960938 221.636719 C 148.65625 221.820312 148.378906 221.882812 147.550781 221.882812 L 147.550781 222.191406 L 152.953125 222.191406 L 152.953125 221.882812 C 151.417969 221.882812 151.109375 221.667969 151.109375 220.746094 L 151.109375 208.988281 Z M 150.957031 208.957031 "/>
<path fill-rule="nonzero" fill="rgb(50.196078%, 50.196078%, 50.196078%)" fill-opacity="1" d="M 265.886719 208.957031 L 262.355469 210.738281 L 262.355469 211.015625 C 262.570312 210.921875 262.785156 210.832031 262.878906 210.800781 C 263.246094 210.648438 263.550781 210.585938 263.765625 210.585938 C 264.167969 210.585938 264.351562 210.863281 264.351562 211.507812 L 264.351562 220.378906 C 264.351562 221.023438 264.199219 221.453125 263.890625 221.636719 C 263.582031 221.820312 263.308594 221.882812 262.476562 221.882812 L 262.476562 222.191406 L 267.882812 222.191406 L 267.882812 221.882812 C 266.347656 221.882812 266.039062 221.667969 266.039062 220.746094 L 266.039062 208.988281 Z M 265.886719 208.957031 "/>
<path fill-rule="nonzero" fill="rgb(50.196078%, 50.196078%, 50.196078%)" fill-opacity="1" d="M 330.742188 219.519531 L 330.496094 219.398438 C 329.757812 220.53125 329.515625 220.714844 328.625 220.714844 L 323.957031 220.714844 L 327.242188 217.246094 C 328.992188 215.4375 329.757812 213.933594 329.757812 212.429688 C 329.757812 210.464844 328.164062 208.957031 326.105469 208.957031 C 325.03125 208.957031 324.019531 209.386719 323.3125 210.15625 C 322.667969 210.832031 322.390625 211.445312 322.054688 212.859375 L 322.453125 212.949219 C 323.25 211.015625 323.957031 210.402344 325.308594 210.402344 C 326.933594 210.402344 328.070312 211.507812 328.070312 213.164062 C 328.070312 214.699219 327.148438 216.511719 325.523438 218.261719 L 322.023438 221.945312 L 322.023438 222.191406 L 329.667969 222.191406 Z M 330.742188 219.519531 "/>
<path fill-rule="nonzero" fill="rgb(50.196078%, 50.196078%, 50.196078%)" fill-opacity="1" d="M 385.714844 215.710938 C 386.851562 215.710938 387.3125 215.773438 387.769531 215.925781 C 389 216.386719 389.765625 217.492188 389.765625 218.84375 C 389.765625 220.472656 388.632812 221.761719 387.1875 221.761719 C 386.667969 221.761719 386.265625 221.605469 385.5625 221.148438 C 384.945312 220.808594 384.640625 220.65625 384.300781 220.65625 C 383.84375 220.65625 383.535156 220.933594 383.535156 221.363281 C 383.535156 222.035156 384.394531 222.464844 385.777344 222.464844 C 387.28125 222.464844 388.816406 221.945312 389.734375 221.148438 C 390.65625 220.347656 391.179688 219.210938 391.179688 217.890625 C 391.179688 216.910156 390.839844 215.988281 390.289062 215.375 C 389.890625 214.945312 389.519531 214.699219 388.660156 214.332031 C 390.011719 213.410156 390.503906 212.703125 390.503906 211.628906 C 390.503906 210.03125 389.246094 208.957031 387.433594 208.957031 C 386.453125 208.957031 385.589844 209.296875 384.886719 209.910156 C 384.300781 210.433594 384.027344 210.953125 383.597656 212.121094 L 383.871094 212.214844 C 384.671875 210.769531 385.5625 210.125 386.789062 210.125 C 388.078125 210.125 388.96875 210.984375 388.96875 212.214844 C 388.96875 212.917969 388.660156 213.625 388.171875 214.117188 C 387.585938 214.699219 387.035156 215.007812 385.714844 215.46875 Z M 385.714844 215.710938 "/>
<path fill-rule="nonzero" fill="rgb(50.196078%, 50.196078%, 50.196078%)" fill-opacity="1" d="M 180.605469 383.023438 C 180.945312 383.023438 181.3125 383.023438 181.3125 382.625 C 181.3125 382.257812 180.945312 382.257812 180.605469 382.257812 L 170.015625 382.257812 C 169.675781 382.257812 169.339844 382.257812 169.339844 382.625 C 169.339844 383.023438 169.675781 383.023438 170.015625 383.023438 Z M 180.605469 383.023438 "/>
<path fill-rule="nonzero" fill="rgb(50.196078%, 50.196078%, 50.196078%)" fill-opacity="1" d="M 185.929688 381.058594 C 187.066406 381.058594 187.527344 381.121094 187.988281 381.273438 C 189.214844 381.734375 189.984375 382.839844 189.984375 384.191406 C 189.984375 385.816406 188.847656 387.109375 187.402344 387.109375 C 186.882812 387.109375 186.484375 386.953125 185.777344 386.492188 C 185.164062 386.15625 184.855469 386.003906 184.519531 386.003906 C 184.058594 386.003906 183.75 386.277344 183.75 386.707031 C 183.75 387.382812 184.609375 387.8125 185.992188 387.8125 C 187.496094 387.8125 189.03125 387.292969 189.953125 386.492188 C 190.875 385.695312 191.394531 384.558594 191.394531 383.238281 C 191.394531 382.257812 191.058594 381.335938 190.503906 380.722656 C 190.105469 380.292969 189.738281 380.046875 188.878906 379.679688 C 190.230469 378.757812 190.71875 378.050781 190.71875 376.976562 C 190.71875 375.378906 189.460938 374.304688 187.648438 374.304688 C 186.667969 374.304688 185.808594 374.644531 185.101562 375.257812 C 184.519531 375.777344 184.242188 376.300781 183.8125 377.46875 L 184.089844 377.558594 C 184.886719 376.117188 185.777344 375.472656 187.003906 375.472656 C 188.292969 375.472656 189.183594 376.332031 189.183594 377.558594 C 189.183594 378.265625 188.878906 378.972656 188.386719 379.464844 C 187.804688 380.046875 187.25 380.355469 185.929688 380.8125 Z M 185.929688 381.058594 "/>
<path fill-rule="nonzero" fill="rgb(50.196078%, 50.196078%, 50.196078%)" fill-opacity="1" d="M 180.605469 321.757812 C 180.945312 321.757812 181.3125 321.757812 181.3125 321.359375 C 181.3125 320.992188 180.945312 320.992188 180.605469 320.992188 L 170.015625 320.992188 C 169.675781 320.992188 169.339844 320.992188 169.339844 321.359375 C 169.339844 321.757812 169.675781 321.757812 170.015625 321.757812 Z M 180.605469 321.757812 "/>
<path fill-rule="nonzero" fill="rgb(50.196078%, 50.196078%, 50.196078%)" fill-opacity="1" d="M 192.222656 323.601562 L 191.976562 323.476562 C 191.242188 324.613281 190.996094 324.796875 190.105469 324.796875 L 185.4375 324.796875 L 188.722656 321.328125 C 190.472656 319.515625 191.242188 318.011719 191.242188 316.507812 C 191.242188 314.542969 189.644531 313.039062 187.589844 313.039062 C 186.515625 313.039062 185.5 313.46875 184.792969 314.238281 C 184.148438 314.914062 183.875 315.527344 183.535156 316.9375 L 183.933594 317.03125 C 184.734375 315.097656 185.4375 314.484375 186.789062 314.484375 C 188.417969 314.484375 189.554688 315.585938 189.554688 317.246094 C 189.554688 318.78125 188.632812 320.589844 187.003906 322.339844 L 183.503906 326.027344 L 183.503906 326.269531 L 191.148438 326.269531 Z M 192.222656 323.601562 "/>
<path fill-rule="nonzero" fill="rgb(50.196078%, 50.196078%, 50.196078%)" fill-opacity="1" d="M 180.605469 260.492188 C 180.945312 260.492188 181.3125 260.492188 181.3125 260.09375 C 181.3125 259.726562 180.945312 259.726562 180.605469 259.726562 L 170.015625 259.726562 C 169.675781 259.726562 169.339844 259.726562 169.339844 260.09375 C 169.339844 260.492188 169.675781 260.492188 170.015625 260.492188 Z M 180.605469 260.492188 "/>
<path fill-rule="nonzero" fill="rgb(50.196078%, 50.196078%, 50.196078%)" fill-opacity="1" d="M 188.632812 251.773438 L 185.101562 253.554688 L 185.101562 253.832031 C 185.316406 253.738281 185.53125 253.644531 185.625 253.617188 C 185.992188 253.460938 186.300781 253.402344 186.515625 253.402344 C 186.914062 253.402344 187.097656 253.675781 187.097656 254.320312 L 187.097656 263.195312 C 187.097656 263.839844 186.945312 264.269531 186.636719 264.453125 C 186.328125 264.636719 186.054688 264.699219 185.222656 264.699219 L 185.222656 265.003906 L 190.628906 265.003906 L 190.628906 264.699219 C 189.09375 264.699219 188.785156 264.484375 188.785156 263.5625 L 188.785156 251.804688 Z M 188.632812 251.773438 "/>
<path fill-rule="nonzero" fill="rgb(50.196078%, 50.196078%, 50.196078%)" fill-opacity="1" d="M 188.632812 130.050781 L 185.101562 131.832031 L 185.101562 132.109375 C 185.316406 132.015625 185.53125 131.925781 185.625 131.894531 C 185.992188 131.742188 186.300781 131.679688 186.515625 131.679688 C 186.914062 131.679688 187.097656 131.957031 187.097656 132.601562 L 187.097656 141.472656 C 187.097656 142.117188 186.945312 142.546875 186.636719 142.730469 C 186.328125 142.914062 186.054688 142.976562 185.222656 142.976562 L 185.222656 143.285156 L 190.628906 143.285156 L 190.628906 142.976562 C 189.09375 142.976562 188.785156 142.761719 188.785156 141.839844 L 188.785156 130.082031 Z M 188.632812 130.050781 "/>
<path fill-rule="nonzero" fill="rgb(50.196078%, 50.196078%, 50.196078%)" fill-opacity="1" d="M 192.222656 79.347656 L 191.976562 79.226562 C 191.242188 80.363281 190.996094 80.546875 190.105469 80.546875 L 185.4375 80.546875 L 188.722656 77.078125 C 190.472656 75.265625 191.242188 73.761719 191.242188 72.257812 C 191.242188 70.292969 189.644531 68.789062 187.589844 68.789062 C 186.515625 68.789062 185.5 69.21875 184.792969 69.984375 C 184.148438 70.660156 183.875 71.273438 183.535156 72.6875 L 183.933594 72.78125 C 184.734375 70.84375 185.4375 70.230469 186.789062 70.230469 C 188.417969 70.230469 189.554688 71.335938 189.554688 72.996094 C 189.554688 74.53125 188.632812 76.339844 187.003906 78.089844 L 183.503906 81.773438 L 183.503906 82.019531 L 191.148438 82.019531 Z M 192.222656 79.347656 "/>
<path fill-rule="nonzero" fill="rgb(50.196078%, 50.196078%, 50.196078%)" fill-opacity="1" d="M 185.929688 14.125 C 187.066406 14.125 187.527344 14.1875 187.988281 14.339844 C 189.214844 14.800781 189.984375 15.90625 189.984375 17.257812 C 189.984375 18.882812 188.847656 20.171875 187.402344 20.171875 C 186.882812 20.171875 186.484375 20.019531 185.777344 19.558594 C 185.164062 19.222656 184.855469 19.066406 184.519531 19.066406 C 184.058594 19.066406 183.75 19.34375 183.75 19.773438 C 183.75 20.449219 184.609375 20.878906 185.992188 20.878906 C 187.496094 20.878906 189.03125 20.355469 189.953125 19.558594 C 190.875 18.761719 191.394531 17.625 191.394531 16.304688 C 191.394531 15.324219 191.058594 14.402344 190.503906 13.789062 C 190.105469 13.359375 189.738281 13.113281 188.878906 12.742188 C 190.230469 11.824219 190.71875 11.117188 190.71875 10.042969 C 190.71875 8.445312 189.460938 7.371094 187.648438 7.371094 C 186.667969 7.371094 185.808594 7.707031 185.101562 8.324219 C 184.519531 8.84375 184.242188 9.367188 183.8125 10.535156 L 184.089844 10.625 C 184.886719 9.183594 185.777344 8.539062 187.003906 8.539062 C 188.292969 8.539062 189.183594 9.398438 189.183594 10.625 C 189.183594 11.332031 188.878906 12.039062 188.386719 12.527344 C 187.804688 13.113281 187.25 13.417969 185.929688 13.878906 Z M 185.929688 14.125 "/>
<g clip-path="url(#clip-0)">
<path fill="none" stroke-width="0.99628" stroke-linecap="butt" stroke-linejoin="miter" stroke="rgb(6.666667%, 52.941176%, 87.058824%)" stroke-opacity="1" stroke-miterlimit="10" d="M 0.00117607 0.00266908 L 187.095667 187.095172 " transform="matrix(1.964791, 0, 0, -1.964791, 20.005502, 381.802119)"/>
</g>
<path fill="none" stroke-width="0.3985" stroke-linecap="butt" stroke-linejoin="miter" stroke="rgb(50.196078%, 50.196078%, 50.196078%)" stroke-opacity="1" stroke-miterlimit="10" d="M 5.810477 164.345058 L 68.30321 164.345058 L 68.30321 181.283882 L 5.810477 181.283882 Z M 5.810477 164.345058 " transform="matrix(1.964791, 0, 0, -1.964791, 20.005502, 381.802119)"/>
<path fill="none" stroke-width="0.99628" stroke-linecap="butt" stroke-linejoin="miter" stroke="rgb(6.666667%, 52.941176%, 87.058824%)" stroke-opacity="1" stroke-miterlimit="10" d="M -0.000350827 -0.00151223 L 17.008059 -0.00151223 " transform="matrix(1.964791, 0, 0, -1.964791, 38.274127, 42.262654)"/>
<path fill-rule="nonzero" fill="rgb(50.196078%, 50.196078%, 50.196078%)" fill-opacity="1" d="M 80.195312 40.367188 L 81.976562 40.367188 L 80.257812 48.597656 C 79.828125 50.714844 79.183594 51.789062 78.355469 51.789062 C 78.109375 51.789062 77.957031 51.636719 77.957031 51.449219 C 77.957031 51.421875 77.984375 51.359375 78.046875 51.234375 C 78.109375 51.144531 78.140625 51.050781 78.140625 50.929688 C 78.140625 50.53125 77.769531 50.191406 77.371094 50.191406 C 76.941406 50.191406 76.636719 50.53125 76.636719 50.992188 C 76.636719 51.664062 77.339844 52.1875 78.199219 52.1875 C 79.921875 52.1875 81.300781 50.253906 82.101562 46.660156 L 83.511719 40.367188 L 85.660156 40.367188 L 85.785156 39.753906 L 83.664062 39.753906 C 84.21875 36.683594 84.953125 35.273438 86.03125 35.273438 C 86.304688 35.273438 86.460938 35.394531 86.460938 35.519531 C 86.460938 35.578125 86.460938 35.609375 86.398438 35.734375 C 86.304688 35.886719 86.273438 35.976562 86.273438 36.132812 C 86.273438 36.59375 86.582031 36.898438 87.011719 36.898438 C 87.441406 36.898438 87.839844 36.5625 87.839844 36.132812 C 87.839844 35.394531 87.105469 34.84375 86.152344 34.84375 C 85.167969 34.84375 84.433594 35.273438 83.726562 36.191406 C 83.113281 36.960938 82.746094 37.882812 82.128906 39.753906 L 80.351562 39.753906 Z M 80.195312 40.367188 "/>
<path fill-rule="nonzero" fill="rgb(50.196078%, 50.196078%, 50.196078%)" fill-opacity="1" d="M 94.296875 52.832031 C 94.296875 52.769531 94.296875 52.742188 93.960938 52.402344 C 91.535156 49.945312 90.890625 46.230469 90.890625 43.222656 C 90.890625 39.816406 91.628906 36.40625 94.050781 33.984375 C 94.296875 33.738281 94.296875 33.707031 94.296875 33.644531 C 94.296875 33.492188 94.238281 33.429688 94.113281 33.429688 C 93.898438 33.429688 92.148438 34.78125 90.980469 37.269531 C 90 39.417969 89.753906 41.597656 89.753906 43.222656 C 89.753906 44.757812 89.96875 47.121094 91.042969 49.363281 C 92.242188 51.757812 93.898438 53.046875 94.113281 53.046875 C 94.238281 53.046875 94.296875 52.984375 94.296875 52.832031 Z M 94.296875 52.832031 "/>
<path fill-rule="nonzero" fill="rgb(50.196078%, 50.196078%, 50.196078%)" fill-opacity="1" d="M 103.273438 45.957031 C 103.121094 46.140625 103.03125 46.261719 102.84375 46.476562 C 102.414062 47.089844 102.171875 47.277344 101.957031 47.277344 C 101.679688 47.277344 101.496094 47.03125 101.339844 46.476562 C 101.308594 46.324219 101.28125 46.203125 101.28125 46.140625 C 100.789062 44.144531 100.574219 43.253906 100.574219 42.976562 C 101.433594 41.441406 102.140625 40.582031 102.476562 40.582031 C 102.601562 40.582031 102.753906 40.644531 102.96875 40.738281 C 103.183594 40.890625 103.335938 40.921875 103.488281 40.921875 C 103.890625 40.921875 104.164062 40.644531 104.164062 40.214844 C 104.164062 39.816406 103.828125 39.507812 103.367188 39.507812 C 102.507812 39.507812 101.769531 40.214844 100.421875 42.300781 L 100.207031 41.226562 C 99.929688 39.878906 99.714844 39.507812 99.160156 39.507812 C 98.730469 39.507812 98.085938 39.664062 96.890625 40.0625 L 96.675781 40.152344 L 96.734375 40.429688 C 97.503906 40.277344 97.65625 40.214844 97.839844 40.214844 C 98.332031 40.214844 98.457031 40.398438 98.730469 41.566406 L 99.285156 43.992188 L 97.6875 46.261719 C 97.289062 46.875 96.890625 47.214844 96.675781 47.214844 C 96.582031 47.214844 96.367188 47.152344 96.183594 47.03125 C 95.9375 46.90625 95.722656 46.847656 95.539062 46.847656 C 95.171875 46.847656 94.894531 47.121094 94.894531 47.519531 C 94.894531 48.042969 95.292969 48.351562 95.875 48.351562 C 96.460938 48.351562 96.707031 48.167969 97.6875 46.96875 C 98.210938 46.355469 98.640625 45.832031 99.4375 44.695312 L 100.050781 47.03125 C 100.296875 48.042969 100.542969 48.351562 101.1875 48.351562 C 101.925781 48.351562 102.414062 47.890625 103.550781 46.109375 Z M 103.273438 45.957031 "/>
<path fill-rule="nonzero" fill="rgb(50.196078%, 50.196078%, 50.196078%)" fill-opacity="1" d="M 109.8125 43.222656 C 109.8125 41.71875 109.597656 39.355469 108.523438 37.113281 C 107.359375 34.71875 105.667969 33.429688 105.484375 33.429688 C 105.363281 33.429688 105.269531 33.523438 105.269531 33.644531 C 105.269531 33.707031 105.269531 33.738281 105.640625 34.105469 C 107.574219 36.039062 108.679688 39.140625 108.679688 43.222656 C 108.679688 46.601562 107.972656 50.039062 105.546875 52.496094 C 105.269531 52.742188 105.269531 52.769531 105.269531 52.832031 C 105.269531 52.957031 105.363281 53.046875 105.484375 53.046875 C 105.667969 53.046875 107.449219 51.695312 108.585938 49.210938 C 109.597656 47.0625 109.8125 44.882812 109.8125 43.222656 Z M 109.8125 43.222656 "/>
<path fill-rule="nonzero" fill="rgb(50.196078%, 50.196078%, 50.196078%)" fill-opacity="1" d="M 129.550781 41.71875 C 129.855469 41.71875 130.226562 41.71875 130.226562 41.351562 C 130.226562 40.953125 129.855469 40.953125 129.582031 40.953125 L 117.855469 40.953125 C 117.578125 40.953125 117.210938 40.953125 117.210938 41.351562 C 117.210938 41.71875 117.578125 41.71875 117.855469 41.71875 Z M 129.582031 45.527344 C 129.855469 45.527344 130.226562 45.527344 130.226562 45.125 C 130.226562 44.757812 129.855469 44.757812 129.550781 44.757812 L 117.855469 44.757812 C 117.578125 44.757812 117.210938 44.757812 117.210938 45.125 C 117.210938 45.527344 117.578125 45.527344 117.855469 45.527344 Z M 129.582031 45.527344 "/>
<path fill-rule="nonzero" fill="rgb(50.196078%, 50.196078%, 50.196078%)" fill-opacity="1" d="M 143.527344 45.957031 C 143.375 46.140625 143.28125 46.261719 143.097656 46.476562 C 142.667969 47.089844 142.421875 47.277344 142.207031 47.277344 C 141.929688 47.277344 141.746094 47.03125 141.59375 46.476562 C 141.5625 46.324219 141.53125 46.203125 141.53125 46.140625 C 141.042969 44.144531 140.828125 43.253906 140.828125 42.976562 C 141.6875 41.441406 142.390625 40.582031 142.730469 40.582031 C 142.851562 40.582031 143.007812 40.644531 143.222656 40.738281 C 143.4375 40.890625 143.589844 40.921875 143.742188 40.921875 C 144.140625 40.921875 144.417969 40.644531 144.417969 40.214844 C 144.417969 39.816406 144.082031 39.507812 143.621094 39.507812 C 142.761719 39.507812 142.023438 40.214844 140.671875 42.300781 L 140.457031 41.226562 C 140.183594 39.878906 139.96875 39.507812 139.414062 39.507812 C 138.984375 39.507812 138.339844 39.664062 137.140625 40.0625 L 136.925781 40.152344 L 136.988281 40.429688 C 137.757812 40.277344 137.910156 40.214844 138.09375 40.214844 C 138.585938 40.214844 138.707031 40.398438 138.984375 41.566406 L 139.535156 43.992188 L 137.941406 46.261719 C 137.542969 46.875 137.140625 47.214844 136.925781 47.214844 C 136.835938 47.214844 136.621094 47.152344 136.4375 47.03125 C 136.191406 46.90625 135.976562 46.847656 135.792969 46.847656 C 135.421875 46.847656 135.148438 47.121094 135.148438 47.519531 C 135.148438 48.042969 135.546875 48.351562 136.128906 48.351562 C 136.710938 48.351562 136.957031 48.167969 137.941406 46.96875 C 138.460938 46.355469 138.890625 45.832031 139.691406 44.695312 L 140.304688 47.03125 C 140.550781 48.042969 140.796875 48.351562 141.441406 48.351562 C 142.175781 48.351562 142.667969 47.890625 143.804688 46.109375 Z M 143.527344 45.957031 "/>
</svg>
