<?xml version="1.0" encoding="UTF-8"?>
<svg xmlns="http://www.w3.org/2000/svg" xmlns:xlink="http://www.w3.org/1999/xlink" width="400" height="412.599644" viewBox="0 0 400 412.599644">
<defs>
<clipPath id="clip-0">
<path clip-rule="nonzero" d="M 175 95 L 375.5 95 L 375.5 240 L 175 240 Z M 175 95 "/>
</clipPath>
<clipPath id="clip-1">
<path clip-rule="nonzero" d="M 24.5 112 L 375.5 112 L 375.5 333.941406 L 24.5 333.941406 Z M 24.5 112 "/>
</clipPath>
<clipPath id="clip-2">
<path clip-rule="nonzero" d="M 24.5 47.398438 L 375.5 47.398438 L 375.5 398.402344 L 24.5 398.402344 Z M 24.5 47.398438 "/>
</clipPath>
</defs>
<path fill="none" stroke-width="0.09962" stroke-linecap="butt" stroke-linejoin="miter" stroke="rgb(69.803922%, 69.803922%, 69.803922%)" stroke-opacity="1" stroke-dasharray="2.98883 2.98883" stroke-miterlimit="10" d="M -0.000765076 101.023664 L -0.000765076 288.117199 M 31.181491 101.023664 L 31.181491 288.117199 M 62.365829 101.023664 L 62.365829 288.117199 M 124.728258 101.023664 L 124.728258 288.117199 M 155.912596 101.023664 L 155.912596 288.117199 M 187.09277 101.023664 L 187.09277 288.117199 " transform="matrix(1.876067, 0, 0, -1.876067, 24.501435, 587.925596)"/>
<path fill="none" stroke-width="0.09962" stroke-linecap="butt" stroke-linejoin="miter" stroke="rgb(69.803922%, 69.803922%, 69.803922%)" stroke-opacity="1" stroke-dasharray="2.98883 2.98883" stroke-miterlimit="10" d="M -0.000765076 101.023664 L 187.09277 101.023664 M -0.000765076 132.201755 L 187.09277 132.201755 M -0.000765076 163.386093 L 187.09277 163.386093 M -0.000765076 225.748523 L 187.09277 225.748523 M -0.000765076 256.932861 L 187.09277 256.932861 M -0.000765076 288.117199 L 187.09277 288.117199 " transform="matrix(1.876067, 0, 0, -1.876067, 24.501435, 587.925596)"/>
<path fill="none" stroke-width="0.19925" stroke-linecap="butt" stroke-linejoin="miter" stroke="rgb(50.196078%, 50.196078%, 50.196078%)" stroke-opacity="1" stroke-miterlimit="10" d="M -0.000765076 192.440393 L -0.000765076 196.694223 M 31.181491 192.440393 L 31.181491 196.694223 M 62.365829 192.440393 L 62.365829 196.694223 M 124.728258 192.440393 L 124.728258 196.694223 M 155.912596 192.440393 L 155.912596 196.694223 M 187.09277 192.440393 L 187.09277 196.694223 " transform="matrix(1.876067, 0, 0, -1.876067, 24.501435, 587.925596)"/>
<path fill="none" stroke-width="0.19925" stroke-linecap="butt" stroke-linejoin="miter" stroke="rgb(50.196078%, 50.196078%, 50.196078%)" stroke-opacity="1" stroke-miterlimit="10" d="M 91.420129 101.023664 L 95.673958 101.023664 M 91.420129 132.201755 L 95.673958 132.201755 M 91.420129 163.386093 L 95.673958 163.386093 M 91.420129 225.748523 L 95.673958 225.748523 M 91.420129 256.932861 L 95.673958 256.932861 M 91.420129 288.117199 L 95.673958 288.117199 " transform="matrix(1.876067, 0, 0, -1.876067, 24.501435, 587.925596)"/>
<path fill="none" stroke-width="0.3985" stroke-linecap="butt" stroke-linejoin="miter" stroke="rgb(50.196078%, 50.196078%, 50.196078%)" stroke-opacity="1" stroke-miterlimit="10" d="M -0.000765076 194.570431 L 185.100154 194.570431 " transform="matrix(1.876067, 0, 0, -1.876067, 24.501435, 587.925596)"/>
<path fill-rule="nonzero" fill="rgb(50.196078%, 50.196078%, 50.196078%)" fill-opacity="1" d="M 375.5 222.898438 L 369.519531 219.910156 L 371.761719 222.898438 L 369.519531 225.890625 "/>
<path fill="none" stroke-width="0.3985" stroke-linecap="butt" stroke-linejoin="miter" stroke="rgb(50.196078%, 50.196078%, 50.196078%)" stroke-opacity="1" stroke-miterlimit="10" d="M 93.546002 101.023664 L 93.546002 286.124583 " transform="matrix(1.876067, 0, 0, -1.876067, 24.501435, 587.925596)"/>
<path fill-rule="nonzero" fill="rgb(50.196078%, 50.196078%, 50.196078%)" fill-opacity="1" d="M 200 47.398438 L 197.007812 53.378906 L 200 51.136719 L 202.988281 53.378906 "/>
<path fill-rule="nonzero" fill="rgb(50.196078%, 50.196078%, 50.196078%)" fill-opacity="1" d="M 24.878906 241.691406 C 25.203125 241.691406 25.554688 241.691406 25.554688 241.3125 C 25.554688 240.960938 25.203125 240.960938 24.878906 240.960938 L 14.765625 240.960938 C 14.445312 240.960938 14.121094 240.960938 14.121094 241.3125 C 14.121094 241.691406 14.445312 241.691406 14.765625 241.691406 Z M 24.878906 241.691406 "/>
<path fill-rule="nonzero" fill="rgb(50.196078%, 50.196078%, 50.196078%)" fill-opacity="1" d="M 29.964844 239.816406 C 31.046875 239.816406 31.488281 239.875 31.925781 240.019531 C 33.101562 240.460938 33.832031 241.515625 33.832031 242.804688 C 33.832031 244.359375 32.746094 245.589844 31.371094 245.589844 C 30.871094 245.589844 30.492188 245.445312 29.816406 245.003906 C 29.230469 244.683594 28.9375 244.535156 28.613281 244.535156 C 28.175781 244.535156 27.882812 244.800781 27.882812 245.210938 C 27.882812 245.855469 28.703125 246.265625 30.023438 246.265625 C 31.457031 246.265625 32.921875 245.765625 33.804688 245.003906 C 34.683594 244.242188 35.179688 243.15625 35.179688 241.898438 C 35.179688 240.960938 34.859375 240.078125 34.332031 239.492188 C 33.949219 239.082031 33.597656 238.847656 32.777344 238.496094 C 34.066406 237.617188 34.535156 236.941406 34.535156 235.917969 C 34.535156 234.394531 33.335938 233.367188 31.605469 233.367188 C 30.667969 233.367188 29.847656 233.691406 29.171875 234.277344 C 28.613281 234.773438 28.351562 235.273438 27.941406 236.386719 L 28.203125 236.472656 C 28.964844 235.097656 29.816406 234.480469 30.988281 234.480469 C 32.21875 234.480469 33.070312 235.300781 33.070312 236.472656 C 33.070312 237.148438 32.777344 237.824219 32.308594 238.292969 C 31.75 238.847656 31.222656 239.140625 29.964844 239.582031 Z M 29.964844 239.816406 "/>
<path fill-rule="nonzero" fill="rgb(50.196078%, 50.196078%, 50.196078%)" fill-opacity="1" d="M 83.378906 241.691406 C 83.703125 241.691406 84.054688 241.691406 84.054688 241.3125 C 84.054688 240.960938 83.703125 240.960938 83.378906 240.960938 L 73.265625 240.960938 C 72.945312 240.960938 72.621094 240.960938 72.621094 241.3125 C 72.621094 241.691406 72.945312 241.691406 73.265625 241.691406 Z M 83.378906 241.691406 "/>
<path fill-rule="nonzero" fill="rgb(50.196078%, 50.196078%, 50.196078%)" fill-opacity="1" d="M 94.472656 243.449219 L 94.238281 243.332031 C 93.535156 244.417969 93.300781 244.59375 92.449219 244.59375 L 87.992188 244.59375 L 91.128906 241.28125 C 92.800781 239.550781 93.535156 238.117188 93.535156 236.679688 C 93.535156 234.804688 92.007812 233.367188 90.046875 233.367188 C 89.019531 233.367188 88.050781 233.777344 87.378906 234.511719 C 86.761719 235.15625 86.5 235.742188 86.175781 237.089844 L 86.558594 237.179688 C 87.320312 235.332031 87.992188 234.746094 89.285156 234.746094 C 90.835938 234.746094 91.921875 235.800781 91.921875 237.382812 C 91.921875 238.847656 91.042969 240.578125 89.488281 242.25 L 86.148438 245.765625 L 86.148438 246 L 93.445312 246 Z M 94.472656 243.449219 "/>
<path fill-rule="nonzero" fill="rgb(50.196078%, 50.196078%, 50.196078%)" fill-opacity="1" d="M 141.878906 241.691406 C 142.199219 241.691406 142.550781 241.691406 142.550781 241.3125 C 142.550781 240.960938 142.199219 240.960938 141.878906 240.960938 L 131.765625 240.960938 C 131.441406 240.960938 131.121094 240.960938 131.121094 241.3125 C 131.121094 241.691406 131.441406 241.691406 131.765625 241.691406 Z M 141.878906 241.691406 "/>
<path fill-rule="nonzero" fill="rgb(50.196078%, 50.196078%, 50.196078%)" fill-opacity="1" d="M 149.542969 233.367188 L 146.171875 235.066406 L 146.171875 235.332031 C 146.375 235.242188 146.582031 235.15625 146.667969 235.125 C 147.019531 234.980469 147.3125 234.921875 147.519531 234.921875 C 147.898438 234.921875 148.074219 235.183594 148.074219 235.800781 L 148.074219 244.273438 C 148.074219 244.886719 147.929688 245.296875 147.636719 245.472656 C 147.34375 245.648438 147.078125 245.707031 146.289062 245.707031 L 146.289062 246 L 151.445312 246 L 151.445312 245.707031 C 149.980469 245.707031 149.6875 245.503906 149.6875 244.625 L 149.6875 233.394531 Z M 149.542969 233.367188 "/>
<path fill-rule="nonzero" fill="rgb(50.196078%, 50.196078%, 50.196078%)" fill-opacity="1" d="M 259.277344 233.367188 L 255.90625 235.066406 L 255.90625 235.332031 C 256.113281 235.242188 256.316406 235.15625 256.40625 235.125 C 256.757812 234.980469 257.050781 234.921875 257.257812 234.921875 C 257.636719 234.921875 257.8125 235.183594 257.8125 235.800781 L 257.8125 244.273438 C 257.8125 244.886719 257.667969 245.296875 257.375 245.472656 C 257.078125 245.648438 256.816406 245.707031 256.023438 245.707031 L 256.023438 246 L 261.183594 246 L 261.183594 245.707031 C 259.71875 245.707031 259.425781 245.503906 259.425781 244.625 L 259.425781 233.394531 Z M 259.277344 233.367188 "/>
<path fill-rule="nonzero" fill="rgb(50.196078%, 50.196078%, 50.196078%)" fill-opacity="1" d="M 321.207031 243.449219 L 320.972656 243.332031 C 320.269531 244.417969 320.035156 244.59375 319.183594 244.59375 L 314.730469 244.59375 L 317.867188 241.28125 C 319.535156 239.550781 320.269531 238.117188 320.269531 236.679688 C 320.269531 234.804688 318.746094 233.367188 316.78125 233.367188 C 315.753906 233.367188 314.789062 233.777344 314.113281 234.511719 C 313.5 235.15625 313.234375 235.742188 312.910156 237.089844 L 313.292969 237.179688 C 314.054688 235.332031 314.730469 234.746094 316.019531 234.746094 C 317.574219 234.746094 318.65625 235.800781 318.65625 237.382812 C 318.65625 238.847656 317.777344 240.578125 316.222656 242.25 L 312.882812 245.765625 L 312.882812 246 L 320.183594 246 Z M 321.207031 243.449219 "/>
<path fill-rule="nonzero" fill="rgb(50.196078%, 50.196078%, 50.196078%)" fill-opacity="1" d="M 373.699219 239.816406 C 374.78125 239.816406 375.222656 239.875 375.660156 240.019531 C 376.835938 240.460938 377.566406 241.515625 377.566406 242.804688 C 377.566406 244.359375 376.484375 245.589844 375.105469 245.589844 C 374.605469 245.589844 374.226562 245.445312 373.550781 245.003906 C 372.964844 244.683594 372.671875 244.535156 372.347656 244.535156 C 371.910156 244.535156 371.617188 244.800781 371.617188 245.210938 C 371.617188 245.855469 372.4375 246.265625 373.757812 246.265625 C 375.191406 246.265625 376.660156 245.765625 377.539062 245.003906 C 378.417969 244.242188 378.914062 243.15625 378.914062 241.898438 C 378.914062 240.960938 378.59375 240.078125 378.066406 239.492188 C 377.683594 239.082031 377.332031 238.847656 376.511719 238.496094 C 377.800781 237.617188 378.269531 236.941406 378.269531 235.917969 C 378.269531 234.394531 377.070312 233.367188 375.339844 233.367188 C 374.402344 233.367188 373.582031 233.691406 372.90625 234.277344 C 372.347656 234.773438 372.085938 235.273438 371.675781 236.386719 L 371.9375 236.472656 C 372.703125 235.097656 373.550781 234.480469 374.722656 234.480469 C 375.957031 234.480469 376.804688 235.300781 376.804688 236.472656 C 376.804688 237.148438 376.511719 237.824219 376.042969 238.292969 C 375.484375 238.847656 374.957031 239.140625 373.699219 239.582031 Z M 373.699219 239.816406 "/>
<path fill-rule="nonzero" fill="rgb(50.196078%, 50.196078%, 50.196078%)" fill-opacity="1" d="M 177.851562 399.574219 C 178.175781 399.574219 178.527344 399.574219 178.527344 399.191406 C 178.527344 398.839844 178.175781 398.839844 177.851562 398.839844 L 167.738281 398.839844 C 167.417969 398.839844 167.09375 398.839844 167.09375 399.191406 C 167.09375 399.574219 167.417969 399.574219 167.738281 399.574219 Z M 177.851562 399.574219 "/>
<path fill-rule="nonzero" fill="rgb(50.196078%, 50.196078%, 50.196078%)" fill-opacity="1" d="M 182.9375 397.695312 C 184.019531 397.695312 184.460938 397.753906 184.898438 397.902344 C 186.074219 398.339844 186.804688 399.398438 186.804688 400.6875 C 186.804688 402.238281 185.71875 403.472656 184.34375 403.472656 C 183.84375 403.472656 183.464844 403.324219 182.789062 402.886719 C 182.203125 402.5625 181.910156 402.414062 181.585938 402.414062 C 181.148438 402.414062 180.855469 402.679688 180.855469 403.089844 C 180.855469 403.734375 181.675781 404.144531 182.996094 404.144531 C 184.429688 404.144531 185.894531 403.648438 186.777344 402.886719 C 187.65625 402.121094 188.152344 401.039062 188.152344 399.777344 C 188.152344 398.839844 187.832031 397.960938 187.304688 397.375 C 186.921875 396.964844 186.570312 396.730469 185.75 396.378906 C 187.039062 395.496094 187.507812 394.824219 187.507812 393.796875 C 187.507812 392.273438 186.308594 391.246094 184.578125 391.246094 C 183.640625 391.246094 182.820312 391.570312 182.144531 392.15625 C 181.585938 392.65625 181.324219 393.152344 180.914062 394.265625 L 181.175781 394.355469 C 181.9375 392.976562 182.789062 392.363281 183.960938 392.363281 C 185.191406 392.363281 186.042969 393.183594 186.042969 394.355469 C 186.042969 395.027344 185.75 395.703125 185.28125 396.171875 C 184.722656 396.730469 184.195312 397.023438 182.9375 397.460938 Z M 182.9375 397.695312 "/>
<path fill-rule="nonzero" fill="rgb(50.196078%, 50.196078%, 50.196078%)" fill-opacity="1" d="M 177.851562 341.074219 C 178.175781 341.074219 178.527344 341.074219 178.527344 340.691406 C 178.527344 340.339844 178.175781 340.339844 177.851562 340.339844 L 167.738281 340.339844 C 167.417969 340.339844 167.09375 340.339844 167.09375 340.691406 C 167.09375 341.074219 167.417969 341.074219 167.738281 341.074219 Z M 177.851562 341.074219 "/>
<path fill-rule="nonzero" fill="rgb(50.196078%, 50.196078%, 50.196078%)" fill-opacity="1" d="M 188.945312 342.832031 L 188.710938 342.714844 C 188.007812 343.800781 187.773438 343.976562 186.921875 343.976562 L 182.464844 343.976562 L 185.601562 340.664062 C 187.273438 338.933594 188.007812 337.496094 188.007812 336.058594 C 188.007812 334.183594 186.484375 332.746094 184.519531 332.746094 C 183.492188 332.746094 182.523438 333.160156 181.851562 333.890625 C 181.234375 334.535156 180.972656 335.121094 180.648438 336.472656 L 181.03125 336.558594 C 181.792969 334.710938 182.464844 334.125 183.757812 334.125 C 185.308594 334.125 186.394531 335.179688 186.394531 336.765625 C 186.394531 338.230469 185.515625 339.960938 183.960938 341.628906 L 180.621094 345.148438 L 180.621094 345.382812 L 187.917969 345.382812 Z M 188.945312 342.832031 "/>
<path fill-rule="nonzero" fill="rgb(50.196078%, 50.196078%, 50.196078%)" fill-opacity="1" d="M 177.851562 282.574219 C 178.175781 282.574219 178.527344 282.574219 178.527344 282.191406 C 178.527344 281.839844 178.175781 281.839844 177.851562 281.839844 L 167.738281 281.839844 C 167.417969 281.839844 167.09375 281.839844 167.09375 282.191406 C 167.09375 282.574219 167.417969 282.574219 167.738281 282.574219 Z M 177.851562 282.574219 "/>
<path fill-rule="nonzero" fill="rgb(50.196078%, 50.196078%, 50.196078%)" fill-opacity="1" d="M 185.515625 274.25 L 182.144531 275.949219 L 182.144531 276.210938 C 182.347656 276.125 182.554688 276.035156 182.644531 276.007812 C 182.996094 275.859375 183.289062 275.800781 183.492188 275.800781 C 183.875 275.800781 184.050781 276.066406 184.050781 276.679688 L 184.050781 285.152344 C 184.050781 285.769531 183.902344 286.179688 183.609375 286.355469 C 183.316406 286.53125 183.054688 286.589844 182.261719 286.589844 L 182.261719 286.882812 L 187.421875 286.882812 L 187.421875 286.589844 C 185.953125 286.589844 185.660156 286.382812 185.660156 285.503906 L 185.660156 274.277344 Z M 185.515625 274.25 "/>
<path fill-rule="nonzero" fill="rgb(50.196078%, 50.196078%, 50.196078%)" fill-opacity="1" d="M 185.515625 158.027344 L 182.144531 159.726562 L 182.144531 159.988281 C 182.347656 159.902344 182.554688 159.8125 182.644531 159.785156 C 182.996094 159.636719 183.289062 159.578125 183.492188 159.578125 C 183.875 159.578125 184.050781 159.84375 184.050781 160.460938 L 184.050781 168.929688 C 184.050781 169.546875 183.902344 169.957031 183.609375 170.132812 C 183.316406 170.308594 183.054688 170.367188 182.261719 170.367188 L 182.261719 170.660156 L 187.421875 170.660156 L 187.421875 170.367188 C 185.953125 170.367188 185.660156 170.160156 185.660156 169.28125 L 185.660156 158.054688 Z M 185.515625 158.027344 "/>
<path fill-rule="nonzero" fill="rgb(50.196078%, 50.196078%, 50.196078%)" fill-opacity="1" d="M 188.945312 109.609375 L 188.710938 109.492188 C 188.007812 110.578125 187.773438 110.753906 186.921875 110.753906 L 182.464844 110.753906 L 185.601562 107.441406 C 187.273438 105.710938 188.007812 104.273438 188.007812 102.839844 C 188.007812 100.960938 186.484375 99.527344 184.519531 99.527344 C 183.492188 99.527344 182.523438 99.9375 181.851562 100.667969 C 181.234375 101.316406 180.972656 101.902344 180.648438 103.25 L 181.03125 103.335938 C 181.792969 101.492188 182.464844 100.902344 183.757812 100.902344 C 185.308594 100.902344 186.394531 101.960938 186.394531 103.542969 C 186.394531 105.007812 185.515625 106.738281 183.960938 108.410156 L 180.621094 111.925781 L 180.621094 112.160156 L 187.917969 112.160156 Z M 188.945312 109.609375 "/>
<path fill-rule="nonzero" fill="rgb(50.196078%, 50.196078%, 50.196078%)" fill-opacity="1" d="M 182.9375 47.332031 C 184.019531 47.332031 184.460938 47.390625 184.898438 47.535156 C 186.074219 47.976562 186.804688 49.03125 186.804688 50.320312 C 186.804688 51.875 185.71875 53.105469 184.34375 53.105469 C 183.84375 53.105469 183.464844 52.960938 182.789062 52.519531 C 182.203125 52.199219 181.910156 52.050781 181.585938 52.050781 C 181.148438 52.050781 180.855469 52.316406 180.855469 52.726562 C 180.855469 53.371094 181.675781 53.78125 182.996094 53.78125 C 184.429688 53.78125 185.894531 53.28125 186.777344 52.519531 C 187.65625 51.757812 188.152344 50.671875 188.152344 49.414062 C 188.152344 48.476562 187.832031 47.59375 187.304688 47.007812 C 186.921875 46.597656 186.570312 46.363281 185.75 46.011719 C 187.039062 45.132812 187.507812 44.457031 187.507812 43.433594 C 187.507812 41.910156 186.308594 40.882812 184.578125 40.882812 C 183.640625 40.882812 182.820312 41.203125 182.144531 41.792969 C 181.585938 42.289062 181.324219 42.789062 180.914062 43.902344 L 181.175781 43.988281 C 181.9375 42.613281 182.789062 41.996094 183.960938 41.996094 C 185.191406 41.996094 186.042969 42.816406 186.042969 43.988281 C 186.042969 44.664062 185.75 45.339844 185.28125 45.808594 C 184.722656 46.363281 184.195312 46.65625 182.9375 47.097656 Z M 182.9375 47.332031 "/>
<g clip-path="url(#clip-0)">
<path fill="none" stroke-width="0.99628" stroke-linecap="butt" stroke-linejoin="miter" stroke="rgb(6.666667%, 52.941176%, 87.058824%)" stroke-opacity="1" stroke-miterlimit="10" d="M 94.491298 199.992346 L 96.381889 203.967167 L 98.268315 206.703111 L 100.158906 208.928927 L 102.049497 210.85075 L 103.940088 212.568523 L 105.830678 214.140545 L 107.717105 215.58972 L 109.607696 216.949363 L 111.498287 218.22572 L 113.388878 219.439613 L 115.275304 220.601452 L 117.165895 221.707073 L 119.056486 222.773133 L 120.947077 223.799632 L 122.837667 224.788652 L 124.726176 225.748523 L 126.616767 226.679243 L 128.507358 227.584978 L 130.397949 228.463644 L 132.288539 229.323572 L 134.174966 230.158513 L 136.065557 230.97888 L 137.956148 231.780507 L 139.846738 232.561313 L 141.733165 233.331708 L 143.623756 234.085445 L 145.514347 234.822526 L 147.404937 235.549196 L 149.295528 236.261291 L 151.181955 236.960892 L 153.072546 237.652166 L 154.963136 238.330946 L 156.853727 238.999316 L 158.744318 239.655193 L 160.630745 240.304823 L 162.521335 240.944042 L 164.411926 241.577016 L 166.302517 242.197496 L 168.193108 242.81173 L 170.081617 243.421799 L 171.972208 244.019376 L 173.862798 244.612788 L 175.753389 245.197872 L 177.639816 245.776709 L 179.530407 246.347218 L 181.420997 246.913562 L 183.311588 247.471578 L 185.202179 248.027512 L 187.088606 248.577199 " transform="matrix(1.876067, 0, 0, -1.876067, 24.501435, 587.925596)"/>
</g>
<g clip-path="url(#clip-1)">
<path fill="none" stroke-width="0.99628" stroke-linecap="butt" stroke-linejoin="miter" stroke="rgb(100%, 12.941176%, 32.156863%)" stroke-opacity="1" stroke-miterlimit="10" d="M -0.000765076 149.596024 L 1.889826 149.9021 L 3.780417 150.210258 L 7.561598 150.843231 L 9.448025 151.168046 L 11.338616 151.490779 L 15.119797 152.163313 L 17.006224 152.506867 L 18.896815 152.854586 L 20.787405 153.210634 L 22.677996 153.572927 L 24.568587 153.941468 L 26.455014 154.316254 L 28.345604 154.695205 L 30.236195 155.084567 L 32.126786 155.48434 L 34.017377 155.890359 L 35.903804 156.300542 L 37.796477 156.7253 L 39.687067 157.156305 L 41.577658 157.599803 L 43.464085 158.053711 L 45.354676 158.513866 L 47.245266 158.994842 L 49.135857 159.488311 L 51.026448 159.992191 L 52.912875 160.510646 L 54.803465 161.045758 L 56.694056 161.601692 L 58.584647 162.174283 L 60.475238 162.767695 L 62.361664 163.386093 L 64.252255 164.023231 L 66.142846 164.693683 L 68.033437 165.397449 L 69.924028 166.136611 L 71.810454 166.917417 L 73.701045 167.741948 L 75.591636 168.620615 L 77.482227 169.56591 L 79.368653 170.586163 L 81.261326 171.706359 L 83.151917 172.945237 L 85.042508 174.342359 L 86.933099 175.968517 L 88.819525 177.940311 L 90.710116 180.542997 L 92.600707 184.838469 L 94.491298 204.283654 L 96.381889 208.589537 L 98.268315 211.190141 L 100.158906 213.168182 L 102.049497 214.792257 L 103.940088 216.191461 L 105.830678 217.428257 L 107.717105 218.546371 L 109.607696 219.568706 L 111.498287 220.511919 L 113.388878 221.390586 L 115.275304 222.217199 L 117.165895 223.000087 L 119.056486 223.737167 L 120.947077 224.440934 L 122.837667 225.113467 L 124.726176 225.752687 L 126.616767 226.366921 L 128.507358 226.960333 L 130.397949 227.535006 L 132.288539 228.088858 L 134.174966 228.62397 L 136.065557 229.144507 L 137.956148 229.648387 L 139.846738 230.139774 L 141.733165 230.616586 L 143.623756 231.080905 L 145.514347 231.538978 L 147.404937 231.980393 L 149.295528 232.41348 L 151.181955 232.836156 L 153.072546 233.248422 L 154.963136 233.652358 L 156.853727 234.050049 L 158.744318 234.441493 L 160.630745 234.820444 L 162.521335 235.19523 L 164.411926 235.561689 L 166.302517 235.923982 L 168.193108 236.28003 L 170.081617 236.627749 L 171.972208 236.971303 L 173.862798 237.310693 L 175.753389 237.643837 L 177.639816 237.968652 L 179.530407 238.291385 L 183.311588 238.924358 L 185.202179 239.234599 L 187.088606 239.538592 " transform="matrix(1.876067, 0, 0, -1.876067, 24.501435, 587.925596)"/>
</g>
<g clip-path="url(#clip-2)">
<path fill="none" stroke-width="0.99628" stroke-linecap="butt" stroke-linejoin="miter" stroke="rgb(1.176471%, 74.901961%, 23.921569%)" stroke-opacity="1" stroke-miterlimit="10" d="M -0.000765076 -0.0000989076 L 1.889826 6.519108 L 3.780417 12.927961 L 5.671007 19.261857 L 7.561598 25.499974 L 9.448025 31.64023 L 11.338616 37.699282 L 13.229206 43.666719 L 15.119797 49.538378 L 17.006224 55.312176 L 18.896815 60.988113 L 20.787405 66.580763 L 22.677996 72.073471 L 24.568587 77.472482 L 26.455014 82.769468 L 28.345604 87.972757 L 30.236195 93.065692 L 32.126786 98.091999 L 34.017377 102.98713 L 35.903804 107.757332 L 37.796477 112.456741 L 39.687067 117.041632 L 41.577658 121.522416 L 43.464085 125.89701 L 45.354676 130.155003 L 47.245266 134.306807 L 49.135857 138.354504 L 51.026448 142.283518 L 52.912875 146.095932 L 54.803465 149.79591 L 56.694056 153.375123 L 58.584647 156.835654 L 60.475238 160.17542 L 62.361664 163.381929 L 64.252255 166.463509 L 66.142846 169.424324 L 68.033437 172.245635 L 69.924028 174.933689 L 71.810454 177.484321 L 73.701045 179.885038 L 75.591636 182.140005 L 77.482227 184.240893 L 79.368653 186.187701 L 81.261326 187.963774 L 83.151917 189.573275 L 85.042508 190.991218 L 86.933099 192.213439 L 88.819525 193.225363 L 90.710116 193.995758 L 92.600707 194.476735 L 94.491298 194.659964 L 96.381889 195.138858 L 98.268315 195.909253 L 100.158906 196.921177 L 102.049497 198.143398 L 103.940088 199.561341 L 105.830678 201.162513 L 107.717105 202.944832 L 109.607696 204.889559 L 111.498287 206.990447 L 113.388878 209.245414 L 115.275304 211.652377 L 117.165895 214.194681 L 119.056486 216.886899 L 120.947077 219.710292 L 122.837667 222.662779 L 124.726176 225.752687 L 126.616767 228.957114 L 128.507358 232.29688 L 130.397949 235.753246 L 132.288539 239.334542 L 134.174966 243.030355 L 136.065557 246.846933 L 137.956148 250.775948 L 139.846738 254.81948 L 141.733165 258.96712 L 143.623756 263.233442 L 145.514347 267.608036 L 147.404937 272.092984 L 149.295528 276.6633 L 151.181955 281.350216 L 153.072546 286.151651 L 154.963136 291.050946 L 156.853727 296.062677 L 158.744318 301.159777 L 160.630745 306.363066 L 162.521335 311.655887 L 164.411926 317.054898 L 166.302517 322.545524 L 168.193108 328.136093 L 170.081617 333.816194 L 171.972208 339.600402 L 173.862798 345.467897 L 175.753389 351.424924 L 177.639816 357.475647 L 179.530407 363.63256 L 181.420997 369.862349 L 183.311588 376.198326 L 185.202179 382.609262 L 187.088606 389.101401 " transform="matrix(1.876067, 0, 0, -1.876067, 24.501435, 587.925596)"/>
</g>
<path fill="none" stroke-width="0.3985" stroke-linecap="butt" stroke-linejoin="miter" stroke="rgb(50.196078%, 50.196078%, 50.196078%)" stroke-opacity="1" stroke-miterlimit="10" d="M -12.360399 293.924311 L 199.456568 293.924311 L 199.456568 312.686551 L -12.360399 312.686551 Z M -12.360399 293.924311 " transform="matrix(1.876067, 0, 0, -1.876067, 24.501435, 587.925596)"/>
<path fill="none" stroke-width="0.99628" stroke-linecap="butt" stroke-linejoin="miter" stroke="rgb(6.666667%, 52.941176%, 87.058824%)" stroke-opacity="1" stroke-miterlimit="10" d="M 0.00120075 0.00140177 L 17.010272 0.00140177 " transform="matrix(1.876067, 0, 0, -1.876067, 7.853216, 18.90888)"/>
<path fill-rule="nonzero" fill="rgb(50.196078%, 50.196078%, 50.196078%)" fill-opacity="1" d="M 47.882812 18.808594 L 49.582031 18.808594 L 47.941406 26.664062 C 47.53125 28.6875 46.914062 29.714844 46.125 29.714844 C 45.890625 29.714844 45.742188 29.566406 45.742188 29.390625 C 45.742188 29.363281 45.773438 29.304688 45.832031 29.1875 C 45.890625 29.097656 45.917969 29.011719 45.917969 28.894531 C 45.917969 28.511719 45.566406 28.191406 45.183594 28.191406 C 44.773438 28.191406 44.480469 28.511719 44.480469 28.953125 C 44.480469 29.597656 45.15625 30.09375 45.976562 30.09375 C 47.617188 30.09375 48.9375 28.25 49.699219 24.820312 L 51.046875 18.808594 L 53.101562 18.808594 L 53.21875 18.222656 L 51.195312 18.222656 C 51.722656 15.292969 52.425781 13.941406 53.453125 13.941406 C 53.714844 13.941406 53.863281 14.058594 53.863281 14.175781 C 53.863281 14.234375 53.863281 14.265625 53.804688 14.382812 C 53.714844 14.53125 53.6875 14.617188 53.6875 14.765625 C 53.6875 15.203125 53.980469 15.496094 54.390625 15.496094 C 54.800781 15.496094 55.179688 15.175781 55.179688 14.765625 C 55.179688 14.058594 54.476562 13.53125 53.570312 13.53125 C 52.632812 13.53125 51.925781 13.941406 51.253906 14.824219 C 50.667969 15.554688 50.316406 16.433594 49.730469 18.222656 L 48.027344 18.222656 Z M 47.882812 18.808594 "/>
<path fill-rule="nonzero" fill="rgb(50.196078%, 50.196078%, 50.196078%)" fill-opacity="1" d="M 61.347656 30.710938 C 61.347656 30.652344 61.347656 30.621094 61.023438 30.300781 C 58.707031 27.953125 58.09375 24.40625 58.09375 21.535156 C 58.09375 18.28125 58.796875 15.027344 61.113281 12.710938 C 61.347656 12.476562 61.347656 12.449219 61.347656 12.390625 C 61.347656 12.242188 61.289062 12.183594 61.171875 12.183594 C 60.964844 12.183594 59.296875 13.472656 58.179688 15.847656 C 57.242188 17.902344 57.007812 19.980469 57.007812 21.535156 C 57.007812 23 57.214844 25.257812 58.238281 27.398438 C 59.382812 29.683594 60.964844 30.914062 61.171875 30.914062 C 61.289062 30.914062 61.347656 30.855469 61.347656 30.710938 Z M 61.347656 30.710938 "/>
<path fill-rule="nonzero" fill="rgb(50.196078%, 50.196078%, 50.196078%)" fill-opacity="1" d="M 69.917969 24.144531 C 69.769531 24.320312 69.683594 24.4375 69.507812 24.644531 C 69.097656 25.230469 68.863281 25.40625 68.65625 25.40625 C 68.394531 25.40625 68.21875 25.171875 68.070312 24.644531 C 68.042969 24.496094 68.011719 24.378906 68.011719 24.320312 C 67.542969 22.414062 67.335938 21.566406 67.335938 21.300781 C 68.160156 19.835938 68.832031 19.015625 69.15625 19.015625 C 69.273438 19.015625 69.417969 19.074219 69.625 19.160156 C 69.828125 19.308594 69.976562 19.335938 70.121094 19.335938 C 70.503906 19.335938 70.765625 19.074219 70.765625 18.664062 C 70.765625 18.28125 70.445312 17.988281 70.003906 17.988281 C 69.183594 17.988281 68.480469 18.664062 67.191406 20.65625 L 66.984375 19.628906 C 66.722656 18.339844 66.515625 17.988281 65.988281 17.988281 C 65.578125 17.988281 64.964844 18.136719 63.820312 18.515625 L 63.613281 18.605469 L 63.671875 18.867188 C 64.40625 18.722656 64.554688 18.664062 64.730469 18.664062 C 65.199219 18.664062 65.316406 18.839844 65.578125 19.953125 L 66.105469 22.269531 L 64.582031 24.4375 C 64.199219 25.023438 63.820312 25.347656 63.613281 25.347656 C 63.527344 25.347656 63.320312 25.289062 63.144531 25.171875 C 62.910156 25.054688 62.707031 24.996094 62.53125 24.996094 C 62.179688 24.996094 61.914062 25.257812 61.914062 25.640625 C 61.914062 26.136719 62.296875 26.429688 62.851562 26.429688 C 63.410156 26.429688 63.644531 26.253906 64.582031 25.113281 C 65.082031 24.523438 65.492188 24.027344 66.253906 22.941406 L 66.839844 25.171875 C 67.074219 26.136719 67.308594 26.429688 67.925781 26.429688 C 68.628906 26.429688 69.097656 25.992188 70.179688 24.289062 Z M 69.917969 24.144531 "/>
<path fill-rule="nonzero" fill="rgb(50.196078%, 50.196078%, 50.196078%)" fill-opacity="1" d="M 76.164062 21.535156 C 76.164062 20.097656 75.957031 17.84375 74.929688 15.703125 C 73.816406 13.414062 72.207031 12.183594 72.03125 12.183594 C 71.914062 12.183594 71.824219 12.273438 71.824219 12.390625 C 71.824219 12.449219 71.824219 12.476562 72.175781 12.828125 C 74.023438 14.675781 75.078125 17.636719 75.078125 21.535156 C 75.078125 24.761719 74.402344 28.042969 72.089844 30.386719 C 71.824219 30.621094 71.824219 30.652344 71.824219 30.710938 C 71.824219 30.828125 71.914062 30.914062 72.03125 30.914062 C 72.207031 30.914062 73.90625 29.625 74.988281 27.25 C 75.957031 25.199219 76.164062 23.117188 76.164062 21.535156 Z M 76.164062 21.535156 "/>
<path fill-rule="nonzero" fill="rgb(50.196078%, 50.196078%, 50.196078%)" fill-opacity="1" d="M 95.007812 20.097656 C 95.300781 20.097656 95.652344 20.097656 95.652344 19.746094 C 95.652344 19.367188 95.300781 19.367188 95.035156 19.367188 L 83.839844 19.367188 C 83.574219 19.367188 83.222656 19.367188 83.222656 19.746094 C 83.222656 20.097656 83.574219 20.097656 83.839844 20.097656 Z M 95.035156 23.734375 C 95.300781 23.734375 95.652344 23.734375 95.652344 23.351562 C 95.652344 23 95.300781 23 95.007812 23 L 83.839844 23 C 83.574219 23 83.222656 23 83.222656 23.351562 C 83.222656 23.734375 83.574219 23.734375 83.839844 23.734375 Z M 95.035156 23.734375 "/>
<path fill-rule="nonzero" fill="rgb(50.196078%, 50.196078%, 50.196078%)" fill-opacity="1" d="M 108.792969 31.9375 C 109.351562 31.9375 109.378906 31.90625 109.554688 31.554688 L 119.785156 10.214844 C 119.933594 9.953125 119.933594 9.921875 119.933594 9.863281 C 119.933594 9.660156 119.785156 9.484375 119.550781 9.484375 C 119.316406 9.484375 119.230469 9.660156 119.140625 9.863281 L 109.496094 30.003906 L 105.511719 20.710938 L 102.902344 22.734375 L 103.195312 23.027344 L 104.515625 22 Z M 108.792969 31.9375 "/>
<path fill="none" stroke-width="0.388" stroke-linecap="butt" stroke-linejoin="miter" stroke="rgb(50.196078%, 50.196078%, 50.196078%)" stroke-opacity="1" stroke-miterlimit="10" d="M -0.0000903422 0.00124666 L 3.864377 0.00124666 " transform="matrix(1.876067, 0, 0, -1.876067, 119.539232, 9.881245)"/>
<path fill-rule="nonzero" fill="rgb(50.196078%, 50.196078%, 50.196078%)" fill-opacity="1" d="M 125.722656 30.710938 C 125.722656 30.652344 125.722656 30.621094 125.402344 30.300781 C 123.085938 27.953125 122.46875 24.40625 122.46875 21.535156 C 122.46875 18.28125 123.175781 15.027344 125.488281 12.710938 C 125.722656 12.476562 125.722656 12.449219 125.722656 12.390625 C 125.722656 12.242188 125.664062 12.183594 125.546875 12.183594 C 125.34375 12.183594 123.671875 13.472656 122.558594 15.847656 C 121.621094 17.902344 121.386719 19.980469 121.386719 21.535156 C 121.386719 23 121.589844 25.257812 122.617188 27.398438 C 123.761719 29.683594 125.34375 30.914062 125.546875 30.914062 C 125.664062 30.914062 125.722656 30.855469 125.722656 30.710938 Z M 125.722656 30.710938 "/>
<path fill-rule="nonzero" fill="rgb(50.196078%, 50.196078%, 50.196078%)" fill-opacity="1" d="M 134.296875 24.144531 C 134.148438 24.320312 134.0625 24.4375 133.886719 24.644531 C 133.476562 25.230469 133.242188 25.40625 133.035156 25.40625 C 132.773438 25.40625 132.597656 25.171875 132.449219 24.644531 C 132.421875 24.496094 132.390625 24.378906 132.390625 24.320312 C 131.921875 22.414062 131.714844 21.566406 131.714844 21.300781 C 132.539062 19.835938 133.210938 19.015625 133.535156 19.015625 C 133.652344 19.015625 133.796875 19.074219 134.003906 19.160156 C 134.207031 19.308594 134.355469 19.335938 134.5 19.335938 C 134.882812 19.335938 135.144531 19.074219 135.144531 18.664062 C 135.144531 18.28125 134.824219 17.988281 134.382812 17.988281 C 133.5625 17.988281 132.859375 18.664062 131.570312 20.65625 L 131.363281 19.628906 C 131.101562 18.339844 130.894531 17.988281 130.367188 17.988281 C 129.957031 17.988281 129.34375 18.136719 128.199219 18.515625 L 127.992188 18.605469 L 128.050781 18.867188 C 128.785156 18.722656 128.933594 18.664062 129.109375 18.664062 C 129.578125 18.664062 129.695312 18.839844 129.957031 19.953125 L 130.484375 22.269531 L 128.960938 24.4375 C 128.582031 25.023438 128.199219 25.347656 127.992188 25.347656 C 127.90625 25.347656 127.699219 25.289062 127.523438 25.171875 C 127.289062 25.054688 127.085938 24.996094 126.910156 24.996094 C 126.558594 24.996094 126.292969 25.257812 126.292969 25.640625 C 126.292969 26.136719 126.675781 26.429688 127.230469 26.429688 C 127.789062 26.429688 128.023438 26.253906 128.960938 25.113281 C 129.460938 24.523438 129.871094 24.027344 130.632812 22.941406 L 131.21875 25.171875 C 131.453125 26.136719 131.6875 26.429688 132.304688 26.429688 C 133.007812 26.429688 133.476562 25.992188 134.558594 24.289062 Z M 134.296875 24.144531 "/>
<path fill-rule="nonzero" fill="rgb(50.196078%, 50.196078%, 50.196078%)" fill-opacity="1" d="M 140.539062 21.535156 C 140.539062 20.097656 140.335938 17.84375 139.308594 15.703125 C 138.195312 13.414062 136.582031 12.183594 136.40625 12.183594 C 136.289062 12.183594 136.203125 12.273438 136.203125 12.390625 C 136.203125 12.449219 136.203125 12.476562 136.554688 12.828125 C 138.398438 14.675781 139.457031 17.636719 139.457031 21.535156 C 139.457031 24.761719 138.78125 28.042969 136.464844 30.386719 C 136.203125 30.621094 136.203125 30.652344 136.203125 30.710938 C 136.203125 30.828125 136.289062 30.914062 136.40625 30.914062 C 136.582031 30.914062 138.28125 29.625 139.367188 27.25 C 140.335938 25.199219 140.539062 23.117188 140.539062 21.535156 Z M 140.539062 21.535156 "/>
<path fill="none" stroke-width="0.99628" stroke-linecap="butt" stroke-linejoin="miter" stroke="rgb(100%, 12.941176%, 32.156863%)" stroke-opacity="1" stroke-miterlimit="10" d="M 0.00197514 0.00140177 L 17.008964 0.00140177 " transform="matrix(1.876067, 0, 0, -1.876067, 147.070513, 18.90888)"/>
<path fill-rule="nonzero" fill="rgb(50.196078%, 50.196078%, 50.196078%)" fill-opacity="1" d="M 192.476562 17.371094 L 191.332031 17.371094 C 191.273438 17.371094 191.183594 17.3125 191.039062 17.222656 C 190.539062 16.871094 189.925781 16.695312 189.191406 16.695312 C 187.140625 16.695312 185.441406 18.132812 185.441406 19.890625 C 185.441406 20.859375 185.851562 21.414062 186.933594 21.914062 C 185.820312 22.644531 185.5 23.027344 185.5 23.46875 C 185.5 23.730469 185.644531 23.9375 185.996094 24.199219 C 184.148438 25.429688 183.796875 25.78125 183.796875 26.664062 C 183.796875 27.953125 185.03125 28.773438 186.933594 28.773438 C 189.28125 28.773438 190.863281 27.6875 190.863281 26.046875 C 190.863281 24.875 189.953125 24.054688 188.167969 23.585938 C 187.34375 23.378906 186.875 23.085938 186.875 22.792969 C 186.875 22.527344 187.285156 22.03125 187.550781 22.03125 C 187.578125 22.03125 187.609375 22.03125 187.667969 22.058594 C 187.816406 22.089844 188.078125 22.117188 188.253906 22.117188 C 189.953125 22.117188 191.714844 20.59375 191.714844 19.128906 C 191.714844 18.835938 191.65625 18.453125 191.539062 18.074219 L 192.476562 18.074219 Z M 186.40625 24.40625 C 186.4375 24.40625 186.464844 24.433594 186.523438 24.433594 C 186.582031 24.464844 186.757812 24.523438 187.050781 24.609375 C 189.046875 25.226562 189.71875 25.753906 189.71875 26.605469 C 189.71875 27.628906 188.636719 28.363281 187.199219 28.363281 C 185.703125 28.363281 184.824219 27.660156 184.824219 26.457031 C 184.824219 26.015625 184.941406 25.695312 185.234375 25.34375 C 185.5 25.019531 186.261719 24.40625 186.40625 24.40625 Z M 189.191406 17.105469 C 189.867188 17.105469 190.246094 17.546875 190.246094 18.425781 C 190.246094 19.070312 190.011719 19.890625 189.660156 20.535156 C 189.25 21.296875 188.664062 21.707031 188.019531 21.707031 C 187.316406 21.707031 186.90625 21.179688 186.90625 20.300781 C 186.90625 18.601562 187.960938 17.105469 189.191406 17.105469 Z M 189.191406 17.105469 "/>
<path fill-rule="nonzero" fill="rgb(50.196078%, 50.196078%, 50.196078%)" fill-opacity="1" d="M 199.183594 29.417969 C 199.183594 29.359375 199.183594 29.328125 198.859375 29.007812 C 196.542969 26.664062 195.929688 23.117188 195.929688 20.242188 C 195.929688 16.988281 196.632812 13.734375 198.949219 11.417969 C 199.183594 11.183594 199.183594 11.15625 199.183594 11.097656 C 199.183594 10.949219 199.125 10.890625 199.007812 10.890625 C 198.800781 10.890625 197.128906 12.179688 196.015625 14.554688 C 195.078125 16.609375 194.84375 18.6875 194.84375 20.242188 C 194.84375 21.707031 195.046875 23.964844 196.074219 26.105469 C 197.21875 28.390625 198.800781 29.625 199.007812 29.625 C 199.125 29.625 199.183594 29.566406 199.183594 29.417969 Z M 199.183594 29.417969 "/>
<path fill-rule="nonzero" fill="rgb(50.196078%, 50.196078%, 50.196078%)" fill-opacity="1" d="M 207.75 22.851562 C 207.605469 23.027344 207.515625 23.144531 207.339844 23.351562 C 206.929688 23.9375 206.695312 24.113281 206.492188 24.113281 C 206.226562 24.113281 206.050781 23.878906 205.90625 23.351562 C 205.875 23.203125 205.847656 23.085938 205.847656 23.027344 C 205.378906 21.121094 205.171875 20.273438 205.171875 20.007812 C 205.992188 18.542969 206.667969 17.722656 206.988281 17.722656 C 207.105469 17.722656 207.253906 17.78125 207.457031 17.867188 C 207.664062 18.015625 207.808594 18.042969 207.957031 18.042969 C 208.339844 18.042969 208.601562 17.78125 208.601562 17.371094 C 208.601562 16.988281 208.28125 16.695312 207.839844 16.695312 C 207.019531 16.695312 206.316406 17.371094 205.027344 19.363281 L 204.820312 18.335938 C 204.558594 17.046875 204.351562 16.695312 203.824219 16.695312 C 203.414062 16.695312 202.796875 16.84375 201.65625 17.222656 L 201.449219 17.3125 L 201.507812 17.574219 C 202.242188 17.429688 202.386719 17.371094 202.5625 17.371094 C 203.03125 17.371094 203.148438 17.546875 203.414062 18.660156 L 203.941406 20.976562 L 202.417969 23.144531 C 202.035156 23.730469 201.65625 24.054688 201.449219 24.054688 C 201.363281 24.054688 201.15625 23.996094 200.980469 23.878906 C 200.746094 23.761719 200.539062 23.703125 200.363281 23.703125 C 200.011719 23.703125 199.75 23.964844 199.75 24.347656 C 199.75 24.84375 200.128906 25.136719 200.6875 25.136719 C 201.246094 25.136719 201.480469 24.960938 202.417969 23.820312 C 202.914062 23.234375 203.324219 22.734375 204.085938 21.648438 L 204.675781 23.878906 C 204.910156 24.84375 205.144531 25.136719 205.757812 25.136719 C 206.460938 25.136719 206.929688 24.699219 208.015625 23 Z M 207.75 22.851562 "/>
<path fill-rule="nonzero" fill="rgb(50.196078%, 50.196078%, 50.196078%)" fill-opacity="1" d="M 213.996094 20.242188 C 213.996094 18.804688 213.789062 16.550781 212.765625 14.410156 C 211.648438 12.121094 210.039062 10.890625 209.863281 10.890625 C 209.746094 10.890625 209.65625 10.980469 209.65625 11.097656 C 209.65625 11.15625 209.65625 11.183594 210.007812 11.535156 C 211.855469 13.382812 212.910156 16.34375 212.910156 20.242188 C 212.910156 23.46875 212.238281 26.75 209.921875 29.09375 C 209.65625 29.328125 209.65625 29.359375 209.65625 29.417969 C 209.65625 29.535156 209.746094 29.625 209.863281 29.625 C 210.039062 29.625 211.738281 28.332031 212.824219 25.957031 C 213.789062 23.90625 213.996094 21.824219 213.996094 20.242188 Z M 213.996094 20.242188 "/>
<path fill-rule="nonzero" fill="rgb(50.196078%, 50.196078%, 50.196078%)" fill-opacity="1" d="M 232.839844 18.804688 C 233.132812 18.804688 233.484375 18.804688 233.484375 18.453125 C 233.484375 18.074219 233.132812 18.074219 232.871094 18.074219 L 221.671875 18.074219 C 221.40625 18.074219 221.054688 18.074219 221.054688 18.453125 C 221.054688 18.804688 221.40625 18.804688 221.671875 18.804688 Z M 232.871094 22.441406 C 233.132812 22.441406 233.484375 22.441406 233.484375 22.058594 C 233.484375 21.707031 233.132812 21.707031 232.839844 21.707031 L 221.671875 21.707031 C 221.40625 21.707031 221.054688 21.707031 221.054688 22.058594 C 221.054688 22.441406 221.40625 22.441406 221.671875 22.441406 Z M 232.871094 22.441406 "/>
<path fill-rule="nonzero" fill="rgb(50.196078%, 50.196078%, 50.196078%)" fill-opacity="1" d="M 245.605469 15.054688 C 246.25 15.054688 246.515625 15.054688 246.777344 15.171875 C 247.480469 15.40625 247.921875 16.050781 247.921875 16.84375 C 247.921875 17.78125 247.277344 18.515625 246.457031 18.515625 C 246.132812 18.515625 245.925781 18.425781 245.515625 18.164062 C 245.164062 17.957031 244.988281 17.871094 244.785156 17.871094 C 244.519531 17.871094 244.34375 18.015625 244.34375 18.28125 C 244.34375 18.660156 244.84375 18.894531 245.632812 18.894531 C 246.484375 18.894531 247.363281 18.601562 247.890625 18.164062 C 248.417969 17.695312 248.710938 17.050781 248.710938 16.285156 C 248.710938 15.730469 248.535156 15.203125 248.214844 14.851562 C 248.007812 14.585938 247.773438 14.46875 247.277344 14.234375 C 248.066406 13.707031 248.332031 13.296875 248.332031 12.710938 C 248.332031 11.800781 247.628906 11.15625 246.601562 11.15625 C 246.042969 11.15625 245.546875 11.363281 245.136719 11.714844 C 244.785156 12.007812 244.636719 12.300781 244.375 12.976562 L 244.550781 13.035156 C 245.019531 12.210938 245.515625 11.832031 246.21875 11.832031 C 246.953125 11.832031 247.453125 12.328125 247.453125 13.035156 C 247.453125 13.445312 247.277344 13.855469 247.011719 14.117188 C 246.660156 14.46875 246.367188 14.617188 245.605469 14.910156 Z M 245.605469 15.054688 "/>
<path fill-rule="nonzero" fill="rgb(50.196078%, 50.196078%, 50.196078%)" fill-opacity="1" d="M 246.367188 27.515625 L 243.085938 20.242188 C 242.9375 19.949219 242.851562 19.949219 242.792969 19.949219 C 242.792969 19.949219 242.675781 19.949219 242.46875 20.097656 L 240.710938 21.445312 C 240.476562 21.652344 240.476562 21.679688 240.476562 21.738281 C 240.476562 21.855469 240.507812 21.945312 240.652344 21.945312 C 240.769531 21.945312 241.09375 21.679688 241.296875 21.535156 C 241.386719 21.445312 241.679688 21.242188 241.882812 21.09375 L 245.578125 29.183594 C 245.695312 29.476562 245.78125 29.476562 245.957031 29.476562 C 246.25 29.476562 246.308594 29.390625 246.425781 29.125 L 254.929688 11.539062 C 255.046875 11.273438 255.046875 11.214844 255.046875 11.15625 C 255.046875 10.980469 254.898438 10.777344 254.664062 10.777344 C 254.519531 10.777344 254.402344 10.894531 254.253906 11.1875 Z M 246.367188 27.515625 "/>
<path fill="none" stroke-width="0.388" stroke-linecap="butt" stroke-linejoin="miter" stroke="rgb(50.196078%, 50.196078%, 50.196078%)" stroke-opacity="1" stroke-miterlimit="10" d="M -0.000331239 -0.00102699 L 4.453384 -0.00102699 " transform="matrix(1.876067, 0, 0, -1.876067, 254.66859, 11.173855)"/>
<path fill-rule="nonzero" fill="rgb(50.196078%, 50.196078%, 50.196078%)" fill-opacity="1" d="M 262.171875 22.851562 C 262.027344 23.027344 261.9375 23.144531 261.761719 23.351562 C 261.351562 23.9375 261.117188 24.113281 260.914062 24.113281 C 260.648438 24.113281 260.472656 23.878906 260.324219 23.351562 C 260.296875 23.203125 260.265625 23.085938 260.265625 23.027344 C 259.796875 21.121094 259.59375 20.273438 259.59375 20.007812 C 260.414062 18.542969 261.089844 17.722656 261.410156 17.722656 C 261.527344 17.722656 261.675781 17.78125 261.878906 17.867188 C 262.085938 18.015625 262.230469 18.042969 262.378906 18.042969 C 262.757812 18.042969 263.023438 17.78125 263.023438 17.371094 C 263.023438 16.988281 262.699219 16.695312 262.261719 16.695312 C 261.441406 16.695312 260.738281 17.371094 259.445312 19.363281 L 259.242188 18.335938 C 258.976562 17.046875 258.773438 16.695312 258.246094 16.695312 C 257.835938 16.695312 257.21875 16.84375 256.074219 17.222656 L 255.871094 17.3125 L 255.929688 17.574219 C 256.660156 17.429688 256.808594 17.371094 256.984375 17.371094 C 257.453125 17.371094 257.570312 17.546875 257.835938 18.660156 L 258.363281 20.976562 L 256.835938 23.144531 C 256.457031 23.730469 256.074219 24.054688 255.871094 24.054688 C 255.78125 24.054688 255.578125 23.996094 255.402344 23.878906 C 255.167969 23.761719 254.960938 23.703125 254.785156 23.703125 C 254.433594 23.703125 254.171875 23.964844 254.171875 24.347656 C 254.171875 24.84375 254.550781 25.136719 255.109375 25.136719 C 255.664062 25.136719 255.898438 24.960938 256.835938 23.820312 C 257.335938 23.234375 257.746094 22.734375 258.507812 21.648438 L 259.09375 23.878906 C 259.328125 24.84375 259.5625 25.136719 260.179688 25.136719 C 260.882812 25.136719 261.351562 24.699219 262.4375 23 Z M 262.171875 22.851562 "/>
<path fill="none" stroke-width="0.99628" stroke-linecap="butt" stroke-linejoin="miter" stroke="rgb(1.176471%, 74.901961%, 23.921569%)" stroke-opacity="1" stroke-miterlimit="10" d="M -0.00144133 0.00140177 L 17.005548 0.00140177 " transform="matrix(1.876067, 0, 0, -1.876067, 267.69411, 18.90888)"/>
<path fill-rule="nonzero" fill="rgb(50.196078%, 50.196078%, 50.196078%)" fill-opacity="1" d="M 312.980469 23.847656 C 311.957031 25.136719 311.75 25.34375 311.429688 25.34375 C 311.28125 25.34375 311.136719 25.167969 311.136719 24.992188 C 311.136719 24.816406 311.429688 23.644531 311.75 22.675781 C 312.308594 20.886719 312.660156 19.511719 312.660156 19.042969 C 312.660156 18.308594 312.160156 17.808594 311.429688 17.808594 C 310.195312 17.808594 308.878906 19.042969 307.148438 21.738281 L 309.375 13.355469 L 309.289062 13.265625 C 308.203125 13.53125 307.472656 13.648438 306.355469 13.765625 L 306.355469 14.058594 L 306.824219 14.058594 C 306.855469 14.058594 306.882812 14.058594 306.882812 14.027344 C 307.148438 13.941406 307.617188 14.234375 307.617188 14.496094 C 307.617188 14.761719 307.5 15.230469 307.351562 15.789062 C 307.324219 15.789062 307.265625 16.050781 307.148438 16.460938 L 304.628906 26.046875 L 306.035156 26.046875 C 306.765625 23.175781 307.03125 22.53125 307.765625 21.386719 C 308.730469 19.921875 310.019531 18.75 310.664062 18.75 C 310.960938 18.75 311.195312 18.984375 311.195312 19.21875 C 311.195312 19.304688 311.136719 19.539062 311.078125 19.832031 L 310.050781 23.703125 C 309.785156 24.640625 309.667969 25.195312 309.667969 25.433594 C 309.667969 25.929688 309.992188 26.222656 310.488281 26.222656 C 311.429688 26.222656 312.101562 25.726562 313.214844 24.082031 Z M 312.980469 23.847656 "/>
<path fill-rule="nonzero" fill="rgb(50.196078%, 50.196078%, 50.196078%)" fill-opacity="1" d="M 319.804688 30.53125 C 319.804688 30.472656 319.804688 30.445312 319.484375 30.121094 C 317.167969 27.777344 316.550781 24.230469 316.550781 21.355469 C 316.550781 18.101562 317.253906 14.847656 319.570312 12.535156 C 319.804688 12.300781 319.804688 12.269531 319.804688 12.210938 C 319.804688 12.066406 319.746094 12.007812 319.628906 12.007812 C 319.425781 12.007812 317.753906 13.296875 316.640625 15.671875 C 315.703125 17.722656 315.46875 19.804688 315.46875 21.355469 C 315.46875 22.824219 315.671875 25.078125 316.699219 27.21875 C 317.839844 29.507812 319.425781 30.738281 319.628906 30.738281 C 319.746094 30.738281 319.804688 30.679688 319.804688 30.53125 Z M 319.804688 30.53125 "/>
<path fill-rule="nonzero" fill="rgb(50.196078%, 50.196078%, 50.196078%)" fill-opacity="1" d="M 328.378906 23.964844 C 328.230469 24.140625 328.144531 24.257812 327.96875 24.464844 C 327.554688 25.050781 327.320312 25.226562 327.117188 25.226562 C 326.851562 25.226562 326.675781 24.992188 326.53125 24.464844 C 326.5 24.316406 326.472656 24.199219 326.472656 24.140625 C 326.003906 22.238281 325.796875 21.386719 325.796875 21.121094 C 326.617188 19.65625 327.292969 18.835938 327.617188 18.835938 C 327.734375 18.835938 327.878906 18.894531 328.085938 18.984375 C 328.289062 19.128906 328.4375 19.160156 328.582031 19.160156 C 328.964844 19.160156 329.226562 18.894531 329.226562 18.484375 C 329.226562 18.101562 328.90625 17.808594 328.464844 17.808594 C 327.644531 17.808594 326.941406 18.484375 325.652344 20.476562 L 325.445312 19.453125 C 325.183594 18.160156 324.976562 17.808594 324.449219 17.808594 C 324.039062 17.808594 323.421875 17.957031 322.28125 18.335938 L 322.074219 18.425781 L 322.132812 18.691406 C 322.867188 18.542969 323.011719 18.484375 323.1875 18.484375 C 323.65625 18.484375 323.773438 18.660156 324.039062 19.773438 L 324.566406 22.089844 L 323.042969 24.257812 C 322.660156 24.84375 322.28125 25.167969 322.074219 25.167969 C 321.988281 25.167969 321.78125 25.109375 321.605469 24.992188 C 321.371094 24.875 321.167969 24.816406 320.992188 24.816406 C 320.636719 24.816406 320.375 25.078125 320.375 25.460938 C 320.375 25.960938 320.757812 26.253906 321.3125 26.253906 C 321.871094 26.253906 322.105469 26.078125 323.042969 24.933594 C 323.539062 24.347656 323.949219 23.847656 324.714844 22.765625 L 325.300781 24.992188 C 325.535156 25.960938 325.769531 26.253906 326.382812 26.253906 C 327.085938 26.253906 327.554688 25.8125 328.640625 24.113281 Z M 328.378906 23.964844 "/>
<path fill-rule="nonzero" fill="rgb(50.196078%, 50.196078%, 50.196078%)" fill-opacity="1" d="M 334.621094 21.355469 C 334.621094 19.921875 334.414062 17.664062 333.390625 15.523438 C 332.277344 13.238281 330.664062 12.007812 330.488281 12.007812 C 330.371094 12.007812 330.28125 12.09375 330.28125 12.210938 C 330.28125 12.269531 330.28125 12.300781 330.632812 12.652344 C 332.480469 14.496094 333.535156 17.457031 333.535156 21.355469 C 333.535156 24.582031 332.863281 27.863281 330.546875 30.210938 C 330.28125 30.445312 330.28125 30.472656 330.28125 30.53125 C 330.28125 30.648438 330.371094 30.738281 330.488281 30.738281 C 330.664062 30.738281 332.363281 29.449219 333.449219 27.074219 C 334.414062 25.019531 334.621094 22.941406 334.621094 21.355469 Z M 334.621094 21.355469 "/>
<path fill-rule="nonzero" fill="rgb(50.196078%, 50.196078%, 50.196078%)" fill-opacity="1" d="M 353.464844 19.921875 C 353.757812 19.921875 354.109375 19.921875 354.109375 19.570312 C 354.109375 19.1875 353.757812 19.1875 353.496094 19.1875 L 342.296875 19.1875 C 342.035156 19.1875 341.683594 19.1875 341.683594 19.570312 C 341.683594 19.921875 342.035156 19.921875 342.296875 19.921875 Z M 353.496094 23.554688 C 353.757812 23.554688 354.109375 23.554688 354.109375 23.175781 C 354.109375 22.824219 353.757812 22.824219 353.464844 22.824219 L 342.296875 22.824219 C 342.035156 22.824219 341.683594 22.824219 341.683594 23.175781 C 341.683594 23.554688 342.035156 23.554688 342.296875 23.554688 Z M 353.496094 23.554688 "/>
<path fill-rule="nonzero" fill="rgb(50.196078%, 50.196078%, 50.196078%)" fill-opacity="1" d="M 366.8125 23.964844 C 366.664062 24.140625 366.578125 24.257812 366.402344 24.464844 C 365.992188 25.050781 365.757812 25.226562 365.550781 25.226562 C 365.289062 25.226562 365.113281 24.992188 364.964844 24.464844 C 364.9375 24.316406 364.90625 24.199219 364.90625 24.140625 C 364.4375 22.238281 364.234375 21.386719 364.234375 21.121094 C 365.054688 19.65625 365.726562 18.835938 366.050781 18.835938 C 366.167969 18.835938 366.3125 18.894531 366.519531 18.984375 C 366.722656 19.128906 366.871094 19.160156 367.015625 19.160156 C 367.398438 19.160156 367.664062 18.894531 367.664062 18.484375 C 367.664062 18.101562 367.339844 17.808594 366.898438 17.808594 C 366.078125 17.808594 365.375 18.484375 364.085938 20.476562 L 363.882812 19.453125 C 363.617188 18.160156 363.410156 17.808594 362.882812 17.808594 C 362.472656 17.808594 361.859375 17.957031 360.714844 18.335938 L 360.511719 18.425781 L 360.570312 18.691406 C 361.300781 18.542969 361.449219 18.484375 361.625 18.484375 C 362.09375 18.484375 362.210938 18.660156 362.472656 19.773438 L 363 22.089844 L 361.476562 24.257812 C 361.097656 24.84375 360.714844 25.167969 360.511719 25.167969 C 360.421875 25.167969 360.21875 25.109375 360.039062 24.992188 C 359.804688 24.875 359.601562 24.816406 359.425781 24.816406 C 359.074219 24.816406 358.808594 25.078125 358.808594 25.460938 C 358.808594 25.960938 359.191406 26.253906 359.746094 26.253906 C 360.304688 26.253906 360.539062 26.078125 361.476562 24.933594 C 361.976562 24.347656 362.386719 23.847656 363.148438 22.765625 L 363.734375 24.992188 C 363.96875 25.960938 364.203125 26.253906 364.820312 26.253906 C 365.523438 26.253906 365.992188 25.8125 367.078125 24.113281 Z M 366.8125 23.964844 "/>
<path fill-rule="nonzero" fill="rgb(50.196078%, 50.196078%, 50.196078%)" fill-opacity="1" d="M 370.152344 11.203125 L 372.878906 11.203125 C 373.085938 11.203125 373.144531 11.171875 373.203125 11.085938 L 373.730469 9.855469 L 373.582031 9.738281 C 373.378906 10.03125 373.261719 10.117188 372.96875 10.117188 L 370.066406 10.117188 L 368.570312 13.371094 C 368.542969 13.402344 368.542969 13.429688 368.542969 13.460938 C 368.542969 13.519531 368.601562 13.578125 368.71875 13.578125 C 369.15625 13.578125 369.714844 13.664062 370.269531 13.839844 C 371.855469 14.339844 372.617188 15.21875 372.617188 16.566406 C 372.617188 17.914062 371.765625 18.941406 370.679688 18.941406 C 370.386719 18.941406 370.152344 18.851562 369.742188 18.53125 C 369.304688 18.238281 368.980469 18.089844 368.6875 18.089844 C 368.308594 18.089844 368.101562 18.265625 368.101562 18.589844 C 368.101562 19.117188 368.746094 19.46875 369.800781 19.46875 C 370.945312 19.46875 371.941406 19.085938 372.644531 18.382812 C 373.289062 17.769531 373.582031 16.976562 373.582031 15.921875 C 373.582031 14.925781 373.320312 14.28125 372.617188 13.578125 C 372 12.992188 371.210938 12.667969 369.597656 12.375 Z M 370.152344 11.203125 "/>
<path fill-rule="nonzero" fill="rgb(50.196078%, 50.196078%, 50.196078%)" fill-opacity="1" d="M 380.644531 9.414062 C 380.734375 9.238281 380.734375 9.179688 380.734375 9.148438 C 380.734375 9.003906 380.585938 8.886719 380.441406 8.886719 C 380.351562 8.886719 380.265625 8.914062 380.207031 9.003906 L 375.398438 22.195312 C 375.339844 22.371094 375.339844 22.429688 375.339844 22.457031 C 375.339844 22.605469 375.457031 22.722656 375.601562 22.722656 C 375.808594 22.722656 375.835938 22.632812 375.925781 22.398438 Z M 380.644531 9.414062 "/>
<path fill-rule="nonzero" fill="rgb(50.196078%, 50.196078%, 50.196078%)" fill-opacity="1" d="M 383.601562 14.691406 C 384.425781 14.691406 384.746094 14.71875 385.070312 14.835938 C 385.949219 15.160156 386.476562 15.949219 386.476562 16.890625 C 386.476562 18.0625 385.683594 18.96875 384.660156 18.96875 C 384.277344 18.96875 384.011719 18.851562 383.484375 18.53125 C 383.074219 18.265625 382.839844 18.179688 382.605469 18.179688 C 382.285156 18.179688 382.078125 18.382812 382.078125 18.675781 C 382.078125 19.144531 382.695312 19.46875 383.660156 19.46875 C 384.71875 19.46875 385.800781 19.085938 386.445312 18.53125 C 387.121094 17.972656 387.472656 17.152344 387.472656 16.246094 C 387.472656 15.539062 387.238281 14.867188 386.855469 14.457031 C 386.5625 14.132812 386.300781 13.988281 385.683594 13.722656 C 386.652344 13.078125 387.003906 12.550781 387.003906 11.816406 C 387.003906 10.675781 386.125 9.914062 384.835938 9.914062 C 384.160156 9.914062 383.542969 10.148438 383.046875 10.585938 C 382.636719 10.96875 382.429688 11.320312 382.109375 12.140625 L 382.3125 12.199219 C 382.898438 11.203125 383.515625 10.734375 384.394531 10.734375 C 385.273438 10.734375 385.917969 11.347656 385.917969 12.226562 C 385.917969 12.726562 385.683594 13.226562 385.363281 13.578125 C 384.953125 13.988281 384.542969 14.191406 383.601562 14.515625 Z M 383.601562 14.691406 "/>
</svg>
