<?xml version="1.0" encoding="UTF-8"?>
<svg xmlns="http://www.w3.org/2000/svg" xmlns:xlink="http://www.w3.org/1999/xlink" width="400" height="351.163778" viewBox="0 0 400 351.163778">
<defs>
<clipPath id="clip-0">
<path clip-rule="nonzero" d="M 98 6 L 101 6 L 101 351.164062 L 98 351.164062 Z M 98 6 "/>
</clipPath>
<clipPath id="clip-1">
<path clip-rule="nonzero" d="M 104 0.640625 L 345 0.640625 L 345 329 L 104 329 Z M 104 0.640625 "/>
</clipPath>
</defs>
<path fill="none" stroke-width="0.19925" stroke-linecap="butt" stroke-linejoin="miter" stroke="rgb(50.196078%, 50.196078%, 50.196078%)" stroke-opacity="1" stroke-miterlimit="10" d="M 51.452325 13.464464 L 51.452325 17.719248 M 73.280633 13.464464 L 73.280633 17.719248 " transform="matrix(3.20595, 0, 0, -3.20595, 34.479996, 350.525777)"/>
<path fill="none" stroke-width="0.19925" stroke-linecap="butt" stroke-linejoin="miter" stroke="rgb(50.196078%, 50.196078%, 50.196078%)" stroke-opacity="1" stroke-miterlimit="10" d="M 18.1439 77.957578 L 22.39381 77.957578 M 18.1439 39.914305 L 22.39381 39.914305 " transform="matrix(3.20595, 0, 0, -3.20595, 34.479996, 350.525777)"/>
<path fill="none" stroke-width="0.3985" stroke-linecap="butt" stroke-linejoin="miter" stroke="rgb(50.196078%, 50.196078%, 50.196078%)" stroke-opacity="1" stroke-miterlimit="10" d="M -0.00107093 15.589419 L 111.823465 15.589419 " transform="matrix(3.20595, 0, 0, -3.20595, 34.479996, 350.525777)"/>
<path fill-rule="nonzero" fill="rgb(50.196078%, 50.196078%, 50.196078%)" fill-opacity="1" d="M 399.367188 300.546875 L 389.148438 295.4375 L 392.980469 300.546875 L 389.148438 305.65625 "/>
<g clip-path="url(#clip-0)">
<path fill="none" stroke-width="0.3985" stroke-linecap="butt" stroke-linejoin="miter" stroke="rgb(50.196078%, 50.196078%, 50.196078%)" stroke-opacity="1" stroke-miterlimit="10" d="M 20.268855 -0.000488548 L 20.268855 107.14403 " transform="matrix(3.20595, 0, 0, -3.20595, 34.479996, 350.525777)"/>
</g>
<path fill-rule="nonzero" fill="rgb(50.196078%, 50.196078%, 50.196078%)" fill-opacity="1" d="M 99.460938 0.640625 L 94.351562 10.859375 L 99.460938 7.027344 L 104.570312 10.859375 "/>
<path fill-rule="nonzero" fill="rgb(50.196078%, 50.196078%, 50.196078%)" fill-opacity="1" d="M 198.453125 328.960938 C 198.199219 329.261719 198.050781 329.460938 197.75 329.8125 C 197.050781 330.816406 196.648438 331.117188 196.296875 331.117188 C 195.847656 331.117188 195.546875 330.714844 195.296875 329.8125 C 195.246094 329.5625 195.195312 329.363281 195.195312 329.261719 C 194.394531 326.007812 194.042969 324.554688 194.042969 324.101562 C 195.445312 321.597656 196.597656 320.195312 197.148438 320.195312 C 197.347656 320.195312 197.601562 320.296875 197.949219 320.445312 C 198.300781 320.695312 198.550781 320.746094 198.800781 320.746094 C 199.453125 320.746094 199.902344 320.296875 199.902344 319.59375 C 199.902344 318.941406 199.351562 318.441406 198.601562 318.441406 C 197.199219 318.441406 195.996094 319.59375 193.792969 323 L 193.441406 321.246094 C 192.992188 319.042969 192.640625 318.441406 191.738281 318.441406 C 191.039062 318.441406 189.984375 318.691406 188.03125 319.34375 L 187.679688 319.492188 L 187.78125 319.945312 C 189.035156 319.695312 189.285156 319.59375 189.585938 319.59375 C 190.386719 319.59375 190.585938 319.894531 191.039062 321.796875 L 191.9375 325.753906 L 189.335938 329.460938 C 188.683594 330.464844 188.03125 331.015625 187.679688 331.015625 C 187.53125 331.015625 187.179688 330.914062 186.878906 330.714844 C 186.480469 330.515625 186.128906 330.414062 185.828125 330.414062 C 185.226562 330.414062 184.777344 330.863281 184.777344 331.515625 C 184.777344 332.367188 185.425781 332.867188 186.378906 332.867188 C 187.332031 332.867188 187.730469 332.566406 189.335938 330.613281 C 190.1875 329.613281 190.886719 328.761719 192.191406 326.90625 L 193.191406 330.714844 C 193.59375 332.367188 193.992188 332.867188 195.046875 332.867188 C 196.246094 332.867188 197.050781 332.117188 198.902344 329.210938 Z M 198.453125 328.960938 "/>
<path fill-rule="nonzero" fill="rgb(50.196078%, 50.196078%, 50.196078%)" fill-opacity="1" d="M 206.671875 321.363281 L 202.414062 323.515625 L 202.414062 323.816406 C 202.714844 323.71875 202.964844 323.617188 203.0625 323.566406 C 203.515625 323.417969 203.914062 323.316406 204.117188 323.316406 C 204.617188 323.316406 204.867188 323.667969 204.867188 324.417969 L 204.867188 335.140625 C 204.867188 335.941406 204.667969 336.492188 204.265625 336.691406 C 203.914062 336.890625 203.613281 336.941406 202.613281 336.992188 L 202.613281 337.34375 L 209.125 337.34375 L 209.125 336.992188 C 207.273438 336.941406 206.871094 336.742188 206.871094 335.589844 L 206.871094 321.414062 Z M 206.671875 321.363281 "/>
<path fill-rule="nonzero" fill="rgb(50.196078%, 50.196078%, 50.196078%)" fill-opacity="1" d="M 268.429688 328.960938 C 268.175781 329.261719 268.027344 329.460938 267.726562 329.8125 C 267.023438 330.816406 266.625 331.117188 266.273438 331.117188 C 265.824219 331.117188 265.523438 330.714844 265.273438 329.8125 C 265.222656 329.5625 265.171875 329.363281 265.171875 329.261719 C 264.371094 326.007812 264.019531 324.554688 264.019531 324.101562 C 265.421875 321.597656 266.574219 320.195312 267.125 320.195312 C 267.324219 320.195312 267.578125 320.296875 267.925781 320.445312 C 268.277344 320.695312 268.527344 320.746094 268.777344 320.746094 C 269.429688 320.746094 269.878906 320.296875 269.878906 319.59375 C 269.878906 318.941406 269.328125 318.441406 268.578125 318.441406 C 267.175781 318.441406 265.972656 319.59375 263.769531 323 L 263.417969 321.246094 C 262.96875 319.042969 262.617188 318.441406 261.714844 318.441406 C 261.015625 318.441406 259.960938 318.691406 258.007812 319.34375 L 257.65625 319.492188 L 257.757812 319.945312 C 259.011719 319.695312 259.261719 319.59375 259.5625 319.59375 C 260.363281 319.59375 260.5625 319.894531 261.015625 321.796875 L 261.914062 325.753906 L 259.3125 329.460938 C 258.660156 330.464844 258.007812 331.015625 257.65625 331.015625 C 257.507812 331.015625 257.15625 330.914062 256.855469 330.714844 C 256.457031 330.515625 256.105469 330.414062 255.804688 330.414062 C 255.203125 330.414062 254.753906 330.863281 254.753906 331.515625 C 254.753906 332.367188 255.402344 332.867188 256.355469 332.867188 C 257.308594 332.867188 257.707031 332.566406 259.3125 330.613281 C 260.164062 329.613281 260.863281 328.761719 262.167969 326.90625 L 263.167969 330.714844 C 263.570312 332.367188 263.96875 332.867188 265.019531 332.867188 C 266.222656 332.867188 267.023438 332.117188 268.878906 329.210938 Z M 268.429688 328.960938 "/>
<path fill-rule="nonzero" fill="rgb(50.196078%, 50.196078%, 50.196078%)" fill-opacity="1" d="M 281.007812 334.085938 L 280.707031 333.988281 C 279.855469 335.339844 279.503906 335.539062 278.453125 335.539062 L 272.792969 335.539062 L 276.800781 331.382812 C 278.902344 329.179688 279.804688 327.375 279.804688 325.519531 C 279.804688 323.167969 277.902344 321.363281 275.449219 321.363281 C 274.144531 321.363281 272.894531 321.863281 272.042969 322.816406 C 271.289062 323.617188 270.9375 324.367188 270.539062 326.070312 L 271.039062 326.171875 C 271.941406 323.867188 272.792969 323.117188 274.445312 323.117188 C 276.449219 323.117188 277.800781 324.46875 277.800781 326.421875 C 277.800781 328.277344 276.699219 330.480469 274.695312 332.585938 L 270.488281 337.042969 L 270.488281 337.34375 L 279.707031 337.34375 Z M 281.007812 334.085938 "/>
<path fill-rule="nonzero" fill="rgb(50.196078%, 50.196078%, 50.196078%)" fill-opacity="1" d="M 16.539062 95.917969 L 19.445312 95.917969 L 16.640625 109.34375 C 15.9375 112.800781 14.886719 114.554688 13.53125 114.554688 C 13.132812 114.554688 12.882812 114.300781 12.882812 114.003906 C 12.882812 113.953125 12.933594 113.851562 13.03125 113.652344 C 13.132812 113.5 13.183594 113.351562 13.183594 113.152344 C 13.183594 112.5 12.582031 111.949219 11.929688 111.949219 C 11.230469 111.949219 10.726562 112.5 10.726562 113.25 C 10.726562 114.351562 11.878906 115.203125 13.28125 115.203125 C 16.085938 115.203125 18.34375 112.046875 19.644531 106.1875 L 21.949219 95.917969 L 25.457031 95.917969 L 25.65625 94.917969 L 22.199219 94.917969 C 23.101562 89.90625 24.304688 87.601562 26.054688 87.601562 C 26.507812 87.601562 26.757812 87.804688 26.757812 88.003906 C 26.757812 88.105469 26.757812 88.152344 26.65625 88.355469 C 26.507812 88.605469 26.457031 88.753906 26.457031 89.003906 C 26.457031 89.757812 26.957031 90.257812 27.660156 90.257812 C 28.359375 90.257812 29.011719 89.707031 29.011719 89.003906 C 29.011719 87.804688 27.808594 86.902344 26.257812 86.902344 C 24.652344 86.902344 23.453125 87.601562 22.300781 89.105469 C 21.296875 90.359375 20.695312 91.859375 19.695312 94.917969 L 16.789062 94.917969 Z M 16.539062 95.917969 "/>
<path fill-rule="nonzero" fill="rgb(50.196078%, 50.196078%, 50.196078%)" fill-opacity="1" d="M 39.546875 116.257812 C 39.546875 116.15625 39.546875 116.105469 38.996094 115.554688 C 35.039062 111.546875 33.988281 105.484375 33.988281 100.578125 C 33.988281 95.015625 35.191406 89.457031 39.148438 85.5 C 39.546875 85.097656 39.546875 85.046875 39.546875 84.949219 C 39.546875 84.699219 39.449219 84.597656 39.246094 84.597656 C 38.898438 84.597656 36.042969 86.800781 34.136719 90.859375 C 32.535156 94.367188 32.132812 97.921875 32.132812 100.578125 C 32.132812 103.082031 32.484375 106.9375 34.238281 110.59375 C 36.191406 114.503906 38.898438 116.605469 39.246094 116.605469 C 39.449219 116.605469 39.546875 116.507812 39.546875 116.257812 Z M 39.546875 116.257812 "/>
<path fill-rule="nonzero" fill="rgb(50.196078%, 50.196078%, 50.196078%)" fill-opacity="1" d="M 54.195312 105.035156 C 53.941406 105.335938 53.792969 105.535156 53.492188 105.886719 C 52.789062 106.890625 52.390625 107.1875 52.039062 107.1875 C 51.589844 107.1875 51.289062 106.789062 51.039062 105.886719 C 50.988281 105.636719 50.9375 105.4375 50.9375 105.335938 C 50.136719 102.078125 49.785156 100.628906 49.785156 100.175781 C 51.1875 97.671875 52.339844 96.269531 52.890625 96.269531 C 53.089844 96.269531 53.34375 96.371094 53.691406 96.519531 C 54.042969 96.769531 54.292969 96.820312 54.542969 96.820312 C 55.195312 96.820312 55.644531 96.371094 55.644531 95.667969 C 55.644531 95.015625 55.09375 94.515625 54.34375 94.515625 C 52.941406 94.515625 51.738281 95.667969 49.535156 99.074219 L 49.183594 97.320312 C 48.734375 95.117188 48.382812 94.515625 47.480469 94.515625 C 46.78125 94.515625 45.726562 94.765625 43.773438 95.417969 L 43.421875 95.566406 L 43.523438 96.019531 C 44.777344 95.769531 45.027344 95.667969 45.328125 95.667969 C 46.128906 95.667969 46.328125 95.96875 46.78125 97.871094 L 47.679688 101.828125 L 45.078125 105.535156 C 44.425781 106.539062 43.773438 107.089844 43.421875 107.089844 C 43.273438 107.089844 42.921875 106.988281 42.621094 106.789062 C 42.222656 106.589844 41.871094 106.488281 41.570312 106.488281 C 40.96875 106.488281 40.519531 106.9375 40.519531 107.589844 C 40.519531 108.441406 41.167969 108.941406 42.121094 108.941406 C 43.074219 108.941406 43.472656 108.640625 45.078125 106.6875 C 45.929688 105.6875 46.628906 104.835938 47.933594 102.980469 L 48.933594 106.789062 C 49.335938 108.441406 49.734375 108.941406 50.785156 108.941406 C 51.988281 108.941406 52.789062 108.191406 54.644531 105.285156 Z M 54.195312 105.035156 "/>
<path fill-rule="nonzero" fill="rgb(50.196078%, 50.196078%, 50.196078%)" fill-opacity="1" d="M 62.414062 97.4375 L 58.15625 99.589844 L 58.15625 99.890625 C 58.457031 99.792969 58.707031 99.691406 58.808594 99.640625 C 59.257812 99.492188 59.660156 99.390625 59.859375 99.390625 C 60.363281 99.390625 60.613281 99.742188 60.613281 100.492188 L 60.613281 111.210938 C 60.613281 112.015625 60.410156 112.566406 60.011719 112.765625 C 59.660156 112.964844 59.359375 113.015625 58.359375 113.066406 L 58.359375 113.417969 L 64.871094 113.417969 L 64.871094 113.066406 C 63.015625 113.015625 62.617188 112.816406 62.617188 111.664062 L 62.617188 97.488281 Z M 62.414062 97.4375 "/>
<path fill-rule="nonzero" fill="rgb(50.196078%, 50.196078%, 50.196078%)" fill-opacity="1" d="M 78.183594 100.578125 C 78.183594 98.121094 77.832031 94.265625 76.078125 90.609375 C 74.175781 86.703125 71.421875 84.597656 71.121094 84.597656 C 70.921875 84.597656 70.769531 84.746094 70.769531 84.949219 C 70.769531 85.046875 70.769531 85.097656 71.371094 85.699219 C 74.527344 88.855469 76.328125 93.914062 76.328125 100.578125 C 76.328125 106.085938 75.179688 111.699219 71.21875 115.707031 C 70.769531 116.105469 70.769531 116.15625 70.769531 116.257812 C 70.769531 116.457031 70.921875 116.605469 71.121094 116.605469 C 71.421875 116.605469 74.328125 114.402344 76.179688 110.34375 C 77.832031 106.839844 78.183594 103.28125 78.183594 100.578125 Z M 78.183594 100.578125 "/>
<path fill-rule="nonzero" fill="rgb(50.196078%, 50.196078%, 50.196078%)" fill-opacity="1" d="M 16.539062 217.878906 L 19.445312 217.878906 L 16.640625 231.304688 C 15.9375 234.761719 14.886719 236.515625 13.53125 236.515625 C 13.132812 236.515625 12.882812 236.261719 12.882812 235.960938 C 12.882812 235.914062 12.933594 235.8125 13.03125 235.613281 C 13.132812 235.460938 13.183594 235.3125 13.183594 235.109375 C 13.183594 234.460938 12.582031 233.910156 11.929688 233.910156 C 11.230469 233.910156 10.726562 234.460938 10.726562 235.210938 C 10.726562 236.3125 11.878906 237.164062 13.28125 237.164062 C 16.085938 237.164062 18.34375 234.007812 19.644531 228.148438 L 21.949219 217.878906 L 25.457031 217.878906 L 25.65625 216.878906 L 22.199219 216.878906 C 23.101562 211.867188 24.304688 209.5625 26.054688 209.5625 C 26.507812 209.5625 26.757812 209.765625 26.757812 209.964844 C 26.757812 210.066406 26.757812 210.113281 26.65625 210.316406 C 26.507812 210.566406 26.457031 210.714844 26.457031 210.964844 C 26.457031 211.71875 26.957031 212.21875 27.660156 212.21875 C 28.359375 212.21875 29.011719 211.667969 29.011719 210.964844 C 29.011719 209.765625 27.808594 208.863281 26.257812 208.863281 C 24.652344 208.863281 23.453125 209.5625 22.300781 211.066406 C 21.296875 212.320312 20.695312 213.820312 19.695312 216.878906 L 16.789062 216.878906 Z M 16.539062 217.878906 "/>
<path fill-rule="nonzero" fill="rgb(50.196078%, 50.196078%, 50.196078%)" fill-opacity="1" d="M 39.546875 238.21875 C 39.546875 238.117188 39.546875 238.066406 38.996094 237.515625 C 35.039062 233.507812 33.988281 227.445312 33.988281 222.539062 C 33.988281 216.976562 35.191406 211.417969 39.148438 207.460938 C 39.546875 207.058594 39.546875 207.007812 39.546875 206.910156 C 39.546875 206.660156 39.449219 206.558594 39.246094 206.558594 C 38.898438 206.558594 36.042969 208.761719 34.136719 212.820312 C 32.535156 216.328125 32.132812 219.882812 32.132812 222.539062 C 32.132812 225.042969 32.484375 228.898438 34.238281 232.554688 C 36.191406 236.464844 38.898438 238.566406 39.246094 238.566406 C 39.449219 238.566406 39.546875 238.46875 39.546875 238.21875 Z M 39.546875 238.21875 "/>
<path fill-rule="nonzero" fill="rgb(50.196078%, 50.196078%, 50.196078%)" fill-opacity="1" d="M 54.195312 226.996094 C 53.941406 227.296875 53.792969 227.496094 53.492188 227.847656 C 52.789062 228.847656 52.390625 229.148438 52.039062 229.148438 C 51.589844 229.148438 51.289062 228.75 51.039062 227.847656 C 50.988281 227.597656 50.9375 227.398438 50.9375 227.296875 C 50.136719 224.039062 49.785156 222.589844 49.785156 222.136719 C 51.1875 219.632812 52.339844 218.230469 52.890625 218.230469 C 53.089844 218.230469 53.34375 218.328125 53.691406 218.480469 C 54.042969 218.730469 54.292969 218.78125 54.542969 218.78125 C 55.195312 218.78125 55.644531 218.328125 55.644531 217.628906 C 55.644531 216.976562 55.09375 216.476562 54.34375 216.476562 C 52.941406 216.476562 51.738281 217.628906 49.535156 221.035156 L 49.183594 219.28125 C 48.734375 217.078125 48.382812 216.476562 47.480469 216.476562 C 46.78125 216.476562 45.726562 216.726562 43.773438 217.378906 L 43.421875 217.527344 L 43.523438 217.980469 C 44.777344 217.730469 45.027344 217.628906 45.328125 217.628906 C 46.128906 217.628906 46.328125 217.929688 46.78125 219.832031 L 47.679688 223.789062 L 45.078125 227.496094 C 44.425781 228.5 43.773438 229.050781 43.421875 229.050781 C 43.273438 229.050781 42.921875 228.949219 42.621094 228.75 C 42.222656 228.550781 41.871094 228.449219 41.570312 228.449219 C 40.96875 228.449219 40.519531 228.898438 40.519531 229.550781 C 40.519531 230.402344 41.167969 230.902344 42.121094 230.902344 C 43.074219 230.902344 43.472656 230.601562 45.078125 228.648438 C 45.929688 227.648438 46.628906 226.796875 47.933594 224.941406 L 48.933594 228.75 C 49.335938 230.402344 49.734375 230.902344 50.785156 230.902344 C 51.988281 230.902344 52.789062 230.152344 54.644531 227.246094 Z M 54.195312 226.996094 "/>
<path fill-rule="nonzero" fill="rgb(50.196078%, 50.196078%, 50.196078%)" fill-opacity="1" d="M 66.773438 232.121094 L 66.472656 232.019531 C 65.621094 233.375 65.269531 233.574219 64.21875 233.574219 L 58.558594 233.574219 L 62.566406 229.417969 C 64.667969 227.210938 65.570312 225.410156 65.570312 223.554688 C 65.570312 221.203125 63.667969 219.398438 61.214844 219.398438 C 59.910156 219.398438 58.660156 219.898438 57.808594 220.851562 C 57.054688 221.652344 56.703125 222.402344 56.304688 224.105469 L 56.804688 224.207031 C 57.707031 221.902344 58.558594 221.152344 60.210938 221.152344 C 62.214844 221.152344 63.566406 222.503906 63.566406 224.457031 C 63.566406 226.3125 62.464844 228.515625 60.460938 230.617188 L 56.253906 235.078125 L 56.253906 235.378906 L 65.472656 235.378906 Z M 66.773438 232.121094 "/>
<path fill-rule="nonzero" fill="rgb(50.196078%, 50.196078%, 50.196078%)" fill-opacity="1" d="M 78.183594 222.539062 C 78.183594 220.082031 77.832031 216.226562 76.078125 212.570312 C 74.175781 208.660156 71.421875 206.558594 71.121094 206.558594 C 70.921875 206.558594 70.769531 206.707031 70.769531 206.910156 C 70.769531 207.007812 70.769531 207.058594 71.371094 207.660156 C 74.527344 210.816406 76.328125 215.875 76.328125 222.539062 C 76.328125 228.046875 75.179688 233.660156 71.21875 237.664062 C 70.769531 238.066406 70.769531 238.117188 70.769531 238.21875 C 70.769531 238.417969 70.921875 238.566406 71.121094 238.566406 C 71.421875 238.566406 74.328125 236.363281 76.179688 232.304688 C 77.832031 228.800781 78.183594 225.242188 78.183594 222.539062 Z M 78.183594 222.539062 "/>
<path fill="none" stroke-width="0.3985" stroke-linecap="butt" stroke-linejoin="miter" stroke="rgb(69.803922%, 69.803922%, 69.803922%)" stroke-opacity="1" stroke-dasharray="2.98883 2.98883" stroke-miterlimit="10" d="M 20.268855 77.957578 L 51.452325 77.957578 L 51.452325 15.589419 " transform="matrix(3.20595, 0, 0, -3.20595, 34.479996, 350.525777)"/>
<path fill="none" stroke-width="0.3985" stroke-linecap="butt" stroke-linejoin="miter" stroke="rgb(69.803922%, 69.803922%, 69.803922%)" stroke-opacity="1" stroke-dasharray="2.98883 2.98883" stroke-miterlimit="10" d="M 20.268855 39.914305 L 73.280633 39.914305 L 73.280633 15.589419 " transform="matrix(3.20595, 0, 0, -3.20595, 34.479996, 350.525777)"/>
<path fill-rule="nonzero" fill="rgb(50.196078%, 50.196078%, 50.196078%)" fill-opacity="1" d="M 243.597656 312.644531 C 243.945312 312.445312 244.195312 312.292969 244.195312 311.945312 C 244.195312 311.59375 243.894531 311.292969 243.546875 311.292969 C 243.445312 311.292969 243.394531 311.292969 242.996094 311.542969 L 225.261719 319.859375 C 224.910156 320.058594 224.660156 320.210938 224.660156 320.558594 C 224.660156 320.960938 224.910156 321.109375 225.261719 321.3125 L 242.996094 329.625 C 243.394531 329.878906 243.445312 329.878906 243.546875 329.878906 C 243.894531 329.878906 244.195312 329.578125 244.195312 329.226562 C 244.195312 328.875 243.945312 328.726562 243.597656 328.523438 L 226.816406 320.558594 Z M 243.597656 312.644531 "/>
<path fill-rule="nonzero" fill="rgb(50.196078%, 50.196078%, 50.196078%)" fill-opacity="1" d="M 38.523438 151.40625 C 38.371094 151.054688 38.222656 150.804688 37.820312 150.804688 C 37.472656 150.804688 37.171875 151.054688 37.171875 151.457031 C 37.171875 151.605469 37.320312 151.90625 37.371094 152.007812 L 45.738281 169.691406 C 45.988281 170.242188 46.1875 170.339844 46.4375 170.339844 C 46.738281 170.339844 46.9375 170.140625 47.140625 169.691406 L 55.453125 152.007812 C 55.703125 151.605469 55.703125 151.554688 55.703125 151.457031 C 55.703125 151.105469 55.40625 150.804688 55.054688 150.804688 C 54.753906 150.804688 54.554688 150.957031 54.300781 151.507812 L 46.4375 168.1875 Z M 61.867188 151.957031 C 61.867188 151.40625 61.867188 150.804688 61.265625 150.804688 C 60.613281 150.804688 60.613281 151.507812 60.613281 151.957031 L 60.613281 169.1875 C 60.613281 169.691406 60.613281 170.339844 61.265625 170.339844 C 61.867188 170.339844 61.867188 169.789062 61.867188 169.238281 Z M 61.867188 151.957031 "/>
<g clip-path="url(#clip-1)">
<path fill="none" stroke-width="0.99628" stroke-linecap="butt" stroke-linejoin="miter" stroke="rgb(6.666667%, 52.941176%, 87.058824%)" stroke-opacity="1" stroke-miterlimit="10" d="M 35.858762 98.112971 L 36.803052 97.098013 L 37.275805 96.574084 L 37.748559 96.046501 L 38.221313 95.515262 L 38.694066 94.976713 L 39.16682 94.425979 L 39.639574 93.866716 L 40.112328 93.305017 L 40.585081 92.738443 L 41.057835 92.164559 L 41.530589 91.582146 L 42.003343 90.992422 L 42.471223 90.399043 L 42.943976 89.797135 L 43.889484 88.578698 L 44.362238 87.96095 L 44.834991 87.332236 L 45.780499 86.058969 L 46.253253 85.414416 L 47.197542 84.109469 L 48.143049 82.781372 L 49.088557 81.430125 L 49.56131 80.746582 L 50.030409 80.054509 L 50.503163 79.36 L 50.975916 78.660617 L 51.920205 77.246011 L 52.392959 76.530788 L 52.865713 75.808254 L 53.338467 75.082066 L 53.81122 74.352222 L 54.283974 73.613849 L 54.756728 72.870602 L 55.702235 71.370705 L 56.174989 70.612837 L 57.120496 69.08248 L 57.588376 68.308772 L 58.06113 67.531409 L 59.006638 65.960843 L 59.479391 65.172514 L 60.424899 63.570268 L 60.897653 62.7661 L 61.370406 61.953402 L 61.84316 61.137049 L 62.315914 60.31704 L 62.787449 59.492158 L 63.260203 58.663621 L 64.20571 56.991924 L 64.678464 56.148766 L 65.147563 55.300733 L 65.620316 54.44539 L 66.09307 53.593702 L 66.565824 52.726175 L 67.038578 51.867176 L 67.510113 50.995994 L 67.982867 50.1175 L 68.45562 49.242662 L 68.928374 48.359295 L 69.401128 47.472272 L 69.873882 46.581595 L 70.346635 45.683606 L 70.819389 44.780744 L 71.292143 43.882756 L 71.764897 42.976238 L 72.23765 42.058755 L 72.70553 41.141271 L 73.178284 40.226225 L 73.651038 39.301431 L 74.123791 38.366889 L 74.596545 37.440877 L 75.069299 36.496588 L 76.014806 34.621412 L 76.48756 33.668594 L 76.960314 32.710902 L 77.433068 31.76174 L 77.904603 30.800392 L 78.85011 28.855766 L 79.322864 27.898074 L 79.795618 26.909922 L 80.264716 25.925424 L 80.73747 24.953111 L 81.210224 23.964958 L 81.682978 22.964621 L 82.155731 21.976468 L 82.627267 20.972476 " transform="matrix(3.20595, 0, 0, -3.20595, 34.479996, 350.525777)"/>
</g>
</svg>
