<?xml version="1.0" encoding="UTF-8"?>
<svg xmlns="http://www.w3.org/2000/svg" xmlns:xlink="http://www.w3.org/1999/xlink" width="400" height="386.750154" viewBox="0 0 400 386.750154">
<defs>
<clipPath id="clip-0">
<path clip-rule="nonzero" d="M 73.59375 2.144531 L 384.613281 2.144531 L 384.613281 237 L 73.59375 237 Z M 73.59375 2.144531 "/>
</clipPath>
</defs>
<path fill="none" stroke-width="0.19925" stroke-linecap="butt" stroke-linejoin="miter" stroke="rgb(50.196078%, 50.196078%, 50.196078%)" stroke-opacity="1" stroke-miterlimit="10" d="M 40.535757 29.055454 L 40.535757 33.310269 M 56.129525 29.055454 L 56.129525 33.310269 M 115.374632 29.055454 L 115.374632 33.310269 " transform="matrix(3.066379, 0, 0, -3.066379, 2.143399, 384.606763)"/>
<path fill="none" stroke-width="0.19925" stroke-linecap="butt" stroke-linejoin="miter" stroke="rgb(50.196078%, 50.196078%, 50.196078%)" stroke-opacity="1" stroke-miterlimit="10" d="M 29.055402 77.64569 L 33.308942 77.64569 " transform="matrix(3.066379, 0, 0, -3.066379, 2.143399, 384.606763)"/>
<path fill="none" stroke-width="0.3985" stroke-linecap="butt" stroke-linejoin="miter" stroke="rgb(50.196078%, 50.196078%, 50.196078%)" stroke-opacity="1" stroke-miterlimit="10" d="M 0.000369202 31.180314 L 122.739027 31.180314 " transform="matrix(3.066379, 0, 0, -3.066379, 2.143399, 384.606763)"/>
<path fill-rule="nonzero" fill="rgb(50.196078%, 50.196078%, 50.196078%)" fill-opacity="1" d="M 384.613281 288.996094 L 374.828125 284.105469 L 378.507812 288.996094 L 374.828125 293.882812 "/>
<path fill="none" stroke-width="0.3985" stroke-linecap="butt" stroke-linejoin="miter" stroke="rgb(50.196078%, 50.196078%, 50.196078%)" stroke-opacity="1" stroke-miterlimit="10" d="M 31.184083 0.00169591 L 31.184083 122.735259 " transform="matrix(3.066379, 0, 0, -3.066379, 2.143399, 384.606763)"/>
<path fill-rule="nonzero" fill="rgb(50.196078%, 50.196078%, 50.196078%)" fill-opacity="1" d="M 97.765625 2.144531 L 92.878906 11.917969 L 97.765625 8.253906 L 102.652344 11.917969 "/>
<path fill-rule="nonzero" fill="rgb(50.196078%, 50.196078%, 50.196078%)" fill-opacity="1" d="M 106.347656 325.644531 C 106.109375 325.933594 105.964844 326.125 105.675781 326.460938 C 105.007812 327.417969 104.625 327.707031 104.289062 327.707031 C 103.855469 327.707031 103.570312 327.320312 103.328125 326.460938 C 103.28125 326.21875 103.234375 326.027344 103.234375 325.933594 C 102.46875 322.820312 102.132812 321.429688 102.132812 320.996094 C 103.472656 318.601562 104.574219 317.261719 105.101562 317.261719 C 105.292969 317.261719 105.535156 317.355469 105.867188 317.5 C 106.203125 317.738281 106.445312 317.789062 106.683594 317.789062 C 107.304688 317.789062 107.738281 317.355469 107.738281 316.6875 C 107.738281 316.0625 107.210938 315.582031 106.492188 315.582031 C 105.148438 315.582031 104 316.6875 101.890625 319.945312 L 101.558594 318.265625 C 101.125 316.160156 100.789062 315.582031 99.929688 315.582031 C 99.257812 315.582031 98.25 315.824219 96.382812 316.445312 L 96.046875 316.589844 L 96.144531 317.019531 C 97.339844 316.78125 97.582031 316.6875 97.867188 316.6875 C 98.632812 316.6875 98.824219 316.972656 99.257812 318.792969 L 100.121094 322.578125 L 97.628906 326.125 C 97.003906 327.082031 96.382812 327.609375 96.046875 327.609375 C 95.902344 327.609375 95.566406 327.515625 95.28125 327.320312 C 94.898438 327.128906 94.5625 327.035156 94.273438 327.035156 C 93.699219 327.035156 93.269531 327.464844 93.269531 328.089844 C 93.269531 328.902344 93.890625 329.382812 94.800781 329.382812 C 95.710938 329.382812 96.09375 329.09375 97.628906 327.226562 C 98.441406 326.269531 99.113281 325.453125 100.359375 323.679688 L 101.316406 327.320312 C 101.699219 328.902344 102.082031 329.382812 103.089844 329.382812 C 104.238281 329.382812 105.007812 328.664062 106.78125 325.886719 Z M 106.347656 325.644531 "/>
<path fill-rule="nonzero" fill="rgb(50.196078%, 50.196078%, 50.196078%)" fill-opacity="1" d="M 132.101562 322.003906 C 132.628906 322.003906 133.203125 322.003906 133.203125 321.382812 C 133.203125 320.804688 132.628906 320.804688 132.101562 320.804688 L 115.570312 320.804688 C 115.042969 320.804688 114.515625 320.804688 114.515625 321.382812 C 114.515625 322.003906 115.042969 322.003906 115.570312 322.003906 Z M 132.101562 322.003906 "/>
<path fill-rule="nonzero" fill="rgb(50.196078%, 50.196078%, 50.196078%)" fill-opacity="1" d="M 150.066406 315.488281 C 148.34375 315.96875 147.386719 316.351562 146.378906 316.972656 C 144.128906 318.363281 142.640625 320.472656 142.210938 322.769531 C 141.585938 326.410156 144.03125 329.429688 147.527344 329.429688 C 151.363281 329.429688 155.195312 325.980469 155.867188 321.957031 C 156.152344 319.992188 155.816406 318.125 154.8125 316.589844 C 153.949219 315.34375 153.519531 314.960938 151.074219 313.285156 C 148.535156 311.558594 147.578125 310.503906 147.769531 309.5 C 147.914062 308.492188 149.015625 307.726562 150.210938 307.726562 C 151.3125 307.726562 151.9375 308.0625 152.847656 309.210938 C 153.902344 310.503906 154.285156 310.746094 155.050781 310.746094 C 155.867188 310.746094 156.585938 310.167969 156.726562 309.449219 C 156.96875 307.820312 154.570312 306.433594 151.363281 306.433594 C 148.488281 306.433594 146.523438 307.582031 146.234375 309.449219 C 146.042969 310.554688 146.378906 311.464844 147.527344 312.707031 Z M 150.785156 316.253906 C 152.511719 318.21875 153.132812 320.328125 152.65625 322.960938 C 152.175781 325.980469 150.402344 327.992188 148.296875 327.992188 C 146.140625 327.992188 145.085938 325.644531 145.660156 322.101562 C 146.1875 318.792969 147.914062 316.828125 150.785156 316.253906 Z M 150.785156 316.253906 "/>
<path fill-rule="nonzero" fill="rgb(50.196078%, 50.196078%, 50.196078%)" fill-opacity="1" d="M 179.691406 316.171875 C 179.449219 316.460938 179.304688 316.652344 179.019531 316.988281 C 178.347656 317.945312 177.964844 318.234375 177.628906 318.234375 C 177.199219 318.234375 176.910156 317.851562 176.671875 316.988281 C 176.625 316.75 176.574219 316.554688 176.574219 316.460938 C 175.808594 313.347656 175.472656 311.957031 175.472656 311.527344 C 176.816406 309.128906 177.917969 307.789062 178.445312 307.789062 C 178.636719 307.789062 178.875 307.882812 179.210938 308.027344 C 179.546875 308.269531 179.785156 308.316406 180.023438 308.316406 C 180.648438 308.316406 181.078125 307.882812 181.078125 307.214844 C 181.078125 306.589844 180.550781 306.113281 179.832031 306.113281 C 178.492188 306.113281 177.34375 307.214844 175.234375 310.472656 L 174.898438 308.792969 C 174.46875 306.6875 174.132812 306.113281 173.269531 306.113281 C 172.597656 306.113281 171.59375 306.351562 169.722656 306.972656 L 169.390625 307.117188 L 169.484375 307.550781 C 170.683594 307.308594 170.921875 307.214844 171.210938 307.214844 C 171.976562 307.214844 172.167969 307.5 172.597656 309.320312 L 173.460938 313.105469 L 170.96875 316.652344 C 170.347656 317.609375 169.722656 318.136719 169.390625 318.136719 C 169.246094 318.136719 168.910156 318.042969 168.621094 317.851562 C 168.238281 317.660156 167.902344 317.5625 167.617188 317.5625 C 167.039062 317.5625 166.609375 317.992188 166.609375 318.617188 C 166.609375 319.429688 167.234375 319.910156 168.144531 319.910156 C 169.054688 319.910156 169.4375 319.621094 170.96875 317.753906 C 171.785156 316.796875 172.457031 315.980469 173.699219 314.207031 L 174.660156 317.851562 C 175.042969 319.429688 175.425781 319.910156 176.433594 319.910156 C 177.582031 319.910156 178.347656 319.191406 180.121094 316.414062 Z M 179.691406 316.171875 "/>
<path fill-rule="nonzero" fill="rgb(50.196078%, 50.196078%, 50.196078%)" fill-opacity="1" d="M 335.824219 325.644531 C 335.585938 325.933594 335.441406 326.125 335.152344 326.460938 C 334.480469 327.417969 334.097656 327.707031 333.761719 327.707031 C 333.332031 327.707031 333.042969 327.320312 332.804688 326.460938 C 332.757812 326.21875 332.710938 326.027344 332.710938 325.933594 C 331.941406 322.820312 331.609375 321.429688 331.609375 320.996094 C 332.949219 318.601562 334.050781 317.261719 334.578125 317.261719 C 334.769531 317.261719 335.007812 317.355469 335.34375 317.5 C 335.679688 317.738281 335.917969 317.789062 336.160156 317.789062 C 336.78125 317.789062 337.214844 317.355469 337.214844 316.6875 C 337.214844 316.0625 336.6875 315.582031 335.96875 315.582031 C 334.625 315.582031 333.476562 316.6875 331.367188 319.945312 L 331.03125 318.265625 C 330.601562 316.160156 330.265625 315.582031 329.402344 315.582031 C 328.734375 315.582031 327.726562 315.824219 325.859375 316.445312 L 325.523438 316.589844 L 325.617188 317.019531 C 326.816406 316.78125 327.054688 316.6875 327.34375 316.6875 C 328.109375 316.6875 328.300781 316.972656 328.734375 318.792969 L 329.59375 322.578125 L 327.105469 326.125 C 326.480469 327.082031 325.859375 327.609375 325.523438 327.609375 C 325.378906 327.609375 325.042969 327.515625 324.757812 327.320312 C 324.371094 327.128906 324.039062 327.035156 323.75 327.035156 C 323.175781 327.035156 322.742188 327.464844 322.742188 328.089844 C 322.742188 328.902344 323.367188 329.382812 324.277344 329.382812 C 325.1875 329.382812 325.570312 329.09375 327.105469 327.226562 C 327.917969 326.269531 328.589844 325.453125 329.835938 323.679688 L 330.792969 327.320312 C 331.175781 328.902344 331.558594 329.382812 332.566406 329.382812 C 333.714844 329.382812 334.480469 328.664062 336.253906 325.886719 Z M 335.824219 325.644531 "/>
<path fill-rule="nonzero" fill="rgb(50.196078%, 50.196078%, 50.196078%)" fill-opacity="1" d="M 353.960938 322.003906 L 362.488281 322.003906 C 362.921875 322.003906 363.496094 322.003906 363.496094 321.382812 C 363.496094 320.804688 362.921875 320.804688 362.488281 320.804688 L 353.960938 320.804688 L 353.960938 312.230469 C 353.960938 311.796875 353.960938 311.222656 353.339844 311.222656 C 352.714844 311.222656 352.714844 311.796875 352.714844 312.230469 L 352.714844 320.804688 L 344.1875 320.804688 C 343.757812 320.804688 343.179688 320.804688 343.179688 321.382812 C 343.179688 322.003906 343.757812 322.003906 344.1875 322.003906 L 352.714844 322.003906 L 352.714844 330.582031 C 352.714844 331.011719 352.714844 331.585938 353.339844 331.585938 C 353.960938 331.585938 353.960938 331.011719 353.960938 330.582031 Z M 353.960938 322.003906 "/>
<path fill-rule="nonzero" fill="rgb(50.196078%, 50.196078%, 50.196078%)" fill-opacity="1" d="M 379.542969 315.488281 C 377.820312 315.96875 376.859375 316.351562 375.855469 316.972656 C 373.601562 318.363281 372.117188 320.472656 371.6875 322.769531 C 371.0625 326.410156 373.507812 329.429688 377.003906 329.429688 C 380.835938 329.429688 384.671875 325.980469 385.339844 321.957031 C 385.628906 319.992188 385.292969 318.125 384.285156 316.589844 C 383.425781 315.34375 382.992188 314.960938 380.550781 313.285156 C 378.011719 311.558594 377.050781 310.503906 377.242188 309.5 C 377.386719 308.492188 378.488281 307.726562 379.6875 307.726562 C 380.789062 307.726562 381.414062 308.0625 382.324219 309.210938 C 383.375 310.503906 383.761719 310.746094 384.527344 310.746094 C 385.339844 310.746094 386.058594 310.167969 386.203125 309.449219 C 386.441406 307.820312 384.046875 306.433594 380.835938 306.433594 C 377.960938 306.433594 376 307.582031 375.710938 309.449219 C 375.519531 310.554688 375.855469 311.464844 377.003906 312.707031 Z M 380.261719 316.253906 C 381.988281 318.21875 382.609375 320.328125 382.132812 322.960938 C 381.652344 325.980469 379.878906 327.992188 377.769531 327.992188 C 375.613281 327.992188 374.5625 325.644531 375.136719 322.101562 C 375.664062 318.792969 377.386719 316.828125 380.261719 316.253906 Z M 380.261719 316.253906 "/>
<path fill-rule="nonzero" fill="rgb(50.196078%, 50.196078%, 50.196078%)" fill-opacity="1" d="M 31.191406 142.039062 L 33.96875 142.039062 L 31.285156 154.882812 C 30.617188 158.1875 29.609375 159.863281 28.316406 159.863281 C 27.933594 159.863281 27.691406 159.625 27.691406 159.335938 C 27.691406 159.289062 27.742188 159.191406 27.835938 159 C 27.933594 158.859375 27.980469 158.714844 27.980469 158.523438 C 27.980469 157.898438 27.40625 157.371094 26.78125 157.371094 C 26.113281 157.371094 25.632812 157.898438 25.632812 158.617188 C 25.632812 159.671875 26.734375 160.488281 28.074219 160.488281 C 30.757812 160.488281 32.914062 157.46875 34.160156 151.863281 L 36.363281 142.039062 L 39.71875 142.039062 L 39.910156 141.082031 L 36.605469 141.082031 C 37.46875 136.289062 38.617188 134.085938 40.292969 134.085938 C 40.726562 134.085938 40.964844 134.277344 40.964844 134.46875 C 40.964844 134.566406 40.964844 134.613281 40.867188 134.804688 C 40.726562 135.046875 40.675781 135.1875 40.675781 135.429688 C 40.675781 136.148438 41.15625 136.625 41.828125 136.625 C 42.496094 136.625 43.121094 136.097656 43.121094 135.429688 C 43.121094 134.277344 41.96875 133.417969 40.484375 133.417969 C 38.953125 133.417969 37.800781 134.085938 36.699219 135.523438 C 35.742188 136.722656 35.167969 138.160156 34.207031 141.082031 L 31.429688 141.082031 Z M 31.191406 142.039062 "/>
<path fill-rule="nonzero" fill="rgb(50.196078%, 50.196078%, 50.196078%)" fill-opacity="1" d="M 53.199219 161.492188 C 53.199219 161.398438 53.199219 161.347656 52.671875 160.820312 C 48.886719 156.988281 47.878906 151.191406 47.878906 146.496094 C 47.878906 141.179688 49.03125 135.859375 52.816406 132.074219 C 53.199219 131.691406 53.199219 131.644531 53.199219 131.546875 C 53.199219 131.308594 53.101562 131.210938 52.910156 131.210938 C 52.574219 131.210938 49.84375 133.320312 48.023438 137.203125 C 46.492188 140.554688 46.105469 143.957031 46.105469 146.496094 C 46.105469 148.890625 46.441406 152.582031 48.121094 156.078125 C 49.988281 159.816406 52.574219 161.828125 52.910156 161.828125 C 53.101562 161.828125 53.199219 161.730469 53.199219 161.492188 Z M 53.199219 161.492188 "/>
<path fill-rule="nonzero" fill="rgb(50.196078%, 50.196078%, 50.196078%)" fill-opacity="1" d="M 67.207031 150.761719 C 66.964844 151.046875 66.824219 151.238281 66.535156 151.574219 C 65.863281 152.535156 65.480469 152.820312 65.144531 152.820312 C 64.714844 152.820312 64.425781 152.4375 64.1875 151.574219 C 64.140625 151.335938 64.089844 151.144531 64.089844 151.046875 C 63.324219 147.933594 62.988281 146.542969 62.988281 146.113281 C 64.332031 143.71875 65.433594 142.375 65.960938 142.375 C 66.152344 142.375 66.390625 142.472656 66.726562 142.617188 C 67.0625 142.855469 67.300781 142.902344 67.542969 142.902344 C 68.164062 142.902344 68.59375 142.472656 68.59375 141.800781 C 68.59375 141.179688 68.066406 140.699219 67.347656 140.699219 C 66.007812 140.699219 64.859375 141.800781 62.75 145.058594 L 62.414062 143.382812 C 61.984375 141.273438 61.648438 140.699219 60.785156 140.699219 C 60.113281 140.699219 59.109375 140.9375 57.238281 141.5625 L 56.90625 141.703125 L 57 142.136719 C 58.199219 141.898438 58.4375 141.800781 58.726562 141.800781 C 59.492188 141.800781 59.683594 142.089844 60.113281 143.910156 L 60.976562 147.695312 L 58.484375 151.238281 C 57.863281 152.199219 57.238281 152.726562 56.90625 152.726562 C 56.761719 152.726562 56.425781 152.628906 56.136719 152.4375 C 55.753906 152.246094 55.417969 152.148438 55.132812 152.148438 C 54.558594 152.148438 54.125 152.582031 54.125 153.203125 C 54.125 154.019531 54.75 154.496094 55.660156 154.496094 C 56.570312 154.496094 56.953125 154.210938 58.484375 152.339844 C 59.300781 151.382812 59.972656 150.570312 61.21875 148.796875 L 62.175781 152.4375 C 62.558594 154.019531 62.941406 154.496094 63.949219 154.496094 C 65.097656 154.496094 65.863281 153.777344 67.636719 151 Z M 67.207031 150.761719 "/>
<path fill-rule="nonzero" fill="rgb(50.196078%, 50.196078%, 50.196078%)" fill-opacity="1" d="M 77.410156 146.496094 C 77.410156 144.148438 77.074219 140.460938 75.398438 136.960938 C 73.578125 133.222656 70.941406 131.210938 70.65625 131.210938 C 70.464844 131.210938 70.320312 131.355469 70.320312 131.546875 C 70.320312 131.644531 70.320312 131.691406 70.894531 132.265625 C 73.914062 135.285156 75.636719 140.125 75.636719 146.496094 C 75.636719 151.765625 74.535156 157.132812 70.75 160.964844 C 70.320312 161.347656 70.320312 161.398438 70.320312 161.492188 C 70.320312 161.683594 70.464844 161.828125 70.65625 161.828125 C 70.941406 161.828125 73.722656 159.71875 75.496094 155.839844 C 77.074219 152.484375 77.410156 149.082031 77.410156 146.496094 Z M 77.410156 146.496094 "/>
<path fill="none" stroke-width="0.19925" stroke-linecap="butt" stroke-linejoin="miter" stroke="rgb(50.196078%, 50.196078%, 50.196078%)" stroke-opacity="1" stroke-miterlimit="10" d="M 77.957742 29.055454 L 77.957742 33.310269 " transform="matrix(3.066379, 0, 0, -3.066379, 2.143399, 384.606763)"/>
<path fill-rule="nonzero" fill="rgb(100%, 12.941176%, 32.156863%)" fill-opacity="1" d="M 247.726562 316.222656 C 247.246094 316.652344 247.105469 316.84375 246.863281 317.082031 C 245.953125 317.992188 245.570312 318.328125 245.28125 318.328125 C 245.042969 318.328125 244.851562 318.136719 244.851562 317.945312 C 244.851562 317.324219 246.144531 312.101562 247.582031 306.832031 C 247.679688 306.542969 247.679688 306.445312 247.773438 306.207031 L 247.535156 306.113281 L 245.667969 306.304688 L 245.570312 306.398438 L 245.234375 307.882812 C 244.996094 306.734375 244.132812 306.113281 242.792969 306.113281 C 238.765625 306.113281 234.070312 311.667969 234.070312 316.507812 C 234.070312 318.664062 235.222656 319.910156 237.1875 319.910156 C 239.34375 319.910156 240.636719 318.902344 243.320312 315.121094 C 242.695312 317.515625 242.601562 317.898438 242.601562 318.617188 C 242.601562 319.527344 242.984375 319.863281 243.847656 319.863281 C 245.089844 319.863281 245.808594 319.289062 248.109375 316.507812 Z M 242.984375 306.78125 C 244.039062 306.832031 244.707031 307.550781 244.707031 308.652344 C 244.707031 311.191406 243.175781 314.785156 241.066406 317.082031 C 240.347656 317.898438 239.292969 318.425781 238.382812 318.425781 C 237.328125 318.425781 236.609375 317.515625 236.609375 316.125 C 236.609375 314.449219 237.808594 311.335938 239.101562 309.417969 C 240.347656 307.644531 241.785156 306.6875 242.984375 306.78125 Z M 242.984375 306.78125 "/>
<path fill="none" stroke-width="0.19925" stroke-linecap="butt" stroke-linejoin="miter" stroke="rgb(50.196078%, 50.196078%, 50.196078%)" stroke-opacity="1" stroke-miterlimit="10" d="M 29.055402 62.364027 L 33.308942 62.364027 " transform="matrix(3.066379, 0, 0, -3.066379, 2.143399, 384.606763)"/>
<path fill-rule="nonzero" fill="rgb(100%, 12.941176%, 32.156863%)" fill-opacity="1" d="M 29.566406 188.890625 L 32.347656 188.890625 L 29.664062 201.730469 C 28.992188 205.039062 27.988281 206.714844 26.695312 206.714844 C 26.308594 206.714844 26.070312 206.476562 26.070312 206.1875 C 26.070312 206.140625 26.117188 206.042969 26.214844 205.851562 C 26.308594 205.707031 26.359375 205.566406 26.359375 205.375 C 26.359375 204.75 25.785156 204.222656 25.160156 204.222656 C 24.488281 204.222656 24.011719 204.75 24.011719 205.46875 C 24.011719 206.523438 25.113281 207.335938 26.453125 207.335938 C 29.136719 207.335938 31.292969 204.320312 32.539062 198.714844 L 34.742188 188.890625 L 38.097656 188.890625 L 38.289062 187.933594 L 34.980469 187.933594 C 35.84375 183.140625 36.996094 180.9375 38.671875 180.9375 C 39.101562 180.9375 39.34375 181.128906 39.34375 181.320312 C 39.34375 181.417969 39.34375 181.464844 39.246094 181.65625 C 39.101562 181.894531 39.054688 182.039062 39.054688 182.28125 C 39.054688 183 39.535156 183.476562 40.203125 183.476562 C 40.875 183.476562 41.5 182.949219 41.5 182.28125 C 41.5 181.128906 40.347656 180.265625 38.863281 180.265625 C 37.332031 180.265625 36.179688 180.9375 35.078125 182.375 C 34.121094 183.574219 33.546875 185.011719 32.585938 187.933594 L 29.808594 187.933594 Z M 29.566406 188.890625 "/>
<path fill-rule="nonzero" fill="rgb(100%, 12.941176%, 32.156863%)" fill-opacity="1" d="M 51.574219 208.34375 C 51.574219 208.25 51.574219 208.199219 51.050781 207.671875 C 47.265625 203.839844 46.257812 198.042969 46.257812 193.347656 C 46.257812 188.027344 47.40625 182.710938 51.191406 178.925781 C 51.574219 178.542969 51.574219 178.496094 51.574219 178.398438 C 51.574219 178.160156 51.480469 178.0625 51.289062 178.0625 C 50.953125 178.0625 48.222656 180.171875 46.402344 184.050781 C 44.867188 187.40625 44.484375 190.808594 44.484375 193.347656 C 44.484375 195.742188 44.820312 199.433594 46.496094 202.929688 C 48.367188 206.667969 50.953125 208.679688 51.289062 208.679688 C 51.480469 208.679688 51.574219 208.582031 51.574219 208.34375 Z M 51.574219 208.34375 "/>
<path fill-rule="nonzero" fill="rgb(100%, 12.941176%, 32.156863%)" fill-opacity="1" d="M 67.503906 197.660156 C 67.023438 198.089844 66.878906 198.28125 66.640625 198.523438 C 65.730469 199.433594 65.347656 199.769531 65.058594 199.769531 C 64.820312 199.769531 64.628906 199.574219 64.628906 199.382812 C 64.628906 198.761719 65.921875 193.539062 67.359375 188.269531 C 67.457031 187.980469 67.457031 187.886719 67.550781 187.644531 L 67.3125 187.550781 L 65.441406 187.742188 L 65.347656 187.835938 L 65.011719 189.324219 C 64.773438 188.171875 63.910156 187.550781 62.566406 187.550781 C 58.542969 187.550781 53.847656 193.109375 53.847656 197.945312 C 53.847656 200.101562 55 201.347656 56.960938 201.347656 C 59.117188 201.347656 60.414062 200.34375 63.09375 196.558594 C 62.472656 198.953125 62.375 199.335938 62.375 200.054688 C 62.375 200.964844 62.761719 201.300781 63.621094 201.300781 C 64.867188 201.300781 65.585938 200.726562 67.886719 197.945312 Z M 62.761719 188.222656 C 63.8125 188.269531 64.484375 188.988281 64.484375 190.089844 C 64.484375 192.628906 62.953125 196.222656 60.84375 198.523438 C 60.125 199.335938 59.070312 199.863281 58.160156 199.863281 C 57.105469 199.863281 56.386719 198.953125 56.386719 197.5625 C 56.386719 195.886719 57.585938 192.773438 58.878906 190.855469 C 60.125 189.082031 61.5625 188.125 62.761719 188.222656 Z M 62.761719 188.222656 "/>
<path fill-rule="nonzero" fill="rgb(100%, 12.941176%, 32.156863%)" fill-opacity="1" d="M 77.410156 193.347656 C 77.410156 191 77.074219 187.3125 75.398438 183.8125 C 73.578125 180.074219 70.941406 178.0625 70.65625 178.0625 C 70.464844 178.0625 70.320312 178.207031 70.320312 178.398438 C 70.320312 178.496094 70.320312 178.542969 70.894531 179.117188 C 73.914062 182.136719 75.636719 186.976562 75.636719 193.347656 C 75.636719 198.617188 74.535156 203.984375 70.75 207.816406 C 70.320312 208.199219 70.320312 208.25 70.320312 208.34375 C 70.320312 208.535156 70.464844 208.679688 70.65625 208.679688 C 70.941406 208.679688 73.722656 206.570312 75.496094 202.691406 C 77.074219 199.335938 77.410156 195.933594 77.410156 193.347656 Z M 77.410156 193.347656 "/>
<g clip-path="url(#clip-0)">
<path fill="none" stroke-width="0.99628" stroke-linecap="butt" stroke-linejoin="miter" stroke="rgb(6.666667%, 52.941176%, 87.058824%)" stroke-opacity="1" stroke-miterlimit="10" d="M 37.418532 115.063854 L 38.238922 112.954281 L 39.055489 110.891842 L 39.874605 108.868895 L 40.694994 106.891807 L 41.511562 104.954211 L 42.331951 103.063748 L 43.152341 101.212776 L 43.968908 99.407665 L 44.789298 97.642044 L 45.609687 95.923558 L 46.426255 94.243288 L 47.246644 92.610153 L 48.063212 91.016508 L 48.883601 89.469998 L 49.702717 87.961705 L 50.519284 86.501819 L 51.339674 85.082698 L 52.160063 83.704342 L 52.976631 82.371847 L 53.79702 81.082663 L 54.61741 79.832971 L 55.433977 78.630412 L 56.254367 77.469893 L 57.074756 76.348864 L 57.891324 75.274969 L 58.711713 74.243113 L 59.527007 73.254569 L 60.347396 72.305516 L 61.167786 71.403597 L 61.984353 70.543717 L 62.804743 69.727149 L 63.625132 68.950073 L 64.4417 68.22013 L 65.262089 67.532226 L 66.082479 66.887634 L 66.899046 66.286355 L 67.719436 65.723293 L 68.536003 65.208638 L 69.355119 64.736023 L 70.175508 64.305446 L 70.992076 63.919455 L 71.812465 63.575503 L 72.632855 63.274863 L 73.449422 63.016262 L 74.269812 62.802248 L 75.090201 62.630272 L 75.906769 62.497787 L 76.727158 62.411162 L 77.547547 62.367849 L 78.364115 62.367849 L 79.183231 62.411162 L 79.999798 62.497787 L 80.820188 62.62645 L 81.640577 62.798426 L 82.457145 63.012441 L 83.277534 63.274863 L 84.097924 63.575503 L 84.914491 63.919455 L 85.734881 64.305446 L 86.55527 64.736023 L 87.371838 65.208638 L 88.192227 65.723293 L 89.007521 66.282533 L 89.82791 66.883812 L 90.6483 67.532226 L 91.464867 68.22013 L 92.285257 68.950073 L 93.105646 69.723328 L 93.922214 70.539895 L 94.742603 71.399776 L 95.562992 72.305516 L 96.37956 73.250747 L 97.199949 74.239291 L 98.020339 75.271147 L 98.835633 76.348864 L 99.656022 77.466071 L 100.47259 78.626591 L 101.292979 79.832971 L 102.113368 81.078842 L 102.929936 82.368025 L 103.750326 83.700521 L 104.570715 85.078877 L 105.387283 86.496724 L 106.207672 87.961705 L 107.028061 89.466176 L 107.843355 91.012687 L 108.663745 92.606331 L 109.480312 94.239467 L 110.300702 95.919736 L 111.121091 97.638223 L 111.937659 99.400022 L 112.758048 101.207681 L 113.578437 103.056105 L 114.395005 104.950389 L 115.215394 106.884164 L 116.035784 108.865073 L 116.852351 110.884199 L 117.671467 112.950459 L 118.491856 115.05621 " transform="matrix(3.066379, 0, 0, -3.066379, 2.143399, 384.606763)"/>
</g>
<path fill="none" stroke-width="0.3985" stroke-linecap="butt" stroke-linejoin="miter" stroke="rgb(69.803922%, 69.803922%, 69.803922%)" stroke-opacity="1" stroke-dasharray="2.98883 2.98883" stroke-miterlimit="10" d="M 31.184083 62.364027 L 77.957742 62.364027 L 77.957742 31.180314 " transform="matrix(3.066379, 0, 0, -3.066379, 2.143399, 384.606763)"/>
<path fill="none" stroke-width="0.3985" stroke-linecap="butt" stroke-linejoin="miter" stroke="rgb(69.803922%, 69.803922%, 69.803922%)" stroke-opacity="1" stroke-dasharray="2.98883 2.98883" stroke-miterlimit="10" d="M 31.184083 77.64569 L 56.129525 77.64569 L 56.129525 31.180314 " transform="matrix(3.066379, 0, 0, -3.066379, 2.143399, 384.606763)"/>
<path fill-rule="nonzero" fill="rgb(50.196078%, 50.196078%, 50.196078%)" fill-opacity="1" d="M 131.585938 303.960938 C 131.585938 303.863281 131.585938 303.816406 131.058594 303.289062 C 127.273438 299.457031 126.265625 293.660156 126.265625 288.964844 C 126.265625 283.644531 127.414062 278.328125 131.199219 274.542969 C 131.585938 274.160156 131.585938 274.109375 131.585938 274.015625 C 131.585938 273.773438 131.488281 273.679688 131.296875 273.679688 C 130.960938 273.679688 128.230469 275.789062 126.410156 279.667969 C 124.875 283.023438 124.492188 286.425781 124.492188 288.964844 C 124.492188 291.359375 124.828125 295.046875 126.503906 298.546875 C 128.375 302.28125 130.960938 304.296875 131.296875 304.296875 C 131.488281 304.296875 131.585938 304.199219 131.585938 303.960938 Z M 131.585938 303.960938 "/>
<path fill-rule="nonzero" fill="rgb(50.196078%, 50.196078%, 50.196078%)" fill-opacity="1" d="M 357.855469 288.964844 C 357.855469 286.617188 357.519531 282.925781 355.84375 279.429688 C 354.023438 275.691406 351.386719 273.679688 351.101562 273.679688 C 350.910156 273.679688 350.765625 273.824219 350.765625 274.015625 C 350.765625 274.109375 350.765625 274.160156 351.339844 274.734375 C 354.359375 277.75 356.082031 282.589844 356.082031 288.964844 C 356.082031 294.234375 354.980469 299.601562 351.195312 303.433594 C 350.765625 303.816406 350.765625 303.863281 350.765625 303.960938 C 350.765625 304.152344 350.910156 304.296875 351.101562 304.296875 C 351.386719 304.296875 354.167969 302.1875 355.9375 298.304688 C 357.519531 294.953125 357.855469 291.550781 357.855469 288.964844 Z M 357.855469 288.964844 "/>
<path fill-rule="nonzero" fill="rgb(50.196078%, 50.196078%, 50.196078%)" fill-opacity="1" d="M 39.476562 161.929688 C 39.332031 161.597656 39.191406 161.355469 38.804688 161.355469 C 38.472656 161.355469 38.183594 161.597656 38.183594 161.980469 C 38.183594 162.121094 38.328125 162.410156 38.375 162.507812 L 46.375 179.417969 C 46.617188 179.945312 46.808594 180.042969 47.046875 180.042969 C 47.335938 180.042969 47.527344 179.851562 47.71875 179.417969 L 55.671875 162.507812 C 55.910156 162.121094 55.910156 162.074219 55.910156 161.980469 C 55.910156 161.644531 55.625 161.355469 55.289062 161.355469 C 55 161.355469 54.808594 161.5 54.570312 162.027344 L 47.046875 177.980469 Z M 61.804688 162.457031 C 61.804688 161.929688 61.804688 161.355469 61.230469 161.355469 C 60.605469 161.355469 60.605469 162.027344 60.605469 162.457031 L 60.605469 178.941406 C 60.605469 179.417969 60.605469 180.042969 61.230469 180.042969 C 61.804688 180.042969 61.804688 179.515625 61.804688 178.988281 Z M 61.804688 162.457031 "/>
<path fill-rule="nonzero" fill="rgb(100%, 12.941176%, 32.156863%)" fill-opacity="1" stroke-width="0.3985" stroke-linecap="butt" stroke-linejoin="miter" stroke="rgb(100%, 12.941176%, 32.156863%)" stroke-opacity="1" stroke-miterlimit="10" d="M 79.948842 62.364027 C 79.948842 63.465948 79.054567 64.356402 77.957742 64.356402 C 76.855822 64.356402 75.965368 63.465948 75.965368 62.364027 C 75.965368 61.263381 76.855822 60.372927 77.957742 60.372927 C 79.054567 60.372927 79.948842 61.263381 79.948842 62.364027 Z M 79.948842 62.364027 " transform="matrix(3.066379, 0, 0, -3.066379, 2.143399, 384.606763)"/>
</svg>
