<?xml version="1.0" encoding="UTF-8"?>
<svg xmlns="http://www.w3.org/2000/svg" xmlns:xlink="http://www.w3.org/1999/xlink" width="400" height="302.860766" viewBox="0 0 400 302.860766">
<path fill-rule="nonzero" fill="rgb(6.666667%, 52.941176%, 87.058824%)" fill-opacity="1" d="M 33.683594 288.679688 C 31.621094 288.511719 31.453125 288.175781 30.953125 285.613281 L 27.609375 265.5 L 26.71875 265.5 L 16.410156 283.273438 C 13.570312 288.007812 13.234375 288.398438 11.785156 288.679688 L 11.785156 289.234375 L 18.472656 289.234375 L 18.472656 288.679688 C 16.632812 288.511719 16.355469 288.289062 16.355469 287.398438 C 16.355469 286.726562 16.46875 286.449219 17.078125 285.222656 L 19.085938 281.210938 L 26.941406 281.210938 L 27.609375 285.835938 C 27.667969 286.171875 27.722656 286.503906 27.722656 286.785156 C 27.722656 288.121094 27.21875 288.457031 24.9375 288.679688 L 24.9375 289.234375 L 33.683594 289.234375 Z M 19.867188 279.929688 L 25.160156 270.679688 L 26.71875 279.929688 Z M 19.867188 279.929688 "/>
<path fill-rule="nonzero" fill="rgb(6.666667%, 52.941176%, 87.058824%)" fill-opacity="1" d="M 385.078125 20.949219 L 386.414062 13.871094 L 385.632812 13.871094 C 385.355469 14.484375 385.019531 14.652344 384.296875 14.652344 C 384.019531 14.652344 383.570312 14.597656 382.847656 14.429688 C 381.230469 14.039062 379.839844 13.816406 378.667969 13.816406 C 371.089844 13.816406 364.238281 20.949219 364.238281 28.859375 C 364.238281 34.320312 368.082031 38.109375 373.542969 38.109375 C 377.164062 38.109375 380.007812 36.546875 383.238281 32.816406 L 382.625 32.3125 C 379.449219 35.488281 377.386719 36.546875 374.433594 36.546875 C 370.480469 36.546875 368.25 33.816406 368.25 29.25 C 368.25 25.015625 369.921875 20.726562 372.707031 17.828125 C 374.433594 16.101562 376.664062 15.097656 379.003906 15.097656 C 382.289062 15.097656 384.074219 17.046875 384.40625 20.835938 Z M 385.078125 20.949219 "/>
<path fill-rule="nonzero" fill="rgb(6.666667%, 52.941176%, 87.058824%)" fill-opacity="1" d="M 363.398438 288.417969 L 373.429688 288.417969 C 379 288.417969 382.84375 285.523438 382.84375 281.285156 C 382.84375 280.003906 382.398438 278.722656 381.617188 277.945312 C 380.894531 277.164062 380.226562 276.71875 378.332031 275.9375 C 380.894531 275.324219 381.898438 274.933594 383.066406 273.933594 C 384.070312 273.039062 384.570312 271.871094 384.570312 270.421875 C 384.570312 267.078125 382.0625 265.183594 377.496094 265.183594 L 368.300781 265.183594 L 368.300781 265.796875 C 370.476562 265.964844 371.03125 266.242188 371.03125 267.246094 C 371.03125 267.746094 370.921875 268.640625 370.640625 269.53125 L 366.296875 285.242188 C 365.628906 287.304688 365.40625 287.472656 363.398438 287.863281 Z M 372.148438 276.664062 C 374.429688 276.664062 375.933594 276.773438 376.660156 277.050781 C 378.109375 277.664062 379 279.226562 379 281.175781 C 379 285.019531 376.382812 287.359375 372.035156 287.359375 C 370.53125 287.359375 369.75 286.804688 369.75 285.855469 C 369.75 285.410156 370.195312 283.738281 370.976562 280.898438 C 371.476562 279.28125 371.699219 278.445312 372.148438 276.664062 Z M 374.820312 267.246094 C 375.042969 266.464844 375.433594 266.300781 376.828125 266.300781 C 379.667969 266.300781 381.003906 267.46875 381.003906 270.085938 C 381.003906 272.148438 380.113281 273.710938 378.609375 274.546875 C 377.382812 275.269531 375.710938 275.492188 372.480469 275.492188 Z M 374.820312 267.246094 "/>
<path fill="none" stroke-width="0.79701" stroke-linecap="butt" stroke-linejoin="miter" stroke="rgb(6.666667%, 52.941176%, 87.058824%)" stroke-opacity="1" stroke-miterlimit="10" d="M -0.00129452 -0.000931473 L 85.042049 56.693536 L 85.042049 -0.000931473 L -0.00129452 -0.000931473 " transform="matrix(3.565921, 0, 0, -3.565921, 47.879616, 252.813085)"/>
<path fill="none" stroke-width="0.3985" stroke-linecap="butt" stroke-linejoin="miter" stroke="rgb(100%, 12.941176%, 32.156863%)" stroke-opacity="1" stroke-miterlimit="10" d="M 28.346487 -0.000931473 C 28.346487 5.596764 26.690182 11.068484 23.584612 15.725197 " transform="matrix(3.565921, 0, 0, -3.565921, 47.879616, 252.813085)"/>
<path fill-rule="nonzero" fill="rgb(100%, 12.941176%, 32.156863%)" fill-opacity="1" d="M 113.855469 225.929688 L 110.679688 232.058594 C 110.457031 227.765625 108.675781 225.484375 105.445312 225.484375 C 103.773438 225.484375 101.933594 226.152344 100.429688 227.265625 C 98.144531 228.9375 96.75 231.5 96.140625 235.011719 C 95.191406 240.695312 97.421875 244.148438 102.046875 244.148438 C 105.164062 244.148438 107.726562 242.585938 109.734375 239.410156 C 109.789062 240.082031 109.957031 240.695312 110.179688 241.585938 C 110.792969 243.589844 111.292969 244.148438 112.464844 244.148438 C 113.632812 244.148438 114.527344 243.421875 115.25 241.917969 C 115.640625 241.082031 115.863281 240.304688 116.253906 238.351562 L 115.304688 238.351562 C 114.972656 240.136719 114.078125 241.472656 113.1875 241.472656 C 112.019531 241.472656 111.128906 239.578125 111.128906 237.128906 L 117.03125 225.929688 Z M 109.121094 235.121094 L 107.894531 237.460938 C 106.058594 241.082031 104.328125 242.8125 102.546875 242.8125 C 101.433594 242.8125 100.484375 242.085938 100.039062 241.082031 C 99.539062 239.636719 99.480469 237.351562 99.929688 234.789062 C 100.375 232.28125 101.210938 230.105469 102.378906 228.546875 C 103.214844 227.488281 104.105469 226.988281 105.164062 226.988281 C 107.726562 226.988281 109.007812 229.046875 109.066406 233.058594 Z M 109.121094 235.121094 "/>
<path fill="none" stroke-width="0.3985" stroke-linecap="butt" stroke-linejoin="miter" stroke="rgb(6.666667%, 52.941176%, 87.058824%)" stroke-opacity="1" stroke-miterlimit="10" d="M 70.865968 -0.000931473 L 70.865968 14.174055 L 85.042049 14.174055 " transform="matrix(3.565921, 0, 0, -3.565921, 47.879616, 252.813085)"/>
<path fill-rule="nonzero" fill="rgb(6.666667%, 52.941176%, 87.058824%)" fill-opacity="1" d="M 71.632812 50.980469 L 71.464844 46.132812 L 71.074219 46.132812 L 71.019531 46.191406 C 70.683594 46.46875 70.683594 46.46875 70.515625 46.46875 C 70.292969 46.46875 69.960938 46.414062 69.570312 46.246094 C 68.789062 45.96875 68.007812 45.800781 67.0625 45.800781 C 64.277344 45.800781 62.269531 47.640625 62.269531 50.203125 C 62.269531 52.152344 63.382812 53.601562 66.394531 55.328125 L 68.453125 56.496094 C 69.738281 57.167969 70.292969 58.058594 70.292969 59.117188 C 70.292969 60.675781 69.179688 61.679688 67.339844 61.679688 C 66.171875 61.679688 65.054688 61.234375 64.386719 60.453125 C 63.609375 59.5625 63.328125 58.726562 62.828125 56.722656 L 62.269531 56.722656 L 62.269531 62.292969 L 62.714844 62.292969 C 62.996094 61.902344 63.105469 61.847656 63.550781 61.847656 C 63.886719 61.847656 64.386719 61.902344 65.167969 62.125 C 66.171875 62.347656 67.171875 62.460938 67.785156 62.460938 C 70.515625 62.460938 72.800781 60.398438 72.800781 57.945312 C 72.800781 56.164062 71.964844 54.992188 69.792969 53.710938 L 66.003906 51.425781 C 65 50.871094 64.441406 49.980469 64.441406 49.03125 C 64.441406 47.582031 65.558594 46.582031 67.171875 46.582031 C 69.234375 46.582031 70.292969 47.804688 71.074219 50.980469 Z M 71.632812 50.980469 "/>
<path fill-rule="nonzero" fill="rgb(6.666667%, 52.941176%, 87.058824%)" fill-opacity="1" d="M 88.738281 56.273438 C 87.066406 59.003906 85.507812 60.007812 83.222656 60.007812 C 81.214844 60.007812 79.710938 59.003906 78.652344 56.945312 C 78.039062 55.605469 77.761719 54.4375 77.707031 52.261719 L 88.625 52.261719 C 88.347656 49.980469 88.011719 48.921875 87.121094 47.804688 C 86.0625 46.523438 84.390625 45.800781 82.554688 45.800781 C 80.769531 45.800781 79.097656 46.414062 77.761719 47.640625 C 76.089844 49.085938 75.144531 51.59375 75.144531 54.492188 C 75.144531 59.449219 77.707031 62.460938 81.773438 62.460938 C 85.171875 62.460938 87.847656 60.398438 89.351562 56.554688 Z M 77.761719 51.148438 C 78.152344 48.363281 79.378906 47.027344 81.550781 47.027344 C 83.722656 47.027344 84.558594 48.027344 85.003906 51.148438 Z M 77.761719 51.148438 "/>
<path fill-rule="nonzero" fill="rgb(6.666667%, 52.941176%, 87.058824%)" fill-opacity="1" d="M 90.582031 47.972656 C 90.804688 47.863281 91.140625 47.863281 91.527344 47.863281 C 92.53125 47.863281 92.867188 48.363281 92.867188 50.089844 L 92.867188 58.949219 C 92.867188 60.957031 92.476562 61.457031 90.636719 61.566406 L 90.636719 62.125 L 98.214844 62.125 L 98.214844 61.566406 C 96.375 61.457031 95.875 61.011719 95.875 59.730469 L 95.875 49.757812 C 97.546875 48.140625 98.328125 47.75 99.496094 47.75 C 101.28125 47.75 102.117188 48.808594 102.117188 51.148438 L 102.117188 58.617188 C 102.117188 60.84375 101.667969 61.457031 99.886719 61.566406 L 99.886719 62.125 L 107.242188 62.125 L 107.242188 61.566406 C 105.515625 61.402344 105.125 61.011719 105.125 59.226562 L 105.125 51.09375 C 105.125 47.75 103.507812 45.800781 100.890625 45.800781 C 99.273438 45.800781 98.160156 46.355469 95.761719 48.640625 L 95.761719 45.855469 L 95.484375 45.800781 C 93.757812 46.414062 92.53125 46.804688 90.582031 47.359375 Z M 90.582031 47.972656 "/>
<path fill-rule="nonzero" fill="rgb(6.666667%, 52.941176%, 87.058824%)" fill-opacity="1" d="M 119.542969 70.648438 C 119.542969 70.539062 119.542969 70.484375 118.929688 69.871094 C 114.527344 65.414062 113.359375 58.671875 113.359375 53.210938 C 113.359375 47.027344 114.695312 40.839844 119.097656 36.441406 C 119.542969 35.992188 119.542969 35.9375 119.542969 35.828125 C 119.542969 35.546875 119.433594 35.4375 119.210938 35.4375 C 118.820312 35.4375 115.644531 37.886719 113.527344 42.402344 C 111.742188 46.300781 111.296875 50.257812 111.296875 53.210938 C 111.296875 55.996094 111.6875 60.285156 113.636719 64.355469 C 115.808594 68.699219 118.820312 71.039062 119.210938 71.039062 C 119.433594 71.039062 119.542969 70.929688 119.542969 70.648438 Z M 119.542969 70.648438 "/>
<path fill-rule="nonzero" fill="rgb(6.666667%, 52.941176%, 87.058824%)" fill-opacity="1" d="M 142.1875 44.351562 L 139.011719 50.480469 C 138.789062 46.191406 137.007812 43.90625 133.773438 43.90625 C 132.105469 43.90625 130.265625 44.574219 128.761719 45.6875 C 126.476562 47.359375 125.082031 49.921875 124.46875 53.433594 C 123.523438 59.117188 125.75 62.570312 130.375 62.570312 C 133.496094 62.570312 136.058594 61.011719 138.066406 57.835938 C 138.121094 58.503906 138.289062 59.117188 138.511719 60.007812 C 139.125 62.015625 139.625 62.570312 140.796875 62.570312 C 141.964844 62.570312 142.855469 61.847656 143.582031 60.34375 C 143.972656 59.507812 144.195312 58.726562 144.585938 56.777344 L 143.636719 56.777344 C 143.304688 58.558594 142.410156 59.898438 141.519531 59.898438 C 140.351562 59.898438 139.457031 58.003906 139.457031 55.550781 L 145.363281 44.351562 Z M 137.453125 53.546875 L 136.226562 55.886719 C 134.386719 59.507812 132.660156 61.234375 130.878906 61.234375 C 129.761719 61.234375 128.816406 60.507812 128.371094 59.507812 C 127.867188 58.058594 127.8125 55.773438 128.257812 53.210938 C 128.703125 50.703125 129.539062 48.53125 130.710938 46.96875 C 131.546875 45.910156 132.4375 45.410156 133.496094 45.410156 C 136.058594 45.410156 137.339844 47.472656 137.398438 51.484375 Z M 137.453125 53.546875 "/>
<path fill-rule="nonzero" fill="rgb(6.666667%, 52.941176%, 87.058824%)" fill-opacity="1" d="M 157.1875 53.210938 C 157.1875 50.480469 156.800781 46.191406 154.847656 42.121094 C 152.730469 37.777344 149.667969 35.4375 149.332031 35.4375 C 149.109375 35.4375 148.941406 35.605469 148.941406 35.828125 C 148.941406 35.9375 148.941406 35.992188 149.613281 36.664062 C 153.121094 40.171875 155.128906 45.800781 155.128906 53.210938 C 155.128906 59.339844 153.847656 65.578125 149.445312 70.039062 C 148.941406 70.484375 148.941406 70.539062 148.941406 70.648438 C 148.941406 70.875 149.109375 71.039062 149.332031 71.039062 C 149.667969 71.039062 152.898438 68.589844 154.960938 64.074219 C 156.800781 60.175781 157.1875 56.21875 157.1875 53.210938 Z M 157.1875 53.210938 "/>
<path fill-rule="nonzero" fill="rgb(6.666667%, 52.941176%, 87.058824%)" fill-opacity="1" d="M 193.007812 50.480469 C 193.566406 50.480469 194.234375 50.480469 194.234375 49.8125 C 194.234375 49.085938 193.566406 49.085938 193.066406 49.085938 L 171.78125 49.085938 C 171.277344 49.085938 170.609375 49.085938 170.609375 49.8125 C 170.609375 50.480469 171.277344 50.480469 171.78125 50.480469 Z M 193.066406 57.390625 C 193.566406 57.390625 194.234375 57.390625 194.234375 56.664062 C 194.234375 55.996094 193.566406 55.996094 193.007812 55.996094 L 171.78125 55.996094 C 171.277344 55.996094 170.609375 55.996094 170.609375 56.664062 C 170.609375 57.390625 171.277344 57.390625 171.78125 57.390625 Z M 193.066406 57.390625 "/>
<path fill-rule="nonzero" fill="rgb(6.666667%, 52.941176%, 87.058824%)" fill-opacity="1" d="M 208.097656 38.074219 L 218.125 38.074219 C 223.695312 38.074219 227.542969 35.175781 227.542969 30.941406 C 227.542969 29.660156 227.09375 28.378906 226.316406 27.597656 C 225.589844 26.820312 224.921875 26.371094 223.027344 25.59375 C 225.589844 24.980469 226.59375 24.589844 227.765625 23.585938 C 228.765625 22.695312 229.269531 21.523438 229.269531 20.078125 C 229.269531 16.734375 226.761719 14.839844 222.191406 14.839844 L 213 14.839844 L 213 15.453125 C 215.171875 15.621094 215.730469 15.898438 215.730469 16.902344 C 215.730469 17.402344 215.617188 18.292969 215.339844 19.183594 L 210.992188 34.898438 C 210.324219 36.957031 210.101562 37.125 208.097656 37.515625 Z M 216.84375 26.316406 C 219.128906 26.316406 220.632812 26.429688 221.355469 26.707031 C 222.804688 27.320312 223.695312 28.878906 223.695312 30.828125 C 223.695312 34.675781 221.078125 37.015625 216.730469 37.015625 C 215.226562 37.015625 214.449219 36.457031 214.449219 35.511719 C 214.449219 35.066406 214.894531 33.394531 215.671875 30.550781 C 216.175781 28.9375 216.398438 28.101562 216.84375 26.316406 Z M 219.519531 16.902344 C 219.742188 16.121094 220.132812 15.953125 221.523438 15.953125 C 224.367188 15.953125 225.703125 17.125 225.703125 19.742188 C 225.703125 21.804688 224.8125 23.363281 223.308594 24.199219 C 222.082031 24.925781 220.410156 25.148438 217.179688 25.148438 Z M 219.519531 16.902344 "/>
<path fill-rule="nonzero" fill="rgb(6.666667%, 52.941176%, 87.058824%)" fill-opacity="1" d="M 251.484375 21.523438 L 252.820312 14.449219 L 252.039062 14.449219 C 251.761719 15.0625 251.425781 15.230469 250.703125 15.230469 C 250.425781 15.230469 249.980469 15.171875 249.253906 15.007812 C 247.636719 14.617188 246.246094 14.394531 245.074219 14.394531 C 237.496094 14.394531 230.644531 21.523438 230.644531 29.4375 C 230.644531 34.898438 234.488281 38.6875 239.949219 38.6875 C 243.570312 38.6875 246.414062 37.125 249.644531 33.394531 L 249.03125 32.890625 C 245.855469 36.066406 243.792969 37.125 240.839844 37.125 C 236.886719 37.125 234.65625 34.394531 234.65625 29.828125 C 234.65625 25.59375 236.328125 21.300781 239.113281 18.40625 C 240.839844 16.679688 243.070312 15.675781 245.410156 15.675781 C 248.695312 15.675781 250.480469 17.625 250.8125 21.414062 Z M 251.484375 21.523438 "/>
<path fill="none" stroke-width="0.398" stroke-linecap="butt" stroke-linejoin="miter" stroke="rgb(6.666667%, 52.941176%, 87.058824%)" stroke-opacity="1" stroke-miterlimit="10" d="M -0.000976438 0.00125591 L 12.451979 0.00125591 " transform="matrix(3.565921, 0, 0, -3.565921, 208.374576, 53.24276)"/>
<path fill-rule="nonzero" fill="rgb(6.666667%, 52.941176%, 87.058824%)" fill-opacity="1" d="M 228.96875 85.9375 C 226.90625 85.769531 226.738281 85.4375 226.238281 82.875 L 222.894531 62.757812 L 222.003906 62.757812 L 211.695312 80.53125 C 208.855469 85.269531 208.519531 85.660156 207.070312 85.9375 L 207.070312 86.496094 L 213.757812 86.496094 L 213.757812 85.9375 C 211.917969 85.769531 211.640625 85.546875 211.640625 84.65625 C 211.640625 83.988281 211.75 83.710938 212.363281 82.484375 L 214.371094 78.472656 L 222.226562 78.472656 L 222.894531 83.097656 C 222.949219 83.429688 223.007812 83.765625 223.007812 84.042969 C 223.007812 85.378906 222.503906 85.714844 220.21875 85.9375 L 220.21875 86.496094 L 228.96875 86.496094 Z M 215.148438 77.191406 L 220.441406 67.941406 L 222.003906 77.191406 Z M 215.148438 77.191406 "/>
<path fill-rule="nonzero" fill="rgb(6.666667%, 52.941176%, 87.058824%)" fill-opacity="1" d="M 250.953125 69.945312 L 252.289062 62.871094 L 251.507812 62.871094 C 251.230469 63.484375 250.894531 63.652344 250.171875 63.652344 C 249.894531 63.652344 249.449219 63.59375 248.722656 63.429688 C 247.109375 63.039062 245.714844 62.816406 244.542969 62.816406 C 236.96875 62.816406 230.113281 69.945312 230.113281 77.859375 C 230.113281 83.320312 233.957031 87.109375 239.417969 87.109375 C 243.039062 87.109375 245.882812 85.546875 249.113281 81.816406 L 248.5 81.3125 C 245.324219 84.488281 243.261719 85.546875 240.308594 85.546875 C 236.355469 85.546875 234.125 82.816406 234.125 78.25 C 234.125 74.015625 235.796875 69.722656 238.582031 66.828125 C 240.308594 65.097656 242.539062 64.097656 244.878906 64.097656 C 248.167969 64.097656 249.949219 66.046875 250.285156 69.835938 Z M 250.953125 69.945312 "/>
</svg>
