<?xml version="1.0" encoding="UTF-8"?>
<svg xmlns="http://www.w3.org/2000/svg" xmlns:xlink="http://www.w3.org/1999/xlink" width="635.007753" height="428.10974" viewBox="0 0 635.007753 428.10974">
<defs>
<clipPath id="clip-0">
<path clip-rule="nonzero" d="M 162 28 L 179 28 L 179 428.109375 L 162 428.109375 Z M 162 28 "/>
</clipPath>
</defs>
<path fill-rule="nonzero" fill="rgb(7.843018%, 53.33252%, 87.057495%)" fill-opacity="0.996078" d="M 280.441406 153.289062 C 281.195312 153.289062 281.636719 152.820312 281.636719 152.015625 C 281.636719 151.207031 281.144531 150.660156 280.414062 150.660156 C 278.175781 150.660156 276.09375 154.929688 275.546875 156.359375 L 276.925781 150.714844 L 276.847656 150.660156 C 274.949219 151 274.714844 151.050781 272.816406 151.363281 L 272.816406 151.804688 C 273.441406 151.675781 273.519531 151.675781 273.699219 151.675781 C 274.273438 151.675781 274.613281 151.9375 274.613281 152.40625 C 274.613281 152.925781 274.585938 153.105469 274.195312 154.539062 L 272.085938 162.136719 L 274.066406 162.136719 C 275.417969 157.714844 275.859375 156.59375 277.058594 154.617188 C 277.917969 153.160156 278.644531 152.351562 279.085938 152.351562 C 279.660156 152.351562 279.296875 153.289062 280.441406 153.289062 Z M 280.441406 153.289062 "/>
<path fill-rule="nonzero" fill="rgb(7.843018%, 53.33252%, 87.057495%)" fill-opacity="0.996078" d="M 296.46875 152.09375 L 283.355469 152.09375 L 283.355469 153.808594 L 296.46875 153.808594 Z M 296.46875 157.296875 L 283.355469 157.296875 L 283.355469 159.015625 L 296.46875 159.015625 Z M 296.46875 157.296875 "/>
<path fill-rule="nonzero" fill="rgb(7.843018%, 53.33252%, 87.057495%)" fill-opacity="0.996078" d="M 298.371094 165.859375 C 298.371094 165.3125 297.902344 164.867188 297.355469 164.867188 C 296.808594 164.867188 296.390625 165.335938 296.390625 165.9375 C 296.390625 166.820312 297.300781 167.523438 298.449219 167.523438 C 300.761719 167.523438 302.585938 164.945312 303.652344 160.160156 L 305.527344 151.832031 L 308.363281 151.832031 L 308.519531 151 L 305.707031 151 C 306.460938 146.914062 307.425781 145.066406 308.882812 145.066406 C 309.222656 145.066406 309.453125 145.195312 309.453125 145.378906 C 309.453125 145.5625 309.195312 145.792969 309.195312 146.183594 C 309.195312 146.808594 309.585938 147.226562 310.15625 147.226562 C 310.757812 147.226562 311.25 146.757812 311.25 146.183594 C 311.25 145.222656 310.289062 144.492188 309.011719 144.492188 C 305.835938 144.492188 304.5625 148.214844 303.703125 151 L 301.308594 151 L 301.128906 151.832031 L 303.46875 151.832031 L 301.179688 162.761719 C 300.605469 165.546875 299.75 166.976562 298.65625 166.976562 C 298.34375 166.976562 298.136719 166.792969 298.136719 166.558594 C 298.136719 166.300781 298.371094 166.25 298.371094 165.859375 Z M 298.371094 165.859375 "/>
<path fill-rule="nonzero" fill="rgb(7.843018%, 53.33252%, 87.057495%)" fill-opacity="0.996078" d="M 313.097656 166.847656 L 313.566406 166.691406 C 312.628906 164.0625 312.316406 162.421875 312.316406 159.925781 C 312.316406 156.800781 313.070312 153.054688 314.269531 150.167969 C 315.101562 148.109375 315.933594 146.886719 317.625 145.117188 L 317.289062 144.726562 C 315.257812 146.574219 310.523438 150.347656 310.523438 157.453125 C 310.523438 161.304688 311.355469 163.671875 313.097656 166.847656 Z M 313.097656 166.847656 "/>
<path fill-rule="nonzero" fill="rgb(7.843018%, 53.33252%, 87.057495%)" fill-opacity="0.996078" d="M 322.492188 162.421875 C 328.035156 162.421875 331.027344 154.355469 331.027344 149.777344 C 331.027344 147.199219 330.140625 144.648438 327.125 144.648438 C 321.527344 144.648438 318.746094 152.976562 318.746094 157.558594 C 318.746094 160.210938 320.332031 162.421875 322.492188 162.421875 Z M 328.292969 152.820312 L 321.839844 152.820312 C 322.441406 150.425781 323.84375 145.25 326.96875 145.25 C 328.683594 145.25 328.839844 146.964844 328.839844 148.34375 C 328.839844 149.90625 328.660156 151.335938 328.292969 152.820312 Z M 328.140625 153.445312 C 327.515625 155.996094 326.003906 161.824219 322.621094 161.824219 C 321.164062 161.824219 320.929688 160.132812 320.929688 158.726562 C 320.929688 156.90625 321.242188 155.1875 321.683594 153.445312 Z M 328.140625 153.445312 "/>
<path fill-rule="nonzero" fill="rgb(7.843018%, 53.33252%, 87.057495%)" fill-opacity="0.996078" d="M 336.648438 144.726562 L 336.152344 144.859375 C 337.039062 146.964844 337.429688 149.074219 337.429688 151.675781 C 337.429688 154.980469 336.542969 159.195312 335.242188 161.980469 C 334.488281 163.671875 333.707031 164.765625 332.121094 166.429688 L 332.457031 166.820312 C 336.621094 163.203125 339.222656 159.585938 339.222656 154.226562 C 339.222656 150.296875 338.261719 147.617188 336.648438 144.726562 Z M 336.648438 144.726562 "/>
<path fill-rule="nonzero" fill="rgb(100%, 12.940979%, 32.156372%)" fill-opacity="1" d="M 195.996094 317.304688 C 196.75 317.304688 197.191406 316.835938 197.191406 316.027344 C 197.191406 315.222656 196.695312 314.675781 195.96875 314.675781 C 193.730469 314.675781 191.648438 318.941406 191.101562 320.375 L 192.480469 314.726562 L 192.402344 314.675781 C 190.503906 315.011719 190.269531 315.066406 188.371094 315.378906 L 188.371094 315.820312 C 188.996094 315.691406 189.074219 315.691406 189.253906 315.691406 C 189.828125 315.691406 190.164062 315.949219 190.164062 316.417969 C 190.164062 316.9375 190.140625 317.121094 189.75 318.550781 L 187.640625 326.152344 L 189.617188 326.152344 C 190.972656 321.726562 191.414062 320.609375 192.609375 318.628906 C 193.46875 317.171875 194.199219 316.367188 194.640625 316.367188 C 195.214844 316.367188 194.847656 317.304688 195.996094 317.304688 Z M 195.996094 317.304688 "/>
<path fill-rule="nonzero" fill="rgb(100%, 12.940979%, 32.156372%)" fill-opacity="1" d="M 212.023438 316.105469 L 198.910156 316.105469 L 198.910156 317.824219 L 212.023438 317.824219 Z M 212.023438 321.308594 L 198.910156 321.308594 L 198.910156 323.027344 L 212.023438 323.027344 Z M 212.023438 321.308594 "/>
<path fill-rule="nonzero" fill="rgb(100%, 12.940979%, 32.156372%)" fill-opacity="1" d="M 220.84375 314.675781 C 217.957031 314.675781 215.613281 316.679688 215.613281 319.125 C 215.613281 320.476562 216.1875 321.257812 217.671875 321.933594 C 216.136719 322.976562 215.667969 323.496094 215.667969 324.121094 C 215.667969 324.460938 215.875 324.769531 216.371094 325.136719 C 213.792969 326.828125 213.324219 327.347656 213.324219 328.542969 C 213.324219 330.339844 215.042969 331.511719 217.671875 331.511719 C 220.949219 331.511719 223.136719 329.976562 223.136719 327.710938 C 223.136719 324.09375 217.59375 324.511719 217.59375 323.183594 C 217.59375 322.792969 218.191406 322.117188 218.527344 322.117188 C 218.683594 322.117188 218.894531 322.222656 219.519531 322.222656 C 221.886719 322.222656 224.332031 320.113281 224.332031 318.082031 C 224.332031 317.667969 224.253906 317.148438 224.097656 316.625 L 225.398438 316.625 L 225.398438 315.613281 L 223.8125 315.613281 C 223.421875 315.613281 222.875 314.675781 220.84375 314.675781 Z M 216.96875 325.421875 C 218.839844 326.203125 221.574219 326.515625 221.574219 328.492188 C 221.574219 329.898438 220.066406 330.9375 218.0625 330.9375 C 215.980469 330.9375 214.757812 329.949219 214.757812 328.285156 C 214.757812 326.488281 216.890625 325.449219 216.96875 325.421875 Z M 219.207031 321.675781 C 218.21875 321.675781 217.644531 320.945312 217.644531 319.722656 C 217.644531 317.328125 219.128906 315.246094 220.820312 315.246094 C 221.78125 315.246094 222.277344 315.871094 222.277344 317.09375 C 222.277344 318.890625 221.132812 321.675781 219.207031 321.675781 Z M 219.207031 321.675781 "/>
<path fill-rule="nonzero" fill="rgb(100%, 12.940979%, 32.156372%)" fill-opacity="1" d="M 229.066406 330.859375 L 229.535156 330.703125 C 228.601562 328.078125 228.289062 326.4375 228.289062 323.9375 C 228.289062 320.816406 229.042969 317.070312 230.238281 314.179688 C 231.070312 312.125 231.90625 310.902344 233.597656 309.132812 L 233.257812 308.742188 C 231.226562 310.589844 226.492188 314.363281 226.492188 321.464844 C 226.492188 325.316406 227.324219 327.6875 229.066406 330.859375 Z M 229.066406 330.859375 "/>
<path fill-rule="nonzero" fill="rgb(100%, 12.940979%, 32.156372%)" fill-opacity="1" d="M 238.460938 326.4375 C 244.003906 326.4375 246.996094 318.371094 246.996094 313.789062 C 246.996094 311.214844 246.113281 308.664062 243.09375 308.664062 C 237.5 308.664062 234.714844 316.992188 234.714844 321.570312 C 234.714844 324.226562 236.300781 326.4375 238.460938 326.4375 Z M 244.265625 316.835938 L 237.8125 316.835938 C 238.410156 314.441406 239.816406 309.261719 242.9375 309.261719 C 244.65625 309.261719 244.8125 310.980469 244.8125 312.359375 C 244.8125 313.921875 244.628906 315.351562 244.265625 316.835938 Z M 244.109375 317.460938 C 243.484375 320.007812 241.976562 325.839844 238.59375 325.839844 C 237.136719 325.839844 236.902344 324.148438 236.902344 322.742188 C 236.902344 320.921875 237.214844 319.203125 237.65625 317.460938 Z M 244.109375 317.460938 "/>
<path fill-rule="nonzero" fill="rgb(100%, 12.940979%, 32.156372%)" fill-opacity="1" d="M 252.617188 308.742188 L 252.125 308.871094 C 253.007812 310.980469 253.398438 313.085938 253.398438 315.691406 C 253.398438 318.996094 252.515625 323.210938 251.214844 325.996094 C 250.457031 327.6875 249.679688 328.777344 248.089844 330.445312 L 248.429688 330.835938 C 252.59375 327.21875 255.195312 323.601562 255.195312 318.238281 C 255.195312 314.308594 254.230469 311.628906 252.617188 308.742188 Z M 252.617188 308.742188 "/>
<path fill-rule="nonzero" fill="rgb(50.195312%, 50.195312%, 50.195312%)" fill-opacity="1" d="M 47.652344 71.613281 C 53.195312 71.613281 56.1875 63.546875 56.1875 58.96875 C 56.1875 56.390625 55.300781 53.839844 52.285156 53.839844 C 46.6875 53.839844 43.902344 62.167969 43.902344 66.75 C 43.902344 69.402344 45.492188 71.613281 47.652344 71.613281 Z M 53.453125 62.011719 L 47 62.011719 C 47.597656 59.617188 49.003906 54.441406 52.128906 54.441406 C 53.84375 54.441406 54 56.15625 54 57.535156 C 54 59.097656 53.820312 60.527344 53.453125 62.011719 Z M 53.296875 62.636719 C 52.671875 65.1875 51.164062 71.015625 47.78125 71.015625 C 46.324219 71.015625 46.089844 69.324219 46.089844 67.917969 C 46.089844 66.097656 46.402344 64.378906 46.84375 62.636719 Z M 53.296875 62.636719 "/>
<path fill-rule="nonzero" fill="rgb(50.195312%, 50.195312%, 50.195312%)" fill-opacity="1" d="M 72.214844 61.285156 L 59.101562 61.285156 L 59.101562 63 L 72.214844 63 Z M 72.214844 66.488281 L 59.101562 66.488281 L 59.101562 68.207031 L 72.214844 68.207031 Z M 72.214844 66.488281 "/>
<path fill-rule="nonzero" fill="rgb(50.195312%, 50.195312%, 50.195312%)" fill-opacity="1" d="M 77.054688 54.597656 C 78.589844 54.648438 78.746094 54.726562 78.746094 55.296875 C 78.746094 55.636719 78.433594 56.730469 78.332031 57.09375 L 74.792969 70.132812 C 74.792969 70.859375 76.691406 71.613281 78.253906 71.613281 C 82.183594 71.613281 86.503906 67.0625 86.503906 62.976562 C 86.503906 61.152344 85.226562 59.851562 83.484375 59.851562 C 81.664062 59.851562 80.308594 60.917969 78.460938 63.78125 L 81.167969 53.683594 L 81.039062 53.554688 C 79.738281 53.789062 78.800781 53.945312 77.054688 54.152344 Z M 78.226562 71.015625 C 77.421875 71.015625 77.03125 70.730469 77.03125 70.132812 C 77.03125 68.074219 79.136719 61.128906 82.46875 61.128906 C 83.585938 61.128906 84.289062 61.984375 84.289062 63.367188 C 84.289062 65.109375 82.050781 71.015625 78.226562 71.015625 Z M 78.226562 71.015625 "/>
<path fill-rule="nonzero" fill="rgb(50.195312%, 50.195312%, 50.195312%)" fill-opacity="1" d="M 154.148438 5.257812 L 154.148438 5.703125 C 154.484375 5.625 154.667969 5.597656 154.953125 5.597656 C 156.4375 5.597656 156.828125 6.25 158.023438 10.722656 C 158.46875 12.414062 159.089844 15.460938 159.089844 15.902344 C 159.089844 16.890625 156.566406 20.039062 155.734375 20.039062 C 155.371094 20.039062 154.746094 19.3125 154.148438 19.3125 C 153.574219 19.3125 153.132812 19.753906 153.132812 20.328125 C 153.132812 20.976562 153.703125 21.472656 154.460938 21.472656 C 157.582031 21.472656 164.84375 9.398438 164.84375 6.066406 C 164.84375 5.285156 164.191406 4.636719 163.410156 4.636719 C 162.8125 4.636719 162.394531 5.023438 162.394531 5.597656 C 162.394531 6.664062 163.800781 6.535156 163.800781 7.496094 C 163.800781 8.539062 162.839844 10.566406 160.625 14.238281 L 160.105469 11.21875 C 159.714844 8.929688 158.257812 4.636719 157.867188 4.636719 C 157.007812 4.714844 156.671875 4.792969 154.148438 5.257812 Z M 154.148438 5.257812 "/>
<path fill-rule="nonzero" fill="rgb(50.195312%, 50.195312%, 50.195312%)" fill-opacity="1" d="M 628.472656 416.503906 C 628.082031 416.503906 627.847656 416.167969 627.664062 415.4375 C 627.402344 414.421875 626.625 411.300781 626.625 410.78125 C 627.769531 408.777344 628.707031 407.632812 629.171875 407.632812 C 629.640625 407.632812 629.980469 408.074219 630.5 408.074219 C 631.046875 408.074219 631.410156 407.683594 631.410156 407.136719 C 631.410156 406.589844 630.96875 406.175781 630.34375 406.175781 C 629.199219 406.175781 628.210938 407.109375 626.414062 409.894531 L 626.128906 408.464844 C 625.765625 406.695312 625.476562 406.175781 624.777344 406.175781 C 624.203125 406.175781 623.320312 406.410156 621.730469 406.929688 L 621.445312 407.03125 L 621.550781 407.421875 C 622.539062 407.1875 622.773438 407.136719 623.007812 407.136719 C 623.65625 407.136719 623.8125 407.371094 624.175781 408.933594 L 624.933594 412.132812 L 622.796875 415.175781 C 622.25 415.957031 621.757812 416.425781 621.472656 416.425781 C 621.003906 416.425781 620.558594 415.933594 619.960938 415.933594 C 619.46875 415.933594 619.078125 416.324219 619.078125 416.84375 C 619.078125 417.519531 619.597656 417.9375 620.378906 417.9375 C 621.316406 417.9375 621.886719 417.570312 625.140625 413.070312 L 625.921875 416.191406 C 626.257812 417.519531 626.597656 417.9375 627.429688 417.9375 C 628.417969 417.9375 629.09375 417.3125 630.605469 414.96875 L 630.242188 414.761719 C 628.964844 416.191406 628.9375 416.503906 628.472656 416.503906 Z M 628.472656 416.503906 "/>
<path fill-rule="nonzero" fill="rgb(50.195312%, 50.195312%, 50.195312%)" fill-opacity="1" d="M 548.996094 284.90625 C 554.539062 284.90625 557.53125 276.839844 557.53125 272.257812 C 557.53125 269.683594 556.644531 267.132812 553.628906 267.132812 C 548.03125 267.132812 545.25 275.460938 545.25 280.039062 C 545.25 282.695312 546.835938 284.90625 548.996094 284.90625 Z M 554.796875 275.304688 L 548.34375 275.304688 C 548.941406 272.910156 550.347656 267.730469 553.472656 267.730469 C 555.1875 267.730469 555.34375 269.449219 555.34375 270.828125 C 555.34375 272.390625 555.164062 273.820312 554.796875 275.304688 Z M 554.640625 275.929688 C 554.019531 278.480469 552.507812 284.308594 549.125 284.308594 C 547.667969 284.308594 547.433594 282.617188 547.433594 281.210938 C 547.433594 279.390625 547.746094 277.671875 548.1875 275.929688 Z M 554.640625 275.929688 "/>
<path fill-rule="nonzero" fill="rgb(50.195312%, 50.195312%, 50.195312%)" fill-opacity="1" d="M 573.558594 274.574219 L 560.445312 274.574219 L 560.445312 276.292969 L 573.558594 276.292969 Z M 573.558594 279.78125 L 560.445312 279.78125 L 560.445312 281.496094 L 573.558594 281.496094 Z M 573.558594 279.78125 "/>
<path fill-rule="nonzero" fill="rgb(50.195312%, 50.195312%, 50.195312%)" fill-opacity="1" d="M 585.476562 283.554688 C 585.269531 283.554688 585.113281 283.398438 585.113281 283.214844 C 585.113281 282.695312 586.207031 278.246094 587.429688 273.769531 C 587.507812 273.507812 587.535156 273.457031 587.585938 273.222656 L 587.402344 273.144531 L 585.816406 273.328125 L 585.738281 273.40625 L 585.453125 274.652344 C 585.242188 273.691406 584.488281 273.144531 583.371094 273.144531 C 579.9375 273.144531 575.929688 277.90625 575.929688 282.019531 C 575.929688 283.839844 576.917969 284.90625 578.582031 284.90625 C 580.402344 284.90625 581.523438 284.046875 583.8125 280.820312 C 583.292969 282.851562 583.214844 283.1875 583.214844 283.8125 C 583.214844 284.566406 583.527344 284.878906 584.253906 284.878906 C 585.296875 284.878906 585.945312 284.386719 587.871094 282.019531 L 587.558594 281.757812 C 586.675781 282.640625 585.867188 283.554688 585.476562 283.554688 Z M 584.984375 275.304688 C 584.984375 278.503906 582.171875 283.632812 579.625 283.632812 C 578.710938 283.632812 578.113281 282.875 578.113281 281.679688 C 578.113281 279.9375 580.273438 273.71875 583.398438 273.71875 C 584.359375 273.71875 584.984375 274.339844 584.984375 275.304688 Z M 584.984375 275.304688 "/>
<path fill="none" stroke-width="1.399572" stroke-linecap="butt" stroke-linejoin="miter" stroke="rgb(50.195312%, 50.195312%, 50.195312%)" stroke-opacity="1" stroke-miterlimit="4" d="M 12.722656 407.113281 C 597.15625 407.113281 597.15625 407.113281 597.15625 407.113281 "/>
<path fill-rule="evenodd" fill="rgb(50.195312%, 50.195312%, 50.195312%)" fill-opacity="1" d="M 14.679688 411.03125 L 3.902344 407.113281 L 14.679688 403.195312 C 12.722656 405.476562 12.722656 408.742188 14.679688 411.03125 Z M 14.679688 411.03125 "/>
<path fill-rule="evenodd" fill="rgb(50.195312%, 50.195312%, 50.195312%)" fill-opacity="1" d="M 595.199219 403.195312 L 605.972656 407.113281 L 595.199219 411.03125 C 597.15625 408.75 597.15625 405.488281 595.199219 403.195312 Z M 595.199219 403.195312 "/>
<g clip-path="url(#clip-0)">
<path fill="none" stroke-width="1.456847" stroke-linecap="butt" stroke-linejoin="miter" stroke="rgb(50.195312%, 50.195312%, 50.195312%)" stroke-opacity="1" stroke-miterlimit="4" d="M -687.893756 170.625 C -54.637896 170.625 -54.637896 170.625 -54.637896 170.625 " transform="matrix(0, -0.619276, 1, 0, 0, 0)"/>
</g>
<path fill-rule="evenodd" fill="rgb(50.195312%, 50.195312%, 50.195312%)" fill-opacity="1" d="M 166.546875 35.101562 L 170.625 28.152344 L 174.703125 35.101562 C 172.328125 33.835938 168.933594 33.835938 166.546875 35.101562 Z M 166.546875 35.101562 "/>
<path fill-rule="evenodd" fill="rgb(62.35199%, 80.39093%, 94.508362%)" fill-opacity="0.501961" stroke-width="1.951658" stroke-linecap="butt" stroke-linejoin="miter" stroke="rgb(7.843018%, 53.33252%, 87.057495%)" stroke-opacity="0.996078" stroke-miterlimit="4" d="M 114.078125 99.828125 C 89.488281 100.410156 68.78125 109.945312 59.011719 132.695312 L 114.742188 269.824219 C 176.078125 229.652344 158.039062 291.523438 212.027344 290.796875 C 212.027344 290.796875 274.078125 271.75 287.765625 315.761719 C 295.378906 340.230469 290.921875 344.03125 307.996094 366.125 C 199.316406 398.199219 278.238281 374.613281 170.28125 406.476562 L 170.464844 406.929688 L 481.15625 315.234375 L 497.132812 310.515625 C 480.058594 288.421875 426.425781 243.042969 402.195312 234.699219 C 360.304688 220.28125 288.289062 217.878906 248.214844 164.8125 C 222.109375 130.242188 161.019531 98.714844 114.078125 99.828125 Z M 114.078125 99.828125 "/>
<path fill="none" stroke-width="1.561327" stroke-linecap="butt" stroke-linejoin="miter" stroke="rgb(50.195312%, 50.195312%, 50.195312%)" stroke-opacity="1" stroke-dasharray="3.122655 3.122655" stroke-miterlimit="4" d="M 170.128906 406.605469 L 29.464844 59.710938 "/>
<path fill="none" stroke-width="1.561327" stroke-linecap="butt" stroke-linejoin="miter" stroke="rgb(50.195312%, 50.195312%, 50.195312%)" stroke-opacity="1" stroke-dasharray="3.122655 3.122655" stroke-miterlimit="4" d="M 171.511719 406.152344 L 560.078125 291.765625 "/>
<path fill-rule="nonzero" fill="rgb(50.195312%, 50.195312%, 50.195312%)" fill-opacity="1" stroke-width="1.561327" stroke-linecap="butt" stroke-linejoin="miter" stroke="rgb(50.195312%, 50.195312%, 50.195312%)" stroke-opacity="1" stroke-miterlimit="4" d="M 176.386719 -406.664062 C 176.386719 -405.105469 175.765625 -403.609375 174.664062 -402.507812 C 173.5625 -401.40625 172.070312 -400.789062 170.511719 -400.789062 C 168.953125 -400.789062 167.460938 -401.40625 166.359375 -402.507812 C 165.257812 -403.609375 164.640625 -405.105469 164.640625 -406.664062 C 164.640625 -409.90625 167.269531 -412.535156 170.511719 -412.535156 C 173.753906 -412.535156 176.386719 -409.90625 176.386719 -406.664062 Z M 176.386719 -406.664062 " transform="matrix(1, 0, 0, -1, 0, 0)"/>
<path fill-rule="nonzero" fill="rgb(7.843018%, 53.33252%, 87.057495%)" fill-opacity="0.996078" d="M 191.964844 266.394531 C 195.882812 266.394531 198.265625 262.441406 198.265625 258.378906 L 198.265625 235.910156 C 198.265625 232.199219 198.929688 228.664062 201.660156 228.664062 C 202.570312 228.664062 203.375 228.945312 203.933594 229.402344 C 203.269531 229.46875 202.605469 229.960938 202.605469 230.871094 C 202.605469 231.851562 203.339844 232.304688 204.074219 232.304688 C 204.808594 232.304688 205.542969 231.851562 205.542969 230.871094 C 205.542969 228.945312 203.550781 227.894531 201.660156 227.894531 C 197.738281 227.894531 195.359375 231.851562 195.359375 235.910156 L 195.359375 258.378906 C 195.359375 262.125 194.695312 265.625 191.964844 265.625 C 191.054688 265.625 190.25 265.34375 189.6875 264.890625 C 190.355469 264.820312 191.019531 264.332031 191.019531 263.421875 C 191.019531 262.476562 190.285156 261.984375 189.550781 261.984375 C 188.8125 261.984375 188.078125 262.476562 188.078125 263.421875 C 188.078125 265.34375 190.074219 266.394531 191.964844 266.394531 Z M 191.964844 266.394531 "/>
<path fill-rule="nonzero" fill="rgb(7.843018%, 53.33252%, 87.057495%)" fill-opacity="0.996078" d="M 211.523438 258.308594 C 211.523438 257.761719 211.058594 257.320312 210.511719 257.320312 C 209.964844 257.320312 209.546875 257.789062 209.546875 258.386719 C 209.546875 259.269531 210.457031 259.972656 211.601562 259.972656 C 213.917969 259.972656 215.742188 257.398438 216.808594 252.609375 L 218.679688 244.28125 L 221.519531 244.28125 L 221.675781 243.449219 L 218.863281 243.449219 C 219.617188 239.363281 220.582031 237.515625 222.039062 237.515625 C 222.375 237.515625 222.609375 237.644531 222.609375 237.828125 C 222.609375 238.011719 222.351562 238.246094 222.351562 238.636719 C 222.351562 239.257812 222.742188 239.675781 223.3125 239.675781 C 223.910156 239.675781 224.40625 239.207031 224.40625 238.636719 C 224.40625 237.671875 223.445312 236.945312 222.167969 236.945312 C 218.992188 236.945312 217.71875 240.664062 216.859375 243.449219 L 214.464844 243.449219 L 214.285156 244.28125 L 216.625 244.28125 L 214.335938 255.210938 C 213.761719 257.996094 212.90625 259.425781 211.8125 259.425781 C 211.5 259.425781 211.292969 259.246094 211.292969 259.011719 C 211.292969 258.75 211.523438 258.699219 211.523438 258.308594 Z M 211.523438 258.308594 "/>
<path fill-rule="nonzero" fill="rgb(7.843018%, 53.33252%, 87.057495%)" fill-opacity="0.996078" d="M 226.253906 259.296875 L 226.722656 259.140625 C 225.785156 256.511719 225.472656 254.871094 225.472656 252.375 C 225.472656 249.25 226.226562 245.503906 227.425781 242.617188 C 228.257812 240.558594 229.089844 239.335938 230.78125 237.566406 L 230.445312 237.175781 C 228.414062 239.023438 223.675781 242.796875 223.675781 249.902344 C 223.675781 253.753906 224.511719 256.121094 226.253906 259.296875 Z M 226.253906 259.296875 "/>
<path fill-rule="nonzero" fill="rgb(7.843018%, 53.33252%, 87.057495%)" fill-opacity="0.996078" d="M 235.648438 254.871094 C 241.191406 254.871094 244.183594 246.804688 244.183594 242.226562 C 244.183594 239.648438 243.296875 237.097656 240.28125 237.097656 C 234.683594 237.097656 231.902344 245.425781 231.902344 250.007812 C 231.902344 252.660156 233.488281 254.871094 235.648438 254.871094 Z M 241.449219 245.269531 L 234.996094 245.269531 C 235.597656 242.875 237 237.699219 240.125 237.699219 C 241.839844 237.699219 241.996094 239.414062 241.996094 240.792969 C 241.996094 242.355469 241.816406 243.789062 241.449219 245.269531 Z M 241.292969 245.894531 C 240.671875 248.445312 239.160156 254.273438 235.777344 254.273438 C 234.320312 254.273438 234.085938 252.582031 234.085938 251.175781 C 234.085938 249.355469 234.398438 247.636719 234.839844 245.894531 Z M 241.292969 245.894531 "/>
<path fill-rule="nonzero" fill="rgb(7.843018%, 53.33252%, 87.057495%)" fill-opacity="0.996078" d="M 249.804688 237.175781 L 249.308594 237.308594 C 250.195312 239.414062 250.585938 241.523438 250.585938 244.125 C 250.585938 247.429688 249.699219 251.644531 248.398438 254.429688 C 247.644531 256.121094 246.863281 257.214844 245.277344 258.878906 L 245.613281 259.269531 C 249.777344 255.652344 252.378906 252.035156 252.378906 246.675781 C 252.378906 242.746094 251.417969 240.066406 249.804688 237.175781 Z M 249.804688 237.175781 "/>
<path fill-rule="nonzero" fill="rgb(7.843018%, 53.33252%, 87.057495%)" fill-opacity="0.996078" d="M 258.339844 236.371094 L 258.675781 236.632812 C 259.433594 235.640625 260.082031 235.277344 261.019531 235.277344 C 262.136719 235.277344 262.972656 235.980469 262.972656 236.945312 C 262.972656 237.777344 262.242188 239 260.628906 240.558594 L 257.167969 243.945312 L 257.167969 244.410156 L 263.179688 244.410156 L 264.039062 242.355469 L 263.699219 242.148438 C 263.285156 242.851562 262.996094 243.03125 262.058594 243.03125 L 259.378906 243.03125 L 259.328125 242.902344 L 262.292969 240.039062 C 264.558594 237.855469 264.742188 237.332031 264.742188 236.421875 C 264.742188 234.992188 263.441406 233.792969 261.851562 233.792969 C 260.550781 233.792969 259.144531 234.472656 258.339844 236.371094 Z M 258.339844 236.371094 "/>
<path fill-rule="nonzero" fill="rgb(7.843018%, 53.33252%, 87.057495%)" fill-opacity="0.996078" d="M 275.175781 247.949219 L 269.476562 247.949219 L 269.113281 249.589844 L 274.835938 249.589844 Z M 275.175781 247.949219 "/>
<path fill-rule="nonzero" fill="rgb(7.843018%, 53.33252%, 87.057495%)" fill-opacity="0.996078" d="M 289.902344 243.109375 C 287.015625 243.109375 284.671875 245.113281 284.671875 247.558594 C 284.671875 248.914062 285.246094 249.695312 286.730469 250.371094 C 285.195312 251.410156 284.726562 251.933594 284.726562 252.558594 C 284.726562 252.894531 284.933594 253.207031 285.429688 253.570312 C 282.851562 255.261719 282.382812 255.785156 282.382812 256.980469 C 282.382812 258.777344 284.101562 259.945312 286.730469 259.945312 C 290.007812 259.945312 292.195312 258.410156 292.195312 256.148438 C 292.195312 252.53125 286.652344 252.945312 286.652344 251.621094 C 286.652344 251.230469 287.25 250.554688 287.589844 250.554688 C 287.742188 250.554688 287.953125 250.65625 288.578125 250.65625 C 290.945312 250.65625 293.390625 248.550781 293.390625 246.519531 C 293.390625 246.101562 293.3125 245.582031 293.15625 245.0625 L 294.457031 245.0625 L 294.457031 244.046875 L 292.871094 244.046875 C 292.480469 244.046875 291.933594 243.109375 289.902344 243.109375 Z M 286.027344 253.859375 C 287.898438 254.636719 290.632812 254.949219 290.632812 256.929688 C 290.632812 258.332031 289.125 259.375 287.121094 259.375 C 285.039062 259.375 283.816406 258.386719 283.816406 256.71875 C 283.816406 254.925781 285.949219 253.882812 286.027344 253.859375 Z M 288.265625 250.109375 C 287.277344 250.109375 286.703125 249.382812 286.703125 248.160156 C 286.703125 245.765625 288.1875 243.683594 289.878906 243.683594 C 290.839844 243.683594 291.335938 244.308594 291.335938 245.53125 C 291.335938 247.328125 290.191406 250.109375 288.265625 250.109375 Z M 288.265625 250.109375 "/>
<path fill-rule="nonzero" fill="rgb(7.843018%, 53.33252%, 87.057495%)" fill-opacity="0.996078" d="M 298.125 259.296875 L 298.59375 259.140625 C 297.660156 256.511719 297.347656 254.871094 297.347656 252.375 C 297.347656 249.25 298.101562 245.503906 299.296875 242.617188 C 300.128906 240.558594 300.964844 239.335938 302.65625 237.566406 L 302.316406 237.175781 C 300.285156 239.023438 295.550781 242.796875 295.550781 249.902344 C 295.550781 253.753906 296.382812 256.121094 298.125 259.296875 Z M 298.125 259.296875 "/>
<path fill-rule="nonzero" fill="rgb(7.843018%, 53.33252%, 87.057495%)" fill-opacity="0.996078" d="M 307.519531 254.871094 C 313.0625 254.871094 316.054688 246.804688 316.054688 242.226562 C 316.054688 239.648438 315.171875 237.097656 312.152344 237.097656 C 306.558594 237.097656 303.773438 245.425781 303.773438 250.007812 C 303.773438 252.660156 305.359375 254.871094 307.519531 254.871094 Z M 313.324219 245.269531 L 306.871094 245.269531 C 307.46875 242.875 308.875 237.699219 311.996094 237.699219 C 313.714844 237.699219 313.871094 239.414062 313.871094 240.792969 C 313.871094 242.355469 313.6875 243.789062 313.324219 245.269531 Z M 313.167969 245.894531 C 312.542969 248.445312 311.035156 254.273438 307.652344 254.273438 C 306.195312 254.273438 305.960938 252.582031 305.960938 251.175781 C 305.960938 249.355469 306.273438 247.636719 306.714844 245.894531 Z M 313.167969 245.894531 "/>
<path fill-rule="nonzero" fill="rgb(7.843018%, 53.33252%, 87.057495%)" fill-opacity="0.996078" d="M 321.675781 237.175781 L 321.183594 237.308594 C 322.066406 239.414062 322.457031 241.523438 322.457031 244.125 C 322.457031 247.429688 321.574219 251.644531 320.273438 254.429688 C 319.515625 256.121094 318.738281 257.214844 317.148438 258.878906 L 317.488281 259.269531 C 321.652344 255.652344 324.253906 252.035156 324.253906 246.675781 C 324.253906 242.746094 323.289062 240.066406 321.675781 237.175781 Z M 321.675781 237.175781 "/>
<path fill-rule="nonzero" fill="rgb(7.843018%, 53.33252%, 87.057495%)" fill-opacity="0.996078" d="M 330.210938 236.371094 L 330.550781 236.632812 C 331.304688 235.640625 331.957031 235.277344 332.890625 235.277344 C 334.011719 235.277344 334.84375 235.980469 334.84375 236.945312 C 334.84375 237.777344 334.117188 239 332.503906 240.558594 L 329.042969 243.945312 L 329.042969 244.410156 L 335.050781 244.410156 L 335.910156 242.355469 L 335.574219 242.148438 C 335.15625 242.851562 334.871094 243.03125 333.933594 243.03125 L 331.253906 243.03125 L 331.199219 242.902344 L 334.167969 240.039062 C 336.429688 237.855469 336.613281 237.332031 336.613281 236.421875 C 336.613281 234.992188 335.3125 233.792969 333.726562 233.792969 C 332.425781 233.792969 331.019531 234.472656 330.210938 236.371094 Z M 330.210938 236.371094 "/>
<path fill-rule="nonzero" fill="rgb(7.843018%, 53.33252%, 87.057495%)" fill-opacity="0.996078" d="M 351.835938 251.699219 C 350.429688 253.3125 350.144531 253.546875 349.703125 253.546875 C 349.441406 253.546875 349.234375 253.3125 349.234375 253.023438 C 349.234375 252.660156 350.066406 249.484375 350.925781 246.625 C 351.628906 244.230469 352.175781 242.148438 353.503906 236.945312 L 353.371094 236.8125 C 351.992188 237.097656 351.054688 237.253906 349.390625 237.410156 L 349.390625 237.855469 C 350.613281 237.855469 351.003906 238.140625 351.003906 238.53125 C 351.003906 238.765625 350.976562 239.023438 350.613281 240.351562 L 349.46875 244.621094 C 349.261719 243.527344 348.792969 243.109375 347.777344 243.109375 C 344.394531 243.109375 340.179688 248.003906 340.179688 251.90625 C 340.179688 253.753906 341.21875 254.871094 342.910156 254.871094 C 344.679688 254.871094 345.824219 254.039062 347.59375 251.4375 C 347.308594 252.765625 347.257812 253.15625 347.257812 253.753906 C 347.257812 254.457031 347.699219 254.925781 348.347656 254.925781 C 349.441406 254.925781 350.796875 253.859375 352.148438 251.957031 Z M 349.050781 245.191406 C 349.050781 249.148438 346.347656 253.625 343.953125 253.625 C 343.066406 253.625 342.441406 252.921875 342.441406 251.90625 C 342.441406 248.679688 345.304688 243.710938 347.777344 243.710938 C 348.324219 243.710938 349.050781 243.917969 349.050781 245.191406 Z M 349.050781 245.191406 "/>
<path fill-rule="nonzero" fill="rgb(7.843018%, 53.33252%, 87.057495%)" fill-opacity="0.996078" d="M 357.117188 254.871094 C 362.660156 254.871094 365.652344 246.804688 365.652344 242.226562 C 365.652344 239.648438 364.769531 237.097656 361.75 237.097656 C 356.15625 237.097656 353.371094 245.425781 353.371094 250.007812 C 353.371094 252.660156 354.960938 254.871094 357.117188 254.871094 Z M 362.921875 245.269531 L 356.46875 245.269531 C 357.066406 242.875 358.472656 237.699219 361.59375 237.699219 C 363.3125 237.699219 363.46875 239.414062 363.46875 240.792969 C 363.46875 242.355469 363.285156 243.789062 362.921875 245.269531 Z M 362.765625 245.894531 C 362.140625 248.445312 360.632812 254.273438 357.25 254.273438 C 355.792969 254.273438 355.558594 252.582031 355.558594 251.175781 C 355.558594 249.355469 355.871094 247.636719 356.3125 245.894531 Z M 362.765625 245.894531 "/>
<path fill-rule="nonzero" fill="rgb(7.843018%, 53.33252%, 87.057495%)" fill-opacity="0.996078" d="M 206.945312 268.339844 C 206.832031 268.339844 206.75 268.257812 206.75 268.160156 C 206.75 267.878906 207.335938 265.484375 207.996094 263.078125 C 208.035156 262.9375 208.050781 262.910156 208.078125 262.78125 L 207.980469 262.738281 L 207.125 262.839844 L 207.085938 262.878906 L 206.929688 263.550781 C 206.820312 263.035156 206.414062 262.742188 205.8125 262.742188 C 203.960938 262.742188 201.804688 265.300781 201.804688 267.515625 C 201.804688 268.496094 202.339844 269.066406 203.234375 269.066406 C 204.214844 269.066406 204.816406 268.605469 206.046875 266.871094 C 205.769531 267.960938 205.726562 268.144531 205.726562 268.480469 C 205.726562 268.886719 205.894531 269.054688 206.285156 269.054688 C 206.847656 269.054688 207.195312 268.789062 208.234375 267.515625 L 208.066406 267.375 C 207.589844 267.851562 207.15625 268.339844 206.945312 268.339844 Z M 206.679688 263.902344 C 206.679688 265.625 205.167969 268.382812 203.792969 268.382812 C 203.304688 268.382812 202.984375 267.976562 202.984375 267.332031 C 202.984375 266.394531 204.144531 263.046875 205.824219 263.046875 C 206.34375 263.046875 206.679688 263.382812 206.679688 263.902344 Z M 206.679688 263.902344 "/>
<path fill-rule="nonzero" fill="rgb(7.843018%, 53.33252%, 87.057495%)" fill-opacity="0.996078" d="M 208.617188 224.730469 C 209.445312 224.757812 209.527344 224.800781 209.527344 225.109375 C 209.527344 225.289062 209.359375 225.878906 209.304688 226.074219 L 207.398438 233.089844 C 207.398438 233.480469 208.421875 233.886719 209.261719 233.886719 C 211.375 233.886719 213.699219 231.4375 213.699219 229.238281 C 213.699219 228.257812 213.015625 227.558594 212.074219 227.558594 C 211.097656 227.558594 210.367188 228.132812 209.375 229.671875 L 210.832031 224.242188 L 210.761719 224.171875 C 210.058594 224.296875 209.554688 224.382812 208.617188 224.492188 Z M 209.25 233.566406 C 208.8125 233.566406 208.605469 233.410156 208.605469 233.089844 C 208.605469 231.984375 209.738281 228.246094 211.53125 228.246094 C 212.132812 228.246094 212.511719 228.707031 212.511719 229.449219 C 212.511719 230.386719 211.304688 233.566406 209.25 233.566406 Z M 209.25 233.566406 "/>
<path fill-rule="nonzero" fill="rgb(7.843018%, 53.33252%, 87.057495%)" fill-opacity="0.996078" d="M 173.609375 243.808594 L 178.632812 243.808594 L 178.632812 243.539062 L 178.34375 243.539062 C 177.460938 243.539062 177.085938 243.359375 177.085938 242.960938 C 177.085938 242.65625 177.371094 241.847656 177.40625 241.628906 L 179.980469 232.289062 C 180.054688 232.019531 180.089844 231.855469 180.089844 231.765625 C 180.089844 231.695312 180.054688 231.640625 180 231.640625 L 176.902344 232.253906 C 176.867188 232.253906 176.722656 232.289062 176.527344 232.324219 L 176.527344 232.59375 L 177.550781 232.558594 C 177.570312 232.558594 177.589844 232.558594 177.589844 232.558594 C 177.984375 232.558594 178.234375 232.792969 178.234375 233.117188 C 178.234375 233.226562 178.199219 233.40625 178.109375 233.730469 L 175.625 242.585938 C 175.445312 243.25 175.03125 243.429688 173.609375 243.554688 Z M 173.609375 243.808594 "/>
<path fill-rule="nonzero" fill="rgb(7.843018%, 53.33252%, 87.057495%)" fill-opacity="0.996078" d="M 174.167969 254.039062 L 174.546875 254.164062 C 175.210938 252.992188 175.984375 252.472656 177.066406 252.472656 C 178.34375 252.472656 179.316406 253.40625 179.316406 254.667969 C 179.316406 255.53125 178.847656 256.738281 176.722656 258.988281 L 172.945312 263.019531 L 172.945312 263.324219 L 179.335938 263.324219 L 180.234375 260.949219 L 179.929688 260.824219 C 179.496094 261.722656 179.117188 261.957031 178.144531 261.957031 L 174.726562 261.957031 L 174.726562 261.867188 L 178.183594 258.410156 C 180.289062 256.304688 180.863281 255.40625 180.863281 254.21875 C 180.863281 252.488281 179.585938 251.15625 177.949219 251.15625 C 176.527344 251.15625 175.066406 251.804688 174.167969 254.039062 Z M 174.167969 254.039062 "/>
<path fill="none" stroke-width="1.125" stroke-linecap="butt" stroke-linejoin="miter" stroke="rgb(7.843018%, 52.940369%, 86.665344%)" stroke-opacity="1" stroke-miterlimit="4" d="M 171.84375 247.851562 C 181.679688 247.851562 181.679688 247.851562 181.679688 247.851562 "/>
<path fill="none" stroke-width="1.951658" stroke-linecap="butt" stroke-linejoin="miter" stroke="rgb(100%, 12.940979%, 32.156372%)" stroke-opacity="1" stroke-miterlimit="4" d="M 114.558594 270.105469 L 169.992188 406.734375 C 278.882812 374.59375 199.085938 398.445312 307.976562 366.304688 C 290.902344 344.210938 295.359375 340.410156 287.746094 315.941406 C 274.058594 271.933594 212.007812 290.976562 212.007812 290.976562 C 157.964844 291.707031 176.105469 229.695312 114.558594 270.105469 Z M 114.558594 270.105469 "/>
</svg>
