<?xml version="1.0" encoding="UTF-8"?>
<svg xmlns="http://www.w3.org/2000/svg" xmlns:xlink="http://www.w3.org/1999/xlink" width="375.554101" height="110.756248" viewBox="0 0 375.554101 110.756248">
<path fill-rule="nonzero" fill="rgb(70.195007%, 70.195007%, 70.195007%)" fill-opacity="1" d="M 7.339844 50.695312 L 368.214844 50.695312 L 368.214844 59.941406 L 7.339844 59.941406 Z M 7.339844 50.695312 "/>
<path fill-rule="nonzero" fill="rgb(70.195007%, 70.195007%, 70.195007%)" fill-opacity="1" d="M 138.234375 59.882812 L 152.3125 84.203125 L 166.394531 108.523438 L 138.292969 108.558594 L 110.191406 108.589844 L 124.210938 84.238281 Z M 138.234375 59.882812 "/>
<path fill-rule="evenodd" fill="rgb(6.666565%, 52.940369%, 87.057495%)" fill-opacity="1" d="M 32.761719 2.164062 C 25.460938 2.164062 19.539062 5.867188 19.535156 10.441406 C 19.542969 12.28125 20.53125 14.070312 22.339844 15.519531 C 19.425781 15.761719 17.558594 16.097656 17.089844 16.460938 C 17.027344 16.515625 17.046875 16.5 17.027344 16.515625 C 16.988281 16.554688 16.96875 16.597656 16.964844 16.636719 C 14.941406 27.746094 12.8125 38.730469 10.84375 48.382812 C 10.578125 49.671875 21.15625 50.765625 33.890625 50.765625 C 46.625 50.765625 56.945312 49.699219 56.941406 48.382812 C 56.941406 48.199219 56.917969 48.144531 56.917969 48.144531 L 48.429688 16.550781 L 48.367188 16.460938 C 47.910156 16.097656 46.066406 15.765625 43.1875 15.523438 C 44.996094 14.070312 45.980469 12.28125 45.980469 10.441406 C 45.976562 5.871094 40.0625 2.167969 32.761719 2.164062 Z M 32.761719 5.605469 C 37.546875 5.605469 41.425781 7.800781 41.425781 10.503906 C 41.417969 12.644531 38.953125 14.535156 35.339844 15.171875 C 34.476562 15.15625 33.605469 15.148438 32.730469 15.148438 C 31.867188 15.148438 31.007812 15.15625 30.160156 15.171875 C 26.554688 14.53125 24.097656 12.640625 24.097656 10.503906 C 24.09375 7.796875 27.976562 5.605469 32.761719 5.605469 Z M 32.761719 5.605469 "/>
<path fill-rule="nonzero" fill="rgb(70.195007%, 70.195007%, 70.195007%)" fill-opacity="1" d="M 24.320312 33.082031 C 24.320312 33.058594 24.34375 32.949219 24.394531 32.753906 C 24.445312 32.554688 24.519531 32.292969 24.617188 31.976562 C 24.726562 31.648438 24.832031 31.371094 24.9375 31.140625 C 25.289062 30.464844 25.742188 30.125 26.300781 30.125 C 26.304688 30.125 26.3125 30.125 26.316406 30.125 C 26.742188 30.125 27.101562 30.265625 27.398438 30.539062 C 27.691406 30.816406 27.867188 31.183594 27.933594 31.648438 C 28.675781 30.632812 29.59375 30.125 30.679688 30.125 C 31.195312 30.125 31.640625 30.257812 32.023438 30.519531 C 32.410156 30.78125 32.636719 31.214844 32.699219 31.816406 C 33.46875 30.6875 34.429688 30.125 35.578125 30.125 C 36.128906 30.125 36.601562 30.277344 36.996094 30.578125 C 37.398438 30.878906 37.597656 31.394531 37.597656 32.125 C 37.597656 32.90625 37.207031 34.332031 36.425781 36.402344 C 36.191406 37.097656 36.078125 37.582031 36.078125 37.847656 C 36.078125 38.21875 36.21875 38.402344 36.5 38.402344 C 37.21875 38.402344 37.816406 37.601562 38.292969 36 C 38.328125 35.84375 38.363281 35.753906 38.394531 35.726562 C 38.425781 35.695312 38.5 35.679688 38.621094 35.679688 C 38.808594 35.679688 38.902344 35.742188 38.902344 35.859375 C 38.902344 35.902344 38.875 36.023438 38.828125 36.214844 C 38.777344 36.410156 38.683594 36.65625 38.554688 36.957031 C 38.429688 37.257812 38.277344 37.546875 38.09375 37.820312 C 37.917969 38.097656 37.6875 38.335938 37.398438 38.535156 C 37.113281 38.734375 36.800781 38.835938 36.460938 38.835938 C 36.011719 38.835938 35.65625 38.6875 35.390625 38.394531 C 35.136719 38.09375 35.007812 37.726562 35.007812 37.296875 C 35.007812 37.015625 35.105469 36.605469 35.308594 36.066406 C 36.050781 33.9375 36.425781 32.523438 36.425781 31.816406 C 36.425781 30.972656 36.128906 30.546875 35.542969 30.546875 C 34.539062 30.546875 33.636719 31.238281 32.828125 32.621094 C 32.6875 32.867188 32.527344 33.328125 32.351562 34 C 32.3125 34.144531 32.261719 34.355469 32.191406 34.628906 C 32.128906 34.90625 32.078125 35.117188 32.042969 35.257812 L 31.273438 38.328125 C 31.148438 38.660156 30.917969 38.828125 30.585938 38.835938 C 30.40625 38.835938 30.269531 38.78125 30.175781 38.675781 C 30.085938 38.574219 30.042969 38.460938 30.042969 38.328125 C 30.042969 38.265625 30.0625 38.175781 30.097656 38.066406 L 31.355469 33.0625 C 31.46875 32.539062 31.527344 32.121094 31.527344 31.816406 C 31.527344 30.972656 31.230469 30.546875 30.644531 30.546875 C 29.644531 30.546875 28.738281 31.238281 27.929688 32.621094 C 27.789062 32.867188 27.628906 33.328125 27.453125 34 C 27.429688 34.144531 27.375 34.355469 27.292969 34.628906 C 27.21875 34.90625 27.167969 35.117188 27.144531 35.257812 L 26.375 38.328125 C 26.25 38.660156 26.015625 38.828125 25.679688 38.835938 C 25.5 38.835938 25.363281 38.78125 25.277344 38.675781 C 25.1875 38.574219 25.144531 38.460938 25.144531 38.328125 C 25.144531 38.265625 25.164062 38.175781 25.199219 38.066406 L 26.644531 32.292969 C 26.734375 31.9375 26.777344 31.613281 26.777344 31.316406 C 26.777344 30.804688 26.613281 30.546875 26.28125 30.546875 C 26 30.546875 25.757812 30.742188 25.558594 31.128906 C 25.355469 31.511719 25.164062 32.082031 24.976562 32.839844 C 24.925781 33.042969 24.882812 33.167969 24.84375 33.214844 C 24.808594 33.257812 24.730469 33.277344 24.609375 33.277344 C 24.414062 33.273438 24.320312 33.207031 24.320312 33.082031 Z M 24.320312 33.082031 "/>
<path fill-rule="nonzero" fill="rgb(70.195007%, 70.195007%, 70.195007%)" fill-opacity="1" d="M 40.289062 34.886719 L 40.289062 34.585938 C 41.058594 34.585938 41.640625 34.378906 42.039062 33.96875 C 42.148438 33.96875 42.210938 33.984375 42.230469 34.007812 C 42.25 34.03125 42.257812 34.101562 42.257812 34.21875 L 42.257812 39.609375 C 42.257812 39.800781 42.304688 39.925781 42.398438 39.984375 C 42.492188 40.042969 42.746094 40.074219 43.15625 40.074219 L 43.460938 40.074219 L 43.460938 40.371094 C 43.234375 40.351562 42.714844 40.34375 41.902344 40.34375 C 41.089844 40.34375 40.570312 40.351562 40.347656 40.371094 L 40.347656 40.074219 L 40.652344 40.074219 C 41.058594 40.074219 41.308594 40.046875 41.402344 39.988281 C 41.5 39.929688 41.550781 39.804688 41.550781 39.609375 L 41.550781 34.632812 C 41.214844 34.800781 40.792969 34.886719 40.289062 34.886719 Z M 40.289062 34.886719 "/>
<path fill-rule="nonzero" fill="rgb(70.195007%, 70.195007%, 70.195007%)" fill-opacity="1" d="M 79.738281 72.726562 C 79.738281 71.328125 80.203125 70.027344 81.136719 68.820312 C 82.074219 67.605469 83.078125 67 84.140625 67 C 84.859375 67 85.398438 67.371094 85.753906 68.117188 L 86.871094 63.613281 L 86.890625 63.460938 C 86.914062 63.375 86.925781 63.320312 86.925781 63.292969 C 86.925781 63.21875 86.914062 63.164062 86.890625 63.125 C 86.863281 63.082031 86.777344 63.042969 86.625 63.011719 C 86.484375 62.980469 86.265625 62.964844 85.96875 62.964844 C 85.664062 62.964844 85.511719 62.894531 85.511719 62.75 C 85.511719 62.636719 85.53125 62.550781 85.574219 62.496094 C 85.621094 62.433594 85.667969 62.394531 85.714844 62.382812 C 85.765625 62.371094 85.84375 62.359375 85.949219 62.347656 L 87.847656 62.195312 C 87.921875 62.171875 88.023438 62.160156 88.15625 62.160156 C 88.335938 62.160156 88.429688 62.234375 88.429688 62.382812 C 88.429688 62.433594 88.410156 62.519531 88.371094 62.636719 L 85.621094 73.605469 C 85.546875 73.914062 85.511719 74.210938 85.511719 74.5 C 85.511719 75.015625 85.671875 75.277344 86 75.277344 C 86 75.277344 86 75.277344 86.007812 75.277344 C 86.484375 75.277344 86.910156 74.515625 87.292969 72.996094 C 87.34375 72.789062 87.386719 72.664062 87.425781 72.621094 C 87.46875 72.578125 87.546875 72.554688 87.660156 72.554688 C 87.851562 72.554688 87.949219 72.617188 87.949219 72.742188 C 87.949219 72.769531 87.925781 72.882812 87.875 73.082031 C 87.832031 73.28125 87.761719 73.535156 87.667969 73.839844 C 87.574219 74.148438 87.472656 74.410156 87.367188 74.628906 C 87.023438 75.347656 86.558594 75.707031 85.96875 75.707031 C 85.601562 75.707031 85.265625 75.597656 84.964844 75.371094 C 84.671875 75.144531 84.476562 74.808594 84.375 74.359375 C 83.644531 75.253906 82.875 75.703125 82.066406 75.707031 C 81.359375 75.707031 80.792969 75.425781 80.367188 74.855469 C 79.949219 74.277344 79.738281 73.570312 79.738281 72.726562 Z M 81.042969 73.570312 C 81.042969 73.996094 81.121094 74.386719 81.277344 74.742188 C 81.433594 75.097656 81.710938 75.277344 82.105469 75.277344 C 82.578125 75.277344 83.074219 75.015625 83.585938 74.5 C 84.097656 73.972656 84.398438 73.523438 84.488281 73.148438 L 85.40625 69.460938 C 85.445312 69.347656 85.464844 69.261719 85.464844 69.207031 C 85.464844 68.792969 85.339844 68.382812 85.085938 67.976562 C 84.84375 67.605469 84.527344 67.421875 84.140625 67.421875 C 83.757812 67.421875 83.363281 67.628906 82.957031 68.042969 C 82.558594 68.449219 82.234375 68.953125 81.992188 69.554688 C 81.796875 70.003906 81.589844 70.671875 81.371094 71.5625 C 81.152344 72.449219 81.042969 73.117188 81.042969 73.570312 Z M 81.042969 73.570312 "/>
<path fill-rule="nonzero" fill="rgb(70.195007%, 70.195007%, 70.195007%)" fill-opacity="1" d="M 89.40625 71.757812 L 89.40625 71.460938 C 90.175781 71.460938 90.757812 71.253906 91.15625 70.84375 C 91.265625 70.84375 91.328125 70.855469 91.347656 70.882812 C 91.367188 70.90625 91.375 70.976562 91.375 71.09375 L 91.375 76.484375 C 91.375 76.675781 91.421875 76.800781 91.515625 76.859375 C 91.609375 76.917969 91.863281 76.949219 92.269531 76.949219 L 92.578125 76.949219 L 92.578125 77.246094 C 92.351562 77.226562 91.832031 77.214844 91.019531 77.214844 C 90.207031 77.214844 89.6875 77.226562 89.464844 77.246094 L 89.464844 76.949219 L 89.769531 76.949219 C 90.175781 76.949219 90.425781 76.921875 90.519531 76.863281 C 90.617188 76.804688 90.667969 76.679688 90.667969 76.484375 L 90.667969 71.507812 C 90.332031 71.675781 89.910156 71.757812 89.40625 71.757812 Z M 89.40625 71.757812 "/>
<path fill-rule="nonzero" fill="rgb(70.195007%, 70.195007%, 70.195007%)" fill-opacity="1" d="M 234.773438 72.726562 C 234.773438 71.328125 235.238281 70.027344 236.167969 68.820312 C 237.109375 67.605469 238.109375 67 239.171875 67 C 239.890625 67 240.429688 67.371094 240.785156 68.117188 L 241.902344 63.613281 L 241.921875 63.460938 C 241.945312 63.375 241.960938 63.320312 241.960938 63.292969 C 241.960938 63.21875 241.945312 63.164062 241.921875 63.125 C 241.898438 63.082031 241.808594 63.042969 241.660156 63.011719 C 241.515625 62.980469 241.296875 62.964844 241.003906 62.964844 C 240.695312 62.964844 240.542969 62.894531 240.542969 62.75 C 240.542969 62.636719 240.566406 62.550781 240.609375 62.496094 C 240.652344 62.433594 240.699219 62.394531 240.75 62.382812 C 240.800781 62.371094 240.878906 62.359375 240.984375 62.347656 L 242.878906 62.195312 C 242.953125 62.171875 243.058594 62.160156 243.1875 62.160156 C 243.371094 62.160156 243.460938 62.234375 243.460938 62.382812 C 243.460938 62.433594 243.441406 62.519531 243.40625 62.636719 L 240.65625 73.605469 C 240.582031 73.914062 240.542969 74.210938 240.542969 74.5 C 240.542969 75.015625 240.707031 75.277344 241.03125 75.277344 C 241.03125 75.277344 241.035156 75.277344 241.039062 75.277344 C 241.515625 75.277344 241.945312 74.515625 242.324219 72.996094 C 242.375 72.789062 242.417969 72.664062 242.457031 72.621094 C 242.5 72.578125 242.578125 72.554688 242.691406 72.554688 C 242.886719 72.554688 242.980469 72.617188 242.980469 72.742188 C 242.980469 72.769531 242.957031 72.882812 242.90625 73.082031 C 242.863281 73.28125 242.792969 73.535156 242.699219 73.839844 C 242.605469 74.148438 242.507812 74.410156 242.402344 74.628906 C 242.054688 75.347656 241.589844 75.707031 241.003906 75.707031 C 240.632812 75.707031 240.296875 75.597656 240 75.371094 C 239.703125 75.144531 239.507812 74.808594 239.40625 74.359375 C 238.675781 75.253906 237.90625 75.703125 237.097656 75.707031 C 236.390625 75.707031 235.824219 75.425781 235.398438 74.855469 C 234.980469 74.277344 234.773438 73.570312 234.773438 72.726562 Z M 236.074219 73.570312 C 236.074219 73.996094 236.152344 74.386719 236.308594 74.742188 C 236.46875 75.097656 236.742188 75.277344 237.136719 75.277344 C 237.613281 75.277344 238.105469 75.015625 238.617188 74.5 C 239.132812 73.972656 239.433594 73.523438 239.519531 73.148438 L 240.4375 69.460938 C 240.476562 69.347656 240.496094 69.261719 240.496094 69.207031 C 240.496094 68.792969 240.371094 68.382812 240.121094 67.976562 C 239.875 67.605469 239.558594 67.421875 239.171875 67.421875 C 238.789062 67.421875 238.398438 67.628906 237.988281 68.042969 C 237.589844 68.449219 237.269531 68.953125 237.023438 69.554688 C 236.828125 70.003906 236.625 70.671875 236.40625 71.5625 C 236.183594 72.449219 236.074219 73.117188 236.074219 73.570312 Z M 236.074219 73.570312 "/>
<path fill-rule="nonzero" fill="rgb(70.195007%, 70.195007%, 70.195007%)" fill-opacity="1" d="M 244.0625 77.246094 C 244.0625 77.128906 244.066406 77.054688 244.074219 77.019531 C 244.089844 76.984375 244.121094 76.941406 244.167969 76.886719 L 246.011719 74.832031 C 246.6875 74.074219 247.023438 73.367188 247.023438 72.707031 C 247.023438 72.277344 246.910156 71.910156 246.683594 71.605469 C 246.460938 71.296875 246.148438 71.144531 245.738281 71.144531 C 245.457031 71.144531 245.195312 71.230469 244.957031 71.402344 C 244.71875 71.574219 244.546875 71.8125 244.4375 72.121094 C 244.457031 72.113281 244.5 72.113281 244.5625 72.113281 C 244.722656 72.113281 244.847656 72.160156 244.933594 72.261719 C 245.023438 72.363281 245.070312 72.480469 245.070312 72.613281 C 245.070312 72.785156 245.015625 72.914062 244.902344 73 C 244.792969 73.078125 244.683594 73.121094 244.574219 73.121094 C 244.53125 73.121094 244.476562 73.117188 244.417969 73.105469 C 244.363281 73.097656 244.289062 73.046875 244.199219 72.960938 C 244.105469 72.871094 244.0625 72.746094 244.0625 72.585938 C 244.0625 72.136719 244.230469 71.734375 244.570312 71.378906 C 244.910156 71.023438 245.339844 70.84375 245.859375 70.84375 C 246.445312 70.84375 246.933594 71.019531 247.316406 71.371094 C 247.707031 71.71875 247.898438 72.164062 247.898438 72.707031 C 247.898438 72.898438 247.871094 73.082031 247.8125 73.257812 C 247.753906 73.429688 247.6875 73.582031 247.609375 73.714844 C 247.535156 73.851562 247.394531 74.027344 247.1875 74.242188 C 246.980469 74.457031 246.792969 74.640625 246.628906 74.796875 C 246.460938 74.949219 246.195312 75.1875 245.820312 75.511719 L 244.804688 76.503906 L 246.535156 76.503906 C 247.097656 76.503906 247.402344 76.476562 247.445312 76.429688 C 247.507812 76.335938 247.578125 76.050781 247.65625 75.574219 L 247.898438 75.574219 L 247.628906 77.246094 Z M 244.0625 77.246094 "/>
<path fill-rule="evenodd" fill="rgb(6.666565%, 52.940369%, 87.057495%)" fill-opacity="1" d="M 343.695312 16.574219 C 338.601562 16.570312 334.46875 19.15625 334.46875 22.347656 C 334.46875 23.632812 335.160156 24.878906 336.421875 25.890625 C 334.390625 26.058594 333.085938 26.292969 332.761719 26.546875 C 332.71875 26.585938 332.730469 26.574219 332.71875 26.585938 C 332.691406 26.613281 332.675781 26.640625 332.671875 26.671875 C 331.261719 34.421875 329.777344 42.082031 328.402344 48.816406 C 328.21875 49.71875 335.597656 50.480469 344.484375 50.480469 C 353.367188 50.480469 360.566406 49.734375 360.5625 48.816406 C 360.5625 48.6875 360.546875 48.652344 360.546875 48.652344 L 354.625 26.609375 L 354.582031 26.546875 C 354.261719 26.292969 352.976562 26.0625 350.96875 25.894531 C 352.230469 24.878906 352.914062 23.632812 352.914062 22.347656 C 352.914062 19.15625 348.785156 16.574219 343.695312 16.574219 Z M 343.695312 18.972656 C 347.03125 18.972656 349.738281 20.503906 349.738281 22.390625 C 349.734375 23.882812 348.015625 25.203125 345.492188 25.648438 C 344.890625 25.636719 344.28125 25.632812 343.671875 25.632812 C 343.070312 25.632812 342.472656 25.636719 341.878906 25.648438 C 339.363281 25.199219 337.652344 23.882812 337.648438 22.390625 C 337.648438 20.503906 340.355469 18.972656 343.695312 18.972656 Z M 343.695312 18.972656 "/>
<path fill-rule="nonzero" fill="rgb(70.195007%, 70.195007%, 70.195007%)" fill-opacity="1" d="M 334.910156 37.652344 C 334.910156 37.628906 334.9375 37.519531 334.984375 37.324219 C 335.035156 37.125 335.109375 36.863281 335.210938 36.546875 C 335.316406 36.21875 335.421875 35.941406 335.53125 35.710938 C 335.878906 35.035156 336.332031 34.695312 336.890625 34.695312 C 336.898438 34.695312 336.902344 34.695312 336.910156 34.695312 C 337.335938 34.695312 337.695312 34.835938 337.988281 35.109375 C 338.28125 35.386719 338.460938 35.753906 338.523438 36.21875 C 339.269531 35.203125 340.183594 34.695312 341.273438 34.695312 C 341.785156 34.695312 342.234375 34.828125 342.613281 35.089844 C 343.003906 35.355469 343.226562 35.785156 343.289062 36.386719 C 344.058594 35.261719 345.019531 34.695312 346.171875 34.695312 C 346.722656 34.695312 347.195312 34.847656 347.589844 35.148438 C 347.988281 35.449219 348.1875 35.964844 348.1875 36.695312 C 348.1875 37.476562 347.796875 38.902344 347.015625 40.976562 C 346.785156 41.667969 346.667969 42.152344 346.667969 42.417969 C 346.667969 42.789062 346.808594 42.972656 347.089844 42.972656 C 347.808594 42.972656 348.40625 42.171875 348.882812 40.570312 C 348.921875 40.414062 348.953125 40.324219 348.988281 40.300781 C 349.019531 40.269531 349.09375 40.253906 349.210938 40.253906 C 349.398438 40.253906 349.492188 40.3125 349.492188 40.429688 C 349.492188 40.472656 349.46875 40.59375 349.417969 40.785156 C 349.367188 40.980469 349.277344 41.226562 349.144531 41.527344 C 349.019531 41.828125 348.867188 42.117188 348.6875 42.390625 C 348.511719 42.667969 348.28125 42.90625 347.992188 43.105469 C 347.703125 43.304688 347.390625 43.40625 347.054688 43.40625 C 346.601562 43.40625 346.246094 43.257812 345.984375 42.964844 C 345.726562 42.664062 345.597656 42.296875 345.597656 41.867188 C 345.597656 41.585938 345.699219 41.175781 345.898438 40.636719 C 346.644531 38.511719 347.015625 37.09375 347.015625 36.386719 C 347.015625 35.542969 346.722656 35.117188 346.132812 35.117188 C 345.132812 35.117188 344.230469 35.808594 343.421875 37.191406 C 343.277344 37.4375 343.117188 37.898438 342.941406 38.574219 C 342.90625 38.714844 342.851562 38.925781 342.785156 39.199219 C 342.722656 39.476562 342.671875 39.6875 342.632812 39.828125 L 341.863281 42.898438 C 341.738281 43.230469 341.511719 43.398438 341.179688 43.40625 C 340.996094 43.40625 340.859375 43.351562 340.765625 43.246094 C 340.679688 43.144531 340.632812 43.03125 340.632812 42.898438 C 340.632812 42.835938 340.652344 42.75 340.691406 42.636719 L 341.949219 37.632812 C 342.0625 37.109375 342.117188 36.691406 342.117188 36.386719 C 342.117188 35.542969 341.824219 35.117188 341.234375 35.117188 C 340.234375 35.117188 339.332031 35.808594 338.523438 37.191406 C 338.378906 37.4375 338.21875 37.898438 338.042969 38.574219 C 338.019531 38.714844 337.964844 38.925781 337.886719 39.199219 C 337.808594 39.476562 337.761719 39.6875 337.734375 39.828125 L 336.964844 42.898438 C 336.839844 43.230469 336.609375 43.398438 336.269531 43.40625 C 336.089844 43.40625 335.957031 43.351562 335.867188 43.246094 C 335.78125 43.144531 335.738281 43.03125 335.738281 42.898438 C 335.738281 42.835938 335.753906 42.75 335.792969 42.636719 L 337.238281 36.863281 C 337.324219 36.507812 337.367188 36.183594 337.367188 35.886719 C 337.367188 35.375 337.203125 35.117188 336.871094 35.117188 C 336.589844 35.117188 336.347656 35.3125 336.148438 35.699219 C 335.949219 36.082031 335.753906 36.652344 335.566406 37.410156 C 335.515625 37.613281 335.472656 37.742188 335.4375 37.785156 C 335.398438 37.828125 335.320312 37.851562 335.203125 37.851562 C 335.007812 37.84375 334.910156 37.777344 334.910156 37.652344 Z M 334.910156 37.652344 "/>
<path fill-rule="nonzero" fill="rgb(70.195007%, 70.195007%, 70.195007%)" fill-opacity="1" d="M 350.503906 44.941406 C 350.503906 44.824219 350.507812 44.75 350.519531 44.714844 C 350.53125 44.679688 350.5625 44.636719 350.613281 44.585938 L 352.457031 42.527344 C 353.128906 41.773438 353.464844 41.0625 353.464844 40.402344 C 353.464844 39.976562 353.351562 39.609375 353.125 39.300781 C 352.90625 38.996094 352.589844 38.839844 352.179688 38.839844 C 351.898438 38.839844 351.636719 38.925781 351.398438 39.097656 C 351.164062 39.269531 350.988281 39.511719 350.878906 39.816406 C 350.898438 39.8125 350.941406 39.808594 351.007812 39.808594 C 351.164062 39.808594 351.289062 39.859375 351.375 39.957031 C 351.46875 40.058594 351.511719 40.175781 351.511719 40.308594 C 351.511719 40.480469 351.457031 40.609375 351.34375 40.695312 C 351.234375 40.777344 351.125 40.816406 351.015625 40.816406 C 350.972656 40.816406 350.921875 40.8125 350.859375 40.800781 C 350.804688 40.792969 350.730469 40.746094 350.640625 40.65625 C 350.550781 40.566406 350.503906 40.441406 350.503906 40.28125 C 350.503906 39.835938 350.671875 39.433594 351.011719 39.074219 C 351.351562 38.71875 351.78125 38.539062 352.300781 38.539062 C 352.890625 38.539062 353.375 38.714844 353.761719 39.066406 C 354.148438 39.414062 354.34375 39.859375 354.34375 40.402344 C 354.34375 40.59375 354.3125 40.777344 354.253906 40.953125 C 354.195312 41.125 354.128906 41.277344 354.050781 41.414062 C 353.976562 41.546875 353.835938 41.722656 353.628906 41.9375 C 353.421875 42.152344 353.234375 42.339844 353.070312 42.492188 C 352.90625 42.644531 352.636719 42.882812 352.261719 43.210938 L 351.246094 44.199219 L 352.976562 44.199219 C 353.539062 44.199219 353.84375 44.175781 353.886719 44.125 C 353.949219 44.035156 354.019531 43.75 354.097656 43.269531 L 354.34375 43.269531 L 354.070312 44.941406 Z M 350.503906 44.941406 "/>
<path fill="none" stroke-width="0.710919" stroke-linecap="butt" stroke-linejoin="miter" stroke="rgb(6.666565%, 52.940369%, 87.057495%)" stroke-opacity="1" stroke-miterlimit="4" d="M 34.085938 55.316406 C 138.230469 55.316406 138.230469 55.316406 138.230469 55.316406 "/>
<path fill="none" stroke-width="0.680957" stroke-linecap="butt" stroke-linejoin="miter" stroke="rgb(6.666565%, 52.940369%, 87.057495%)" stroke-opacity="1" stroke-miterlimit="4" d="M 42.607422 58.042969 L 42.607422 52.59375 " transform="matrix(0.8, 0, 0, 1, 0, 0)"/>
<path fill="none" stroke-width="0.680957" stroke-linecap="butt" stroke-linejoin="miter" stroke="rgb(6.666565%, 52.940369%, 87.057495%)" stroke-opacity="1" stroke-miterlimit="4" d="M 172.788086 58.042969 L 172.788086 52.59375 " transform="matrix(0.8, 0, 0, 1, 0, 0)"/>
<path fill="none" stroke-width="0.721814" stroke-linecap="butt" stroke-linejoin="miter" stroke="rgb(6.666565%, 52.940369%, 87.057495%)" stroke-opacity="1" stroke-miterlimit="4" d="M 138.21875 55.316406 C 343.886719 55.316406 343.886719 55.316406 343.886719 55.316406 "/>
<path fill="none" stroke-width="0.680957" stroke-linecap="butt" stroke-linejoin="miter" stroke="rgb(6.666565%, 52.940369%, 87.057495%)" stroke-opacity="1" stroke-miterlimit="4" d="M 429.858398 58.042969 L 429.858398 52.59375 " transform="matrix(0.8, 0, 0, 1, 0, 0)"/>
<path fill-rule="nonzero" fill="rgb(6.666565%, 52.940369%, 87.057495%)" fill-opacity="1" d="M 200.671875 27.195312 C 200.671875 27.167969 200.699219 27.058594 200.75 26.867188 C 200.796875 26.664062 200.875 26.40625 200.972656 26.085938 C 201.082031 25.761719 201.1875 25.484375 201.292969 25.25 C 201.644531 24.578125 202.097656 24.238281 202.652344 24.238281 C 202.660156 24.238281 202.667969 24.238281 202.671875 24.238281 C 203.097656 24.238281 203.457031 24.375 203.75 24.652344 C 204.046875 24.925781 204.222656 25.296875 204.285156 25.757812 C 205.03125 24.746094 205.949219 24.238281 207.035156 24.238281 C 207.550781 24.238281 207.996094 24.371094 208.378906 24.632812 C 208.765625 24.894531 208.992188 25.328125 209.054688 25.925781 C 209.824219 24.800781 210.785156 24.238281 211.933594 24.238281 C 212.484375 24.238281 212.957031 24.386719 213.351562 24.6875 C 213.75 24.988281 213.953125 25.503906 213.953125 26.238281 C 213.953125 27.019531 213.5625 28.445312 212.777344 30.515625 C 212.546875 31.210938 212.433594 31.691406 212.433594 31.960938 C 212.433594 32.332031 212.574219 32.515625 212.855469 32.515625 C 213.574219 32.515625 214.171875 31.714844 214.644531 30.113281 C 214.683594 29.957031 214.71875 29.867188 214.75 29.839844 C 214.78125 29.808594 214.855469 29.792969 214.976562 29.792969 C 215.164062 29.792969 215.257812 29.851562 215.257812 29.972656 C 215.257812 30.015625 215.230469 30.132812 215.179688 30.328125 C 215.132812 30.523438 215.039062 30.769531 214.910156 31.070312 C 214.785156 31.371094 214.628906 31.65625 214.449219 31.933594 C 214.273438 32.207031 214.042969 32.445312 213.753906 32.644531 C 213.46875 32.847656 213.152344 32.945312 212.816406 32.945312 C 212.367188 32.945312 212.007812 32.800781 211.746094 32.503906 C 211.488281 32.207031 211.363281 31.839844 211.363281 31.40625 C 211.363281 31.125 211.460938 30.714844 211.664062 30.179688 C 212.40625 28.050781 212.777344 26.632812 212.777344 25.925781 C 212.777344 25.082031 212.484375 24.660156 211.898438 24.660156 C 210.894531 24.660156 209.992188 25.351562 209.183594 26.734375 C 209.039062 26.976562 208.882812 27.4375 208.707031 28.113281 C 208.667969 28.257812 208.617188 28.46875 208.546875 28.742188 C 208.484375 29.019531 208.433594 29.226562 208.398438 29.371094 L 207.628906 32.441406 C 207.503906 32.769531 207.273438 32.941406 206.941406 32.945312 C 206.761719 32.945312 206.621094 32.894531 206.527344 32.785156 C 206.441406 32.6875 206.398438 32.570312 206.398438 32.441406 C 206.398438 32.378906 206.417969 32.289062 206.453125 32.175781 L 207.710938 27.175781 C 207.824219 26.648438 207.878906 26.234375 207.878906 25.925781 C 207.878906 25.082031 207.585938 24.660156 207 24.660156 C 205.996094 24.660156 205.09375 25.351562 204.285156 26.734375 C 204.140625 26.976562 203.984375 27.4375 203.808594 28.113281 C 203.78125 28.257812 203.730469 28.46875 203.648438 28.742188 C 203.574219 29.019531 203.523438 29.226562 203.5 29.371094 L 202.730469 32.441406 C 202.605469 32.769531 202.371094 32.941406 202.035156 32.945312 C 201.851562 32.945312 201.71875 32.894531 201.628906 32.785156 C 201.542969 32.6875 201.5 32.570312 201.5 32.441406 C 201.5 32.378906 201.519531 32.289062 201.554688 32.175781 L 203 26.40625 C 203.089844 26.050781 203.132812 25.722656 203.132812 25.429688 C 203.132812 24.917969 202.964844 24.660156 202.636719 24.660156 C 202.351562 24.660156 202.113281 24.855469 201.914062 25.242188 C 201.710938 25.625 201.519531 26.191406 201.332031 26.949219 C 201.28125 27.15625 201.238281 27.28125 201.199219 27.324219 C 201.160156 27.371094 201.082031 27.390625 200.964844 27.390625 C 200.769531 27.386719 200.671875 27.320312 200.671875 27.195312 Z M 200.671875 27.195312 "/>
<path fill-rule="nonzero" fill="rgb(6.666565%, 52.940369%, 87.057495%)" fill-opacity="1" d="M 216.265625 34.480469 C 216.265625 34.367188 216.273438 34.292969 216.28125 34.257812 C 216.292969 34.222656 216.324219 34.179688 216.375 34.125 L 218.21875 32.070312 C 218.890625 31.3125 219.226562 30.605469 219.226562 29.945312 C 219.226562 29.515625 219.113281 29.148438 218.890625 28.84375 C 218.667969 28.535156 218.351562 28.382812 217.941406 28.382812 C 217.660156 28.382812 217.402344 28.46875 217.164062 28.640625 C 216.925781 28.8125 216.75 29.050781 216.640625 29.359375 C 216.660156 29.351562 216.703125 29.347656 216.769531 29.347656 C 216.929688 29.347656 217.050781 29.398438 217.140625 29.5 C 217.230469 29.597656 217.277344 29.71875 217.277344 29.851562 C 217.277344 30.023438 217.21875 30.152344 217.105469 30.234375 C 216.996094 30.316406 216.886719 30.359375 216.777344 30.359375 C 216.734375 30.359375 216.683594 30.351562 216.625 30.34375 C 216.566406 30.335938 216.492188 30.285156 216.402344 30.199219 C 216.3125 30.109375 216.265625 29.984375 216.265625 29.824219 C 216.265625 29.375 216.4375 28.972656 216.773438 28.617188 C 217.113281 28.261719 217.542969 28.082031 218.0625 28.082031 C 218.652344 28.082031 219.136719 28.257812 219.523438 28.609375 C 219.910156 28.957031 220.105469 29.402344 220.105469 29.945312 C 220.105469 30.136719 220.074219 30.320312 220.015625 30.492188 C 219.960938 30.667969 219.890625 30.820312 219.8125 30.953125 C 219.738281 31.089844 219.597656 31.261719 219.390625 31.480469 C 219.183594 31.695312 219 31.878906 218.832031 32.03125 C 218.667969 32.1875 218.398438 32.425781 218.027344 32.75 L 217.007812 33.742188 L 218.738281 33.742188 C 219.300781 33.742188 219.605469 33.714844 219.648438 33.664062 C 219.710938 33.574219 219.78125 33.289062 219.859375 32.8125 L 220.105469 32.8125 L 219.832031 34.480469 Z M 216.265625 34.480469 "/>
<path fill-rule="nonzero" fill="rgb(6.666565%, 52.940369%, 87.057495%)" fill-opacity="1" d="M 139.101562 27.195312 C 139.101562 27.167969 139.128906 27.058594 139.175781 26.867188 C 139.226562 26.664062 139.300781 26.40625 139.402344 26.085938 C 139.507812 25.761719 139.613281 25.484375 139.722656 25.25 C 140.070312 24.578125 140.523438 24.238281 141.082031 24.238281 C 141.089844 24.238281 141.09375 24.238281 141.101562 24.238281 C 141.527344 24.238281 141.886719 24.375 142.179688 24.652344 C 142.472656 24.925781 142.652344 25.296875 142.714844 25.757812 C 143.460938 24.746094 144.375 24.238281 145.464844 24.238281 C 145.976562 24.238281 146.425781 24.371094 146.804688 24.632812 C 147.195312 24.894531 147.417969 25.328125 147.480469 25.925781 C 148.25 24.800781 149.210938 24.238281 150.363281 24.238281 C 150.914062 24.238281 151.386719 24.386719 151.78125 24.6875 C 152.179688 24.988281 152.378906 25.503906 152.378906 26.238281 C 152.378906 27.019531 151.988281 28.445312 151.207031 30.515625 C 150.976562 31.210938 150.859375 31.691406 150.859375 31.960938 C 150.859375 32.332031 151 32.515625 151.28125 32.515625 C 152 32.515625 152.597656 31.714844 153.074219 30.113281 C 153.113281 29.957031 153.148438 29.867188 153.179688 29.839844 C 153.210938 29.808594 153.285156 29.792969 153.402344 29.792969 C 153.589844 29.792969 153.683594 29.851562 153.683594 29.972656 C 153.683594 30.015625 153.660156 30.132812 153.609375 30.328125 C 153.558594 30.523438 153.46875 30.769531 153.335938 31.070312 C 153.210938 31.371094 153.058594 31.65625 152.878906 31.933594 C 152.703125 32.207031 152.472656 32.445312 152.183594 32.644531 C 151.894531 32.847656 151.582031 32.945312 151.246094 32.945312 C 150.792969 32.945312 150.4375 32.800781 150.175781 32.503906 C 149.917969 32.207031 149.789062 31.839844 149.789062 31.40625 C 149.789062 31.125 149.890625 30.714844 150.089844 30.179688 C 150.835938 28.050781 151.207031 26.632812 151.207031 25.925781 C 151.207031 25.082031 150.914062 24.660156 150.324219 24.660156 C 149.324219 24.660156 148.421875 25.351562 147.613281 26.734375 C 147.46875 26.976562 147.308594 27.4375 147.132812 28.113281 C 147.097656 28.257812 147.042969 28.46875 146.976562 28.742188 C 146.914062 29.019531 146.863281 29.226562 146.824219 29.371094 L 146.054688 32.441406 C 145.929688 32.769531 145.703125 32.941406 145.371094 32.945312 C 145.1875 32.945312 145.050781 32.894531 144.957031 32.785156 C 144.871094 32.6875 144.828125 32.570312 144.828125 32.441406 C 144.828125 32.378906 144.84375 32.289062 144.882812 32.175781 L 146.140625 27.175781 C 146.253906 26.648438 146.308594 26.234375 146.308594 25.925781 C 146.308594 25.082031 146.015625 24.660156 145.425781 24.660156 C 144.425781 24.660156 143.523438 25.351562 142.714844 26.734375 C 142.570312 26.976562 142.410156 27.4375 142.238281 28.113281 C 142.210938 28.257812 142.15625 28.46875 142.078125 28.742188 C 142 29.019531 141.953125 29.226562 141.925781 29.371094 L 141.15625 32.441406 C 141.03125 32.769531 140.800781 32.941406 140.460938 32.945312 C 140.28125 32.945312 140.148438 32.894531 140.058594 32.785156 C 139.972656 32.6875 139.929688 32.570312 139.929688 32.441406 C 139.929688 32.378906 139.945312 32.289062 139.984375 32.175781 L 141.429688 26.40625 C 141.515625 26.050781 141.5625 25.722656 141.5625 25.429688 C 141.5625 24.917969 141.394531 24.660156 141.0625 24.660156 C 140.78125 24.660156 140.539062 24.855469 140.339844 25.242188 C 140.140625 25.625 139.945312 26.191406 139.757812 26.949219 C 139.707031 27.15625 139.664062 27.28125 139.628906 27.324219 C 139.589844 27.371094 139.511719 27.390625 139.394531 27.390625 C 139.199219 27.386719 139.101562 27.320312 139.101562 27.195312 Z M 139.101562 27.195312 "/>
<path fill-rule="nonzero" fill="rgb(6.666565%, 52.940369%, 87.057495%)" fill-opacity="1" d="M 155.070312 28.996094 L 155.070312 28.695312 C 155.839844 28.695312 156.421875 28.492188 156.820312 28.082031 C 156.929688 28.082031 156.996094 28.09375 157.011719 28.121094 C 157.03125 28.144531 157.042969 28.214844 157.042969 28.332031 L 157.042969 33.722656 C 157.042969 33.914062 157.089844 34.039062 157.183594 34.097656 C 157.277344 34.15625 157.527344 34.1875 157.9375 34.1875 L 158.242188 34.1875 L 158.242188 34.480469 C 158.015625 34.464844 157.5 34.453125 156.683594 34.453125 C 155.871094 34.453125 155.355469 34.464844 155.132812 34.480469 L 155.132812 34.1875 L 155.4375 34.1875 C 155.839844 34.1875 156.089844 34.160156 156.1875 34.101562 C 156.285156 34.042969 156.332031 33.917969 156.332031 33.722656 L 156.332031 28.742188 C 156 28.914062 155.578125 28.996094 155.070312 28.996094 Z M 155.070312 28.996094 "/>
<path fill-rule="nonzero" fill="rgb(6.666565%, 52.940369%, 87.057495%)" fill-opacity="1" d="M 161.195312 29.960938 C 161.195312 28.566406 161.664062 27.265625 162.59375 26.058594 C 163.53125 24.84375 164.535156 24.238281 165.597656 24.238281 C 166.316406 24.238281 166.855469 24.609375 167.210938 25.355469 L 168.328125 20.851562 L 168.347656 20.699219 C 168.371094 20.613281 168.382812 20.558594 168.382812 20.53125 C 168.382812 20.457031 168.371094 20.402344 168.347656 20.363281 C 168.320312 20.320312 168.234375 20.28125 168.085938 20.25 C 167.941406 20.21875 167.722656 20.203125 167.425781 20.203125 C 167.121094 20.203125 166.96875 20.132812 166.96875 19.988281 C 166.96875 19.875 166.988281 19.789062 167.035156 19.734375 C 167.078125 19.671875 167.125 19.632812 167.175781 19.621094 C 167.222656 19.609375 167.300781 19.597656 167.410156 19.585938 L 169.304688 19.433594 C 169.378906 19.410156 169.484375 19.394531 169.613281 19.394531 C 169.796875 19.394531 169.886719 19.472656 169.886719 19.621094 C 169.886719 19.671875 169.867188 19.757812 169.828125 19.875 L 167.082031 30.84375 C 167.003906 31.152344 166.96875 31.449219 166.96875 31.734375 C 166.96875 32.253906 167.128906 32.515625 167.457031 32.515625 C 167.457031 32.515625 167.457031 32.515625 167.464844 32.515625 C 167.941406 32.515625 168.367188 31.753906 168.75 30.234375 C 168.800781 30.027344 168.84375 29.902344 168.882812 29.859375 C 168.925781 29.816406 169.003906 29.792969 169.117188 29.792969 C 169.308594 29.792969 169.40625 29.855469 169.40625 29.980469 C 169.40625 30.007812 169.382812 30.117188 169.332031 30.320312 C 169.289062 30.519531 169.21875 30.773438 169.125 31.078125 C 169.03125 31.386719 168.933594 31.648438 168.824219 31.867188 C 168.480469 32.585938 168.015625 32.945312 167.425781 32.945312 C 167.058594 32.945312 166.722656 32.835938 166.421875 32.609375 C 166.128906 32.382812 165.933594 32.046875 165.832031 31.59375 C 165.101562 32.488281 164.332031 32.941406 163.523438 32.945312 C 162.816406 32.945312 162.25 32.660156 161.824219 32.09375 C 161.40625 31.515625 161.195312 30.808594 161.195312 29.960938 Z M 162.5 30.808594 C 162.5 31.234375 162.578125 31.625 162.734375 31.980469 C 162.890625 32.335938 163.167969 32.515625 163.5625 32.515625 C 164.035156 32.515625 164.53125 32.253906 165.042969 31.734375 C 165.558594 31.210938 165.855469 30.761719 165.945312 30.386719 L 166.863281 26.695312 C 166.902344 26.585938 166.921875 26.5 166.921875 26.445312 C 166.921875 26.03125 166.796875 25.621094 166.546875 25.214844 C 166.300781 24.84375 165.984375 24.660156 165.597656 24.660156 C 165.214844 24.660156 164.820312 24.867188 164.414062 25.28125 C 164.015625 25.6875 163.691406 26.191406 163.449219 26.789062 C 163.253906 27.242188 163.046875 27.910156 162.828125 28.800781 C 162.609375 29.6875 162.5 30.355469 162.5 30.808594 Z M 162.5 30.808594 "/>
<path fill-rule="nonzero" fill="rgb(6.666565%, 52.940369%, 87.057495%)" fill-opacity="1" d="M 170.863281 28.996094 L 170.863281 28.695312 C 171.632812 28.695312 172.214844 28.492188 172.613281 28.082031 C 172.722656 28.082031 172.785156 28.09375 172.804688 28.121094 C 172.824219 28.144531 172.832031 28.214844 172.832031 28.332031 L 172.832031 33.722656 C 172.832031 33.914062 172.878906 34.039062 172.972656 34.097656 C 173.066406 34.15625 173.320312 34.1875 173.730469 34.1875 L 174.035156 34.1875 L 174.035156 34.480469 C 173.808594 34.464844 173.289062 34.453125 172.476562 34.453125 C 171.664062 34.453125 171.144531 34.464844 170.921875 34.480469 L 170.921875 34.1875 L 171.226562 34.1875 C 171.632812 34.1875 171.882812 34.160156 171.980469 34.101562 C 172.074219 34.042969 172.125 33.917969 172.125 33.722656 L 172.125 28.742188 C 171.789062 28.914062 171.367188 28.996094 170.863281 28.996094 Z M 170.863281 28.996094 "/>
<path fill-rule="nonzero" fill="rgb(6.666565%, 52.940369%, 87.057495%)" fill-opacity="1" d="M 223.324219 29.960938 C 223.324219 28.566406 223.789062 27.265625 224.722656 26.058594 C 225.660156 24.84375 226.660156 24.238281 227.726562 24.238281 C 228.445312 24.238281 228.980469 24.609375 229.339844 25.355469 L 230.457031 20.851562 L 230.472656 20.699219 C 230.5 20.613281 230.511719 20.558594 230.511719 20.53125 C 230.511719 20.457031 230.5 20.402344 230.472656 20.363281 C 230.449219 20.320312 230.363281 20.28125 230.210938 20.25 C 230.066406 20.21875 229.847656 20.203125 229.554688 20.203125 C 229.25 20.203125 229.09375 20.132812 229.09375 19.988281 C 229.09375 19.875 229.117188 19.789062 229.160156 19.734375 C 229.203125 19.671875 229.25 19.632812 229.300781 19.621094 C 229.351562 19.609375 229.429688 19.597656 229.535156 19.585938 L 231.429688 19.433594 C 231.507812 19.410156 231.609375 19.394531 231.742188 19.394531 C 231.921875 19.394531 232.011719 19.472656 232.011719 19.621094 C 232.011719 19.671875 231.996094 19.757812 231.957031 19.875 L 229.207031 30.84375 C 229.132812 31.152344 229.09375 31.449219 229.09375 31.734375 C 229.09375 32.253906 229.257812 32.515625 229.582031 32.515625 C 229.582031 32.515625 229.585938 32.515625 229.59375 32.515625 C 230.066406 32.515625 230.496094 31.753906 230.878906 30.234375 C 230.929688 30.027344 230.972656 29.902344 231.007812 29.859375 C 231.054688 29.816406 231.132812 29.792969 231.242188 29.792969 C 231.4375 29.792969 231.535156 29.855469 231.535156 29.980469 C 231.535156 30.007812 231.507812 30.117188 231.460938 30.320312 C 231.414062 30.519531 231.347656 30.773438 231.253906 31.078125 C 231.160156 31.386719 231.058594 31.648438 230.953125 31.867188 C 230.609375 32.585938 230.144531 32.945312 229.554688 32.945312 C 229.183594 32.945312 228.851562 32.835938 228.550781 32.609375 C 228.257812 32.382812 228.058594 32.046875 227.960938 31.59375 C 227.226562 32.488281 226.457031 32.941406 225.652344 32.945312 C 224.945312 32.945312 224.378906 32.660156 223.953125 32.09375 C 223.535156 31.515625 223.324219 30.808594 223.324219 29.960938 Z M 224.628906 30.808594 C 224.628906 31.234375 224.707031 31.625 224.863281 31.980469 C 225.019531 32.335938 225.292969 32.515625 225.6875 32.515625 C 226.164062 32.515625 226.65625 32.253906 227.171875 31.734375 C 227.683594 31.210938 227.984375 30.761719 228.070312 30.386719 L 228.992188 26.695312 C 229.027344 26.585938 229.046875 26.5 229.046875 26.445312 C 229.046875 26.03125 228.921875 25.621094 228.671875 25.214844 C 228.429688 24.84375 228.113281 24.660156 227.726562 24.660156 C 227.34375 24.660156 226.949219 24.867188 226.542969 25.28125 C 226.140625 25.6875 225.820312 26.191406 225.574219 26.789062 C 225.382812 27.242188 225.175781 27.910156 224.957031 28.800781 C 224.738281 29.6875 224.628906 30.355469 224.628906 30.808594 Z M 224.628906 30.808594 "/>
<path fill-rule="nonzero" fill="rgb(6.666565%, 52.940369%, 87.057495%)" fill-opacity="1" d="M 232.613281 34.480469 C 232.613281 34.367188 232.617188 34.292969 232.628906 34.257812 C 232.640625 34.222656 232.671875 34.179688 232.722656 34.125 L 234.566406 32.070312 C 235.238281 31.3125 235.574219 30.605469 235.574219 29.945312 C 235.574219 29.515625 235.460938 29.148438 235.238281 28.84375 C 235.015625 28.535156 234.699219 28.382812 234.289062 28.382812 C 234.007812 28.382812 233.746094 28.46875 233.511719 28.640625 C 233.273438 28.8125 233.097656 29.050781 232.988281 29.359375 C 233.007812 29.351562 233.050781 29.347656 233.117188 29.347656 C 233.277344 29.347656 233.398438 29.398438 233.488281 29.5 C 233.578125 29.597656 233.621094 29.71875 233.621094 29.851562 C 233.621094 30.023438 233.566406 30.152344 233.453125 30.234375 C 233.34375 30.316406 233.234375 30.359375 233.125 30.359375 C 233.082031 30.359375 233.03125 30.351562 232.96875 30.34375 C 232.914062 30.335938 232.839844 30.285156 232.75 30.199219 C 232.660156 30.109375 232.613281 29.984375 232.613281 29.824219 C 232.613281 29.375 232.78125 28.972656 233.121094 28.617188 C 233.460938 28.261719 233.890625 28.082031 234.410156 28.082031 C 235 28.082031 235.484375 28.257812 235.871094 28.609375 C 236.257812 28.957031 236.453125 29.402344 236.453125 29.945312 C 236.453125 30.136719 236.421875 30.320312 236.363281 30.492188 C 236.304688 30.667969 236.238281 30.820312 236.160156 30.953125 C 236.085938 31.089844 235.945312 31.261719 235.738281 31.480469 C 235.53125 31.695312 235.347656 31.878906 235.179688 32.03125 C 235.015625 32.1875 234.746094 32.425781 234.375 32.75 L 233.355469 33.742188 L 235.085938 33.742188 C 235.648438 33.742188 235.953125 33.714844 235.996094 33.664062 C 236.058594 33.574219 236.128906 33.289062 236.207031 32.8125 L 236.453125 32.8125 L 236.179688 34.480469 Z M 232.613281 34.480469 "/>
<path fill-rule="nonzero" fill="rgb(6.666565%, 52.940369%, 87.057495%)" fill-opacity="1" d="M 180.707031 30.746094 C 180.722656 30.589844 180.847656 30.511719 181.09375 30.511719 L 192.871094 30.511719 C 193.238281 30.511719 193.425781 30.582031 193.433594 30.726562 C 193.433594 30.882812 193.257812 30.957031 192.90625 30.953125 L 181.222656 30.953125 C 180.878906 30.957031 180.707031 30.890625 180.707031 30.746094 Z M 180.707031 26.992188 C 180.707031 26.835938 180.84375 26.761719 181.113281 26.765625 L 192.851562 26.765625 C 193.234375 26.765625 193.425781 26.839844 193.433594 26.992188 C 193.433594 27.136719 193.269531 27.207031 192.945312 27.207031 L 181.09375 27.207031 C 180.835938 27.207031 180.707031 27.136719 180.707031 26.992188 Z M 180.707031 26.992188 "/>
</svg>
