<?xml version="1.0" encoding="UTF-8"?>
<svg xmlns="http://www.w3.org/2000/svg" xmlns:xlink="http://www.w3.org/1999/xlink" width="635.007753" height="428.10974" viewBox="0 0 635.007753 428.10974">
<defs>
<clipPath id="clip-0">
<path clip-rule="nonzero" d="M 162 28 L 179 28 L 179 428.109375 L 162 428.109375 Z M 162 28 "/>
</clipPath>
</defs>
<path fill="none" stroke-width="1.951657" stroke-linecap="butt" stroke-linejoin="miter" stroke="rgb(7.843018%, 53.33252%, 87.057495%)" stroke-opacity="0.996078" stroke-miterlimit="4" d="M 59.011719 132.695312 L 170.464844 406.929688 L 481.152344 315.234375 L 497.132812 310.515625 C 480.058594 288.421875 426.425781 243.042969 402.195312 234.699219 C 360.304688 220.28125 288.289062 217.878906 248.214844 164.8125 C 208.433594 112.136719 87.425781 66.515625 59.011719 132.695312 Z M 59.011719 132.695312 "/>
<path fill="none" stroke-width="1.561326" stroke-linecap="butt" stroke-linejoin="miter" stroke="rgb(50.195312%, 50.195312%, 50.195312%)" stroke-opacity="1" stroke-dasharray="3.122651 3.122651" stroke-miterlimit="4" d="M 170.128906 406.605469 L 29.464844 59.710938 "/>
<path fill="none" stroke-width="1.561326" stroke-linecap="butt" stroke-linejoin="miter" stroke="rgb(50.195312%, 50.195312%, 50.195312%)" stroke-opacity="1" stroke-dasharray="3.122651 3.122651" stroke-miterlimit="4" d="M 171.511719 406.152344 L 560.078125 291.765625 "/>
<path fill-rule="nonzero" fill="rgb(50.195312%, 50.195312%, 50.195312%)" fill-opacity="1" stroke-width="1.561326" stroke-linecap="butt" stroke-linejoin="miter" stroke="rgb(50.195312%, 50.195312%, 50.195312%)" stroke-opacity="1" stroke-miterlimit="4" d="M 176.386719 -406.664062 C 176.386719 -403.417969 173.753906 -400.789062 170.511719 -400.789062 C 167.269531 -400.789062 164.640625 -403.417969 164.640625 -406.664062 C 164.640625 -408.21875 165.257812 -409.714844 166.359375 -410.816406 C 167.460938 -411.917969 168.953125 -412.535156 170.511719 -412.535156 C 172.070312 -412.535156 173.5625 -411.917969 174.664062 -410.816406 C 175.765625 -409.714844 176.386719 -408.21875 176.386719 -406.664062 Z M 176.386719 -406.664062 " transform="matrix(1, 0, 0, -1, 0, 0)"/>
<path fill-rule="nonzero" fill="rgb(62.35199%, 80.39093%, 94.508362%)" fill-opacity="0.501961" stroke-width="1.4819" stroke-linecap="butt" stroke-linejoin="miter" stroke="rgb(50.195312%, 50.195312%, 50.195312%)" stroke-opacity="1" stroke-miterlimit="4" d="M 154.519531 -108.679688 C 121.601562 -110.441406 89.207031 -117.746094 58.675781 -130.289062 L 170.171875 -406.46875 Z M 154.519531 -108.679688 " transform="matrix(1, 0, 0, -1, 0, 0)"/>
<path fill-rule="nonzero" fill="rgb(62.35199%, 80.39093%, 94.508362%)" fill-opacity="0.501961" stroke-width="1.359794" stroke-linecap="butt" stroke-linejoin="miter" stroke="rgb(50.195312%, 50.195312%, 50.195312%)" stroke-opacity="1" stroke-miterlimit="4" d="M 265.605504 -68.001126 C 238.378235 -69.433059 211.584987 -75.380948 186.333328 -85.593147 L 278.55059 -310.429173 Z M 265.605504 -68.001126 " transform="matrix(1, 0.343158, 0.348685, -0.998086, 0, 0)"/>
<path fill-rule="nonzero" fill="rgb(62.35199%, 80.39093%, 94.508362%)" fill-opacity="0.501961" stroke-width="1.220845" stroke-linecap="butt" stroke-linejoin="miter" stroke="rgb(50.195312%, 50.195312%, 50.195312%)" stroke-opacity="1" stroke-miterlimit="4" d="M 292.811514 22.75797 C 271.959455 21.695163 251.430837 17.115436 232.095365 9.211234 L 302.238968 -163.624022 Z M 292.811514 22.75797 " transform="matrix(0.98834, 0.805166, 0.790637, -1, 0, 0)"/>
<path fill-rule="nonzero" fill="rgb(62.35199%, 80.39093%, 94.508362%)" fill-opacity="0.501961" stroke-width="1.209462" stroke-linecap="butt" stroke-linejoin="miter" stroke="rgb(50.195312%, 50.195312%, 50.195312%)" stroke-opacity="1" stroke-miterlimit="4" d="M 354.965613 137.769665 C 332.565136 136.653393 310.510144 131.799088 289.710878 123.407609 L 364.96532 -63.050381 Z M 354.965613 137.769665 " transform="matrix(0.641951, 1, 0.999833, -0.642212, 0, 0)"/>
<path fill-rule="nonzero" fill="rgb(62.35199%, 80.39093%, 94.508362%)" fill-opacity="0.501961" stroke-width="1.412894" stroke-linecap="butt" stroke-linejoin="miter" stroke="rgb(50.195312%, 50.195312%, 50.195312%)" stroke-opacity="1" stroke-miterlimit="4" d="M 410.575681 343.542598 C 379.0585 342.130823 348.007099 335.274257 318.735013 323.261786 L 422.785953 58.959972 Z M 410.575681 343.542598 " transform="matrix(0.25886, 0.997315, 1, -0.248288, 0, 0)"/>
<path fill-rule="nonzero" fill="rgb(7.843018%, 53.33252%, 87.057495%)" fill-opacity="0.996078" d="M 280.441406 153.289062 C 281.195312 153.289062 281.636719 152.820312 281.636719 152.015625 C 281.636719 151.207031 281.144531 150.660156 280.414062 150.660156 C 278.175781 150.660156 276.09375 154.929688 275.546875 156.359375 L 276.925781 150.714844 L 276.847656 150.660156 C 274.949219 151 274.714844 151.050781 272.816406 151.363281 L 272.816406 151.804688 C 273.441406 151.675781 273.519531 151.675781 273.699219 151.675781 C 274.273438 151.675781 274.613281 151.9375 274.613281 152.40625 C 274.613281 152.925781 274.585938 153.105469 274.195312 154.539062 L 272.085938 162.136719 L 274.066406 162.136719 C 275.417969 157.714844 275.859375 156.59375 277.058594 154.617188 C 277.917969 153.160156 278.644531 152.351562 279.085938 152.351562 C 279.660156 152.351562 279.296875 153.289062 280.441406 153.289062 Z M 280.441406 153.289062 "/>
<path fill-rule="nonzero" fill="rgb(7.843018%, 53.33252%, 87.057495%)" fill-opacity="0.996078" d="M 296.46875 152.09375 L 283.355469 152.09375 L 283.355469 153.808594 L 296.46875 153.808594 Z M 296.46875 157.296875 L 283.355469 157.296875 L 283.355469 159.015625 L 296.46875 159.015625 Z M 296.46875 157.296875 "/>
<path fill-rule="nonzero" fill="rgb(7.843018%, 53.33252%, 87.057495%)" fill-opacity="0.996078" d="M 298.371094 165.859375 C 298.371094 165.3125 297.902344 164.867188 297.355469 164.867188 C 296.808594 164.867188 296.390625 165.335938 296.390625 165.9375 C 296.390625 166.820312 297.300781 167.523438 298.449219 167.523438 C 300.761719 167.523438 302.585938 164.945312 303.652344 160.160156 L 305.527344 151.832031 L 308.363281 151.832031 L 308.519531 151 L 305.707031 151 C 306.460938 146.914062 307.425781 145.066406 308.882812 145.066406 C 309.222656 145.066406 309.453125 145.195312 309.453125 145.378906 C 309.453125 145.5625 309.195312 145.792969 309.195312 146.183594 C 309.195312 146.808594 309.585938 147.226562 310.15625 147.226562 C 310.757812 147.226562 311.25 146.757812 311.25 146.183594 C 311.25 145.222656 310.289062 144.492188 309.011719 144.492188 C 305.835938 144.492188 304.5625 148.214844 303.703125 151 L 301.308594 151 L 301.128906 151.832031 L 303.46875 151.832031 L 301.179688 162.761719 C 300.605469 165.546875 299.75 166.976562 298.65625 166.976562 C 298.34375 166.976562 298.136719 166.792969 298.136719 166.558594 C 298.136719 166.300781 298.371094 166.25 298.371094 165.859375 Z M 298.371094 165.859375 "/>
<path fill-rule="nonzero" fill="rgb(7.843018%, 53.33252%, 87.057495%)" fill-opacity="0.996078" d="M 313.097656 166.847656 L 313.566406 166.691406 C 312.628906 164.0625 312.316406 162.421875 312.316406 159.925781 C 312.316406 156.800781 313.070312 153.054688 314.269531 150.167969 C 315.101562 148.109375 315.933594 146.886719 317.625 145.117188 L 317.289062 144.726562 C 315.257812 146.574219 310.523438 150.347656 310.523438 157.453125 C 310.523438 161.304688 311.355469 163.671875 313.097656 166.847656 Z M 313.097656 166.847656 "/>
<path fill-rule="nonzero" fill="rgb(7.843018%, 53.33252%, 87.057495%)" fill-opacity="0.996078" d="M 322.492188 162.421875 C 328.035156 162.421875 331.027344 154.355469 331.027344 149.777344 C 331.027344 147.199219 330.140625 144.648438 327.125 144.648438 C 321.527344 144.648438 318.746094 152.976562 318.746094 157.558594 C 318.746094 160.210938 320.332031 162.421875 322.492188 162.421875 Z M 328.292969 152.820312 L 321.839844 152.820312 C 322.441406 150.425781 323.84375 145.25 326.96875 145.25 C 328.683594 145.25 328.839844 146.964844 328.839844 148.34375 C 328.839844 149.90625 328.660156 151.335938 328.292969 152.820312 Z M 328.140625 153.445312 C 327.515625 155.996094 326.003906 161.824219 322.621094 161.824219 C 321.164062 161.824219 320.929688 160.132812 320.929688 158.726562 C 320.929688 156.90625 321.242188 155.1875 321.683594 153.445312 Z M 328.140625 153.445312 "/>
<path fill-rule="nonzero" fill="rgb(7.843018%, 53.33252%, 87.057495%)" fill-opacity="0.996078" d="M 336.648438 144.726562 L 336.152344 144.859375 C 337.039062 146.964844 337.429688 149.074219 337.429688 151.675781 C 337.429688 154.980469 336.542969 159.195312 335.242188 161.980469 C 334.488281 163.671875 333.707031 164.765625 332.121094 166.429688 L 332.457031 166.820312 C 336.621094 163.203125 339.222656 159.585938 339.222656 154.226562 C 339.222656 150.296875 338.261719 147.617188 336.648438 144.726562 Z M 336.648438 144.726562 "/>
<path fill-rule="nonzero" fill="rgb(50.195312%, 50.195312%, 50.195312%)" fill-opacity="1" d="M 47.652344 71.613281 C 53.195312 71.613281 56.1875 63.546875 56.1875 58.96875 C 56.1875 56.390625 55.300781 53.839844 52.285156 53.839844 C 46.6875 53.839844 43.902344 62.167969 43.902344 66.75 C 43.902344 69.402344 45.492188 71.613281 47.652344 71.613281 Z M 53.453125 62.011719 L 47 62.011719 C 47.597656 59.617188 49.003906 54.441406 52.128906 54.441406 C 53.84375 54.441406 54 56.15625 54 57.535156 C 54 59.097656 53.820312 60.527344 53.453125 62.011719 Z M 53.296875 62.636719 C 52.671875 65.1875 51.164062 71.015625 47.78125 71.015625 C 46.324219 71.015625 46.089844 69.324219 46.089844 67.917969 C 46.089844 66.097656 46.402344 64.378906 46.84375 62.636719 Z M 53.296875 62.636719 "/>
<path fill-rule="nonzero" fill="rgb(50.195312%, 50.195312%, 50.195312%)" fill-opacity="1" d="M 72.214844 61.285156 L 59.101562 61.285156 L 59.101562 63 L 72.214844 63 Z M 72.214844 66.488281 L 59.101562 66.488281 L 59.101562 68.207031 L 72.214844 68.207031 Z M 72.214844 66.488281 "/>
<path fill-rule="nonzero" fill="rgb(50.195312%, 50.195312%, 50.195312%)" fill-opacity="1" d="M 77.054688 54.597656 C 78.589844 54.648438 78.746094 54.726562 78.746094 55.296875 C 78.746094 55.636719 78.433594 56.730469 78.332031 57.09375 L 74.792969 70.132812 C 74.792969 70.859375 76.691406 71.613281 78.253906 71.613281 C 82.183594 71.613281 86.503906 67.0625 86.503906 62.976562 C 86.503906 61.152344 85.226562 59.851562 83.484375 59.851562 C 81.664062 59.851562 80.308594 60.917969 78.460938 63.78125 L 81.167969 53.683594 L 81.039062 53.554688 C 79.738281 53.789062 78.800781 53.945312 77.054688 54.152344 Z M 78.226562 71.015625 C 77.421875 71.015625 77.03125 70.730469 77.03125 70.132812 C 77.03125 68.074219 79.136719 61.128906 82.46875 61.128906 C 83.585938 61.128906 84.289062 61.984375 84.289062 63.367188 C 84.289062 65.109375 82.050781 71.015625 78.226562 71.015625 Z M 78.226562 71.015625 "/>
<path fill-rule="nonzero" fill="rgb(50.195312%, 50.195312%, 50.195312%)" fill-opacity="1" d="M 154.148438 5.257812 L 154.148438 5.703125 C 154.484375 5.625 154.667969 5.597656 154.953125 5.597656 C 156.4375 5.597656 156.828125 6.25 158.023438 10.722656 C 158.46875 12.414062 159.089844 15.460938 159.089844 15.902344 C 159.089844 16.890625 156.566406 20.039062 155.734375 20.039062 C 155.371094 20.039062 154.746094 19.3125 154.148438 19.3125 C 153.574219 19.3125 153.132812 19.753906 153.132812 20.328125 C 153.132812 20.976562 153.703125 21.472656 154.460938 21.472656 C 157.582031 21.472656 164.84375 9.398438 164.84375 6.066406 C 164.84375 5.285156 164.191406 4.636719 163.410156 4.636719 C 162.8125 4.636719 162.394531 5.023438 162.394531 5.597656 C 162.394531 6.664062 163.800781 6.535156 163.800781 7.496094 C 163.800781 8.539062 162.839844 10.566406 160.625 14.238281 L 160.105469 11.21875 C 159.714844 8.929688 158.257812 4.636719 157.867188 4.636719 C 157.007812 4.714844 156.671875 4.792969 154.148438 5.257812 Z M 154.148438 5.257812 "/>
<path fill-rule="nonzero" fill="rgb(50.195312%, 50.195312%, 50.195312%)" fill-opacity="1" d="M 628.472656 416.503906 C 628.082031 416.503906 627.847656 416.167969 627.664062 415.4375 C 627.402344 414.421875 626.625 411.300781 626.625 410.78125 C 627.769531 408.777344 628.707031 407.632812 629.171875 407.632812 C 629.640625 407.632812 629.980469 408.074219 630.5 408.074219 C 631.046875 408.074219 631.410156 407.683594 631.410156 407.136719 C 631.410156 406.589844 630.96875 406.175781 630.34375 406.175781 C 629.199219 406.175781 628.210938 407.109375 626.414062 409.894531 L 626.128906 408.464844 C 625.765625 406.695312 625.476562 406.175781 624.777344 406.175781 C 624.203125 406.175781 623.320312 406.410156 621.730469 406.929688 L 621.445312 407.03125 L 621.550781 407.421875 C 622.539062 407.1875 622.773438 407.136719 623.007812 407.136719 C 623.65625 407.136719 623.8125 407.371094 624.175781 408.933594 L 624.933594 412.132812 L 622.796875 415.175781 C 622.25 415.957031 621.757812 416.425781 621.472656 416.425781 C 621.003906 416.425781 620.558594 415.933594 619.960938 415.933594 C 619.46875 415.933594 619.078125 416.324219 619.078125 416.84375 C 619.078125 417.519531 619.597656 417.9375 620.378906 417.9375 C 621.316406 417.9375 621.886719 417.570312 625.140625 413.070312 L 625.921875 416.191406 C 626.257812 417.519531 626.597656 417.9375 627.429688 417.9375 C 628.417969 417.9375 629.09375 417.3125 630.605469 414.96875 L 630.242188 414.761719 C 628.964844 416.191406 628.9375 416.503906 628.472656 416.503906 Z M 628.472656 416.503906 "/>
<path fill-rule="nonzero" fill="rgb(50.195312%, 50.195312%, 50.195312%)" fill-opacity="1" d="M 548.996094 284.90625 C 554.539062 284.90625 557.53125 276.839844 557.53125 272.257812 C 557.53125 269.683594 556.644531 267.132812 553.628906 267.132812 C 548.03125 267.132812 545.25 275.460938 545.25 280.039062 C 545.25 282.695312 546.835938 284.90625 548.996094 284.90625 Z M 554.796875 275.304688 L 548.34375 275.304688 C 548.941406 272.910156 550.347656 267.730469 553.472656 267.730469 C 555.1875 267.730469 555.34375 269.449219 555.34375 270.828125 C 555.34375 272.390625 555.164062 273.820312 554.796875 275.304688 Z M 554.640625 275.929688 C 554.019531 278.480469 552.507812 284.308594 549.125 284.308594 C 547.667969 284.308594 547.433594 282.617188 547.433594 281.210938 C 547.433594 279.390625 547.746094 277.671875 548.1875 275.929688 Z M 554.640625 275.929688 "/>
<path fill-rule="nonzero" fill="rgb(50.195312%, 50.195312%, 50.195312%)" fill-opacity="1" d="M 573.558594 274.574219 L 560.445312 274.574219 L 560.445312 276.292969 L 573.558594 276.292969 Z M 573.558594 279.78125 L 560.445312 279.78125 L 560.445312 281.496094 L 573.558594 281.496094 Z M 573.558594 279.78125 "/>
<path fill-rule="nonzero" fill="rgb(50.195312%, 50.195312%, 50.195312%)" fill-opacity="1" d="M 585.476562 283.554688 C 585.269531 283.554688 585.113281 283.398438 585.113281 283.214844 C 585.113281 282.695312 586.207031 278.246094 587.429688 273.769531 C 587.507812 273.507812 587.535156 273.457031 587.585938 273.222656 L 587.402344 273.144531 L 585.816406 273.328125 L 585.738281 273.40625 L 585.453125 274.652344 C 585.242188 273.691406 584.488281 273.144531 583.371094 273.144531 C 579.9375 273.144531 575.929688 277.90625 575.929688 282.019531 C 575.929688 283.839844 576.917969 284.90625 578.582031 284.90625 C 580.402344 284.90625 581.523438 284.046875 583.8125 280.820312 C 583.292969 282.851562 583.214844 283.1875 583.214844 283.8125 C 583.214844 284.566406 583.527344 284.878906 584.253906 284.878906 C 585.296875 284.878906 585.945312 284.386719 587.871094 282.019531 L 587.558594 281.757812 C 586.675781 282.640625 585.867188 283.554688 585.476562 283.554688 Z M 584.984375 275.304688 C 584.984375 278.503906 582.171875 283.632812 579.625 283.632812 C 578.710938 283.632812 578.113281 282.875 578.113281 281.679688 C 578.113281 279.9375 580.273438 273.71875 583.398438 273.71875 C 584.359375 273.71875 584.984375 274.339844 584.984375 275.304688 Z M 584.984375 275.304688 "/>
<path fill="none" stroke-width="1.399572" stroke-linecap="butt" stroke-linejoin="miter" stroke="rgb(50.195312%, 50.195312%, 50.195312%)" stroke-opacity="1" stroke-miterlimit="4" d="M 12.722656 407.113281 C 597.15625 407.113281 597.15625 407.113281 597.15625 407.113281 "/>
<path fill-rule="evenodd" fill="rgb(50.195312%, 50.195312%, 50.195312%)" fill-opacity="1" d="M 14.679688 411.03125 L 3.902344 407.113281 L 14.679688 403.195312 C 12.722656 405.476562 12.722656 408.742188 14.679688 411.03125 Z M 14.679688 411.03125 "/>
<path fill-rule="evenodd" fill="rgb(50.195312%, 50.195312%, 50.195312%)" fill-opacity="1" d="M 595.199219 403.195312 L 605.972656 407.113281 L 595.199219 411.03125 C 597.15625 408.75 597.15625 405.488281 595.199219 403.195312 Z M 595.199219 403.195312 "/>
<g clip-path="url(#clip-0)">
<path fill="none" stroke-width="1.456847" stroke-linecap="butt" stroke-linejoin="miter" stroke="rgb(50.195312%, 50.195312%, 50.195312%)" stroke-opacity="1" stroke-miterlimit="4" d="M -687.893756 170.625 C -54.637896 170.625 -54.637896 170.625 -54.637896 170.625 " transform="matrix(0, -0.619276, 1, 0, 0, 0)"/>
</g>
<path fill-rule="evenodd" fill="rgb(50.195312%, 50.195312%, 50.195312%)" fill-opacity="1" d="M 166.546875 35.101562 L 170.625 28.152344 L 174.703125 35.101562 C 172.328125 33.835938 168.933594 33.835938 166.546875 35.101562 Z M 166.546875 35.101562 "/>
</svg>
